<svg aria-hidden="true" width="0" height="0" style="position:absolute"><symbol viewBox="0 0 170 277" fill="none" id="back3" xmlns="http://www.w3.org/2000/svg"><g clip-path="url(#aclip0_4_38534)" fill="#909090"><path d="M.136 173.475a21.018 21.018 0 00-4.998-8.971 17.353 17.353 0 00-6.643-4.663c-3.7-1.595-10.205-5.255-14.208-4.893-2.18.189-3.178 2.217-5.173 2.881-4.413 1.512-7.489.99-10.407 5.561-4.503 7.058-8.734 15.121-9.063 23.588a.714.714 0 00.258.462c6.894 2.944 14.653 6.591 22.129 7.134 6.599.48 13.088 2.177 19.828 1.211 6.19-.819 8.99-6.691 11.088-12.12.829-2.145 2.099-5.666.673-7.896-1.426-2.23-5.1-2.788-7.665-3.62-4.389-1.369-7.725 1.226-12.119.649-3.287-.431-4.705-1.797-8.018-.952-3.312.846-5.966 3.771-8.634 5.914a53.728 53.728 0 01-10.183 6.672l-.798 1.207-3.802.014c-1.05.191-1.631.751-2.838.897 0 0 .16.569.313.562a26.134 26.134 0 004.794-.829 13.44 13.44 0 004.01-2.234c4.44-2.844 8.72-5.93 12.821-9.246a13.53 13.53 0 015.617-2.839c2.836-.475 4.7 1.221 7.306 1.558 3.367.386 7.14-3.03 10.257-.453-.16.089 3.914.896 4.495 1.23 6.561 3.762 4.18 7.27 1.848 11.857-3.003 5.881-5.144 8.782-11.954 9.104-3.177.24-6.37.123-9.522-.35-1.99-.364-4.174-1.646-6.246-1.78a37.788 37.788 0 01-8.863-.77 48.03 48.03 0 01-10.04-3.402c-7.992-4.49-3.193-10.45.367-16.746 2.549-4.576 3.85-10.587 8.998-12.902 2.518-1.139 5.258-.561 7.743-1.525 2.484-.963.678-2.744 4.487-2.131 9.64 1.599 21.305 7.541 23.894 17.565 0 0 .067.12 0 0l.248.256z"/><path d="M-3.811 173.465a16.425 16.425 0 01-5.296 12.049c-2.402 2.574-5.7 5.805-9.403 5.948l.179.321c4.185.298 8.5-4.551 10.863-7.524a14.469 14.469 0 003.732-10.705l-.055-.1-.02.011zM1.071 174.4c3.68 8.681-6.24 17.572-14.146 19.083l.123.221c4.767-.026 11.186-5.389 13.403-9.333a10.836 10.836 0 00.685-9.902c-.09-.16 0 0 0 0l-.065-.069zM1.16 198.519c2.512-.584 5.868-1.822 8.399-.628 4.327 2.061.875 5.534-.276 8.043-1.589 3.515-.75 6.388.626 9.802l.112.201a14.346 14.346 0 01-1.483-7.379 20.656 20.656 0 012.31-4.863c.608-1.312 1.556-2.866.885-4.306-1.732-3.77-8.138-2.016-10.772-.943l.067.12.131-.047zM10.434 216.917l.224.401.167.301c-.09-.16-.156-.281-.123-.457s-.268-.482-.168-.301l-.1.056zM11.243 218.228l.962 1.726c.078.14.223.401.1-.056s-.637-1.144-.95-1.706a38.14 38.14 0 00-.068-.12l-.044.156z"/><path d="M12.507 220.496l.19.341-.156-.281a2.69 2.69 0 01-.202-.361l.168.301zM13.456 221.493l.822.909-.135-.241c-.033-.06-.56-.582-.83-.878-.27-.297.1.181.123.221l.02-.011zM15.109 223.281c1.88 2.1 3.97 4.002 6.237 5.677a56.514 56.514 0 016.814 4.594l.246.441c1.702-.106.554.192 1.105.568 2.837 1.839 5.821 3.517 8.62 5.429l-.212-.382c-1.369-.947-8.083-4.228-8.603-5.727l-.212-.381c-1.343.09-.18.1-1.09-.446a62.924 62.924 0 01-12.997-9.985l.123.221-.031-.009zM40.388 241.258c2.498 1.606 10.226 7.085 13.227 5.492 2.567-1.43.732-5.668.363-7.934-1.285-8.015-1.791-16.753-5.988-23.91-3.494-5.943-9.714-13.524-16.176-16.21-4.462-1.879-9.021.266-13.559-.757a50.17 50.17 0 00-12.948-1.361l.246.442a46.778 46.778 0 0110.849.61c4.544.94-.229.627 4.024 1.046 3.263.338 6.412-.942 9.756-.175 4.024.809 6.943 4.022 9.784 6.858 9.239 9.134 11.757 19.881 13.702 31.815.225 1.348.441 2.726.657 4.105-.046 4.602-1.593 6.024-4.638 4.267-2.977-.157-6.72-2.912-9.19-4.375.023.048.05.095.078.14l-.187-.053z"/><path d="M7.76 197.919a49.689 49.689 0 0117.32 6.895c7.433 5.327 11.112 17.215 15.292 25.143a48.608 48.608 0 0013.532 16.841l-.235-.421c-12.975-9.709-14.895-24.997-24.023-37.138-5.106-6.807-13.912-9.976-22.093-11.362l.078.14.13-.098z"/><path d="M54.227 238.887a9.884 9.884 0 00-4.693-4.039c-2.051-1.041-4.082-2.092-6.028-3.322-.37-.241-2.782-2.448-3.473-2.037-.69.411-.081 2.307.12 3.141.486 2.097.91 4.227 1.527 6.277a10.65 10.65 0 003.038 5.172l-.1-.181c-2.763-2.459-3.213-6.521-4.012-9.889-.152-.652-1.212-3.875.094-4.076a18.37 18.37 0 012.933 1.916c3.313 2.126 8.544 3.499 10.523 7.051 0 0 .067.121 0 0l.071-.013z"/><path d="M53.775 237.272c-8.772-7.447-11.375-22.592-23.527-26.106 1.01 9.22.033 21.993 7.735 28.697l-.224-.402c-4.856-4.238-6.857-16.036-6.724-22.684l-.283-2.63c.617-2.29 1.669-2.666 3.165-1.158 4.18.617 8.134 8.329 9.721 10.942 2.995 4.906 5.478 9.835 10.1 13.415l.037-.074z"/><path d="M51.083 222.677a43.682 43.682 0 00-9.93-11.694 40.04 40.04 0 00-9.123-5.437c-1.94-.84-8.138-3.62-10.173-2.697-7.754 3.531 10.218 31.126 12.675 35.254.168.301.288.234 0 0-2.915-4.951-5.77-9.935-8.374-15.033a49.088 49.088 0 01-5.421-13.601c-.669-4.125-.734-6.034 4.317-5.692 10.674.813 20.819 10.678 25.934 19.058l.095-.158zM14.971 199.873c-3.484.915.175 15.077.85 17.515a29.556 29.556 0 007.689 13.521l-.202-.362a33.615 33.615 0 01-7.804-14.955c-.422-1.842-.67-3.703-.919-5.563-.248-1.861-1.813-9.247.37-10.042l.016-.114z"/><path d="M13.905 199.704c4.071 2.309 9.255.105 13.721.247 6.037.083 8.819 3.898 13.61 6.699l-.133-.241c-4.717-2.948-7.149-6.748-13.15-6.956-4.714-.161-9.518 1.779-14.103.151l.067.12-.011-.02zM11.04 197.013c.26.825.6 1.622 1.012 2.382 0 0 .1.181 0 0a8.325 8.325 0 00-1.936-3.05s1.733 3.111.808 1.733a8.72 8.72 0 00-1.48-1.806s.721 1.623.85 1.525a13.002 13.002 0 01-1.474-1.467c.269.482.892 1.318.07.881a7.755 7.755 0 01-1.118-1.112s.259 1.407.419 1.318a9.65 9.65 0 00-1.5-.9c.361 1.403-.52.527-1.313.284.313.562-.075.384-.481.268a8.398 8.398 0 01-1.364-.844c.649 1.164.347.622-.521.29.212.381-.004.607-.505.65l-.241.134.067.12c.067.12.157.281.531.388 0 0 .375.107 0 0-.212-.382.22-.36.462-.257-.153-.651.166-.645.979.059-.291-.521-.597-.693-.024-.749.573-.056 1.341.804 1.627.987 0 0 .286.183 0 0-.494-1.171 1.026-.045 1.26.14 0 0 .235.185 0 0-.507-1.901 1.039-.447 1.425-.084-.432-1.153-.348-1.332.231-.576l.905.917c-.19-.342-.537-.964-.285-1.078.47.435.906.903 1.306 1.403-1.573-2.543-.198-1.442.786.561 0 0 .123.221 0 0a10.104 10.104 0 01-.854-1.864c-.386-1.495 1.509 2.709.46-.257l-.102.004z"/><path d="M3.237 195.127a50.67 50.67 0 01-2.088 5.686c-.791 1.598-1.178 2.602-3.163 2.104-1.394-.38-1.324-.867-.898-2.13a24.001 24.001 0 012.376-4.084 34.447 34.447 0 002.191-6.349 19.05 19.05 0 012.697-6.762l.708-.946c.686-.514.842-.47.591.354.369.662-.309 2.276-.414 3.124-.296 2.11-.487 4.268-.959 6.345-.471 2.078-1.408 3.415-1.68 5.144l.1.18c.351-1.352 1.201-2.562 1.605-3.865.47-1.787.79-3.61.957-5.451.31-2.039 1.436-4.876.576-6.843l-.234-.421c-3.082 3.241-3.78 7.365-5.092 11.567a34.661 34.661 0 01-3.23 6.559c-.389.716-1.239 1.926-1.077 2.783.26 1.222.738 1.325 2.12 1.449 3.667.166 4.477-5.124 5.184-8.147l-.134-.241-.136-.056z"/><path d="M6.251 183.087l-1.065-1.064c.368 1.321-.08.991-.814.19l.067.121c1.74 2.792.816 1.465-.22.359.703 1.686 1.342 2.409-.338.714-.078-.14 0 0 0 0 .66 1.185 1.529 2.226-.183.944-.056-.1 0 0 0 0 1.261 2.69.804 1.445-.402.224-.089-.161 0 0 0 0 1.454 2.609 1.858 2.91 0 .658-.079-.141-.079-.141 0 0a35.979 35.979 0 001.586 3.508l.123.221a10.646 10.646 0 00-1.946-3.493c-.067-.12 0 0 0 0a17.06 17.06 0 001.463 3.051s-1.955-2.566-2.064-2.715c-.11-.15.123.22.156.281.034.06 3.438 5.133 1.22 2.424-.479-.575-.854-1.155-1.352-1.719-.079-.141 0 0 0 0 .29.521 2.558 5.018.917 2.118a9.222 9.222 0 00-1.419-1.839l.134.241 1.744 3.131-1.487-2.67-.1-.18a26.116 26.116 0 011.406 4.081 23.777 23.777 0 00-1.576-2.83c-.067-.12-.224-.401-.187-.053.391.703 1.945 3.492 1.815 4.249 0 0-1.46-2.29-1.77-2.801 0 0-.236-.422-.233-.134.555 1.611 1.08 3.212 1.624 4.802 0 0 .347.623.212.382a10.578 10.578 0 00-1.903-3.7s-.112-.201-.1.056a13.533 13.533 0 011.314 3.397l-1.498-2.69-.145-.261c.53 1.519 1.081 3.027 1.623 4.566l.213.381a9.198 9.198 0 00-2.046-3.673c.625 2.019 1.842 4.865-.202 1.007-.056-.101-.29-.522-.232-.134.421.96.778 1.947 1.068 2.955a6.599 6.599 0 01-1.42-2.549s-.313-.562-.178-.321c.447 1.276 1.038 2.525 1.415 3.814.197.732.436.783 0 0a31.468 31.468 0 01-1.6-2.87l-.144-.261c.282.789.794 3.266 1.405 3.609a19.804 19.804 0 01-1.374-2.233c-.157-.281-.079-.14 0 0l.808 1.97.38.682c-2.455-4.076 1.254 3.904-1.115-1.483 0 0-.269-.481-.201-.361.154.703 1.43 3.7.183 1.792l-.067-.121a116.23 116.23 0 011.17 3.187l.202.362a11.314 11.314 0 00-1.975-3.923c-.078-.141-.078-.141-.1.056.391.702.662 1.472.897 2.129-.302-.541-.492-1.119-.754-1.683l-.179-.321c.27.811.486 1.64.646 2.48a8.527 8.527 0 00-1.118-2.007l-.067-.121c.258.935 1.062 3.038-.364.808-.224-.401-.14.078-.031.228l1.238 1.94s.18.321.188.053c-.195-.68-1.173-4.133.5-.279l.18.321c-.941-2.868-.843-2.975.092-.919l.134.241a18.735 18.735 0 00-.64-1.905c-.18-.321 0 0 .436.783.66 1.184.637 1.144.133-.232-.068-.594.115-.406.538.541.079.141.157.281.1-.055-2.204-5.137-.209-1.225.442-.246 0 0 .167.301.1-.056a35.268 35.268 0 00-1.846-4.021c-.1-.181-.39-.466-.198-.074l2.046 3.673c.067.121.301.542.223.165-.394-.99-2.295-5.77-.095-.972l.179.321a12.859 12.859 0 00-1.266-3.451 18.649 18.649 0 011.89 3.392s.28.502.22.114a20.86 20.86 0 00-1.826-4.505l1.633 2.93c.167.301.234.421.212.145-.597-2.298-1.88-4.791.13-.993l.145.261a9.66 9.66 0 01-.813-2.545c.07-1.854 1.565 2.81.52-.527 0 0-.561-1.528-.581-1.517-.02.012 1.52 2.73 1.587 2.85l.146.261a11.485 11.485 0 01-1.006-2.701c-.154-2.07 1.176 3.054.31-.671-.068-.121-.63-1.412-.44-1.544.19-.132 1.73 2.823 1.797 2.944.067.12.246.441.199.073-.497-1.222-1.077-2.451-1.533-3.696-.878-2.377 1.531 2.75 1.218 2.188.1.181.28.502.067.121 1.419 2.97-1.815-4.249-1.368-3.919a11.494 11.494 0 011.789 3.211l.067.121a32.858 32.858 0 00-1.403-3.085c-1.689-3.267.868 1.936.796 1.713-.071-.223.258.462.168.301-.336-1.075-2.19-6.669.382-.87l.146.261c-.38-1.341-2.897-7.512.051-1.134l.123.221a13.488 13.488 0 01-1.11-2.511c-.155-.939.088-1.259 1.277.735.09.161.179.321 0 0s-2.112-4.452-.177-.979c0 0 .2.361 0 0-.202-.362-1.694-3.37.207-1.089.101.18.1-.056.1-.056-.256-.462-1.978-3.553.178-.625.09.161.09.161.1-.056-1.118-2.007-1.24-2.228.037-.783 0 0 .146.261.078.141-.268-.719-1.565-2.81.035-1.071-.254-.832-.42-1.555.482-.69l-.139.788z"/><path d="M5.027 183.716c-2.907.962-3.194 5.54-3.882 8.079a73.47 73.47 0 01-3.921 10.837l.212.381a37.204 37.204 0 003.556-9.134c.888-3.124 1.221-8.28 4.046-10.142l-.011-.021z"/><path d="M4.784 184.509c-2.323 1.82-2.588 5.07-3.237 7.773-.742 3.385-1.222 7.57-3.351 10.492-.12.067.29.522.28.502a21.995 21.995 0 002.859-8.404c.797-3.285.947-7.733 3.494-10.283l-.045-.08z"/><path d="M5.087 184.156c-3.1 4.198-3.275 9.45-4.91 14.253-.22.596-1.36 4.019-1.918 3.961-1.043-.128.888-3.124 1.085-3.523a32.423 32.423 0 003.57-9.299l-.235-.422a46.725 46.725 0 01-3.22 8.369c-.848 1.734-2.334 3.64-1.68 5.616l.179.321c4.358-5.478 3.358-13.31 7.147-19.102l-.079-.141.06-.033zM13.395 202.513a13.502 13.502 0 00-2.037-1.863l.09.16c1.982 2.71 2.404 3.421 1.218 2.188-.545-.696-.603-.611-.13.284.66 1.657-.6-.087-1.072-.508l.201.361c1.373 2.181 1.532 2.749.518 1.684-.344-.335-.697-.638-1.03-.952-.332-.314.18.321.224.401.503.904.906 1.863 1.38 2.808l-.732-.749-1.238-1.23c-.122-.221.157.281.202.361.257.461 1.962 2.957 1.8 3.231-.163.275-1.42-1.418-1.517-1.496-.335-.365-.29-.285.112.201.383.428.665.935.827 1.485 1.322 2.657-1.425-.626-1.633-.904-.208-.279 0 0 .078.14a7.589 7.589 0 002.94 2.544l-.066-.121a10.856 10.856 0 00-2.968-4.054l.246.442c.825.929 1.72 1.793 2.675 2.586a6.28 6.28 0 00-1.152-2.777c-.1-.18-1.052-1.228-1.023-1.271-.25.402 1.863 2.118 2.153 2.404.056.1.29.285 0 0a8.272 8.272 0 00-.987-2.527s-.769-1.097-.789-1.086c-.02.011 1.62 1.728 1.766 1.803 0 0 .148.076 0 0a6.74 6.74 0 00-.723-1.911 4.6 4.6 0 00-.735-1.037c.1.331.322.612.621.785.3.254.599.508.889.794 0 0 .29.285 0 0a5.266 5.266 0 00-1.692-2.661l.168.301 1.659 1.706a9.464 9.464 0 00-1.04-1.867 9.041 9.041 0 00-.849-1.052c.573.442 1.099.942 1.568 1.493l.078-.096zM14.6 203.735a53.526 53.526 0 003.067 15.412 62.222 62.222 0 01-3.067-15.412zM19.255 222.47a6.095 6.095 0 00-.011-.02l.011.02zM20.525 205.221c1.209 2.877.745 6.055 1.958 9.034 1.46 3.422 3.213 6.758 4.863 10.099 0 0 .068.12 0 0-1.387-2.962-2.956-5.874-4.263-8.881a30.902 30.902 0 01-1.92-8.162 5.19 5.19 0 00-.647-2.058l.01-.032zM41.333 212.671a63.56 63.56 0 00-8.226-5.333c-2.106-1.141-5.417-3.452-7.882-2.973l.145.261c2.452-.314 5.716 1.866 7.842 2.995a69.887 69.887 0 018.114 5.132l.007-.082zM20.022 199.32c-.811.075-1.628.063-2.437-.036l-1.069-.22c-.176-.033-.354-.118-.52-.131-.258-.04-.165-.013 0 0 .401.12.81.208 1.225.265 0 0 .406.115.424.053.018-.063-.395-.096-.446-.094a15.761 15.761 0 01-2.273-.495c.958.364 1.966.583 2.989.649l-.067-.12-2.44-.561.1.181a9.634 9.634 0 004.523.478l-.056-.1.047.131z"/><path d="M15.382 198.96l1.416-.052-.067-.12a7.066 7.066 0 00-3.652-.754l.1.18 2.845.389-.09-.161a14.596 14.596 0 00-4.004-1.293l.111.201c1.053.333 2.113.585 3.123.89 0 0 .721.256.543.171a2.117 2.117 0 00-.759-.182l-1.79-.291.1.181a7.61 7.61 0 012.426.252c.334.096.662.212.982.347a6.574 6.574 0 01-1.229.106l-.055.136zM2.052 177.247l-2.343-2.508a.78.78 0 00.016.832c.288.61.616 1.201.984 1.766.107.169.204.343.29.522l.102.181a5.192 5.192 0 01-.95-.997 19.399 19.399 0 00-1.938-1.734 10.352 10.352 0 002.556 3.362l-.078-.14a147.358 147.358 0 00-2.18-2.31l.067.12L.11 177.96c.258.462.68.7 0 0a9.883 9.883 0 01-.933-1.11 8.89 8.89 0 01-.537-.964c-.157-.281-.005-.339.2-.112.286.202.549.435.782.696.612.58 1.195 1.202 1.778 1.824l-.727-1.305c-.257-.462-.829-1.064-.698-1.583.13-.52.033-.413.145-.212.114.109.222.224.323.345l.55.562 1.154 1.224-.095-.078z"/><path d="M2.197 174.299c-3.33-.223-6.045-2.313-9.292-2.53-3.247-.216-7.704.084-11.414.073-4.848.071-10.315 3.274-14.533 5.466-5.21 2.533-10.183 5.304-15.24 8.252l.268.482c7.954-4.588 18.21-11.931 27.479-13.544 3.16-.552 6.558.501 9.796.276a20.113 20.113 0 017.558.313 21.294 21.294 0 005.487 1.362l-.11-.15zM-.586 138.69c-1.701 3.314-.668 7.999-.803 11.624a23.214 23.214 0 00.918 8.535 79.538 79.538 0 003.547 8.018 25.285 25.285 0 011.947 16.562l.302.541a30.535 30.535 0 002.633-7.252l-.246-.442c.012.02-1.347 5.695-2.036 5.448 0 0 .852-5.735.787-6.277a10.342 10.342 0 00-.827-4.22c-2.52-7.354-7.092-12.355-6.826-20.603.109-3.295-.574-9.095.615-11.914l-.011-.02z"/><path d="M8.01 171.667a22.16 22.16 0 00-2.678-7.871 53.423 53.423 0 01-5.127-13.922c-.618-3.233-1.145-6.49-1.752-9.702l-.134-.241a137.56 137.56 0 002.92 15.1c1.643 5.685 5.958 10.698 6.726 16.556l.044.08zM23.57 164.367c-6.779 1.698-13.134 2.977-16.248 9.839 3.538-6.809 9.65-7.532 16.226-9.879l.022.04z"/><path d="M-.494 149.185a34.652 34.652 0 002.344 8.924c2.098 4.617 5.266 8.559 6.277 13.676l.146.261a26.058 26.058 0 00-2.757-7.827 48.807 48.807 0 01-6.021-15.055l.01.021zM22.085 165.193c-2.193 1.064-4.626 1.13-6.81 1.926a13.484 13.484 0 00-6.09 4.681l.146.261a19.02 19.02 0 016.18-4.52 42.58 42.58 0 006.618-2.267l-.044-.081zM14.919 195.063a38.927 38.927 0 01-3.519 3.117c-.783-.51 2.17-3.181 2.399-3.571a13.554 13.554 0 001.908-6.008c.758-8.074-1.11-14.398 5.187-20.877 9.783-10.077 23.543-10.326 36.172-8.077 2.9.488 7.322 1.023 8.426 3.853s-2.101 8.35-3.145 11.193c-2.62 7.088-4.845 15.217-10.858 20.223-4.764 3.995-11.628 8.134-17.844 8.861-6.215.727-8.607-3.095-13.288-6.405a7.357 7.357 0 00-4.889-1.984s.114.489.268.482c5.725.23 8.646 7.833 15.154 8.337 6.508.504 12.2-3.192 17.305-6.431 11.651-7.384 14.54-22.668 19.116-34.737a.852.852 0 00-.347-.622c-14.326-7.089-33.137-7.84-45.57 3.846a19.132 19.132 0 00-5.324 8.225c-1.478 4.847.193 9.78-.667 14.651a13.91 13.91 0 01-3.807 6.986c-.964 1.194-2.251.912-2.315 2.683.131.447.36.858.67 1.205l.146.26 5.21-4.795-.223-.402-.165-.013z"/><path d="M66.034 162.777c-19.46 7.184-35.384 21.708-52.676 32.787l.29.522c18.03-10.463 33.11-24.992 52.576-32.968l-.19-.341z"/><path d="M14.066 194.144a246.197 246.197 0 0024.057-14.215l-.112-.201a246.583 246.583 0 00-23.99 14.336l.101.181-.056-.101z"/><path d="M16.295 193.007c2.535-4.883 2.433-10.585 4.436-15.62 2.457-6.391 6.654-13.62 12.781-17.007l-.168-.301c-5.792 2.148-9.145 8.723-11.71 14.07-2.887 5.948-2.975 12.677-5.323 18.745l.09.16-.106-.047z"/><path d="M44.735 157.837a31.793 31.793 0 00-17.71 14.573c-2.822 5.358-1.997 11.368-4.522 16.693l.336.602c2.854-6.008 1.729-12.508 5.48-18.463 3.921-6.261 10.021-10.027 16.617-13.043l-.201-.362zM54.029 159.524a21.234 21.234 0 00-14.065 8.098c-3.715 4.462-4.182 9.85-7.219 14.54-.16.089.392.702.38.682 3.062-4.598 3.493-10.098 7.199-14.529 3.706-4.431 8.399-6.572 13.752-8.659l-.067-.121.02-.011zM60.523 175.946a14.093 14.093 0 01-11.897 2.603 21.347 21.347 0 00-9.24-.691s.157.517.28.501c7.41-1.129 14.801 4.168 20.946-2.253l-.09-.16zM62.882 168.058a8.74 8.74 0 01-7.052 5.453c-3.357.529-5.729-1.464-8.788-1.627 0 0 .114.489.268.482 3.142.169 5.625 2.127 8.917 1.528a8.25 8.25 0 006.907-5.714.633.633 0 00-.112-.2l-.14.078z"/><path d="M57.987 162.763c-5.748.151-9.644 4.714-11.471 9.782l.301.542a14.903 14.903 0 0111.241-10.101l-.111-.201.04-.022zM55.826 186.004c-8.07 3.391-17.502 1.597-25.092-2.17l.269.482c6.78 3.587 17.935 6.209 24.955 1.878l-.1-.181-.032-.009zM52.589 190.806c-4.24 4.65-9.61 3.643-15.266 2.639-5.657-1.004-11.19-2.024-16.803-2.948 0 0 .137.528.302.542a833.1 833.1 0 0018.883 3.288c4.97.808 9.66 1.115 12.96-3.432l-.076-.089zM44.523 198.165a24.1 24.1 0 01-15.67-1.107 55.02 55.02 0 00-6.587-3.616 17.216 17.216 0 00-6.072-.194s.16.569.313.562a13.776 13.776 0 019.748 2.171 24.056 24.056 0 005.144 2.394 20.786 20.786 0 0013.145.015l-.145-.261.124.036zM15.252 179.151l-1.018-1.826-.1-.181a9.012 9.012 0 01-.03 3.673c-.995-1.787-1.128-1.082-.167 2.012.826 5.115-.045 2.182-1.328.398-.19-.341-.21-.094-.12.067l1.464 2.629.414.743a13.911 13.911 0 00-2.12-2.816c-.146-.261.013.308.167.301a1.951 1.951 0 01.885 2.531c.324.582.66 1.185.854 1.865-.324-.582-.648-1.164-1.062-1.67 1.08 2.975 1.24 3.78.477 2.364l-.805-1.445c1.155 3.065 1.277 3.707.375 1.947l-1.118-2.007c-.167-.301-.328-.211-.16.09a13.207 13.207 0 011.34 3.303 6.327 6.327 0 00-.324-.582l-.916-1.646s-.213-.381-.22-.062a8.134 8.134 0 01.786 3.296c-.12.54-.514-.923-.626-1.36 0 0-.358-.642-.389-.415.108.571 1.108 4.064.2 1.914l-.258-.461c.09.16.75 2.712.009 1.1l-.28-.502a3.494 3.494 0 00.1 1.97l-.292-.522-.22.123a.69.69 0 01-.382.87s-.107.611-.155.902c-.134-.241-.51-.585-.261-.092l.257.462.235.421.648-.676a1.264 1.264 0 01.254-1.194l-.29-.522.111.201.28.502c.072-.672-.18-2.162.425-.842 0 0 .357.643.377.395.02-.248-.713-2.601.082-.703 0 0 .346.622.377.395a12.674 12.674 0 01-.416-2.398c.041-.681.525.943.595 1.351.07.409.335.603.366.375-.108-1.044-1.275-5.496.395-1.509 0 0 .335.603.346.386a18.194 18.194 0 00-.695-2.663c-.896-2.552.85 1.525.939 1.686.09.16.302.542.333.314a15.156 15.156 0 00-1.98-4.92c-.212-.381-.352-.303-.14.078l2.158 3.874s.246.441.277.214a13.317 13.317 0 00-2.048-5.092c-.268-.482-.16.089-.029.279l2.093 3.331c.09.161.279.266.12-.067a39.806 39.806 0 00-2.145-4.511c-.123-.221-.467-.556-.23-.083a18.383 18.383 0 002.657 3.78s.078.14 0 0c-.73-1.592-4.014-7.679-.135-.95.167.301.288.234.12-.067a14.733 14.733 0 00-1.957-3.513c.706.8 1.33 1.668 1.864 2.591 0 0 .112.201 0 0a15.307 15.307 0 00-2.336-4.194c-.09-.161-.101-.181-.1.055a8.675 8.675 0 002.33 3.147 16.12 16.12 0 00-2.236-4.015c-.168-.301-.1.056-.022.197a19.899 19.899 0 002.266 3.077s.056.1 0 0a9.447 9.447 0 00-2.55-4.576c-.111-.201.079.14.113.2a14.627 14.627 0 002.212 3.029 10.995 10.995 0 00-2.148-4.564c-.168-.301-.01.217.045.317.655.845 1.3 1.722 1.955 2.567 0 0 .067.12 0 0a4.599 4.599 0 00-1.272-3.605c-.078-.14 0 0 0 0 .362.933.851 1.811 1.454 2.609 0 0 .067.121 0 0a8.346 8.346 0 00-1.392-3.064c-.134-.241-.067-.12 0 0a3062.034 3062.034 0 011.107 1.987c-.06-1.334-.928-2.797.322-.837 0 0 .09.161 0 0l.288.234zM15.098 177.791a3.499 3.499 0 01-.45-1.327c-.075-.511.05-.239.458.822.347.623 0 0-.065-.542-.066-.542-.209-.751-.202-.834.006-.083.413.743.503.903l.134.241-.067-1.252c-.027-.379.095-1.104 0 0l.168.302c-.17-.5-.25-1.026-.234-1.553a2.023 2.023 0 01-.18-.321c.157.281.314.562.33.921.016.359.224.401.201.361-.022-.04.244-1.214.11-1.454-.135-.241.178.321.156.281.47-.998 1.054-1.929 1.523-2.926l-.19-.342a13.238 13.238 0 00-1.599 2.837l.157.281a1.841 1.841 0 00-.347-.622 26.963 26.963 0 00-.03 1.595l.178.321-.35-.91-.178-.321a3.724 3.724 0 00.274 1.767l.135.241a3.078 3.078 0 00-.381-1.392l-.123-.221c-.004.501.029 1.001.098 1.497 0 0 .099.602.09.634-.009.031-.37-.899-.372-.951-.002-.051-.179-.321-.156-.281.024.759.183 1.508.47 2.211l.167.301a4.596 4.596 0 00-.817-2.174c-.101-.181 0 0 0 0a4.78 4.78 0 00.616 2.049s.1.181 0 0l-.027-.142zM.392 136.672c-9.22-11.222-18.325-22.192-30.501-30.136-.008 6.211-3.21 11.597-4.377 17.612a75.83 75.83 0 00-.812 18.072c.249 6.436 1.014 12.243 5.474 17.043.19.341-.106-.52-.204-.649-4.615-5.03-4.863-13.07-5.06-19.509a75.591 75.591 0 01.4-10.742 49.958 49.958 0 012.122-9.493c.609-1.785 1.669-8.608 2.762-9.664 4.496-4.24 27.813 24.744 30.317 27.636l-.056-.101-.065-.069z"/><path d="M3.918 175.313a33.547 33.547 0 00-5.383-8.625c-6.918-8.27-13.938-15.59-17.408-26.253-3.72-11.394-5.505-23.232-11.034-33.959-.156-.281-.554-.665-.272-.112 6.492 12.505 7.684 26.673 13.094 39.544 4.865 11.518 15.748 18.131 20.947 29.305 0 0 .123.221 0 0l.056.1z"/><path d="M-14.151 121.367c.872 4.537 1.673 9.088 2.24 13.69.566 4.602 2.33 11.352.915 15.558-1.414 4.207-4.045 1.465-7.184.215-1.602-.659-3.269-1.151-4.862-1.841-6.734-3.034-10.417-9.267-12.042-16.383-.09-.16-.436-.782-.458-.586a30.47 30.47 0 005.337 12.175c4.763 5.815 12.407 6.238 18.376 10.303 1.965-4.539 1.085-9.94.643-14.743a140.484 140.484 0 00-2.884-18.196l-.112-.201.031.009zM-7.77 126.596c5.322 10.922 2.713 22.369-.107 33.486-.053.187.358.642.347.622 2.795-11.209 5.439-23.253-.257-34.045-.1-.181 0 0 0 0l.018-.063z"/></g><defs><clipPath id="aclip0_4_38534"><path fill="#fff" transform="rotate(-29.119 130.74 243.565)" d="M0 0h194v209H0z"/></clipPath></defs></symbol></svg>