<svg aria-hidden="true" width="0" height="0" style="position:absolute"><symbol fill="none" viewBox="0 0 187 151" id="back2" xmlns="http://www.w3.org/2000/svg"><g clip-path="url(#aclip0_4_38470)" fill="#909090"><path d="M78.98 23.809c-5.686-8.707 6.782-8.853 10.027-7.466 9.955 4.28 13.834 16.829 17.397 26.265a117.084 117.084 0 006.417 15.078c5.611 10.141 14.175 17.972 22.373 25.973 13.2 12.84 23.326 27.724 34.989 41.83 2.22 2.675 4.465 5.301 6.831 7.806 3.245 3.478 9.98 13.716 11.688 14.787a82.098 82.098 0 01-6.491-5.789c-13.224-10.749-23.496-26.192-35.012-38.911a692.633 692.633 0 00-17.397-18.531c-3.318-3.454-7.124-6.688-10.198-10.36-17.08-20.429-5.685-9.728-10.053-19.65a157.742 157.742 0 00-17.225-28.844c-3.246-4.474-15.201-13.837-14.079-1.994 0 .268.659 1.192.635.949-1.172-12.647 11.052-1.314 13.517 1.848 2.464 3.162 4.27 6.42 6.343 9.728a100.818 100.818 0 0112.2 24.733c2.952 9.095 8.759 14.105 15.42 20.914a829.556 829.556 0 0134.403 37.307c4.879 5.763 9.759 11.843 14.834 17.485 4.099 4.475 11.297 8.172 13.883 13.522 0 .146.635.9.464.341a25.714 25.714 0 00-5.441-10.361c-6.783-8.195-14.444-15.54-20.959-24.003-6.514-8.463-12.199-16.561-19.226-24.32-7.881-8.73-17.641-16.002-24.814-25.365-8.54-11.114-11.59-23.736-17.567-35.944a36.325 36.325 0 00-10.37-13.74c-6.807-5.01-18.348-1.362-12.541 7.15.342.51 0-.341 0-.511l-.049.073z"/><path d="M116.212 62.744c-3.221-10.384-11.712-25.705-6.124-36.211a17.031 17.031 0 014.773-5.445 17.131 17.131 0 0120.455.07c.22.17 0-.535-.122-.608-6.563-10.92-25.18-7.636-29.279 3.94-2.684 7.417-1.122 21.644 6.149 26.435 0 0-.147-.73-.391-.875-7.319-4.864-8.027-21.304-3.489-27.846a19.022 19.022 0 016.328-5.22 19.082 19.082 0 017.946-2.076c.585 0 12.199.632 11.028 4.183.147-.414-3.66-1.727-3.757-1.751a17.55 17.55 0 00-10.37.389c-20.275 6.858-7.734 31.615-3.196 44.967 0 0 .219.316.146.121l-.097-.073z"/><path d="M102.647 36.017c-2.318-8.293-3.1-16.853 4.416-22.739a18.063 18.063 0 017.807-3.502c1.489-.316 11.2-.656 11.175.73a99.944 99.944 0 00-14.786 2.286c-4.879 2.432-6.953 7.296-8.246 12.33-.122.462-2.074 8.706-1.05 8.852-.634 0-3.879-9.144-4.27-10.092a33.949 33.949 0 01-2.78-16.173c.267-2.432 1.463-8 1.634-2.237 0 3.259-.195 6.517 0 9.728.707 7.296 5.172 13.57 5.929 20.915 0 .194.512.9.488.729a41.398 41.398 0 00-3.148-10.774C96.498 17.364 96.888 9.729 97.01.755c0-.146-.414-.9-.488-.778-6.026 12.378 1.196 24.611 6.222 35.92.147.316.586.778.317.145-2.44-5.666 1.367-16.634 5.759-20.5 5.367-4.865 13.175-4.038 19.763-3.381.195 0-.22-.778-.317-.851-6.1-5.083-17.08-3.21-22.57 1.775-6.929 6.226-5.758 14.592-3.415 22.568 0 0 .341.56.268.317l.098.048zM105.989 47.423c-7.32-7.612-17.348-14.08-28.474-12.16a18.24 18.24 0 00-12.064 6.785 18.125 18.125 0 00-3.795 13.28c0 .145.415.802.44.704 5.757-23.492 42.258-18.069 48.504 2.651 0 .17.586.997.464.584-4.416-14.592-25.033-25.025-39.038-17.51-4.32 2.286-5.954 5.642-8.833 9.095-.659 2.7-1 2.894-1.073.657.175-1.51.552-2.991 1.122-4.402a17.52 17.52 0 015.831-7.296c12.42-9.07 27.4-1.434 37.062 7.71l-.146-.098z"/><path d="M116.529 69.749c-16.298-11.358-43.918-18.532-60.46-4.621-.147.121.292 1.046.487.997a103.707 103.707 0 0162.681 8.05c.147 0 0-.535 0-.535a12.839 12.839 0 00-3.118-4.499 12.892 12.892 0 00-4.714-2.797s.147.875.415.973a3.447 3.447 0 012.262.781 3.427 3.427 0 011.203 2.064c1.756 2.432 1.195 2.602-1.708.705a45.395 45.395 0 01-6.856-2.432 100.74 100.74 0 00-43.333-4.231c-7.71.924-1.952-1.776 2.44-3.43a39.624 39.624 0 0119.934-1.604 89.36 89.36 0 0131.035 11.09s0-.244-.122-.293l-.146-.218zM120.14 66.879a8.912 8.912 0 001.999 3.892 8.95 8.95 0 003.613 2.48v-.146c-.585-2.068-1.342-3.478-2.025-5.472-3.147-9.217-4.001-14.179 1.976-22.058 5.978-7.88 14.64-14.446 25.205-14.932.121 0-.269-.852-.415-.924-12.2-5.691-30.401 8.755-33.671 20.452a20.2 20.2 0 00.635 11.745 20.271 20.271 0 007.075 9.413c.171.146 0-.73-.293-.85a18.813 18.813 0 01-6.964-11.993 18.775 18.775 0 013.158-13.495 41.419 41.419 0 0110.004-9.728c4.001-2.87 9.003-5.885 14.078-6.128l4.367.486c-.902 0-1.781.244-2.684.414a48.097 48.097 0 00-8.002 2.991c-7.32 4.11-15.494 12.038-17.714 20.477a13.545 13.545 0 00-.317 6.323c.585 3.04.537 1.775.903 2.846.366 1.07.805 1.678 1.195 2.431 2.294 2.87 1.635 3.43-2.049 1.678 0-.194 0 0 0 0l-.074.098zM144.345 94.336c-10.492-14.884-8.296-33.318 1.976-47.35.952-1.29 9.369-11.066 10.028-10.166 1.244 1.654-5.49 14.47-6.441 16.805-3.855 9.582-9.76 20.306-8.637 30.959.244 2.261 3.781 10.603 2.22 10.627 0 0 .195.973.488.973a1.32 1.32 0 001.805-.876c0-.17-.17-.656-.268-.778-7.735-10.773-1.976-22.811 2.269-33.39l10.614-26.436c0-.146-.366-1.021-.488-.924-18.251 14.592-28.816 40.297-13.517 60.799v-.243h-.049zM139.61 90.906c-4.88-6.08-13.029-11.794-21.178-9.727-5.978 1.532-12.2 5.885-8.881 12.476 0 0 .341.583.414.413 5.758-12.281 20.691-11.722 29.889-3.745.146.146-.146-.705-.317-.876-7.954-6.907-20.788-9.095-28.108.195-.195.267-1.586 1.994-1.342 2.018-2.44-.267.83-5.35 1.245-5.74a17.688 17.688 0 018.637-4.012c7.539-1.459 14.883 3.989 19.69 9.169v-.195l-.049.024z"/><path d="M143.051 96.062a25.206 25.206 0 00-14.64-7.807c-2.147-.218-11.321.244-10.955 3.843 0 .17.244.875.488.9 3.709.413 7.734-.9 11.565-.657a47.434 47.434 0 0114.639 3.43s-.146-.828-.39-.925a43.104 43.104 0 00-12.541-3.332 46.516 46.516 0 00-5.807-.243c-1.61 0-4.88 1.094-6.368.56-1-.365.244-.584 1.122-1.046a16.852 16.852 0 013.197-1.192 17.793 17.793 0 017.514 0 28.962 28.962 0 0112.2 6.712v-.194l-.024-.049zM130.267 81.276c-2.586-5.083-8.589-12.768-6.368-18.508a18.933 18.933 0 014.001-6.882 13.442 13.442 0 012.44-1.727c-.122 0-.854.973-.951 1.168a20.325 20.325 0 00-2.709 11.819 27.85 27.85 0 001.415 5.253c.415 1.313.879 2.602 1.342 3.891.464 1.289.659 1.946 1.001 2.943.732 1.58.268 1.41-1.391-.56 0-.219-.708-1.094-.464-.437a8.442 8.442 0 003.221 4.572c.195.146 0-.17 0-.244-3.465-9.946-7.881-19.723 0-28.745 0-.146-.293-.973-.464-.924-4.879 1.58-9.54 8.876-8.368 14.13 1.098 4.863 4.879 9.995 7.319 14.348.147.243.171 0 0 0l-.024-.097z"/><path d="M146.858 98.178c-6.027-9.266-4.88-15.321 1.512-22.812 3.563-4.11 7.32-7.66 12.956-8.293.147 0-.341-.948-.463-.997-9.955-4.863-18.714 8.683-20.471 17.024-1.244 5.91 3.513 13.206 8.662 15.832 0 0-.122-.705-.366-.827-4.026-2.067-4.539-4.67-6.027-8.95-1.61-4.669-2.269-4.717-.781-8.268a43.354 43.354 0 014.88-8.755c3.416-4.62 8.784-7.88 14.493-5.059-.146-.316-.293-.656-.464-.997-7.71.9-17.079 9.874-18.494 17.656-1.049 5.278 1.635 10.385 4.563 14.592v-.146zM181.603 136.992c-28.035-28.137-2.66-53.746 22.374-69.408.17 0-.366-1.118-.513-1.045-15.322 7.004-30.865 22.884-36.598 38.911-1.537 4.28-3.611 10.141-1.318 14.592 2.294 4.45 7.832 4.401 9.443 9.022 0 .195.585.924.39.365a7.096 7.096 0 00-2.44-4.11c-1.074-1.07-3.05-1.411-3.977-2.432a15.362 15.362 0 01-3.099-11.138 36.61 36.61 0 014.417-11.625 83.767 83.767 0 0118.055-21.669c1.366-1.216 11.736-10.263 12.516-9.29-.853-1.046-6.978 3.818-8.881 5.204-12.199 8.974-23.472 21.499-23.496 37.55 0 10.822 5.685 18.24 13.297 25.365v-.121l-.17-.171z"/><path d="M178.528 143.194c-3.635-7.296 4.197-15.662 8.638-20.867 3.562-4.158 6.88-8.73 10.516-12.792 1-1.143 1.317-2.845 1.634-.121a10.276 10.276 0 01-1.293 4.256 51.603 51.603 0 01-6.173 9.144l-6.71 9.144c-1.268 1.702-4.879 9.241-6.978 3.453 0-.194-.585-.924-.366-.365 2.44 6.81 5.222 1.168 8.491-3.307 5.685-7.758 14.2-15.759 13.42-26.022 0-.121-.342-.754-.391-.632-4.416 9.338-12.687 15.88-18.299 24.441-2.928 4.499-5.173 8.828-2.562 13.813 0 .195.171.146 0 0l.073-.145z"/><path d="M180.7 142.269c-5.758-4.864-11.126-10.506-19.08-11.041a34.16 34.16 0 00-8.759.681c-3.831.73-.44 0 .488-.146a45.431 45.431 0 0120.3.681c5.001 1.605 11.199 6.226 12.76 11.357.903 2.943.366.9-2-.875a125.917 125.917 0 01-10.956-7.636c-.122 0 0 .583.244.705 4.441 4.353 10.468 6.518 14.64 11.163.317.364 0-.463 0-.535-3.318-5.862-6.881-11.82-13.395-14.592-7.1-2.919-19.031-3.77-25.522.462-.17 0 .318 1.07.513 1.021 5.319-1.046 10.955-2.213 16.298-.778 5.344 1.435 10.077 6.08 14.518 9.533h-.049z"/><path d="M179.65 137.211c-7.125-7.296-15.542-14.3-25.4-17.462-10.857-3.502-23.374 1.995-33.573-2.845-5.733-2.724 4.88.365 6.612.511 6.198.462 12.322-1.143 18.519-1.07 10.882.121 16.787 2.115 24.399 10.36 2.953 3.186 5.685 6.371 8.93 9.363.171.146-.146-.827-.341-.997-9.955-9.12-11.956-17.024-25.985-19.018-12.858-1.873-25.18 2.772-37.477-2.87 0 0 .244.778.342.876 8.71 8.438 19.909 4.499 30.718 5.228 13.541.9 23.569 9.412 33.329 18.021l-.073-.097z"/><path d="M163.937 122.084l.39-.17v-.341c-1.049-1.97-4.441-2.699-6.027-4.013-6.148-5.034-10.76-14.591-3.611-19.65.879-.632 7.808-3.745 8.369-1.702a35.279 35.279 0 00-7.612 2.991 9.046 9.046 0 00-3.685 5.107 10.65 10.65 0 00.757 6.445 14.447 14.447 0 004.221 5.593c.805.681 6.392 4.281 6.246 3.016 0-.243-7.856-4.645-8.588-5.277-8.857-7.612-16.006-13.765-27.986-15.905-.195 0 .244.826.317.9 1.952 2.237 3.88 2.431 6.563 3.939a97.184 97.184 0 0111.492 8.731c6.1 4.596 13.322 6.128 20.544 8.22 0 0-.17-.9-.414-.997a35.026 35.026 0 01-5.246-2.602s.146.656.341.802c5.051 3.283 2.611 1.143-1.561 0a46.459 46.459 0 01-10.37-3.794 101.014 101.014 0 01-10.565-8.171c-2.025-1.532-6.929-3.21-8.076-5.034-.78-1.24 3.197.389 3.831.584a46.5 46.5 0 015.124 1.994 43.769 43.769 0 0110.882 7.296c5.05 4.499 9.198 9.46 16.128 10.87 0 0-.171-.899-.415-.997a23.899 23.899 0 01-5.612-2.432 7 7 0 01-2.971-2.578 6.968 6.968 0 01-1.104-3.769c-3.66-3.129-4.001-6.258-1.024-9.387 2.561-2.846 6.734-3.721 10.296-4.572.171 0-.342-.925-.464-.973-7.49-4.183-15.225 3.429-13.102 11.017a21.87 21.87 0 003.099 6.444c.976 1.435 7.637 9.169 9.637 7.977 0 0 .196.632.293.584l-.097-.146zM188.97 149.881c.341-7.49-1.586-14.592-2.147-22.131a156.088 156.088 0 011.488-30.934c1.391-11.236 2.025-21.717-4.172-31.615 0-.17-.342-.365-.244 0 4.221 16.78-4.66 32.636-4.612 49.368a62.199 62.199 0 009.955 32.856c0 .17.317.365.244 0a191.156 191.156 0 01-4.733-39.203c-.122-6.129-.171-12.16-.269-18.386a56.728 56.728 0 010-10.36c.513-2.432.732-5.35 2.123-1.119 1.708 5.18-.634 13.23-1.561 18.459a103.483 103.483 0 00-2.099 17.778 66.733 66.733 0 004.734 24.076c0 .17.536.827.341.316-5.953-16.027-4.05-29.864-1.561-46.207a43.11 43.11 0 00-1.928-23.468s-.463-.73-.488-.584a362.83 362.83 0 001.293 57.102c.415 3.843.976 7.661 1.659 11.455a25.184 25.184 0 011.294 6.42c-.61 3.964-6.515-13.911-6.222-12.914-3.148-10.603-2.147-21.571.146-32.174 1.936-7.16 3.17-14.49 3.685-21.888 0-.924-1.025-7.855-.684-8.123 0 0 3.489 10.215 3.685 12.16a53.981 53.981 0 01-.488 9.898c-.83 8.804-2.245 17.461-2.44 26.338 0 10.968 3.147 21.62 2.854 32.491a.805.805 0 00.147.292v.097zM61.291 63.206a63.491 63.491 0 0132.158 0c11.785 2.773 26.18 5.886 33.5 16.44.146.22 0-.121 0-.194-5.856-9.46-16.348-12.403-26.62-15.297-12.785-3.575-26.326-6.372-39.038-1.095v.146zM126.191 72.545c-5.783-9.339-9.15-18.483-2.635-27.797a44.074 44.074 0 0113.395-11.406c.122 0-.244-.778-.366-.73-8.784 3.648-17.738 12.695-17.494 22.812.146 6.518 3.855 12.403 7.173 17.753.391.633 0-.437 0-.632h-.073zM78.614 21.741c0-3.404 3.44-4.547 6.319-3.915a13.443 13.443 0 017.759 5.472v-.219a12.172 12.172 0 00-3.235-3.767 12.218 12.218 0 00-4.475-2.167 4.625 4.625 0 00-4.453.51 4.6 4.6 0 00-1.915 4.038v.048z"/><path d="M81.54 17.072a12.235 12.235 0 017.5.902 12.183 12.183 0 015.53 5.13c.195.316.22 0 0-.146a11.353 11.353 0 00-5.503-5.367 11.404 11.404 0 00-7.672-.64l.146.121z"/><path d="M85.177 17.072c2.277.46 4.378 1.55 6.061 3.146a12.296 12.296 0 013.454 5.877s.489.851.39.486a12.148 12.148 0 00-3.455-6.427 12.214 12.214 0 00-6.523-3.3v.17l.073.048zM87.958 21.304a32.692 32.692 0 019.76 11.284c0 .146.146.122 0 0a25.9 25.9 0 00-9.76-11.382.51.51 0 000 .146v-.048z"/><path d="M92.18 20.477c5.831 13.23 12.028 26.557 20.812 38.109v-.268a273.543 273.543 0 01-20.715-37.817c0-.121 0 0 0 0l-.097-.024z"/><path d="M65.707 45.113c10.882-12.525 35.061-12.16 43.918 3.21.366.632.269 0 0-.34-8.735-15.42-33.475-17.024-43.918-2.992v.122z"/><path d="M83.518 37.5c9.125-.218 14.932 5.23 21.764 10.36 0 0 0-.388-.171-.461-5.636-5.642-13.273-11.09-21.642-10.02v.122h.049z"/><path d="M79.247 38.157c4.88.535 9.98.438 14.493 2.165 4.514 1.726 8.003 6.177 12.761 7.684 0 0-.122-.632-.293-.705-4.88-1.92-8.296-6.226-13.395-7.88a52.332 52.332 0 00-13.64-1.41v.146h.074z"/><path d="M106.672 49.199c-1.513-6.396-3.123-14.787-1.366-21.256 0 0-.147-.292-.171-.267-1.391 3.064-.756 6.639-.488 9.898.275 3.887.92 7.738 1.927 11.503v.122h.098z"/><path d="M106.916 44.116c-2.684-5.375-.537-11.99-.196-17.656 0-.146-.268-.51-.292-.51-.952 5.714-2.44 12.791.463 18.166h.025z"/><path d="M107.33 42.292a64.506 64.506 0 01-.293-14.86.722.722 0 00-.244-.437 35.083 35.083 0 00.342 15.03s.195.34.195.267zM78.297 9.825c2.147 2.067 5.026 1.654 7.637 2.724 2.61 1.07 4.148 4.378 7.051 5.496v-.413c-2.83-5.667-10.248-4.013-14.395-8.074 0 0 0 .535.244.656a13.024 13.024 0 006.441 2.992c1.345.291 2.66.706 3.928 1.24a6.69 6.69 0 012.44 1.532c1.61 2.189-.83.17-1.22-.17-1.683-1.532-2.806-3.332-5.05-4.11-2.245-.779-4.88-.608-7.125-2.14.03.094.07.183.122.267h-.073zM7.15 75.44c-7.613-2.773 0-8.634 2.757-9.267 8.173-1.97 16.445 4.037 23.057 8.22a87.516 87.516 0 0011.052 6.397c8.198 3.696 17.202 4.596 26.034 5.763 14.176 1.873 27.425 6.396 41.283 9.728 2.611.632 5.222 1.216 7.881 1.678 3.636.657 12.59 3.891 14.151 3.77a66.899 66.899 0 01-6.734-.584c-13.248-.559-26.838-5.375-39.892-7.88a585.984 585.984 0 00-19.52-3.453c-3.683-.584-7.538-.851-11.174-1.702-20.227-4.694-8.027-3.356-15.42-7.54a123.324 123.324 0 00-24.18-9.946c-4.098-1.24-15.908-1.532-9.76 5.302.147.145.952.437.83.291-6.636-7.296 6.247-5.934 9.248-5.107 3 .827 5.66 2.019 8.466 3.04a79.909 79.909 0 0119.129 9.728c6.075 4.28 12.029 4.718 19.348 5.837a628.497 628.497 0 0138.795 7.296c5.807 1.264 11.565 2.87 17.396 3.988 4.636.876 10.833-.17 14.932 1.946.122 0 .83.291.464 0a20.563 20.563 0 00-8.222-3.916c-8.052-1.945-16.226-2.942-24.253-5.18-8.027-2.237-15.371-4.572-23.252-6.128-8.98-1.751-18.446-1.752-27.254-4.232-10.492-2.967-18.3-9.387-27.717-14.203a28.299 28.299 0 00-12.858-3.72c-6.564 0-12.03 7.66-4.466 10.262.464.17 0-.243-.268-.291l.146-.098z"/><path d="M48.505 82.322c-6.856-4.864-19.275-10.53-20.69-19.65a13.19 13.19 0 013.136-10.513 13.27 13.27 0 014.513-3.354 13.31 13.31 0 015.502-1.188c.22 0-.317-.291-.366-.316-9.174-3.745-19.202 6.931-16.42 16.075 1.805 5.862 9.417 13.984 16.176 13.595 0 0-.44-.389-.659-.389-6.88.39-14.932-9.509-15.176-15.686.038-2.147.544-4.26 1.484-6.191a14.794 14.794 0 013.957-4.996c.342-.316 7.93-5.326 8.808-2.432 0-.316-3.099.657-3.147.657a13.754 13.754 0 00-6.271 5.058c-9.394 13.668 9.98 23.274 19.007 29.427h.146v-.097z"/><path d="M27.57 72.059c-5.319-4.086-9.76-9.047-7.88-16.172a14.044 14.044 0 013.195-5.813c.781-.875 6.661-5.618 7.32-4.742a78.447 78.447 0 00-8.125 8.293 13.531 13.531 0 00.635 11.479c.146.364 2.781 6.396 3.489 5.982a54.329 54.329 0 01-7.32-4.28 26.486 26.486 0 01-9.296-8.755c-.927-1.605-2.806-5.666 0-2.14 1.562 1.97 2.903 4.158 4.611 6.031 3.88 4.232 9.54 6.031 13.444 10.239.122.121.732.316.635.219a31.319 31.319 0 00-6.979-5.23c-6.124-3.866-9.442-8.803-13.565-14.42 0 0-.684-.365-.66-.268 2.026 10.482 12.2 14.737 20.642 19.455.244.146.732.22.269 0-4.197-2.432-6.93-10.968-6.002-15.418 1.122-5.448 6.295-8.634 10.71-11.26 0 0-.512-.39-.61-.39-6.148-.34-12.052 5.886-13.175 11.577-1.415 7.077 3.197 11.698 8.418 15.589 0 0 .464.219.317 0l-.073.024zM35.013 77.652c-8.15-1.289-17.347-.705-23.374 5.667a14.132 14.132 0 00-4.307 9.827 14.127 14.127 0 003.843 10.017s.61.292.586.219C4.44 86.115 29.572 72.545 43.138 82.516c0 0 .83.365.561.146-9.54-7.004-27.23-3.916-32.5 7.296-1.61 3.429-1.073 6.274-1.244 9.728.854 1.97.732 2.261-.366.899-.6-1.02-1.059-2.116-1.366-3.258-.595-2.407-.52-4.93.22-7.296 3.464-11.406 16.371-13.595 26.619-12.403l-.049.024z"/><path d="M51.92 86.554c-15.42.51-35.915 8.852-39.72 25.195 0 .146.682.51.78.389a80.58 80.58 0 0142.65-24.15c.121 0-.293-.291-.318-.291a9.975 9.975 0 00-8.295-.925s.488.487.707.414a2.69 2.69 0 013.49.146c2.22.657 1.976 1.07-.708 1.24a34.24 34.24 0 01-5.441 1.63 78.05 78.05 0 00-11.444 4.863 78.782 78.782 0 00-17.47 12.549c-4.342 4.159-2.024-.194 0-3.234a30.274 30.274 0 0111.64-10.239 69.185 69.185 0 0124.398-7.514s-.17-.146-.244-.146l-.024.073zM52.776 83.1a6.963 6.963 0 006.44 1.361c-1.341-1.021-2.439-1.532-3.83-2.431-6.246-4.28-9.1-6.956-9.076-14.592.024-7.637 2.44-15.784 8.686-20.964 0 0-.561-.389-.683-.364-10.272 2.14-14.81 19.455-11.37 28.332a15.747 15.747 0 005.87 6.986 15.824 15.824 0 008.77 2.571c.146 0-.44-.389-.61-.389a14.663 14.663 0 01-9.934-4.207 14.57 14.57 0 01-4.34-9.85 32.345 32.345 0 011.708-10.651 21.87 21.87 0 015.929-10.507l2.928-1.726c-.513.486-1 .973-1.464 1.508a35.005 35.005 0 00-3.587 5.569c-2.684 5.982-4.002 14.592-1.44 20.939a10.14 10.14 0 002.758 4.061c1.78 1.63 1.146.876 1.903 1.362l1.903 1.022c2.781.705 2.61 1.362-.488 1.994l-.073-.024zM80.713 88.937C67.22 84.559 59.998 72.083 59.827 58.61c0-1.24.635-11.21 1.489-10.968 1.512.438 3.318 11.528 3.83 13.425 2.074 7.733 3.367 17.17 9.077 23.25 1.22 1.288 7.32 4.863 6.368 5.568 0 0 .561.511.732.365a1.025 1.025 0 00.807-.95 1.018 1.018 0 00-.075-.436c0-.146-.415-.316-.537-.34-9.76-3.114-11.882-13.255-14.176-21.888-1.927-7.101-3.83-14.227-5.758-21.353 0 0-.708-.438-.732-.34-4.465 17.607.927 38.4 20.007 44.067.122 0 0-.122-.146-.146v.073zM76.15 89.01c-5.856-1.508-13.615-1.29-17.666 3.794-3.025 3.72-4.88 9.387.293 11.868 0 0 .488.218.44 0-2.148-10.312 7.32-16.878 16.835-16.197.146 0-.415-.39-.61-.39-8.174-.607-17.08 3.989-17.372 13.158v1.872c-1.586.924-1.952-3.697-1.904-4.158a13.995 13.995 0 013.49-6.494c4.001-4.402 11.126-4.426 16.542-3.429h-.146l.097-.024z"/><path d="M80.712 90.639a19.404 19.404 0 00-12.736 1.945c-1.44.876-6.93 5.4-5.027 7.467 0 0 .562.413.732.34 2.44-1.46 4.392-4.159 6.88-5.788a36.364 36.364 0 0110.688-4.645s-.464-.438-.683-.39a33.415 33.415 0 00-9.345 3.746c-1.3.756-2.54 1.61-3.709 2.554-.976.753-2.61 2.967-3.709 3.283-1.098.316-.122-.487.22-1.168.381-.797.865-1.54 1.44-2.213a13.44 13.44 0 014.635-3.526 22.563 22.563 0 0110.76-1.532h-.146v-.073zM65.853 87.356c-3.977-1.97-11.296-3.964-12.59-8.56a14.547 14.547 0 01-.732-6.13c.138-.743.358-1.47.66-2.164v1.192a15.54 15.54 0 003.83 8.585 24.582 24.582 0 003.318 2.626l2.66 1.8 2 1.337c1.196.657.83.779-1.122.317-.17 0-.952-.365-.488 0a6.675 6.675 0 004.148 1.337c.17 0 0-.17 0-.194-6.783-4.572-14.103-8.61-13.493-17.827 0-.121-.61-.462-.707-.34a10.744 10.744 0 001.415 12.646c2.952 2.432 7.759 3.916 11.272 5.52 0 0 .195 0 0 0l-.17-.145z"/><path d="M84.055 90.152c-8.077-2.967-10.248-7.296-9.76-14.883a15.73 15.73 0 014.172-11.163s-.634-.413-.756-.389c-8.491 1.532-7.564 14.081-4.88 20.064 2 4.255 8.369 6.566 12.785 5.812 0 0-.415-.39-.61-.34-3.465.583-5.002-.803-7.93-2.773-2.927-1.97-3.61-1.873-4.343-4.864a34.084 34.084 0 01-1.049-7.685c0-4.475 1.781-8.974 6.661-9.874l-.756-.413c-4.368 4.134-5.93 14.032-3.27 19.456 1.83 3.77 5.88 5.69 9.76 6.955l-.024.097zM123.777 98.153c-30.572-4.474-26.84-32.15-18.519-53.503 0-.145-.732-.535-.805-.413a58.025 58.025 0 00-4.612 41.173c1.025 3.38 2.44 7.977 5.954 9.728 3.513 1.75 6.929-.9 10.101 1.216 0 0 .781.292.39 0a5.497 5.497 0 00-3.489-1.386c-1.147-.17-2.44.535-3.635.267a11.975 11.975 0 01-7.125-5.472 28.478 28.478 0 01-2.684-9.29 64.322 64.322 0 011.098-21.887c.269-1.411 2.44-11.82 3.441-11.6-1.025-.244-2.44 5.617-3.099 7.295-3.44 11.26-4.538 24.32 2.952 34.218 5.026 6.736 12.053 8.706 20.105 9.606l-.073.048z"/><path d="M124.753 103.358c-5.709-2.894-4.709-11.673-4.367-17.023.268-4.256.195-8.634.561-12.841 0-1.192-.513-2.432.951-.827a7.864 7.864 0 011.196 3.235c.422 2.808.553 5.652.39 8.487v8.78c0 1.653 1.245 8.049-2.732 5.398-.122 0-.781-.316-.391 0 4.685 3.113 3.782-1.726 3.733-6.006 0-7.467 1.464-16.368-3.83-22.399 0 0-.562-.316-.537-.219 1.635 7.856-.464 15.76 0 23.688.293 4.158.927 7.879 4.88 9.727.17 0 .195 0 0 0h.146z"/><path d="M125.655 101.802c-5.856-.341-11.833-1.362-17.079 1.994a25.71 25.71 0 00-5.148 4.475c-2.001 2.237-.22.218.268-.317a30.31 30.31 0 013.953-3.745 33.336 33.336 0 018.978-5.253c3.855-1.313 9.76-1.337 13.225 1.143 1.927 1.411.634.389-1.659.389-3.448.296-6.91.41-10.37.341-.122 0 .342.292.488.316 4.88.632 9.54-.827 14.322.122.366 0-.219-.268-.293-.292-4.879-2.116-9.759-4.159-15.078-2.797-5.807 1.46-13.615 6.469-15.664 12.16 0 .146.707.51.805.413a27.586 27.586 0 019.759-8.05c4.148-1.653 9.101-.924 13.469-.826l.024-.073z"/><path d="M122.702 99.175c-7.832-1.192-16.348-1.678-23.96.949-8.369 2.869-13.566 12.159-22.179 13.789-4.88.972 3.123-1.97 4.343-2.748 4.075-2.578 7.125-6.421 11.004-9.242 6.832-4.985 11.419-6.469 19.983-4.864 3.343.633 6.515 1.314 9.93 1.678.171 0-.463-.438-.683-.462-10.443-1.046-15.347-5.01-25.033.243-8.857 4.864-14.322 13.4-24.619 15.614.188.164.403.295.635.389 9.344 1.191 14.444-6.469 21.52-11.017 8.832-5.715 19.031-5.083 29.108-4.28l-.049-.049z"/><path d="M105.843 97.084l.147-.268-.196-.17c-1.586-.754-4.025.364-5.636.291-6.173-.291-13.517-4.11-11.418-10.53.268-.802 3.098-5.958 4.391-4.864a29.171 29.171 0 00-3.318 5.375 7.007 7.007 0 000 4.864 8.207 8.207 0 003.49 3.672 11.495 11.495 0 005.22 1.508c.83 0 5.954-.316 5.295-1.022-.122-.145-7.051.754-7.808.706-9.052-.633-16.371-1.12-24.813 3.112-.122 0 .536.39.634.414a15.03 15.03 0 005.905-.608 72.082 72.082 0 0111.223 0c5.93 0 11.126-2.432 16.591-4.45 0 0-.512-.463-.707-.414-1.471.4-2.973.676-4.49.827 0 0 .415.34.586.316 4.66-.292 2.172-.486-1 .705a35.907 35.907 0 01-8.223 2.432c-3.456.17-6.92.122-10.37-.145-1.976 0-5.806 1.191-7.32.608-1.073-.414 2.172-1.24 2.66-1.411a30.123 30.123 0 014.1-1.143 34.536 34.536 0 0110.125-.584c5.246.438 10.15 1.605 15.103-.73 0 0-.537-.486-.708-.413-1.494.552-3.051.92-4.635 1.094a5.484 5.484 0 01-3.043-.225 5.465 5.465 0 01-2.447-1.817c-3.733-.268-5.417-2.043-5.026-5.375a14.992 14.992 0 014.27-7.612s-.635-.413-.757-.39c-6.588.876-7.832 9.194-2.977 12.939a16.953 16.953 0 004.88 2.553c1.293.438 9.028 2.14 9.76.487 0 0 .415.292.463.219l.049.049zM134.365 102.75c-3.294-4.864-7.832-8.414-11.663-12.767a120.407 120.407 0 01-13.517-19.918c-4.391-7.612-8.881-14.422-17.323-17.632h-.17c10.466 8.463 12.37 22.447 20.202 32.807a48.636 48.636 0 0021.52 15.808h.17a148.809 148.809 0 01-21.251-22.18c-2.928-3.745-5.831-7.539-8.759-11.308a42.629 42.629 0 01-4.88-6.372c-.805-1.702-2.05-3.648.78-1.678 3.465 2.432 5.783 8.512 7.662 12.16a78.65 78.65 0 006.978 12.014 52.256 52.256 0 0014.2 12.767c.122 0 .732.268.366 0-11.175-7.295-16.469-16.683-22.569-28.016a33.863 33.863 0 00-12.2-13.765s-.634-.218-.56-.145a281.282 281.282 0 0027.448 34.898 142.749 142.749 0 006.393 6.347c1.025.925 3.147 2.19 3.806 3.38 1.464 2.749-10.565-5.617-9.882-5.13a50.141 50.141 0 01-14.956-20.064 88.46 88.46 0 00-7.881-15.248 60.596 60.596 0 01-4.221-4.743s6.929 4.718 8.003 5.885a43.842 43.842 0 014.318 6.397c3.612 5.86 6.759 11.892 10.858 17.461 5.051 6.858 12.029 11.965 16.933 18.872h.22l-.025.17zM14.566 108.222a49.203 49.203 0 0120.032-14.86c8.588-3.745 19.007-8.463 28.473-5.325 0 0 .196 0 0 0-8.051-3.186-15.957-.146-23.691 2.82-9.613 3.722-19.348 8.27-24.79 17.438l-.024-.073zM59.24 83.902c-7.929-3.088-14.297-7.296-14.639-16.026.101-4.59 1.122-9.113 3.002-13.303 0 0-.513-.365-.562-.292-3.757 6.348-5.123 16.124-.22 22.301 3.124 3.964 8.174 5.91 12.737 7.71.537.194-.146-.317-.342-.39h.025zM5.952 74.345a3.64 3.64 0 01.66-4.561c.411-.377.903-.656 1.439-.814a10.67 10.67 0 017.32-.219s.146 0 0 0a9.617 9.617 0 00-7.564 0 3.614 3.614 0 00-2.523 2.387 3.588 3.588 0 00.668 3.401v-.194z"/><path d="M5.612 70.065a9.547 9.547 0 015.084-2.896 9.569 9.569 0 015.823.61c.268.121.17 0 0-.146a8.858 8.858 0 00-5.929-.751 8.836 8.836 0 00-5.05 3.183h.072z"/><path d="M7.856 68.387a9.64 9.64 0 0110.126 1.191s.683.316.463.122a9.445 9.445 0 00-10.711-1.386h.122v.073zM11.564 69.724c3.895-.06 7.751.773 11.273 2.432.122 0 .146 0 0 0a20.306 20.306 0 00-11.419-2.432h.146z"/><path d="M13.736 67.267A144.983 144.983 0 0044.43 81.276c.147 0 0-.122-.146-.146a212.806 212.806 0 01-30.548-13.887v.025z"/><path d="M8.857 94.847C9.76 82.006 25.01 71.087 37.575 76.51c.512.218.17 0 0-.244-12.639-5.544-28.718 5.01-28.718 18.532v.049z"/><path d="M16.371 81.835c5.563-4.353 11.712-3.672 18.348-3.648 0 0-.244-.194-.317-.218-6.124-.876-13.42-.706-18.129 3.818l.098.048z"/><path d="M14.006 84.243a46.41 46.41 0 0110.028-5.375c3.782-1.07 7.856.122 11.516-1.143 0 0-.366-.34-.512-.316-3.928 1.07-8.052 0-12.005 1.338a39.066 39.066 0 00-9.125 5.447l.098.049z"/><path d="M36.209 78.382c-3.928-3.283-8.832-7.758-10.784-12.573 0 0-.22-.122-.22 0a15.708 15.708 0 004.319 6.372 47.244 47.244 0 006.587 6.274s.147 0 0 0l.098-.073z"/><path d="M33.989 75.099c-4.172-2.092-5.93-7.296-8.37-10.871l-.414-.195c2.074 4.013 4.49 9.072 8.76 11.09l.024-.024z"/><path d="M33.377 73.785a50.61 50.61 0 01-7.1-9.12l-.341-.218a27.034 27.034 0 007.197 9.193s.293.121.244 0v.145zM.17 67.073c2.319.292 3.929-1.288 6.052-1.848 2.122-.56 4.611.803 6.93.146l-.22-.219C8.514 62.94 4.684 67.414.22 66.806c-.122 0 .317.292.439.316 1.868.109 3.73-.286 5.392-1.143.977-.439 1.99-.797 3.025-1.07a5.776 5.776 0 012.22-.17c2.05.608-.414.51-.829.462a11.455 11.455 0 00-5.05-.195A19.83 19.83 0 010 66.976h.17v.097z"/></g><defs><clipPath id="aclip0_4_38470"><path fill="#fff" d="M0 0h204v151H0z"/></clipPath></defs></symbol></svg>