<svg aria-hidden="true" width="0" height="0" style="position:absolute"><symbol fill="none" viewBox="0 0 72 67" id="back1" xmlns="http://www.w3.org/2000/svg"><path d="M7.775 41.275c-4.217 2.101-4.92 3.064-1.412-.356a14.404 14.404 0 003.676-5.12c2.309-5.73 1.235-11.789 5.648-16.782 8.437-9.469 26.705-9.93 37.52-5.135-.645-.24 5.416 2.903 3.287 1.643 14.595 8.532 13.167 7.362 8.015 14.994-3.767 5.626-7.23 12.15-12.297 16.726a37.968 37.968 0 01-21.575 7.875c-15.155.397-12.973-9.592-22.073-13.134-.215-.08-.65-.096-.228.086 6.401 2.56 7.56 10.17 14.439 12.565a23.426 23.426 0 0010.93.477c6.637-1.028 13.91-3.042 19.021-7.603 7.298-6.416 12.255-16.35 17.73-24.254-10.74-8.416-22.298-13.39-35.994-12.106-9.196.857-19.456 3.644-22.733 13.347-1.54 4.522-.87 10.088-3.98 14.023-1.736 2.219-7.913 2.805-6.573 6.245a.782.782 0 00.667.249l6.45-3.352-.496-.184-.022-.204z" fill="#909090"/><path d="M68.943 22.84C46.962 24.904 26.846 35.11 5.938 41.398c.183.148.41.233.646.24 21.2-5.687 40.67-16.136 62.717-18.64l-.366-.137.008-.021z" fill="#909090"/><path d="M7.304 39.972c9.535-2.224 19.22-4.785 28.53-7.852l-.258-.097c-9.54 2.173-19.193 4.844-28.5 7.84a.713.713 0 00.236.087l-.008.022z" fill="#909090"/><path d="M9.954 39.441c4.462-4.925 5.666-11.703 9.923-16.803 4.007-4.825 9.044-9.978 15.376-11.24a.94.94 0 00-.366-.137c-14.014 1.41-18.566 18.478-25.2 28.106l.195.072.072.002z" fill="#909090"/><path d="M47.349 12.235a34.683 34.683 0 00-19.065 6.998c-6.217 5.03-6.644 12.221-11.326 18.265 0 0 .689.453.818.305 4.162-5.307 4.493-12.043 9.694-16.913 5.55-5.28 12.88-7.444 20.307-8.422l-.41-.152-.018-.08zM56.968 16.29a24.309 24.309 0 00-15.667 3.61 26.321 26.321 0 00-5.58 4.705c-2.445 2.738-3.73 6.252-6.428 8.749 0 0 .703.483.904.337 4.45-3.974 6.004-9.52 11.32-12.925a28.35 28.35 0 0115.532-4.3l-.129-.047.048-.13zM60.3 34.437c-6.171 2.475-11.239.02-16.98-2.269a18.233 18.233 0 00-5.876-1.407l.452.168c7.971.72 14.562 8.226 22.635 3.545l-.215-.08-.016.043zM64.465 27.22c-2.448 3.668-6.4 4.007-10.373 2.892-2.693-.735-4.591-2.35-7.158-3.161-.388-.145-.444.006-.048.13 3.234 1.059 5.33 3.458 8.81 3.923 3.48.465 7.509-.408 9.048-3.68l-.28-.104z" fill="#909090"/><path d="M60.45 20.627a14.064 14.064 0 00-8.33 1.143 14.042 14.042 0 00-6.186 5.69s.633.408.732.273a14.547 14.547 0 015.942-5.478 14.568 14.568 0 017.953-1.465l-.15-.056.04-.107zM53.175 43.22c-9.311 1.425-18.62-3.003-25.705-8.66l-.56-.209c6.81 5.604 17.477 10.93 26.533 8.87l-.236-.088-.032.086zM48.654 47.119C40.28 52.544 23.556 42.09 15 38.409c-.258-.097-.759-.136-.25.078a246.327 246.327 0 0023.032 9.842c3.982 1.29 7.537 1.685 11.024-1.154l-.15-.056zM38.572 52.323c-17.872-.47-13.603-6.129-22.924-10.855a22.399 22.399 0 00-6.114-1.62c-.43-.16.15.252.318.266 7.116 1.234 11.1 7.252 17.434 10.056a26.903 26.903 0 0011.429 2.23l-.302-.112.16.035zM11.842 25.446l-.628-2.194-.43-.16a6.01 6.01 0 01.194 1.91c-.056.15-.28.091-.452-.169l.371 1.437c-.7-1.805-.802-1.598-.233.624 0 0-.688-1.114-1.233-1.098-1.318.048 2.421 4.946-.148 1.317-.52-.709 1.14 2.532.769 2.737l-.519-1.174c-.848-.683-.968-.361-.256.689-.98 2.623 1.208.573-.673-.104a21.7 21.7 0 001.002 2.309c-.383-.878-.767-1.756-1.18-2.62-.08-.178-.796-.298-.732-.274.29 1.408.847 2.747 1.643 3.945.609.668-.976-2.643-1.221-2.906-.245-.262-.797-.297-.754-.28.37.848.66 1.715 1.008 2.556.122.266 1.07 2.849.637 1.316-.13-.441-.463-1.717-1.033-1.635-.57.081.467 3.285.54 3.68.074.395.538.2.797.297-.314-.803-.511-2.64-1.43-2.739-.92-.098-.8-.028-.179 1.135.244.827.337 1.691.274 2.551l.818.306c-.316-.927-.522-2.939-1.501-3.206-.98-.268-.775-.29-.21 1.024a7.8 7.8 0 01.273 2.552l.84.313a41.52 41.52 0 00-1.436-4.039c-.073-.199-.925-.345-.86-.321.505 1.462.76 2.998.756 4.545l.84.313a19.718 19.718 0 00-1.059-3.408c-.06-.17-.882-.33-.86-.321a19.34 19.34 0 01.037 4.301l.84.313-.597-2.672c.064-.172-.904-.337-.883-.33l-.082 3.375.861.322-.383-1.932c-.051-.19-.925-.345-.882-.33l-.168 2.094.882.33-.376-1.489c.048-.128-.883-.329-.883-.329l-.626 1.678.883.329-.065-.22c.056-.15-.624-.233-.753-.281a1.293 1.293 0 01-.259-.097l-.129-.048a4.15 4.15 0 00-.266 1.174l.882.33-.377-.435c-.13-.048-.835-.458-.904-.337l-.512.911.904.338a3.053 3.053 0 00-.149-.521c-.043-.213-.925-.346-.882-.33l.149.521.904.338.49-.92-.883-.33c.125.152.26.293.407.422 0 0 .878.474.883.33a.918.918 0 00-.293-1.188c-.04.108.882.33.882.33l.626-1.678-.882-.33.368 1.51c-.048.13.905.337.861.321l.168-2.093-.882-.33.404 1.94c-.056.15.883.33.861.322l.104-3.367-.883-.33.64 2.69c-.056.15.883.328.84.312.147-1.424.148-2.86.005-4.285l-.861-.321a12.81 12.81 0 011.074 3.365c-.056.15.86.32.84.313-.016-.814.212-2.738-.33-3.455-1.146-1.53.193 2.767.174 2.687-.019-.08.861.321.84.313a16.064 16.064 0 00-.914-5.24c-.073-.2-.904-.338-.86-.322l1.602 4.444.797.298a12.736 12.736 0 00-.936-5.249c-.065-.22-.882-.33-.84-.313.493 1.31 1.036 2.615 1.55 3.934.067.147.796.297.774.289a50.173 50.173 0 00-1.263-5.028c-.073-.199-.86-.321-.818-.305a20.324 20.324 0 001.923 4.245l.667.249a12.33 12.33 0 00-1.497-4.136c-.63-.48-.56-.209.195.857.342.715.632 1.454.867 2.21.06.17.69.257.646.241a18.185 18.185 0 00-1.212-3.784c-.946-1.407.747 2.533.734 2.503-.014-.03.646.241.624.233a14.415 14.415 0 00-1.399-4.466c-.068-.148-.753-.281-.71-.265a8.98 8.98 0 001.711 3.431c.161.124.357.197.56.209-.21-1.52-.64-3-1.278-4.396l-.689-.258a20.181 20.181 0 001.677 3.59l.603.225a9.62 9.62 0 00-1.54-4.812c-.107-.04-.71-.265-.667-.25a17.409 17.409 0 001.738 3.491l.452.169a10.259 10.259 0 00-1.133-4.784l-.603-.225c.508 1.072 1.024 2.121 1.609 3.05l.495.185a4.014 4.014 0 00-.443-3.546 1.241 1.241 0 00-.56-.209c.194.986.533 1.939 1.007 2.825l.409.153a7.344 7.344 0 00-.717-3.207s-.538-.2-.495-.185l.763 2.098.43.16c.223-1.386-.697-2.93.273-.731 0 0 .387.145.366.136l-.252.347zM11.9 23.974a5.048 5.048 0 01-.075-2.036 3.237 3.237 0 01-.43-.161 4.2 4.2 0 01.302 2.146l.496.185c-.053-.779-.02-1.526-.037-2.267a3.555 3.555 0 00-.474-.177c.127.465.23.937.307 1.413l.409.152c.208-.754.333-1.53.372-2.31a3.4 3.4 0 01-.452-.17 1.63 1.63 0 01.083 1.354l.473.177a6.695 6.695 0 01.096-1.703l-.516-.193.16 1.015.56.21c.193-.517.377-1.012.42-1.584l-.603-.225.202.443.603.225c.713-.86 1.489-1.625 2.194-2.464l-.43-.16a14.98 14.98 0 00-2.375 2.42l.581.217a1.242 1.242 0 00-.202-.443l-.582-.216c-.157.517-.28 1.044-.367 1.577l.56.21-.196-1.054-.517-.193a2.936 2.936 0 00-.045 1.699l.473.176a4.59 4.59 0 00-.096-1.383l-.452-.169a12.48 12.48 0 00-.33 2.327l.41.153a12.962 12.962 0 01-.242-1.389l-.495-.185a4.794 4.794 0 00.037 2.268l.495.184a4.2 4.2 0 00-.381-2.2l-.43-.16a4.589 4.589 0 00.288 2.117l.237.088-.032.086z" fill="#909090"/></symbol></svg>