<svg aria-hidden="true" width="0" height="0" style="position:absolute"><symbol fill="curentColor" viewBox="0 0 151 99" id="categoriesb" xmlns="http://www.w3.org/2000/svg"><path d="M.02 60.793c.21-2.512-.048-5.178.993-7.602.94-2.187 1.428-4.611 3.463-6.276a16.681 16.681 0 015.13-2.954c2.478-.853 4.908-1.828 7.43-2.576 2.414-.72 4.262-2.456 5.951-4.262a16.407 16.407 0 014.58-3.463 47.662 47.662 0 005.916-3.597c3.852-2.727 8.09-4.813 12.123-7.24 2.834-1.707 5.271-3.996 8.18-5.594 3.594-1.968 7.238-3.854 11.279-4.715a28.2 28.2 0 015.623-.671c2.483-.019 4.611-.887 6.226-2.587 2.464-2.592 5.466-3.836 8.873-4.376a9.324 9.324 0 004.052-1.617 4.723 4.723 0 012.68-.946c.75-.019 1.424-.365 2.05-.754C97.136-.035 99.829-.392 102.758.42c3.335.925 6.721 1.535 10.229 1.402 1.865-.072 3.679.532 5.36 1.36 2.533 1.247 5.192 2.087 7.893 2.899 3.023.908 5.991 2.179 8.114 4.694.985 1.17 1.79 2.496 2.754 3.697a5.483 5.483 0 004.502 2.15c3.074.021 5.032 1.491 6.111 4.355.671 1.782 1.598 3.445 1.95 5.365a18.526 18.526 0 01-.115 7.533c-.082.37-.202.8-.088 1.138.419 1.228-.197 2.104-.892 2.96-.831 1.02-1.614 2.098-2.568 2.996-2.27 2.131-3.657 4.755-4.422 7.725-.365 1.423-1.417 2.323-2.246 3.41-2.365 3.103-5.735 4.99-8.74 7.315-3.239 2.512-6.196 5.274-8.375 8.806-1.808 2.93-4.579 4.795-7.514 6.455-2.893 1.627-5.77 3.335-7.856 5.95-2.038 2.553-4.504 4.74-6.188 7.603-1.42 2.411-3.655 4.113-5.82 5.826a44.03 44.03 0 01-4.263 3.13c-2.844 1.74-5.86 2.131-9.038 1.087-1.675-.554-3.375-1.025-5.061-1.532a3.498 3.498 0 00-2.185.032c-1.904.677-3.729.323-5.548-.314-2.93-1.023-5.826-2.259-8.93-2.664-4.898-.647-9.59-2.035-14.232-3.655-2.63-.919-4.958-2.418-7.358-3.78-1.894-1.065-3.892-1.795-6.087-1.648a16.617 16.617 0 01-9.086-2.001c-1.931-1.02-4.073-1.37-6.19-1.638a16.668 16.668 0 01-8.749-3.823c-1.598-1.332-3.463-2.328-4.736-4.052C1.131 70.157-.1 66.808.006 62.986c.032-.714.014-1.42.014-2.193zm70.716 19.51c.157.466-.08.986.192 1.54.413-.453 1.377-.368 1.156-1.162-.125-.452-.836-.503-1.374-.354-.621-.575-1.436-.562-2.195-.772-.21 1.094.266 2.112.165 3.159-.022.218.074.352.349.282.716-.183 1.332-1.065 1.398-1.838.019-.266-.389-.793.31-.855zm32.637-41.705c-.221-.06-.348.104-.506.21-2.229 1.517-4.262 3.392-7.003 3.996-.589.134-.743.627-.993 1.066-1.564 2.79-3.892 4.529-7.105 4.915-3.423.41-6.564 1.409-9.249 3.705-1.332 1.14-2.442 2.6-4.067 3.343-5.43 2.488-10.36 5.954-16.058 7.936-3.492 1.215-7.022 2.011-10.674 2.152-3.428.133-6.87-.024-10.306-.05h-2.398v.266c2.27.2 4.529.442 6.814.589 3.498.223 6.972-.232 10.437-.608 2.171-.234 4.366-.498 6.372-1.52a29.66 29.66 0 014.979-1.921c2.038-.608 3.974-1.428 5.65-2.757 1.675-1.33 3.564-2.358 5.447-3.378 1.697-.92 3.325-1.95 4.574-3.463a10.728 10.728 0 011.82-1.694c2.421-1.822 5.28-2.283 8.177-2.587 1.996-.213 3.86-.868 4.891-2.605 1.05-1.777 2.582-2.664 4.364-3.354.932-.357 1.92-.676 2.509-1.502a25.465 25.465 0 012.325-2.768 6.942 6.942 0 002.742-2.432c.182-.263.288-.57.306-.89 0-.732.365-1.332.581-2 .349-1.066 1.166-1.9 1.529-2.954.146-.43.684-.978.314-1.276-.37-.299-.948.2-1.375.42-.426.221-.945.533-.463 1.295.266.42.101 1.047-.253 1.532-.416.567-.855 1.158-.991 1.843-.349 1.766-1.265 3.18-2.392 4.491h.002zM82.915 68.087c.56-.288 1.137-.543 1.726-.765 4.468-1.398 8.895-2.892 13.168-4.821 2.813-1.27 5.746-2.312 8.372-3.943a43.02 43.02 0 016.106-3.196c1.238-.517 2.397-1.207 3.598-1.798 2.8-1.383 5.594-2.832 8.874-2.64a.946.946 0 00.753-.346c1.354-1.332 2.915-2.417 4.473-3.498.847-.589 1.681-1.199 2.677-1.907-3.809-.15-7.24.173-10.064 2.786-.77.714-1.665 1.332-2.783 1.505a37.377 37.377 0 003.622-2.664 7.46 7.46 0 014.199-1.907c1.244-.139 2.493-.03 3.851-.205-.764-.24-1.443-.056-2.104-.28-1.699-.575-3.263-.248-4.664.887-1.668 1.353-3.53 2.422-5.328 3.586-.168.112-.338.234-.509.064a.38.38 0 01.022-.533c.256-.367.539-.714.847-1.039 1.025-.967 1.332-2.07 1.052-3.479-.267-1.366-.208-2.797.82-3.897 1.029-1.1 1.5-2.35 1.993-3.663a22.065 22.065 0 013.196-5.847c1.202-1.55 2.931-2.056 4.822-2.147.381-.016.722-.088.799-.533.064-.373.221-.847-.056-1.103-.277-.255-.714-.056-1.065.094a1.193 1.193 0 00-.533.516c-.735 1.157-.954 1.247-2.272.776-.634-.23-1.212-.238-1.679.266-.647.703-1.22.5-1.79-.067a6.173 6.173 0 01-.785-.847c-1.356-1.979-3.245-3.111-5.576-3.537-2.397-.443-3.836-1.756-4.435-4.217-.655-2.68.157-5.512 3.196-6.519-.444-.183-.799.048-1.198.168-.946.288-1.401 1.188-2.177 1.684-1.065.676-1.419 1.497-1.121 2.664.368 1.443.61 2.93 1.62 4.137.21.25.375.594.077.852-.248.216-.533 0-.799-.139-.317-.16-.549-.516-1.002-.396 1.721.974 3.149 2.445 5.253 2.765 1.143.175 2.382.34 3.231 1.26a10.418 10.418 0 002.017 1.598c.58.396 1.137.826 1.667 1.287.504.428.624.937.451 1.625-.432 1.712-1.463 3.103-2.294 4.605-1.505 2.725-3.197 5.357-3.034 8.708.08 1.628-.504 3.077-2.065 4.025a6.68 6.68 0 00-2.314 2.422c-1.263 2.261-3.359 3.463-5.531 4.582-4.6 2.378-9.307 4.528-13.865 7.013-1.995 1.084-4.214 1.599-6.489 1.833-.287.027-.626.17-.727-.208-.101-.378.298-.469.533-.567.879-.365 1.784-.666 2.664-1.026a43.825 43.825 0 005.538-2.626 35.86 35.86 0 01-5.56 1.998 18.01 18.01 0 00-6.172 2.714 5.063 5.063 0 01-1.678.663c-2.424.61-4.875 1.01-7.408.757 1.753.866 3.505 1.67 5.389 2.131.266.064.517.035.487.408-.218-.032-.445-.043-.658-.096-2.019-.488-3.91-1.311-5.793-2.158-.968-.432-1.934-.341-3.099-.056a53.175 53.175 0 006.705 3.29.612.612 0 01-.706.034c-1.864-.657-3.588-1.598-5.327-2.493-1.652-.85-2.1-.868-3.91-.056 1.187.73 2.471 1.188 3.667 1.836a9.706 9.706 0 01-3.41-1.298c-.78-.458-1.422-.373-2.13.072-1.705 1.084-3.594 1.276-5.522.98-1.93-.295-3.65-.18-5.31.9a8.032 8.032 0 01-3.287 1.208c-1.36.197-2.76.266-4.3.913 2.54.47 4.601 1.599 6.746 2.502.975.413 1.955.799 2.93 1.244a1.481 1.481 0 001.428-.059c.849-.438 1.652-.96 2.397-1.558a3.372 3.372 0 012.022-.768c2.045-.08 4.058-.54 5.935-1.355 2.088-.871 4.3-1.127 6.518-1.362 1.806-.189 3.618-.365 5.328-1.028-.077-.237-.165-.474-.242-.706l.002-.005zm22.608-30.301c-1.065.863-2.397 1.497-3.111 2.688-1.028 1.747-2.597 2.549-4.388 3.172-1.42.496-2.629 1.298-3.305 2.733-.28.594-.8.997-1.298 1.404-1.864 1.5-4.147 1.49-6.337 1.793-2.645.368-5.061 1.332-6.846 3.29a19.225 19.225 0 01-4.917 3.921c-1.652.908-3.378 1.702-4.838 2.93a19.882 19.882 0 01-7.352 3.777c-.8.23-1.561.552-2.344.829-1.465.533-2.8 1.404-4.36 1.66-5.089.841-10.19 1.467-15.368 1.18-1.215-.067-2.435-.419-3.62-.152-.152.447.431.65.178 1.262-.453-.964-.868-1.827-2.064-1.427.14.697.905 1.065 1.113 1.947a3.782 3.782 0 01-1.279-1.476c-.349-.7-.895-.629-1.531-.623.253.839.87 1.4 1.214 2.221-.647-.21-.799-.719-1.044-1.095-.924-1.395-1.039-1.465-2.76-1.118.381.727.954 1.292 1.63 1.939a.847.847 0 01-.892-.485c-.85-1.5-2.096-1.713-3.596-1.185a.202.202 0 00-.088.064c.04.66.869.879.8 1.614-.512-.266-.659-.754-.976-1.1-.205-.23-.282-.549-.679-.602-1.15-.16-2.293-.362-3.463-.549.014.533.56.783.472 1.401-.88-2.347-3.11-1.718-4.883-2.53a21.31 21.31 0 001.758 3.934c-.429-.192-.607-.565-.834-.903-.69-1.023-.682-2.515-1.673-3.226-.99-.711-2.275-.959-3.43-1.414-.091-.035-.171-.088-.267-.13a4.95 4.95 0 00-3.162-.425c-1.58.267-2.698 1.106-3.234 2.643-.197.567-.136 1.018.498 1.332 1.372.703 2.739 1.412 4.236 1.795 4.3 1.106 8.654.986 13.007.453 3.026-.37 5.986-.346 8.879.754 1.039.392 2.032.898 3.14 1.114 1.7.333 3.389.173 5.078-.022 2.397-.266 4.858 0 7.16-1.028a4.356 4.356 0 012.078-.309 6.864 6.864 0 004.61-1.287c1.748-1.241 3.642-1.433 5.667-1.116 1.02.157 2-.114 3.162-.191-.853-.914-2.022-1.151-2.61-2.086.618.241 1.2.57 1.725.977 1.066.893 2.089 1.044 3.197.062-.932-.597-1.98-1.042-2.794-1.913 1.85.874 3.524 2.579 5.788 1.108-.613-.666-1.707-.799-2.37-1.747.966.247 1.675.756 2.346 1.225.962.671 1.835.357 2.805.128-.36-.469-1.119-.386-1.332-1.196.8.383 1.425.692 2.057.988.277.162.604.217.919.155.756-.187 1.534-.056 2.301-.086 3.197-.122 6.412-.136 9.166-2.155.476-.322.99-.582 1.532-.775 2.898-1.14 6.012-1.675 8.79-3.133.403-.21.882-.391 1.226.051s-.186.709-.413 1.217c3.975-2.23 8.152-3.686 11.926-5.972 1.332-.799 2.811-1.497 3.692-2.848 1.092-1.678 2.534-2.959 4.124-4.118.357-.266.762-.487.834-.99.167-1.136.532-2.273.303-3.418a3.28 3.28 0 01.291-2.131c.961-1.94 1.731-3.97 2.999-5.765a14.848 14.848 0 002.003-3.59c.459-1.306.408-1.503-.639-2.337-1.116-.89-2.523-1.388-3.412-2.592-.187-.25-.616-.309-.925-.474-.367-.197-.532-.165-.658.306-.298 1.14-.908 2.158-1.449 3.197-.082.154-.138.474-.533.285.515-1.066.991-2.131 1.551-3.149.418-.77.144-1.092-.613-1.153-1.151-.09-2.131-.594-3.074-1.19a7.458 7.458 0 00-1.897-.962c.509 1.374.064 2.413-.865 3.295-.371.354-.714.777-1.154 1.014-1.422.773-1.745 2.153-2.147 3.613 1.18-.019 2.163-.586 3.226-.823-.919.703-1.931 1.158-3.093 1.097-.229 0-.354 0-.463.162a11.23 11.23 0 00-1.598 3.352c-.142.453.05.695.588.684a23.462 23.462 0 003.237-.335c1.31-.21 2.613-.448 3.996-.688a.988.988 0 01-.69.421c-2.191.56-4.435.89-6.695.98-.21 0-.511-.245-.644.163-.24.73-.943 1.11-1.332 1.726l.037-.037zM75.899 13.052c-.267.16-.533.33-.818.477-1.654.855-3.431.86-5.23.78-1.153-.053-2.293.038-3.35.57a.846.846 0 00-.44.56c-.397 1.116-.94 2.179-1.428 3.26 0-1.169.693-2.104.954-3.31-.919.412-1.74.7-2.467 1.195l.032-.026c-2.31 1.119-4.733 2.086-5.572 4.901-.315 1.066-.767 2.086-1.172 3.12-.267.655-.344 1.377-.816 1.95.368-2.275 1.442-4.334 2.113-6.572-1.566.351-1.598.346-2.065 1.643-.703 1.91-1.473 3.796-2.027 5.762.155-2.397 1.31-4.544 1.966-6.878-1.92.243-2.048 1.894-2.664 3.05a13.608 13.608 0 00-1.44 3.823c0-2.254 1.262-4.086 2.13-6.185l-.799.362c-1.883.863-3.24 2.381-4.694 3.78-1.91 1.838-3.995 3.418-6.66 3.961a1.047 1.047 0 00-.907.919c-.176.743-.347 1.486-.533 2.227-.267-.98.114-1.865.309-3.034-2.11.996-1.665 3.058-2.376 4.528-.24-1.305.458-2.464.636-3.71-.642.06-.767.532-.953.975-.501 1.201-.717 2.493-1.167 3.729-.053-1.332.407-2.544.634-3.825-1.553 1.67-1.724 3.908-2.438 5.932-.127-1.667.728-3.13 1.007-4.723-2.458.887-2.288 3.197-2.895 5.123-.219-1.26.357-2.398.596-3.714-.628.39-1.134.72-1.66 1.02-.614.35-.51 1.066-.798 1.561-.288.496-.083 1.14-.557 1.687-.17-1.005.352-1.764.45-2.61-2.887.798-2.813 1.467-3.178 4.751-.532-1.276.083-2.325.179-3.463-.227.107-.344.152-.453.213-3.178 1.796-5.488 4.447-7.443 7.46-.589.91-.799 1.744-.394 2.778a3.33 3.33 0 01-.298 3.138c-.869 1.331-1.372 2.663-1.117 4.376.323 2.193-1.01 4.07-2.035 5.882-.517.916-.117.951.45 1.22 1.657.8 3.511.882 5.219 1.497.533.197.511-.202.458-.533-.061-.375-.344-.74.067-1.257.111.477.175.831.282 1.175.088.29-.03.724.37.823 1.066.266 2.15.631 3.362.605-.266-.65-.498-1.173-.685-1.71-.17-.49-.516-.97-.173-1.753.674 2.216 1.037 4.557 4.081 3.995-.24-.508-.498-1.044-.743-1.598-.503-1.1-.503-1.103-.33-1.662.932 1.782 1.092 4.363 4.086 3.78-.186-.893-.938-1.673-.831-2.717.391.705.74 1.432 1.047 2.179a.983.983 0 00.799.676c.69.147.298-.578.703-.69.163.853.773.855 1.441.85 2.699-.016 5.405-.114 8.096.04 1.815.131 3.638.087 5.445-.13-1.727-2.84-2.6-5.083-2.398-6.335.12.338.213.562.267.8a24.568 24.568 0 001.731 4.317c.464.94 1.145 1.263 2.16 1.124.696-.096.82-.245.387-.87a22.291 22.291 0 01-2.779-5.43c-.162-.468-.157-.468.07-.999.663 2.273 1.768 4.297 2.986 6.274.397.644.86.852 1.555.62.341-.112.688-.213 1.034-.322-1.532-2.056-2.63-4.211-3.024-6.675.182 0 .267.08.283.16.471 2.15 1.489 4.051 2.664 5.876.3.46.658.679 1.289.445 3.197-1.175 6.444-2.174 9.427-3.847 1.67-.938 3.285-1.992 5.014-2.805 2.97-1.393 5.767-2.978 8.143-5.309a13.514 13.514 0 018.852-3.868c3.628-.21 5.97-2.09 7.65-5.109.21-.381.093-.44-.197-.623-.967-.618-1.931-1.242-2.84-1.937-.495-.38-1.081-.72-1.395-1.353.388-.123.474.152.628.285a30.241 30.241 0 003.636 2.648c.232.146.483.375.8.226 1.398-.669 3.004-.892 4.243-1.907 1.05-.84 2.141-1.626 3.271-2.355a5.22 5.22 0 002.334-3.287c.25-1.212.554-2.347 1.294-3.351a.78.78 0 000-1.066c-.266-.287-.58-.12-.881.022-.706.335-1.418.516-2.225.266-.394-.12-.911-.237-1.284.122-1.14 1.098-2.626 1.53-4.014 2.158-2.238 1.012-4.704 1.332-6.947 2.312a21.784 21.784 0 01-8.852 1.75 18.282 18.282 0 00-7.18 1.396c-3.126 1.316-6.406 2.105-9.855 2.06-1.386-.02-2.73-.355-4.1-.387-4.808-.109-9.59.085-14.185 1.721-2.147.765-4.435.818-6.638 1.276-2.347.487-4.6 1.41-6.913 2.078-.894.226-1.803.388-2.72.485-.266.037-.657-.059-.724-.339-.099-.41.306-.373.578-.445.58-.154 1.148-.373 1.737-.49 2.232-.44 4.217-1.58 6.377-2.221 1.23-.368 2.51-.405 3.745-.69 3.157-.722 6.279-1.57 9.497-2.022 2.232-.315 4.472-.306 6.705-.493a27.72 27.72 0 014.91.032c2.061.197 4.102.208 6.105-.288 2.344-.58 4.693-1.19 6.478-3.023.418-.429 1.012-.552 1.649-.64 2.214-.306 4.433 0 6.633-.183a14.413 14.413 0 005.743-1.599c.8-.442 1.51-.905 2.459-1.014 1.545-.182 2.989-.88 4.563-.965 1.239-.066 2.496-.077 3.596-.972a2.978 2.978 0 01-1.995-1.263c-1.265-1.649-2.267-3.495-3.745-4.986-.25-.267-.339-.674-.493-1.018-.746-1.638-.267-3.255.098-4.87.466-2.005.421-2.74-1.63-3.729-1.947-.927-4.068-1.598-6.255-1.532-3.49.091-7.059-.117-10.271 1.713-.172.078-.35.14-.533.187a27.284 27.284 0 00-5.12 2.541c-1.177.714-2.054 1.897-3.284 2.63-.579.343-.587 1.116-.533 1.752.05.554.48.733 1.015.8.743.114.863.596.466 1.185-.298.445-.658.85-.703 1.44.134.026.27.04.407.043 1.495-.095 2.73.283 3.383 1.785a.876.876 0 00.695.464c1.516.22 3.037.532 4.558.548 2.518.027 4.931.21 6.96 1.932.446.378 1.037.487 1.498.077.46-.41-.035-.842-.266-1.13-1.719-2.027-1.892-4.459-1.599-6.883.181-1.457.016-2.485-1.294-3.234-.642-.365-.626-.836-.035-1.265.877-.634 1.753-1.273 2.664-1.865.463-.306 1.028-.93 1.513-.532.557.447-.13 1.028-.314 1.531-.421 1.17-1.066 2.278-.8 3.748.347-.58.603-1.047.89-1.489.746-1.148 1.622-2.155 3.013-2.533.266-.072.637-.157.743.208.08.266-.197.458-.431.562-1.287.578-2.131 1.614-2.843 2.767-1.047 1.708-2.13 3.546-1.332 5.565.78 1.98.885 4.64 3.852 5.032.355.045.397.392.08.64a1.26 1.26 0 01-.799.266 20.892 20.892 0 00-3.436.186c-1.332.2-2.289-.674-3.303-1.316a6.945 6.945 0 00-4.547-1.13 8.983 8.983 0 01-2.089 0c-.69-.079-1.396-.436-2.08-.172-1.812.695-3.517.295-5.19-.424-.948-.407-1.88-.562-2.871-.202-.506.18-1.177.423-1.481-.08-.336-.554.285-.997.684-1.31 1.434-1.122 1.772-2.492 1.1-4.154a4.628 4.628 0 01-.191-.738c-.28-1.228.442-3.159 1.502-3.811 1.758-1.082 3.492-2.188 5.552-2.72 1.654-.432 2.994-1.51 4.168-2.755 2.2-.266 4.39-.615 6.601-.799 2.539-.216 5.032-.295 7.422.815.6.267 1.196.648 1.939.517-3.55-1.51-6.76-3.777-10.64-4.574-.817-.168-1.163-.069-1.568.594-.951 1.57-2.12 2.819-3.783 3.52h.003zm29.955-6.587l.119-.267c1.087.408 2.182.8 3.253 1.234.549.226.906.173 1.396-.24 1.196-1.007 2.528-1.985 4.142-1.993 3.111-.018 5.36 1.79 7.403 3.897.049.042.082.1.091.164a.262.262 0 01-.038.183c-.109.144-.242.141-.418.09a4.382 4.382 0 01-1.25-.692c-.863-.597-1.475-1.58-2.551-1.83-1.913-.45-3.746-.23-5.379.943-3.396 2.44-5.346 6.428-1.974 10.476a7.772 7.772 0 011.015 1.625c.469.983 1.415 1.303 2.259 1.953-.338-1.332-1.678-1.894-1.864-3.234.479.12.335.653.783.706-.051-.144-.096-.266-.133-.373-.712-2.197-.416-3.196 1.363-4.627.148-.123.277-.267.384-.426.842-1.268 2.078-1.662 3.498-1.468 1.202.17 2.412.28 3.625.328.184 0 .424-.05.456.213.032.264-.206.309-.376.365-.799.25-1.574.495-2.429.317a4.675 4.675 0 00-1.599-.179c-1.675.267-3.324 2.158-3.252 3.865.136 3.226 1.209 5.304 4.528 6.074 1.423.333 2.824.8 3.996 1.766.903.774 1.739 1.621 2.501 2.534.347.396.706.727 1.239.127a1.63 1.63 0 012.096-.375c.682.343 1.223.146 1.543-.472a1.475 1.475 0 011.313-.83c1.082 0 .98-.619.866-1.311-.027-.16-.267-.325.098-.485.267.237.312.551.347.908.026.29-.248.682.325.852a1.064 1.064 0 001.172-.28c1.934-1.83 1.438-4.829.5-6.659-.167-.327-.663-.506-.66-.91 0-1.098-.711-1.362-1.582-1.698a4.511 4.511 0 01-2.765-2.751c-.123-.347-.267-.8 0-.967.372-.235.511.266.652.508a4.166 4.166 0 002.379 1.953c.887.304 1.79.722 2.264 1.636.191.364.451.688.765.953 1.766 1.559 2.043 2.779 1.233 5.019-.677 1.865-1.369 3.748-1.947 5.655-.352 1.151-.64 2.323-1.066 3.463-.144.397-.202.893-.783 1.172a39.69 39.69 0 001.614-5.53c-.495.266-.863.615-1.276.68-1.036.165-1.177.82-1.318 1.702-.163 1.023-.352 2.096-1.1 2.93.325-1.215.647-2.422.881-3.655.136-.7-.101-.76-.652-.74a5.133 5.133 0 00-2.358.703c-2.317 1.305-3.662 3.404-4.627 5.794-.738 1.832-1.43 3.668-2.712 5.24-.671.822-.855 1.864-.655 2.98.2 1.116.839 2.187.133 3.364a55.863 55.863 0 003.676-2.24c.965-.647 2.11-1.095 3.149-.908 1.726.306 3.431.288 5.155.325 1.11.021 1.393-.179 1.683-1.263.512-1.912.799-3.9 1.718-5.687a6.411 6.411 0 013.948-3.351c-.671 3.034.346 5.884.266 8.753l-.247.022-.738-6.833a.412.412 0 00-.326.361.398.398 0 00.017.172c.114 1.27.112 2.568.383 3.806.347 1.598-.367 3.61 1.697 4.566.482-.669.93-1.47 1.545-2.107 1.258-1.303 2.166-2.664 1.356-4.545-.024-.053 0-.127 0-.191-.399-2.227-.474-4.508-1.065-6.761-.576.333-.893.903-1.599 1.108.099-.248.118-.426.213-.517 1.093-1.041 1.865-2.347 2.728-3.545a11.174 11.174 0 001.865-4.29c.185-.68.18-1.397-.013-2.074a6.19 6.19 0 00-5.315-4.241c-2.634-.208-4.741-1.188-5.985-3.674-.365-.73-.765-1.473-1.473-1.99-1.087-.798-2.132-1.64-3.21-2.458-1.641-1.252-3.397-2.288-5.437-2.741a40.417 40.417 0 01-7.691-2.597 15.714 15.714 0 00-7.205-1.359 11.58 11.58 0 01-3.426-.36c-2.243-.57-4.489-.908-6.833-.455-1.806.349-3.095 1.42-4.408 2.536-1.314 1.116-1.758 5.253-.712 6.625.402.58.865 1.116 1.38 1.598a.344.344 0 01.08.506c-.104.139-.202.056-.32-.016-1.486-.916-2.831-2.259-2.93-3.873-.12-2.022-1.22-4.174.328-6.228-.685.117-1.084.448-1.526.687-.925.504-1.77 1.196-2.859 1.332-2.802.339-5.277 1.716-7.93 2.523-.216.066-.666-.027-.594.549.061.511.381.49.685.532 3.247.432 5.996 2.131 8.79 3.602 1.463.772 2.904 1.598 4.404 2.283a5.329 5.329 0 004.262.197c2.893-1.047 5.775-1.095 8.465.711.096.038.196.061.299.07-.168-.957-.429-1.839-.408-2.776.04-1.934 0-1.916-1.811-2.547-.586-.202-1.282-.221-1.942-.972.997.214 1.97.528 2.903.938 1.319.532 1.332.532 2.131-.736-1.18-.647-2.584-.818-3.641-1.729 1.036.242 2.039.606 2.989 1.085.929.495 1.515.3 1.971-.61-1.268-.562-2.682-.863-3.913-1.593h.003zM23.259 76.497a.648.648 0 01-.448-.56 25.24 25.24 0 01-.799-4.305c-.034-.548-.197-.737-.735-.684-.677.066-.413.495-.357.842.067.404.147.799.232 1.212.25 1.177.506 2.355.799 3.708a1.679 1.679 0 01-.533-.933c-.471-1.39-.674-2.837-.943-4.262-.056-.303-.032-.583-.455-.56-.496.028-.312.398-.317.645-.003.287.024.572.08.853.25 1.428.511 2.855.767 4.28a1.386 1.386 0 01-.469-.799c-.39-1.44-.65-2.913-.778-4.4-.021-.402-.144-.698-.615-.68-.562.025-.365.483-.32.72.23 1.188.176 2.416.533 3.588.067.338.107.681.117 1.026-.29-.048-.266-.203-.293-.315-.49-1.462-.533-3-.743-4.51-.05-.388-.12-.567-.549-.58-.429-.014-.442.266-.429.554 0 .512.03 1.023.09 1.531.174 1.151.267 2.315.38 3.463-.64-1.465-.664-3.018-.861-4.544-.05-.386.21-.86-.248-1.132-.147-.085-.471-.11-.551-.019-.325.381-.144.845-.088 1.276.146 1.15.309 2.302.466 3.463-.283 0-.317-.165-.341-.328-.195-1.331-.424-2.642-.56-3.969-.05-.48-.194-.626-.655-.716a15.522 15.522 0 01-5.386-2.216c-.837-.533-1.233-.347-1.3.668-.033.383-.002.77.09 1.143a5.413 5.413 0 01-.103 3.58c-.459 1.135.165 1.998.692 2.888-.138-1.218-.266-2.416.115-3.596.52 1.707-.669 3.923 1.715 5.149-.136-1.806-.876-3.45-.57-5.184.333 1.598.594 3.196.925 4.773.157.765.495 1.242 1.265 1.41-.299-2.012-1.108-3.935-.88-6 .328 1.865.779 3.73 1.178 5.57.107.496.23.986.935.885-.45-1.58-1.015-3.074-.938-4.776.499.221.347.551.384.799.175 1.353.49 2.684.938 3.972a.584.584 0 00.823.402c.386-.144 0-.442-.043-.64-.343-1.251-.75-2.487-1.084-3.742-.08-.301-.25-.733.267-1.03.162 1.528.623 2.91 1.041 4.301.437 1.447.493 1.385 2.035 1.54 2.832.282 5.68.471 8.333 1.713 1.832.855 3.729 1.518 5.804 1.62.472.023.631.098.477-.499a13.381 13.381 0 01-.416-2.733c-.024-.589-.333-1.199-.045-1.864a1.155 1.155 0 01.368.817c.146 1.202.266 2.398.407 3.61.038.317.043.655.432.772.7.213 1.963-.746 1.864-1.473a20.568 20.568 0 01-.167-3.362c0-.245-.12-.591.34-.644.16 1.502-.18 3.031.296 4.528.552-.17.8-.33.616-1.017-.227-.829-.533-1.73-.064-2.899.234 1.034.194 1.825.317 2.59.114.722.248.799.87.431 2.697-1.529 5.174-3.418 7.955-4.795a.994.994 0 00.57-.639c-.666-.173-1.164.221-1.689.48-1.864.916-3.7 1.848-5.554 2.767-.213.107-.48.336-.671.024-.192-.311.101-.469.288-.623.394-.325.799-.629 1.217-.935.474-.357.783-.735.73-1.425-.115-1.5-.141-3.008-.133-4.513 0-.351-.16-.378-.363-.413-.89-.157-1.667-.612-2.501-.919-1.697-.623-3.38-1.412-5.27-1.036-2.452.49-4.898 1.047-7.412 1.018-.973 0-1.029.466-.89 1.196.258 1.46.525 2.917.812 4.462h.003zM1.786 65.508c.389-.604.282-1.142.533-1.816.298.82-.02 1.387 0 1.963.056 1.263 0 1.263.38 1.78a7.211 7.211 0 01.448-2.665c.338 1.375-.685 2.79.165 4.132.248-1.164.17-2.37.7-3.463 0 .533-.036 1.092-.052 1.614-.03 1.04-.64 2.102-.072 3.112.937 1.673 2.256 3.098 3.196 4.795.067-1.756.08-3.482.061-5.206 0-.759.102-1.47.578-2.085.174-.224.25-.39 0-.653-.663-.74-1.27-1.529-1.925-2.278-2.049-2.344-3.088-5.037-2.79-8.202.408 1.77.424 3.642 1.362 5.267a19.631 19.631 0 003.625 4.411c.221-1.065.757-1.832 1.08-2.696a1.864 1.864 0 011.61-1.201c.573-.08 1.146-.139 1.721-.19 1.865-.162 3.197-1.296 3.49-3.142a8.023 8.023 0 011.239-3.389 2.338 2.338 0 00.298-1.846c-.176-.78-.45-1.598-.2-2.368.568-1.763 1.271-3.484.96-5.397-.02-.114.084-.24.111-.365.347-1.667.73-3.324 1.748-5.061-2.118.986-3.95 1.835-5.544 3.047a13.883 13.883 0 01-4.936 2.515 9.59 9.59 0 00-5.357 3.543c-.626.799-1.665 1.316-1.968 2.328C1.775 53.566.96 55.002.88 56.74a28.018 28.018 0 00.903 8.77h.003zm72.869 13.615c2.112.293 3.969.445 5.78.823 2.734.603 5.585.376 8.189-.652 2.78-1.085 5.38-2.353 7.192-4.891 1.188-1.668 1.846-3.666 3.36-5.141.476-.466.194-1.332-.142-1.902-.266-.472-.778-.174-1.212-.086-.44.071-.889.082-1.332.032a.876.876 0 01-.73-.397c-.17-.34.19-.495.357-.703a2.837 2.837 0 011.18-.799 15.627 15.627 0 003.306-1.9c1.569-1.153 3.173-2.255 4.768-3.366.16-.112.325-.36.581-.152.256.208.077.397-.013.6-.219.461-.5.89-.837 1.275-.889 1.066-2.027 1.865-3.09 2.744-1.217 1.007-1.51 1.851-1.222 3.54 2.554-1.931 5.508-3.236 7.895-5.362a42.551 42.551 0 019.086-6.103c1.572-.8 2.995-1.865 4.398-2.944.8-.607 1.492-1.353 2.233-2.037a.633.633 0 00-.634-.192c-1.662.037-3.157.714-4.686 1.255-2.243.799-4.089 2.373-6.321 3.196-3.698 1.348-7.035 3.445-10.586 5.104-4.473 2.094-8.841 4.385-13.698 5.535-1.46.347-2.93.765-4.302 1.538.267.247.784.045.776.532-.008.488-.443.403-.722.493-1.981.612-4.028.984-6.098 1.108-2.184.17-4.358.456-6.364 1.516-1.683.89-3.548 1.537-5.429 1.308-2.33-.285-3.519 1.388-5.191 2.339.657.485 1.244.532 1.88.21.8-.391 1.65-.434 2.523-.407 1.825.056 3.65.037 5.354-.76 1.463-.71 3.022-1.2 4.627-1.457 1.737-.266 3.322-1.065 5.024-1.422.338-.075.778-.4 1.018.114.2.43-.19.701-.424.991-.487.605-1.252.957-1.673 1.806.8-.266 1.447-.466 1.98-.943 1.925-1.723 4.187-2.93 6.515-3.947 1.982-.856 4.052-1.498 5.898-2.664.106-.072.223-.126.346-.16a.49.49 0 01.6.17c.135.219-.035.368-.15.507a5.451 5.451 0 01-1.366 1.041c-1.918 1.212-3.932 2.286-5.469 4.033-.5.573-1.241.863-1.947 1.185a190.785 190.785 0 00-6.708 3.197c-.623.312-1.177.754-1.878.914-.903.178-1.638.684-2.645 1.281h.003zm14.803 13.218c-1.13 1.03-1.13 1.03-.938 2.382.293 2.048.336 2.067 2.011.89l.075-.06c3.977-2.879 7.387-6.34 10.596-10.042 1.431-1.649 2.425-3.42 2.872-5.509a8.567 8.567 0 011.383-3.114c.663-.967 1.161-2.152.889-3.242-.49-1.95-1.009-3.897-1.513-5.86-1.14.7-1.151.703-.863 1.878.144.586.325 1.159.493 1.737.397 1.366.799 2.73 1.247 4.283a2.515 2.515 0 01-.799-1.406 245.064 245.064 0 01-1.351-4.755c-.053-.195-.08-.44-.266-.459-.15-.015-.331.152-.477.267-.379.293-.251.722-.205 1.065.114.914.295 1.817.466 2.723.208 1.116.434 2.23.652 3.346l-.237.048c-.708-2.113-.935-4.34-1.382-6.59-.173.138-.405.247-.394.332.221 2.34-.166 4.702.415 7.025l-.266.04-.506-2.499c-1.599 1.196-.52 2.739-.483 4.262-.162-.152-.266-.202-.293-.266-.378-.733.043-1.865-1.124-2.22-.138-.04-.016-.284.019-.439a5.757 5.757 0 00-.514-3.67c-.68.231-.68.783-.597 1.331.067.472.221.927.285 1.399.227 1.622.711 3.212.496 4.901-.4-2.216-.8-4.43-1.215-6.71-2.379 1.55-.818 3.564-.964 5.373l-.72-2.525c-.508 2.664-1.896 4.824-2.147 7.333-.114 1.151-.823 1.636-1.864 1.247-.216-.08-.304-.032-.368.09-.594 1.133-1.1 2.31-.9 3.613a40.898 40.898 0 001.31 5.327c-.99-1.289-1.065-2.93-1.633-4.547-.325.767-.586 1.367-.836 1.972-.293.716.21 1.331.266 2.021.046.61.424 1.183.157 1.865-.247-.954-.511-1.883-.78-2.845l.003.008zm28.479-21.72l.218.175c1.612-1.913 3.245-3.804 4.827-5.738a40.915 40.915 0 019.432-8.43c1.865-1.216 3.256-2.88 4.766-4.441.088-.091.165-.195.053-.35-.759 0-1.504.211-2.149.61-.333.19-.821.698-1.151.112-.267-.487.285-.783.615-1.065.239-.159.498-.284.77-.373.496-.213 1.012-.38 1.486-.634.533-.285.8-.658-.013-.946-1.161-.415-1.454-1.332-1.412-2.426.016-.225.016-.45 0-.674-.026-.267.139-.672-.306-.669a.698.698 0 00-.621.64c-.001.22.022.44.067.657.043 1.111.352 2.206.197 3.34-.514-1.155-.32-2.46-.669-3.66-1.19.408-1.036 1.26-.905 2.15.152 1.066.413 2.105.125 3.197-.211-1.37-.424-2.736-.65-4.196-1.537.967-.104 2.31-.512 3.506-.436-.876-.463-1.724-.74-2.794-.57 1.177-2.552.93-1.958 2.762.075.234-.173.397-.328.554-.383.389-.754.8-1.166 1.148-1.029.89-1.892 1.865-2.355 3.197-.354 1.017-1.13 1.665-2.158 2.032a7.576 7.576 0 00-3.729 2.885c-.229.33-.139.557.125.706.264.15.533-.032.693-.266.159-.235-.118-.562.317-.991-.136.799.759.99.657 1.545-.146.823-.21 1.598.094 2.413-.584 0-.267-.7-.68-.708-.847.905-.471 1.984-.357 3.012-.532-.127-.229-.556-.575-.799-.461 1.644-.794 3.274-2.011 4.518h.003zM33.776 83.762c.532.134 1.065.115 1.54.328.799.36 1.446.093 2.13-.328 1.575-.959 3.026-2.13 4.763-2.807a27.034 27.034 0 004.489-2.323 9.668 9.668 0 012.485-1.19.406.406 0 01.496.135c.138.173.021.314-.093.416-1.524 1.332-2.864 2.882-4.977 3.439-2.267.599-3.974 2.165-5.713 3.665.833.658 1.489.557 2.21-.061a8.913 8.913 0 012.022-1.279c.381-.18.424-.732.778-.727 1.05.021 1.681-.45 2.009-1.62.362 1.252.74.285 1.11.203.752-.17.187-.994.71-1.447.036.877.348.909.94.51a7.02 7.02 0 013.662-1.17c2.621-.099 4.404-1.53 6.154-3.373-2.265-.703-4.35-1.598-6.441-2.472a16.516 16.516 0 00-3.799-1.023 1.236 1.236 0 00-1.137.29 14.846 14.846 0 01-4.039 2.505c-1.78.75-3.327 1.91-4.779 3.196 1.686-.724 3.349-1.489 5.003-2.275.376-.178.738-.38 1.17-.351.215 0 .49-.078.607.165a.655.655 0 01-.12.711c-.432.589-1.04.93-1.641 1.297-3.138 1.902-6.188 3.98-9.542 5.586h.003zm95.271-32.42c-1.046.015-1.627.532-2.176 1.136-2.877 3.107-6.223 5.52-10.21 7.03a13.304 13.304 0 00-2.989 1.436c.826.786 1.036 1.465.78 2.459-.175.68-.314 1.332-.12 2.059.165.493.128 1.03-.101 1.497-.434.778-.82 1.598-1.27 2.352-.179.304-.28.765-.8.72-.471-.04-.335-.563-.628-.8-.307 1.14-.799 2.249-.626 3.426.173 1.177.16 2.37-.634 3.681a54.48 54.48 0 005.405-3.33c.282-.204.471-.444.399-.799-.346-1.776-.032-3.588-.298-5.37-.12-.799-.168-1.598.154-2.365.184 2.616.456 5.22.475 7.874.578-.631 1.134-1.364 1.158-2.112.038-1.223-.33-2.454-.415-3.69-.085-1.236-.405-2.459-.251-3.7l.267-.019c.229 2.265.458 4.529.692 6.862 1.431-1.497.765-3.156.682-4.773-.058-1.135-.756-2.219.429-3.44 1.244-1.286 2.264-2.775 3.961-3.515a3.928 3.928 0 002.219-2.366c.368-1.012 1.082-1.723 1.913-2.341a14.998 14.998 0 001.982-1.913h.002zm-71.34 34.863c.951-.841 1.812-1.651 2.723-2.397.911-.746 1.92-1.487 2.895-2.209a.646.646 0 00.238-.897c-3.394 1.087-5.17 2.797-7.193 4.795a.927.927 0 00-.317.75c.074 1.468.24 2.929.498 4.375.221 1.422.336 1.462 1.865 1.598 2.078.168 4.15.341 6.159.994 1.614.532 3.303.844 4.883 1.451 2.325.896 4.565-.16 7.075-.016-1.31-.516-2.443-.242-3.549-.3-1.15-.062-2.21-.832-2.165-1.756.045-.924.266-1.811 1.036-2.397.498-.37.653-.749.424-1.303-.895.208-1.476.727-1.641 1.67-.038-.33-.078-.663-.115-.996-.956.197-1.833.413-1.534 1.785-.088-.853-.373-1.25-1.234-1.226-.695.022-1.052-.487-1.052-1.22 0-1.547.237-2.996 1.516-4.065a.496.496 0 00.115-.745c-1.28 1.222-2.435 2.472-2.963 4.206-.442 1.446-1.201 1.864-2.663 1.598a3.123 3.123 0 01-2.131-1.633c-.59-1.066-1.314-1.156-2.342-.906-.437.107-.62.139-.448.645.157.558.28 1.124.368 1.697-.754-1.441-1.21-2.917-.533-4.529.022.304.062.61.086 1.031zM79.315 8.524c-.533.498-1.09.99-1.622 1.5a9.353 9.353 0 01-4.683 2.5c-1.157.233-2.353.267-3.514.454-2.368.405-4.824.389-7.105 1.137a36.657 36.657 0 00-10.54 5.378c-2.728 2.03-5.47 4.012-8.487 5.616a102.995 102.995 0 00-6.987 4.033c-1.14.724-1.716 1.713-1.98 3.071.885-.73 1.934-1.161 2.27-2.317.037-.123.237-.368.301-.23.362.8.642.02.874-.069.591-.226 1.118-.799 1.702-.847 3.282-.266 6.148-1.39 8.306-3.913 2.157-2.523 4.488-4.582 7.818-5.23a8.348 8.348 0 003.444-1.597c1.311-.973 2.614-1.964 4.199-2.472.759-.245 1.555-.395 2.248-.8 1.625-.97 3.399-1.23 5.258-1.19 3.841.069 6.62-1.737 8.498-5.038v.014zm5.391 87.672c-.223-3.08-.985-5.943-.812-8.868.344 1.952.554 3.915.799 5.876.112.946.267 1.886.394 2.832.08.591.477.682.975.623.674-.083.165-.474.155-.7-.021-.507-.125-1.007-.187-1.514-.25-2.13-.503-4.246-.74-6.369-.046-.413-.12-.847.176-1.233.184.725.307 1.465.364 2.21.163 2.356.453 4.692.776 7.028a.559.559 0 00.612.57c.957.061 1.29-.296 1.066-1.225-.224-.93-.73-1.908-.727-2.736 0-1.396-.347-2.701-.49-4.046a4.703 4.703 0 01.082-1.78c.267 1.39.424 2.776.767 4.209.826-1.404.733-2.82.386-4.398.448.266.406.44.427.591.021.152.053.37.22.387 1.533-2.558.981-5.392 1.186-8.136-.642.267-1.273.645-1.944.744-2.31.34-3.346 1.79-3.86 3.918-.32 1.332-.996 2.576-.994 3.972 0 1.827-.048 3.62-.684 5.378-.198.533-.187 1.359.476 1.748.453.253.94.484 1.577.905v.014zm9.91-80.826c.623.711.767 1.526.799 2.37.032.845 0 1.74.067 2.6.266 2.819 1.244 5.208 3.995 6.51.338.184.661.393.967.624 3.279 2.19 5.962 2.022 8.956 0 2.994-2.022 3.503-3.51 1.598-6.902-.189-.333-.445-.628-.642-.959-2.61-4.366-8.007-5.594-11.822-4.131-1.32.487-2.618.538-3.918-.133v.02zm13.167 57.301l-.25.054a481.43 481.43 0 01-.467-1.599 17.6 17.6 0 00-.226 3.354 4.65 4.65 0 01-1.196 3.25 4.427 4.427 0 00-.956 1.745c-.341 1.11-.533 2.261-1.207 3.53a3.732 3.732 0 001.223-1.748 6.762 6.762 0 014.161-4.262 2.04 2.04 0 001.001-.831c.647-.96.69-2.033.64-3.133-.091-1.955.602-3.745 1.217-5.546.077-.219.181-.554.501-.498.319.056.266.397.239.631-.037.533-.109 1.09-.175 1.732.692-.866 1.582-2.606 1.473-3.162a7.455 7.455 0 01.168-3.298c.239-.986-.296-1.383-1.263-1.154-2.041.488-3.391 1.937-4.91 3.402.632.085.994.381 1.159.8.642 1.61.554 3.382 1.087 5.028-.698-.913-.701-2.075-1.116-3.148-.187.25-.424.418-.44.605-.122 1.398.65 2.663.674 4.04-.532-.833-.706-1.782-.919-2.717-.053-.22-.05-.532-.253-.583-.285-.085-.383.267-.546.434-.226.24-.168.506-.096.8.192.743.323 1.504.477 2.261v.013zM63.374 28.38c.378 0 .561.053.695 0 1.332-.618 2.586-.333 3.876.194 1.028.421 2.181.909 3.244.533 1.332-.48 2.576-.266 3.855-.026.372.096.758.123 1.14.08 2.397-.432 4.454.375 6.393 1.654.477.314.98.663 1.566.66 1.385 0 2.757-.266 4.17-.24-.888-.356-1.844-.697-2.201-1.598-1.039-2.589-2.896-5.101-1.09-8.093.054-.085.32-.332 0-.431-1.033-.32-.754-1.066-.634-1.793.206-.995.547-1.958 1.013-2.86.077-.171.354-.347.064-.627-1.18.608-2.182 1.505-3.288 2.251-.455.307-.093.608.158.735 1.555.8 1.473 2.155 1.31 3.57-.144 1.236-.192 2.432.168 3.692.312 1.09.948 1.934 1.454 2.88.267.5.68 1.065.17 1.58-.508.513-1.275.532-1.962.204a3.967 3.967 0 01-.8-.532 7.323 7.323 0 00-5.005-1.54c-1.598.075-3.098-.266-4.65-.314a2.967 2.967 0 01-2.523-1.303 2.648 2.648 0 00-2.398-1.162c-.999.049-1.193-.306-.799-1.23a3.99 3.99 0 01.36-.674c.285-.421.266-.685-.301-.8a1.207 1.207 0 01-1.02-1.305c0-.844-.267-1.888.78-2.27 1.7-.63 2.637-2.173 4.214-3.137a2.201 2.201 0 00-.448 0c-1.75.605-3.154 1.82-4.675 2.794a2.6 2.6 0 00-1.065 3.197c.184.506.248 1.065.437 1.558.4 1.066.157 1.945-.597 2.725-.46.49-.967.975-1.611 1.615v.013zm27.791 40.613c-1.734.567-3.519.98-5.013 2.016-1.598 1.106-3.484 1.76-4.864 3.213-.347.362-.962.471-1.447.708-.266.136-.567.21-.815.014-.317-.25-.03-.533.045-.784.179-.615.656-1.004 1.095-1.427.232-.224.581-.352.717-.765-.178-.011-.357 0-.533.032-2.488.871-5.061 1.478-7.55 2.344-2.546.887-5.08 1.439-7.767 1.29-.722-.04-1.372.223-2.067.516a2.032 2.032 0 002.203.413 6.182 6.182 0 013.114-.309 8.952 8.952 0 001.811.019c2.113-.093 4.092-.858 6.16-1.172.681-.104.83.133.697.706-.138.428-.392.81-.735 1.102-.341.355-.738.664-.925 1.191 1.713-.604 3.234-1.513 4.83-2.24 1.878-.855 3.668-1.913 5.629-2.59a3.706 3.706 0 001.254-.681c1.356-1.236 2.435-2.781 4.161-3.61v.014zm53.162-38.863c-.317.192-.423.368-.349.831.458 2.821.85 5.65 1.218 8.482.071.562.231.591.631.322 1.281-.866 2.131-2.096 2.845-3.436a2.33 2.33 0 00.146-1.69 6.48 6.48 0 01-.104-2.293 40.96 40.96 0 00.203-3.068 15.52 15.52 0 00-.267-2.965c-.157-.964-.42-1.915-.591-2.664-1.095 2.277-1.287 4.816-.615 7.437-.645-1.046-.474-2.285-1.066-3.332-.109 2.448.493 4.84.568 7.264l-.251.035-.876-6.463a.675.675 0 00-.402.8c.08.695.183 1.387.266 2.08.099.757.533 1.758.213 2.208-.49.682-.168 1.151-.109 1.705.096.916.24 1.828.373 2.818-.149-.104-.235-.127-.251-.175-.498-1.516-.599-3.104-.831-4.67-.021-.141.062-.317.171-.282.477.154.373-.168.28-.36-.147-.31-.048-.647-.147-.935-.245-.711-.019-1.53-.472-2.312-.303.967.323 1.78 0 2.738-.474-.706-.079-1.52-.583-2.088v.013zM64.234 83.806a2.68 2.68 0 01-.402-1.476c0-.453-.139-.586-.562-.266-1.186.922-2.355 1.865-3.463 2.86-.552.502-1.146.952-1.487 1.69h.554c.97-.03 1.849.021 2.097 1.268.069.365.437.695.722.99 1.041 1.066 2.448.773 2.914-.641a5.009 5.009 0 011.334-2.291 1.082 1.082 0 00.352-1.207c-.165-.533-.104-1.065-.144-1.62-.074-.958-.181-1.917-.266-2.805-1.96.525-1.96 1.918-1.65 3.485v.013zm36.358-52.477c-1.414.658-2.946.687-4.424.985-2.102.421-4.334.267-6.242 1.764-1.387 1.081-3.273 1.369-5.06 1.436-1.788.066-3.666-.046-5.494.034-1.09.048-2.192.059-3.156.85-2.853 2.336-6.276 3.18-9.856 3.343-3.133.141-6.271-.285-9.414 0-1.332.123-2.664.341-4.01.301.665.084 1.335.11 2.004.077 2.365-.12 4.728-.349 7.102-.157.7.056 1.4.157 2.104.187 4.1.18 7.962-.877 11.734-2.334a15.499 15.499 0 014.744-.967c2.198-.13 4.412-.18 6.577-.68 2.976-.684 5.792-1.88 8.724-2.7a19.597 19.597 0 004.667-2.155v.016zm-34.63 47.53c-1.105-.431-1.992-.772-2.876-1.121a3.535 3.535 0 00-4.212 1.103 11.454 11.454 0 01-4.2 3.37c-.708.364-1.385.785-2.025 1.26-.24.167-.669.316-.498.815.826-.31 1.614-.626 2.418-.893.307-.101.725-.295.938.096.187.341-.197.565-.38.813-.105.121-.22.232-.347.33-.695.634-.695.634-.408 1.611 1.029-.628 1.79-1.544 2.646-2.354 1.622-1.532 3.412-2.781 5.62-3.317.616-.152.933-.45.834-1.14-.04-.29-.15-.674.322-1.028l.083 1.598 2.086-1.143zM89.57 90.634c.367-.533.484-1.066.692-1.561.266-.632-.144-1.439.107-1.82.578-.868.666-1.907 1.23-2.752.293-.437.464-.9 1.01-.213.322.408.597-.021.69-.266.13-.395.204-.805.221-1.22a5.983 5.983 0 01.618-2.288 17.247 17.247 0 001.686-5.062 12.077 12.077 0 01-4.169 3.317c-.74.354-.985.897-1.036 1.665-.045.716.208 1.388.21 2.09 0 1.77-.668 3.357-1.331 4.934a3.631 3.631 0 00.082 3.16l-.01.016zm-39.574-5.76c1.43-.455 1.822-1.566 1.864-2.93.299.458-.05.948.232 1.233 3.215-1.702 5.765-4.299 8.836-6.233-.882-.485-1.72-.738-2.523.19a9.344 9.344 0 01-1.113 1.065c-1.02.844-2.067 1.532-3.516 1.508-1.239-.022-2.432.418-3.6.879-.532.207-.66.498-.588 1.01.15 1.12.277 2.226.408 3.278zm-2.427-2.629c-1.425.634-1.441.738-1.196 2.227.165.999.186 2.022.266 3.032l-.266.023c-.165-1.44-.333-2.884-.509-4.403a6.329 6.329 0 01-.68.36c-.849.303-1.312.77-1.043 1.774.128.485.021 1.03.021 1.729-.583-.767-.33-1.465-.376-2.11-.037-.533-.242-.597-.644-.349-.73.453-1.455.914-2.291 1.441 2.397 1.092 4.795 1.79 7.152 2.557.533.176.426-.21.36-.466-.493-1.88-.362-3.849-.802-5.807l.008-.008zm88.855-31.015c1.012.237 1.635-.093 2.304-.799 1.374-1.446 1.396-3.492 2.464-5.061.266-.4-.043-.8-.389-1.066-.346-.266-.056.655-.49.267-.235-.203.037-.616-.304-.749a3.247 3.247 0 00-.73-.173c-.78-.12-1.401.2-1.955.716-.221.206-.637.248-.562.68.074.431.445.309.695.394.706.245.861.647.496 1.316-.288.533-.818.8-1.175 1.252-.304.386-.418.72.154.98.424.195.951.336.941.943-.011.608-.554.8-1.01 1.005a5.023 5.023 0 00-.439.303v-.008zM78.07 85.753c-.496.642-1.183.866-1.122 1.665.13 1.657.235 3.317.336 4.974.03.474 0 .948 0 1.422h-.266l-.512-6.393c-1.276.823-1.332.9-1.265 1.572.122 1.236.213 2.477.375 3.708.056.407 0 1.084.408 1.161.972.184 1.718.8 2.768 1.281-.597-3.124-.365-6.164-.722-9.39zM40.41 72.581c.163 1.281-.322 2.568 0 3.854.727-.189.975-.604.898-1.332-.044-.71-.05-1.42-.016-2.13 0-.227-.027-.467.416-.512v3.197c1.803-.906 3.513-1.676 4.837-3.075a.64.64 0 00-.168-.093c-2.253-.365-4.547-.202-6.806-.533-.407-.058-.4.227-.373.485.168 1.532.168 3.072.304 4.63.836-1.375.096-3.08.908-4.491zm39.67 10.841c-1.247 1.066-1.742 2.169-1.468 3.671.195 1.066.022 2.18.085 3.269.091 1.497.248 2.991.381 4.488.075.831.77.674 1.25.693.655.024.287-.533.266-.8-.178-2.298-.37-4.592-.38-6.901-.006-1.423-.203-2.853-.134-4.42zm-14.899-6.616v.327c.168.075.336.155.506.221 2.257.877 4.649 1.114 7.014 1.481.8.123 1.63.408 1.942-.841.123-.498.703-.887 1.092-1.308.328-.31.573-.698.712-1.127-3.756 1.406-7.526 1.207-11.266 1.247zm43.586-60.674c-1.199-2.97.16-5.259 1.982-7.278 1.918-2.131 4.398-2.97 7.291-2.355-1.554-.799-3.075-1.182-4.814-.431-1.684.727-2.84 1.976-4.065 3.247-1.292 1.332-1.574 2.848-1.276 4.542.144.78.144 1.651.882 2.275zM51.781 85.343c-.682.589-1.865.64-1.62 1.931.124.524.191 1.06.2 1.599a.698.698 0 00.431.692c1.225.533 2.422 1.143 3.844 1.583-.213-1.375-.407-2.645-.618-3.996-.533.298-1.172.434-1.382.799-.304.533.22 1.215.066 1.865a3.965 3.965 0 01-.498-1.7c-.266.104-.46.17-.653.267-.266.125-.554.335-.756.037-.203-.299.178-.434.328-.61.575-.66.996-1.385.658-2.467zM100.43 1.166c-.444.03-.889.03-1.332 0-1.95-.266-4.875 1.066-5.5 2.883-.627 1.816-.08 3.82.343 5.705.176-1.15.602-2.261.2-3.439a1.54 1.54 0 01.532-1.651c1.75-1.399 3.3-3.154 5.757-3.5v.002zm-77.376 64.48c-.176-1.209-.666-1.883-1.894-2.13-1.702-.323-3.506-.506-4.99-1.457-1.025-.658-1.611-.28-2.31.338 3.107 1.007 5.957 2.619 9.194 3.25zm49.701 22.281l1.567-1.092a.682.682 0 00.349-.623 47.721 47.721 0 00-.221-4.78c-.022-.191-.016-.402-.307-.364-.229.032-1.598 1.569-1.558 1.792.266 1.617.037 3.253.168 5.067h.002zM94.311 21.13a4.958 4.958 0 001.308 3.596c.935 1.066 1.977 2.046 2.722 3.223 1.51 2.398 3.839 2.222 6.157 2.254-2.718.162-3.938-2.315-5.962-3.37-2.227-1.166-2.715-3.687-4.228-5.703h.003zm10.621 39.77c-.879.61-1.766 1.208-2.635 1.828-1.547 1.106-2.906 2.486-4.768 3.13-.463.163-1.332.413-1.14.895.192.483 1.007.195 1.558.016 1.202-.391 1.7-.029 1.764 1.252.013.243-.075.504.106.728.267-.43.267-.43.267-.736.069-1.598.402-3.04 1.88-4.062 1.154-.807 2.222-1.748 2.968-3.05zM74.807 88.788c-.576.403-1.066.752-1.559 1.09a.845.845 0 00-.4.8c.043.897.046 1.797.057 2.695 0 .312 0 .58.442.567a23.467 23.467 0 011.731 0c.32 0 .368-.17.333-.428-.197-1.559-.394-3.101-.604-4.737v.013zm9.752-7.277c-1.036-.125-1.396.437-1.62 1.265-.247.92-.612 1.804-.905 2.712-.2.472-.29.983-.267 1.494.213 1.745.416 3.49.656 5.499.255-.837.427-1.696.514-2.566.088-1.09-.267-2.15-.115-3.244.266-1.841 1.13-3.453 1.737-5.173v.013zm-17.997 3.58c.653-.594 1.143-1.066 1.652-1.489a.492.492 0 00.178-.498 137.161 137.161 0 01-.32-3.135c-.053-.6-.463-.768-.94-.698-.477.069-.978.41-.916.924.21 1.62.325 3.25.346 4.883v.013zm-18.077-6.926c-3.606 2.347-7.703 3.823-11.302 6.303.759.532 1.297.57 2.008-.093 1.441-1.348 2.992-2.686 4.899-3.24 1.825-.522 3.069-1.76 4.395-2.97zm83.048-62.816a1.068 1.068 0 00.7.69c1.106.565 2.049.975 2.704 2.398.799 1.726 1.084 3.396 1.199 5.186.034.557-.421 1.05-.304 1.865.469-1.22.922-2.232 1.239-3.284a3.052 3.052 0 00-.416-2.643c-.442-.69-1.257-1.09-1.563-1.782-.69-1.606-2.179-1.766-3.559-2.43zM69.095 89.337c.464-.442 1.383-.072 1.444-.73.141-1.502.045-3.026.045-4.69-.452.303-.743.495-1.028.692-.285.197-.756.333-.644.834.269 1.21.053 2.432.183 3.894zm1.865-.493c.583-.125 1.287-.28 1.305-.799.062-1.678.192-3.375-.117-5.08-1.116.533-1.177.565-1.183 1.13 0 1.56.008 3.13.008 4.75h-.013zm10.072 6.66c.36-.11.602-.173.842-.266.64-.221.626-.632.165-.973-.84-.623-1.1-1.462-1.047-2.432.085-1.56.266-3.12 0-4.683a2.047 2.047 0 01.037-.863c.386-1.422-.024-2.808-.266-4.203a81.862 81.862 0 00.282 13.412l-.013.008zM49.929 40.655l-.04-.24c-5.783 1.46-11.787 2.078-17.17 4.702-.049-.016 0 .024.068.016.156-.024.31-.057.461-.099 3.245-.818 6.314-2.2 9.71-2.586 2.36-.261 4.648-1.165 6.971-1.793zm5.677 45.629c-.437.38-1.263.378-1.186 1.118.133 1.226.336 2.446.576 3.655.106.549.692.485 1.095.552.36.055.25-.325.218-.49a38.491 38.491 0 01-.703-4.828v-.007zM22.91 64.026c.362.743.266 1.65 1.124 1.865 1.127.32 2.291.494 3.463.517-.456-.624-.471-1.508-1.113-1.716-1.085-.33-2.233-.434-3.474-.658v-.008zm52.168 22.18c.562-.504 1.199-.8 1.258-1.357.109-1.041.17-2.13-.174-3.143-.162-.48-.71-.333-1.084-.42-.266-.06-.245.265-.213.425.277 1.417.086 2.864.213 4.494zm-25.95-4.934c-.834.2-1.237.674-1.1 1.566.17 1.114.297 2.232.455 3.42.786-.426 1.276-.921 1.084-1.779-.234-1.06-.053-2.174-.44-3.21v.003zm90.868-37.922a6.104 6.104 0 000-.877 56.873 56.873 0 01-.565-5.327c0-.237.077-.624-.266-.627-.267 0-.464.317-.496.632a3.252 3.252 0 000 .575c.123 1.53.309 3.053.357 4.582.008.666.149 1.026.97 1.042zM68.682 85.287c-1.331 1.09-1.598 2.28-1.545 3.596.027.555.432.653.885.632.3-.014.666.072.663-.44-.019-1.17-.01-2.336-.01-3.788h.008zm37.723-13.242c-.128-.937.386-1.803.266-2.714s-.311-1.75-.511-2.832c-.37.533-.975.642-.861 1.276a22.548 22.548 0 001.098 4.27h.008zm31.819-34.363c-.474.615-.799 1.047-.719 1.654.144 1.17.28 2.342.376 3.517.032.372.197.383.487.386.381 0 .352-.16.32-.466-.179-1.644-.312-3.285-.472-5.099l.008.008zm-31.212 31.236c.517-.533.901-.916.781-1.548a.515.515 0 01.104-.325c.873.078.474-.532.391-.83-.104-.366-.45-.72-.863-.582-.413.139-.898.368-.85.89.072.749.264 1.487.437 2.395zm-85.36-28.314c2.108-1.843 4.393-3.463 6.679-5.061-2.374 1.489-5.093 2.55-6.678 5.061zm5.44 24.153c.695 1.865.695 1.865 3.255 1.292-.764-1.335-2.176-.743-3.255-1.292zM137.193 39.59c-.999 1.497-.551 2.93-.389 4.449.341-.33.869-.317.8-.895-.126-1.122-.259-2.246-.411-3.554zM76.757 84.541c.823-.761 1.552-1.225 1.369-2.314-.123-.717-.672-.459-1.031-.533-.493-.12-.328.33-.333.57-.016.671-.005 1.356-.005 2.277zm-27.07 2.131c-1.108.352-1.098.357-1.08 1.09.025.943.502 1.41 1.45 1.46-.099-.885-.114-1.745-.365-2.563l-.005.013zm86.076-38.292c.429-.408.751-.829 1.135-1.204.279-.267.767-.533.533-1.01-.235-.477-.744-.191-1.133-.247-.389-.056-.554.143-.532.548.016.642-.003 1.282-.003 1.913zm-16.628 18.434c.826-1.354.69-2.544.32-3.807-.266.139-.757.075-.738.38.067 1.096.253 2.175.418 3.432v-.005zm13.794-40.184c-.043.445-.072.823-.12 1.196-.022.176-.022.296.189.351.764.21 2.384-1.363 2.253-2.285-.583.839-1.305 1.26-2.322.743v-.005zM32.052 33.574c1.306-.474 2.16-1.238 2.227-2.727-1.03.71-2.115 1.284-2.227 2.733v-.006zm40.421 56.977c-1.239 1.066-1.212 2.539 0 3.127v-3.127zM31.69 32.903c-.96.72-1.766 1.332-2.59 1.937a.41.41 0 00-.151.498c.042.192.197.146.295.088.97-.581 2.217-.885 2.446-2.518v-.005zm43 54.249c-.576.76-2.185.62-1.865 2.416.714-.938 2.133-.943 1.864-2.41v-.006zM84.987 97.54a3.284 3.284 0 00-1.55-1.58c-.557-.248-.52.093-.501.432.053.834.916 1.316 2.05 1.161v-.013zm-6.063-84.36c-1.566.04-3.02.439-4.238 1.597 1.582-.13 2.797-1.137 4.238-1.585v-.013zm16.942 48.121l-5.061 1.806c1.84-.21 3.577-.719 5.06-1.792v-.014zM81.749 84.04c.202-.498.41-.993.599-1.494.082-.226.352-.533.122-.684-.229-.152-.562-.096-.828-.038-.408.09-.29.48-.232.72.128.51.176 1.014.347 1.51l-.008-.014zm18.263-9.36a3.683 3.683 0 00.128-2.478c-.054-.175 0-.532-.35-.439-.316.07-.34.333-.284.602l.514 2.328-.008-.013zm-46.31 10.993c-.446.155-.701.533-1.032.837-.24.216-.36.533-.149.764.21.232.442-.074.655-.154.704-.264.978-.72.525-1.447zm34.43 6.82c1.331-.882 1.302-1.279.652-2.459-.2.778-.41 1.556-.653 2.47v-.011zm-11.653-6.886c-.498.716-1.571.799-1.2 1.865 1.256-.794 1.256-.794 1.2-1.854v-.011zm10.24-72.922a18.76 18.76 0 00-5.594.229c1.865-.046 3.73-.261 5.594-.23zM52.356 85.88l1.137-.993a.407.407 0 00.096-.437c-.034-.147-.146-.144-.29-.115-.754.144-1.146.754-.943 1.543v.002zm25.69-1.814c-.504.624-1.332.885-1.005 1.966.475-.61 1.191-.919 1.016-1.958l-.011-.008zm22.616-12.997c-.03 1.066.471 2.155.024 3.24.865-1.071.261-2.16-.014-3.242l-.01.002zM81.077 96.233c.467.329 1.004.544 1.57.629-.22-1.18-.22-1.18-1.56-.632l-.01.003zM68.92 84.19c.55-.43 1.46-.464 1.728-1.599-.745.621-1.611.685-1.718 1.596l-.01.003zM120.133 64c.616-.799.616-.799.466-1.598-.788.392-.849.568-.455 1.596l-.011.003zm-89.542 1.676c.682.56 1.466.187 2.2.266-.681-.442-1.44-.34-2.189-.268l-.01.002zm35.15 14.07c-.664 0-1.111.379-1.612.637-.237.123-.248.267-.114.45.165.224.266 0 .367-.08.466-.333.916-.674 1.37-1.01l-.011.004zm70.591-37.338h-.147c-.095.532-.186 1.065-.285 1.598-.029.141-.175.309.088.365.264.056.344-.085.344-.323v-1.64zm-112.47 2.397c.299 3.945.957 7.808 2.68 11.42-1.358-3.692-1.973-7.56-2.677-11.41l-.002-.01zm5.912 11.502c-1.615-3.26-2.115-6.704-2.896-10.266-.487 1.63 1.713 9.369 2.898 10.277l-.002-.01zm-6.772-.447c-.799-3.178-1.13-6.425-1.428-9.67-.016 3.32.195 6.583 1.43 9.68l-.002-.01zm42.14-4.928c-1.724-2.779-2.515-5.823-3.37-9.023-.472 1.524 2.08 8.25 3.37 9.023zm2.146-.155c-1.598-2.794-2.544-5.594-3.516-8.396-.165 1.518 2.254 7.4 3.5 8.396h.016zm-35.215 5.046c-1.242-2.88-1.74-5.77-2.155-8.695-.416 1.865 1.022 7.722 2.15 8.695h.005zm29.912-5.911c-1.047-2.664-1.718-5.435-2.619-8.149.53 2.816 1.148 5.615 2.613 8.149h.006zm29.65-27.171l-.266.173c1.332 2.232 2.739 4.422 4.566 6.313a5071.594 5071.594 0 00-4.305-6.478l.006-.008zm-33.774 2.898c1.161-2.275 1.843-4.755 2.93-7.078-1.409 2.182-2.21 4.616-2.935 7.086l.005-.008zM34.466 53.907c-.762-2.45-1.7-4.845-2.297-7.36.187 2.632 1.149 5.03 2.291 7.368l.006-.008zM97.926 40.8a23.838 23.838 0 01-6.028-3.86 11.433 11.433 0 006.023 3.868l.005-.008zm-31.817 1.769c.437 2.285 1.476 4.304 2.84 6.169-1.066-2-1.974-4.07-2.845-6.162l.005-.008zm27.416-13.19c-1.297-1.893-2.15-3.747-3.124-5.55.048 1.3 1.998 4.84 3.119 5.559l.005-.008zM44.565 59.35c-.248 1.598 1.355 4.755 2.52 5.018-1.517-1.366-1.844-3.279-2.526-5.01l.005-.008zm35.39-36.426a12.078 12.078 0 001.21 5.328c-.382-1.778-.787-3.55-1.215-5.32l.006-.008zM63.153 16.55c-.919 1.694-1.435 3.545-2.232 5.447.23-.128.35-.151.373-.213.7-1.664 1.391-3.332 2.075-5.005.067-.16-.138-.16-.245-.203l.03-.026zM36.02 52.03c-.858-1.63-1.122-3.434-1.51-5.198-.3 1.457.553 4.377 1.51 5.197zm35.037-4.846c-.714-1.598-1.383-3.197-2.131-4.83a11.72 11.72 0 002.13 4.83zm24.091-10.815a9.689 9.689 0 004.689 2.68 45.237 45.237 0 01-4.689-2.68zm-59.04 9.717c.218 1.71.628 3.352 1.696 4.734-.761-1.53-1.036-3.202-1.696-4.734zm51.595-17.373c-.554-1.38-1.273-2.696-1.71-4.14-.019 1.601.748 2.907 1.697 4.14h.013zM55.973 63.209c-1.31-1.185-1.702-2.647-2.368-4.163-.136 1.452 1.058 3.583 2.355 4.163h.013zm22.568-40.112c-.317 1.484.147 2.854.65 4.207-.197-1.41-.463-2.803-.663-4.206h.013zm-21.26 19.588c-.231 1.478.373 2.706 1.178 3.86a21.926 21.926 0 01-1.191-3.86h.013zm32.177-13.94l-1.732-4.15c-.098 1.073 1.018 3.622 1.718 4.15h.014zm8.708 6.987a16.16 16.16 0 003.324 1.54l.104-.227-3.295-1.555-.133.242zm-37.747-6.43c.173-1.093.083-2.203.293-3.304-.652 1.055-.604 2.171-.306 3.304h.013zm42.31 6.086c-1.036-.532-2.131-.903-3.16-1.451.8.999 1.956 1.26 3.147 1.451h.013zM39.596 49.565c-.82-.89-.756-2.021-1.281-3.25-.155 1.567.37 2.864 1.255 3.25h.026zm61.401-16.968c.882.663 1.844.985 2.931.746l-2.931-.746zm-29.195 11.54c-.477-.653-.706-1.431-1.116-2.153-.059.924.269 1.678 1.116 2.152zm21.25-13.533c-.534-.727-.883-1.23-1.253-1.726-.048-.067-.16-.085-.24-.125.256.714.541 1.377 1.487 1.851h.005zm15.857 22.794c-3.871.211-7.656-.266-11.63-.879 1.217 1.05 10.381 1.665 11.625.88h.005zM82.191 57.97c2.746 1.449 5.594 2.565 8.732 2.754-3.01-.623-5.871-1.665-8.732-2.754zm21.31-1.929c-2.807 0-5.57-.386-8.314-.8 1.367.813 7.076 1.37 8.314.808v-.008zm-12.424 2.017c-2.528-.376-4.821-1.487-7.216-2.283 1.055 1.055 6.023 2.623 7.216 2.29v-.007zm14.444-20.277c-.094.482.266.404.532.42 1.796.115 3.575-.135 5.36-.245.431-.026.983 0 1.377-.386-2.435.128-4.859.336-7.291.237l.022-.026zM80.249 59.89c.533 1.065 4.877 2.879 6.127 2.56-2.206-.416-4.11-1.52-6.127-2.547v-.014zm34.816-27.638c-1.971.464-4.017.378-5.97.898 2.036-.016 4.071 0 5.97-.885v-.013zm7.92-2.45c-1.09 1.555-2.315 3.004-3.538 4.472a10.4 10.4 0 003.538-4.46v-.013zm-2.789-3.144c-.845 1.503-1.815 2.93-2.739 4.38a9.374 9.374 0 002.739-4.367v-.013zm1.387 1.183c-.903 1.598-1.96 3.103-2.853 4.717a12.89 12.89 0 002.853-4.69v-.027zM96.328 49.299a8.525 8.525 0 004.462.9c-1.49-.28-2.965-.628-4.462-.887V49.3zm12.402-8.41c-1.126-.288-2.29-.026-3.409-.266a5.101 5.101 0 003.409.28v-.014zm8.778-15.383a492.582 492.582 0 01-1.409 3.17l.25.112c.69-.965 1.036-2.086 1.382-3.197l-.223-.085zm-3.061 1.614c.799-.445 1.034-1.146.93-1.998-.309.675-.619 1.345-.93 2.011v-.013zm1.715-1.558c-.239.668-.78 1.22-.687 2.013.413-.588.863-1.174.687-2v-.013zm3.352-4.835v1.451c-.448-.085-.328-.367-.315-.55.059-.92-.29-1.711-.572-2.566-.645-1.945-.211-2.88 1.654-3.253.903-.18 1.864-.093 2.714-.48a.53.53 0 01.754.2c.197.379-.088.61-.365.776-.775.458-1.654.634-2.509.855-.493.13-1.044.093-1.122.799a1.6 1.6 0 00.877 1.678c.29.13.596.22.911.267.301.072.62.516.887.162.266-.354.533-.783.367-1.332a7.465 7.465 0 01-.266-1.633c.519.48.458 1.143.594 1.742 1.598-.57 1.271-.266 1.239-2.498.386.533.386.533.453 1.473.309.106.607-.498.919-.019.247.381-.038.685-.216.957a13.69 13.69 0 01-.962 1.198c-.764.925-.78 1.636.133 2.398 1.015.85 1.865 1.864 2.805 2.773.235.224.533.434.565.961-3.298-1.164-5.058-4.493-8.545-5.346v-.013zm6.414 3.73c-.479-.899-1.172-1.213-1.681-1.711-1.036-1.02-1.1-2.009-.176-3.111.123-.147.267-.267.381-.432.115-.165.288-.224.208-.495-.826.41-1.598.799-1.811 1.75-.115.49-.371.365-.714.22-.677-.282-1.377-.5-2.174-.782.145.269.373.485.65.615 1.431.658 2.77 1.412 3.708 2.765.314.46.93.706 1.609 1.188v-.008zm-3.247-8.475c-.916.235-1.654.195-2.376.267-.626.066-1.359.253-1.481.993-.123.741-.203 1.647.769 2.26-.095-.267-.154-.392-.199-.533-.445-1.412-.179-1.828 1.284-2.246.618-.165 1.308-.152 2.003-.74zm8.774 20.104c-2.131 1.75-3.974 3.538-6.539 4.766 1.657-.141 5.922-3.263 6.555-4.766h-.016zm-.982-1.268c-1.969 1.718-3.73 3.692-6.098 4.92 2.616-.905 4.433-2.837 6.103-4.92h-.005zm.351-17.298a42.578 42.578 0 012.731 5.913 12.428 12.428 0 00-2.725-5.913h-.006zm-3.641 24.307a10.477 10.477 0 004.643-4.121c-1.463 1.462-2.936 2.92-4.638 4.12h-.005zm1.8-7.616c-1.824 1.332-3.412 2.712-5.367 3.903 1.161-.123 4.925-2.877 5.373-3.903h-.006zm-11.278-11.875c-.141-2.06-.035-4.159-1.066-6.052.626 1.979.522 4.073 1.071 6.052h-.005zm18.034 9.606c.86-1.51 1.084-3.218 1.486-4.87a.227.227 0 00-.087-.258.239.239 0 00-.088-.038c-.267-.037-.296.163-.317.36-.184 1.668-.696 3.252-1.295 4.928.197-.075.296-.083.296-.122h.005zm4.859 3.838c.287 1.891.576 3.784.866 5.68l.247-.033c-.072-1.92-.445-3.8-.799-5.687l-.314.04zM126.41 16.19c.533 1.836.469 3.6.52 5.549.626-1.212.279-4.71-.52-5.549zm-10.085 5.237a20.236 20.236 0 00-.996-5.002l-.232.05.967 5.006.261-.054zm27.437 19.11c-.072-1.728-.327-3.441-.484-5.162-.272 1.764-.014 3.474.49 5.163h-.006zM96.285 5.908c1.75.246 3.34.44 4.899.773-1.356-.79-3.868-1.188-4.894-.783l-.005.01zm42.621 15.014c-.048-.154-.165-.3-.351-.192-.088.054-.203.238-.176.285.722 1.258.383 2.664.65 3.972a8.181 8.181 0 00-.128-4.076l.005.011zM100.188 7.855a6.794 6.794 0 00-4.241-.213c1.403.075 2.82.072 4.235.202l.006.011zm39.898 16.39c.533-1.406.267-2.756-.266-4.072.176 1.347.264 2.704.261 4.062l.005.01zM102.212 10.52c1.217.714 2.608.906 3.929 1.303.027-.083.056-.168.083-.267l-3.929-1.294c-.032.082-.059.165-.088.247l.005.011zm-6.502-.751h3.572v-.203h-3.586l.014.203zm2.296-5.344c1.007.685 2.192.855 3.356 1.122a8.749 8.749 0 00-3.361-1.12l.005-.002zM137.75 30.62c.3-1.163.599-2.329.898-3.497l-.251-.064c-.532 1.105-.684 2.317-.919 3.505l.272.056zm3.484-9.694v3.093h.254c.09-1.027.099-2.06.026-3.09l-.28-.002zM107.657 5.032c.98.595 1.979 1.143 3.197 1.175l-3.091-1.433-.106.258zm35.085 15.967c-.341.754-.186 1.543-.064 2.32a4.119 4.119 0 00.059-2.33l.005.01zm-41.505-8.553c.751.03 1.47.41 2.248.138-.74-.109-1.47-.594-2.248-.138zm31.004 28.359c-.964.096-1.332.914-1.832 1.598.638-.5 1.249-1.034 1.832-1.598zM98.943 10.852c-.719 0-1.457-.15-2.088.487l2.102-.197c.016-.098-.003-.194-.005-.29h-.008zm2.435-6.926c-.596-.221-1.137-.653-2.019-.533.743.445 1.337.682 2.027.538l-.008-.005zm-2.557 8.817c-.666.112-1.316.267-1.737.96l1.814-.72a3.225 3.225 0 00-.069-.234l-.008-.006zM37.54 72.195v5.327h.191v-5.328h-.191zm-5.466 5.594c.28 1.646.558 3.292.833 4.938l.267-.045c-.21-1.66-.267-3.343-.845-4.939l-.255.046zm-7.614-1.724c-.362-1.532-.612-3.082-.985-4.611-.062 1.633.149 3.2.993 4.63l-.008-.019zm5.47 2.683c-.083 1.454-.11 2.906.377 4.328-.178-1.422.17-2.906-.37-4.328h-.008zm6.392-7.273c-.077 1.516-.184 3.032.296 4.529v-4.545l-.296.016zm-6.91 10.922c-.13-1.497-.245-2.858-.362-4.217-.402 1.428-.17 3.285.365 4.214l-.003.003zM26 75.524c-.194-1.27-.336-2.552-.954-3.73.192 1.282.293 2.58.957 3.728l-.003.002zm9.473-.591c.114-1.18-.32-2.299-.21-3.463-.435.647-.265 2.938.212 3.46l-.002.003zm-7.302 5.655c-.075-.876-.266-1.737-.362-2.616a2.74 2.74 0 00.365 2.614l-.003.002zm-1.03-8.772c.09.7 0 1.447.564 2.033-.253-.664.117-1.479-.562-2.027l-.003-.006zm-.065 8.389l-.42-2.323c-.267 1.063-.14 1.665.423 2.32l-.003.003zM7.401 52.908c-1.438.784-2.823 1.63-3.844 2.957 1.242-1.05 2.675-1.835 3.844-2.957zm-1.96-.97l3.995-2.543-.151-.24a30.68 30.68 0 00-3.996 2.563l.152.22zm5.06 3.253l3.578-2.773c-1.497.533-2.632 1.556-3.75 2.598l.173.175zm3.76-1.598l-.168-.2c-1.183.8-2.345 1.646-3.176 2.883l3.344-2.683zM4.963 66.619c-.4 1.263-.866 2.517-.461 3.881.013-1.308.522-2.557.463-3.878l-.002-.003zm-.613-9.707c.911-1.087 2.049-1.582 2.965-2.368-1.385.368-2.754 1.436-2.962 2.36l-.003.008zm3.575-1.795a9.269 9.269 0 00-2.997 2.533l3.157-2.323-.16-.21zm-3.498-1.43a29.76 29.76 0 003.32-2.132l-.16-.245-3.303 2.171.143.205zm5.86-6.442c-.825.381-1.645.773-2.213 1.598l2.376-1.332-.162-.266zm-2.253 9.252c-.9.266-1.614.761-1.947 1.707l1.947-1.707zm2.246 1.88c.554-.711 1.17-1.164 1.694-1.707-1.05.346-1.561.852-1.694 1.71v-.003zM5.419 67.94c.147.74-.532 1.468.11 2.398l.231-2.398h-.34zm76.346 11.785c-.235.05-.477.027-.546-.232-.107-.396.213-.586.482-.743 1.784-1.05 3.63-1.982 5.458-2.951 2.648-1.404 5.26-2.89 7.104-5.376a3.926 3.926 0 011.721-1.332.799.799 0 01.642 0c.194.136 0 .408-.059.586-.311.845-.697 1.657-1.395 2.262a3.397 3.397 0 00-1.133 1.846 1.865 1.865 0 01-1.222 1.366c-.696.303-1.408.57-2.131.8a6.926 6.926 0 00-2.326 1.084c-1.817 1.406-4.065 1.766-6.113 2.608a2.079 2.079 0 01-.483.085v-.003zm.863-1.047c1.39-.474 2.972-.5 4.211-1.332a18.651 18.651 0 015.23-2.504c.798-.234 1.39-.676 1.573-1.598.115-.589.533-1.066.962-1.518.501-.533 1.031-1.066 1.18-1.9a1.729 1.729 0 00-.876.72c-1.764 2.725-4.694 3.96-7.272 5.612-1.567.991-3.333 1.69-5.008 2.523v-.003zm21.097-13.295c-.458 0-.418-.3-.266-.514.198-.293.447-.548.735-.754a8.517 8.517 0 002.264-2.578 6.334 6.334 0 011.894-1.838c2.23-1.543 4.427-3.125 6.859-4.345.267-.133.555-.549.8-.267.333.365-.056.685-.32.965-.972 1.025-1.979 2.035-3.181 2.77-2.421 1.481-4.318 3.604-6.595 5.253a11.66 11.66 0 01-2.19 1.31v-.002zm10.741-8.977c-3.328 1.793-6.727 3.495-8.581 7.086 2.678-2.592 5.874-4.547 8.581-7.083v-.003zM91.839 86.909a12.849 12.849 0 001.726 5.435c-.644-1.798-1.081-3.65-1.726-5.432v-.003zm2.693 3.282c-.666-1.289-.937-2.695-1.348-4.06-.032 1.514.317 2.899 1.348 4.071v-.01zm.024-4.528c.06.864.373 1.692.898 2.381-.152-.863-.352-1.694-.898-2.37v-.011zm27.994-22.826c-.226-.922-.447-1.812-.666-2.702-.234 1.188.086 2.265.666 2.699v.002zm.365-3.797a3.075 3.075 0 00.642 2.398 6.832 6.832 0 00-.642-2.403v.006zM97.193 20.471a7.635 7.635 0 010-.823c.054-.448-.309-1.148.642-1.098.102 0 .232-.21.315-.343 1.284-2.131 4.555-2.398 6.329-1.732 2.893 1.098 5.099 2.93 5.748 6.172.384 1.924.014 2.664-1.811 3.463-1.316.578-2.571 1.298-4.014 1.564a2.84 2.84 0 01-1.516-.021c-2.595-.946-4.736-2.38-5.575-5.216-.203-.682-.048-1.353-.118-1.969v.003zm3.426-.509l.013.32c-.519 0-1.044.021-1.563 0-.415 0-.822.107-1.183.311-.23.11-.192.29-.136.488a.232.232 0 00.362.165c.888-.418 1.77-.048 2.651 0 1.497.088 3.407 1.313 4.169 2.744-2.014-1.865-4.214-3.13-7.211-2.272.453.213-.04 1.102.839.86 2.131-.583 5.21.916 6.356 3.33-1.09-.983-1.934-1.844-2.957-2.48-1.114-.693-2.272-.887-3.514-.36 1.484 3.04 4.777 4.435 7.297 3.093-.195-.336-.387-.674-.621-1.082.495.091.682.413.868.685.187.272.349.213.557.104.29-.152.059-.32 0-.472-.106-.266-.421-.46-.397-.799a.217.217 0 01.282-.005.215.215 0 01.062.08c.596 1.244 1.39.618 2.181.266.4-.18.333-.296.067-.578-.988-1.065-1.819-2.285-2.93-3.178-2.208-1.776-4.609-3.154-7.619-1.883-.61.266-.62.232-.48.916a5.8 5.8 0 012.907-.255v.002zm8.647 4.316c.266-1.844-.298-3.197-1.673-4.081.029.514.392.972.109 1.547-.229-.588-.439-1.11-.634-1.638-.194-.527-.317-1.066-.951-1.316-.141.608.496 1.044.248 1.641-.842-.735-.512-2.192-1.865-2.746.373.977.464 2.014 1.029 2.544 1.326 1.246 2.706 2.392 3.737 4.046v.003zm-5.2-5.261c-.922-.333-1.015-1.497-1.961-1.756.608 1.188 1.332 2.248 2.955 2.53-.674-.905-.578-2.21-2.102-2.62l1.108 1.846zm-4.758-.912h1.716c-.65-1.044-1.199-.418-1.716-.002v.002zm10.6 49.34a2.532 2.532 0 00.82 2.056l-.575-2.13-.245.074z"/></symbol></svg>