<svg aria-hidden="true" width="0" height="0" style="position:absolute"><symbol fill="curentColor" viewBox="0 0 191 137" id="categoriesd" xmlns="http://www.w3.org/2000/svg"><path d="M121.835 121.77a.669.669 0 00.303-.579 5.93 5.93 0 00-.163-1.565 4.68 4.68 0 01-.198-1.924c.128-1.356 0-2.735.303-4.092a2.67 2.67 0 01.502-1.159c.203-.268.371-.56.502-.869a16.96 16.96 0 015.74-7.314 41.13 41.13 0 004.796-4.184 27.138 27.138 0 003.57-5.03c1.704-3.072 3.186-6.282 5.193-9.18a12.597 12.597 0 015.694-4.45 19.347 19.347 0 016.091-1.577 8.463 8.463 0 012.333.105c.432.08.887.266 1.167-.29.07-.116.292-.15.455-.232-.082-.313-.315-.406-.537-.522-.816-.44-1.622-.904-2.438-1.32a11.488 11.488 0 01-2.894-2.4 11.297 11.297 0 01-2.439-2.92 24.068 24.068 0 01-2.333-6.561 13.848 13.848 0 00-2.264-6.433c-1.167-1.68-2.147-3.477-3.279-5.216a15.299 15.299 0 00-1.575-1.982 17.341 17.341 0 01-2.042-2.654 5.983 5.983 0 00-1.003-1.159c-1.47-1.402-2.952-2.793-4.352-4.265a10.555 10.555 0 01-2.486-5.135 13.795 13.795 0 01-.467-3.593 13.125 13.125 0 011.401-5.355c.07-.15.245-.266.14-.568-.957.452-2.019-.174-3.022.325-.292.139-.771.197-.946-.209-.175-.405-.455-.823-.151-1.321.265-.457.503-.93.712-1.414a3.053 3.053 0 011.353-1.507.882.882 0 00.49-.487 6.361 6.361 0 012.695-2.863.439.439 0 01.386-.08c.442.213.932.309 1.423.277.222 0 .362.21.362.452a1.553 1.553 0 01-.28 1.16 10.612 10.612 0 00-1.015 2.109v.15c.338.163.408-.208.548-.3a16.608 16.608 0 013.5-1.693 10.57 10.57 0 016.325-.452c1.867.306 3.689.84 5.425 1.588.446.214.878.454 1.295.719a33.965 33.965 0 015.531 3.697 28.004 28.004 0 013.886 4.242c1.505 2.11 3.22 4.08 4.527 6.317a60.439 60.439 0 013.64 6.468c.467 1.077 1.167 2.051 1.646 3.164.688 1.796 1.166 3.65 1.691 5.505.175.66.351 1.322.572 1.97a22.13 22.13 0 01.794 8.114 32.018 32.018 0 01-.304 4.219 10.187 10.187 0 01-3.045 5.795 51.437 51.437 0 01-2.334 2.11 8.047 8.047 0 01-2.882 1.414c-.697.28-1.414.504-2.147.672a.45.45 0 00-.316.2.456.456 0 00-.057.368 1.02 1.02 0 01-.268.893c0 .208.186.22.303.277a11.425 11.425 0 015.974 6.201 12.384 12.384 0 01.292 8.404 30.212 30.212 0 01-1.482 4.81 39.37 39.37 0 01-3.944 6.954c-1.319 1.912-2.847 3.651-4.341 5.424a37.607 37.607 0 01-4.142 3.918 54.725 54.725 0 01-4.025 3.292 57.39 57.39 0 01-8.296 5.401 20.188 20.188 0 01-6.499 2.26 16.523 16.523 0 01-7.223-.255 7.99 7.99 0 01-3.594-1.936 1.039 1.039 0 00-.572-.289 2.946 2.946 0 01-2.123-1.53c0-.058-.105-.093-.222-.197-.082.521-.49.962 0 1.437.245-.093 0-.487.35-.464.35.023.292.232.373.406a.71.71 0 00.642.348c.426.062.828.234 1.167.498 0 .325-.327.417-.478.649-.735-.765-2.019 0-2.602-1.089-.117.115-.187.162-.187.197.222.707-.292 1.054-.7 1.46a45.472 45.472 0 01-6.196 4.972 20.333 20.333 0 01-7.596 3.223c-2.835.614-5.694 1.008-8.541 1.587a7.65 7.65 0 01-2.509-.208c-1.913-.255-3.839-.499-5.74-.788a43.476 43.476 0 01-13.64-4.729c-1.436-.754-2.94-1.414-4.376-2.191a38.733 38.733 0 01-4.329-3.06 19.975 19.975 0 01-5.636-6.641 17.334 17.334 0 01-2.018-4.405 9.423 9.423 0 01.886-6.061c0-.105.117-.197.199-.36-.887-.081-.35-.579-.303-.939-.234-.208-.374 0-.572.058-.875.522-1.692 1.159-2.602 1.623a13.52 13.52 0 01-4.47 1.229 10.348 10.348 0 01-6.452-1.159c-1.166-.626-2.543-.939-3.745-1.6a17.077 17.077 0 01-2.089-1.333 85.356 85.356 0 01-7.806-6.386 43.832 43.832 0 01-3.629-3.86 48.924 48.924 0 00-2.893-3.257 17.38 17.38 0 01-3.267-4.729c-1.89-4.253-3.933-8.46-4.668-13.143a23.674 23.674 0 01.187-7.754 20.007 20.007 0 011.96-5.796 12.455 12.455 0 016.838-6.166 6.053 6.053 0 013.185-.753 1.418 1.418 0 01.63-1.16c.362-.231.082-.81-.105-1.158a41.76 41.76 0 01-3.232-7.58 16.184 16.184 0 01-.502-4.127c-.15-2.26.25-4.521 1.167-6.595a43.972 43.972 0 015.076-8.67c1.167-1.448 2.077-3.048 3.127-4.566a58.159 58.159 0 013.71-4.73 60.258 60.258 0 018.985-8.68 29.391 29.391 0 018.868-4.868c1.22-.394 2.48-.65 3.757-.765a11.589 11.589 0 014.084.533c.373.104.735.243 1.167.382.198-.22.268-.533.606-.614.339-.081.14-.29.152-.464.075-.394.284-.75.592-1.01s.696-.406 1.1-.415c.245 0 .548.07.595.313.105.475.502.556.828.741.129 0 .316.128.339.22.14.615.677.627 1.167.777.793.267 1.598.533 2.403.823.616.23 1.126.675 1.436 1.252.303.545 0 .974-.292 1.414-.292.44-.595.36-.945.243a2.348 2.348 0 00-2.66.51c.07.279.443.406.594.696 1.412 2.561 2.427 5.17 1.704 8.23a37.637 37.637 0 01-3.419 9.272 3.743 3.743 0 01-.431.625 68.685 68.685 0 01-5.765 5.877c-1.972 1.796-4.083 3.477-5.915 5.39a35.442 35.442 0 00-4.563 5.586 34.02 34.02 0 01-4.142 5.563 13.194 13.194 0 01-4.142 2.968c-1.108.498-2.194 1.054-3.349 1.448a7.842 7.842 0 01-2.333.499 3.637 3.637 0 00-1.167.266 6.618 6.618 0 01-2.416.499 1.173 1.173 0 01-.875-.244c-.466-.475-.98-.336-1.551-.162-.105.684.21 1.542-.852 1.855.75.491 1.529.937 2.333 1.333a17.07 17.07 0 014.516 3.662 14.82 14.82 0 012.999 5.274c.256.87.828 1.646 1.166 2.492a25.745 25.745 0 001.867 3.477 18.627 18.627 0 002.124 3.025c1.015 1.16 2.112 2.214 3.104 3.373a29.257 29.257 0 002.333 2.167c.806.754 1.587 1.519 2.392 2.26a36.156 36.156 0 014.317 4.73 24.438 24.438 0 013.058 5.331 16.651 16.651 0 011.33 6.618 10.927 10.927 0 01-1.167 4.416c-.315.707-.56 1.449-.898 2.318.676-.44 1.225-.823 1.796-1.159a14.279 14.279 0 015.835-2.318 20.594 20.594 0 018.517.916c2.544.811 5.088 1.669 7.585 2.631 1.633.637 3.243 1.333 4.865 1.993a25.992 25.992 0 007.106 1.403 42.366 42.366 0 0112.193 2.712 20.431 20.431 0 015.088 2.828 19.125 19.125 0 013.243 3.802 20.984 20.984 0 012.007 3.477c.059.116.059.267.257.336zm-93.894-30.9c.067.036.13.078.187.127-.105.278 0 .418.303.545 0-.313-.151-.417-.315-.533l-.186-.14h.011zm97.5 19.275c-.175-.07-.245 0-.234.174.012.174.129-.174.245-.197l-.011.023zM27.988 42.491a.622.622 0 00-.128-.626c-.012.243-.059.452.128.626zm101.198-16.227c-.455.128-.49.51-.63.974a1.047 1.047 0 00.618-.985c0-.081 0 0 0 0 0 .08.012-.012.012.034v-.023zM23.122 60.526a3.734 3.734 0 00-1.598 2.202 11.406 11.406 0 001.575-2.214c.082-.104.268-.15.222-.359-.175.116-.175.267-.199.394v-.023zM41.955 14.94a.235.235 0 00-.22.152.23.23 0 00-.014.092c-.401.317-.765.679-1.085 1.078a71.978 71.978 0 00-3.967 5.111 56.032 56.032 0 00-3.617 5.934.68.68 0 00-.105.499c.303 0 .362-.452.922-.452-2.52 3.558-4.668 7.14-4.142 11.59.198.058.315-.174.513 0a5.76 5.76 0 00.338 4.289c-.42.127-.385-.29-.676-.267a8.509 8.509 0 001.365 5.46c.03-.173.03-.35 0-.522a38.472 38.472 0 01-.42-4.636 1.152 1.152 0 01.466-1.078 37.279 37.279 0 00.84 8.762 11.123 11.123 0 00-1.668-2.851c-.175.521.373.788.175 1.159-.63-.672-1.902-7.383-1.575-8.218.315.128.116.556.431.742.14-1.646-.408-3.21-.21-4.984a1.158 1.158 0 00-.373.811c-.093.765-.187 1.519-.233 2.319-.21 3.709 0 7.325 2.018 10.628.105.185.152.429.397.498.887.22 1.354.94 1.925 1.611.444-.104.922-.208 1.4-.336a14.44 14.44 0 015.216-.51 6.06 6.06 0 002.847-.266c.654-.255 1.295-.58 1.972-.8.677-.22.688-.672.642-1.263a6.91 6.91 0 00-1.424.776 3.236 3.236 0 01-2.333.626 1.785 1.785 0 00-1.074.128 7.326 7.326 0 01-3.407.347c.187-.266.479-.058.63-.301a8.898 8.898 0 01-.502-2.318c-.49.15-.933 0-1.4.081.034.854.223 1.694.56 2.48-.443.058-.525-.197-.618-.44a4.38 4.38 0 01-.315-1.715c0-.8-.444-1.16-1.167-1.38.046 1.049.203 2.09.467 3.106-1.167-1.1-.619-2.677-1.167-3.963a1.486 1.486 0 01.397-1.31c.303.336.14.707.163 1.031 0 .707.233.916 1.004 1.032a7.936 7.936 0 01.14-1.634c.23.341.341.748.315 1.159 0 .834 0 .811.84.892.513.058.746 0 .653-.614a1.635 1.635 0 01.339-1.414c.198.707-.094 1.402.256 2.075.56-.36 1.447-.116 1.587-1.055.233 0 .14.29.315.324a1.78 1.78 0 001.016-.462c.28-.26.468-.601.536-.975.315.162.128.475.385.614a3.81 3.81 0 01.63-.266.854.854 0 00.69-.717.84.84 0 00-.025-.35 12.786 12.786 0 01-.058-1.344c0-.22 0-.429.362-.44.233 1.344.058 2.723.291 4.091.531-.313 1.035-.67 1.505-1.066a.44.44 0 00.152-.476c-.093-.683-.198-1.356-.28-2.04 0-.196-.07-.335-.303-.347a2.788 2.788 0 000-1.484 1.464 1.464 0 01.093-1.159c.479.383.198 1.009.572 1.426l.21-.232c.418-.718.91-1.39 1.47-2.005a.406.406 0 00.105-.476.406.406 0 00-.105-.138 4.455 4.455 0 01-.28-.464c-.058-.116-.14-.267 0-.36.14-.092.292 0 .408.117.117.116.152.417.409.463 1.062-1.031 1.062-1.031.268-2.782.875-.243.77.696 1.167.962a1.329 1.329 0 00.652-.777 1.31 1.31 0 00-.092-1.008c-.315-.672-.56-1.379-.817-2.074-.058-.174-.233-.336 0-.66.852.845.875 2.074 1.459 3.001 1.085-1.159 1.015-.846.443-2.028a8.19 8.19 0 01-.735-1.646c.724-.081.712.533.934.87.221.335.268.926.676 1.24.852-.789.852-.789.432-1.762-.28-.661-.56-1.333-.828-2.006-.082-.185-.257-.44 0-.556.256-.116.28.186.361.348.374.834.759 1.669 1.167 2.503a1.168 1.168 0 00.708-.61 1.155 1.155 0 00.027-.931 17.47 17.47 0 00-1.167-2.562c-.081-.162-.28-.37 0-.521.28-.15.385.116.479.29a10.4 10.4 0 011.097 2.318.657.657 0 00.291.498c.945-.614 1.004-.777.584-1.739-.28-.637-.56-1.274-.852-1.912.432-.22.537.093.665.313.394.668.708 1.38.933 2.121a6.2 6.2 0 01.934-.997c.443-.301.432-.614.28-1.054a2.675 2.675 0 01-.327-1.368c.607.266.56.997.899 1.46.42-.174.501-.44.361-.857-.259-.842-.615-1.65-1.061-2.411a.903.903 0 010-.151c0-.197.291-.128.396-.336.105-.209-.315-.417.059-.533.373-.116.396.197.501.394.442.694.81 1.432 1.097 2.202 0 .128.082.278.304.301.244-.234.5-.455.77-.66a.952.952 0 00.408-1.16 55.738 55.738 0 00-.922-3.337c0-.163-.116-.383.117-.452.233-.07.303.127.35.3.31.89.567 1.795.77 2.713-.016.36.09.716.303 1.008.362-.243.689-.475 1.039-.695.35-.22.315-.336.152-.626a4.862 4.862 0 00-1.914-2.388c.525-.463.84-.115 1.097.163a7.92 7.92 0 011.073 1.61c.353.72.642 1.469.864 2.238.735-.394.758-.406.665-.846a11.186 11.186 0 00-2.065-5.46.325.325 0 01.45-.177.326.326 0 01.133.12c.18.154.33.338.443.544a15.122 15.122 0 011.622 5.483c-.022.443.017.888.117 1.321a.998.998 0 00.443-.997 36.672 36.672 0 00-.921-4.184 21.78 21.78 0 00-1.027-2.62c.49-.104.525-.069.782.487a21.471 21.471 0 011.493 5.367c0 .209 0 .487.28.637.303-.405.607-.823.922-1.159a.846.846 0 00.233-.637 25.262 25.262 0 00-.84-4.381 20.08 20.08 0 00-1.015-2.319c.513-.07.525-.08.735.325a13.185 13.185 0 011.284 4.022c.105.614.186 1.24.291 2.005.63-.846 1.167-1.46.899-2.492-.537-1.994-.782-4.08-1.949-5.888.338-.278.525-.127.7.162a13.696 13.696 0 011.26 3.651c.222.765.374 1.542.549 2.26.326.07.338-.347.618-.231a.668.668 0 010 .162.415.415 0 01-.07.22c-.7.754-.35 1.67-.397 2.527a.45.45 0 00.327.498.481.481 0 00.572-.174 13.657 13.657 0 002.45-3.72 22.95 22.95 0 001.319-5.042 4.3 4.3 0 01.396-1.565c.526 1.843-.898 6.642-2.87 9.389a24.502 24.502 0 01-5.087 5.32c.175-.603.898-.858.84-1.6a8.267 8.267 0 00-.082-1.982c-.642.765-1.435 1.322-1.108 2.434.047.35.047.705 0 1.055 0 .15 0 .336-.315.313a11.448 11.448 0 00-.199-1.67c-.886 0-.688.986-1.166 1.38.099-.828.099-1.664 0-2.492-.572.29-.747.545-.654.962.163.844.21 1.705.14 2.562 0 .15-.082.313.105.417.572-.29.957-.87 1.61-1.043a2.822 2.822 0 01-1.692 1.38c-.221.405 0 .95-.513 1.228a15.305 15.305 0 00-.117-4.636c-.478.394-.828.73-1.166 1.008a.999.999 0 00-.444 1.055c.134.992.134 1.998 0 2.99 0 .267 0 .603-.455.765a11.33 11.33 0 00-.105-3.871c-.36.155-.656.426-.842.768a1.729 1.729 0 00-.185 1.12 5.76 5.76 0 01-.431 3.154 1.866 1.866 0 000 1.24 21.299 21.299 0 012.333-1.553.403.403 0 01-.221.428c-1.167.673-1.972 1.75-3.058 2.504-.291.22-.338.603-.688.777-.35.174-.595.776-.315 1.437.175-.22.315-.406.478-.58a54.216 54.216 0 014.668-4.578c2.263-2.005 4.574-3.952 6.732-6.097a17.934 17.934 0 004.306-6.954 36.539 36.539 0 001.54-5.714A8.981 8.981 0 0072.49 7.36a11.983 11.983 0 00-5.472-4.277 1.538 1.538 0 00-1.167 0c-.875.325-1.773.626-2.672.916a1.655 1.655 0 01-1.283 0 30.874 30.874 0 003.792-1.275 8.533 8.533 0 00-2.987-.522 17.28 17.28 0 00-6.581 1.611 39.208 39.208 0 00-6.698 4.046 56.012 56.012 0 00-5.752 5.134 8.127 8.127 0 00-1.715 1.97v-.023zm110.182 59.03c0 .21.129.337.245.453a13.589 13.589 0 003.372 2.816c.607.29 1.167.684 1.751.974a9.016 9.016 0 001.948.672c.56.14.782-.093.98-.556.479-1.16.992-2.318 1.494-3.477.07-.14.082-.36.338-.325a.527.527 0 010 .556c-.478.951-.688 2.006-1.167 2.945-.116.231-.326.58-.081.764a1.293 1.293 0 001.027.314 20.361 20.361 0 003.64-1.218 5.486 5.486 0 001.902-1.39c-.198-.232-.525-.116-.653-.43.501 0 .676-.324.851-.671a27.532 27.532 0 001.564-3.547c0-.128 0-.278.408-.244a24.264 24.264 0 01-1.668 4.254h.186l.934-.892a9.256 9.256 0 002.882-5.587c.333-2.392.461-4.807.385-7.22a16.067 16.067 0 00-.408-3.663c-.584-2.319-1.459-4.556-1.996-6.955a10.965 10.965 0 00-1.388-3.234 19.54 19.54 0 01-1.237-2.132 63.206 63.206 0 00-3.909-6.78c-.957-1.6-2.194-3.014-3.279-4.533a28.483 28.483 0 00-5.285-5.679c-1.167-.973-2.626-1.588-3.862-2.492a16.786 16.786 0 00-4.446-2.156 7.66 7.66 0 00-.98-.208c.081.37.478.336.583.614-.14 0-.233 0-.326-.104a7.453 7.453 0 00-5.461-.916c-1.327.288-2.618.72-3.851 1.287a7.274 7.274 0 00-2.217 1.32 11.6 11.6 0 00-1.388 1.925c.292.116.467-.197.642 0s-.269.36-.175.603a1.157 1.157 0 01.28 1.61c-.164-.185.081-.475-.222-.66a22.821 22.821 0 00-.268 2.724c-.234-.209-.059-.487-.28-.626-.771 1.82-.596 5.378.326 6.317a2.24 2.24 0 000-.232c.018-1.927.285-3.843.794-5.703.081-.278.105-.614.525-.741.036.44-.028.884-.187 1.298a22.323 22.323 0 00-.688 6.641c.056.505.277.977.63 1.345.102-.209.138-.443.105-.673-.02-2.018.136-4.035.466-6.027a.836.836 0 01.572-.8 43.218 43.218 0 00-.572 5.889 21.118 21.118 0 00.537 5.795.957.957 0 01-.56-.742 10.81 10.81 0 01-.408-2.19 1.163 1.163 0 00-.595-.986c-.117.487.256.881 0 1.322-.63-1.426-.549-3.095-1.541-4.428 0 .267-.268.29-.443.348 0 .637.338 1.159.28 1.808a3.47 3.47 0 01-.642-1.53c-.28-1.727-.245-3.49.105-5.204.193-1.472.521-2.923.98-4.335-.116 0-.163.07-.175.093a12.16 12.16 0 00-1.505 9.133 13.033 13.033 0 004.096 6.896 22.999 22.999 0 014.084 4.277c.816 1.252 1.948 2.249 2.835 3.477.438.513.829 1.063 1.167 1.646a17.202 17.202 0 001.925 3.095 15.16 15.16 0 012.754 6.038c.234 1.447.554 2.88.957 4.289a21.096 21.096 0 002.532 5.146 1.27 1.27 0 00.781.626v-.023zM26.157 56.493c.49 0 .71.406 1.096.568-.303.603-.945.754-1.33 1.16a66.129 66.129 0 01-2.054 2.317 17.944 17.944 0 00-3.197 5.24 4.354 4.354 0 00-.257 1.935 33.318 33.318 0 012.929-5.517 5.96 5.96 0 012.042-2.226c.245-.127.49-.278.805 0a5.63 5.63 0 00-2.007 1.901 35.435 35.435 0 00-2.894 5.054 11.455 11.455 0 00-1.085 6.05c0 .104 0 .243.175.267.385-1.16.689-2.319 1.167-3.478a8.987 8.987 0 00.689-3.477c.021-.293.084-.582.186-.857a.45.45 0 01.467-.394 3.695 3.695 0 00-.175 1.738c.264-.695.564-1.376.898-2.04.689-1.09.969-1.344 1.54-1.356a15.617 15.617 0 00-2.333 4.196 2.614 2.614 0 000 1.97c.455-.336.397-1.159 1.167-1.159a20.366 20.366 0 00-.852 1.959 2.927 2.927 0 00.35 1.924c.268-.07.338-.406.7-.22-.805 1.159-.117 2.214.268 3.338.339-.22.35-.754 1.027-.603-.875.66-.361 1.75-1.015 2.434-.151.15-.105.371-.058.568.115.425.322.82.607 1.16.175-.128.175-.29.221-.43.223-.872.496-1.731.817-2.573.105-.243.198-.521.548-.452.082.232 0 .383-.081.545-.339 1.09-.665 2.179-1.027 3.245-.21.626.093 1.02.513 1.519.082-.29.14-.464.187-.65a20.05 20.05 0 011.249-3.36c.116-.244.21-.522.641-.406-.548 1.437-1.096 2.828-1.587 4.242a1.659 1.659 0 00.327 1.82c.14-.172.236-.375.28-.592a36.48 36.48 0 012.427-5.482 1.16 1.16 0 01.805-.649 1.84 1.84 0 01-.105.29 39.976 39.976 0 00-2.823 6.328c-.159.38-.175.804-.046 1.195.128.39.392.723.746.938.198-.65.385-1.275.595-1.901a30.87 30.87 0 012.333-5.47 1.403 1.403 0 01.945-.824.564.564 0 01-.151.418c-.484.785-.92 1.597-1.307 2.434-.805 1.854-1.459 3.755-2.077 5.679a2.12 2.12 0 00.817 2.457l.093-.278a24.129 24.129 0 012.042-5.68 1.946 1.946 0 011.249-1.158 15.906 15.906 0 00-1.039 1.703 32.81 32.81 0 00-1.983 5.715.566.566 0 000 .452c.338.544.688 1.066 1.026 1.6.21-.117.187-.267.222-.407.28-1.159.537-2.202.875-3.291a1.026 1.026 0 00-.105-1.16V84.6c.175 0 .245.267.502.163.33-1.088.776-2.137 1.33-3.13.128-.255.245-.44.548-.278.004.05.004.1 0 .15-.385.812-.746 1.635-1.166 2.458-.63 1.356-.56 2.005.396 2.828a4.635 4.635 0 011.622-2.388c-.109.417-.295.81-.548 1.16-.934 1.437-.84 2.491.303 3.477.572-.858.747-1.994 1.774-2.527a15.742 15.742 0 01-.969 2.051c-.583 1.078-.467 1.716.455 2.318.537-1.367.817-2.85 2.066-3.998.023.35-.076.698-.28.985a13.115 13.115 0 00-1.167 2.932c-.134.416-.123.864.032 1.272.155.408.443.752.82.977a22.635 22.635 0 011.96-4.636 1.013 1.013 0 01-.129.95 27.41 27.41 0 00-1.318 3.582c-.07.278-.28.556-.093.846.346.62.778 1.19 1.283 1.692a12.534 12.534 0 011.96-4.393.783.783 0 010 .788 26.455 26.455 0 00-1.342 3.477 1.014 1.014 0 00.257 1.298c.082.07.233.174.082.348-.292 0-.28-.544-.77-.44 0 .997-.91 1.935-.21 3.048-.105.197-.362-.081-.467.197.117.475-.502 1.02.105 1.542.438.372.902.713 1.389 1.02a21.381 21.381 0 012.59-8.82c.08.428.006.871-.21 1.251a23.174 23.174 0 00-1.855 6.827 1.52 1.52 0 00.581 1.696c.175.123.375.209.585.251.514-2.318.689-4.845 2.229-6.954a.864.864 0 010 .765 20.4 20.4 0 00-1.61 5.795 1.46 1.46 0 00.225 1.189 1.48 1.48 0 001.047.619 16.8 16.8 0 011.832-5.413.647.647 0 010 .765 18.788 18.788 0 00-1.319 4.637.827.827 0 00.42.915c.292.232.735.336.899.881-.56-.243-.91-.742-1.517-.591-.117 0-.21-.151-.245-.29-.152-.637-.782-.695-1.272-1.159 0 1.229 1.167 1.518 1.552 2.318-1.96-1.495-3.594-3.338-5.578-5.03.082.672 0 1.159.432 1.588a33.826 33.826 0 01-6.546-6.27c1.89 1.645 3.582 3.477 5.6 5.169a1.336 1.336 0 00-.396-1.159c-.35-.336-.922-.406-1.167-.765-.454-.604-.97-1.16-1.54-1.658-.583-.614-1.225-1.159-1.808-1.773-.175-.186-.49-.36-.245-.8.268.788 1.166.719 1.61 1.345.36.469.77.896 1.225 1.275.14.139.268.347.537.29.175-1.16.175-1.16-.724-1.635-.455-.278-.898-.58-1.342-.87-.105-.08-.198-.208-.361-.173-.42.093-.56-.07-.665-.498a.775.775 0 00-.747-.626c-.373 0-.058.405-.268.637a53.253 53.253 0 01-4.551-4.763c-.233.3.21.498 0 .764-.385 0-.444-.266-.455-.544a2.852 2.852 0 00-.724-1.808c-.198-.255-.571-.325-.641-.626a1.535 1.535 0 00-.747-1.229c-.595-.255-.082-.974-.607-1.159h-.07c-.245.127 0 .475-.292.626a1.223 1.223 0 01-.128-1.16 1.59 1.59 0 00-.525-1.483 1.334 1.334 0 01-.432-1.043 9.316 9.316 0 00-.828-2.318c-.245.591.07 1.16-.245 1.646-.595-1.229.21-2.608-.56-3.813-.187.382 0 .718-.222 1.066-.618-1.02 0-2.318-.63-3.257-.175.36 0 .719-.187 1.055a.984.984 0 01-.268-.835c0-1.252.093-2.492 0-3.755a6.693 6.693 0 01-.28-1.936c.155-1.044.241-2.097.257-3.152a16.86 16.86 0 01.151-2.319c.152-.822.432-1.634.607-2.457a4.7 4.7 0 011.167-1.993c.863-1.043 1.75-2.075 2.614-3.106.42-.487.828-.997 1.236-1.496-.59.14-1.13.437-1.563.858a13.075 13.075 0 00-3.256 4.486 21.6 21.6 0 00-1.692 12.61 41.903 41.903 0 002.007 7.117c.479 1.159 1.249 2.318 1.657 3.477a22.004 22.004 0 005.216 8.113c1.167 1.252 2.229 2.643 3.442 3.883.817.834 1.564 1.75 2.45 2.504 1.459 1.228 2.882 2.492 4.411 3.639a27.424 27.424 0 005.484 3.709c.327.139.607.359.922.116.268.116.175.452.455.545.838.248 1.65.574 2.427.973a1.148 1.148 0 000-.243c-.23-1.974.068-3.973.863-5.795.082-.232.175-.534.654-.534-.7 2.249-1.459 4.428-.922 6.804l2.334.556c-.094-.417.233-.591.291-.996a2.617 2.617 0 01-1.575-1.055c-.093-.104-.21-.197-.14-.359a.246.246 0 01.292-.128c.361 0 .361-.232.42-.44.233-.835.443-1.669.688-2.492.07-.244.129-.545.455-.615.199.105 0 .302.14.429.327 0 .35.197.269.475-.23.994-.518 1.973-.864 2.933-.198.51 0 .776.549.869a40.834 40.834 0 011.82-4.972c-.187 1.796-.887 3.477-1.249 5.215.432.383.665.198.875-.255.712-1.576 1.237-3.222 1.82-4.844.06-.139.082-.267.316-.209a26.274 26.274 0 01-1.645 5.274 5.187 5.187 0 001.528-.255.881.881 0 00.677-.649c.443-1.275.898-2.55 1.342-3.837.058-.174.07-.371.385-.417-.444 1.959-1.167 3.802-1.727 5.702.296-.034.587-.108.863-.22a14.74 14.74 0 002.777-1.553 91.657 91.657 0 003.069-1.773c.198-.116.35-.244.315-.51-.082-.87.502-1.565.63-2.388h.164c.245.51-.14 1.043.07 1.565.291-.197.28-.499.373-.742.175-.475.292-.985.502-1.437a9.7 9.7 0 00.618-5.795 21.589 21.589 0 00-4.947-10.432 50.143 50.143 0 00-4.492-4.636c-3.023-2.84-6.15-5.587-8.437-9.087a35.521 35.521 0 01-2.438-4.23c-1.237-2.574-2.17-5.298-3.99-7.57a18.537 18.537 0 00-3.968-3.476 30.927 30.927 0 01-2.894-1.808c-.361.08-.676.556-1.166.115.396-.556 1.166-.544 1.575-1.054-.689.243-1.482.185-2.136.718.222.163.479.302.304.603-.84.116-1.657-.603-2.532.116a8.271 8.271 0 01-1.109.533c-.268.14-.49.37-.886.232.21-.44.805-.371.98-.835-.864.163-1.482.777-2.334.986l.035-.024zm36.042 50.999a9.364 9.364 0 00-1.692 3.141 7.118 7.118 0 000 4.891c.315.719.759 1.368 1.097 2.086a20.211 20.211 0 005.367 7.128 34.324 34.324 0 004.668 3.478c1.621.927 3.337 1.68 5.005 2.538a40.841 40.841 0 0010.011 3.79 72.823 72.823 0 007.748 1.344c1.58.343 3.216.343 4.796 0 .248-.066.502-.109.758-.127a59.392 59.392 0 006.849-1.298 21.53 21.53 0 007.783-3.582 12.245 12.245 0 004.446-4.763c.186-.452.466-.418.793-.151.117-.151.222-.278.164-.406a1.344 1.344 0 01.186-1.159 5.074 5.074 0 00-.163-4.474 22.6 22.6 0 00-1.435-2.156 12.101 12.101 0 00-4.959-4.473 32.528 32.528 0 00-8.366-2.979c-2.777-.487-5.554-.951-8.367-1.159a19.11 19.11 0 01-6.3-1.704c-2.24-1.02-4.597-1.75-6.861-2.678-1.109-.452-2.334-.695-3.419-1.159a22.083 22.083 0 00-7.164-1.379 13.875 13.875 0 00-8.588 2.84 7.127 7.127 0 00-1.657 2.202c-.175.29-.338.522-.7.209zm95.959-2.087c.397-.475 1.062-.73 1.167-1.39a20.49 20.49 0 000-4.231c-.175-1.344-.583-2.631-.782-3.976 0-.173-.187-.428.117-.475.303-.046.303.197.35.394.117.626.21 1.264.35 1.901a15.65 15.65 0 01.49 4.88c-.062.318-.004.648.163.927.339-.452.642-.881.969-1.287.2-.24.304-.545.291-.857a34.02 34.02 0 00-.571-6.433.82.82 0 01.256-.985c.494 2.287.76 4.616.794 6.954.581-.64.926-1.457.98-2.318 0-1.855-.175-3.72-.315-5.575 0-.209-.117-.464.152-.626.338.128.291.406.303.65.093 1.332.175 2.653.245 3.986 0 .383 0 .788.525.881a11.013 11.013 0 00-.56 3.083c-.257 1.658-.432 2.701-.922 3.014a10.68 10.68 0 00.432-3.222 3.46 3.46 0 00-1.038 2.318c-.032.779-.13 1.555-.292 2.318-.128.695-.304 1.379-.479 2.109a.898.898 0 00.49-.429c.712-1.02 1.459-2.039 2.101-3.129.093-.162.186-.487.443-.325.257.163 0 .395-.081.557a24.105 24.105 0 01-1.926 2.816 50.676 50.676 0 01-4.189 4.637c-.233.231-.408.197-.525-.163a30.213 30.213 0 01-3.5 3.663c-.234-.325 0-.475.117-.614.116-.14.665-.568.968-.858a4.44 4.44 0 001.739-2.631c0-.371.151-.73.221-1.101.14-.73.257-1.461.385-2.191-.7.522-1.377.962-1.377 1.936a7.225 7.225 0 01-.385 1.901 4.265 4.265 0 01-.956 1.773c.233-1.356.606-2.677.758-4.173-.397.348-.677.626-.992.858a2.02 2.02 0 00-.852 1.391 20.338 20.338 0 01-.665 2.921 5.272 5.272 0 00-.583 1.773c0 .823-.537 1.159-1.039 1.495a6.622 6.622 0 00-1.983 2.643c-.058.104-.175.232 0 .382l.653-.486a71.006 71.006 0 006.885-5.912 46.727 46.727 0 004.854-5.795 42.161 42.161 0 004.375-7.256 28.864 28.864 0 001.995-6.502 10.46 10.46 0 00-.35-6.7 18.501 18.501 0 00-1.167-2.143 9.816 9.816 0 00-3.978-3.663 13.622 13.622 0 00-3.501-1.09 13.787 13.787 0 00-6.266-.22c-.151 0-.431 0-.35.232.082.232-.14.301-.291.36a41.92 41.92 0 00-5.123 1.947c-.361.174-.735 0-1.05.243a14.633 14.633 0 00-3.874 4.277c-.84 1.425-1.528 2.92-2.333 4.335-.327.544-.584 1.159-.899 1.704a.496.496 0 00.467-.163 11.72 11.72 0 012.474-1.889c1.365-.765 1.587-2.318 2.438-3.35-1.598.765-2.228 2.434-3.419 3.651a.766.766 0 01.141-.73c.189-.25.32-.54.385-.846a1.437 1.437 0 01.548-1.008 25.68 25.68 0 001.855-2.19c-.175-.152-.35.115-.467-.082.082-.429.071-.429.292-.591a48.595 48.595 0 014.901-3.06 15.128 15.128 0 014.329-1.565 2.35 2.35 0 011.038 0 3.3 3.3 0 01-.502.22 8.075 8.075 0 00-2.427.742c-1.75.823-3.698 1.403-4.667 3.361-.07.128-.21.22-.14.418a16.543 16.543 0 012.17-.742 17.574 17.574 0 00-2.882 1.657 10.218 10.218 0 00-1.901 2.921 9.853 9.853 0 012.438-.997.368.368 0 01-.268.337c-.49.243-.98.51-1.482.73a4.884 4.884 0 00-2.334 2.19 4.345 4.345 0 01-1.167 1.53c.152-.88.887-1.321 1.167-2.202-.7.522-1.295.927-1.855 1.368a20.16 20.16 0 00-4.201 5.111 19.064 19.064 0 01-3.873 4.092c-1.739 1.46-3.501 2.851-5.134 4.485a5.525 5.525 0 00-1.167 1.936.335.335 0 00.163.429c.432-.51.689-1.159 1.389-1.484a16.594 16.594 0 00-2.882 10.582 10.457 10.457 0 01.338-6.235c-.105 0-.163 0-.175.069l-.14.325a14.461 14.461 0 00-1.26 5.041 11.775 11.775 0 001.633 6.572c.5.81 1.243 1.442 2.124 1.808a11.947 11.947 0 005.414 1.264 19.213 19.213 0 006.779-1.159c-.233-.394.175-.719.199-1.229-1.354.742-2.859.904-4.073 1.797-.105-.128-.116-.406-.431-.336-.817.208-1.669.255-2.497.405-.829.151-.712.197-.607-.568.467 0 .7-.336.922-.707a36.425 36.425 0 001.948-4.022.764.764 0 000-.278c-.466.325-1.061.336-1.272.939a20.62 20.62 0 01-1.353 2.805 2.702 2.702 0 01-.758.974c-.152.115-.315.197-.456-.093a15.91 15.91 0 002.101-3.64c-.245-.162-.432.105-.712-.139 1.248-.243 1.167-1.391 1.68-2.26.315.522-.14.951 0 1.495.42-.382 1.039-.359 1.237-.915.198-.557.467-1.333.688-1.994 0-.185.082-.394.374-.406.07.765-.397 1.438-.455 2.226.56-.162.56-.591.642-.927.394-1.658.621-3.351.676-5.054a.885.885 0 01.432-.834 26.66 26.66 0 01-.653 6.05c.571-.151.886-.371.898-.927 0-.823.128-1.646.198-2.469a.862.862 0 01.572-.742 26.044 26.044 0 01-.128 3.477c.376-.245.766-.469 1.167-.672a1.445 1.445 0 00.863-1.495v-2.585c0-.197 0-.452.222-.475.221-.023.233.243.245.429v3.21c.478-.266.828-.475 1.167-.66a.9.9 0 00.536-.893v-2.642-1.299c0-.139.059-.278.234-.278.175 0 .245.116.233.267 0 1.321.21 2.642 0 3.975a5.774 5.774 0 00-.14 1.866c.607-.22.945-.707 1.435-.938a.99.99 0 00.56-.893 29.768 29.768 0 000-3.825c0-.174 0-.371.222-.371s.245.163.245.336a19.327 19.327 0 010 3.281.723.723 0 00.07.649c.723-.371 1.354-.696 1.377-1.727v-3.93c0-.197 0-.428.245-.452.245-.023.28.221.28.418 0 1.159.105 2.225 0 3.349 0 .348 0 .707-.07 1.09a.548.548 0 00.548-.568c0-.51.07-1.02.14-1.518 0-.313 0-.673.49-.87.175.765-.198 1.495 0 2.318.432-.266.829-.498 1.167-.765a1.28 1.28 0 00.595-1.008c.152-1.285.222-2.578.21-3.871 0-.209 0-.487.28-.475.28.011.257.255.245.44a20.532 20.532 0 01-.163 3.164c-.075.242-.075.5 0 .742.817-.267 1.05-.545 1.167-1.298a8.943 8.943 0 000-1.762c0-.487 0-.985-.082-1.472 0-.139 0-.301.187-.324.187-.024.28.127.292.301.011.174 0 .278 0 .417.132.964.183 1.937.151 2.909.91-.428.992-.556 1.062-1.414.099-.997.122-2.001.07-3.002 0-.162-.058-.394.21-.405.269-.012.28.185.28.371v1.877a5.044 5.044 0 000 1.322 3.005 3.005 0 001.466-1.357c.319-.605.419-1.3.284-1.97a2.8 2.8 0 010-.765c0-.116 0-.29.234-.313.396.742 0 1.6.21 2.318a2.193 2.193 0 001.077-1.047c.224-.465.277-.992.148-1.491a4.323 4.323 0 010-.881c0-.139 0-.324.222-.382.431.394.081.962.338 1.449a23.974 23.974 0 00-.21-5.576h.327c.381 1.798.541 3.635.478 5.471v.023zM45.618 50.268l.339-.127a15.598 15.598 0 006.546-5.935c1.097-1.576 2.007-3.28 3.255-4.752.397-.475.14-.892.187-1.344a2.545 2.545 0 00-1.167 2.04c-.35-.255-.513-.151-.688.127-.677 1.043-1.786 1.774-2.136 3.048 0 0 0 .093-.07.093-.7 0-.945.696-1.481.962-.152.07-.292.22-.479 0 .07-.348.373-.486.584-.707.548-.568 1.318-1.02 1.365-1.912a17.201 17.201 0 00-.187-3.628c0-.14 0-.325-.187-.417-.362.255-.64.612-.798 1.025a2.21 2.21 0 00-.088 1.293c.19.82.288 1.66.291 2.503 0 .209.094.43-.245.626a20.893 20.893 0 00-.572-3.477c-.315.406-.7.66-.618 1.16.268 1.54.07 3.117.245 4.635a.542.542 0 01-.198.406 34.549 34.549 0 01-1.645 1.565 6.992 6.992 0 01-1.657 1.24c-.712.313-.665.846-.595 1.553v.023zm93.346 76.173c.123-.02.244-.051.362-.093a37.182 37.182 0 006.487-3.477c1.085-.73 2.334-1.286 2.836-2.7.07-.244.303-.429.256-.742a7.048 7.048 0 00-2.567 2.133c-.081-.302.234-.406.14-.65-.548-.081-.84.244-1.097.661.164-1.46.806-2.793 1.097-4.254-.443.232-.466.232-.583.649a20.842 20.842 0 01-1.61 4.162c-.094.173-.129.405-.514.463a21.67 21.67 0 001.552-4.451c-.467.325-1.097.464-1.295 1.032a32.786 32.786 0 01-1.435 3.732c-.105.232.175.475-.094.638-.513.312-.723.869-1.085 1.298-.081.104-.186.22-.326.116-.14-.105.233-.36.093-.626-.957.347-1.949.753-2.159 2.086l-.058.023zm22.006-23.656c-.677.869-1.435 1.495-1.552 2.538a13.84 13.84 0 01-.98 3.605c-.058.162-.082.406-.432.359.52-1.295.851-2.657.981-4.045a2.584 2.584 0 00-1.167 1.924 15.607 15.607 0 01-.607 2.979c0 .093-.082.255-.117.255-.676 0-.42.533-.56.846.374.081.42-.301.595-.336.175-.035.059.243.152.243 2.917-2.051 3.71-4.972 3.745-8.391l-.058.023zM69.13 2.145c.397 0 .537-.603.957-.21.42.395.116.708.268 1.055.257-.08.222-.486.56-.37.338.115.21.405.234.637.023.232-.059.325.151.417.14-.212.206-.465.187-.718a.3.3 0 01.245-.29c.128 0 .28 0 .303.116a3.478 3.478 0 001.062 1.472c-.525.232-.852 0-1.167-.244a3.84 3.84 0 00-.28.592c-.07.255-.373.278-.466.498.735.834 1.003.927 1.563.348a1.261 1.261 0 011.435-.36c.28.082.584.116.864.174.28.058.501.14.618-.15.117-.29.397-.661.093-.986a2.17 2.17 0 00-1.166-.823 26.83 26.83 0 01-2.964-.973c-.175 0-.397-.104-.385-.302 0-.544-.35-.637-.724-.764a.863.863 0 01-.525-.371c-.116-.22-.233-.44-.525-.244-.291.197-.641.29-.455.707.187.417-.058.383-.163.568a1.154 1.154 0 00.77 1.646c-.245-.394-.362-.88-.49-1.426zM37.848 51.16a5.54 5.54 0 002.532-.464c.77-.267.77-.243.431-.997-.21 0-.513.209-.642-.22 1.039-.429.456-1.275.584-1.982-.432 0-.642.29-.934.336-.291.047-.501.36-.443.742.044.704.185 1.398.42 2.063-.128.116-.245.14-.315.07-.642-.684-.245-1.635-.583-2.434l-1.167.37c-.245.082-.303.232-.292.487.096.684.232 1.361.409 2.029zm101.408 69.172c-1.167.429-2.252.788-2.264 2.202-.027.132-.07.261-.128.383a25.41 25.41 0 01-1.085 2.978c.571-.255 1.166-.208 1.446-.683a17.684 17.684 0 002.031-4.88zm.688 4.057c.794-.383 1.622-.406 1.995-1.02a11.452 11.452 0 001.494-3.93c-.817.708-2.182.754-2.415 2.122a1.595 1.595 0 01-.152.382l-.922 2.446zm7.888-4.915c.852-.475 1.75-.869 2.018-1.912.105-.406.28-.777.397-1.159.428-1.239.733-2.516.91-3.814-.957.418-1.295.87-1.237 1.565.257 0 .35-.371.654-.243 0 .29-.304.371-.479.51a1.628 1.628 0 00-.583.776 25.573 25.573 0 01-1.248 3.292c-.152.325-.292.661-.432.985zM38.151 98.937c.233-.939.455-1.843.665-2.747a.288.288 0 000-.174 8.262 8.262 0 00-1.283-1.68c-.252.499-.436 1.029-.549 1.576-.618 1.703-.467 2.132.91 2.944l.257.08zm96.029-76.324a1.732 1.732 0 01-.968-.232c-.105 0-.234-.116-.327 0a6.982 6.982 0 00-2.089 1.936c-.362.695-.583 1.437-.98 2.121a4.649 4.649 0 01-1.598 1.924c.268.209.431.348.665.174.233-.174.326-.29.571-.14.245.152-.093.407.07.615.339.07.28-.139.245-.37a2.42 2.42 0 01.549-2.319c.411-.363.801-.75 1.167-1.159.351-.54.741-1.056 1.166-1.541.631-.545.677-.568 1.261-.058a.85.85 0 00.326-.95h-.058zM33.239 93.582c.051-.09.098-.183.14-.278.246-1.13.57-2.241.968-3.327a.483.483 0 000-.336c-.292-.521-.607-1.031-.968-1.634-.42 1.09-.584 2.121-.934 3.106-.35.985.129 1.75.794 2.469zm2.975 4.068c.28-1.159.443-2.12.77-3.071.327-.95-.373-1.565-.828-2.318-.105.092-.164.127-.175.174a26.133 26.133 0 00-.759 3.407.771.771 0 00.164.615l.828 1.193zm-1.377-1.982c.115-1.081.338-2.149.665-3.187.339-.95-.198-1.484-.735-2.19a28.394 28.394 0 00-1.097 3.766.344.344 0 00.07.278c.316.497.684.96 1.097 1.38v-.047zm-2.649-9.701a34.002 34.002 0 00-1.05 3.767 1.636 1.636 0 00.84 1.75c.228-1.326.576-2.63 1.039-3.894a.425.425 0 000-.394c-.268-.325-.514-.707-.829-1.183v-.046zm9.662-35.536a.527.527 0 00.572 0c.828-.464 1.633-.95 2.45-1.426a.361.361 0 00.21-.336c.003-.56-.04-1.117-.129-1.67-.326 0-.466.244-.676.383-.7.487-1.377.95-.945 1.97a.218.218 0 01-.117.27.222.222 0 01-.105.02c-.152 0-.175-.116-.198-.243-.024-.127 0-.545-.199-.765-.361.093-.595.383-.922.522-.595.243-.536.614-.268 1.054.443 0 .758-.498 1.295-.336-.268.36-.723.313-.968.603v-.046zm107.02 64.906a6.647 6.647 0 01-.875.673 2.22 2.22 0 00-1.062 1.472c-.21.788-.501 1.564-.746 2.318-.124.24-.184.507-.175.776a1.964 1.964 0 001.516-1.46 21.013 21.013 0 001.342-3.709v-.07zM46.19 45.794a1.913 1.913 0 00-.618 2.527 3.426 3.426 0 001.9-1.492c.43-.71.584-1.552.434-2.368-.584.452-1.33.719-1.319 1.588-.21.116-.187-.104-.35-.174l-.047-.08zm87.757 80.241c1.166 0 1.236.001 1.622-.973.174-.377.326-.764.455-1.159.322-.814.583-1.651.781-2.504a1.004 1.004 0 00-1.166.904 16.163 16.163 0 01-.887 2.318c-.285.482-.538.982-.759 1.496l-.046-.082zm18.82-14.835l-.163-.058c-.257.359-.828.405-.91.985a21.088 21.088 0 01-.98 3.86c-.175.521-.327 1.043-.537 1.703a2.925 2.925 0 001.447-1.727c.222-.869.513-1.727.723-2.596.21-.869.327-1.368.467-2.086l-.047-.081zm-11.971 9.643c-.263.095-.538.15-.817.162-.478-.081-.607.186-.723.557-.25.794-.558 1.569-.922 2.318a4.885 4.885 0 00-.56 1.228c.63-.394 1.423-.278 1.715-.95.513-.951.887-2.04 1.354-3.234l-.047-.081zM22.947 81.053c.14-.07.129-.22.152-.36.102-.852.293-1.69.572-2.503.303-.962-.327-1.576-.689-2.318-.466 1.82-1.155 3.535-.023 5.262l-.012-.081zm23.768-36.151c1.307-.51 1.552-1.032 1.167-2.168-.175-.116-.268.255-.49 0 .735-.904.082-1.61-.315-2.457-.28.313-.595.499-.548.846.159 1.253.221 2.516.186 3.779zM27.008 88.679s.093-.058.093-.093c.152-.707.292-1.413.455-2.109a1.74 1.74 0 00-.095-1.126 1.755 1.755 0 00-.768-.833c-.152.43-.21.881-.35 1.298a2.19 2.19 0 00.665 2.863zm1.458 1.808a3.125 3.125 0 00-.443-3.952c-.233.58-.222 1.159-.432 1.762-.385 1.02.21 1.6.875 2.19zm17.246-47.579c.583-.382.607-.568.303-1.159a3.457 3.457 0 00-.583 4.126c.863-.359.933-.498.852-1.344a7.898 7.898 0 010-1.055c-.024-.278-.024-.556-.572-.568zm3.302-1.727c-.338.44-.7.696-.665 1.16a13.017 13.017 0 010 3.477c0 .115-.082.266.07.359.735-.348.782-.406.828-1.16a18.35 18.35 0 00-.233-3.836zm83.602 85.167c.631.197.911-.127 1.086-.579a12.377 12.377 0 001.528-4.462c0-.151.269-.116.28-.395a1.08 1.08 0 00-.77.789c-.245.707-.537 1.391-.828 2.074-.374.87-.841 1.704-1.296 2.573zM23.881 79.499c-.735 1.693-.665 3.536.186 4.254.089-.619.221-1.23.397-1.831a2.108 2.108 0 00-.583-2.422zm42.764-52.922a3.593 3.593 0 00.98-3.93c-1.039 1.206-1.225 1.948-.98 3.93zM29.458 88.702a2.571 2.571 0 00.595 3.535 2.674 2.674 0 00-.595-3.535zm23.768-48.228c.567-.375.991-.929 1.203-1.572.211-.644.199-1.339-.036-1.974-.432.463-1.062.81-1.167 1.379-.05.721-.058 1.445-.023 2.167h.023zm8.495-15.612c-1.482.776-1.739 1.356-1.167 2.55.36-.19.684-.441.957-.742.711-.591.735-.974.186-1.808h.024zM52.293 41.54h.221c.4-1.708.444-3.48.129-5.205-.467.395-.7.707-.572 1.24.162.704.236 1.424.222 2.145-.035.614-.024 1.217-.024 1.82h.024zm-11.015 7.302c1.389-.406 1.704-.986 1.33-2.319-1.225.128-1.657.858-1.353 2.319h.023zM25.853 82.919c-.222 1.02-.397 1.924-.642 2.793-.163.556.14.835.478 1.16.17-.803.38-1.596.63-2.377.234-.603.012-1.02-.49-1.576h.024zM53.96 34.575a2.305 2.305 0 00-.653 2.99c1.19-1.31 1.307-1.936.653-2.99zM24.686 85.469a.28.28 0 00.175-.244c.21-.857.408-1.704.618-2.55a.99.99 0 00-.525-1.159c-.186.962-.338 1.924-.583 2.863a1.035 1.035 0 00.315 1.09zm119.319 31.677c-.946.822-2.276 1.066-2.276 2.549a2.742 2.742 0 001.578-.864 2.716 2.716 0 00.698-1.651v-.034zM28.49 35.189c.373-.209.268-.603.548-.626.28-.023.444-.313.537-.591.385-1.16.922-2.318 1.423-3.477a5.773 5.773 0 00.654-1.646 40.12 40.12 0 00-3.15 6.375l-.012-.035zm21.97 3.141c1.168-1.032 1.238-1.611.514-2.735-1.015.66-1.166 1.46-.513 2.735zm9.335-11.973c-1.365.88-1.587 1.657-.77 2.446 1.12-.835 1.179-1.032.77-2.446zM22.014 73.762a4.954 4.954 0 000 3.86c.116-.59.272-1.17.467-1.739.35-.846-.129-1.356-.467-2.12zm26.323-35.084c-.338.463-.898.788-.817 1.275.091.529.298 1.031.607 1.472.887-.73.934-1.24.21-2.747zM31.465 93.71a2.017 2.017 0 00-.572-2.678c-.595 1.565-.513 1.936.572 2.678zm110.323 23.181c-.518.08-.986.354-1.307.766a2.028 2.028 0 00-.42 1.447c1.307-.417 1.832-1.089 1.727-2.179v-.034zm-2.217 1.356c-.525.324-.969.626-1.447.881a1.155 1.155 0 00-.56 1.275c1.575-.29 2.007-.789 2.007-2.122v-.034zM57.228 35.884a2.673 2.673 0 00.794-3.037.989.989 0 00-.549 1.01c0 .37 0 .694-.501.787.163.43.046.858.256 1.24zm-1.493-3.906c.245-.486-.245-.904 0-1.298.408 0 .385.452.63.603.595-.417.63-.95.152-1.947-1.214.695-1.494 1.553-.782 2.642zm-.829 3.628c.91-.707.992-1.228.397-2.468-.91.567-1.027 1.263-.397 2.491v-.023zm.84-.08c-1.166.648-.758 1.68-.746 2.676a1.958 1.958 0 00.938-1.183 1.936 1.936 0 00-.192-1.494zm-2.333-2.922a1.493 1.493 0 00-.825 1.081 1.474 1.474 0 00.405 1.295c.968-.927 1.05-1.147.443-2.376h-.023zM37.87 100.757c0-.499.315-.928.198-1.45-.256 0-.093.279-.338.256-.245-.023-.619-.684-1.097-.858-.303 1.055-.023 1.53 1.26 2.052h-.023zm11.668-63.505c-.805.719-.863 1.495-.222 2.585.794-.673.852-1.252.234-2.585h-.012zm1.435 72.615a14.838 14.838 0 002.906-.29c.536-.093.735-.417.851-.95a7.98 7.98 0 01-1.622.301c.327.22.7-.081 1.05.232a3.975 3.975 0 01-2.193.104c-.525-.127-.793.023-.98.603h-.012zm3.349-76.498c1.027-.811 1.097-1.252.397-2.248-.934.8-.992 1.124-.385 2.26l-.012-.012zm70.009 77.657a9.138 9.138 0 00-1.634 4.555c.607-1.437 1.109-2.967 1.634-4.497v-.058zM24.044 76.799c.642-1.066-.292-1.843-.373-2.851a2.225 2.225 0 00.373 2.909v-.058zm-1.295-5.424a2.444 2.444 0 00.14 2.793c.653-.893.233-1.75-.14-2.736v-.057zm29.1-35.05c.7-.51.77-1.264.245-2.202-.805.556-.863 1.054-.245 2.26v-.058zM21.36 71.56c-.291.892-.886 1.773-.058 2.724a2.928 2.928 0 00.058-2.724zm.876-2.422a2.033 2.033 0 00-.164 2.48 2.734 2.734 0 00.164-2.376v-.104zm109.739-41.889a16.44 16.44 0 00.583-2.862c-.385.324-.933.822-.817 1.066.28.637.094 1.194.234 1.843v-.046zm7.736 93.327c1.167-.243 1.552-.428 1.552-1.495-1.144.51-1.459.8-1.552 1.542v-.047zm7.864-4.844c.607-.545 1.727-.58 1.692-1.739-.618.568-1.622.73-1.692 1.785v-.046zm12.123-35.34c1.015.638 1.459.475 1.681-.591a1.951 1.951 0 00-1.681.637v-.046zm-36.323 43.928c-.396-.614 0-1.402-.513-2.005l-.689.417c.374.614.537 1.287 1.202 1.634v-.046zM57.894 30.495c-.63.301-.712.857-.269 1.878.548-.22.642-.974.269-1.832v-.046zm-.526-.197c.572-.406.572-1.067 0-1.901-.443.417-.466 1.008 0 1.947v-.046zM34.218 53.13a2.348 2.348 0 00-1.376.147 2.33 2.33 0 00-1.05.896 5.748 5.748 0 002.427-1.043zm-1.785 41.61l.584-.753c-.292-.302-.432-.696-.852-.916-.128.568-.443 1.147.269 1.67zm1.167.186c-.268.869 0 1.228 1.167 1.761a9.333 9.333 0 00-1.143-1.808l-.024.047zM145.743 116.6c-.49.394-1.353.475-1.237 1.402.467-.452 1.331-.544 1.26-1.449l-.023.047zm-88.76-85.144c-.595.313-.571 1.159 0 1.9.327-.648-.011-1.205 0-1.9zm74.222-5.1c-.77.719-1.004 1.426-.689 1.994a6.31 6.31 0 00.689-1.994zM56.447 36.615c.408-.302.361-1.299-.059-2.029-.315.73.152 1.356.059 2.017v.012zm79.635 84.344c.898-.093 1.027-.244.828-.951-.361.232-.851.313-.828.939v.012zm-79.845-86.93a2.374 2.374 0 00-.304-1.68c-.09.597.04 1.205.362 1.716l-.058-.035zM31.453 95.09a1.339 1.339 0 00-.292-.865 1.354 1.354 0 00-.781-.48c.26.517.626.975 1.073 1.345zm100.09-66.31c-.315-.382-.175-.834-.327-1.332l-.408 1.472a.926.926 0 00.735-.14zM36.646 52.575c.735.347 1.423-.116 2.158-.105a5.427 5.427 0 00-2.158.105zm5.134 52.157c-.105-.719-.759-.823-1.167-1.159.285.468.687.855 1.167 1.124v.035zM29.073 92.064l-.198.162 1.027 1.159.128-.104c-.117-.58-.572-.858-.957-1.252v.035zm-1.085-49.19a3.227 3.227 0 00.35 1.715 2.651 2.651 0 00-.35-1.75v.035zm-.863 40.81l-.164.092.817 1.415.175-.093c-.187-.545-.642-.904-.828-1.414zm119.178 33.079a.869.869 0 00.642-.939c-.525.058-.572.418-.642.939zm-84.01-10.872c-.397.278-.677.487-1.016.742.852-.058.852-.058.992-.788l.023.046zm-4.038-76.497h.152a2.031 2.031 0 00-.443-1.252c.081.325.175.753.268 1.182l.023.07zm10.058-5.228a.692.692 0 000 .684c.269-.336.584-.533-.023-.753l.023.07zm54.211 96.897a.532.532 0 00.116.696.539.539 0 00.097-.413.528.528 0 00-.237-.352l.024.069zM32.515 52.795c-.21-.162-.361-.313-.653-.22.023.44.303.232.63.15l.023.07zm-6.172 29.73c0 .266.07.51.373.59a7.638 7.638 0 00-.397-.66l.024.07zM144.4 87.787c.234-.163.467-.244.432-.568-.303.035-.443.185-.432.568zm-82.844 19.379c-.408 0-.42.162-.408.452a.488.488 0 00.42-.463l-.012.011zm6.29-104.674a.222.222 0 00-.176.209.173.173 0 00.175.174.176.176 0 00.175-.174.196.196 0 00-.163-.22l-.012.011zm53.346 121.225c.1-.226.125-.477.07-.718-.046.232-.221.371-.07.718zM32.959 94.741c-.245.29-.245.29 0 .475a.496.496 0 000-.475zm24.62-67.746c-.082.22-.059.382.175.486a.36.36 0 00-.129-.51l-.047.023zM25.63 81.47c-.058-.232-.058-.371-.245-.429.047.07.105.174.292.36l-.047.069zm102.68-52.273c-.058 0-.093-.105-.14-.105h-.128s0 .14.116.14c.117 0 .082-.07.14-.105l.012.07zm-8.705 97.777a.735.735 0 00-.093-.092s-.07 0-.07.069c0 .07 0 .07.07.116l.093-.093zM56.948 34.123h.082a.245.245 0 000-.07l-.082.07z"/><path d="M44.533 75.245a21.263 21.263 0 011.995 2.446 76.464 76.464 0 003.91 5.135h.163a23.782 23.782 0 00-1.015-3.651c.163-.186.303 0 .443 0-.082.185 0 .336.093.498.337.88.575 1.793.712 2.724.022.486.153.962.385 1.39.49.696 1.038 1.345 1.61 2.075.01-.1.01-.2 0-.301-.175-1.356-.478-2.69-.735-4.034a4.309 4.309 0 00-1.773-2.746c.198.625.863 1.008.991 1.796-.676-.325-.805-1.043-1.306-1.39-.934-1.368-2.042-2.586-3.057-3.884a10.813 10.813 0 01-1.027-1.448c.805.208 1.085.962 1.587 1.471.501.51.98 1.16 1.505 1.74a29.44 29.44 0 00-2.03-2.887c.454-.197.595.127.735.313.863 1.159 1.691 2.26 2.578 3.361.362.452.619 1.067 1.307 1.16 0 0 .07 0 .082.08.746 1.484 2.275 2.168 3.395 3.28l1.564 1.519a.544.544 0 01.198.626 30.912 30.912 0 00-4.516-3.686c.7 2.075.56 4.312 1.26 6.49-.84-.857-1.295-1.97-2.17-2.723-.315.313.222.66-.21 1.008a12.499 12.499 0 00-.373-1.634 4.812 4.812 0 00-.945-1.321c-.199 0-.152.243-.397.139-1.295-1.831-2.707-3.663-3.92-5.633a5.784 5.784 0 01-1.027-1.89l-.012-.023zM43.04 68.292c-2.811-3.837-4.923-8.195-8.657-11.394.291-.266.478 0 .665.104a13.5 13.5 0 013.349 3.686c1.096 1.658 2.205 3.292 3.278 4.961.56.823 1.019 1.71 1.366 2.643zM59.795 88.494c.564.35.98.895 1.167 1.53a10.025 10.025 0 012.625 5.012 9.988 9.988 0 01-.513 5.628c-.14-.406 0-.858-.292-1.31.373.081.502-.07.537-.382a10.179 10.179 0 00-1.47-7.082 22.57 22.57 0 00-1.774-2.585c-.14-.162-.14-.464-.28-.811z"/><path d="M61.219 94.069c-.058 0-.128 0-.152-.082a36.582 36.582 0 00-4.749-7.545V86.2c.374-.116.502.185.666.359a16.54 16.54 0 013.313 5.042c.257.568.56 1.159.817 1.692.058.29.257.464.105.777zM56.295 108.244a9.413 9.413 0 001.4-2.689c.222-.545.642-.614 1.027-.162.198-.105.163-.336.28-.499.117-.162.093-.394.35-.417a2.074 2.074 0 01-.42 1.692c-.257.174-.409 0-.502-.208a3.63 3.63 0 01-.163-.591c-.595 1.054-.724 2.225-1.61 2.967-.07.081-.21.058-.362-.093zM53.273 82.467a20.293 20.293 0 011.4 6.803c-.513-2.26-1.015-4.52-1.4-6.803zM47.288 102.008c-.094 1.646-.899 3.211-.56 4.926-.304.151-.537 0-.56-.266a8.604 8.604 0 011.12-4.66zM55.467 84.588c.464 2.03.69 4.107.677 6.19-.327-2.052-.479-4.15-.677-6.19zM58.874 92.504a8.06 8.06 0 01-.093 3.593c-.056-1.198-.025-2.4.093-3.593zM57.053 93.906c-.116-1.228-.21-2.318-.315-3.477a5.54 5.54 0 01.315 3.477zM44.545 75.234l-.059-.07c.094 0 .059 0 0 .082l.059-.012zM144.972 42.247a1.14 1.14 0 010 .928 34.881 34.881 0 00-.7 3.477.983.983 0 00.175.765c.304.417.572.869.922 1.379.304-.87.163-1.739.747-2.4a26.853 26.853 0 00-.222 3.026 9.89 9.89 0 001.435 2.782c.161-.754.432-1.48.806-2.156.245.533 0 .973-.094 1.414a5.772 5.772 0 00-.187 2.132c0 .267-.233.337-.291.592a2.418 2.418 0 00.84 2.318 7.482 7.482 0 00.537-2.121c.186-.928.548-1.797.805-2.701.07-.232.198-.44.583-.313-.1.59-.261 1.169-.478 1.727-.444 1.298-.642 2.666-.992 3.987a.684.684 0 000 .406c.268.533.56 1.043.922 1.727l.466-1.855c.269-1.043.537-2.086.817-3.129.117-.406.339-.707.864-.464a39.188 39.188 0 00-1.751 6.108c-.163.65.397 1.16.502 1.762.22-.409.37-.851.444-1.31.215-1.013.496-2.012.84-2.99.128-.301.28-.614.793-.568a25.287 25.287 0 00-1.015 3.153c-.17.942-.404 1.871-.7 2.782a.675.675 0 000 .452c.257.945.428 1.91.513 2.886a.677.677 0 01-.186.637 19.127 19.127 0 00-.549-2.434 20.928 20.928 0 00-.327 6.05c-.466-.29-.396-.73-.466-1.159a5.058 5.058 0 00-.257-1.078c-.805-2.005-1.167-4.16-1.96-6.154a59.11 59.11 0 00-3.139-6.386c-.14-.255-.233-.603-.642-.603-.07 0-.163-.128-.186-.209-.525-1.89-2.042-3.118-3.057-4.636-.351 0-.14.348-.42.336-.281-.011-.257-.406-.292-.649a2.31 2.31 0 00-.77-1.611c-1.575-1.16-1.377-2.793-1.365-4.358 0-1.032-.724-1.46-1.261-2.11a15.106 15.106 0 00.129 4.382c-.444-.093-.42-.394-.467-.615a14.603 14.603 0 01-.187-3.627 2.94 2.94 0 00-.735-2.225c-.081-.094-.21-.186-.128-.36.373 0 .443.417.863.51 0-.881.059-1.75.094-2.62 0-.347 0-.707.081-1.054.082-.348.105-.406.362-.371.257.035.175.266.175.428-.07 1.368-.152 2.747-.21 4.115 0 .939.735 1.391 1.295 2.214.339-2.156.374-4.196 1.505-6.027a.698.698 0 010 .776 20.888 20.888 0 00-1.015 5.286 1.14 1.14 0 00.033.492c.046.16.126.309.236.435.361.417.711.858 1.166 1.414a25.527 25.527 0 011.961-8.113.474.474 0 01.14.649 33.688 33.688 0 00-1.167 4.404c-.07.417-.105.742.28 1.043.385.302.502.835.992 1.16.455-1.681.583-3.42 1.762-4.95.047.404-.044.812-.257 1.16a24.708 24.708 0 00-1.167 4.067.318.318 0 00-.036.145c0 .05.013.1.036.145a7.812 7.812 0 001.354 1.704 12.044 12.044 0 011.201-3.999zm2.089 16.424c0 .58.35.962.665 1.495a2.222 2.222 0 00-.42-2.41c-.117.255 0 .498 0 .741 0 .244 0 .383-.268.174a7.17 7.17 0 01-.187-1.727 4.394 4.394 0 00-.968-2.098 3.156 3.156 0 00-.07 1.043 5.656 5.656 0 001.283 2.782h-.035zm-6.686-12.61a3.907 3.907 0 001.365 4.416 11.427 11.427 0 01-.116-1.982c.116-1.148-.77-1.635-1.249-2.434zm8.343 12.25a5.682 5.682 0 00.338 5.043c.14-.881.21-1.704.409-2.515.245-1.032-.362-1.716-.747-2.562v.035zm-5.297-8.82h.151c.153-.763.18-1.546.082-2.318a4.553 4.553 0 00-1.319-1.831c-.081.88-.455 1.646-.198 2.318.35.65.781 1.254 1.284 1.797v.034zm.781-1.483a3.978 3.978 0 001.167 4.358c.164-2.457-.046-3.257-1.167-4.393v.035zm-2.52-1.055a5.373 5.373 0 00.14-2.318c-.233-.603-.782-1.078-1.167-1.739a3.203 3.203 0 00-.225 2.197 3.22 3.22 0 001.252 1.825v.035zm-3.209-2.956a4.097 4.097 0 001.167 3.883 3.31 3.31 0 00.09-2.157 3.336 3.336 0 00-1.257-1.76v.035zm11.505 22.567c.175-1.251.397-2.492.49-3.743a2.4 2.4 0 00-.56-1.554c-.362 1.843-.968 3.535.07 5.262v.035zm-4.177-15.937c.175 1.264-.385 2.446.327 3.535.256 0 .198-.336.478-.29.28.047.105.476.397.545.513-1.031.046-2.561-1.202-3.825v.035zm-3.676-2.098c-.198 1.855.432 3.686 1.366 4.103a4.29 4.29 0 00-1.366-4.137v.034zm1.937 2.863a4.83 4.83 0 001.424 4.323c.362-1.738-.514-2.967-1.424-4.357v.034zm3.921 6.955a1.477 1.477 0 00-.584-1.96c-.093.638.327 1.137.584 1.867v.093zm-1.249-3.026c0 .174 0 .267.199.232-.024-.22-.035-.301-.199-.324v.093zM162.243 62.937c-.013-.6.103-1.197.338-1.75.198-.881.42-1.762.688-2.62a2.596 2.596 0 000-1.785 8.72 8.72 0 00-.548-1.68c-.455 1.622-.525 3.21-1.05 4.636a.347.347 0 01-.187-.499c.49-1.159-.222-2.237-.653-3.21-.327-.73-.397-1.472-.665-2.19a75.97 75.97 0 00-3.816-8.277 33.158 33.158 0 00-4.119-6.305c-.548-.66-.968-1.425-1.61-2.133.735.325 2.812 2.817 4.259 5.112a57.718 57.718 0 013.174 5.795 64.79 64.79 0 012.567 6.27c.19-.65.311-1.318.361-1.993a5.27 5.27 0 00-.781-3.975c-.934-1.658-1.902-3.292-2.976-4.868a3.48 3.48 0 01-.467-1.16 53.56 53.56 0 014.131 6.248 4.334 4.334 0 01.21-1.808c.385 1.889.233 3.917 1.354 5.667.466-.822-.257-1.808.35-2.573.28 0 .338.174.326.348a6.594 6.594 0 001.015 3.327 40.981 40.981 0 011.424 4.288.3.3 0 01-.093.37c-.292-.776-.584-1.517-.875-2.317a52.872 52.872 0 01-2.357 7.082zm-.736-11.093c-.723 2.04-.653 4.88.175 5.691.257-1.924 1.156-3.813-.175-5.679v-.012zm2.042 4.903c.63-1.159.327-3.407-.525-4.01-.548 1.437.222 2.7.525 4.01zM152.137 73.994a3.124 3.124 0 01-.548-1.993 22.845 22.845 0 01.466-5.262 40.739 40.739 0 011.167-5.518 1.03 1.03 0 01.665-.81c.042.452-.051.908-.268 1.309a38.13 38.13 0 00-1.167 5.563.303.303 0 000 .174c.292.672.595 1.333.945 2.121.455-1.518.187-3.048 1.085-4.277.304.116.222.302.175.464a25.447 25.447 0 00-.758 4.636c-.07.626.292 1.217-.093 1.924-.385.707.081 1.287.851 1.67.094-.708.21-1.38.28-2.064.132-1.386.382-2.759.747-4.103a.926.926 0 01.677-.637c-.019.399-.11.791-.268 1.159a39.412 39.412 0 00-.922 5.586c-.105.684.315.893.852 1.16.198-1.044.396-2.029.56-3.026.143-.87.358-1.726.641-2.561.105-.29.234-.58.56-.66.199.115.129.254.094.382a42.71 42.71 0 00-1.33 5.656c-.094.556.093.8.653.915.327-.788.338-1.657.595-2.468.152-.51.304-1.02.479-1.519a.876.876 0 01.746-.58 34.218 34.218 0 00-1.552 5.981c-.478-.347-.175-.707-.245-1.031-.35-.081-.723-.371-.921.209-.409-.105-.21-.441-.304-.65-.093-.208-.338-.3-.536-.405-.199-.105-.105.429-.386.37-.28-.057-.233-.324-.291-.52-.059-.198 0-.905-.735-.546-.269.14-.409-.185-.455-.405a3.617 3.617 0 00-1.039-1.611.33.33 0 00-.327-.14c-.256.464.199.974 0 1.438l-.093.07zm.992-1.367a4.78 4.78 0 00-.817-4.022c-.14.602-.175 1.159-.292 1.796-.21 1.02.455 1.565 1.121 2.226h-.012zM170.993 61.128a.674.674 0 01-.199-.475 35.314 35.314 0 00-1.061-5.795 36.534 36.534 0 00-3.127-7.348 66.64 66.64 0 00-4.329-7.488c-.724-.997-1.517-1.947-2.264-2.932-.117-.151-.35-.279-.222-.58.315-.081.432.186.584.36a35.788 35.788 0 014.107 5.945 85.891 85.891 0 014.317 8.357 33.828 33.828 0 012.334 9.435c.011.115.011.232 0 .348-.047-.024-.094.023-.14.173zM151.156 28.965c1.167-.081 7.176 6.05 7.771 7.94-2.112-3.119-5.11-5.356-7.771-7.94zM165.555 60.086c-.665 2.608-1.89 4.995-2.765 7.522l-.304-.116a71.642 71.642 0 012.754-7.522l.315.116zM163.42 77.355a.634.634 0 00.77-.417l2.275-4.497c.082-.163.082-.394.35-.406.245.162.082.36 0 .51-.723 1.6-1.435 3.21-2.333 4.752-.292.638-.607.66-1.062.058zM161.916 77.958a28.984 28.984 0 002.45-4.3c.327.07.257.266.187.452a22.206 22.206 0 01-1.774 3.628c-.198.3-.443.626-.863.22zM171.704 64.977c.595 1.159-.128 5.378-1.05 6.12a18.108 18.108 0 001.05-6.12zM159.383 74.226c.164.15.094.29 0 .417-.291.892-.571 1.785-.863 2.689 0 .15-.093.382-.338.313-.245-.07-.164-.244-.129-.394.187-.86.441-1.705.759-2.527a.836.836 0 01.571-.498zM170.888 68.5a4.192 4.192 0 01-.782 2.782.259.259 0 01-.327 0 .336.336 0 010-.43c.281-.443.527-.908.735-1.39.128-.301.21-.58.374-.962zM159.348 77.204c.109-.707.342-1.39.688-2.016a2.12 2.12 0 01-.688 2.016zM164.39 66.448c-.304.545-.607 1.09-.899 1.635l-.186-.105c0-.718.513-1.159.921-1.622l.164.092zM67.73 106.239a23.654 23.654 0 00-5.578 5.297 1.626 1.626 0 00-.326 1.263c.035.6.117 1.197.245 1.785 1.062-.788.642-1.773.397-2.724.361.279.326.731.664 1.043l.91-1.159a30.572 30.572 0 015.356-5.331c.269-.197.619-.626.899-.255s-.292.475-.514.637a31.818 31.818 0 00-3.348 2.886c-.315.313-.374.568 0 .858.373.29.396.545.77.742l1.855-1.924a10.777 10.777 0 011.902-1.658c.152-.092.327-.231.467 0 .14.232-.082.302-.21.394a24.2 24.2 0 00-3.396 3.246c-.256.278-.303.463 0 .707.285.276.589.532.91.765a15.766 15.766 0 012.976-2.666c.116-.058.268 0 .408.197l-1.319 1.159c-.454.406-.898.811-1.341 1.24-.187.174-.49.36 0 .812a.812.812 0 00-.573-.059.801.801 0 00-.466.337c-.362.452-.723.892-1.167 1.298a.691.691 0 00-.07 1.066c.2.294.435.563.7.8.49-.545.992-1.066 1.47-1.6.754-.844 1.582-1.62 2.474-2.318.304-.231.654-.591 1.167-.231a21.7 21.7 0 00-3.442 3.036c-.408.429-.793.87-1.167 1.298-.373.429-.07.603.164.835.233.232.443.058.63-.128a16.372 16.372 0 012.998-2.735l.187-.139c.163-.104.339-.162.479 0 .14.162 0 .301-.175.406a24.963 24.963 0 00-3.163 2.805c-.315.312-.315.498 0 .753s.257.301.385.44c.304.336.514.267.782-.092a15.955 15.955 0 012.66-2.585c.234-.186.467-.278.747 0a25.76 25.76 0 00-3.407 3.35c0 .22.163.278.269.37.98.8 1.003.823 1.855-.104.852-.927 1.808-1.692 2.695-2.55a.879.879 0 01.945-.29c-1.353 1.449-2.917 2.574-4.107 4.08.372.468.808.881 1.295 1.229.28.22.479 0 .654-.185a37.383 37.383 0 012.823-2.597 1.173 1.173 0 011.167-.405c-1.318 1.263-2.777 2.318-3.909 3.593a1 1 0 00.082.162c1.167 1.031 1.167 1.02 2.275-.128.852-.88 1.739-1.703 2.626-2.55.151-.139.338-.359.548-.15.21.208 0 .405-.187.545l-2.812 2.665c-.277.22-.517.482-.711.777a8.14 8.14 0 001.621.95c.175.093.28 0 .409-.116l3.5-3.164c.14-.139.269-.359.479-.139.21.22 0 .371-.117.499l-2.1 1.9-1.436 1.333a3.5 3.5 0 001.494.707c.21 0 .362-.104.502-.243 1.167-1.159 2.543-2.121 3.594-3.408a.294.294 0 01.326-.127c.257.22 0 .405-.093.579a12.758 12.758 0 01-2.427 2.318c-.42.354-.811.742-1.167 1.16 1.167.788 1.482.776 2.334-.163 0-.243-.42-.405-.105-.788.723.568 1.167 0 1.645-.464a30.49 30.49 0 002.614-2.318c.116-.127.245-.231.408-.116.163.116.082.302 0 .452a9.915 9.915 0 01-2.007 1.82 8.664 8.664 0 00-1.167 1.159c.487.234.995.421 1.517.557.163.058.292-.093.409-.197a13.23 13.23 0 002.893-3.234c.07-.139.164-.232.315-.151a.349.349 0 01.175.406 2.445 2.445 0 01-.63 1.055c-.63.649-1.272 1.286-1.913 1.924-.105.104-.269.173-.304.405.467.209.899.429 1.4 0a34.113 34.113 0 003.35-3.129c.093-.128.21-.186.35-.093a.232.232 0 01.081.359 2.787 2.787 0 01-.618.777l-2.93 2.619c.853.151 1.553.279 2.253.383a.468.468 0 00.35-.174 16.265 16.265 0 002.17-2.55c.199-.313.339-.614 0-.962.245-.22.479-.359.747-.127a.636.636 0 01.117.811 8.848 8.848 0 01-1.82 2.318c-.257.243-.48.498-.818.835l2.58.394a.359.359 0 00.256-.093 14.673 14.673 0 002.882-3.176c.18-.347.332-.707.455-1.078.502.058.478.383.373.719a5.798 5.798 0 01-1.808 2.492c-.385.382-.759.776-1.167 1.228l2.054.36a.402.402 0 00.35-.174c.618-.835 1.4-1.542 1.937-2.434.158-.225.261-.483.303-.754 0-.15 0-.289.233-.289a.302.302 0 01.304.301c.029.337-.053.675-.234.962a17.005 17.005 0 01-2.613 3.014l-2.03 2.063c.84.081 1.516.116 2.181.243.094 0 .245-.104.339-.197a38.509 38.509 0 004.399-5.308c.126-.241.239-.489.338-.742.082-.151 0-.464.338-.383.339.081.234.371.164.591a7.739 7.739 0 01-1.167 1.971 41.963 41.963 0 01-3.746 4.138 29.093 29.093 0 01-2.333 2.132c-.094.081-.187.128-.397 0 .502-.823 1.435-1.217 1.972-2.098-.805 0-1.529-.092-2.264-.092-.198 0-.315.208-.466.336-.665.614-1.342 1.159-2.019 1.808-.093.081-.175.162-.467.093.642-.846 1.552-1.368 2.17-2.318a18.318 18.318 0 00-2.683-.29.545.545 0 00-.397.22c-.579.443-1.132.919-1.657 1.426.28.243.63.058.91.371-.516.034-1.035.034-1.551 0a34.367 34.367 0 01-4.05-.429 29.71 29.71 0 01-5.402-2.029c-2.018-.973-4.06-1.912-5.985-3.071-.992-.591-1.89-1.333-2.824-2.005l-1.284-.951c-.326 0-.303.371-.536.429h-.082c.303-1.217-.91-1.31-1.435-1.901-.257-.266-.689-.382-.899-.73-.21-.348-.361.081-.595 0a2.187 2.187 0 01.537-1.634.7.7 0 00.19-.594.694.694 0 00-.365-.507c-.303.301-.175.823-.607 1.054-.291-.266-.093-.556 0-.753.549-.95-.151-1.507-.618-2.318a4.067 4.067 0 00-.759 1.808c-.233 0-.28-.162-.385-.29a11.078 11.078 0 01-2.648-5.865c0-.289-.07-.533-.549-.243a8.385 8.385 0 00.28-3.153c-.007-.402.086-.8.269-1.159.105-.22.245-.44.536-.255.292.186.269 0 .35-.092a35.77 35.77 0 002.497-2.956.289.289 0 01.07-.093 9.503 9.503 0 013.734-1.9c.38-.096.75-.224 1.109-.383.21-.058.397-.185.641 0-.151.255-.455.232-.63.371a30.818 30.818 0 01-3.5 1.762 18.863 18.863 0 00-3.792 3.407 2.388 2.388 0 00-.619 2.098c.56-.745 1.173-1.45 1.832-2.109a21.856 21.856 0 013.582-2.863.505.505 0 01.49-.116l.059.058zm8.576 21.86l-.175-.128a10.441 10.441 0 011.645-2.063l-1.715-.985a.262.262 0 00-.17-.021.262.262 0 00-.145.09 10.233 10.233 0 00-1.925 2.458c.221.139.396.266.583.359 2.719 1.344 5.39 2.758 8.168 3.929a25.238 25.238 0 006.219 1.542c.14 0 .327.058.408 0 .595-.51 1.167-1.044 1.856-1.658-.806-.151-1.47-.243-2.112-.394a.703.703 0 00-.747.174 16.6 16.6 0 01-1.435 1.159c-.129.104-.257.29-.514 0 .42-.568 1.167-.892 1.505-1.611l-2.427-.498a.58.58 0 00-.478.185c-.397.325-.805.637-1.167.939-.117.093-.245.278-.478.093.268-.626 1.062-.754 1.377-1.357a1.405 1.405 0 00-1.786.151c-.233-.278.175-.394 0-.626a12.945 12.945 0 01-1.306-.405c-.619-.29-.794.428-1.237.521-.28-.394.245-.498.222-.811l-1.296-.522c-.606-.255-.653.58-1.166.603-.199-.406.268-.545.303-.788-.175-.406-.829-.267-.84-.835.502 0 .886.58 1.342.278a7.243 7.243 0 001.015-1.043 3.799 3.799 0 01-.899-.44c-.537-.452-.852-.174-1.167.232-.315.405-.991 1.008-1.458 1.472zm-6.418-3.478l3.21 2.319c.186.139.35.208.5 0a17.978 17.978 0 011.821-2.319c-.257-.208-.455-.382-.677-.533-.7-.51-.7-.51-1.26.174-.338.429-.7.846-1.167 1.345a.59.59 0 01.117-.603c.327-.44.642-.892.992-1.31.187-.232.233-.382 0-.579-.234-.197-.735-.591-1.085-.904-.152-.128-.315-.232-.467-.07-.507.458-.95.98-1.319 1.553.479.464 1.167.626 1.54 1.264a2.81 2.81 0 01-1.283-.661c-.455-.383-.7-.255-.922.301v.023zm-3.593-9.446c1.166-.29 1.388-1.437 2.252-2.017-.397-.37-.736-.66-1.074-.962-.338-.301-.327-.092-.49.082a22.65 22.65 0 00-2.509 3.257c-.105.15-.198.301-.093.486.192.474.455.916.782 1.31.373-.8 1.202-1.252 1.132-2.179v.023zm-2.182.197c.268-.394.466-.707.688-1.008a24.515 24.515 0 011.762-2.237c.163-.162.467-.383.198-.649-.268-.267-.513-.788-.98-1.066a14.785 14.785 0 00-2.403 2.839.452.452 0 000 .452l.735 1.669zm24.853 15.358c.292.266.595.162.852.232.98.266 1.925.394 2.625-.603.176-.182.363-.352.56-.51.28-.302.735-.441.91-.927a21.133 21.133 0 00-2.59-.371c-.478 0-.724.556-1.074.846-.45.421-.88.866-1.283 1.333zm8.086-1.414c-1.517-.51-2.205-.429-3.22.51a8.396 8.396 0 00-1.517 1.437c.291.197.571.104.84.174 1.097.255 2.123.301 2.777-.893.14-.255.466-.417.677-.649.21-.232.408-.301.443-.579zm-8.833-.116c-1.167-.499-1.832.162-2.555.95.788.223 1.591.389 2.403.499a.35.35 0 00.28-.07c.712-.684 1.412-1.379 2.182-2.144-.606-.186-1.108-.267-1.586-.406a1.233 1.233 0 00-.912.027 1.22 1.22 0 00-.64.645c.233.221.595.139.828.499zm-24.188-12.912c-.327.162-.187.684-.805.811 1.073-1.159.42-2.144-.245-3.222-.269.58-.817.985-.712 1.565a11.29 11.29 0 001.879 3.941c.84-1.391.805-2.017-.117-3.095zm4.539 5.644l1.505-1.831a6.166 6.166 0 00-1.167-1.159c-.303.336-.583.638-.84.951-.758.938-.735 1.159.257 1.877l.245.162zm3.045-.324l-.898-.904c-.187-.186-.35-.22-.537 0-.35.452-.723.881-1.097 1.321-.128.162-.163.29 0 .452.325.315.685.591 1.074.823.327-.359.63-.684.922-1.02.291-.336.385-.417.536-.672zm-5.017-5.39c-1.365 1.264-1.435 2.075-.222 2.968l.467-.661c.758-1.159.758-1.159-.117-2.214-.023-.035-.07-.046-.128-.093zm17.864 12.24c-1.552-.753-2.45-.568-2.917.591 1.47.765 1.96.672 2.917-.591zm-2.579-.753c-1.341-.719-1.855-.603-2.613.614l1.423.51h.269c.268-.417.7-.661.921-1.124zm-13.92-9.783c-1.167.916-1.517 1.889-.852 2.469.245-.29.514-.58.747-.893.233-.312.572-.533.712-.95l-.607-.626zm17.607 9.47a1.609 1.609 0 00-2.072-.288 1.583 1.583 0 00-.518.543 6.71 6.71 0 011.015.266 1.168 1.168 0 00.925.089 1.17 1.17 0 00.697-.61h-.047zm-1.656 2.318a1.604 1.604 0 002.24-.928c-1.12-.278-1.412-.162-2.194.962l-.046-.034zm-16.79-8.496c-.561.811-.421 1.321.407 1.704.21.092.374.116.49-.105.117-.22.362-.417.129-.614-.234-.197-.525-.695-.98-.95l-.047-.035zm2.718 2.388c-.28-.244-.549-.476-.817-.684-.268-.209-.385-.36-.595 0-.21.359-.315.51.07.73.385.22.607.406.898.603.23-.142.404-.36.49-.615l-.046-.034zm15.705 4.636c1.004.487 1.167.44 1.809-.418-.724-.475-1.015-.428-1.762.406l-.047.012zM102.582 115.372a38.097 38.097 0 01-.513-1.518c-.152-.487-.374-.325-.619-.371-1.167-.22-2.334-.429-3.5-.626a11.964 11.964 0 01-2.556-.753c2.112.104 4.154.753 6.301.927a8.233 8.233 0 00-.817-1.716c.455.151.654.545.876.904.221.36.233.487.361.731.129.243.152.255.222.255.7 0 1.272.475 1.995.44a5.972 5.972 0 00-.525-1.402 1.066 1.066 0 01.782.788c.233.823.852 1.02 1.563 1.159.164-.081 0-.255.187-.429.269.753.922.846 1.552 1.008.163-.197-.128-.394.093-.625.51.589.784 1.344.77 2.121-.373-.696-.665-1.472-1.75-1.345l.992 2.434c-.268.104-.338 0-.385-.116a11.288 11.288 0 01-.863-1.924c-.222-.8-.782-.846-1.482-.962.361.968.6 1.976.711 3.002a.893.893 0 01-.396-.672c-.14-.568-.397-1.159-.549-1.669-.245-.916-.91-1.055-1.75-1.159.361.814.574 1.685.63 2.573-.478-.904-.513-2.04-1.167-2.84l-.268.128c.28 1.078.677 2.121.875 3.326-.443-.266-.397-.637-.455-.927a.786.786 0 00-.735-.684c-1.855-.301-3.699-.568-5.543-.927-1.843-.359-3.768-.742-5.635-1.252a20.077 20.077 0 01-3.734-1.229c.314-.127.666-.127.98 0a86.786 86.786 0 0010.98 2.597c1.05.255 2.147.498 3.372.753z"/><path d="M104.73 133.616a12.92 12.92 0 003.08-.869 1.015 1.015 0 01.385-1.009l3.325-3.349a.638.638 0 01.549-.255c-.058.521-.49.776-.794 1.101-.816.857-1.668 1.669-2.497 2.515-.315.265-.54.622-.641 1.02 0 .208-.234.255-.397.324a25.072 25.072 0 01-8.004 1.901l-2.334.186a6.47 6.47 0 01-2.334-.29.89.89 0 01.747-.313c.295-.018.592-.018.887 0a1.86 1.86 0 001.727-.614c1.085-1.159 2.333-2.237 3.407-3.478a14.895 14.895 0 002.987-3.824c.14-.325.222-.661.338-1.02.385 0 .455.208.397.533a4.623 4.623 0 01-.968 1.993 34.048 34.048 0 01-4.096 4.3 41.736 41.736 0 00-2.054 1.901 15.056 15.056 0 004.388-.371 6.623 6.623 0 001.878-.486l.024.104z"/><path d="M100.25 134.079c.42-.44.852-.881 1.26-1.333 1.599-1.762 3.419-3.292 5.041-5.019a9.039 9.039 0 001.307-1.808c.081-.15.14-.359.373-.255.233.105.198.313.117.487a6.339 6.339 0 01-1.249 1.774l-5.577 5.401a4.475 4.475 0 01-1.167.892l-.105-.139zM104.753 133.592c-.49-.197-.082-.428 0-.533.828-.869 1.703-1.68 2.52-2.55a31.768 31.768 0 003.501-3.824c.163-.244.291-.51.431-.765s.14-.418.409-.302c.268.116.175.371.081.557a6.225 6.225 0 01-.863 1.402 46.415 46.415 0 01-3.687 3.709c-.817.753-1.599 1.553-2.404 2.318l.012-.012zM113.142 115.604c-2.602-1.449-5.519-2.144-8.261-3.361 1.05-.394 7.666 2.295 8.261 3.361zM117.436 126.035c1.166-1.68.98-3.604 1.003-5.552a.666.666 0 01.502.789c-.024 1.703.105 3.477-1.505 4.763z"/><path d="M114.18 115.279c-.711-.347-1.26-.927-1.995-1.252a36.19 36.19 0 00-5.017-1.727c-.175-.057-.385 0-.467-.278.234-.162.479 0 .689 0 1.84.427 3.62 1.081 5.297 1.948.467.289.898.637 1.342.973.105.07.245.162.14.325l.011.011zM114.636 128.354c.005.061.005.123 0 .185a11.448 11.448 0 01-1.785 2.028.203.203 0 01-.158.078.196.196 0 01-.157-.078c-.117-.162 0-.301.081-.417.397-.44.805-.869 1.167-1.298.152-.174.28-.383.432-.556a.232.232 0 01.315-.093c.105.046.105.151.105.151zM110.307 116.6l-1.762-2.584c.665-.139 1.89 1.588 1.762 2.584zM112.839 118.652a25.97 25.97 0 01-1.003-3.002 3.534 3.534 0 011.003 3.002zM114.168 115.279c.117 0 .257 0 .28.197l-.268-.197h-.012zM67.719 106.251l-.024-.035.035.023-.011.012zM53.075 10.559c0 .313-.291.347-.466.487-2.217 1.784-4.528 3.477-6.628 5.39a44.424 44.424 0 00-5.67 6.061 69.38 69.38 0 00-4.901 7.522c-.327.58-.514 1.229-.91 1.808a1.243 1.243 0 01.128-1.159 52.84 52.84 0 015.157-8.183A44.842 44.842 0 0147.58 14.5c1.645-1.356 3.383-2.607 5.075-3.917.14-.081.257-.162.42-.023z"/><path d="M50.087 15.404c-2.077 1.935-4.212 3.802-6.126 5.9-1.913 2.097-3.5 4.439-5.273 6.64.198-1.993 9.439-12.134 11.4-12.54zM60.46 3.176a62.972 62.972 0 00-13.313 7.858c.781-1.61 11.936-8.31 13.313-7.858zM69.538 18.962c-.108.21-.148.45-.116.684.097.835.124 1.676.081 2.515 0 .22 0 .475-.245.603-.256-.15-.14-.394-.14-.58a20.304 20.304 0 00-1.458-7.383c-.07-.185-.269-.44 0-.568.268-.127.373.174.467.371a21.164 21.164 0 011.166 4.045c0 .162 0 .313.245.325v-.012zM33.6 51.288c-.409.116-.42-.208-.49-.394a13.466 13.466 0 01-.584-2.805 26.346 26.346 0 01-.292-3.477c0-.313 0-.66.374-.892.046 2.551.378 5.09.992 7.568zM69.55 18.974c.058-.186 0-.44.175-.545.606-.533.455-1.159.233-1.762-.222-.602-.397-1.31-.572-1.97a1.303 1.303 0 010-.73c.362 0 .409.197.479.429.233.892.478 1.773.723 2.689.432-.082.455-.568.899-.719 0 .823-1.086 1.229-.642 2.144-.712-.405-.852.336-1.26.452l-.035.012zM70.191 11.29c.595.683.373 1.506.863 2.097-.606-.046-.933-.87-.863-2.098zM41.697 15.184a.35.35 0 00.245-.232l1.599-1.229a6.28 6.28 0 01-1.622 1.611c-.14.104-.198-.011-.222-.15zM66.97 4.16c-.244.175-.49.314-.7.07-.21-.243.07-.3.222-.382.304-.174.385.093.479.313zM72.198 11.22c-.583 0-.618 0-.676-.65a1.076 1.076 0 01.676.65zM44.311 43.662c0 .116 0 .231-.163.231a.183.183 0 01.037-.15.187.187 0 01.138-.07l-.012-.011zM149.419 88.447c-.11.289-.277.553-.49.777a85.69 85.69 0 00-6.033 8.264c-.292.429 0 .684 0 1.02a13.518 13.518 0 000 2.167c1.05-1.159 1.879-2.434 2.8-3.662a4.74 4.74 0 01-.91 1.889 4.984 4.984 0 00-.898 3.477 30.89 30.89 0 005.367-6.954c.28.347 0 .556 0 .765a19.44 19.44 0 01-3.115 4.485 45.01 45.01 0 01-3.501 3.767c-.315.29-.21.777-.42 1.078-.326.081-.221-.255-.373-.301-1.517.66-1.167 2.318-1.809 3.396-.175-.684.269-1.322.21-2.063-.828.382-1.411 1.043-2.24 1.391a.746.746 0 01.35-.58 30.196 30.196 0 001.715-1.24c.549-.429.35-1.229.525-1.866a33.812 33.812 0 01-3.652 3.06 5.683 5.683 0 011.354-1.484c.723-.753 1.493-1.46 2.228-2.202a2.733 2.733 0 00.28-2.434.47.47 0 010-.499c.456-.556.339-1.263.572-1.877 0-.105 0-.255.199-.244.35 0 .408-.255.536-.463 1.646-2.62 3.349-5.216 5.228-7.696a17.108 17.108 0 011.68-1.878.328.328 0 01.397-.093zm-7.083 9.933c-1.097 1.287-.607 2.689-.817 3.976.479-.359.887-.707.84-1.379.039-.866.031-1.732-.023-2.597zm-1.342 6.955a2.252 2.252 0 001.098-1.145 2.233 2.233 0 00.069-1.579c-1.05.568-1.027 1.623-1.167 2.666v.058zm1.68-1.646l.164.069.992-1.066c-.852-.487 0-1.159-.351-1.797-.84.8-.641 1.797-.84 2.736l.035.058zM130.609 109.565l2.882-2.04a32.755 32.755 0 004.761-4.195c.128-.14.222-.337.548-.36a3.631 3.631 0 01-.968 1.449 31.3 31.3 0 01-5.309 4.184 4.783 4.783 0 01-1.914.951v.011zM125.534 115.141a1.052 1.052 0 01.163 1.367 8.472 8.472 0 01-.887 2.11c-.432.568-.291 1.425-.408 2.167.008.215-.045.428-.152.615-.502-.777.479-5.529 1.284-6.259zM128.346 126.221a29.07 29.07 0 003.5-6.954.658.658 0 01.152.741 21.031 21.031 0 01-3.022 5.935.517.517 0 01-.63.278zM135.767 99.91c-1.901 2.179-4.06 4.092-6.114 6.108l-.221-.231c1.995-2.087 4.154-3.988 6.335-5.877zM164.05 98.137a40.39 40.39 0 00-.269-7.082c.409-.081.444.162.479.37.069.443.116.888.14 1.334.128 1.516.128 3.04 0 4.555a1.161 1.161 0 01-.35.823zM159.372 86.628c.478 1.39-1.377 5.39-2.591 5.714a14.518 14.518 0 002.591-5.714zM130.062 120.808a12.394 12.394 0 01-1.89 4.857 30.777 30.777 0 011.89-4.857zM125.674 122.338a14.07 14.07 0 011.4-4.74 24.111 24.111 0 01-1.4 4.74zM163.281 85.214c.84 0 2.637 2.028 2.451 2.712-.759-.939-1.716-1.669-2.451-2.712zM165.906 97.813a17.831 17.831 0 01-2.404 4.531 32.438 32.438 0 012.404-4.531zM124.646 122.64c.946.985 1.389 2.144 2.334 2.944-.793.011-2.205-1.785-2.334-2.944zM130.389 113.923l-2.229 3.814a7.421 7.421 0 012.229-3.814zM127.471 116.879a5.563 5.563 0 011.575-2.226l.152.105c-.514.753-1.016 1.506-1.529 2.248l-.198-.127zM165.194 93.361c.186.517.326 1.048.42 1.588-.607-.07-.806-.88-.42-1.588zM127.156 120.46a3.47 3.47 0 01-.56 1.971 4.222 4.222 0 01.56-1.971zM163.385 84.182a1.482 1.482 0 01-.793-.545c.502.023.502.023.793.545zM162.371 85.469c.21.533.21.533-.082.95a1.154 1.154 0 01.082-.95zM37.438 99.644v.092a.174.174 0 010-.08v-.012z"/></symbol></svg>