<svg aria-hidden="true" width="0" height="0" style="position:absolute"><symbol fill="curentColor" viewBox="0 0 144 152" id="categoriese" xmlns="http://www.w3.org/2000/svg"><path d="M143.598 56.853c.3-.4-.1-.7-.5-.6.1-1.8-.2-3.7-1.8-4.8-1.3-.9-3.6-1.3-5-.1-.2.2-.2.4-.1.5v.1c0 .1 0 .1-.1.2-.1 0-.2.1-.3.2-13.7 14.4-24.9 30.4-39 43.3l-.1.1c-3.1-.9-5.4-2-6.9-4.9-1.4-2.7-1.2-5.7-2.1-8.5.1-.2.3-.3.4-.5.8 1.1 1.6 2 2 3.4.4 1.3.6 2.6 1.1 3.9 1 2.4 3.1 4.7 5.4 6.1.4.2 1.1-.3.7-.7-1.1-1.4-2.6-2.4-3.6-3.8-1.2-1.6-1.6-3.5-2.2-5.4-.5-1.5-1.4-3.5-3.2-3.7v-.1c5.8-7.4 11.2-15.2 15.9-23.4 3.4-5.9 7-12.2 9.6-18.6-.1.3-.2.5-.2.8 1-1.5 1.8-3.3 2.5-4.9.4-.9.9-1.9 1.4-2.8.4-.3.7-.8.6-1.3v-.1c0-.1.1-.2.1-.4.1-.3-.3-.6-.6-.3-.6-.6-1.6-1-2.1-1.4-1.1-.7-4-3.3-5.5-1.5-.1.1-.3.2-.5.4-.3.3-.4.5-.4.8-4 8.3-9.3 16.4-14.8 24.1-5.3 7.5-10.7 15-16.4 22-1.2-1.3-2.7-2.3-3.8-3.7-1.4-1.8-2.5-3.8-3.6-5.8-1-1.6-2.8-5.4-5.3-5.1 4-5.8 7.8-12 11.2-18.1 4.2-7.5 5.9-15.5 7.4-23.7.5-.5.7-1.3.1-1.9-.8-.9-2.2-1.6-3.2-2.3-.6-.4-1.2-1-2-.7-.2 0-.3.1-.5.2-.3.3-.5.7-.5 1.1-3.3 6.9-6 13.9-9.8 20.5-4.1 7.2-8.9 13.9-14.3 20.1-.1.1-.1.2-.2.2-.5-1.6-2.1-2.9-3.3-3.9-1.1-.9-2.4-1.7-3.6-2.5-1.8-1.4-2.4-2.9-2.8-5 7.6-11.8 14-24.3 17.5-37.9.1-.3-.2-.4-.4-.4.3-.2.5-.6.6-1.3.1-1 .1-2.2-.7-2.8-.7-.5-1.5-.5-2.1-1.1-.4-.4-.6-.7-1.2-.8-.9-.2-1.8.2-2.5.7-.4 0-.9.2-1.2.6-.3.4-.4.8-.4 1.2-3.7 6.1-7 12.5-10.4 18.7-3.4 6.1-6.3 12.6-10.5 18.2-7.7 10.5-17.6 19-26.8 27.1-.1.1-.2.2-.1.4-1.4.6-2.3 1.9-2 3.3-.9 1.1-2.4 1.5-2.8 3.3-.2.9.1 1.7.2 2.5.3 2.2.5 4.3.5 6.5 0 6.6-2.3 13.3-1 19.8 2.5 12.3 15 17.9 23.9 25.3 5 4.2 9.4 9.1 14.3 13.6.8.7 1.7 1.6 2.6 2.4l.1.1c3.5 3.2 7.8 6.7 12.4 7.2 5.3.6 9.8-3 14.4-5.1 3.3-1.5 6.9-2 10.4-3.2 2.9-1 5.6-2.5 8-4.4 3.1-2.4 5.8-5.3 8.5-8.2 1.6-1.7 3.1-3.1 5.2-4.4 1.4-.8 2.8-1.6 4-2.7 3.5-3.1 5.3-7.4 5.2-11.7 1.1-2.8.5-6.7-1.9-8.5l.1-.1c13.4-13.6 24.8-29.7 36-45.8zm-6.2-4.8c1.2-.1 2.2-.3 3.2.5 1 .7 1.3 2 1.2 3.3-1.1-.2-2.1-.6-2.9-1.3-.5-.4-.9-.9-1.2-1.4-.2-.3-.3-.5-.3-1.1 0 .1 0 .1 0 0zm-40.3 45.1c.2-.1.3-.3.5-.4.1 0 .1-.1.1-.1 6.6-6 12.5-12.9 18.5-19.7 6.6-7.6 13.7-15.1 20.2-23.1.1.2.3.5.4.7.8 1.1 2 1.9 3.3 2.4-11.7 14.5-22.6 29.3-35.5 42-1 1-2.1 2-3.2 3-.1-2.2-3.5-3.7-5.6-2.9-.2.1-.2.4.1.4 1.1 0 2.1.1 3.1.6 1 .6 1.4 1.4 2 2.2-5.5 5-11.3 9.4-17.5 13.4-7.1 4.6-14.7 8.2-21.7 12.6-.1-.3-.2-.6-.4-.8-.7-1.2-2.6-2.8-4.4-3.4 6.7-3.4 13.3-7.5 19.8-11.6 7-4.6 13.9-9.6 20.3-15.3zm-36.9 34.1c0 .2.1.4.1.6-1.4.8-3.8-1.7-4.9-2.5-.4-.3-1-.6-1.3-1-.1-.1-.2-.2-.4-.3 0-.7.1-1.4.1-2 .4-.5 2.2-.4 3-.6.6.2 1.2.5 1.8.8 1.3.9 2.9 2.9 2.4 4.6l-.1-.1c-.3-.3-.8.1-.7.5zm35.1-34.2c-6 5.3-12.5 10.1-19.1 14.4-6.6 4.3-13.4 7.9-19.8 12-1.1-1.2-2.9-1.8-4-3.1-1.8-2-1.8-3.9-1.9-6.3 6.5-4.7 13.2-9.5 19.9-14.3 6.4-4.8 11.7-10.3 16.8-16.5-.2 1.9 0 4.1.6 6.2-.4.3-.8.6-1.3.9-.5-1.5-.6-3.2-.6-4.9 0-.1-.1-.1-.2 0-.5 1.6-.3 3.5.2 5.4-1.1.9-2.1 1.8-3.1 2.7-.3.2.1.6.4.4 1-.8 1.9-1.6 2.9-2.4.2.6.5 1.2.8 1.8-.8.6-1.5 1.3-2.3 1.9-.2.2.1.5.3.3.7-.6 1.5-1.1 2.2-1.7 1.4 2.4 3.5 4.3 6 4.6.2 0 .3-.2.1-.4-2.1-1.4-4.1-2.7-5.5-4.9.2-.2.4-.3.5-.5.1-.1 0-.3-.2-.2-.2.1-.4.2-.5.4l-.9-1.8c.4-.4.8-.7 1.2-1.1 1.2 3.6 3.8 6.9 7.5 7.1zm8.8-40.5c-4.6 8.1-9.8 15.8-15.4 23.1-6 7.8-12.3 14.4-20.2 20.1-6.3 4.5-12.4 8.9-18.4 13.2-.1 0-.1 0-.2.1l-.1.1-4.2 3c.1-.9-.3-1.7-.9-2.5-.2-.3-.4-.5-.5-.7.1.1.3.1.5 0 8.1-4.5 16.3-9.6 24.1-15.1 7.4-5.3 12.9-12.4 18.5-19.6 11.1-14.2 21.1-28.9 27.1-45.9v-.2c.5.2 1 .5 1.5.6-4.2 8-7.5 16.1-11.8 23.8zm11.2-20.1c.1-.4.3-.7.4-1.1.1-.3.3-.5.4-.8-.1.3-.2.6-.4.9-.1.4-.2.7-.4 1zm-4.4-7.9c0-.1 0-.1 0 0 1.4-.6 2.4.4 3.3 1.1.5.3 1 .7 1.5 1 .4.2 2 1 .3.7-1.2-.2-2.4-1-3.5-1.4-.4-.2-.8-.3-1.2-.5-.3-.1-.5-.3-.6-.6.1-.1.1-.2.2-.3zm-16.8 26.9c5.8-8.1 11.3-16.5 15.9-25.3.8.8 2.3 1.2 3.3 1.6.2.1.5.2.8.4-.1 0-.2 0-.3.2-6 16.9-17.3 32.1-28.2 46-5.7 7.3-11.2 14.3-18.9 19.4-7.5 5.1-15.4 9.3-22.6 14.4-.2.1-.2.3-.2.4-.2-.3-.3-.7-.5-1.1-.2-.6.1-.6-.2-1.1-.3-.5-.7-.8-1.1-1-.3-.1-.6-.2-.8-.3-.9-.4-1.1-.8-1.7-1.5l-.3-.3c13.5-5.8 26.2-15.8 36.2-27.3l.1.1h.1c.1 0 .2-.1.1-.2.2.1.5.2.5.3.2.1.4.1.6.2.6.3 1.1.6 1.6 1 .8.6 1.3 1.5 2.1 2.2.2.2.4 0 .4-.2-.3-1.6-2-2.8-3.4-3.5-.3-.2-1-.5-1.6-.5.1-.1.2-.2.3-.4 6.3-7.5 12.1-15.5 17.8-23.5zm-51.6 61.3c-.4 0-1.1-.5-1.4-.7-1.1-.5-2.4-1-3.5-1.6-1.4-.8-1.9-2-2.2-3.5-.1-.9 0-2.1.8-2.6 1.2-.7 1.9.3 2.8 1 .5.4.9.7 1.5.9 1.2.5 1.2.8 1.7 2.1.2.7.4 1 .8 1.6.1.1.2.3.4.4.7.5.4 1.4-.9 2.4zm34.2-40.2c-.3.4-.6.7-.9 1.1-10.7 12.7-23.6 21.9-37.6 29h-.1c-.2-.1-.4-.3-.6-.4.8-.3 1.5-.6 2.2-1.1.1-.1 0-.3-.1-.2-.9.2-1.8.7-2.6 1.1-.7-.4-1.4-.7-2.2-1l.9-.6c.5-.3 1.1-.6 1.4-1.1.1-.1-.1-.2-.2-.2-.6.1-1.2.6-1.7.9-.4.2-.7.5-1.1.7-.7-.4-1.4-.9-2-1.5.9-.4 1.8-.9 2.6-1.4.8-.5 1.9-1.2 2.3-2.1.1-.1-.1-.3-.2-.2-1 .3-1.8 1.3-2.6 1.9-.8.5-1.6 1-2.5 1.5-.4-.5-.7-1-.9-1.6v-.1l-.3-.9c.5-.6 1-1.1 1.5-1.7.5-.6 1-1.1 1.4-1.8.1-.1-.1-.3-.2-.2-1.1.8-1.9 2-2.8 3.1-.3-1.7-.3-3.5-.7-5.3 4.5-3.1 8.9-6.7 13-10.3 6.2-5.4 13-10.9 18-17.6.9-1.2 1.7-2.3 2.5-3.5-1.1 3.3-.1 6.9 2.4 8.9.8.6 1.6 1.1 2.6 1.6-.6.6-1.2 1.1-1.8 1.6-1.6 1.3-3.4 2.5-5.2 3.4v.1c2.6-1.2 5.4-2.7 7.7-4.8.5.2.9.4 1.4.6-2.5 1.8-4.8 3.9-7.2 5.7 2.5-1.8 5.2-3.6 7.5-5.7.1 0 .1 0 .2.1 2.1.6 3.9 1.5 5.9 2zm-44.8 28.8c0 .2-.1.4-.1.6-.4-.1-.8-.2-1.1-.3-.1-.3-.2-.6-.2-1 .4.3.9.5 1.4.7zm-1.5-1.6v-.5c.1.1.2.2.2.4.2.2.4.5.6.7-.2-.2-.5-.4-.8-.6zm-.5 1.7c-.7-.2-1.4-.5-2-.9-.3-.9-.5-1.9-.6-2.9v-.2c.6 1.2 1.5 2.2 2.5 2.9 0 .3.1.7.1 1.1zm-.8-2.9c-.9-1-1.4-2.1-1.8-3.3 0-.4.1-.8.1-1.1.2.1.4.3.6.4.1 0 .3-.1.2-.2-.1-.3-.4-.6-.7-.9.1-.3.2-.5.3-.7 0-.1 0-.1-.1-.1-.2.2-.4.4-.5.6-.4-.2-.8-.4-1.3-.4.9-.5 1.8-1.1 2.6-1.6l.3.9c-.3 2.3.1 4.9 1.2 6.8-.1.2-.1.4-.2.6-.1-.4-.4-.6-.7-1zm-2.2-4.7c0-.1-.2-.1-.2 0v.4c-.3-.2-.8-.4-1.1-.5-.2-.1-.4-.2-.7-.3.2-.1.5-.3.7-.4.4.2.7.4 1.1.6.1.1.2.2.4.2 0 .1-.1.2-.1.3-.1-.1-.1-.2-.1-.3zm-6.1-1.1c-.3-.3-.7-.7-1-.9-.9-.8-1.7-1.4-2.4-2.5-.3-.5-.5-1-.9-1.4 0-.6 0-1.2.2-1.7 1.1-2.7 3.4-1 4.5-.1 1.2 1.1 2.8 3 3.1 4.7.4 3-1.9 3-3.5 1.9zm-4.9-4.8c0 .3.1.6.2.9-.1 0-.2 0-.2.1-.1.7-.1 1.5-.1 2.2-.7-1.1-1.3-2.4-.9-3.6 0 .1 0 .2.1.4 0 .1.2.1.2 0 0-.9-.1-1.8-.1-2.7.1 0 .2.1.3.1.2.1.3-.2.2-.3-.2-.1-.3-.3-.5-.4v-1.2c.4.4.9.8 1.3 1.1-.8.9-1.1 2.4-.5 3.4zm-2.2-7.6c-.2-.4-.4-.7-.6-1.1.1-.8.2-1.5.4-2.2.3 1 .6 1.9 1 2.7.1.2.3.5.5.7-.1.4-.2.9-.2 1.4-.4-.5-.8-1-1.1-1.5zm.9 2.5c0 .4-.1.8-.1 1.3-.4-.3-.7-.6-1-.9-.2-.7-.4-1.4-.4-2.2v-.4c.4.8.9 1.5 1.5 2.2zm-1.5-11.4v.2c0 .2.1.4.1.6 0 .6-.1.7-.4.7 0-.7-.1-1.5-.3-2.3.4-.4.8-.8 1.3-1.1.2.8.3 1.6.4 2.4l-.3.3v-.1c0-.2-.1-.4-.2-.6 0-.1-.1-.2-.2-.2s-.1 0-.2-.1c0-.1-.2.1-.2.2zm-.9-1.7c-.2-.7-.4-1.3-.5-1.7-.2-1 0-2.1-.1-3.1.7 1 1.3 2 1.8 3.2.1.1.1.3.1.4-.4.3-.9.8-1.3 1.2zm9.4 7.6c-.7.4-1.4 1-2.1 1.5-.5.4-1.1.9-1.6 1.4-.3-.1-.6-.3-.9-.5h.1c1.7-1 3.6-2.6 4.4-4.5.1-.2-.1-.3-.2-.2-.7.7-1.3 1.5-2 2.2-.7.8-1.6 1.4-2.4 2.1-.1.1-.1.2-.1.3-.8-.5-1.4-1.2-1.8-2.2 0-.1 0-.1-.1-.2 1.8-.9 3.9-2.2 4.9-4.1.1-.1-.1-.3-.2-.1-.7.7-1.2 1.4-2 2.1-.8.8-1.8 1.4-2.8 1.9-.4-1.2-.4-2.4-.6-3.6.1-.1.2-.2.4-.3.1 0 .2 0 .2-.2 4.5-3.9 8.7-8.4 13-12.5 5.1-4.9 9.5-10.3 13.5-16.2v.3c0 .5.1.9.2 1.3.6 2.7.7 5.1 2.9 7 1.5 1.3 4.1 2.1 6.4 2-4.6 5-9.6 9.6-14.7 14-5 4.3-10.5 8.1-15.4 12.2-.9-.2-1.8-.4-2.6-.7.6-.4 1.2-.9 1.8-1.3.6-.5 1.2-.9 1.8-1.5.3-.1.1-.3-.1-.2zm-6.5 4.8c0-.5 0-1 .1-1.5 1 1.1 2.5 1.9 3.9 1.9-.3.3-.6.5-.9.8-.5.1-1 .4-1.4.7-.6-.7-1.1-1.3-1.7-1.9zm55.4-13.7c.1-.1.2-.3.4-.4.7.5 1.4 1 2.2 1.4-.9-.4-1.8-.7-2.6-1zm2.5 0c-.2-.1-.5-.3-.7-.4-.3-.2-.7-.4-1.1-.6.2-.3.4-.5.6-.8l1.2 1.8zm-6.3-9.9c-.8.6-1.5 1.3-2 2.1-.1.1.1.3.2.2.7-.5 1.5-1.3 2-2.1.5.6 1 1.2 1.5 2 1 1.7 1.8 3.5 2.9 5.2.1.2.2.4.4.6-.3.3-.6.5-.9.8-1.5-.8-3.1-2-2.9-3.5 0-.2-.3-.2-.3 0-.2 1.9 1.3 2.9 2.7 3.9l.1.1-.5.5c-.5-.2-1-.5-1.5-.8-2-1.2-3.1-2.6-3.6-4.9-.2-.9-.2-1.7-.4-2.6.7-.6 1.3-1.4 1.7-2.1.1.1.4.3.6.6zm-.9-.9c-.6.5-1.2 1.2-1.6 1.9 0-.2-.1-.4-.2-.6.4-.6.8-1.2 1-1.8 0-.1-.1-.1-.1 0-.4.5-.7 1.2-1 1.8-.1-.2-.1-.4-.2-.5.4-.5.7-1.1 1.1-1.6.5.3.7.5 1 .8zm9.3-19.2c-4.4 7.8-9.3 15.5-14.4 22.7-4.8 6.7-11.5 12.1-17.7 17.5-2.9 2.5-5.9 5-9 7.3-2.6 2-5.1 4.5-8.2 5.7-.2.1-.1-1-.1-1.2.1-.4 1.2-1 1.5-1.3 2.1-2 4.8-3.3 7.1-5.1 3.2-2.6 6.2-5.3 9.1-8.2 3-3 6.7-5.3 9.9-8.2 3-2.7 5.7-5.7 8.1-8.9 4.8-6.3 8.6-13.3 11.9-20.4 1.8-3.9 3.4-7.8 4.8-11.7 1.4-3.7 3-7.7 3.8-11.6.2.1.3.1.5.2h.4c-1.6 7.8-3.5 15.9-7.7 23.2zm3.7-27.7c.8.4 1.5.9 2.2 1.4.5.3.9.6 1.4.9.2.1.4.3.6.4 0 .7-.1 1-.5.7-.1 0-.2-.1-.4-.2 0-.2.1-.3.1-.5 0-.1-.2-.2-.2 0 0 .1-.1.2-.1.3-.3-.3-.6-.8-1-1-.4-.2-.8-.3-1.2-.5-.3-.1-.5-.2-.8-.4-.5-.3-.6-.7-.1-1.1zm-25.5 43.4c.6-.7 1.3-1.4 1.9-2.2 5.2-6.1 9.8-12.7 13.8-19.7 3.5-6.3 7.1-13.3 8.8-20.2v.1c.6.8 1.7.9 2.5 1.5.4.3.7.7 1 1-1.5 3.5-2.5 7.2-3.7 10.7-1.6 4.4-3.4 8.7-5.4 13-3.3 7.2-7.3 14.2-12.2 20.5-2.3 2.9-4.8 5.6-7.5 8.1-3 2.7-6.3 4.8-9.2 7.5-5.6 5.4-11.5 10.7-18 15-.7-1.4-1.9-2.5-3-3.5-.7-.7-1.5-1.7-2.5-2.2 6-4 11.8-9.1 17.4-13.9 5.5-4.7 10.8-9.7 15.7-15.2.2-.2.3-.4.4-.5zm-7.6-7.6c1.4 1 2.9 1.9 4.2 3 1.2 1 1.8 2.3 2.7 3.5l-.2.2-1.2-.3s0-.1-.1-.1c-1.2-.5-2.4-.7-3.5-1.4-1.1-.8-1.9-1.8-2.7-2.8-.1-.1-.3 0-.2.1.4 1.3 1.4 2.6 2.8 3.4-1-.3-2-.9-2.9-1.8-.9-.9-1.4-1.6-1.8-2.8-.2-.5-.8-2.8-.9-4.1.3-.5.7-1 1-1.6-.1 2 1.1 3.3 2.8 4.7zm14.8-44c-2.8 7.1-4.7 14.3-8 21.2-3.2 6.7-7.5 12.9-11.5 19s-8.5 11.5-13.6 16.5c-4.1 4-8.5 7.9-12.5 12 0-.7-.2-1.5-.4-2.3 4.3-3.9 8.6-8 12.6-12.4 3.6-4 6.6-8.4 9.6-12.9l.4.4c.2.1.4-.1.3-.3-.1-.2-.2-.5-.4-.7l2.4-3.6c4-6 8.8-11.6 11.9-18.3 2.8-5.9 5.2-12.4 6.8-18.7.4.2 1 .1 1.5.1.4 0 .8-.1 1-.2 0 .1-.1.2-.1.2zm-6.1-4.2c1.1-.6 2.1-1.6 3.3-.6.3.3.5.6.9.8.7.3 1.5.4 1.8 1.2.3.8.1 1.7-.9 1.8-1 .1-1.4-1.1-2.2-1.3-.6-.2-1.4-.2-2-.4-.7-.3-1-.9-.9-1.5zm-34.6 52.8c4.6-4.6 9.4-9.4 13.4-14.7 3.9-5.2 6.7-11.2 9.8-16.9 3.5-6.5 7.3-13 10.7-19.7l.1.1c.7.9 1.8.7 2.8 1.1.7.3.8.8 1.2 1.2-2.7 6.1-4.3 12.5-7.2 18.6-3.1 6.5-7.8 11.8-11.8 17.7l-2.4 3.6c-.8-.8-1.8-1.5-2.8-1.9-.6-.2-2.1-.3-2 .7h.1c.2-.3 1-.4 1.3-.4.2 0 .5.2.7.3.5.3 1 .6 1.5 1 .3.2.6.5.9.8-3 4.5-6.1 8.9-9.7 12.9-3.8 4.3-8 8.2-12.1 12.1-.7-1.7-1.7-3.2-2.9-4.1-.1-.2-.3-.4-.4-.6-.7-.7-1.9-.8-3-.7 0 0 0-.1-.1-.1h-.7c4.5-2.8 8.7-7 12.6-11zm-13.5 12.1c.7.1 1.3.2 2 .3 2.3.3 2.4 1.5 2.4 3.5 0 .8 0 1.3.2 2 .4 1 1.3 1.9 1.1 3.1-.6 3.3-3.8 1.8-4.7.3-.7-1.1-.7-2.5-1.2-3.6-.3-.7-1-1.3-1.2-1.9-.7-2.2.2-3 1.4-3.7zm-4.3 27.5c0 .1-.1.1-.1.2 0-.4.1-.7.1-1.1.1.1.1.3.2.4-.1.4-.1.8-.2 1.2v-.7zm.3-1.2c-.1-.2-.1-.3-.2-.5.1-.6.1-1.2.2-1.8.1.3.2.6.3.8l-.3 1.5zm.1 1.3c.2.5.4.9.6 1.3-.1.5-.1 1-.1 1.5-.2-.4-.4-.8-.6-1.1 0-.6 0-1.2.1-1.7zm-.2 2.9v-.4c.2.3.3.6.5.8 0 .1.1.1.1.2v2.9c-.2-.4-.4-.9-.6-1.3v-2.2zm.5 4.4c.1.1.1.2.2.4 0 .4.1.9.2 1.3-.4-.8-.7-1.7-.8-2.6.1.3.3.6.4.9zm.2 2.5c-.1-.3-.2-.5-.3-.8l.3.3h.1l.3 1.2c0 .1.2.1.3 0v-1.3c.2.3.3.6.5.9.1.8.3 1.6.6 2.3-.6-.8-1.3-1.5-1.8-2.4.1-.1 0-.1 0-.2zm.3-5.5c.3.6.6 1.1 1 1.7-.1.9-.2 1.8-.2 2.7l-.6-.9c-.1-.9-.2-1.9-.2-2.8v-.7zm.9 8.1c.4.4.8.8 1.2 1.1.1.5.2.9.3 1.4-.5-.8-1-1.6-1.5-2.5zm.8-1.2l.3.3v1.4l-.2-.2.1-.1c0-.5-.1-1-.2-1.4zm8.9 11.7c0-.1 0-.2-.1-.3l1.5 1.2c0 .1 0 .2.1.3-.5-.3-1-.7-1.5-1.2 0 .1 0 .1 0 0zm2.4 1.6c0 .1 0 .2.1.3-.1 0-.1-.1-.2-.1 0-.1-.1-.2-.1-.3.1.1.1.1.2.1zm.7.5c.1.1.3.2.4.3 0 .1.1.2.1.3-.1-.1-.3-.2-.4-.3-.1-.1-.1-.2-.1-.3zm21.6 19l-5.1-5.1c.5-.2.9-.4 1.4-.6l.9 1.2-.4.4c-.3.2.1.6.4.4.1-.1.3-.2.4-.3.4.5.7.9 1.1 1.4 0 .5.2.9.4 1.3.1.1.2.2.3.1l.2-.2c.3.4.6.7.9 1.1h-.1c-.2-.2-.5 0-.4.3zm-1.4-5.1c.3.4.5.7.8 1.1l-.6.6c-.3-.4-.6-.7-.9-1l.7-.7zm3.2 4.2c.3.3.5.6.8.9-.2.1-.4.3-.6.4-.2-.3-.4-.5-.6-.8l.1-.1c.1-.1.2-.2.3-.4zm-.8.1c-.3-.4-.6-.7-.9-1.1.2-.1.4-.3.5-.4.3.4.5.7.8 1.1l-.4.4zm-1.2-1.5c0-.1-.1-.1-.1-.2-.2-.2-.4-.4-.6-.7l.6-.6c.3.4.5.7.8 1.1-.3.2-.5.3-.7.4zm.8 2.4c.1 0 .1-.1.2-.1.2.2.4.5.6.7-.1.1-.3.1-.4.2-.1-.3-.3-.6-.4-.8zm15.9 6.1c-.2-.4-.5-.8-1-1-1-.5-2.1-.4-3.2-.5-1.6-.1-3.1.1-3.6-2.2-.2-.7.1-1.5 0-2.2-.1-.6-.3-1.1-.8-1.5-.5-.4-.9-.3-1.4-.5-1.4-.6-2.5-1.1-2.7-2.8-.3-2.3.3-4.9-1.6-6.7-1.7-1.6-4.7-1.4-6.9-1.3-2.1.1-4.3.5-6.2-.3-2.2-.9-3-2.9-3.5-5.1-.5-2.2-.8-4.9-2.4-6.6-2.8-2.9-9.2-1.6-9.4-6.9 0-.2-.2-.2-.3 0-1 2.8 1.6 4.8 3.8 5.7 1.9.7 3.9 1.2 5.3 2.7 1.4 1.5 1.6 3.5 2.1 5.4.3 1.1.6 2.1 1.1 3-.4-.3-.8-.6-1.1-.9-.8-.7-1.7-1.4-2.6-1.9-.1 0-.1 0-.1.1.7.9 1.8 1.7 2.7 2.4.7.6 1.5 1.2 2.2 1.7.5.5 1 .9 1.7 1.2 3.4 1.4 7.4-.8 10.8.9 3.9 1.9 1.9 5.5 3.6 8.4.4.7.9 1.1 1.7 1.4 1.6.7 2.9.9 3.1 3.1 0 .5-.1 1.1 0 1.6.6 2.4 3 2.2 5.1 2.3 1.5.1 2.5.1 3.2 1.9.3.7.1 1.7.3 2.5.1.3.1.5.3.7h-.5c-2.8 0-5.3-1.7-7.5-3.4.2-.2.4-.5.5-.7.1-.1-.1-.3-.2-.2-.3.1-.6.3-.8.5-.1-.1-.3-.2-.4-.3-.2-.1-.3-.3-.5-.4.5-.2.9-.6.9-1.3 0-.1-.2-.2-.2-.1-.3.4-.8.8-1.3.9-.3-.2-.5-.4-.8-.6.1-.1.2-.1.3-.2.4-.3.8-.6 1-1 .1-.1 0-.3-.2-.2-.5.1-.9.5-1.2.7-.1.1-.2.2-.4.3-.4-.3-.7-.6-1.1-.9.6-.5 1.1-1 1.6-1.6.1-.1 0-.2-.1-.2-.7.4-1.3.9-1.9 1.4-.3-.3-.6-.5-.9-.8l.4-.4c.4-.4.9-.7 1.2-1.2.1-.1-.1-.3-.2-.3-.5.1-1 .6-1.4 1l-.4.4c-.4-.3-.7-.7-1.1-1 .2-.1.3-.1.4-.2l.4.4c.1.1.3 0 .2-.2-.1-.2-.2-.3-.3-.5.2-.2.4-.3.6-.5.3.3.5.6.8.8.1.1.3 0 .2-.2-.2-.3-.5-.6-.7-1 .2-.2.4-.5.5-.8 0-.1-.1-.2-.1-.1-.2.2-.4.4-.6.5-.3-.4-.6-.8-1-1.2v-.1c0-.1-.1-.2-.2-.1-.3-.3-.5-.6-.8-.9l.2-.2c.1-.1 0-.2-.1-.2s-.2.1-.3.2c-.3-.3-.6-.7-.9-1 .4-.4.7-.8 1-1.2.1-.1-.1-.1-.1-.1-.4.3-.8.7-1.2 1-.3-.3-.6-.6-.9-1 .3-.3.6-.6.9-1 .1-.1-.1-.3-.2-.2-.7.4-1.2.9-1.8 1.4-.3-.3-.6-.7-.9-1 .6-.4 1.1-.8 1.5-1.3.1-.1-.1-.2-.2-.2-.6.4-1.1.8-1.7 1.1-.1-.1-.3 0-.2.2-.4.3-.9.5-1.4.7h-.1c-1.9-1.9-3.7-3.7-5.7-5.4-2.5-2.2-5.3-4.2-8.2-6.2 0-.1-.1-.1-.1-.2-.1-.2-.3-.2-.4-.1-.2-.2-.4-.3-.7-.5 0-.1-.1-.2-.1-.4v-.1c.3.2.7.4 1 .6.1.1.3-.1.2-.2l-1.5-1.2c-.1-.4-.2-.7-.3-1.1-.1-.2-.5-.1-.4.1 0 .2.1.4.1.5-.2-.1-.4-.3-.6-.4-.3-.8-.5-1.7-.9-2.5.1.7.2 1.4.4 2.1-.1-.1-.2-.1-.3-.2-.3-.9-.5-1.8-.9-2.5 0 .7.1 1.4.3 2.1-.5-.3-.9-.6-1.4-.8v-1.3c-.2.3-.4.7-.4 1.1-.2-.1-.5-.2-.7-.4.2.2.5.4.7.6v.4l-.1-.1c-.8-1.1-1.4-2.2-1.1-3.6 0-.2-.3-.3-.3-.1-.2.8-.2 1.8.1 2.7-1.5-1.3-2.9-2.6-4.2-4l.1-.1c-.5-1.3-.9-2.6-.9-4 0-.3-.4-.2-.4 0 0 1.2.2 2.5.7 3.6-.5-.6-1-1.2-1.4-1.8.1.1.2 0 .2-.1 0-.3 0-.7-.1-1 .1 0 .2-.2.1-.2l-.1-.1c0-.6-.1-1.2-.1-1.7 0 0 .1-.1 0-.1v-.1c0-.7.1-1.4.2-2.1.1-.3-.4-.4-.4-.1-.1.4-.1.8-.2 1.3-.2-.3-.3-.6-.5-.9-.1-1.1-.2-2.1-.2-3.2.3.5.7.9 1.1 1.3.1.1.2 0 .2-.2-.3-.8-.8-1.5-1.2-2.1 0-.2 0-.3.1-.5 0-.3-.3-.4-.4-.1v.1c-.2-.2-.3-.5-.5-.7l-.6-.9c0-.5 0-1 .1-1.6.4.7.9 1.4 1.5 1.9.1.1.3 0 .2-.2-.6-1-1.1-1.9-1.6-2.8 0-.5.1-.9.1-1.4 0-.1-.2-.1-.2 0-.1.3-.1.7-.2 1-.2-.4-.4-.8-.6-1.3.1-.6.1-1.1.2-1.7.6 1.2 1.4 2.2 2.5 3 .1.1.3 0 .2-.2-.8-1.2-1.7-2.3-2.4-3.6 0-.1-.1-.1-.1-.2 0-.2.1-.4.1-.6-.1.2-.1.4-.1.6-.2-.3-.3-.7-.4-1 .1-.4.1-.9.2-1.3.4 1 1 1.9 1.8 2.6.1.1.2 0 .2-.1-.9-1.2-1.6-2.4-2-3.6 0-.2 0-.5.1-.7.3.8.7 1.5 1.1 2.2.1.1.4 0 .3-.1-.4-1.1-.9-2.2-1.3-3.3v-1c0-1.4 0-2.7-.1-4 .7.7 1.6 1.3 2.6 1.7 2.5 1.2 5 2.3 4.9 5.7 0 2.2-.7 4.4-.7 6.5.1 2.9 1.4 5.8 3.7 7.6 2.6 2 5.7 1.4 8.9 1.6 3.6.2 5.2 1.9 5.1 5.6 0 1.6-.2 3.2.5 4.6.4.9 1 1.5 1.9 1.9.5.2 1.6 0 2 .3.7.5.4 1.6.6 2.3.4 1.4 1.2 2.2 2.3 2.7 0 .2.1.3.3.3h.3c1.3.4 2.8.4 4.2.3 2.9-.2 5.2.2 7 2.6 1.6 2.2 1.8 4.2.8 6.7-1.1 2.9-.2 4.5 3 4.5 2 0 3.5 1.3 3.8 3.3.1.7.2 1.3.7 1.9.3.4.6.7.9.9-.5.8-.9 2-.6 3.1zm.3-6.8c-.1-.7-.2-1.4-.6-2-.5-.9-1.2-1.4-2.2-1.6-.5-.1-1-.1-1.5-.1-.3 0-1.1.1-1.4 0-.3-.4-.5-.8-.8-1.2-.8-.6-1-1.2-.5-1.9.3-1.3.9-2.3.8-3.7 0-2.4-1.2-4.7-3.2-6-3.1-2-9.2.8-11.4-2.1-.9-1.2-.3-3-1.2-4-.5-.6-1.3-.5-2-.6-5.2-1.2-1.7-6.4-4.1-9.6-1.5-2-4.3-1.8-6.6-2-3.2-.2-6.2-1.9-8.1-4.4.1 0 .1 0 .1-.1.1-.5.2-1 .2-1.5.2.3.4.5.7.8 0 .4 0 .8.1 1.1 0 .2.3.2.4 0 .1-.1.1-.3.1-.5.3.2.7.4 1.1.6.1 0 .2-.1.1-.2-.4-.3-.8-.6-1.1-.9v-.3c.3.4.7.8 1.2 1 .1.1.3-.1.2-.2-.5-.7-1-1.3-1.4-1.9v-.7c0-.3-.4-.3-.4-.1-.2-.4-.3-.8-.4-1.2 0-.2-.3-.1-.3 0 .1.7.3 1.5.6 2.1 0 .2 0 .4-.1.6-.3-.3-.5-.6-.7-.9 0-1-.1-2-.1-2.9 0-.2-.4-.2-.4 0 0 .6-.1 1.2-.1 1.8-.4-1-.5-2.1-.4-3.2-.4 1.4-.2 2.9.4 4.2 0 .8 0 1.6.1 2.3-.3-.4-.6-.9-.9-1.3-2.1-3.9.5-8.3-1.2-12.3-.4-1.1-1.1-2-2-2.6-1.6-1.1-4.4-1.6-5.7-3.3-.1-1.2-.2-2.2-.4-3.3-.2-1-.2-1.4 0-2.6.3-1.7.6-1.4 1.6-2.5 0 .1.1.2.1.2.7 1.2 1.3 2.2 1.7 3.5.3.9.5 1.8 1.1 2.5.9 1.1 2.4 1.7 3.8 1.6.5 0 .9-.1 1.2-.3.1 0 .2.1.4 0 0-.3.4-.5.7-.5.7.1.5 2 .6 2.6-.3.6-.5 1.3-.6 2-.5-1-.9-2-1.3-3h-.1c.1 1.3.5 2.7 1.2 4-.1.8-.1 1.6 0 2.4-.1-.1-.2-.2-.2-.3-.8-1.2-1.5-2.5-1.8-3.9.2 1.9 1 4.1 2.4 5.6.2.7.6 1.4 1 2 .1.1.3 0 .3-.2l-.3-.9.6.3c0 .8.1 1.7.3 2.5-.9 1.7-.2 3.7 1.1 5.2.2 1 .6 1.9 1.2 2.7.1.1.3 0 .2-.1-.3-.6-.5-1.3-.7-1.9.5.5 1 .9 1.6 1.2.2.8.7 1.6 1.5 2 .1.1.2-.1.2-.2-.4-.4-.7-.9-.9-1.4.5.2 1 .4 1.5.5.2 0 .3-.2.1-.3-.7-.4-1.3-.7-1.9-1.1 0-.3-.1-.6 0-1 0-.3-.4-.3-.5 0v.6c-.5-.3-.9-.7-1.3-1.1l-.6-.6c-.2-.9-.2-1.8-.1-2.8.4 1.1 1.1 2.1 1.9 2.9.8.8 1.6 1.3 2.2 2.1.3.4.6.8 1.1 1 .6.2 1.3 0 2-.3.2.1.5.2.8.2-.1-.2-.3-.3-.4-.4.3-.2.5-.4.8-.5.3.2.6.3.8.5.4.2.9.6 1.3.5 0 .2 0 .4.1.6v1.8c0 .7 0 1.5.2 2.2-1.3-1.3-1.8-3-2.2-4.8-.4 2.2.8 4.7 2.6 6.2.2.5.5.9.9 1.3.1.1.4 0 .3-.2 0-.1-.1-.2-.1-.3.6.3 1.2.5 1.8.6.2.5.5.9 1 1.3.1.1.3 0 .2-.2-.2-.3-.4-.7-.5-1.1.3 0 .5 0 .8-.1-.1 1.1.1 2.1.6 3 .1.1.4.1.3-.1-.1-1.3-.4-2.5-.4-3.8.1 0 .2 0 .3.1.8.6 1.6 1.2 2.5 1.6-1.4 1.1-.5 6.1.1 7 1.2 1.8 4 2.5 5.8 3.4 1.2.6 2.3 1.2 3.3.6.1 0 .2 0 .3-.1.2-.1.4-.3.6-.4.4 2.2 1.6 4.7 3.6 5.7.2.1.4-.1.2-.3-.8-1-1.8-1.9-2.5-3-.3-.5-.6-1.1-.8-1.7-.1-.4-.3-.7-.3-.9.3-.2.6-.4.9-.7.8-.6 1.6-1.1 2.3-1.7-.7 3.3 2.3 7.7 5.5 9-.1.1-.2.1-.3.2-.3.2-.2.5-.1.6-1.5.3-2.6 1.5-1.8 3.1.7 1.4 2.7 2.5 4 3.4 1.1.9 2.4 2.3 4 2 .1 0 .2 0 .3-.1 0 1.6-.3 3.2-.9 4.3-.7 1.3-2 2.1-3 3.1-.6-.3-.9-1.4-1.1-2.2zm9 2.9c-.2.5-.3.9-.5 1.4-.5.3-1.1.5-1.6.8l.3-1.2c.7-.4 1.3-.7 1.8-1zm-1.5 0c0-.2.1-.4.2-.6.6-.2 1.2-.5 1.8-.7-.1.2-.1.4-.2.5-.6.3-1.2.5-1.8.8zm-.8 3.1c.6-.4 1.1-.7 1.6-1.1-.3.8-.6 1.5-.8 2.3-.5.2-1 .5-1.5.7.3-.6.6-1.3.7-1.9zm-.8-.3c-.6.4-1.2.7-1.7 1.1l.3-1.5c.7-.3 1.3-.7 2-1-.3.5-.4.9-.6 1.4zm.9-2.4c-.7.4-1.5.8-2.2 1.2 0-.1 0-.2.1-.3.1-.2.1-.5.2-.7.7-.3 1.5-.6 2.2-.8-.2.1-.2.4-.3.6zm-2.4-.3c-.7.3-1.4.5-2 .9.7-1.1 1.8-1.8 2.7-2.8-.3.6-.5 1.3-.7 1.9zm-2.8 1.3c.3-.3.6-.6 1-.9l-1 .9zm.2.7c.1-.2.2-.5.3-.7.7-.1 1.4-.3 2.1-.6-.1.2-.1.4-.2.6 0 .2-.1.4-.1.6-.8.5-1.6 1-2.3 1.5-.2.2 0 .5.2.4.6-.3 1.2-.6 1.8-1-.1.6-.3 1.1-.4 1.7-.6.4-1.1.8-1.6 1.3.5-.2 1-.5 1.5-.7v.9c0 .2.3.2.4 0 .2-.4.3-.9.4-1.4.5-.3 1.1-.6 1.6-.9-.2.6-.3 1.1-.4 1.7-1 .6-2 1.2-2.9 1.8-.9-1.5-1.1-3.5-.4-5.2zm48.6-24.3c-1.2 1.8-2.8 3.5-4.8 4.8-2.7 1.7-4.8 3.3-7 5.5-2 2.2-4 4.3-6.2 6.3-2.3 2.1-4.9 3.9-7.8 5.2-3.2 1.4-6.6 1.8-9.8 2.9l-1.5.6c.1-.2.1-.4.2-.5.2-.5.5-1 .9-1.4.2-.3-.3-.7-.5-.4-.4.5-.7 1-1 1.5-.1.3-.4.8-.3 1.2-3.3 1.5-6.4 3.8-9.8 4.7-.1-.2-.2-.3-.3-.5.9-.4 1.8-.8 2.7-1.3 0 .2.3.2.4.1.1-.1.1-.3.2-.4.6-.3 1.2-.7 1.8-1v.2c0 .2.2.2.3.1.2-.2.3-.5.4-.7.4-.3.8-.5 1.1-.8.1-.1.1-.3-.1-.2-.3.1-.5.2-.8.3l.6-1.8c.3-.9.6-1.7.9-2.6.3-.2.6-.3.9-.5.2-.1.1-.3-.1-.3-.2.1-.4.2-.6.2.1-.2.1-.3.2-.5v-.1c.5-.2 1-.5 1.5-.7.1-.1 0-.3-.1-.2l-3.9 1.5c-.1-.2-.4-.2-.5 0 0 .1 0 .1-.1.2l-.9.3c-.5.2-.9.4-1.4.5.2-.8.4-1.6.5-2.3.2-.3.4-.7.6-1 .2-.6.4-1.3.5-2 2.2-.8 4.5-1.6 6.6-2.6.2-.1 0-.3-.1-.3-2.2.6-4.3 1.6-6.4 2.5.1-.7.1-1.4 0-2.1.3-.2.7-.4 1-.5.8-.3 1.5-.5 2.2-.8.1-.1 0-.3-.1-.2-.1 0-.2 0-.2.1 7.3-3.9 14.4-8.6 21.6-12.9 6.5-3.9 12.7-8 18.3-13.1.2.6.5 1.2.7 1.8 0 .1.1.2.1.4-.4.3-.7.6-1.1.9-1.1 1-2.4 1.9-3.3 3 0 .1 0 .1.1.1 1.2-.7 2.2-1.6 3.2-2.4.4-.3.8-.7 1.3-1 .1.4.3.8.4 1.2l-1.3 1.3c-1.3 1.3-2.8 2.4-4 3.8 0 0 0 .1.1.1 1.5-.9 2.9-2.2 4.2-3.4h.1l-.2 1.5c-.3.3-.5.6-.8.9-1.1 1.2-2.4 2.3-3.4 3.5-.1.1.1.2.1.1 1.4-1 2.7-2.2 3.9-3.5l-.1.5c-.2.7-.4 1.2-.4 1.4v.2l-1.2 1.3c-.7.7-1.4 1.3-2 2-.1.1 0 .3.1.2.9-.6 1.9-1.4 2.8-2.2l-.3 1.5c-1.2 1-2.4 2-3.5 3.1 1.2-.6 2.3-1.5 3.4-2.4v.6c0 .2.1.2.3.2l-2.8 2.8c-.1.1.1.3.2.1 1.5-1.5 3.1-2.9 4.6-4.4-.3-.4-.3-.3-.3-.2zm-.3-7.8c0-.1-.1-.1-.1-.1.4-.3.7-.6 1.1-1l.3.6.1.1-1.3 1.3v-.3c.1 0 0-.4-.1-.6zm.3 7.2c-.6.5-1.1 1.1-1.7 1.6.2-.4.3-.9.4-1.3l.3-.3c.3-.3.7-.6 1-.9v.9zm.2-1.8c-.4.4-.9.8-1.3 1.2.1-.5.2-1 .2-1.5.5-.5 1-1 1.4-1.5l-.3 1.8zm.5 1c.1-.3.1-.6.2-1l.4-.4c-.2.5-.4 1-.6 1.4zm.9-2.3l-.6.6c.1-.6.2-1.3.3-1.9.3-.4.5-.7.8-1.1-.1.8-.3 1.6-.5 2.4zm-.1-2.7c0-.1 0-.2.1-.3 0-.2-.3-.3-.3-.1-.1.3-.2.6-.2 1-.3.4-.7.8-1 1.2l-.6.7.3-1.8c.8-.8 1.6-1.7 2.3-2.6 0 .4.1.9.1 1.3-.3.2-.5.4-.7.6zm.1-2.3c0-.4.1-.7 0-1.1l.1-.1c.1.3.1.6.2 1-.1 0-.2.1-.3.2zm.8-3.4c-.5-.1-1 .2-1 .7 0-.1-.1-.2-.1-.3.3-.3.6-.5.8-.8.1-.1 0-.3-.2-.2-.3.2-.6.4-.8.5-.3-.8-.7-1.5-1.2-2 .3-.3.7-.6 1-1 .6 1 1.2 2 1.5 3.1zm-1.3-4.8l-1.9 1.9c-.2-.1-.4 0-.4.2v.2c-12.7 11.8-28.8 18.5-42.4 27.9.2-.8.3-1.6.4-2.4 0-.2-.2-.3-.3-.1 0-.2 0-.4-.1-.6 7.7-3.5 15.2-8 22.5-12.7 7.3-4.7 14.2-10.2 20.5-16.3 13.2-12.9 24.5-28 36.3-42.9.3 0 .6.1.9.1-10.8 15.7-22.5 31.4-35.5 44.7z"/></symbol></svg>