<svg aria-hidden="true" width="0" height="0" style="position:absolute"><symbol fill="curentColor" viewBox="0 0 120 122" id="categoriesc" xmlns="http://www.w3.org/2000/svg"><path d="M64.305.032c3.388-.254 6.467 1.054 9.62 1.945 3.331.993 6.76 1.62 10.227 1.87 3.744.221 7.347 1.3 10.998 2.083 1.678.361 3.426.395 5.039 1.069a5.275 5.275 0 012.167 1.451c.432.498.951.913 1.531 1.225a13.531 13.531 0 015.791 6.364c2.033 4.446 4.717 8.491 7.46 12.497 1.282 1.874 1.417 3.803 1.065 5.91a24.613 24.613 0 00.025 7.435c.54 4.124.353 8.31-.554 12.369-.613 2.9-.307 5.696.431 8.458a28.775 28.775 0 01.998 8.412c-.066 1.88.179 3.758.725 5.558.527 1.727-.168 2.704-1.956 2.704-4.591 0-9.097.612-13.575 1.55-3.474.72-6.924.413-10.386-.19-3.083-.536-6.202-.307-9.293-.074-1.941.138-3.9 0-5.816.49-.8.196-.962.53-.919 1.25a24.14 24.14 0 00.677 4.078c.691 2.937.67 5.932.777 8.927.141 3.98.38 7.962 1.087 11.888.042.304.127.601.25.882 1.265 2.526.35 4.755-.918 6.936a1.94 1.94 0 01-1.313 1.032c-1.604.278-3.153.729-4.864.45-1.57-.251-3.186.327-4.787.468-3.13.249-6.278.156-9.388-.275-2.345-.306-4.717-.411-7.059-.732-1.32-.181-2.587-.692-3.9-.919-2.121-.383-3.844.815-5.62 1.651a27.63 27.63 0 00-3.872 2.263c-.796.551-1.439 1.332-2.124 2.03-1.225 1.256-1.855 1.225-2.951-.147a28.425 28.425 0 01-2.703-3.981 36.77 36.77 0 00-4.534-6.501c-2.65-3.004-4.814-6.37-7.18-9.585A126.605 126.605 0 007.338 86.866c-1.748-1.76-3.98-2.967-5.51-5.01C.234 79.74-.501 77.46.372 74.963c1.555-4.437 1.705-9.01 1.705-13.621v-11.87c0-3.454-.27-6.892-1.157-10.236-.836-3.149.413-4.01 2.954-5.433 2.448-1.375 5.118-1.05 7.747-.64a4.85 4.85 0 001.598.058c2.565-.471 5.026.08 7.502.662 1.981.465 3.995.787 6.028.287.848-.208 1.49-.425 1.24-1.665-.307-1.464-.04-2.998.419-4.435.586-1.913.801-3.921.633-5.916-.241-3.408-.37-6.817-.462-10.231-.043-1.556-.612-3.062-.444-4.673.205-1.997.68-2.554 2.676-2.676 3.725-.23 7.346-1.149 11.02-1.571 2.929-.334 5.861-.65 8.778-1.07 3.554-.51 7.096-1.105 10.634-1.702a19.786 19.786 0 013.062-.199zm-28.72 43.484c.76 1.005 1.837 1.048 2.967 1.042 3.909-.019 7.818 0 11.73 0 .168 0 .389.08.52-.306-.612-.028-.814-.702-1.58-.687-4.545.09-9.09.184-13.636-.051.327-.414.774-.408 1.249-.402 1.996.033 3.992.053 5.99.062h6.147c-.487-.92-1.096-1.198-2.002-1.173-2.342.061-4.687.052-7.04 0-1.1-.025-2.195-.202-3.294-.306l.024-.39c3.6.258 7.211.326 10.818.203-.823-1.332-.827-1.348-2.143-1.33-2.03.028-4.053.359-6.088.221-.306-.021-.726.193-.873-.444 2.645.089 5.235-.239 8.017-.306-.471-.52-.444-1.35-1.108-1.24-1.95.306-3.915-.037-5.859.263-.395.061-.9.306-1.255-.285 2.391-.45 4.766-.23 7.12-.327 0-.843-.48-.938-1.083-.898-1.57.114-3.147.114-4.717 0-.211 0-.579.153-.585-.447 1.224.061 2.427.147 3.636.175.683 0 1.678.282 1.953-.273.307-.612-.596-1.191-.918-1.816-.97-1.917-2.556-2.177-4.435-1.669a.917.917 0 01-.306.074c-3.576-.438-6.854.456-9.903 2.254.392.352.839.71 1.225 1.12 1.408 1.458 2.219 3.369 3.688 4.802.652.643 1.417 1.216 1.736 2.135h.006zm39.412 49.539c.269-.65.095-.897-.557-.542-1.5.824-3.077.744-4.672.444-.56-.104-1.108-.361-1.68-.135-1.684.665-3.367.888-5.112.184a1.288 1.288 0 00-1.148.11c1.742 1.36 3.725 1.44 5.672 1.164a15.635 15.635 0 013.98-.11 4.126 4.126 0 003.529-1.152c.272.398.015.659-.263.873-.845.65-1.806 1.09-2.869.858a8.135 8.135 0 00-3.419-.11 11.34 11.34 0 01-5.969-.307c-1.757-.567-3.502.193-5.246 0-.435-.046-1.182.355-1.225-.374-.043-.728.796-.523 1.225-.74.156-.077.382 0 .569-.031.79-.163 1.616-.218 2.357-.677l-.722-.879c.841-.251 1.046.876 1.873.677.897-.212 1.809 0 2.684.37a3.34 3.34 0 002.755-.08 4.535 4.535 0 013.367-.15c1.638.54 3.135.028 4.62-.612.284-.122.306-.233.272-.493a31.007 31.007 0 01-.523-3.616c-.065-1.415-1.225-1.225-1.966-1.348-.74-.122-1.203.56-1.343 1.302-.065.349-.157.851-.398.903-1.225.263-1.965 1.418-3.208 1.644-.876.157-2.02.068-2 1.495 0 .101-.253.306-.305.306-.674-.306-1.4.355-2.103-.208-.704-.564-1.625-.983-2.403-1.531-2.075-1.449-4.126-2.93-6.186-4.4.67 1.604.073 2.948-.613 4.314a3.802 3.802 0 00-.358 2.327c.254 1.795 1.114 3.412 1.402 5.17.15.918.536 1.123 1.35 1.065a3.02 3.02 0 001.225-.26c1.13-.594 2.206-.435 3.244.202.764.433 1.498.916 2.198 1.445 1.466 1.182 3.104 1.32 4.867.993.793-.147 1.613-.239 2.382.045 1.549.573 3.165.769 4.766 1.085.771.15.74-.12.74-.613 0-1.531.114-3.084-.036-4.593-.144-1.384-.025-2.796-.76-4.027l.007.012zm35.89-35.008c-1.53.156-3.003-.214-4.46-.612-.346-.092-.802-.215-.728-.73.067-.462.496-.581.863-.612 1.035-.049 2.048-.245 3.089-.278 2.179-.065 4.349-.285 6.529-.408.523-.027.679-.226.566-.71-.101-.429-.202-.809-.808-.686a24.568 24.568 0 01-5.36.386 12.739 12.739 0 00-3.291.389c-1.49.367-2.999.539-4.539.18-1.782-.413-3.563-.53-5.204.512-.284.177-.597.1-.897.138-1.093.137-2.109-.26-3.159-.432-1.392-.227-2.727.1-4.037.612.918-1.283 3.453-1.874 5.115-1.127 1.285.58 2.415.447 3.584-.18 1.561-.836 3.233-.827 4.925-.613.986.126 1.975.512 2.957.306 2.312-.508 4.647-.41 6.98-.382a21.338 21.338 0 003.257-.359c-1.164-.284-2.119-.159-3.062-.1-2.421.146-4.821-.35-7.242-.148-1.834.15-3.677.144-5.51-.018a20.002 20.002 0 00-4.591.064c-3.713.552-7.42 1.173-11.204 1.017-3.514-.147-6.997-.983-10.526-.64-3.24.306-6.401-.052-9.661-.686a44.15 44.15 0 002.862 4.498c.67.92 1.53 1.134 2.473 1.088a71.45 71.45 0 019.649.067c1.025.124 2.06.162 3.091.113 2.51-.205 4.996-.885 7.533-.499 1.757.267 3.487.368 5.235-.046 1.337-.306 2.69-.557 4.031-.851.918-.196 1.877.168 2.755-.38-3.006-.086-6.045.557-8.996-.453 1.515-.205 3.042-.052 4.536-.493 1.494-.441 3.021.037 4.521.334.466.092 1.017.1 1.026.667 0 .655-.597.698-1.09.726a11.673 11.673 0 00-3.802.723 11.603 11.603 0 01-6.615.72c-1.653-.307-3.34-.812-5.09-.331-3.673 1.007-7.414.646-11.158.355-2.106-.163-4.236-.028-6.547-.028.796.833 1.628.613 2.37.54 1.22-.123 2.448-.15 3.672-.08 3.918.306 7.837.857 11.74-.212 1.53-.42 2.53.04 3.272 1.403.492.919 1.141.989 2.01.701 1.299-.426 2.56-1.053 3.98-.983a6.876 6.876 0 004.044-1.01 5.028 5.028 0 013.061-.665c2.218.147 4.447.008 6.63-.413.416-.083.952.19 1.224-.37 1.739.17 3.496.063 5.229.339.208.034.551.254.673-.15a.613.613 0 00-.346-.763c-.976-.41-2.042-.465-3.061-.7-.679-.157-.774.474-1.139.74a2.518 2.518 0 01-1.365.518l.006.012zm-38.318 52.411l.392.453c-.024.475 0 .919.56 1.109.247.101.474.245.67.425.19.163.628.086.509.653-1.494-.65-2.832-2.288-4.644-.812l2.314 1.384c-1.35-.229-2.449-.918-3.535-1.647-1.173-.781-2.41-.806-3.744-.613l4.068 2.909c-3.091-1.007-10.683-6.899-10.762-8.188.532.367.796 1.032 1.509 1.182-.337-1.626.866-2.68 1.328-3.981a.983.983 0 00-.07-.986c-1.304-2.346-3.606-2.281-5.795-2.533-.076.705-.104 1.317-.214 1.917-.637 3.467-1.292 6.94-.986 10.486.11 1.301.046 2.774 1.806 3.298 2.789.833 5.599 1.117 8.464.575 3.15-.609 6.364-.83 9.569-.658.878.049 1.98-.138 2.336-1.185a6.157 6.157 0 00.306-2.484c-.26-2.78-.919-5.512-.9-8.381-1.806.435-3.487.049-5.17-.214-1.06-.166-2.143-.224-2.9.627-.89 1.005-1.836 1.124-2.972.613-.75-.343-1.3 0-1.686.551-.478.689.027 2.401.673 3.041 1.751 1.73 4.286 1.053 6.217 2.168-1.723-1.577-3.759-2.719-5.298-4.459a85.923 85.923 0 015.76 4.076 2.76 2.76 0 002.195.674zM43.851 59.26c-1.14-1.893-2.284-3.776-3.91-5.313-1.72-1.633-3.672-3.029-5.029-5.023-.477-.7-.98-1.258-1.91-1.224-.067 0-.144-.163-.257-.307l.854-.177a11.58 11.58 0 00-2.895-3.384c-.962-.79-1.953-1.507-3.368-1.173-.994.23-2.054.162-3.082.27-.612.064-1.607-.334-1.77.235-.162.57.73 1.026 1.314 1.403.67.429 1.374.848 1.708 1.641a.636.636 0 01-.025.653c-.196.281-.41.091-.593 0-1.953-1.057-3.854-2.144-4.975-4.223-.508-.94-1.031-2.092-2.608-1.868.943-.555.39-.867-.024-1.14-1.635-1.068-3.245-2.165-4.527-3.674-.23-.273-.741-.493-.438-.919.303-.426.707 0 1.044.08.83.205 1.472.86 2.409.894 2.084.08 4.13-.401 6.214-.334-4.766-.612-9.438-2.171-14.387-1.323 1.463 1.35 3.333 1.988 4.793 3.179 3.092 2.523 6.043 5.206 8.544 8.348 2.5 3.142 5.038 6.124 8.47 8.357 2.846 1.837 4.76 4.526 5.237 8.044.242 1.77.594 3.525.863 5.292.117.768.392 1.05 1.203.732a7.084 7.084 0 012.45-.506c1.297-.024 1.606-.588 1.297-1.886-.175-.738-.866-1.032-1.093-1.712a9.414 9.414 0 00-2.394-3.98c-.257-.246-.645-.577-.306-.98.34-.405.766-.15 1.139.042a5.107 5.107 0 012.449 2.496c.667 1.531 1.5 2.915 2.896 3.914.45.295.82.698 1.074 1.172.33.726.85.836 1.481.69 1.455-.337 2.893-.742 4.344-1.09.41-.099.493-.218.276-.613-1.53-2.756-3.842-4.796-6.383-6.596l-.085.003zm20.282 22.256a2.348 2.348 0 011.454-1.013 7.739 7.739 0 013.3-.193c2.874.358 4.194-2.144 4.56-4.287.613.306.656.94.717 1.439.279 2.281.49 4.572.716 6.856.248 2.511.282 5.062.775 7.521.985 4.934 1.096 9.956 1.75 14.92a22.247 22.247 0 01-.422 7.417 1.225 1.225 0 00.716 1.411c.518.264.812-.282 1.072-.612a4.062 4.062 0 00.75-3.265c-.487-2.624-.168-5.285-.46-7.922-.379-3.46-.538-6.945-1.052-10.396-.456-3.062-1.277-6.082-1.332-9.215-.04-2.263-.223-4.526-.306-6.789-.021-.532-.196-.78-.918-.612 1.386-1.491.728-3.01.19-4.287-.65-1.55-1.36-3.08-1.938-4.658a18.585 18.585 0 00-5.284-7.692c-2.1-1.838-3.979-3.847-5.203-6.376-1.087-2.236-2.63-4.116-4.76-5.34-2.985-1.722-4.785-4.312-6.202-7.332-1.362-2.894-3.1-5.555-5.491-7.738-1.12-1.023-2.45-1.197-3.89-.484a31.336 31.336 0 014.052 5.13c.612 1 1.163 1.837 2.51 1.5.034 0 .086.073.135.113-.306.52-.867.196-1.258.41 0 .524.385.837.704 1.143a23.966 23.966 0 015.317 7.416 5.373 5.373 0 001.928 2.248c3.652 2.45 6.456 5.852 9.817 8.624.93.75 1.753 1.622 2.449 2.593 1.004 1.43 2.2 2.756 2.59 4.628-.181-.047-.28-.04-.307-.083a1.882 1.882 0 01-.248-.386c-1.374-2.756-3.278-4.96-6.17-6.213a2.911 2.911 0 01-1.195-.873c-.575-.806-1.288-.766-2.142-.665-2.431.291-4.89.248-7.31-.128.263-.58.689-.359 1.035-.306 2.106.263 4.218.104 6.327.116.306 0 .958.131.838-.426-.082-.395-.244-1.133-1.04-.919-1.61.432-3.288.08-4.898.417-.306.064-.805.211-.918-.395a33.23 33.23 0 015.256-.27c.753.022.881-.269.486-.888-.9-1.408-1.98-2.64-3.459-3.448-2.231-1.225-4.138-2.667-4.897-5.3-.377-1.311-1.038-2.144-2.896-1.982-3.777.306-7.595.092-11.396.092h-.998c.373 1.136 1.096 1.378 2.081 1.387 3.606.037 7.209.147 10.815.233.153 0 .358-.074.59.389-4.126.272-8.114-.444-12.13-.117.18.76.646 1.103 1.457 1.115 2.642.034 5.253.542 7.9.478.227 0 .567-.089.64.407-2.978.172-5.914-.465-8.852-.416a.739.739 0 00.37.851c2.449.919 5.124.138 7.613.885-2.4.153-4.81.094-7.2-.175 1.017 1.103 1.66 2.034 2.602 2.732 3.187 2.361 6.174 4.93 8.219 8.415 1.12 1.905 2.78 3.369 4.221 4.989a.676.676 0 00.468.263c2.005.23 4.01.49 6.018.686 1.938.193 3.894.239 5.816.514.919.129 1.963.059 2.755.769-.612.407-1.224-.416-1.916.08.787.306 1.16 1.277 2.26.747.918-.447.56-1.571 1.328-2.144.232 1.338-.212 2.26-1.36 2.91l1.978 1.442c-1.377.233-2.207-2.26-3.774-.331 1.224-.055 1.638.992 2.449 1.491.53.331 1.08.613 1.665.962-1.197.349-1.286.551-.545 1.406-.643-.117-1.377-.5-1.613.306-.215.74.707.612.998.995.027.037-.019.135-.034.214-.26.227-.462-.257-.716-.064.266 1.7-.539 2.649-2.302 2.686-.765.018-1.53 0-2.302 0a4.74 4.74 0 00-2.366.744c-.75.44-1.053 1.007-.193 1.666a.78.78 0 00-.87-.034c-.31.305-.584.645-.817 1.014.306.165.42.722.919.453.612-.328 1.059 0 1.34.471.282.472-.015.94-.394 1.308-.13.123-.325.22-.206.517 1.44-.1 1.136-2.55 2.991-2.143a3.237 3.237 0 00-2.24-.763c-.567.007-1.03-.073-.732-.839h.015zm19.456-10.745c.428-.613.85-1.256 1.286-1.877.34-.484.777-1.048 1.383-.781.68.306.306.967.196 1.53-.355 1.63-1.194 3.115-1.445 4.784.423 0 .665-.508 1.252-.153-1.19.689-2.182 1.488-2.295 2.912.918-.438 1.496-1.445 2.614-1.595-1.693 1.39-3.123 3.093-5.137 4.113 2.011-.09 3.924-.674 5.908-.613.288 0 .377-.205.398-.46.205-2.6 1.797-4.259 3.768-5.729 2.143-1.601 4.215-3.286 5.452-5.787 1.236-2.502 3.495-4.104 5.773-5.61.278-.184.563-.506.918-.212.432.358.043.723-.125 1.005a21.045 21.045 0 01-2.498 3.267 11.676 11.676 0 00-2.755 4.982 2.7 2.7 0 001.335-.578c.844-.72 1.711-1.412 2.562-2.126.361-.306.74-.634 1.224-.431.484.202.499.664.376 1.077-.143.49.178.478.469.564.575.174 1.022.52.753 1.167-.27.646-.833 1.338-1.577.964-1.496-.756-2.17.202-2.874 1.155-.57.771-1.01 1.794-1.88 2.125-2.142.805-3.29 2.68-4.897 4.054-.177.153-.285.496-.655.285.018-.484.428-.695.704-.98a77.4 77.4 0 012.608-2.606c.676-.64 0-1.13-.19-1.61-.196-.53-.689-.15-.961.024-2.32 1.473-4.536 3.062-6.235 5.43 1.282.159 2.449.25 3.609.459 3.247.585 6.462 1.145 9.749.098 4.809-1.531 9.749-1.415 14.693-.919.446.092.897.157 1.35.196.477 0 .918-.227.364-.763a3.094 3.094 0 01-.842-2.32c.065-4.34-1.013-8.609-.74-12.963.061-.983-.163-1.982-.199-2.974-.019-.465-.273-.579-.637-.637-1.283-.208-2.602-.637-3.863-.306-2.375.594-4.815.171-7.178.652-1.442.306-3.061-.199-4.322.35-2.942 1.264-6.224.985-9.135 2.3-1.013.455-1.992.15-2.565-1.033-.496-1.017-1.386-1.344-2.516-1.066-.959.242-1.93.433-2.908.573a1.224 1.224 0 00-.848.49c-1.953 2.386-4.316 4.367-6.541 6.477-.612.588-.897 1.09-.383 1.837.413-.193.514-.63.698-.986a7.348 7.348 0 012.057-2.431c.242-.19.582-.502.918-.202.337.3 0 .554-.088.832-.089.28-.389.585-.306 1.036 2.372-2.257 4.591-4.594 7.37-6.247-2.448 2.097-4.677 4.461-7.196 6.47-.857.683-.842 1.375-.734 2.125.15 1.041.465 2.061.397 3.302 1.148-.861 2.174-1.636 3.205-2.401.612-.447.612-.444 1.179-.166-1.42.763-2.611 1.838-3.89 2.802-1.182.88-1.36 1.366-1.017 2.937 2.072-1.605 4.708-2.649 4.864-5.812zM34.719 8.193c.662.472 1.081 1.106 1.74 1.106 1.297 0 2.595 0 3.899-.12 2.1-.211 4.206-.545 6.33-.23-3.199.362-6.391.79-9.758.852.838.964 1.647 1.552 2.856 1.329 1.27-.236 2.543-.478 3.829-.613 1.439-.156 2.877-.508 4.347-.174l-8.789 1.301c.512.331.78.54 1.08.69a24.338 24.338 0 019 7.879 9.088 9.088 0 002.92 2.731 46.747 46.747 0 0110.234 7.938 1.394 1.394 0 001.435.444c2.856-.683 5.715-.307 8.571.018 2.017.233 4.016.42 6.058.138 3.771-.515 7.558-.793 11.326-.043 2.68.517 5.427.594 8.133.23 4.475-.57 8.926-.723 13.386.183 2.059.436 4.195.33 6.201-.306-.269-.438-.499-.784-.707-1.142-2.311-3.96-5.014-7.693-6.847-11.925-.983-2.269-2.379-4.177-4.46-5.567a13.069 13.069 0 01-3.128-3.035 3.33 3.33 0 00-1.947-1.304c-3.22-.787-6.33-1.95-9.508-2.876-1.616-.468-3.29-.673-4.986-.263a7.668 7.668 0 01-3.98-.184 78.956 78.956 0 01-4.15-1.341c-3.291-1.167-6.603-2.107-10.16-1.917-1.371.07-2.755-.208-4.135-.217-4.25-.037-8.492-.08-12.655 1.038a59.056 59.056 0 01-11.54 1.883c-2.733.175-5.256 1.436-8.167 1.44 1.889 1.405 3.689 1.782 5.816 1.163 1.364-.39 2.755-.68 4.16-.867-1.919 1.136-4.141 1.204-6.403 1.761zM20.16 51.39c-3.334-3.491-7.041-6.59-10.678-9.763-1.496-1.308-2.886-2.756-4.796-3.519-2.272-.894-2.755-.544-2.532 1.88.202 2.328.423 4.652.585 6.98.193 2.79.435 5.567.86 8.335.465 3.029.977 6.054.585 9.153a46.457 46.457 0 01-1.962 8.269c-.919 2.915-.686 5.481 1.343 7.962 1.516 1.852 3.319 3.405 4.834 5.245 4.27 5.188 8.877 10.075 13.468 15.005a43.457 43.457 0 013.346 4.101c2.737 3.769 4.953 7.839 7.04 11.982.346.683.65 1.418 1.473 2.074-1.133-4.061-1.261-8.06-2.054-11.962.97 1.023 1.12 2.364 1.506 3.614.86 2.756 1.053 5.732 2.37 8.372.177.361.256 1.053.917.75.564-.26.79-.707.5-1.421a37.662 37.662 0 01-1.262-3.778c-.786-2.784-1.056-5.696-2.109-8.419-.57-1.466-1.056-2.995-1.065-4.569-.021-3.13-.667-6.124-1.589-9.085-.088-.279-.223-.613.095-.895.089.083.165.178.227.282a79.207 79.207 0 014.22 18.101c.307 2.778 1.087 5.457 2.018 8.232a10.382 10.382 0 014.414-3.225c.499-.187.334-.453.242-.793-.475-1.767-.882-3.555-1.402-5.31-.478-1.623-.456-3.414-1.733-4.777-2.488-2.652-3.486-5.889-3.557-9.472-.095-4.82-.596-9.634-.015-14.466.361-2.995.82-5.904 2.706-8.403.735-.968 1.182-2.113 1.632-3.368-1.277.135-2.534.42-3.744.848a.667.667 0 00-.477.462c-.212.959-.708 1.838-.613 2.885.11 1.124-.245 2.177-1.249 2.796-.734.453-1.515.796-1.836 1.917-.123-.726-.187-1.204.144-1.583 1.282-1.486 1.683-3.403 2.556-5.084.419-.811-.5-.918-.429-1.246.113-.508 1.224-.545.83-1.449-.184-.431-.129-.918-.212-1.35-.346-1.837-.306-3.84-1.836-5.295-3.172-3.034-5.862-6.489-8.571-9.93-2.33-2.968-4.788-5.819-8.038-7.84a7.809 7.809 0 01-1.904-1.654 25.45 25.45 0 00-5.951-5.206 13.236 13.236 0 01-1.72-1.34c-1.115-1.024-1.733-1.067-3.015-.117C9.818 38.49 17.596 46.034 20.158 51.39zm69.087-15.823c-1.53 0-3.046.055-4.564-.019a7.956 7.956 0 00-3.674.677c-2.503 1.1-4.622 2.824-6.942 4.214-1.53.919-2.838 2.144-4.438 3.393.228.027.46.027.688 0a14.516 14.516 0 017.328-.686c1.014.168 2.07.098 3.08.276 1.821.324 3.673.098 5.494.425.248.046.613-.046.637.325.024.37-.205.53-.545.628a5.246 5.246 0 01-1.585.217c-3.894-.058-7.797-.643-11.672.23-.765.171-1.595.073-2.235.692a667.196 667.196 0 01-4.591 4.357c-.196.184-.306.567-1.133.255l5.183-4.799c-2.878-.126-2.976-.15-3.955.808-.5.487-1.301.781-1.341 1.639a11.81 11.81 0 01-.46 2.597c-.207.768-.018 1.19.843 1.32 2.812.377 5.648.547 8.485.508a.84.84 0 00.627-.212c1.372-1.267 3.086-2.11 4.304-3.595.646-.787 1.506-1.414 2.314-2.06.613-.5 1.31-.92 1.975-1.37a.682.682 0 01.854-.054c.306.306-.055.597-.209.777-.45.52-.988.962-1.469 1.455-.612.63-1.506 1.188-1.748 1.948a10.302 10.302 0 01-1.855 3.322c3.282.551 6.514 1.01 9.796.095a18.508 18.508 0 014.775-.612c2.844-.04 5.669.287 8.506.306 4.714.061 9.435-.306 14.139.211.594.067.68-.153.613-.72-.5-3.89-.345-7.837.459-11.676.486-2.334.324-4.713.612-7.264a4.49 4.49 0 01-3.061.518c-2.167-.306-4.347-.423-6.526-.585-2.47-.184-4.898-.796-7.429-.41-3.943.612-7.922.866-11.923.37-2.626-.328-5.256-.612-7.919-.444-2.26.093-4.525-.06-6.753-.456a23.79 23.79 0 00-7.769-.059c-1.224.212-1.028 1.07-.918 1.801.141.95.918.447 1.372.355 2.819-.588 5.644-.986 8.54-.768 2.703.205 5.378.716 8.105.68 1.57-.022 3.184-.307 4.711.06 2.801.674 5.56.237 8.336 0 1.903-.165 3.823-.501 5.714-.403 4.163.22 8.302.857 12.486.79a2.595 2.595 0 011.583.38c0 .306-.251.306-.41.367-1.837.68-3.701.46-5.544.055a34.46 34.46 0 00-9.587-.738c-3.281.205-6.52.919-9.826.867a.799.799 0 00-.526.128c-1.497 1.7-3.618 2.343-5.538 3.326-1.126.572-2.33 1.001-3.428 1.758.281.081.582.062.851-.056 1.338-.376 2.525-1.084 3.728-1.724 2.556-1.356 5.489-1.139 8.133-2.073a4.349 4.349 0 011.696-.226c.389.018.918-.215 1.105.324.187.54-.275.824-.652 1.096-1.671 1.225-3.367 2.417-5.01 3.65-.582.43-1.283.751-1.684 1.507 1.291.27 2.47.56 3.673.754 1.068.174 2.112.165 3.024-.637a5.841 5.841 0 012.575-1.164c1.769-.416 3.526-.885 5.295-1.298.68-.157 1.353-.23 1.766.612.199.398.628.509 1.087.306 1.451-.652 2.905-1.292 4.359-1.935a5.633 5.633 0 00-2.103.37c-.575.194-1.224.328-1.573-.23-.475-.731-1.075-.627-1.708-.468-1.877.475-3.726 1.143-5.63 1.424-1.97.307-3.915.515-5.675 1.532a1.38 1.38 0 01-.538.165c-.224.024-.478.043-.579-.239a.444.444 0 01.144-.518c.26-.22.517-.45.796-.649 1.059-.756 2.237-1.39 3.147-2.293.759-.754 2.142-1.458 1.2-2.983a.38.38 0 010-.306c.091-.157.26-.135.403-.058.723.395.919.894.53 1.702-.695 1.47-1.855 2.487-3.254 3.405 3.41-.122 6.45-1.175 9.557-1.904.578-.135 1.347-.359 1.781.364.389.643.919.597 1.494.423.872-.26 1.733-.613 2.66-.613.279 0 .67-.165.817.193.172.407-.174.588-.465.796-1.475 1.057-3.177 1.666-4.806 2.401-.805.365-1.763.383-2.25-.677-.186-.404-.477-.447-.851-.358-.587.141-1.187.242-1.766.423-2.081.646-4.392.704-6.122 2.269-.814.735-1.784.86-2.788.701-1.424-.223-2.835-.533-4.25-.82-.403-.083-.918-.132-.994-.628-.077-.496.422-.671.744-.937 1.65-1.378 3.56-2.38 5.265-3.675.575-.441 1.325-.72 1.683-1.5a3.27 3.27 0 00-1.203.1c-1.163.356-2.332.88-3.517.92-2.73.106-5.096 1.16-7.45 2.357-.882.447-1.803.845-2.829.78-.275 0-.673.093-.79-.305-.116-.398.221-.613.527-.769a254.77 254.77 0 013.998-1.972c1.53-.753 3.165-1.4 4.463-2.771v.012zm-39.071 40.49a46.651 46.651 0 01.306-7.075c.086-.661-.377-.444-.658-.41a8.642 8.642 0 01-3.2-.092c-.596-.153-1.377-.474-1.728-.04-.353.435.064 1.167.306 1.725 1.356 3.117 2.053 6.341 1.53 9.744a16.503 16.503 0 00.034 5.607c.403 1.836.5 3.727.284 5.594-.235 1.703-.523 3.442-.425 5.142.257 4.547.658 9.089 1.292 13.606.181 1.126.423 2.243.722 3.344.432 1.727 2.039.141 2.914.823.033.021.07.033.107.037.579.138.744-.07.634-.652-.487-2.588-.34-5.206-.168-7.8a22.25 22.25 0 00-.643-7.043c-1.289-5.022-1.858-10.047-1.133-15.229.224-1.598.815-3.546-1.178-4.703-.089-.055-.065-.126.043-.163.492-.168.694.549 1.12.435.707-2.563-1.745-3.099-2.948-4.434l.217-.211 2.572 1.794zm6.912-45.12c.566.462.492.964.498 1.439.007.475-.02.958.46 1.225 1.444.811 2.641 1.975 4.031 2.86 1.39.885 1.276.851 1.558-.8.266-1.561.083-2.492-1.509-3.401-2.042-1.167-3.6-3.063-5.127-4.9a8.76 8.76 0 00-2.336-2.012c-3.367-1.948-6.452-4.256-9.036-7.196a16.603 16.603 0 00-5.905-4.288 17.944 17.944 0 01-3.7-2.305 375.039 375.039 0 00-4.592-3.455 9.07 9.07 0 00-2.161-1.27c-.025 1.325.076 2.544.144 3.77.073 1.377.713 2.173 1.895 2.715 1.114.509 2.259 1.014 3.143 1.868.885.855 1.953 1.777 1.88 3.136-.08 1.498.575 2.144 2.03 1.639.575-.2 1.129-.46 1.71-.644 1.326-.422 2.933.552 3.022 1.807a3.568 3.568 0 003.269 3.341 5.312 5.312 0 012.736 1.057c1.463 1.065 2.492 2.544 3.606 3.938.554.695.918 1.558 1.837 1.914.144-.546-.098-1.09.33-1.62.108 1.53.383 2.912 2.21 3.181l.007-2zm-12.19 46.877a18.814 18.814 0 00-1.242-8.8c-.138-.338.033-.92-.612-.944-.646-.025-1.488-.061-1.956.432a5.654 5.654 0 00-1.647 3.093 7.905 7.905 0 01-1.61 3.766c-1.822 2.321-1.757 5.084-1.767 7.778 0 2.021.368 4.043.337 6.082-.12 4.05.894 8.053 2.926 11.557a18.656 18.656 0 012.336 5.84c.474 2.419.974 4.835 1.396 7.267.113.652.373.78.918.584.646-.232 1.28-.502 1.925-.734 1.081-.389 1.666-1.225 1.5-2.355-.306-2.07-.587-4.131-1.224-6.159a21.725 21.725 0 01-.612-11.348c.637-2.94.89-5.935.018-8.881-.734-2.364-.823-4.756-.685-7.178zm11.84 3.454c-1.025 1.531-1.025 1.531.371 2.502 1.12.781 2.244 1.55 3.407 2.355a.55.55 0 01-.74-.07 782.808 782.808 0 00-3.674-2.508c-.949-.647-1.176-.54-1.607.542-.267.664-.08 1.09.462 1.463.542.374.986.714 1.482 1.07 2.378 1.699 4.658 3.548 7.291 4.981-.306-1.66.122-2.318 1.742-2.792.21-.09.428-.156.652-.2 1.322-.1 1.852-.918 2.084-2.118a2.756 2.756 0 012.311-2.374c.655-.138 1.304-.046 1.932-.174.468-.098 1.334-.034 1.197-.732-.306-1.648-.037-3.313-.306-5.01-.52 1.55-1.405 2.566-3.129 2.542-1.037 0-2.078-.068-3.107.018-.832.067-1.754.095-2.265 1.017.689.096 1.37.235 2.042.416.416.135.863.42.83.98-.034.56-.512.613-.919.701-.346.068-.759.074-.872.441-.597 1.923-2.256 1.48-3.628 1.663-.23.03-.483-.03-.53-.306-.045-.276.249-.355.439-.444.443-.202.918-.343 1.356-.557.37-.181.82-.466.55-.92-.269-.452-.743-.253-1.105 0a4.946 4.946 0 01-2.087.858c-.447.074-1.32-.08-1.108-.557.37-.833-.264-.836-.579-1.072-.796-.597-1.631-1.13-2.491-1.715zM29.93 13.258c0 1.247.202 2.18-.04 2.983-.55 1.813.352 2.912 1.53 4.015 1.302 1.224 2.627 2.397 4.46 2.602a13.53 13.53 0 016.264 2.288 5.597 5.597 0 001.888.756c2.397.591 4.671 1.455 6.41 3.32.676.726 1.307 1.494 2.09 2.391-.247-2.722-2.105-4.066-3.78-5.533a1.272 1.272 0 00-.872-.214c-2.357-.019-3.86-1.43-5.14-3.185a1.804 1.804 0 01-.364-1.066c0-1.488-.958-2.143-2.323-1.531-.456.196-.888.45-1.35.612-1.53.585-3.612-.542-3.438-1.929.196-1.55-.554-2.413-1.796-3.04-1.188-.6-2.452-1.085-3.539-2.469zm36.803 21.828c-.175 0-.674.028-1.17 0-.391-.027-.59.107-.587.496.034 2.306-.579 4.572-.465 6.881.018.355-.236.953.483.919.588-.022 1.206-.306 1.163-.919-.043-.612.257-.713.564-.986.893-.802 2.014-1.225 2.993-1.877.86-.573 1.457-1.308 2.755-1.332 1.298-.025 2.62-.919 3.845-1.632a3.524 3.524 0 001.261-1.155c.276-.45.285-.961-.422-1.063-1.935-.278-3.848-.422-5.789.157-1.502.44-3.07.613-4.631.511zm-11.69 31.147a17.665 17.665 0 01-4.573-5.047 16.098 16.098 0 00-4.53-4.808c-2.196-1.583-4.164-3.368-5.645-5.671-.162-.248-.322-.567-.655-.613-1.041-.095-2.082-.153-3.126-.226-.064.098-.128.196-.195.306.34.232.668.485.979.756 1.316 1.274 2.933 2.193 4.074 3.693 1.384 1.838 2.685 3.727 4.445 5.25 2.026 1.757 4.01 3.57 5.31 5.977a.658.658 0 00.647.386c.97-.013 1.956-.004 3.269-.004zm-1.225 48.384a45.517 45.517 0 01.062-12.822c.367-2.628.245-5.163-.763-7.656-.483-1.2-.872-2.511-.612-3.816.487-2.45 1.096-4.9 1.7-7.33.072-.307.287-.512-.074-.754-.955-.64-1.904-1.298-3.043-2.076.086.646.156 1.02.18 1.396.092 1.449.432 2.885.264 4.352a34.344 34.344 0 00.63 11.636c.585 2.6 1.053 5.271.744 7.962a31.959 31.959 0 00-.073 5.975c.067 1.004-.028 2.192.98 3.123l.005.01zm21.801-46.752c2.611-2.202 4.846-4.594 7.288-7.043-1.552-.258-2.605-.059-3.547.989-1.341 1.488-2.813 2.863-4.194 4.33 1.12-2.03 2.844-3.565 4.564-5.372-3.34-.091-6.413-.56-9.63-.177 1.044 1.16 1.748 2.398 2.82 3.368 1.123-1.176 2.09-2.48 3.752-2.854a19.243 19.243 0 00-2.844 2.386c-.45.499-.704.918-.055 1.53a7.254 7.254 0 011.84 2.834l.006.009zm28.856 2.076c-1.151-.144-1.76-.652-1.454-1.804-.51.222-.976.533-1.377.919-.839.661-1.573 1.467-2.571 1.902-.423.186-.919.306-1.298-.037-.38-.343-.18-.757-.055-1.09.53-1.427 1.031-2.854 2.047-4.06.861-1.02 1.898-1.912 2.697-3.37-1.368 1.039-2.583 1.795-3.49 2.894-.672.78-1.27 1.622-1.784 2.515-.992 1.837-2.467 3.197-3.98 4.547-1.03.919-2.078 1.837-3.06 2.787a6.252 6.252 0 00-1.748 3.58c.395-.466.68-.77.918-1.1 1.476-1.972 3.474-3.32 5.547-4.547 1.243-.738 1.481-.613 2.142.692.242.484.567.46.937.306a3.098 3.098 0 001.2-1.035 56.41 56.41 0 011.993-2.517c.462-.545 1.031-.741 1.72-.343.419.239.888.407 1.61-.248l.006.009zM37.802 25.755c6.346.588 9.04 2.095 15.088 8.287.12-1.32-1.035-1.865-1.653-2.723-1.8-2.501-4.31-3.95-7.23-4.734a8.986 8.986 0 01-2.715-1.13c-1.246-.83-2.584-1.506-4.102-1.629a9.151 9.151 0 01-5.247-2.294c-.698-.587-1.224-1.378-2.103-1.907.095.992-.033 2.024.977 2.397 2.544.944 4.19 2.851 5.73 4.952a10.38 10.38 0 002.55 2.45c-.016-.888-1.029-1.467-.462-1.948.4-.34 1.099.414 1.634.735l.098.062a8.028 8.028 0 003.44.961c-2.09-1.007-3.924-2.444-6.005-3.479zm31.011 51.753c-1.356-.386-2.378-1.345-3.538-2.086-1.62-1.032-2.862-3.108-5.296-2.054-.088.056-.171.12-.248.193 2.027 1.472 4.05 2.887 6.003 4.39 1.16.895 2.39.77 3.673.552.67-.113 1.2-.472 1.267-1.14.07-.716-.08-1.445-.777-1.904-1.111-.735-2.173-1.556-3.33-2.205a5.814 5.814 0 00-4.27-.661c2.295 1.8 4.346 3.417 6.516 4.915zm-13.29 0c-.157-.677-.05-1.14-.56-1.421-.194-.104-.485-.42-.307-.518.784-.422.205-.967.135-1.396a17.614 17.614 0 01-.196-4.358c.073-.796.306-1.91-.211-2.272-.518-.361-1.479.306-2.253.505-.306.074-.45.212-.41.56.306 2.582-.055 5.12-.548 7.656a.554.554 0 00.162.613c1.328.919 2.577 1.975 4.007 2.756.389-1.188-.104-1.837-1.001-2.45-.8-.542-1.779-.94-2.164-2.003l3.345 2.328zm6.278-7.702c.058-.53-.812-.407-.686-1.206 1.056.949 2.286.986 3.71 1.378-.57-.71-1.384-.787-1.46-1.697.67.463 1.224.836 1.781 1.225a.919.919 0 001.075 0c.349-.239-.395-.429-.126-.753.37-.117.536.196.762.383.444.36.888.725 1.338 1.074.45.35.756-.113 1.108-.275.276-.126.214-.306.04-.414-.9-.514-1.53-1.4-2.73-1.53-2.688-.261-5.406-.221-8.063-.83-.845-.197-1.773-.031-2.795-.031.667 1.2.74 2.336.74 3.49 0 .307-.161.812.344.83.857.034 1.741.218 2.626-.165-.116-.395-.612-.496-.612-1.084 1.288 1.271 2.02-.174 2.948-.383v-.012zm.636 37.179c-.199-1.096-.523-2.097.41-2.894.934-.796 1.837-.52 2.78-.119a.915.915 0 001.068-.181c1.362-1.47 3.03-1.28 4.775-.977 1.13.196 2.284.503 3.49.166-.211-.469-.612-.361-.918-.343a6.624 6.624 0 01-2.792-.496c-1.295-.496-2.584-.435-3.933-.306-1.757.153-3.511.079-4.898-1.333-1.604-1.629-3.404-2.501-5.877-.98 1.766-.382 3 .227 4.147 1.152 1.323 1.066 1.558 1.972.833 3.451-.823 1.687-.823 1.687.915 2.873v-.013zM41.041 31.393c-3.135-1.402-4.98-4.364-7.99-6.37.328 1.418.285 2.714 1.05 3.583 1.053 1.195 2.354 2.18 3.597 3.2 1.087.888 2.176.76 3.343-.413zm33.031 54.815c.273-.585-.15-1.066-.156-1.593a.383.383 0 00-.57-.364c-.679.35-1.438.26-2.142.306-1.53.138-2.424.888-2.66 2.346-.26 1.608-1.255 2.34-2.755 2.572a2.934 2.934 0 00-1.46.588c-.217.18-.444.487-.233.809.129.191.316.336.533.413.395.12.386-.288.483-.496.206-.444.472-.793.983-.86a7.957 7.957 0 003.447-1.339c.514-.34.918-.496 1.013-1.225.165-1.283 1.062-1.797 2.333-1.53.416.103.802.247 1.19.364l-.006.009zm-8.16-7.616c-1.179-.855-2.241-1.718-3.392-2.45-1.623-1.007-2.856-2.652-4.873-3.013-.368-.068-.86-.56-1.09 0-.23.56-.074 1.08.554 1.451 2.22 1.314 4.408 2.683 6.606 4.03.728.453 1.45.542 2.2-.027l-.005.009zm-8.954-3.617c-.11 1.531.46 2.45 1.69 3.063.777.385 1.45.976 2.188 1.445.613.389 1.225.992 1.867 1.004.41 0 .833-.878 1.225-1.326l-6.97-4.186zM16.366 36.541c1.836 1.203 4.457 1.439 8.264.76.12-.387-.355-.613-.306-1.07 1.026.117 1.384 1.792 2.651 1.07-1.123-1.658-1.295-1.728-3.098-1.293a2.8 2.8 0 01-.456 0l-7.055.533zM69.15 40.73c4.873-.282 8.317-3.58 12.443-5.537-.79-.193-1.512-.407-2.25-.533-.496-.085-1.016-.208-1.117.65-.076.637-.612 1.123-1.157 1.512-1.576 1.112-3.389 1.706-5.143 2.45-.955.392-2.035.604-2.77 1.458h-.006zm9.609 26.296c-1.188.753-1.451 2.143-2.43 3.01-.142.122-.086.349 0 .536a9.802 9.802 0 01.884 3.647c.04.689.431.505.747.22.738-.673 1.068-1.607.725-2.48-.649-1.678-.83-3.277.08-4.933h-.006zM63.193 43.28c-.052-1.47-.15-2.756.101-4.045.068-.356.05-.656-.41-.784-.759-.218-1.5-.49-2.363-.778.285 1.641-.487 3.54 1.546 4.498.26-.349-.064-.811.428-1.127.398.69-.192 1.599.704 2.236h-.006zm-35.009-1.063c-.444-.508-.753-.891-1.096-1.225-.284-.288-.422-.817-.918-.787-1.139.074-2.274.211-3.462.328.352.585 1.583.612.955 1.445-.594.781-1.267-.04-1.837-.37-.214-.12-.336-.401-.498-.613-.163-.211-.306-.46-.652-.257.633 1.182 1.386 1.935 2.96 1.807 1.487-.138 2.944-.346 4.548-.328zm44.554-1.39c-2.468.41-4.898.836-6.986 2.756 1.225.076 2.207.848 3.061.306 1.412-.873 2.636-2.027 3.934-3.062h-.01zm-21.666 36.44c.177 1.045-.346 1.936.416 2.546.918.735 1.928 1.362 2.902 2.033.177.123.327.306.57.03.443-.49.422-1.512-.136-1.925-1.144-.843-2.329-1.66-3.743-2.67l-.01-.013zm24.02-24.978l.18.306c.228-.015.457-.015.686 0 1.674.218 2.89-.306 3.465-2.018.505-1.513 1.57-2.633 2.755-3.632.245-.202.496-.395.744-.594-3.168 1.326-4.586 4.744-7.821 5.95l-.01-.012zM20.298 38.096c.67.714 1.175 1.73 1.803 1.813a8.205 8.205 0 003.505-.18c.174-.056.367-.037.367-.307 0-.71-1.013-1.66-1.775-1.53a24.57 24.57 0 01-3.879.216l-.02-.012zm9.29 1.988c1.029 1.53 2.544 2.51 3.82 3.736.634.612 1.185.882 2.082.392-1.071-1.063-2.284-1.99-3.122-3.182-.747-1.081-1.43-1.678-2.758-.934l-.022-.012zm37.11 70.454c-2.49-1.143-4.286-2.867-6.245-4.511-.306 2.517 3.079 4.988 6.266 4.523l-.022-.012zM30.375 28.205a1.6 1.6 0 01.487.894c.199.809.462 1.602.649 2.41.12.503.238.944.884.699s.153-.637.07-.944c-.18-.655-.498-1.286-.611-1.95-.163-1.072-.778-1.727-1.706-2.245a7.128 7.128 0 00.196 5.01c.132.343.19.554.613.404.422-.15.306-.364.208-.71-.337-1.118-.839-2.193-.79-3.568zm6.707 3.981c-.919-.814-1.638-1.758-2.685-2.343-.26.494.453.92 0 1.446-.612-1.112-.557-2.726-2.369-2.937a90.84 90.84 0 00.946 3.114c.092.273.168.674.667.613 1.145-.07 2.277.132 3.44.129v-.022zM31.15 26.98c.359-.272-.263-.612.2-.817.838 1.473.838 1.473 1.836 1.656-.223-2.018-.612-3.88-2.95-4.507-.111 2.97-.111 2.97.914 3.668zM62.53 81.045l-5.314-3.412c-.128 1.066-.132 1.07.612 1.642.937.707 1.901 1.38 2.807 2.122.796.637 1.427.775 1.895-.355v.003zm20.536-4.321c-1.698.97-3.128 2.269-4.775 3.322l1.139-1.274c-.306-.082-.542-.156-.784-.217-.37-.095-.306-.873-.774-.637s-.187.83-.214 1.265c-.004.345.025.69.085 1.029.046.306.062.563.564.395a8.489 8.489 0 004.76-3.886v.003zm-25.02-40.76c.1.874.26 1.753.306 2.638.049 1.267.854 1.788 1.892 2.195-.282-1.843.431-4.057-2.198-4.835v.003zm5.314 15.254c-.19-1.133-.438-2.116-.509-3.136-.058-.823-.269-1.638-.388-2.45-.08-.557-.524-.505-.873-.499-.486 0-.321.454-.306.705.052.716.184 1.427.257 2.143.132 1.268.536 2.401 1.819 3.234v.003zm-6.474 27.916c.156.839-.306 1.44.186 1.837.989.766 2.057 1.43 3.107 2.113.505.328.643-.223.885-.447.425-.404-.086-.493-.279-.637-1.187-.9-2.39-1.767-3.9-2.87v.004zm1.126-39.85c-.16-1.096-.306-2.024-.42-2.958-.091-.778-1.046-1.562-1.787-1.448-.273.043-.263.205-.26.401.03 1.77.857 3.056 2.467 4.002v.004zm-4.677-2.079c.12-2.517-5.265-7.35-8.265-7.475 3.875 1.18 5.886 4.443 8.265 7.472v.003zM43.009 67.62c-.367-2.312-2.373-3.203-3.533-4.756a2.22 2.22 0 00.613 1.436 2.572 2.572 0 01.89 2.248c-.104.891.187 1.277 1.115 1.078.304-.03.61-.034.915-.01v.004zm13.468-24.805c-.04 1.531 1.372 3.81 2.642 4.37-.043-1.932-.407-3.687-2.636-4.388l-.006.018zm4.711 6.19c.022-.065.074-.139.065-.2-.141-.857-.306-1.712-.432-2.57-.208-1.316-.202-1.316-1.635-1.53.438 1.546-.085 3.506 2.008 4.28l-.006.02zM35.17 47.49c.116-.76-.833-.667-.876-1.154-.18-2.202-2.244-2.72-3.468-3.981a.333.333 0 00-.508.052c-.172.23.067.325.205.435 1.512 1.206 2.678 2.72 3.777 4.287.23.288.441.518.882.343l-.012.018zM82.796 74.14c-1.439 1.063-2.626 1.936-3.802 2.82-.223.17-.55.307-.306.726a.509.509 0 00.775.181c1.466-.762 2.72-1.733 3.333-3.727zm-17.993-1.935c-.208-.65-.79-.848-1.224-1.203-1.32-1.094-1.433-1.253-2.865.342 1.047 1.792 2.819-.088 4.09.864v-.003zm15.459-28.173c-1.709-.423-3.46-.395-5.204-.438-1.069-.028-1.984.12-2.7 1.262a26.133 26.133 0 017.904-.818v-.006zm-52.194-6.333c.536 1.063.918 2.058 2.326 1.792.613-.114.802-.166.481-.846-.594-1.252-1.607-1.053-2.807-.946zm35.976 33.073c1.292.854 2.25 2.214 4.179 1.497-1.42-.68-2.241-2.373-4.179-1.497zm7.04 3.601c-2.243-1.61-2.243-1.61-3.532-1.01.634.462 1.261.881 1.837 1.353.71.545 1.27.582 1.708-.358l-.012.015zM19.642 40.935c2.235 3.72 3.033 4.498 4.925 4.81-2.504-.75-2.948-3.548-4.913-4.825l-.012.015zm-.689-.57l.138-.159a4.104 4.104 0 00-.236-.364c-.208-.273-.505-.634-.278-.898.306-.358.738-.107 1.142.043.404.15.612.775 1.224.692-.784-1.61-1.956-1.53-4.432-1.13l2.442 1.816zm7.625-4.73c1.39 1.91 1.39 1.91 2.982 1.362-.815-.83-1.506-1.813-2.97-1.378l-.012.015zm34.75 36.912c-.5-.285-.73-.983-1.277-.714-1.115.552-2.28.334-3.432.475 1.515.322 2.994.983 4.72.224l-.012.015zm45.397-15.731c2.945.965 4.378.919 5.204-.153-1.65.3-3.281-.025-5.191.138l-.013.015zm-67.309-7.252c-.698-1.49-.698-1.49-2.672-1.194 1.016 1.314 1.016 1.314 2.684 1.18l-.012.015zm27.338 60.441c1.408 1.35 3.01 1.736 4.592 1.056-1.626.169-2.939-.909-4.592-1.056zM83.59 72.881c1.708-.73 1.711-2.233 2.063-3.546-.961.992-1.739 2.07-2.085 3.546h.022zm-70.15-37.02c1.017 1.356 2.07 2.63 4.194 1.803-1.693-.122-2.743-1.387-4.194-1.803zm41.783.612c.138-1.482-.364-2.37-1.726-2.756-.33 1.504.937 1.896 1.726 2.78v-.024zm-19.691 10.2c.554 1.066 1.224 1.28 2.755.95-.613-1.072-.613-1.072-2.755-.95zm46.576 29.88c1.748-.717 2.014-2.144 2.373-3.55-.714.325-1.203.772-1.295 1.531-.092.76-.588 1.286-1.084 2.018h.006zM65.116 46.93c.673-.435 1.359-.811 1.769-1.565-2.177-.456-2.177-.456-1.776 1.565h.007zm-6.802-4.832c.12-1.513-1.402-1.345-2.063-2.26.07 1.62.383 1.938 2.057 2.26h.006zm-3.367-8.268c.037-1.571-1.225-1.911-1.864-2.87-.429 1.718.897 2.058 1.852 2.87h.012zM34.612 44.974c.307 1.74 1.531 1.093 2.6 1.173-.576-1.231-1.507-1.366-2.6-1.173zm33.932-.156c1.402.16 2.911.613 3.98-1.026-1.393.337-2.64.82-3.98 1.026zm-42.288-6.841c.367.52.713 1.001 1.05 1.494.22.325.53.242.823.193.294-.049.205-.266.16-.444-.218-.91-.974-1.39-2.033-1.243zm4.093 3.98c-.533-.664-.986-1.224-1.433-1.778a.612.612 0 00-.817-.132c-.166.07-.236.208-.108.35.634.716 1.017 1.787 2.358 1.588v-.027zM71.466 74.06c.183-.148.351-.313.502-.493.153-.233-.1-.307-.235-.398-.438-.288-.891-.555-1.332-.84a.476.476 0 00-.612.037c-.126.098-.282.258-.16.352.582.478 1.2.9 1.837 1.357v-.015zM55.394 32.906c-.03 1.58 1.13 1.457 1.971 1.941-.046-1.363-1.267-1.215-1.971-1.926v-.015zm-1.49 4.13a3.228 3.228 0 001.716 2.714c-.193-1.219-.964-1.831-1.723-2.698l.006-.015zm9.06 8.269l.434 3.763c.098-1.249.441-2.547-.434-3.732v-.031zm50.813 10.745c.869.533 1.702.423 2.449.662.131.043.511.383.575-.153.049-.417-.141-.524-.523-.515-.769.05-1.531.028-2.507.028l.006-.022zM78.079 75.058c-1.01.435-.59 1.203-.627 1.837 0 .187.033.41.306.386a.373.373 0 00.33-.401c-.009-.579-.009-1.148-.009-1.822zM60.472 42.956c-.132-1.167-.992-1.176-1.708-1.574.03 1.198.9 1.216 1.702 1.574h.006zM29.02 33.138c1.75-.462.56-1.377.655-2.275-.487.781-.386 1.455-.661 2.276h.006zm5.899 14.954c.575.612.66 1.669 1.943 1.13-.698-.343-.747-1.379-1.943-1.13zm24.92-11.99c-.414-.83-1.148-1.249-2.143-1.803.349 1.305 1.469 1.301 2.136 1.804h.006zm1.264 6.551c-.117 1.053.746 1.004 1.291 1.494-.015-1.016-.691-1.145-1.297-1.494h.006zm-.034 40.903c.612.695 1.056.147 1.49-.135.203-.132.037-.263-.143-.392-.713-.499-.866.245-1.353.527h.006zm-17.17-24.281c.187.401 1.03.612.705 1.032-.377.5-.888-.086-1.274-.35a9.884 9.884 0 00-4.016-1.509 6.311 6.311 0 01-3.34-1.59 10.1 10.1 0 00-3.385-2.06 3.918 3.918 0 01-2.58-2.961 4.986 4.986 0 00-1.858-2.79 5.155 5.155 0 01-1.53-1.687c-.133-.264-.206-.5 0-.735.204-.236.468-.2.722-.046.964.575 2.047.67 3.125.882 1.588.306 3.434 1.904 4.019 3.252-1.638-.169-2.48-2.144-4.481-1.92a8.916 8.916 0 012.002 2.94c.104.263.394.337.648.425.637.227 1.157.533 1.274 1.305a1.363 1.363 0 00.78.95c2.02 1.025 3.674 2.685 5.963 3.285 1.118.306 2.118 1.026 3.171 1.562l.056.015zm-16.835-12.25a3.454 3.454 0 001.188 1.532c1.105.87 2.173 1.816 2.369 3.368.153 1.225.918 1.933 2.017 2.398a17.691 17.691 0 014.286 2.542c.707.576 1.53 1.014 2.329 1.004-1.886-1.626-4.778-2.064-6-4.74a1.145 1.145 0 00-.649-.438 2.02 2.02 0 01-1.38-1.39 4.67 4.67 0 00-.998-1.531c-.282-.306-.961-.58-.655-1.063.306-.484.949-.542 1.53-.306.086.037.209-.019.524-.052-1.53-.904-3.318-.166-4.576-1.323h.015zm45.897 63.886c1.124.276 1.79 1.452 3.03 1.531-2.996-1.99-5.62-4.431-8.344-6.755 1.39 1.862 3.242 3.231 4.922 4.78l.392.444zm41.018-81.05c-2.948-.49-5.893-.988-8.85-1.43-1.01-.15-1.105-.051-1.561.45 3.588-.042 7.08 1.162 10.916 1.4-.285-.238-.392-.4-.511-.42h.006zm-8.997-15.831l-8.595-1.531c-.018.125-.04.248-.061.37 2.853.656 5.742 1.109 8.644 1.489 0-.105.003-.218.006-.328h.006zm-.541 11.863c2.687.714 5.366 1.467 8.13 1.67-2.728-.583-5.339-1.606-8.136-1.67h.006zM84.908 28.41c2.535.215 5.072.359 7.589.5a21.69 21.69 0 00-7.595-.5h.006zm11.91-13.238l7.46 1.225c-2.412-.919-4.897-1.301-7.429-1.531a2.625 2.625 0 00-.036.306h.006zM51.21 18.234l7.512-1.225c-.021-.125-.043-.248-.061-.37-2.498.46-5.045.612-7.509 1.265l.058.33zm30.305 5.672l-6.784-.735-.036.364c2.24.441 4.518.53 6.78.744.003-.134.015-.257.03-.383l.01.01zm3.079 2.293c2.326.515 4.656.974 7.065.598-2.376-.095-4.702-.58-7.074-.607l.009.01zm-31.96-14.297c-2.41.263-4.84.352-7.209.918l.037.306 7.193-.918c-.015-.095-.021-.205-.03-.316l.009.01zm-2.97 4.77c2.34-.058 4.568-.78 6.873-1.05l-.065-.4-6.862 1.138.054.313zm52.167-4.749l-6.334-1.66-.085.306c2.057.781 4.209 1.225 6.351 1.675l.068-.321zm-47.826 1.225l-6.048 1.375c.021.1.042.202.067.306 2.07-.15 4.007-.919 6.033-1.29-.027-.15-.043-.278-.061-.406l.01.015zm57.361 11.768c-1.947-.226-3.814-.946-5.786-.918 1.886.532 3.769 1.182 5.777.903l.009.015zM63.72 29.48c2.063 0 3.98-.756 5.984-1.127-2.072-.012-4.046.484-5.993 1.112l.009.015zm10.101-8.054c1.993.334 3.958-.193 5.93-.306h-5.957v.291l.027.015zm1.326 4.15c2.099.394 4.246.463 6.367.205-1.05-.147-2.11-.135-3.162-.306a30.963 30.963 0 00-3.209-.209c-.018.09-.015.184-.015.294l.019.016zm34.461-3.252c-1.647-.059-3.211-.552-4.824-.815 1.126.879 3.786 1.323 4.824.815zM78.171 18.21l-5.326-.558c-.016.11-.028.224-.04.334a22.71 22.71 0 005.332.506 5.26 5.26 0 01.028-.282h.006zm23.919-.469c-1.736-.364-3.447-.857-5.22-1.029a7.5 7.5 0 01-.06.307l5.255 1.084c0-.117.009-.24.019-.362h.006zM81.152 6.288a8.014 8.014 0 004.947.92c-1.699-.062-3.288-.745-4.959-.92h.012zM63.037 28.481l4.577-1.495c-1.63.034-3.23.454-4.666 1.225.022.083.053.175.083.27h.006zm13.603-.876c1.53 0 3.061.361 4.626.187-1.537-.3-3.07-.604-4.632-.2l.006.013zm3.11-18.42c1.295.282 2.572.674 3.98.267l-3.921-.613c-.028.117-.046.23-.065.346h.006zm.714-2.143c1.169 1.016 2.595 1.225 4.074 1.225l-4.074-1.225zM95.689 9.4l3.912.612c-.927-.744-2.96-1.032-3.918-.618l.006.006zM84.486 24.347a4.572 4.572 0 003.462 0h-3.462zm-3.48-13.245l-.059.307c.83.263 1.653.56 2.617.137l-2.558-.444zM64.377 26.028c-.995-.273-1.886.043-2.755.401a5.48 5.48 0 002.749-.407l.006.006zM71.93 15.99c.7.254 1.464.263 2.17.027a2.542 2.542 0 00-2.177-.033l.007.006zm-40.99 87.915c-.267-2.119-.56-4.232-.77-6.358-.287-2.93-.504-5.873-.761-8.807-.5-5.631-.876-11.235 2.375-16.325a14.81 14.81 0 00.964-1.95c.763-1.697.536-3.13-.725-4.431a11.024 11.024 0 01-1.586-2.23 8.48 8.48 0 00-1.264-1.898 23.319 23.319 0 01-3.22-4.18c-.989-1.575-2-3.155-3.517-4.364a1.49 1.49 0 00.036 1.151 14.339 14.339 0 004.286 6.275c1.016.857 2.143 1.61 2.942 2.716 1.248 1.709 1.551 3.555 1.457 5.68-.12 2.818-.729 5.47-2.45 7.604-1.646 2.058-1.854 4.202-1.53 6.578.854 6.468 2.198 12.862 2.988 19.332.07.594.07 1.256.542 1.733.318-.156.26-.333.232-.526zM18.44 84.612c-.233-3.344-.502-6.685-.74-10.032-.225 3.36.025 6.736.743 10.026l-.003.006zm-1.668-1.283c-.267-3.42-.487-6.718-.429-10.105-.744.94-.404 8.85.432 10.102l-.003.003zm8.2 6.835l2.048 9.493.306-.067c-.536-3.2-1.224-6.37-1.977-9.524l-.377.098zm-10.35-8.369c-.611-3.12-.204-6.045-.418-9.064-.714 1.133-.466 7.9.419 9.064zm9.062 7.095c.156 2.986.71 5.92 1.034 8.88l.352-.039-1-8.88-.386.04zm-4.261-26.556l-1.225 7.304.34.055c.582-2.413.888-4.872 1.224-7.325l-.34-.034zm.37 15.005c-.306 2.505-.245 4.977.588 7.399-.502-2.435-.285-4.946-.588-7.408v.01zm-8.39-5.472l-.383.018c.144 2.254-.306 4.548.383 6.786v-6.804zm10.566 7.757l-.284.03a15.674 15.674 0 00.918 6.085c-.216-2.045-.427-4.087-.634-6.124v.009zm-.348-9.542c.612-1.82.529-3.715.725-5.592-.689 1.8-.732 3.69-.726 5.583v.009zm3.532 6.366c.487-.698 1.27-4.311 1.224-5.766a22.843 22.843 0 00-1.224 5.757v.01zM17.1 63.728a34.447 34.447 0 00-.737 5.512l.36.04.668-5.55-.29-.002zm5.403 25.723c-.171 1.966-.187 3.913.612 5.784l-.612-5.784zm2.553-19.262c-.518 1.725-1.034 3.45-1.546 5.175l.343.107a30.446 30.446 0 001.475-5.206l-.272-.076zm-1.53 9.763a7.352 7.352 0 00.486 5.132 35.862 35.862 0 01-.48-5.148l-.007.015zm.204-10.52c.166-1.51.69-2.997.175-4.547-.006 1.5-.618 2.998-.168 4.532l-.006.016zm3.8.383c0 1.608-.276 3.207-.117 4.82.217-1.613.747-3.227.122-4.835l-.006.015zm-7.228-8.905c.514-.875.56-3.344 0-4.547v4.547zm1.405 13.288c.484-1.421.918-2.714 1.36-4.003-1.075 1.213-1.648 2.992-1.354 3.987l-.006.016zm3.875-5.185c.074-1.038.558-2.052.114-3.093-.037 1.026-.662 2.034-.107 3.078l-.007.015zm-5.635 20.692c-.25 1.353-.174 2.661.612 3.816a348.62 348.62 0 00-.606-3.831l-.006.015zM18.45 58.736c.524-1.01.413-2.076.325-3.133-.46 1.008-.429 2.061-.319 3.118l-.006.015zm84.831-8.078c2.776-2.63 5.969-4.787 8.65-7.534-3.03 2.319-6.134 4.588-8.644 7.518l-.006.016zm10.031-5.512c-.083-.11-.166-.22-.251-.328-2.939 2.26-6.077 4.263-8.639 6.973l8.89-6.645zm-2.198-3.57c-2.902 2.008-5.893 3.913-8.084 6.764 2.497-2.493 5.509-4.376 8.09-6.765h-.006zm-18.311 4.02c-2.18.98-4.243 2.143-5.88 3.907 1.87-1.454 4.013-2.486 5.886-3.907h-.006zm-19.621.698a14.784 14.784 0 00-4.776 4.229c1.466-1.553 3.352-2.64 4.775-4.229zm35.039 4.713l4.485-3.653-.203-.236a31.656 31.656 0 00-4.505 3.638l.223.25zM96.895 45.8a11.973 11.973 0 00-4.692 3.914c1.506-1.37 3.195-2.524 4.708-3.902l-.016-.012zM90.1 49.323c1.45-1.284 2.871-2.263 4.242-3.298-1.221.217-3.835 2.214-4.227 3.31l-.015-.012zm12.051-3.326l3.774-2.882c-1.288.233-3.076 1.66-3.759 2.894l-.015-.012zm12.054 1.74c-1.258.306-2.862 1.916-3.168 3.031a33.715 33.715 0 013.184-3.02l-.016-.012zm-19.153 1.108c.668-.812 1.565-1.109 2.143-1.785-1.438.438-1.904.802-2.127 1.797l-.016-.012zm16.206 17.574c.499.086.829.224.517.754-.251.425-.496.857-.781 1.261-.795 1.121-1.585 2.26-1.968 3.586-.649 2.26-2.485 3.157-4.377 4.018a.763.763 0 01-1.019-.245c-.328-.447-.022-.692.235-.98a47.415 47.415 0 004.592-5.996 6.728 6.728 0 012.124-2.06c.251-.126.493-.224.692-.326l-.015-.012zm-.659 1.225c-2.176 2.315-3.728 5.13-5.892 7.472 1.399-.695 2.88-1.317 3.554-2.848a45.568 45.568 0 012.354-4.627l-.016.003zm-29.578 1.531c2.387-1.92 4.79-3.815 7.264-5.622-2.783 1.378-5.125 3.353-7.249 5.62l-.015.002zm13.774 10.608c1.503-1.675 3.16-2.836 4.672-4.18-1.58.469-4.246 2.824-4.662 4.177l-.01.003zm3.45-.968l2.7-2.201c-1.463.444-2.28 1.2-2.69 2.198l-.01.003zM85.842 67.55l2.886-2.003-.174-.248a11.94 11.94 0 00-2.89 2.006l.178.245zm3.413-.25l2.605-2.313a4.106 4.106 0 00-2.596 2.31l-.01.002zm-1.837 9.079c-1.362.245-1.944.753-2.317 1.972a17.272 17.272 0 012.317-1.975v.003zm-23.123-14.7l-9.575-.85-.027.327c3.177.527 6.388.613 9.59.885.003-.134.022-.257.022-.376l-.01.015zm-9.67-1.996c2.927.398 5.878.306 8.81.57 0-.135.015-.27.025-.404l-8.816-.533-.019.367zm-11.258-8.12v.287c1.962.518 3.952.285 5.938.07l-5.938-.358zm18.942 11.256l-5.075-.554c1.065.689 3.535.918 5.075.545v.01zm-3.41-7.487c-1.08-.05-2.158.223-3.242.076 1.09.748 2.164.203 3.242-.091v.015zm-.34-1.709c-1.185.612-2.26.236-3.236.646 1.53.392 2.37.245 3.236-.646zm6.19 59.99c-2.618-1.73-5.106-3.647-7.763-5.319 2.366 2.082 4.885 3.959 7.762 5.304v.015zm4.193-8.758a20.85 20.85 0 006.428 4.933c-2.189-1.583-4.295-3.289-6.428-4.948v.015zm-10.579 5.726c1.224 1.366 2.427 2.756 4.224 3.369-1.435-1.099-2.776-2.309-4.224-3.369zm12.462-6.005c1.034 1.351 3.177 2.842 4.68 3.216-1.644-.947-3.052-2.251-4.68-3.228v.012zm-30.66-3.411l.863.306c-.171-.735-.192-1.39-.68-1.895-.486-.506-.118-1.186-.305-1.795-.836-2.707-2.057-5.288-2.614-8.081-.643-3.219-.643-6.351.707-9.457.967-2.223 1.631-4.575 2.43-6.868a.551.551 0 01.04-.107c.444-.677.612-1.761 1.693-1.614 1.08.147 1.15 1.151 1.252 1.975.278 2.238-.123 4.453-.505 6.636-.466 2.633-.07 5.206.336 7.766.698 4.394 1.225 8.804 1.513 13.241.134 2.033.703 3.981 1.04 5.962.301 1.504.434 3.036.395 4.569-.067 1.225-.783 1.608-1.861 1.014a2.157 2.157 0 01-1.151-1.629 29.805 29.805 0 00-1.552-6.201c0-.034-.04-.071-.037-.108.095-1.476-.422-2.673-1.564-3.726v.012zm1.65-17.51l.025.027c.263-1.038-.101-2.045-.157-3.062-.08-2.305 0-4.612.24-6.905a1.57 1.57 0 00-1.075.894c-1.148 3.007-2.43 5.98-2.41 9.297 0 .919.726.028.92.407.697-1.513 1.184-.306 1.72.138.305.257.596.551 1.012.937.07-.738.138-1.274-.275-1.755v.022zm-3.26 1.317a9.429 9.429 0 00.178 3.258c.404 2.324.612 4.77 2.923 6.195.246.172.518.304.805.392.168.037.125-.22.156-.359.107-.468-.248-.566-.554-.71-.63-.306-1.301-.548-1.51-1.448.543.38.968.704 1.421.986.392.248.772.138.613-.352-.435-1.336 1.08-3.145-.977-4.076-.487-1.62-1.999-2.386-3.055-3.899v.013zm4.573 21.408c.306 1.105.612 2.144.919 3.203.15.508.306 1.02.474 1.531a.467.467 0 00.355.227c.175 0 .19-.187.23-.334.593-2.116-.028-3.601-1.978-4.639v.012zm-.53-2.796c-.244 1.837.995 2.557 2.257 3.338.193-1.804-1.102-2.502-2.256-3.35v.012zm.025-6.565c.49-2.104-1.53-2.061-2.231-3.063-.003 1.562 1.071 2.266 2.231 3.05v.013zm-.68 4.097c.432 1.905.432 1.905 2.214 2.986-.156-1.403-.906-2.364-2.198-2.998l-.015.012zm.741-2.04c.665-1.773-.83-1.874-1.634-2.633-.233 1.473.826 1.914 1.634 2.621v.013zm-1.197-.226c-.107 1.314.852 1.868 1.706 2.551.049-1.314-.573-2.101-1.706-2.563v.012zm1.531-63.84c-1.224.206-2.449.043-3.673.334a5.296 5.296 0 003.676-.346l-.003.013zM68.44 37.7a9.421 9.421 0 00-3.643 3.98c1.17-1.378 2.52-2.581 3.646-3.98h-.003zM41.84 83.68c-.919.05-1.127-1.08-1.993-1.176a3.61 3.61 0 001.417 1.489c.328.171.72.34.548-.34l.028.027z"/></symbol></svg>