<svg aria-hidden="true" width="0" height="0" style="position:absolute"><symbol fill="curentColor" viewBox="0 0 151 86" id="categoriesa" xmlns="http://www.w3.org/2000/svg"><path d="M50.12 85.43c-2.35-.023-4.504-.236-6.675-.279-2.03-.028-3.848-.891-5.6-1.858a2.134 2.134 0 00-1-.358c-1.51-.04-2.787-.711-3.953-1.59a35.051 35.051 0 01-5.24-4.962c-1.595-1.848-3.216-3.697-5.214-5.108-3.603-2.531-6.4-5.828-9.008-9.294a54.246 54.246 0 00-7.185-7.852c-2.41-2.133-3.52-4.978-4.416-7.94-.792-2.608-1.605-5.246-1.185-8.06a1.524 1.524 0 00-.237-.948c-.673-1.27-.436-2.489.168-3.71a18.232 18.232 0 013.793-5.022 43.337 43.337 0 006.059-7.153c2.235-3.354 5.56-5.374 9.036-7.111 2.899-1.453 5.96-2.574 8.88-3.994a15.17 15.17 0 012.98-1.01 46.21 46.21 0 0011.105-4.425A33.743 33.743 0 0154.832.838c2.517-.3 5.053-.403 7.586-.31C64.475.6 66.5.308 68.534.1a16.29 16.29 0 014.321.095c2.233.365 4.584-.102 6.73.588 2.697.865 5.419.474 8.123.695 1.496.155 3.002.197 4.504.128 1.51-.107 2.932.289 4.302.858 1.444.602 2.86 1.27 4.282 1.922 3.368 1.543 6.793 2.894 10.558 3.062.749.034 1.502-.087 2.254-.09a6.82 6.82 0 014.053 1.36c3.381 2.47 7.142 4.39 10.359 7.074 2.589 2.16 4.914 4.612 7.168 7.125a54.951 54.951 0 004.993 4.835c2.007 1.738 3.811 3.679 5.608 5.625.759.82 1.489 1.66 2.371 2.351 2.287 1.75 2.745 6.568-.347 8.742-1.742 1.225-3.555 2.053-5.689 2.25a36.834 36.834 0 00-8.533 1.827c-3.153 1.076-6.422 1.588-9.736 1.813-5.343.367-10.039 2.427-14.393 5.428a22.172 22.172 0 01-6.358 2.96 21.45 21.45 0 00-7.668 4.082c-2.868 2.354-6.163 4.046-9.46 5.722-2.895 1.477-5.69 3.129-8.501 4.74a1.83 1.83 0 00-.51.37c-1.607 1.927-3.82 2.845-6.087 3.688-2.176.802-3.954 2.243-5.812 3.556-2.707 1.896-5.787 2.927-8.944 3.719-2.043.502-4.065 1.03-6.002.806zm16.93-20.507c-.024-.512-.356-.882-.619-1.27a4.947 4.947 0 01-.815-2.07c-.216-1.462-1.053-2.572-1.949-3.669-.237-.287-.405-.15-.61-.035-.32.18-.094.334.036.488a9.552 9.552 0 011.494 2.54c.3.712.415 1.499.886 2.134.536.734.843 1.61.885 2.517.272-.237.367-.597.71-.67.079.327-.12.575-.236.836a3.608 3.608 0 00-.294 2.754 4.697 4.697 0 01-.403 3.556c-.344.659-.598 1.266-.536 2.024.062.759-.337 1.031-1.076.84-.52-.138-1.04-.29-1.588-.19-1.046.192-2.091.398-3.082-.29.759.91 1.735 1.325 2.845 1.148 1.915-.301 2.901.208 3.662 2.083.142.35.287.394.654.28.56-.176.474-.496.325-.88-.711-1.896-.917-3.806-.15-5.752.186-.474.399-.989.351-1.463-.137-1.63-.44-3.257-.48-4.911h-.01zm-11.876-4.447c-.782-.142-.69-.843-.766-1.341-.237-1.565-.382-3.143-.557-4.717-.028-.237.026-.474-.344-.51-.414-.03-.83-.109-1.242-.178-.63-.106-.806.138-.787.78.067 2.406.17 4.803.761 7.168a1.77 1.77 0 01-.56-1.126 35.887 35.887 0 01-.556-5.98c0-.28.135-.74-.237-.787-.797-.104-1.475-.55-2.297-.749.04 2.987-.152 5.907.526 8.791-.372.04-.43-.34-.474-.583a15.9 15.9 0 01-.22-1.685c-.238-2.098-.186-4.202-.171-6.307a.711.711 0 00-.474-.75c-.543-.236-1.079-.473-1.66-.73-.21 2.689.114 5.294.197 7.9.014.475-.168 1.267.32 1.506 1.076.524 1.508 1.6 2.304 2.354.367.348.602.341.99.1a496.913 496.913 0 015.216-3.184l5.926-3.342c-1.007-1.147-2.406-.747-3.596-1.207 0 .5.33.837.183 1.387-.166-.27-.309-.405-.332-.557-.214-1.422-1.396-1.896-2.458-2.475-.645-.355-.747-.037-.6.508.137.507.06 1.021.126 1.524.203 1.41.11 2.87.791 4.19h-.01zm-14.007 10.05c-.647-.237-1.133-.289-.633.783-.652-.439-.671-1.444-1.572-1.228.097.787.662 1.422.744 2.384a7.654 7.654 0 01-1.06-2.052c-.208-.517-.625-.73-1.073-.55-.448.18-.054.592.024.846.31 1.01.697 1.996 1.067 3.024-.36-.068-.413-.334-.508-.533a15.518 15.518 0 01-1.121-3.098.533.533 0 00-.67-.434c-.437.074-.221.415-.162.643.12.46.268.912.422 1.36.386 1.114.785 2.224 1.237 3.501a1.673 1.673 0 01-.654-.915 19.032 19.032 0 01-1.33-3.873c-.15-.735-.528-.965-1.157-1.104a17.516 17.516 0 01-8.332-4.44c-1.422-1.34-3.008-2.529-4.33-3.96-4.267-4.613-9.124-8.534-14.223-11.954.251 1.422.526 3.02.822 4.62.202 1.085.304 1.227 1.065 1.69-.207-1.52-.752-2.98-.567-4.504.268.894.384 1.806.574 2.702.237 1.1.256 2.3.976 3.217 1.264 1.611 2.37 3.335 3.623 4.949 1.213 1.564 2.536 3.034 4.266 4.081.057.055.114.11.169.166.948 1.062 2.261 1.64 3.496 2.435l-2.077-5.767.325-.107c.683 1.858 1.434 3.693 2.018 5.582.286.925.884 1.422 1.758 2.039-.365-1.074-.744-1.946-.948-2.859-.204-.913-.711-1.761-.426-2.934.98 2.752.983 5.655 3.207 7.64-.292-1.056-.692-2.075-1-3.12-.309-1.046-.854-2.039-.747-3.423.199.313.291.398.313.5.488 2.216 1.33 4.319 2.026 6.466.292.89.948 1.422 1.64 2.221-.421-2.37-1.37-4.413-1.322-6.636.358 1.706.948 3.351 1.346 5.041.294 1.24.346 2.643 1.826 3.447-.475-2.37-1.235-4.575-1.323-6.893.675 2.32 1.14 4.681 1.778 7.004.206.756.647 1.2 1.287 1.676-.595-2.264-1.384-4.374-1.607-6.62.178.113.306.29.358.495.457 2.003 1.062 3.963 1.607 5.94.237.825.711 1.294 1.45 1.747-.68-2.257-1.49-4.378-1.64-6.765.444.163.372.367.406.538.41 2.133.855 4.266 1.683 6.281.237.602.275.59 1.047.792-.65-2.245-1.495-4.423-1.638-6.758.293.774.534 1.566.723 2.37.42 1.487.868 2.968 1.323 4.445a.948.948 0 00.666.666c.422.116.36-.31.526-.474.693-.69.773-1.422.292-2.316a6.376 6.376 0 01-.588-1.863c-.064-.353-.339-.763.026-1.25.436 1.274.545 2.549 1.2 3.71a3.15 3.15 0 00.528-1.687 8.246 8.246 0 011.422-4.765c.475-.71 1.136-1.298 1.423-2.133.678-.3 1.116-.896 1.775-1.353-.877-.209-1.557-.711-2.427-.77.145.609.547.948.948 1.542-.974-.412-1.185-1.185-1.614-1.777.03.813-.237 1.76 1.02 1.943.18.017.419.136.326.437l-.01-.008zm67.503-15.729c.948-.215 1.742-.787 2.608-1.213a.45.45 0 00.282-.318c.581-2.648 2.069-4.854 3.461-7.11.09-.145.113-.449.552-.276-1.391 2.337-2.859 4.622-3.793 7.424.986-.552 1.745-.97 2.499-1.399 2.064-1.185 4.34-1.73 6.637-2.24.493-.108.732-.236.462-.813a3.781 3.781 0 01-.237-1.948c.145-1.531-.32-2.894-1.057-4.205a6.696 6.696 0 01-.934-3.868c.026-.301-.154-.711.329-.813.403-.078.565.26.754.53.447.71.813 1.467 1.093 2.257.301.73.498 1.532 1.218 2.155.019-.237.043-.372.038-.51-.021-.474.105-.865.586-.99.481-.126.872.184 1.109.592.15.259.246.545.282.842.14 1.185.531 2.341.382 3.555a.648.648 0 00.353.628c0-.21.014-.39 0-.569-.178-1.808.313-3.408 1.34-4.91.824-1.21.647-2.5-.088-3.727-1.062-1.773-2.33-3.425-3.238-5.286-.256-.526-.569-.62-1.048-.547-1.335.206-2.688.332-3.997.642a108.292 108.292 0 00-15.979 5.07c-.168.069-.443.047-.441.341.624.638 1.581.778 2.16 1.437a12.164 12.164 0 012.432 4.624c.111.368.739.237.474.728-.531.984-.164 2.012-.268 3.283.858-1.237 1.143-2.546 2.231-3.274-1.311 2.23-2.899 4.345-1.856 7.137.964-1.896 1.749-3.96 3.131-5.688.09.125.114.222.078.282-1.071 1.702-1.896 3.531-2.773 5.335-.327.676-.64 1.33-.434 2.134.116.447-.183 1.154.282 1.32.398.144.948-.252 1.337-.598a.384.384 0 01.083-.038l-.05.024zm-31.527-5.532c-.294 0-.493.204-.711.339-4.186 2.5-8.102 5.42-12.286 7.739 2.058 3.401 3.885 6.833 3.826 10.962.44-1.028.773-2.014 1.11-3 .049-.145.13-.292.312-.237.237.068.11.218.05.348-1.04 2.283-1.157 4.779-1.702 7.175-.356 1.569-.017 2.95.32 4.397.097.415.315.495.711.358 1.638-.576 3.28-1.145 4.826-1.951a4.156 4.156 0 001.842-1.678c.948-1.775 2.447-2.82 4.31-3.482 2.579-.913 5.037-2.114 7.5-3.3a16.636 16.636 0 003.87-2.607c1.297-1.154 1.338-1.282.67-2.899-.326-.782-.807-1.256-1.77-1.209-1.44.072-2.315-.862-2.33-2.332 0-.723-.016-1.446 0-2.169.03-1.06-.5-1.844-1.185-2.64a14.953 14.953 0 00-.71 2.946c-.361-.412-.205-.692-.155-1.007.173-1.103 1.005-2.238-.09-3.319-.017-.016-.016-.057-.016-.085 0-.237-.145-.505.047-.695.192-.19.474-.052.645.083.417.308.488.07.642-.284.237-.578.22-1.32.948-1.711-.853 1.7-1.092 3.261.728 4.465.552-1.5.742-3.117 1.593-4.522.237-.4-.218-.877-.474-1.268a.41.41 0 00-.538-.16c-.858.276-1.347.017-1.408-.831-.043-.628-.237-1.226-.216-1.868.033-.858-.156-.948-.948-.614-2.487 1.074-4.824 2.444-7.204 3.726-.763.413-1.567.768-2.233 1.346l.026-.016zM19.05 56.69l2.66 1.619c-.09-1.778-.166-3.423-.26-5.065a1.484 1.484 0 00-.385-.899c-.566-.647-1.128-1.299-1.697-1.957-.26.36-.168.765-.2 1.149-.12 1.538.188 3.06.198 4.594 0 .275.128.561-.318.557a.863.863 0 00.076-.692 22.062 22.062 0 01-.263-4.217c.059-1.171.284-2.335-.304-3.432-.166-.306 0-.579.202-.515.543.178.38-.305.526-.474.147-.168-.04-.564.507-.588-.931 1.726.633 2.19 1.498 3.217.14-1.721-.092-3.302.27-4.835.173 1.317.21 2.65.11 3.974-.202 1.935 1.31 2.667 2.323 3.916.282-2.927-.434-5.688.12-8.44.092.15.133.325.12.5.06 2.408.115 4.814.191 7.222.026.827.157 1.633 1.034 2.036.474.216.981-.185 1.515.218-.34-2.633-.185-5.134-.207-7.63 0-.294-.178-.853.237-.834.628.028 0 .493.105.758.03.178.03.36 0 .538 0 2.257-.02 4.504.154 6.772.052.662.173 1.088.867 1.23.252.067.497.154.735.259v-7.424c0-.453.033-.903.057-1.353 0-.16.066-.318.237-.309.17.01.164.166.161.33-.026 2.226 0 4.454-.064 6.68-.097 2.943.737 5.498 2.909 7.48-.204-1.745-.418-3.584-.628-5.423-.211-1.84-.437-3.745-.631-5.62-.028-.28-.145-.676.306-.756.597 4.904.934 9.822 1.79 14.764-.354-.14-.335-.403-.37-.566-.195-.91-.22-1.913-1.517-1.998-.15 0-.292-.2-.427-.318-.353-.308-.526-.796-1.05-1.055.04 1.285.365 2.456.474 3.662-.434-.758-.505-1.607-.673-2.436-.18-.894.13-1.968-.858-2.608-.323-.208-.638-.625-1.005-.474-.273.121-.098.6-.098.915.017.36.053.717.11 1.072.075.744.151 1.486.236 2.28a.507.507 0 01-.348-.489c-.12-1.16-.237-2.32-.363-3.479-.023-.237.026-.533-.341-.49-.78.087-1.358-.33-2.079-.916.147 1.2.268 2.202.396 3.203.047.377.017.742.374 1.054 1.541 1.35 2.997 2.797 4.578 4.099a18.65 18.65 0 008.104 3.868c.072-.54-.422-.948-.168-1.583.431.474.41 1.045.662 1.49.236.408.746.51.843.252.157-.42-.18-.948.031-1.458.09-.218-.275-.27-.446-.363-2.206-1.185-3.792-2.986-4.992-5.153-.147-.27-.374-.76.204-.663.669.114.453-.306.408-.522-.6-2.991-.806-6.035-1.211-9.052-.072-.538-.211-1.145.237-1.816.31 3.51.67 6.836 1.166 10.145.095.645-.026 1.494.474 1.87 1.313 1.008 2.46 2.328 4.212 2.65a8.345 8.345 0 013.03 1.292c.875.586 1.89.93 2.941.996 1.063.057 1.506.429 1.634 1.484.076.609.154 1.218.237 1.94.457-.675.474-1.388.727-2.004.105-.238.223-.512.565-.51.341.002.443.272.526.53.068.198.102.404.102.612a22.876 22.876 0 00.505 5.905c.08.339-.043.735-.299.777-1.095.183-1.078 1.185-1.512 1.87-.892 1.39-.444 2.733.118 4.134.683-1.82 1.07-3.695 2.342-5.157-.796 1.595-1.334 3.28-1.896 4.96-.237.712-.033 1.216.291 1.766.09.15.143.334.38.323.343-.017.223-.285.27-.474a52.62 52.62 0 012.02-6c.109-.27.102-.685.559-.737.133.299-.09.498-.182.728a64.252 64.252 0 00-1.968 5.639c-.076.26-.182.557 0 .763.38.422 1.773-.04 1.896-.616.448-1.975 1.074-3.897 1.686-5.822.133-.417.161-.948.801-1.358-.842 2.65-1.66 5.106-2.273 7.63 1.583.112 1.842-.095 1.958-1.52a1.128 1.128 0 010-.18c.237-1.168.327-2.37.917-3.514a.556.556 0 01.1.58c-.282 1.185-.56 2.37-.802 3.556-.05.237-.237.623.185.765.712.237 1.676-.474 1.773-1.24.107-.836.261-1.659.892-2.341-.239.986-.476 1.973-.711 2.96.142.031.201.067.237.052.258-.078.512-.168.77-.253a31.664 31.664 0 007.981-3.932c.712-.475.75-.882.39-1.52a2.582 2.582 0 00-.795-.832c-.853-.611-1.73-.453-2.702-.384-1.423.097-4.104-2.299-4.452-3.698 0-.028 0-.056-.019-.087-.045-.237-.076-.507.175-.638a.475.475 0 01.626.204c.334.424.68.84 1.015 1.266.637.818 1.353 1.457 2.51 1.213.856-.18 1.702-.258 2.562.088.475.187.593-.237.475-.564-.28-.751.028-1.318.384-1.934.71-1.256.846-2.472.4-3.463-.609 1.593-.931 3.21-1.349 4.797-.163-.772.062-1.486.21-2.218.26-1.311.857-2.536.978-3.883.237-2.7-1.202-4.892-2.261-7.165-.873-1.873-1-1.792-2.864-.991-3.224 1.387-6.504 2.645-9.546 4.425-1.292.756-1.29.75-.289 1.847.202.22.63.429.32.799-.31.37-.533.03-.818-.162-1.256-.853-1.844-.825-3.081.034-.474.327-.948.644-1.541 1.038.073-.536.391-.688.633-.875.45-.346.922-.663 1.396-.979.256-.168.448-.31.157-.616-.866-.915-1.596-1.984-2.729-2.607-1.214-.664-2.164-1.617-3.025-2.66a14.332 14.332 0 00-1.849-1.974 14.326 14.326 0 01-4.44-6.4c-.737-2.076-1.675-4.103-3.273-5.717-.711-.725-1.396-1.562-2.534-1.534a5.257 5.257 0 01-2.09-.42 7.203 7.203 0 00-2.625-.502c-1.282 0-2.489-.237-3.555-1.03a4.112 4.112 0 00-2.041-.838 2.28 2.28 0 01-1.66-.974c-.81-1.216-1.396-2.586-2.489-3.612-.128-.121-.35-.372-.092-.63.258-.259.53-.086.71.085a25.15 25.15 0 011.49 1.569c.787.91 1.538 1.816 2.825 2.09a6.355 6.355 0 012.243 1.105c.4.277.839.531 1.337.391.632-.178 1.232-.09 1.867 0 .69.107 1.306.417 1.977.562.598.128.991-.071.78-.73-.21-.66-.154-1.306-.263-1.956-.199-1.185-.251-2.37-.372-3.638.163.083.237.1.251.13.202 1.631.363 3.267.612 4.89.07.474-.159 1.185.538 1.342.873.214 1.718.532 2.515.948v-6.665a.712.712 0 00-.382-.638c-.815-.578-1.792-.82-2.638-1.323-.894-.53-1.882-1.227-1.896-2.26-.038-2.035.13-4.068.502-6.069.434-2.157.218-2.868-1.389-3.972-.934-.643-2.034-.332-2.432.76a5.368 5.368 0 01-1.057 1.76 1.79 1.79 0 00-.349.684c-.618 1.785-.697 3.627-.692 5.487 0 .415.204.555.507.73 1.702.987 2.544 2.753 3.748 4.191.05.07.08.152.088.237a.55.55 0 01-.17.57c-.205.148-.338-.025-.49-.086a4.413 4.413 0 01-1.36-1.02c-.735-.73-1.536-1.291-2.638-1.398-1.102-.107-2.26-.294-2.999-1.351-.858-1.223-2.062-1.626-3.534-1.5-.538.045-.711.237-.474.63a2.28 2.28 0 01-.093 2.399c-.784 1.268-.438 2.37.223 3.496.365.619.617 1.206-.237 1.66-.287.149-.14.43-.137.649.016 1.92.36 3.792.777 5.667.083.365.09.962.787.977.299 0 .27.374.218.595-.102.426-.365.147-.547.073a18.612 18.612 0 00-1.897-.79c-.287-.082-.73-.77-1.026.07-.057.163-.237-.055-.263-.166-.455-1.385-1.923-1.847-2.544-3.082l-.19.123.254 2.357a2.11 2.11 0 01-.46-1.401c.012-.57-.033-1.065-.633-1.458s-.817-1.756-.37-1.96c.885-.408.475-.901.136-1.318a8.247 8.247 0 00-1.795-1.74c-.173 1.74.09 3.356.368 4.978a10.267 10.267 0 01-.75-4.504c.022-.54-.02-.988-.473-1.363a1.06 1.06 0 01-.259-1.249c.223-.547 0-.903-.384-1.332-.372 1.538-.09 3.048-.282 4.537a5.895 5.895 0 01-.199-3.407c.306-1.448-.159-2.355-1.31-3.123-.621.839-1.182 1.721-1.677 2.64a1.768 1.768 0 00-.087 1.304c.436 1.93 1.6 3.453 2.638 5.074a51.314 51.314 0 0010.266 11.793c1.574 1.374 3.1 2.74 4.644 4.067h.021zm54.063-32.513a4.3 4.3 0 001.534 2.683c-.152-1.216-1.09-1.806-1.536-2.686-.055-.07-.097-.142.014-.196a.093.093 0 01.08.019 4.3 4.3 0 011.369 1.53c.215.437.436.648.998.29-.107.223-.145.296-.178.372-.413.948.502 1.126.948 1.406.446.28.396-.391.55-.64.291-.474.268-1.133 1.024-1.5-1.368 3.209-2.195 6.416-3.01 9.628-.16.623.068.877.559.948.49.07.37-.408.429-.664a93.216 93.216 0 012.724-9.412c.097-.278.102-.631.46-.766.165.29 0 .495-.065.711-1.033 3.198-2.007 6.4-2.825 9.668-.157.626-.017.697.547.856 1.01.285 2.05-.128 3.037.251.251.095.27-.144.291-.324.418-3.347 1.378-6.57 2.245-9.813.171-.636-.014-.816-.528-.949-.237-.061-.489-.132-.75-.203-.966 3.555-2.038 7.03-2.72 10.766-.33-.512-.238-.873-.152-1.242.637-3.056 1.49-6.059 2.313-9.067.145-.521.116-.614-.436-.728-.993-.206-2.027-.023-3-.474-1.02-.474-2.044-1.002-3.225-.99a.187.187 0 01-.13-.273 2.545 2.545 0 011.145.073c1.725.522 3.361 1.264 5.272 1.257 1.017 0 .948-.548 1.021-1.015.095-.697-.538-.237-.822-.343a1.185 1.185 0 00-.628 0c-1.935.393-3.793.1-5.654-.493a3.483 3.483 0 00-1.32-.105c-.621.048-1.332.297-1.873-.327 1.093.297 2.202-.379 3.269.062 2.32.962 4.708.666 7.083.396.56-.064 1.133 0 1.685-.237A21.081 21.081 0 0189 20.838c2.65-.32 5.26-1.038 7.984-.62-.183-.337-.543-.357-.828-.496-1.016-.498-2.133-.832-2.982-1.624-.146-.137-.39-.28-.21-.507.128-.159.331-.038.474.07.651.508 1.44.688 2.19.975 1.254.474 2.475 1.022 3.51 1.937.655.578 1.238 1.213 1.85 1.827 1.123 1.133 2.576 1.527 4.164 1.304.669-.093 1.323-.114 1.925.237.922.53 1.733 1.185 2.228 2.162.214.426.396.92.878 1.102 1.123.462 2.272.858 3.441 1.185 1.66.41 3.357.147 5.038.199 1.5.047 2.906.474 3.804 1.692.669.913 1.404.88 2.326.766 1.258-.154 2.527-.209 4.053-.33-.313.238-.391.36-.474.377-1.24.2-2.477.398-3.719.57-.918.125-.998.236-.422 1.007 1.01 1.343 2.133 2.607 3.209 3.887 1.66 1.927 1.646 3.844.38 5.95a8.686 8.686 0 00-1.29 5.214c.029.436.102.58.571.448a90.245 90.245 0 013.758-.962c.405-.095.414-.297.396-.64-.055-1.022.161-2.022.296-3.03.225-1.683.711-3.346.415-5.074-.263-1.541-.437-3.082-.202-4.651.18-1.204-.261-2.15-1.318-2.925a12.325 12.325 0 00-2.512-1.353c-1.75-.75-3.426-1.596-4.694-3.082a.322.322 0 00-.199-.155.318.318 0 00-.249.037c-.043.626-.652 1.161-.488 1.87.064.277 0 .4-.185.507a.347.347 0 01-.32-.023c-.178-.157.035-.323.04-.494.024-.969 1.045-1.773.474-2.844-.012-.024.116-.17.171-.168.521.043.502-.391.623-.695.545-1.353 1.072-2.716 1.636-4.06.149-.353.268-.792.927-.948-.861 1.536-1.375 3.067-1.982 4.563-.649 1.604-.619 1.642 1.012 2.37.212.11.434.2.662.273 1.614.42 3.029 1.27 4.458 2.08.558.349 1.143.65 1.75.904 1.645.607 2.133 2.133 2.712 3.555.125.301 0 .711-.069 1.064-.161.754-.334 1.513-.493 2.267-.211.997 0 2.007-.192 3.064-.583-.237-.351-.922-.849-1.17.02.374.02.749 0 1.123-.152 1.396-.066 2.844-.583 4.16-.306.775-.379 1.54-.493 2.325-.1.687.123.948.846.675.643-.253 1.316-.43 1.97-.651 3.603-1.212 7.401-1.325 11.11-1.897 2.001-.305 3.243-1.659 3.615-3.448.287-1.375-.237-2.667-1.51-3.226a5.628 5.628 0 01-3.081-3.245 2.078 2.078 0 00-1.226-1.261c-1.441-.496-2.934-.787-4.655-1.126.967 1.375.934 2.752.87 4.131-.012.237.166.602-.237.662-.403.059-.389-.33-.475-.555a78.052 78.052 0 01-1.047-3.418c-.237-.865-.685-1.38-1.66-1.256a.278.278 0 01-.341-.237c.1-.237.46 0 .569-.275-.356-.427-.87-.538-1.313-.77-1.309-.688-2.589-1.423-3.359-2.76-.133-.237-.5-.516-.168-.767.331-.252.599.026.848.282.411.44.869.831 1.368 1.168 1.472.965 3.207 1.52 4.466 2.823.09.08.202.131.322.147 1.529.218 3.06.429 4.741.664a17.745 17.745 0 00-3.115-2.37c-2.503-1.532-4.475-3.618-6.319-5.865-2.162-2.633-4.433-5.214-7.233-7.158-3.434-2.37-7.094-4.423-10.655-6.61-.052-.031-.104-.062-.159-.088-.611-.316-.772.023-.711.54.057.57.318 1.1.735 1.493.735.711 1.567 1.32 2.183 2.148.166.223.337.46.069.71-.213.205-.429.136-.649-.016-.221-.151-.52-.303-.764-.474-.832-.585-1.498-1.4-2.458-1.808-.204-.086-.424-.384-.711-.05a.648.648 0 00-.111.82c.237.408.523.799.772 1.209.164.273.455.588.114.877-.341.29-.545-.11-.73-.301a10.634 10.634 0 00-1.986-1.676 2.26 2.26 0 01-1.091-2.107c.186.11.365.234.536.367a.581.581 0 00.927-.116c.215-.363-.273-.415-.489-.562-.15-.096-.32-.16-.497-.187-1.845-.308-3.772-.237-5.424-1.353a.71.71 0 00-1.038.182c-.266.436.104.711.37.967.642.638 1.303 1.254 1.939 1.897.237.237.694.493.426.85-.315.427-.633-.03-.903-.218-.664-.455-1.223-1.064-2.008-1.339a2.426 2.426 0 01-1.308-1.159c-.607-1.036-1.659-1.47-2.745-1.6a5.196 5.196 0 01-2.112-.645c-.851-.504-1.683-1.038-2.546-1.524-.237-.135-.642-.286-.808.04-.166.328.237.5.474.624a8.718 8.718 0 013.408 2.998c.651.974 1.457 1.835 2.385 2.548.356.273.695.57 1.036.861.166.142.344.35.209.54-.188.261-.432.067-.631-.059a15.695 15.695 0 01-3.278-2.645c-1.008-1.088-1.785-2.427-3.29-3.003-.695-.268-1.221-.474-1.318.561-.017.19-.129.403-.408.36-.124-.134.021-.236.06-.314.305-.671.345-1.162-.598-1.311-.34-.055-.636-.391-.949-.595a39.516 39.516 0 00-1.777 4.477 1.54 1.54 0 01.035-1.04c.375-1.13.813-2.238 1.311-3.319.11-.237.237-.44.05-.744-.597-.984-2.608-1.932-3.74-1.707-1.264.256-2.682-.535-3.004-1.803.868 1.597 2.35 1.26 3.722 1.341.92.052 1.709.515 2.389 1.119.493.439.948.932 1.406 1.403.237.237.455.474.81.531 1.06.15 2.092.459 3.06.915l2.772 3.183c-.08-.36-.251-.694-.498-.969-.711-.79-1.22-1.775-2.247-2.245-.375-.44-.948-.606-1.392-.926-.317-.22-.56-.508-.412-.908a.844.844 0 01.86-.534 2.03 2.03 0 011.167.422c.675.444 1.313.948 1.998 1.375.578.36 1.25.538 1.929.514 1.105 0 2.331.425 2.809 1.453.512 1.1 1.347 1.456 2.451 1.92a15.94 15.94 0 01-1.351-1.303c-.251-.308-.517-.726-.161-1.136.356-.41.633-.846 1.275-.564.354.157.761.209 1.086.403a5.512 5.512 0 002.897.792c.746 0 1.559.047 2.256.457.427.254 1.079.453.977 1.031-.092.524-.737.576-1.226.662-.087.016-.116.038-.156-.036.42.849 1.098 1.08 1.783 1.422-.437-.71-.159-1.29.355-1.706.515-.418.948.083 1.38.284.432.209.825.49 1.164.83.376.406.833.73 1.341.948-.592-.628-1.242-1.185-1.849-1.794-.606-.61-1.005-1.347-.768-2.165.176-.606-.068-.692-.486-.843-2.133-.773-4.401-.975-6.618-1.24A38.617 38.617 0 0195.602 4.35c-1.285-.597-2.608-1.185-4.066-1.014-1.362.15-2.704 0-4.05-.164a26.96 26.96 0 00-2.966-.26c-.844-.015-1.602 0-2.29.687-.63.619-.763.894-.076 1.49.63.546 1.254 1.127 2.091 1.361.837.235 1.169.612.548 1.446-.294.396-.392.934-.624 1.382-.197.38-.275.628.254.775.412.116.768.422 1.026-.237.508-1.301 1.072-2.581 1.64-3.856.121-.268.169-.657.669-.711-.65 1.498-1.29 2.95-1.896 4.416-.124.298-.517.666.123.948.64.282.711-.2.889-.555.308-.611.593-1.233.905-1.842.237-.443.375-.948.892-1.199-.41.984-.901 1.918-1.368 2.863-.514 1.043-.505 1.048.612 1.484.618-1.66 1.185-3.318 2.168-4.9a.627.627 0 010 .643 40.13 40.13 0 00-1.744 4.108 1.118 1.118 0 00.092.988c.614 1.204 1.186 2.418 2.2 3.361.133.126.332.299.126.54-.207.242-.377.072-.55-.03-.173-.102-.353-.237-.524-.351a14.441 14.441 0 01-2.755-2.716c-.137-.166-.237-.458-.523-.394-.359.085-.392.116-.394-.26a.71.71 0 00-.661-.733c-.354-.066-.33.33-.439.555-.13.268-.102.618-.448.926-.033-.413.04-.827.213-1.204.157-.386-.033-.585-.374-.647-.263-.045-.64-.142-.474.394.045.159-.093.362-.237.27-.617-.391-.536.204-.645.453-.128.335-.234.68-.318 1.028-.291-.535 0-.967.105-1.422.045-.199.305-.426.016-.642a2.707 2.707 0 00-1.96-.474c-.583.054-.474.607-.614.948-.493 1.231-.89 2.5-1.185 3.792a.547.547 0 01-.166-.602c.358-1.185.71-2.386 1.064-3.586.066-.237.564-.545-.085-.735-.448-.13-.782-.19-.92.413a8.803 8.803 0 01-.474 1.249c-.564 1.422-1.164 2.82-1.47 4.338a1.42 1.42 0 01-.04-1.1c.453-1.607 1.105-3.139 1.688-4.696.059-.159.42-.429-.048-.55-.848-.22-1.2-.896-1.576-1.595-.377-.7-1.003-1.304-1.84-1.237-.924.07-1.659.538-1.912 1.588-.237 1.005-.617 1.981-.932 2.972-.13.415-.14.884-.623 1.38.3-1.719.931-3.134 1.282-4.582-1.23-.287-2.212.066-2.944 1.097-.11.154-.344.223-.526.323-.282.154-.84-.2-.835.507 0 .405-.265.801-.078 1.23.088.202.147.417.218.623-.63-.443-.74-1.016-.543-1.701.093-.32.237-.78-.37-.775-.654 0-1.337-.176-1.96.109-1.15.521-2.02.085-2.809-.728a4.504 4.504 0 00-2.399-1.313c-1.062-.211-2.406.988-2.37 2.048.016.457.201.96-.195 1.377-.237.237-.772.237-.666.73.126.571.685.137.986.35.076.042.156.077.237.105.686.33.842-.03.925-.638.142-1.064.35-2.116.529-3.173.047-.28.14-.491.561-.474-.474 1.488-.547 2.979-.86 4.427-.135.619.512.89.905 1.046.318.125.259-.408.309-.68.11-.646.236-1.29.37-1.928.05-.237.05-.547.518-.55-.158.82-.34 1.59-.448 2.37-.066.475-.414 1.006-.109 1.444.365.52.877.934 1.382 1.453.306-1.967.214-3.809.576-5.672.328.237.237.474.237.652-.092 1.346-.218 2.69-.3 4.03-.041.632-.304 1.329.367 1.827 1.63 1.213 2.944 2.825 4.805 3.757.313.154.71.31.872.81-2.463-.87-4.016-2.913-6.149-4.434.206 1.092.93 1.614 1.546 2.178 2.37 2.173 5.452 3.171 8.106 4.902.084.068.197.01.287-.005zM65.83 9.719c-1.332.02-2.33-.896-2.76-2.448-.191-.69-.018-1.095.681-1.261.26-.064.524-.124.78-.2.633-.182.841-.533.63-1.215-.474-1.546-.263-1.897 1.292-2.37.617-.186 1.266-.292 1.819-.894-2.51.455-4.877 1.085-7.313 1.208-1.048.055-1.643.434-1.686 1.539 0 .36-1.282 1.119-1.642.988-.581-.21-.441-.666-.358-1.13.042-.254.208-.612-.183-.792-.948-.436-2.3.095-2.47 1.097-.137.813-.474 1.6-.408 2.456.074 1.133-.602 1.825-1.481 2.37-.474.306-.84.15-.965-.35a2.479 2.479 0 01.237-1.897c.04.292.052.396.069.5.064.45-.263 1.155.197 1.29.417.12.843-.474 1.185-.865.154-.178.355-.403.353-.605-.017-1.064.41-2.097.204-3.19a.538.538 0 00-.301.54c.18 1.102-.448 1.422-1.385 1.517a1.342 1.342 0 00-1.125.657c-.404.758-.925 1.45-1.134 2.32-.199.828-.677 1.441-1.616 1.576-.939.136-1.878.356-2.823.475-.297.035-.712.19-.98-.283.949-.068 1.8-.36 2.67-.552.362-.078.592-.218.602-.642.028-1.057-.252-2.148.341-3.224-1.088.685-2.45.647-3.319 1.565-1.054 1.114-2.273 1.384-3.652.865a2.48 2.48 0 00-2.072.076c-.621.296-1.25.474-1.982.237-1.228-.38-2.214 0-2.89 1.145a8.06 8.06 0 01-1.545 1.754c-.4.367-.794.734-.808 1.344 0 .22-.128.44-.384.393-.256-.047-.121-.294-.147-.455-.145-.903.538-1.4 1.026-2.008-.737.218-1.462.413-1.782 1.202-.46 1.135-1.394 1.522-2.475 1.273-1.325-.303-2.11.258-2.726 1.294-.2.373-.521.667-.91.834-.712.28-1.07-.011-1.105-.772-.029-.654.5-1.038.785-1.721a5.682 5.682 0 00-.657.384c-1.441 1.185-2.87 2.39-4.314 3.577-1.003.827-2.018 1.673-3.459 1.069-.318-.133-.517.07-.746.182-2.371 1.133-3.691 3.295-5.154 5.317-.26.358.05.448.237.474.811.092 1.563.47 2.122 1.064.533-1.268 1.488-1.88 2.723-2.152-.393-.398-.962-.282-1.341-.726.493-.206.834.048 1.17.166 1.373.474 2.675 1.186 4.123 1.422 2.067.342 3.347.093 4.203-2.047.07-.166.154-.325.253-.474a2.06 2.06 0 012.987-.614 6.984 6.984 0 011.982 2.19c.453.79 1.633.877 1.714 2.026.03.45.71.621 1.128.43.341-.164.495-.1.827-.062.866.097 1.738.22 2.707.39-.201-.454-.552-.5-.825-.64-1.12-.585-2.206-1.23-3.081-2.158-.915-.98-.915-1.94-.062-2.973.664-.806 1.735-1.036 2.769-.578.9.398 1.673 1.052 2.652 1.299.313-.443.237-.763-.265-1.053-.711-.407-1.128-1.03-.834-1.88.533-1.533 2.557-2.825 4.105-2.37 1.347.394 2.743.155 4.058.59.13.043.261-.144.427.103a60.659 60.659 0 003.577 4.916c1.088 1.294 2.133 2.548 3.508 3.527 1.03.732 1.705 1.94 2.861 2.45a31.796 31.796 0 015.557 3.21c1.138.806 2.425 1.358 3.6 2.114-1.088-.142-1.993-.697-2.92-1.211-1.77-.981-3.236-2.486-5.189-3.148-1.273-.429-2.223-1.277-3.143-2.173a17.506 17.506 0 00-1.766-1.532c-.744-.55-1.614-1.012-2.008-1.896-.71-1.597-2.413-2.37-3.12-4.14-.362.8-.454 1.386-.132 2.01-.78-.397-.557-1.124-.389-1.608.306-.884-.116-1.318-.735-1.872-.384 1.875-1.15 3.6-.564 5.487-.585-.616-.633-1.351-.517-2.133.133-1.094.356-2.175.669-3.231.071-.218.201-.52-.159-.543-.303-.019-.735-.308-.92.202-.098.281-.16.575-.184.872-.136 1.612-.422 3.214-.373 4.84 0 .209-.016.422-.32.443 0-.12-.033-.237-.033-.358-.024-1.865.237-3.71.422-5.558.024-.22.254-.52-.19-.5-.566.026-1.069-.275-1.659-.304-.27 1.475-.488 2.916-.818 4.333-.128.55-.087.913.358 1.204.346-1.502.439-3.064 1.155-4.458-.41 2.394-.948 4.757-1.254 7.168-.325-.57-.121-1.11-.02-1.66.027-.144.093-.379-.175-.426a.308.308 0 00-.386.275c-.047.237-.107.474-.147.697-.093.554-.178 1.111-.268 1.659l-.237-.029a20.7 20.7 0 01.258-2.071c.129-.567 0-.858-.583-.918a14.666 14.666 0 00-.374 2.755c-.745-1.064.474-2.242-.531-3.319-.237 1.33-.43 2.465-.61 3.606-.052.324-.054.649.294.874.238.164.475.4.3.744a.672.672 0 01-.925.335c-.948-.522-1.112.142-1.392.775-.168.379-.147.782-.213 1.308-.522-.813-.062-1.382.123-1.981.06-.19.38-.43-.012-.593-.286-.118-.474-.014-.614.308-.296.69-.606 1.368-.618 2.133-.517-.962.194-1.749.422-2.607-1.629-.344-1.724-.237-2.103 1.316-.204.839-.083 1.685-.294 2.512-.495-1.299.014-2.56.209-3.792a6.803 6.803 0 01-.984-.304c-.37-.18-.5-.04-.524.304-.133 1.747-.777 3.45-.436 5.236l-.237.038a1.83 1.83 0 01-.237-1.216c.178-1.363.218-2.762.576-4.077.334-1.23-.315-1.83-1.076-2.608a37.33 37.33 0 00-.77 6.206c-.055 1.11.32 1.474 1.516 1.659-.073.28.136.358.318.474l2.674 1.562.258-3.925a9.79 9.79 0 01.209 2.723c-.088 1.788.038 2.055 1.645 2.823.337.162.661.418 1.093.37.052-.519.064-1.033.163-1.531.166-.83.076-1.529-.71-2.02a2.26 2.26 0 01-.577-.568.5.5 0 01-.057-.418c.086-.199.237-.033.363 0 1.11.223 1.128.209 1.214-.929.028-.389.014-.782.019-1.185 0-.46.033-.908.474-1.23-.216.86.054 1.761-.166 2.572-.29 1.06.125 1.611.965 2.093.587.339.926.929 1.185 1.538.104.237.175.58-.064.747-.24.166-.443-.088-.626-.237-.503-.41-.998-.83-1.56-1.3-.078.809-.161 1.52-.21 2.231-.017.22-.117.503.15.654 1.08.61 1.985 1.422 2.976 2.532-.237-2.769.175-5.255.109-7.756-.02-.697.54-1.486-.278-2.09-.108-.081-.061-.237.053-.301.725-.448.516-1.186.592-1.845.076-.659.098-1.287.474-1.848-.014.995-.13 1.97-.237 2.946-.045.408-.17.808.237 1.157.711.606 1.404 1.263 2.269 2.052-.15-1.363.166-2.477.14-3.614a4.46 4.46 0 01.263-1.313.277.277 0 01.355-.197.215.215 0 01.1.3c-.562 1.186-.26 2.492-.474 3.732-.26 1.498.294 2.334 1.709 2.882.13-1.128.266-2.257.391-3.385.315-2.844.313-2.844.823-3.155.175.223-.062.391-.097.576-.347 1.797-.434 3.622-.64 5.433-.038.332-.268.751.125.97.394.217.865.637 1.292.455.31-.136.107-.712.135-1.09a3.823 3.823 0 01.014-.712c.195-.723 0-1.56.754-2.37-.14.912-.237 1.602-.35 2.282-.361 1.937-.171 2.37 1.37 2.937.047-1.474 0-2.948.511-4.425.325.28.237.521.207.74-.105 1.042-.207 2.085-.337 3.126a1.337 1.337 0 00.68 1.422c.538.382 1.052.797 1.539 1.242.206.173.474.396.287.67-.154.224-.43.053-.655-.044-.587-.259-1.185-.496-1.792-.745-.213.996.176 1.897.1 2.845a6.08 6.08 0 01-.517-2.546c0-.54-.78-1.422-1.29-1.299-.592.135-.218.737-.282 1.121-.055.39-.048.785.022 1.171.18 1.155-.014 2.323.26 3.518a.437.437 0 01-.338-.396 37.098 37.098 0 01-.354-5.215c0-.538-.73-1.284-1.273-1.2-.62.1-.343.672-.346 1.023-.019 2.552-.377 5.103.107 7.895A2.013 2.013 0 0143.888 42v-7.137c0-.291.097-.607-.26-.782-.475-.237-.949-.474-1.492-.742-.168 3.854-.346 7.625-.237 11.441-.343-.104-.36-.289-.358-.474.055-2.799-.137-5.6.119-8.398.09-.988.415-2.183-.069-2.922-.645-.986-1.645-1.775-2.242-2.892-.268 4.622-.638 9.183.016 13.774-.346-.086-.343-.266-.36-.45a198.716 198.716 0 00-.358-3.76c-.017-.15.187-.474-.206-.455-.773.026-1.186-.597-1.771-.948-.339-.204-.628-.51-1.098-.507 0 1.981-.014 3.908 0 5.835 0 .38.04.986.259 1.093 1.043.517 1.161 1.633 1.761 2.422.548.712 1.261 1.35 2.197 1.131 1.046-.237 1.875.064 2.72.557.701.392 1.44.714 2.204.962.917.32 1.031-.061.988-.85-.04-.712-.111-1.442.204-2.134.11.886.158 1.779.147 2.672 0 .237-.147.54.268.656.619.17 1.22.396 1.82.598.27-1.399-.236-2.81.418-4.096-.052 1.251.062 2.498 0 3.74-.02.462.13.711.576.844.398.118.77.322 1.159.474.427.168.654.116.635-.443-.038-1.115-.019-2.23 0-3.345 0-.272-.14-.628.356-.777v3.081c0 1.915 0 1.913 1.865 2.245.399.07.59.038.548-.486-.12-1.56-.047-3.129-.237-4.686-.05-.415-.071-.865.434-1.162-.154 1.626.16 3.165.118 4.717-.045 1.66.017 1.66 1.66 2.04.331.077.656.179 1.038.285-.086-2.49-.619-4.894-.102-7.3.035 2.216.28 4.411.427 6.615.057.863.381 1.145 1.116 1.28 1.441.263 2.69 1.072 3.816 1.866.747.526 1.041.358 1.577 0 3.624-2.37 7.258-4.74 11.11-6.75.2-.129.39-.273.567-.432l-.029.026 4.777-2.292c2.171-1.04 4.402-1.946 6.746-2.845-.659-.613-1.301-1.085-1.78-1.69-.479-.604-1.309-.618-1.76-1.227-.082-.11-.328-.11-.426.137-.287.711-.682 1.387-.756 2.183-.014.166.33.43-.035.488-.365.06-.292-.305-.287-.516.014-.8.386-1.491.71-2.183.202-.42.022-.553-.314-.73-.382-.202-.6-.164-.757.25-.429 1.14-.948 2.245-1.313 3.412-.12.394-.12.815 0 1.209-.403-.218-.533-.42-.436-.84a19.651 19.651 0 011.349-3.673c.265-.581.15-.78-.413-1.041-2.818-1.31-5.88-2-8.652-3.44a3.54 3.54 0 00-2.453-.253c-2.164.474-3.556-1.036-5.298-1.946.367-.206.507-.057.675-.014 1.503.37 2.895 1.29 4.58.799.493-.145.796-.237.917-.764.323-1.422.915-2.763 1.496-4.1.1-.237.147-.617.628-.538a42.176 42.176 0 00-1.82 4.634c-.104.332-.29.644.265.71.555.067 1.15.171 1.752.26a18.461 18.461 0 011.15-5.453c.37-1.026.71-1.896-.308-2.766-.297-.237-.41-.71-.57-1.107a1.203 1.203 0 00-.473-.628c-.894-.474-1.66-1.21-2.632-1.538-2.154-.728-3.868-2.133-5.573-3.555-.365-.302-1.012-.432-1.097-.797-.273-1.185-1.278-1.66-2.053-2.62-.182 1.089-.393 1.959-.457 2.845-.064.887-.297 1.797.042 2.719-.562-.09-.452-.474-.474-.78-.085-1.569.18-3.11.474-4.634.152-.813-.502-.915-.85-1-.458-.111-.28.453-.332.74-.1.557-.207 1.114-.278 1.675-.284 2.224-.711 4.428-.856 6.682a8.6 8.6 0 01-.047-2.723c.299-2.157.642-4.312.841-6.48.086-.935-.905-.579-1.398-.804-.493-.225-.427.237-.46.495-.405 3.098-.841 6.194-.756 9.398-.029-1.867-1.185-2.882-2.553-3.754-.332 1.062-.192 2.107-.33 3.131a13.989 13.989 0 01-.12-2.667c.026-.55-.143-.82-.712-.9a6.27 6.27 0 01-4.03-2.28c-.862-1.027-2.19-1.442-3.2-2.288-.282-.237-.637-.123-.948-.114-.28 0-.396.15-.178.399 1.236 1.405 2.01 3.233 4.101 3.82 1.027.287 1.816 1.186 2.54 2.269-1.335.043-2.037-1.074-3.2-1.233.535.98 1.13 1.778 2.012 2.333.567.34 1.078.77 1.512 1.27a5.397 5.397 0 002.328 1.633c3.005 1.114 5.196 3.4 7.618 5.357-.71-.109-1.209-.564-1.725-.986-1.302-1.057-2.494-2.25-4.05-2.967-2.012-.927-4.045-1.83-5.477-3.641-.17-.17-.37-.309-.59-.408-.949-.543-1.442-1.496-2.027-2.37a.474.474 0 010-.654c.175-.188.365-.14.574-.043.336.159.682.296 1.13.474-.334-.607-.841-.751-1.297-.915-1.085-.386-1.948-.993-2.507-2.038a8.788 8.788 0 00-1.05-1.451c-.238-.282-.572-.52-.38-.922.192-.403.643-.415 1.024-.394.337-.014.67.08.948.27 1.25 1.013 2.762 1.66 3.831 2.945.925 1.116 2.304 1.393 3.75 1.607-.144-.474-.474-.474-.711-.52-1.185-.253-2.133-.855-3.039-1.637-1.313-1.138-2.37-2.657-4.3-2.916a.5.5 0 01-.434-.51.562.562 0 01.491-.568c1.863-.332 3.707-1.261 5.61-.024.548.356 1.312.576 1.959.107 1.133-.825 2.252-1.029 3.444-.138.09.069.32.29.41-.024.06-.213.145-.473-.258-.516-.403-.043-.828-.107-.991-.526.517-.425 1.462-.176 1.498-1.167 0-.023.145-.066.216-.059.626.064.775-.04.583-.585-.33-.948.085-1.53.759-2.096 1.085-.907 2.214-.76 3.335-.154.784.427 1.505.972 2.27 1.437.475.294.998.528 1.494 0 1.017.187 2.043.021 3.063.106a1.3 1.3 0 001.26-.523c.527-.728 1.267-.963 2.12-.93.448.017.747-.166 1.097-.474a2.75 2.75 0 012.34-.69c1.012.19 1.467.923 1.851 1.766.453.986 1.897 1.465 2.864.949-.354-.14-.7-.299-1.038-.475-1.472-.877-1.555-3.08-.162-3.95.792-.494 2.098-.266 2.779.514.488.559.993 1.035 1.856.832-.474-.318-.915-.6-1.337-.923-.517-.395-1.09-.744-1.212-1.486-.12-.742.441-1.03.949-1.462a5.172 5.172 0 01-.742-.04c-.968-.237-1.705.08-2.632.51-1.116.516-1.995 1.097-2.716 2.033-.161.21-.42.431-.697.299-.277-.133-.294-.439-.268-.712.026-.272.08-.53.097-.796.045-.647.458-1.185.598-1.96-.806.474-1.098 1.064-1.067 1.837.033.844-.161 1.619-.797 2.207-.28.26-.535.794-1.03.447a1.185 1.185 0 01-.475-1.358c.183-.628.441-1.237.588-1.872.111-.474.443-.967.14-1.536a.79.79 0 00-.394.71c.11 1.407-1.045 2.558-.777 3.995.03.163-.164.37-.256.555-.493.967-1.617.964-2.335 1.585.225-.5.637-.892 1.147-1.092.759-.366 1.216-.93 1.131-1.852-.04-.433-.144-.903.142-1.315.474-.685.491-1.52.712-2.287.047-.171.104-.401-.12-.475-1.054-.303-2.133-.855-3.223-.374-1.09.481-2.176 1.102-3.34 1.5-.474.162-.735.474-.529 1.105.543 1.66.363 1.896-1.35 2.306-.344.08-.712.15-.62.68.238 1.354 1.8 2.342 3.177 2.07.711-.14 1.422-.415 2.193-.033l-2.968.656zm22.47 13.08c0 .87-.366 1.637-.624 2.431-.206.624.064.828.64.851.43.02.52-.237.638-.585.237-.711.275-1.541.986-2.34-.069.967-.386 1.607-.557 2.283-.06.237-.285.507.166.637.834.237 1.422-.054 1.73-.858.27-.71.375-1.514 1.057-2.313-.038.787-.32 1.242-.49 1.73-.5 1.44-.5 1.44.998 1.811.204.044.404.106.597.185a7.261 7.261 0 003.288.75c.578-.022 1.164.21 1.75.317.168.03.317.13.312.27-.005.14-.166.21-.315.277-1.285.574-3.108.349-4.454-.62.78-.022 1.363.388 2.012.53.77.168 1.29.135 1.897-.299-2.345.306-4.381-1.047-6.664-1.114l2.544.866c-.15.275-.273.192-.42.144a34.281 34.281 0 00-1.877-.569c-.768-.199-.555.526-.728.849-.237.434.123.488.512.493-.258.237-.443.607-.77.38-.327-.228-.128-.608-.112-.925.017-.318.474-.797-.182-.794-.49 0-1.266-.446-1.48.521-.146.664-.362 1.316-.502 1.982-.047.237-.17.697.154.68 1.124-.06 2.342.533 3.343-.028 1.62-.913 3.05-.543 4.473.263a8.075 8.075 0 003.292 1.05c.6.019 1.198.07 1.792.151 1.335.264 2.629.854 4.044.572.135-.026.323-.031.358.17.036.202-.152.306-.31.375-.901.393-1.826.583-2.783.208-.766-.296-1.56-.507-2.371-.308-1.185.294-2.254.057-3.292-.474-.711-.374-1.396-.813-2.167-1.078-1.337-.474-2.114.078-2.022 1.422.028.398-.083.673-.538.502a.81.81 0 01-.55-.768c.071-1.095-.623-.976-1.299-.86-.268.045-.538.161-.796.066-.868-.315-1.356.237-1.847.775-.2.219-.322.503-.505.738a.411.411 0 01-.303.137c-.207-.016-.166-.199-.173-.346-.029-.673 0-1.422.474-1.877.993-.989.732-2.333 1.159-3.473.237-.635-.45-.585-.782-.71-.475-.193-.425.236-.496.506l-1.422 5.25a39.534 39.534 0 00-.735 3.215 1.854 1.854 0 01-.102-1.124c.474-2.51 1.128-4.977 1.84-7.438.056-.199.196-.488 0-.564-.59-.215-1.228-.384-1.847-.237-.391.093-.299.588-.396.903-.12.396-.15.82-.237 1.226-.711 2.984-1.223 6.004-1.742 9.026-.1.585-.033 1.057.732 1.13 1.638.157 2.757 1.114 3.76 2.356 1.358 1.678 1.422 1.66 3.319.86 2.785-1.184 5.591-2.327 8.137-4.029-.611-.4-1.185-.77-1.754-1.15-.147-.099-.334-.217-.263-.426.071-.209.327-.251.529-.237.744.085 1.526.133 2.176.5.65.368 1.206.275 1.837-.069 5.184-2.844 10.764-4.266 16.626-4.74a30.899 30.899 0 004.585-.598c-1.394-.794-2.489-1.611-4.078-1.22-1.024.254-2.133.616-3.183.36a31.021 31.021 0 00-3.051-.614c-1.467-.204-2.567-1.104-3.541-2.152-.975-1.048-2.037-1.801-3.44-1.946-2.1-.216-3.769-1.038-5.139-2.728a4.88 4.88 0 00-3.752-1.882c-1.278 0-2.556.237-3.826.438-1.117.166-2.233.614-3.33.564-1.99-.087-3.421 1.136-5.083 1.811a.804.804 0 00-.375.934c.11.325.553.368.894.396.52.047.273-.408.393-.628.176-.318 0-.775.42-1.083.151.38.151.804 0 1.185-.206.569-.014.858.607.872.24.028.478.077.711.145.495.1.825.028.989-.574.175-.801.336-1.657.92-2.323l.014.007zm11.44 35.243c1.877-.562 3.576-1.064 5.269-1.588.22-.069.491-.052.597-.41.443-1.472.216-2.915-.083-4.582l-1 2.458-.237-.069c.59-1.986 1.965-3.868.872-6.162-.742 1.104-1.055 2.37-1.602 3.503.059-1.247.554-2.354 1.13-3.404a1.824 1.824 0 00.062-1.763c-.562-1.358-1.576-2.47-2.029-3.89-.403-1.268-1.263-2.228-2.299-3.043a.81.81 0 00-.97-.135c-3.319 1.611-6.843 2.744-10.266 4.2.474.948 1.026 1.804 2.045 2.28 1.086.512 1.482 1.54 1.446 2.607-.07 2.155.711 3.821 2.43 5.08a1.702 1.702 0 01.66 1.137c.236 1.458.397 2.916-.394 4.29-.238.416-.422.88-.207 1.373.062.138.11.439.346.273.818-.567 1.702-1.015 2.558-1.517.38-.223.06-.778.133-1.185.26-1.437.74-2.935.268-4.34-.688-2.05-1.162-4.198-2.3-6.087a5.689 5.689 0 01-.51-1.33c-.085-.285-.14-.67.214-.785.299-.094.46.237.569.474a19.432 19.432 0 002.515 3.926c.227.276.39.6.474.948.363 1.555.308 3.219 1.216 4.634a.45.45 0 01-.142.57c-.752.679-.571 1.589-.773 2.53l.007.007zM44.475 83.494c-.09-1.659.38-2.972.803-4.25.365-1.104.444-2.086-.073-3.155-.332-.687-.415-1.486-.619-2.223-.27-.974.218-1.896-.068-2.858-.19-.633-.394-1.35-1.022-1.468-.628-.118-.882.619-1.145 1.098-1.818 3.318-3.4 6.724-4.504 10.35-.1.33-.192.65.17.883 1.024.69 2.15 1.21 3.338 1.543.34.087.529.035.55-.34.064-1.208.543-2.308.934-3.424.33-.949.68-1.897 1.332-2.771a.561.561 0 01-.03.6 26.076 26.076 0 00-1.968 5.437c-.135.557.014.728.524.711.749-.054 1.5-.07 2.25-.047.633.047.841-.237.948-.77.225-1.264-.18-2.509-.237-3.808a801.97 801.97 0 00-1.19 4.485l.007.007zM25.206 35.55l.27-.272c-.646-.74-1.348-1.441-1.927-2.23a4.977 4.977 0 00-2.382-1.84 7.65 7.65 0 01-3.129-2.048c-.924-1.01-1.998-1.737-3.44-1.939-1.21-.17-2.348-.604-3.178-1.659-.441-.571-1.283-.638-1.953-.78-.346-.076-.581.614-.88.948-.343.377-.63.813-1.002 1.162-.475.455-.337.763.158 1.017.292.149.597.268.913.355a1.976 1.976 0 011.387 1.171 7.293 7.293 0 001.47 2.133c.777.837 1.151 1.83.883 2.973-.286 1.228.133 2.16 1.077 2.937.251-.401.144-.78.021-1.15-.197-.586-.296-1.185-.04-1.754.514-1.119.777-2.169.237-3.409-.41-.936.237-1.474 1.247-1.213.197.066.403.103.611.109 1.297-.055 2.26.578 2.97 1.562a2.608 2.608 0 002.278 1.166c1.378 0 2.594.42 3.464 1.576.296.39.623.78.938 1.178l.007.008zM8.957 37.718c-.128-2.098.066-4.046.062-6.002.008-.418.073-.833.192-1.235.033-.128.075-.237.225-.215.251.03.142.22.123.343-.325 2.115-.337 4.243-.339 6.376 0 .757.126 1.423.697 1.956.571.533.856 1.28 1.1 2.027.114.35.123.763.578 1.109-.26-3.145-.635-6.18-.173-9.216.034 2.574.116 5.144.382 7.732.254-.237-.104-.685.353-.76.35-.06.531.222.737.438.415.433.614 1.002.948 1.566.237-.815-.237-1.524-.11-2.26.132-.826-.186-1.423-.847-1.935-1.136-.87-1.456-2.031-.934-3.361.251-.64.175-1.299-.223-1.69-1.422-1.384-1.714-3.85-4.13-4.248a.82.82 0 01-.364-.256c-.318-.31-.527-.206-.809.093-.822.863-.625 2.043-1.012 3.039-.448 1.154.11 1.836 1.076 2.386.37-1.118.256-2.37 1.048-3.384-1.033 2.735-.796 5.233 1.413 7.49l.007.007zm82.729 12.562c-.161 1.235-.28 2.475.237 3.508.732 1.47 1.28 2.942 1.439 4.573.043.438.173.843-.285 1.116-.457.273-.908.661-1.472.223a1.034 1.034 0 00-.768-.168c-2.219.19-2.408-1.491-1.87-2.9.434-1.137.237-1.753-.948-2.417.334.948.237 1.866.083 2.792-.301 1.942.343 2.71 2.237 2.676a1.726 1.726 0 011.717 1.062c.315.635.443 1.325.791 2.15a18.527 18.527 0 001.797-1.896.438.438 0 00.08-.56c-.421-.862-.236-1.685.167-2.495a5.555 5.555 0 00.576-3.053c-.057-.624-.223-1.164-.903-1.406-.565-.2-.932-.657-1.26-1.126-.843-1.206-1.407-2.508-1.272-4.03.066-.753-.064-1.535-.647-1.979-.993-.756-1.897-1.535-2.47-2.673-.152-.306-.417-.273-.695-.114-.177.1-.46.128-.348.41.322.825.126 1.723.393 2.546.086.26.147.668.586.474.787-.341 1.133.147 1.368.737.298.744.526 1.517.784 2.278.105.38.278.683.664.253l.019.02zM35.172 63.27c1.228 2.37 2.984 3.77 5.293 4.434.863.237 1.688.579 2.52.896 1.522.581 2.031 1.38 2.029 3.015 0 .474-.012.965-.029 1.446a7.485 7.485 0 00.987 3.866c.625-1.422.981-1.583 2.43-1.185.55.154.9.08.734-.623a13.073 13.073 0 01-.353-4.814c.026-.385.026-.77 0-1.155a6.069 6.069 0 00-.685 1.68c-.11.378-.194.861-.695.78-.5-.08-.585-.57-.576-.992a7.612 7.612 0 00-.237-1.873c-.07-.313-.185-.782-.675-.692-1.347.237-2.475-.304-3.504-1.022s-1.993-1.273-3.217-1.465c-1.545-.246-2.61-1.405-4.041-2.315l.019.019zM21.999 24.595c-1.896.59-3.517-.026-5.136-.657-1.378-.535-2.418-.272-3.412.835-.879.981-.834 1.135.446 1.564.276.115.56.207.851.275a4.885 4.885 0 012.992 1.645 7.27 7.27 0 003.596 2.197 19.105 19.105 0 01.644-5.878l.02.019zM43.57 58.542l.202-.057c-.116-2.209-.251-4.418-.34-6.636-.023-.636-.077-1.048-.893-.851-.545.132-1.036-.19-1.524-.418-.488-.227-.834-.59-1.368-.637-1.206-.114-2.048-.74-2.607-1.804a8.35 8.35 0 00-.562-.83c.576 1.773 1.31 3.454 1.993 5.156.325.912.96 1.68 1.795 2.171 1.185.65 1.956 1.633 2.59 2.773.212.375.465.74.7 1.114l.014.02zM53.66 3.3c-5.125.474-9.406 3.158-14.104 4.582.593.176 1.185.026 1.707.346 1.118.68 2.064.183 2.95-.49.356-.268.643-.636 1.108-.733a10.038 10.038 0 002.42-.908c.237-.118.5-.37.813-.08a.775.775 0 01.17.983c-.433.858-.21 1.771-.284 2.66-.035.431.161.353.427.237.52-.223.711-.697.922-1.162.237-.545.439-1.102.63-1.659.309-.9.785-1.517 1.876-1.439.346.024.948.05.874-.568a2.434 2.434 0 01.477-1.788l.014.02zm69.499 38.698c-.019.253-.045.431-.045.609 0 .36.062.784-.334.948-.436.187-.725-.178-.988-.455-.553-.583-.759-1.344-1.031-2.072-.309-.82-.531-1.685-1.221-2.512a6.6 6.6 0 00.981 4.214c.849 1.406 1.557 2.818 1.185 4.56-.097.474.093 1.008.192 1.506.081.412.313.576.775.448 1.015-.285 2.041-.515 3.065-.757.28-.066.37-.168.339-.492a8.926 8.926 0 011.342-5.73 5.216 5.216 0 00.74-2.827c0-.948-.474-1.759-1.423-2.335 1.081 1.57 1.283 3.126.304 4.572-1.076 1.586-1.337 3.283-1.24 5.12.024.439.275 1.185-.249 1.264-.659.108-.711-.726-.991-1.186-.04-.068-.012-.177-.026-.265-.173-1.116-.237-2.25-.559-3.34-.133-.483-.095-1.062-.83-1.29l.014.02zM43.89 60.382a.775.775 0 00-.166-.768c-.65-.709-1.203-1.5-1.645-2.354a6.55 6.55 0 00-2.133-2.266 4.49 4.49 0 01-1.59-1.806 193.442 193.442 0 01-1.688-3.57c-.401-.865-.787-1.742-1.171-2.607a.489.489 0 01.033-.59c.187-.164.374-.017.566.087.466.285.847.688 1.105 1.169 1.287 2.022 3.556 2.09 5.509 2.825.088.02.18.02.268 0 .17 0 .379.033.41-.237.024-.206.08-.431-.159-.56-.863-.454-1.643-1.2-2.705-1.056-1.78.237-2.956-.6-3.724-2.06a2.726 2.726 0 00-1.5-1.275c-1-.346-1.84-.797-2.51-1.776a1.66 1.66 0 00.457 1.527c.458.519.934 1.03 1.207 1.659.71 1.643 1.53 3.23 2.133 4.925a9.818 9.818 0 003.063 4.454c1.156.948 2.316 1.92 3.21 3.155.267.393.504.865 1.016 1.105l.014.019zm1.494-46.33c2.216.197 3.283 2.027 4.764 3.216.83.679 1.79 1.18 2.821 1.475.52.152.583-.055.624-.403.106-.948.237-1.896.256-2.861 0-.58.396-1.138.097-1.785-1.242.758-2.53.633-3.698.012-1.733-.932-3.231.097-4.869.327l.005.019zm44.965 35.144a30.901 30.901 0 00-1.301 3.876c-.171.604-.157 1.076.315 1.55s.678 1.057.313 1.716c-.15.258-.285.524-.406.796-.528 1.254.088 2.072 1.423 1.897.238-.041.482-.023.71.054 1.089.38 1.608-.04 1.494-1.22-.114-1.181-.422-2.352-1.185-3.32a3.01 3.01 0 01-.638-1.895c-.054-1.145-.469-2.21-.74-3.473l.015.02zM32.417 35.738c-.203 2.17.16 4.112.124 6.063-.022 1.038.92 2.33 1.896 2.655.977.324 1.062.237.875-.773a5.383 5.383 0 01-.057-.896v-4.6c0-.238.175-.603-.2-.695-1.054-.275-1.798-.965-2.652-1.773l.014.019zM97.56 20.994c1.085.508 2.102 1.131 2.878 2.075a4.481 4.481 0 002.697 1.675 10.79 10.79 0 015.976 3.018c.187.187.439.313.642.488 1.107.948 2.584.849 3.826 1.351 1.243.503 2.423.474 3.665.2a14.466 14.466 0 011.581-.28c1.479-.16 2.522.791 3.762 1.609-.562-1.038-1.394-1.458-2.306-1.783-1.159-.41-2.394-.296-3.556-.305a19.298 19.298 0 01-6.049-1.062 2.961 2.961 0 01-1.781-1.399 8.75 8.75 0 00-.813-1.287c-.936-1.159-1.723-1.367-3.129-.917a1.04 1.04 0 01-.614.05c-1.498-.538-3.155-.773-4.2-2.207a5.856 5.856 0 00-1.062-.97c-.448-.376-.837-1.083-1.517-.256zm-61.85 4.397c.021-.398.028-.815.071-1.23.043-.415.128-.822.173-1.235.154-1.422.15-1.422-1.166-2.107-.318-.166-.624-.355-.948-.519-1.09-.562-2.112-.31-2.805.683-.592.846-.455 1.422.6 2.358a8.478 8.478 0 004.075 2.039v.011zm46.347 12.776c.439-3.854 1.252-7.552 2.046-11.252.1-.473.135-.616-.391-.69-.439-.06-.794-.367-.996.368a204.278 204.278 0 00-2.133 8.564c-.33 1.427.225 2.264 1.474 2.998v.012zM6.494 51.441c-.711-2.276-.711-4.551-1.5-6.59-.79-2.038-1.856-3.977-3.492-5.541.045 2.89 1.161 5.451 2.359 7.983.118-1.422-.408-2.823-.136-4.252.287 1.327.479 2.674.574 4.029.083 1.745.908 3.048 2.205 4.364l-.01.007zm49.654-30.074c.206-1.972.431-3.838.588-5.71.142-1.683.033-1.747-1.422-2.271-.655-.237-.842.057-.906.566-.199 1.603-.367 3.207-.545 4.812-.02.178-.038.358.152.474.846.529 1.277 1.441 2.133 2.122v.007zM80.462 5.825c-1.076 0-1.072.047-1.55.474-.534.474-.238 1.403.317 2.313.292.474.785 1.145 1.584.583.1-.068.173-.116.3-.021 1.591 1.185 2.35 1.012 3.108-.711.03-.081.064-.16.105-.237.474-.735.056-.967-.583-.925a2.03 2.03 0 01-1.87-.853c-.394-.517-.878-.737-1.411-.623zM46.09 60.742c0-.294.021-.526 0-.754a50.297 50.297 0 01-.327-7.265c.033-.908-.22-1.31-1.112-1.552-.789-.216-.813 0-.772.668.116 2.005.27 4.018.196 6.02-.076 1.534.683 2.297 1.999 2.883h.016zm26.947-27.123c0 .926.605 1.659 1.273 1.74.254.033.309-.136.337-.304.36-2.171 1.057-4.266 1.66-6.362.07-.237.191-.4-.2-.493a4.453 4.453 0 01-1.142-.502c-.237-.13-.268-.083-.356.135a24.628 24.628 0 00-1.588 5.786h.016zM34.273 9.499a45.3 45.3 0 00-7.519 2.607c-1.273.566-2.088 1.346-2.607 2.553-.116.275-.446.637-.119.86.328.223.671-.088.896-.386.102-.145.19-.3.266-.46.664-1.268 1.292-1.562 2.75-1.287.82.154 2.114-.398 2.323-1.143.322-1.156 1.251-1.386 2.133-1.322 1.157.088 1.467-.593 1.877-1.422zm90.042 17.457c.425.448.924.82 1.475 1.1 1.154.547 2.339 1.033 3.475 1.618 1.725.894 3.081 2.041 2.885 4.286-.072.768.092 1.555.161 2.332.014.143-.107.387.211.375.559-.022.379.571.635.806.145-.868.237-1.73.443-2.565.28-1.11.254-2.076-.576-3-.5-.558-.656-1.423-1.517-1.66-.761-.208-1.408-.647-2.079-1.04-1.557-.918-3.141-1.78-5.113-2.252zM17.763 38.243c.285.884.657 1.782 1.574 2.027 1.23.33 2.33.884 3.445 1.448.326.149.677.235 1.035.254 2.994.237 5.784 1.253 8.577 2.033.118-1.306-1.081-1.483-2.013-1.813-1.062-.38-1.088-.303-1.164.806-.39-.211-.092-.948-.585-.948-1.027-.014-1.923-.775-2.845-.69-1.998.185-3.525-.858-5.231-1.505-1.03-.405-2.067-.678-2.786-1.612h-.007zm87.534 8.137c.512-.33.586-.758.647-1.251.161-1.278-.711-2.174-1.071-3.255-.626-1.896-2.297-2.49-3.701-3.448a.407.407 0 00-.576.047c-.182.275.147.33.299.43a6.125 6.125 0 012.496 3.208c.505 1.472 1.46 2.726 1.913 4.27h-.007zm-83.4 8.06c-.213 1.312.195 2.524.14 3.756a.71.71 0 00.294.626l2.41 1.87c0-.628-.18-1.112-.198-1.619-.06-1.543-.038-3.148-1.847-3.894-.294-.13-.505-.472-.785-.747l-.014.007zm16.335-37.76l.209.088c-.223 1.062-.45 2.134-.669 3.19-.069.33.017.67.354.724.336.054.312-.308.355-.553.192-1.083.386-2.164.59-3.245.052-.274.391-.592.188-.796-.285-.282-.752-.185-1.117-.078-1.007.296-1.605 1.097-2.235 1.87-.54.659-.346 1.14.237 1.598.3.237.44.286.564-.211.123-.498.088-1.112.645-1.524.137.51-.169.87-.211 1.272-.043.403-.455.903.054 1.05.316.09.292-.569.391-.91.242-.825.143-1.747.652-2.482l-.007.008zM5.757 46.377c.678 2.498.403 5.32 2.726 7.509-.837-2.703-.36-5.585-2.71-7.517l-.016.008zm91.447 2.04c.678 1.283.813 2.736 1.558 3.956.43.729.57 1.594.388 2.42-.16.948-.343 1.868-.488 2.807-.04.258-.237.7.183.735.488.042.334-.448.377-.747.026-.178.068-.356.078-.533.042-.761.555-1.385.711-2.039.135-.585-.574-1.349-.588-2.086-.021-1.846-.616-3.382-2.202-4.52l-.017.007zm7.057-15.582c-1.09.045-2.022-.593-3.11-.635-1.91-.074-3.776-.322-5.452-1.422-1.484-.977-2.982-.564-4.483.3.783.14.754.75.866 1.468.178-1.567.948-2.088 2.32-1.792.58.136 1.132.37 1.634.69a6.209 6.209 0 004.006.974 5.686 5.686 0 012.813.389 2.07 2.07 0 001.423.021l-.017.007zm-79.647 21.75c-.282 1.185.213 2.038 1.085 2.728.377.299.844.382 1.233.057.218-.183-.161-2.067-.396-2.28-.132-.119-.291-.34-.445-.218-.59.464-.963-.164-1.458-.294l-.02.007zm71.68-34a9.07 9.07 0 00-2.918-.05c-1.851.254-3.696.55-5.54.852-1.208.171-2.384.519-3.491 1.03-.292.143-.612.359-.45.66.18.341.473 0 .68-.112.948-.51 1.896-1.142 2.97-1.185 2.975-.154 5.807-1.123 8.768-1.202l-.019.007zm-81.51 25.393c-.972-1.85-1.115-3.899-2.473-5.4.176.927.414 1.84.711 2.734.107.322.2.554-.204.71-.187.08-.57-.272-.564.28 0 .418.135.676.524.83.628.254 1.245.526 2.006.846zm42.84 8.14c-.236-.06-.329.05-.331.277 0 .45-.066.842.595.996 1.116.26 2.344.28 3.243 1.166.206.204.422.353.71.118.127-.102.375-.135.266-.381a.948.948 0 00-.514-.574c-.605-.237-1.185-.552-1.766-.853a8.48 8.48 0 00-2.202-.75zM11.978 44.36c-1.027-1.643-1.505-3.541-2.484-5.2-.204 2.306-.202 2.303 1.142 3.989.373.462.66.998 1.342 1.21zm9.68-29.494c-2.133.645-4.318 2.02-5.276 3.184 2.499-.02 3.523-2.214 5.277-3.184zm51.378-8.381c1.105-.913 1.377-1.422 1.41-2.562.011-.387.131-.762.347-1.083.102-.155.395-.453-.031-.548-.316-.069-.887-.299-.963.069-.263 1.31-.841 2.574-.763 4.124zm5.976-3.852c-1.977-.28-2.37-.286-2.593-.066-.375.36-.825 1.965-.735 2.607a.58.58 0 00.474-.379c.417-1.02 1.145-1.534 2.264-1.529.303.012.533-.218.59-.633zM21.734 51.7c.277 1.538.78 2.944 2.434 3.707.014-.526.223-1.024-.151-1.4-.752-.776-1.515-1.522-2.283-2.319v.012zm55.504-14.504a39.693 39.693 0 014.504 1.897c.244.108.481.23.711.365.27.178.474.128.538-.166.064-.294-.237-.206-.356-.197-.286.024-.426-.152-.6-.322-1.296-1.261-2.801-1.92-4.797-1.588v.011zm10.513 5.69c-1.128-.963-1.86-2.274-3.113-3.082-.149-.1-.339-.52-.62-.093-.221.337-.221.602.149.823 1.01.611 1.763 1.536 2.707 2.23.225.154.41.455.877.105v.016zM27.319 55.79c-.098 1.754-.07 1.792 1.735 2.42.09-1.78.016-1.886-1.735-2.436v.016zm.282-24.105c.825 1.931 2.816 2.112 4.359 2.979-1.18-1.394-2.937-1.939-4.36-2.98zM46.26 81.13c1.05-1.512.792-2.994.237-4.577-.68 1.531-.356 3.015-.24 4.577h.003zm.815-.564c-.71.979-.742 1.844-.22 2.733.194.33.443.796.867.564.354-.194.218-.683.057-1.036a7.925 7.925 0 01-.706-2.261h.002zM89.27 14.865c-.336-.751-.573-1.422-.922-2.022-.308-.526-.609-1.1-1.244-1.346-.178-.069-.365-.114-.474.057a.31.31 0 00.045.412c.967.823 1.467 2.07 2.605 2.899h-.01zM5.394 29.528l-.142-.079c-.474.564-.967 1.124-1.441 1.695-.083.1-.259.254-.086.37.317.214.656.395 1.01.538.161.062.237-.175.263-.294.147-.747.268-1.493.396-2.23zM48.828 51.57a.176.176 0 00-.201.183c-.024.237-.067.507.192.642.528.275 1.061.545 1.614.77.14.057.45.188.519-.13.05-.237.114-.588-.085-.68-.643-.31-1.325-.522-2.039-.785zm33.845-26.194c-.981-1.073-.979-1.083.316-1.766.102-.052.237-.095.284-.18.047-.085.121-.284-.045-.389-.206-.128-1.576.332-1.678.56-.55 1.22-.4 1.484 1.123 1.773v.002zM8.988 39.051c-.474-1.422-1.64-2.413-2.257-3.752.076.507-.36 1.076.119 1.465.82.666 1.393 1.534 2.138 2.285v.002zm30.66-9.637c.424 1.145.928 2.235 2.204 3.031-.01-1.687-1.51-2.078-2.205-3.034v.003zm-7.276 5.553c.61.766 1.233 1.52 2.179 1.88.175.066.502.38.652.017a.532.532 0 00-.342-.78 18.166 18.166 0 01-2.489-1.119v.002zm24.653 20.039c-.209-.512.175-1.057-.448-1.266-.623-.209-1.31-.372-1.974-.538-.133-.033-.313-.03-.354.166-.03.154-.012.325.18.344.958.09 1.631.777 2.587 1.291l.01.003zm-8.868-2.911c.237-.545.097-.875-.44-1.045-.337-.11-.653-.31-.994-.363-.19-.03-.45-.38-.6-.028a.505.505 0 00.32.71c.57.23 1.134.484 1.705.724l.01.002zm-1.479 9.83c.06 1.142.989 1.697 1.612 2.448a.267.267 0 00.446.033c.237-.201.04-.31-.07-.417a8.175 8.175 0 01-1.34-1.66.642.642 0 00-.657-.407l.009.003zm.906 16.196c.22-.434.421-.787.576-1.16.09-.213.474-.447.118-.682-.251-.168-.566-.398-.903-.237-.337.161-.206.474-.192.73.025.473.159.934.391 1.346l.01.003zm6.267-24.864c-.019-.259-.237-.219-.393-.259a52.12 52.12 0 01-1.541-.389c-.237-.061-.526-.315-.56.195-.023.346.076.56.474.566.56 0 1.129-.073 1.674.154.185.074.36-.011.337-.27l.009.003zm-34.44-4.172a5.764 5.764 0 001.939 2.702c-.105-1.441-1.223-1.944-1.949-2.705l.01.003zM58.997 2.822c-1.308.092-1.327.128-1.078 1.659 1.296.054.585-1.076 1.08-1.662l-.002.003zM46.325 62.316c-.116-1.257-1.228-1.437-2.155-2.188.308 1.398 1.631 1.382 2.157 2.18l-.002.008zm26.459-26.967c-1.486-.808-3.034-.849-4.615-.365 1.555-.107 3.11-.26 4.617.358l-.002.007zM57.87 13.094c-.358-.087-.455.128-.521.375-.095.353.178.277.367.322.403.093.804.202 1.2.316.154.042.289.08.362-.112.074-.192.112-.303-.106-.443-.413-.27-.899-.294-1.3-.465l-.002.007zM45.708 50.751c0-.159-.028-.341-.177-.377-.486-.123-.982-.21-1.477-.296a.237.237 0 00-.206.116c-.031.107-.031.322 0 .334a23.22 23.22 0 001.678.474c.142.026.178-.142.185-.258l-.002.007zm60.504-.64c-.396.948-.325 2.37.213 3.432-.064-1.08-.125-2.154-.211-3.439l-.002.007zM37.666 38.298a3.868 3.868 0 00-2.065-1.622c.341.96 1.455.996 2.065 1.622zM83.37 10.255c-.948.336-1.695-.353-2.55-.142.595.298 1.242.452 1.813.756.571.303.564-.043.737-.607v-.007zM6.267 36.145c.052-.99.417-2.024-.837-2.607.106.474.573.799.517 1.306-.046.439-.425.939.32 1.301zm99.525 10.449c-.338.971 0 1.896.219 2.813.09-.953.139-1.898-.219-2.813zm-17.56-15.595c.832.05 1.66.257 2.484-.066a4.7 4.7 0 00-2.484.064V31zm-45.856 1.055c-.114.858.642 1.48 1.787 1.458a9.947 9.947 0 01-1.787-1.46v.002zM8.978 40.47c-.872.365-.877.813 0 1.585V40.47zm53.84-23.466h-.037l-1.707-1.607.197-.197 1.547 1.804zM37.535 33.896c-.438-.673-.948-1.259-1.744-1.522.49.614.974 1.23 1.744 1.53v-.008zm101.479 1.1c.181-.97-.161-1.82-.742-2.608.247.876.493 1.747.74 2.615l.002-.007zm-91.146.782c.036-.9-.78-.81-1.185-1.138-.107-.085-.266-.028-.237.119.07.521.623.474.92.732.156.115.325.214.502.294v-.007zm-35.234 7.568l-.612-1.96c-.133.778-.119 1.505.612 1.967v-.007zm84.8-6.53c.557.237.989.967 1.852.595-.603-.455-1.236-.476-1.852-.588v-.007zm-49.21-1.313c.116.948.87.948 1.422 1.185a3.922 3.922 0 00-1.422-1.185zm12.632-20.572c-.325-.365-.583-.78-1.1-.896-.02 0-.121.164-.1.223.173.503.593.68 1.072.761.026.002.059-.033.133-.088h-.005zm-42.083 50.91c.322-.15.104-.34.04-.515-.474-1.28-.929-2.56-1.422-3.83-.045-.124-.033-.41-.398-.278.358 1.546 1.105 2.956 1.602 4.456.067.055.123.119.178.166zm43.064-20.589c.152 2.048.159 3.982.728 5.975-.669-.433-.669-1.061-.711-1.566-.157-1.484-.531-2.96-.31-4.466.047-.318-.17-.339-.304-.474a10.85 10.85 0 00-3.606-2.154c-2.145-.794-3.197-2.608-4.302-4.38-.064-.105-.2-.238-.038-.397.114-.111.211-.038.325 0 .168.045.358.022.49.183 1.515 1.86 3.7 2.8 5.623 4.103 1.318.896 2.179 2.33 3.556 3.178a.292.292 0 01.12.392c-.078.154-.236.144-.395.087-.346-.13-.671-.272-1.176-.481zm-1.557-1.873a7.28 7.28 0 00-2.89-2.133c-1.166-.474-1.977-1.462-3.017-2.37 1.04 2.887 3.885 3.138 5.907 4.504zm14.934 5.075c-.024-2.05.71-3.958 1.12-5.925.162-.776.555-1.498.62-2.454-.19.166-.283.209-.306.275-.875 2.47-1.401 5.025-1.818 7.604-.043.256-.017.576.414.474l-.03.026zm-16.12-2.188c0 1.5-.028 3.004.029 4.504.035.889.237 1.77.332 2.657.023.192.08.41.265.391.38-.038.133-.296.105-.474-.06-.381-.145-.76-.183-1.145a52.713 52.713 0 01-.168-6.482c-.292.218-.377.346-.377.55h-.003zm19.535-3.318c.325-1.211.712-2.408 1.058-3.61l-.259-.069c-.889 2.37-1.586 4.805-1.725 7.348.213-1.251.602-2.46.929-3.678l-.003.01zm-5.267 4.57c0-1.545 0-3.081.612-4.556.054-.132.026-.268-.078-.305-.237-.083-.306.104-.358.277a9.555 9.555 0 00-.27 4.802.67.67 0 00.097-.227l-.003.009zm-23.23-13.897l.272-2.242h-.237c-.474 1.472-.57 2.948.081 4.427.03-.746-.194-1.457-.107-2.194l-.01.01zm13.846 12.387c.036.653.185 1.294.438 1.896a.326.326 0 00.57.135c.084-.087.236-.426.065-.426-.69 0-.422-.533-.542-.846-.237-.59-.124-1.23-.29-2.077-.334.557-.246.956-.232 1.309l-.01.01zM52.787 32.592c-.474-.71-.387-1.495-.403-2.34-.605.802-.42 1.821.412 2.33l-.01.01zm71.862-14.821c-.272.353.133.948-.331.986-.37.04-.804-.301-.934-.737-.361-1.214-1.325-2.105-1.726-3.29-.069-.206-.223-.474 0-.676.223-.201.474.034.63.169 2.831 2.37 5.69 4.728 8.458 7.182 1.091.967 1.97 2.175 2.94 3.28.154.173.391.405.218.61-.173.203-.432.047-.628-.124-.358-.318-.804-.562-1.084-.936-1.296-1.74-3.067-2.909-4.802-4.134-.956-.692-1.577-1.802-2.731-2.34l-.01.01zm-2.446-2.788c.711 1.015 1.162 2.155 1.847 3.44.166-1.456.867-.98 1.481-.68-.706-1.44-2.33-1.71-3.318-2.769l-.01.01zm4.528 3.736c.697 1.055 1.704 1.707 2.866 2.155l-2.866-2.155zm-7.323-.552c.074.33-.142.521-.263.742-1.199 2.202-2.095 4.534-2.984 6.873-.142.373.332.844-.086.932-.417.088-.915-.154-1.37-.275a5.123 5.123 0 01-2.963-2.055 6.116 6.116 0 00-1.756-1.66c-.583-.374-.918-.947-1.313-1.462-.086-.111-.354-.33-.093-.535.204-.162.417-.043.576.09 1.238 1.04 2.771 1.659 3.883 2.892 1.169 1.282 1.185 1.258 1.714-.3.63-1.895 1.659-3.661 2.652-4.52.152.361-.14.558-.298.769a14.04 14.04 0 00-2.24 4.442c-.11.37-.238.77 0 1.083.203.272.474.659.832.628.358-.03.32-.5.424-.785a43.85 43.85 0 012.437-5.745c.227-.42.391-.863.858-1.13l-.01.016zm-4.359 7.822c-1.929-1.247-3.319-3.203-5.639-4.321.294.313.405.502.571.592 1.071.598 1.851 1.489 2.608 2.435a3.466 3.466 0 002.481 1.291l-.021.003zm6.521-9.628c-.654-1.186-1.266-2.37-2.505-3.082-.207-.118-.41-.365-.617-.118-.206.246.048.438.202.62.538.634 1.059 1.24 1.221 2.134.123.678.879.81 1.465 1.057.372-.097.391-.353.244-.614l-.01.003zm1.773 2.825c-1.268 2.93-2.51 5.869-3.437 9.007.453.05.519-.104.616-.21.427-.475.238-1.077.385-1.603.273-.91.602-1.804.986-2.674.576-1.455 1.168-2.906 1.754-4.359l-.304-.161zm-1.685-.066a50.778 50.778 0 00-1.185 2.877c-.676 1.77-1.321 3.556-1.987 5.329-.071.194-.213.4.064.521.161.069.28-.078.313-.237.498-2.266 1.565-4.323 2.371-6.476.367-.983.789-1.946 1.251-3.081-.564.334-.666.725-.818 1.064l-.009.003zM74.012 17.81c.611-2.944 1.989-5.631 3.145-8.666-1.301 1.361-3.491 7.652-3.138 8.664l-.007.002zm46.821.621a35.211 35.211 0 00-3.432 8.296c1.107-2.778 2.342-5.496 3.439-8.298l-.007.002zm-7.763 4.302c.915-2.012 1.68-4.096 2.87-5.987-1.538 1.7-2.254 3.816-2.863 5.985l-.007.002zm-47.243-6.847c-.031-1.752.31-3.482.194-5.248-.36 1.728-.59 3.482-.187 5.245l-.007.003zm58.55 8.985c-.036.09-.043.252.135.273.178.021.327-.064.332-.218.024-.887.555-1.602.789-2.418.19-.666.633-1.251.612-1.99-.882 1.334-1.285 2.879-1.861 4.351l-.007.002zm-11.535-8.248c-1.107.645-2.133 2.78-1.811 3.648.183-1.37 1.119-2.359 1.818-3.65l-.007.002zM26.226 22.18c-.548 3.188-1.046 6.378-.75 9.633.03-3.233.655-6.42.75-9.633zm-1.605.561c-.536 2.812-1.09 5.623-.763 8.51.011-2.866.661-5.668.763-8.517v.007zm39.587 42.78c-1.1 2.389-1.916 4.851-1.94 7.52.415-2.574 1.198-5.044 1.928-7.528l.012.007zM37.07 62.564c-.776-2.473-.617-4.978-.975-7.51-.592 1.02.128 6.692.963 7.502l.012.008zm23.024 8.345c.254-2.074 1.1-3.96 1.849-5.873-1.105 1.804-2.058 3.66-1.868 5.866l.019.007zM17.49 45.311c-.59-1.972-1.295-3.766-1.257-5.819-.614.913.206 4.67 1.245 5.817l.012.002zm41.637 22.141c.294-.912.789-1.74 1.13-2.626a7.905 7.905 0 00-1.84 5.34c.19-.916.426-1.822.71-2.714zM38.13 57.578c-.291 1.692-.156 3.318.813 4.77-.716-1.533-.576-3.192-.822-4.782l.01.011zm20.15 7.584a5.306 5.306 0 00-1.637 4.18c.37-1.466.783-2.912 1.636-4.182v.002zM77.633 58.1a69.33 69.33 0 014.28-9.28c-1.137.619-4.486 8.04-4.28 9.278v.002zm6.035-9.417c-1.811 2.863-3.319 5.862-4.267 9.123 1.278-3.107 2.819-6.094 4.267-9.126v.003zm-8.297 9.308c1.186-2.875 2.662-5.606 4.063-8.374-1.758 2.6-3.24 5.328-4.075 8.372l.012.002zm-4.05 7.37c-.883 1.004-2.41 7.131-2.042 8.212.456-2.901 1.311-5.541 2.03-8.215l.011.002zm11.062-8.621c.913-2.53 2.025-4.978 2.98-7.488-1.335 2.365-2.43 4.82-2.992 7.485l.012.003zm-5.248-7.474c.093.168-.035.265-.114.389-1.08 1.659-2.164 3.34-2.994 5.155-.33.711-.384 1.124-.213 1.692.358-1.528 1.088-2.799 1.851-4.05.555-.915 1.126-1.82 1.69-2.729.18-.294.385-.602-.237-.433l.017-.024zm-1.422 18.88c.626-2.392 1.588-4.687 2.045-7.112-.881 2.319-1.773 4.632-2.064 7.109l.019.002zm-2.492-3.004a16.872 16.872 0 00-1.14 6.09c.306-2.049.87-4.04 1.121-6.092l.02.002zm2.025-2.192c-.612 1.993-1.107 4.013-1.186 6.132l1.449-6.052-.263-.08zm3.984 3.396c.238-2.067.693-3.885 1.115-5.71-.754 1.008-1.491 4.67-1.112 5.708l-.002.002zm3.528-2.28c-.46-1.403.443-2.534.538-3.885-.925 1.126-1.216 3.136-.536 3.883l-.002.002zm3.081-3.792c-.659.748-.734 1.341-.237 2.166-.268-.756.261-1.413.235-2.176l.002.01zm25.551-28.887c-1.837.645-3.242.043-4.703-.948-1.46-.991-3.124-1.422-4.849-1.66-.18.006-.36-.004-.539-.028-.284-.09-.621-.237-.576-.583.045-.346.401-.287.662-.292a11.499 11.499 0 016.658 1.999c.792.477 1.65.833 2.546 1.057.28.09.564.12.799.445l.002.01zm-9.64-3.1c1.986.443 3.961 1.014 5.689 2.258.879.636 1.794.832 2.439.712-2.567-1.2-5.002-3.13-8.131-2.98l.003.01zm6.919 26.511c1.24-3.401 3.06-6.518 4.812-9.718-.41 0-.547.258-.673.474a70.13 70.13 0 00-4.245 8.533c-.1.237-.278.531.142.68l-.036.031zm8.169-5.613c-.327-1.31.602-2.133 1.024-3.282-1.188.855-1.745 2.588-1.036 3.282h.012zM21.162 67.056c-.81-1.912-1.737-3.773-2.57-5.688.456 2.076 1.404 3.93 2.559 5.688h.012zm-8.732-9.263c-.745-1.659-1.093-3.427-1.294-5.364-.531 1.038.3 4.357 1.294 5.364zm24.318 22.459c-.611-1.498-1.382-2.944-1.531-4.61-.29 1.81.564 3.235 1.531 4.61zm-23.2-22.494c-.642-1.297-.76-2.672-.827-4.056-.56 1.25-.01 3.795.828 4.065v-.01zM36.22 73.956a14.611 14.611 0 01-1.323-4.12c-.327 1.138.431 3.518 1.323 4.13v-.01zM14.103 55.55c-.372 1.22-.237 1.872.517 2.586-.574-.785-.251-1.745-.517-2.577v-.01zm28.114 21.01a11.027 11.027 0 00-1.458 4.193c.484-1.392 1.093-2.745 1.458-4.184v-.01z"/></symbol></svg>