<svg aria-hidden="true" width="0" height="0" style="position:absolute"><symbol fill="none" viewBox="0 0 60 67" id="holy1" xmlns="http://www.w3.org/2000/svg"><g opacity=".7" fill="#fff"><path d="M43.713 35.952h.004l9.904-.074a.701.701 0 00.696-.7 9.338 9.338 0 00-2.753-6.65 9.338 9.338 0 00-6.65-2.752H43.71c-.385 0-.7.315-.7.7v8.776c0 .186.074.365.207.497a.723.723 0 00.497.203zm.7-8.776h.506c2.138 0 4.145.832 5.657 2.344a7.938 7.938 0 012.314 4.962l-8.477.066v-7.372z"/><path d="M57.49 42.772h-.019v-7.594c0-3.356-1.306-6.505-3.678-8.877a12.474 12.474 0 00-8.877-3.679h-3.66v-6.357c0-.385-.314-.7-.7-.7h-31.6c-.385 0-.7.315-.7.7v4.219H1.071c-.385 0-.7.315-.7.7 0 .384.315.7.7.7h13.527c.385 0 .7-.316.7-.7 0-.385-.315-.7-.7-.7H9.656v-3.52h30.205v25.808H24.52a5.635 5.635 0 00-5.206-3.488 5.636 5.636 0 00-5.207 3.488H9.656V36.55h4.476c.385 0 .7-.315.7-.7 0-.385-.315-.7-.7-.7H3.517c-.385 0-.7.315-.7.7 0 .385.315.7.7.7h4.74v6.222h-.02c-.572 0-1.108.221-1.513.626a2.123 2.123 0 00-.626 1.512c0 1.178.96 2.139 2.139 2.139h5.871a5.635 5.635 0 005.207 3.488 5.635 5.635 0 005.206-3.488h18.94a5.635 5.635 0 005.207 3.488 5.635 5.635 0 005.206-3.488h3.62c.572 0 1.109-.222 1.513-.626.404-.405.626-.941.626-1.513a2.146 2.146 0 00-2.143-2.138zm-16.233-18.75h3.659c6.151 0 11.155 5.004 11.155 11.156v7.594h-2.2a5.635 5.635 0 00-5.207-3.488 5.635 5.635 0 00-5.206 3.488h-2.201v-18.75zM8.237 45.65a.738.738 0 01-.521-1.264.73.73 0 01.521-.218H13.735a5.782 5.782 0 000 1.478H8.237v.004zm11.078 3.488a4.235 4.235 0 01-4.23-4.23 4.235 4.235 0 014.23-4.231 4.235 4.235 0 014.23 4.23 4.235 4.235 0 01-4.23 4.23zm5.58-3.488a5.8 5.8 0 000-1.478h18.189a5.8 5.8 0 000 1.478h-18.19zm23.769 3.488a4.235 4.235 0 01-4.23-4.23 4.235 4.235 0 014.23-4.231 4.235 4.235 0 014.23 4.23 4.235 4.235 0 01-4.23 4.23zm9.347-3.706a.736.736 0 01-.52.218h-3.243a5.8 5.8 0 000-1.478h3.247c.408 0 .738.33.738.74a.757.757 0 01-.221.52z"/><path d="M19.315 42.593a2.318 2.318 0 10.002 4.636 2.318 2.318 0 00-.002-4.636zm0 3.231a.92.92 0 01-.917-.918.92.92 0 01.917-.917.917.917 0 110 1.835zM48.665 42.593a2.318 2.318 0 10.001 4.636 2.318 2.318 0 00-.001-4.636zm0 3.231a.92.92 0 01-.918-.918.92.92 0 01.918-.917.917.917 0 110 1.835zM21.734 21.883c.385 0 .7-.315.7-.7 0-.385-.315-.7-.7-.7H17.72c-.385 0-.7.315-.7.7 0 .385.315.7.7.7h4.013zM8.559 25.371H3.83c-.385 0-.7.315-.7.7 0 .385.315.7.7.7h4.728c.385 0 .7-.315.7-.7 0-.385-.315-.7-.7-.7zM10.982 26.071c0 .385.315.7.7.7h12.812c.385 0 .7-.315.7-.7 0-.385-.315-.7-.7-.7H11.682a.7.7 0 00-.7.7zM5.336 30.963c0-.385-.315-.7-.7-.7H1.071c-.385 0-.7.315-.7.7 0 .384.315.7.7.7h3.565c.385 0 .7-.316.7-.7zM7.054 30.963c0 .384.315.7.7.7H21.73c.385 0 .7-.316.7-.7 0-.385-.315-.7-.7-.7H7.754a.7.7 0 00-.7.7zM17.25 35.15c-.384 0-.7.315-.7.7 0 .385.316.7.7.7h6.926c.385 0 .7-.315.7-.7 0-.385-.316-.7-.7-.7H17.25z"/></g></symbol></svg>