<svg aria-hidden="true" width="0" height="0" style="position:absolute"><symbol fill="none" viewBox="0 0 55 55" id="holy6" xmlns="http://www.w3.org/2000/svg"><g opacity=".7" fill="#fff"><path d="M20 24h-1.5v-1H20v1zm-2.5 0H16v-1h1.5v1z"/><path d="M18 33c2.433-3.579 9-13.735 9-18.03C27 10.024 22.963 6 18 6s-9 4.024-9 8.97C9 19.264 15.567 29.42 18 33zm-7.674-18.03c0-4.218 3.443-7.648 7.674-7.648s7.674 3.43 7.674 7.647c0 3.601-5.688 12.63-7.674 15.656-1.977-3.01-7.674-12.052-7.674-15.655z"/><path d="M22 15c0-2.206-1.794-4-4-4s-4 1.794-4 4 1.794 4 4 4 4-1.794 4-4zm-6.76 0A2.762 2.762 0 0118 12.24 2.762 2.762 0 0120.76 15 2.762 2.762 0 0118 17.76 2.762 2.762 0 0115.24 15zM47.054 19l-6.646 6.803h-2.58l-5.553-5.762h-5.341v1.349h4.79l5.552 5.762h3.678l6.1-6.244 1.628 1.666v2.016l-1.571 1.608v10.893l-2.06 2.11v3.064l1.518 1.553v1.257l-.954.977-3.356-3.436H31.724l-1.064 2.63 1.098 1.124-1.252 1.28h-1.555l-4.918-5.034h-8.44l-9.275-9.493V21.39H9.42v-1.35H5v13.642l10.047 10.284h8.44L28.405 49h2.647l2.57-2.63-1.407-1.44.39-.964h9.108l3.902 3.994 2.272-2.325V43.26l-1.518-1.554v-1.947l2.06-2.108V26.757L50 25.15v-3.134L47.054 19z"/></g></symbol></svg>