<svg aria-hidden="true" width="0" height="0" style="position:absolute"><symbol fill="none" viewBox="0 0 46 37" id="holy3" xmlns="http://www.w3.org/2000/svg"><path d="M44.895 20.947a.892.892 0 00-.273-.233l.02-.43c.115-2.458.224-4.78-.2-6.805-.48-2.295-1.615-3.86-3.464-4.785a6.862 6.862 0 00-4.514-2.377c-2.612-.28-6.028-.153-8.774-.05-1.976.073-3.683.136-4.49.027-1.084-.146-2.005.045-2.895.23-1.26.261-2.56.53-4.557-.04.095-.175.177-.359.244-.548.116-.33.342-1.136-.065-1.507-1.09-.994-2.313-1.015-3.099-.881.177-.904-.066-1.918-.45-2.618-.323-.587-.726-.917-1.137-.93-.961-.025-1.78 1.383-2.06 2.253a7.467 7.467 0 00-2.094-.007C6.713 1.287 6.04 0 5.125 0h-.029C4.61.015 4.077.466 3.67 1.207c-.334.61-.574 1.437-.438 2.21A3.785 3.785 0 00.249 4.428c-.422.385-.22 1.381-.034 1.91.2.568.8 1.84 2.208 2.12.054 3.004.451 5.357 1.185 6.993.191.433.427.845.704 1.229.155 2.053.795 3.01 1.362 3.855.468.698.873 1.301.991 2.475.188 1.872 2.105 3.67 3.646 5.115.74.693 1.578 1.48 1.636 1.805.186 1.032.626 3.58.712 4.081a.136.136 0 01-.04.12l-.282.274a.95.95 0 00.66 1.634h1.5a.953.953 0 00.83-.488c.235-.419.558-1.258.764-2.876.18-1.42.257-2.852.229-4.284.63.596 1.23 1.195 1.279 1.468.177.987.59 3.426.712 4.15a.136.136 0 01-.04.12l-.283.274a.95.95 0 00.66 1.634h1.533a.946.946 0 00.778-.405c.304-.44.686-1.327.785-3.056.104-1.807.8-4.18 1.406-6.108a11.429 11.429 0 012.27-.474c.828 1.348 1.68 2.349 2.312 3.09.416.49.776.912.855 1.132.328.903.67 3.13.768 3.79a.135.135 0 01-.04.117l-.29.28a.95.95 0 00.66 1.634h1.533a.946.946 0 00.778-.405c.304-.44.687-1.327.786-3.056.058-1.018.5-2.615.876-3.942.611.61 1.164 1.172 1.274 1.475.366 1.005.725 3.237.827 3.898a.135.135 0 01-.04.117l-.288.279a.95.95 0 00.66 1.634h1.538a.944.944 0 00.773-.398c.304-.431.687-1.309.786-3.037.146-2.56 1.108-5.77 1.625-7.494.146-.486.25-.837.299-1.041.115-.498.23-.986.343-1.464 1.142-4.836 2.043-8.656.598-12.149l-.002-.003c2.136 2.162 1.961 5.887 1.777 9.794l-.02.44a.895.895 0 00-.294.218c-.646.727-1.466 2.403-.798 3.154.13.146.195.45.252.717.097.457.23 1.083.855 1.128l.084.003c.757 0 1.587-.726 1.77-2.167a3.768 3.768 0 00-.782-2.791zM11.21.814h.006c.04.005.255.122.492.592.292.58.452 1.39.304 2.047A5.657 5.657 0 009.976 2.42c.235-.67.882-1.606 1.235-1.606zM4.384 1.6c.297-.541.631-.781.736-.784h.005c.258 0 .726.575 1.14 1.569-.782.158-1.572.413-2.23.889-.099-.57.1-1.22.35-1.674zm.577 14.588a1.948 1.948 0 01-.334-1.541 1.84 1.84 0 01.878-1.227c.538-.316 1.178-.449 1.819-.449 1.344 0 2.694.582 3.132 1.275l.007.013a2.078 2.078 0 01-.404 2.641c-.542.45-1.212.72-1.915.773h-.001a3.566 3.566 0 01-.11.007l-.037.001-.085.002h-.079c-.089 0-.175-.004-.26-.01l-.077-.007a3.95 3.95 0 01-.189-.021l-.071-.01a3.595 3.595 0 01-.232-.044l-.012-.003a3.328 3.328 0 01-.245-.066l-.042-.014a3.25 3.25 0 01-.192-.07l-.054-.021a3.179 3.179 0 01-.19-.087l-.033-.016a3.118 3.118 0 01-.21-.118l-.057-.037a3.402 3.402 0 01-.323-.236c-.031-.027-.063-.052-.094-.08l-.058-.053a3.952 3.952 0 01-.22-.22l-.038-.043a3.813 3.813 0 01-.12-.14l-.034-.044c-.04-.05-.08-.101-.12-.155zM31.97 32.53c-.093 1.62-.443 2.349-.643 2.639a.13.13 0 01-.108.053h-1.533a.13.13 0 01-.126-.084.128.128 0 01.031-.149l.29-.28a.95.95 0 00.28-.821c-.127-.872-.463-3.002-.807-3.95-.13-.358-.476-.765-1.001-1.382a24.292 24.292 0 01-2.03-2.658l.786-.07c1.228-.104 2.476-.212 3.666-.508.62.977 1.454 1.877 2.223 2.654l-.076.271c-.395 1.396-.887 3.133-.952 4.285zm8.692-10.114l-.344 1.467c-.041.179-.148.537-.285.991-.526 1.757-1.505 5.026-1.657 7.682-.093 1.616-.44 2.332-.64 2.614a.13.13 0 01-.106.052H36.09a.128.128 0 01-.126-.085.129.129 0 01.032-.148l.288-.278a.95.95 0 00.28-.828c-.134-.87-.486-3.007-.866-4.052-.18-.496-.775-1.087-1.598-1.906-.812-.807-1.798-1.788-2.51-2.844a7.26 7.26 0 002.982-1.858.407.407 0 00-.588-.564c-1.844 1.92-4.438 2.143-6.946 2.358-.483.041-.97.083-1.455.138l-.011.001c-.717.073-1.427.197-2.125.372.41-1.29.623-1.996.623-2.36a.408.408 0 00-.814 0c0 .273-.312 1.254-.642 2.294-.658 2.073-1.56 4.913-1.683 7.068-.093 1.62-.442 2.349-.643 2.639a.131.131 0 01-.108.053h-1.533a.129.129 0 01-.125-.085.127.127 0 01.031-.148l.284-.274a.948.948 0 00.277-.842c-.122-.725-.536-3.167-.714-4.158-.1-.563-.747-1.192-1.88-2.255-.62-.582-1.306-1.225-1.898-1.893-.009-.01-.016-.02-.026-.029-.772-.876-1.38-1.796-1.47-2.68a.407.407 0 10-.81.082c.076.755.434 1.498.935 2.212a9.145 9.145 0 01-2.593-1.236c-.796-.554-1.005-1.24-1.245-2.033-.188-.617-.382-1.255-.867-1.854a.407.407 0 00-.634.513c.385.475.548 1.011.72 1.578.25.82.533 1.749 1.56 2.465 1.112.775 2.425 1.318 3.907 1.619.444.492.926.965 1.394 1.408l.006.385a29.656 29.656 0 01-.216 4.575c-.2 1.567-.503 2.29-.666 2.581a.138.138 0 01-.12.071h-1.5a.13.13 0 01-.127-.085.127.127 0 01.032-.148l.283-.273a.949.949 0 00.277-.845c-.086-.501-.527-3.052-.713-4.087-.1-.564-.747-1.192-1.88-2.256-1.442-1.351-3.236-3.034-3.394-4.601-.138-1.377-.64-2.125-1.124-2.848-.422-.629-.854-1.274-1.086-2.419a4.03 4.03 0 001.767.765h.004c.165.03.332.049.5.06l.044.002c.082.005.163.008.246.008h.04c3.636 0 4.853-4.104 5.14-5.365a.408.408 0 00-.794-.181 9.745 9.745 0 01-.664 1.938 2.82 2.82 0 00-.395-1.064l-.007-.013-.002-.002c-.914-1.449-4.073-2.255-6.051-1.095-.52.302-.92.772-1.135 1.332-.46-1.518-.705-3.511-.726-5.951a.388.388 0 00-.005-.048l-.001-.009a.406.406 0 00-.017-.07l-.002-.007a.398.398 0 00-.03-.065l-.003-.005a.408.408 0 00-.042-.058l-.005-.006a.403.403 0 00-.049-.046l-.01-.008a.394.394 0 00-.052-.032l-.018-.01a.395.395 0 00-.123-.035c-.009 0-.017-.004-.026-.004-.821-.052-1.313-.585-1.582-1.023C.842 5.974.77 5.206.831 5a2.973 2.973 0 012.882-.66l.014.005a.438.438 0 00.036.01l.021.004a.393.393 0 00.056.006l.016.001h.018l.022-.002a.439.439 0 00.034-.005l.021-.005c.011-.002.022-.006.032-.009l.023-.008c.01-.003.018-.008.027-.012l.025-.013c.002 0 .003-.002.005-.003l.01-.006a.401.401 0 00.046-.035l.017-.015.01-.009c.762-.779 1.966-1.039 3.04-1.19 1.878-.255 3.59.248 4.698 1.38l.01.009a.41.41 0 00.06.048c.005.002.008.006.013.009l.01.005.017.009a.406.406 0 00.04.017l.012.005c.016.005.03.009.046.012l.01.002a.4.4 0 00.05.006h.023a.397.397 0 00.042-.002h.003a.412.412 0 00.114-.03l.005-.002c.068-.03 1.665-.705 3.002.474.029.163-.052.728-.437 1.311-.256.387-.702.857-1.372.897-.007 0-.014.003-.02.004a.402.402 0 00-.358.366c0 .007-.003.013-.003.02-.031.758-.123 1.69-.21 1.871a.408.408 0 10.729.365c.166-.332.244-1.288.278-1.864.504-.12.96-.392 1.303-.78 2.345.731 3.87.415 5.22.135.861-.179 1.675-.348 2.62-.22.876.118 2.533.057 4.63-.021 2.72-.101 6.103-.227 8.657.046A6.045 6.045 0 0140.4 9.271l.015.019c.366.445.665.943.886 1.476 1.345 3.25.47 6.957-.639 11.65zm4.208 1.22c-.128 1.005-.64 1.454-.964 1.454h-.002c-.053-.081-.106-.331-.139-.485-.078-.367-.166-.782-.44-1.09-.163-.183.117-1.304.799-2.072a.084.084 0 01.066-.027.08.08 0 01.063.03 2.916 2.916 0 01.617 2.19z" fill="#fff"/></symbol></svg>