<svg aria-hidden="true" width="0" height="0" style="position:absolute"><symbol fill="none" viewBox="0 0 60 60" id="holy4" xmlns="http://www.w3.org/2000/svg"><g opacity=".7" fill="#fff"><path d="M51.105 13.334l-7.128-6.41-.004-.003C32.213-3.649 13.47 3.41 11.41 18.895c-.67 5.038-3.686 7.578-5.197 9.26-4.922 5.472-4.95 14.197 1.692 20.19l6.464 5.815c2.586 2.55 6.938 4.317 12.518 3.892 5.165-.392 15.376-3.132 25.726-17.065 6.78-9.14 6.146-20.77-1.508-27.653zM7.2 29.042c1.206-1.344 4.763-4.245 5.526-9.972 1.199-9.012 8.895-15.845 18.132-15.845 4.361 0 8.739 1.547 12.23 4.686 6.844 6.156 7.927 16.98 1.33 25.875-3.519 4.743-7.937 9.313-13.045 12.464l-.02.013c-6.454 3.973-15.409 5.979-21.651 1.76-6.077-4.1-7.8-13.09-2.502-18.98zm19.586 27.686c-4.682.356-8.872-.929-11.495-3.524a.47.47 0 00-.023-.022l-2.508-2.256c6.39 1.966 13.435.024 19.197-3.48l.024-.014c5.291-3.224 9.806-7.88 13.486-12.832l.017-.023c4.808-6.481 6.218-14.989 2.759-22.03l1.974 1.775c7.132 6.414 7.69 17.296 1.329 25.874-10.035 13.51-19.821 16.156-24.76 16.532z"/><path d="M30.78 20.766c2.327 2.092 5.897 1.874 7.962-.422a5.643 5.643 0 00-.422-7.96 5.643 5.643 0 00-7.961.422 5.643 5.643 0 00.422 7.96zm.566-7.072a4.314 4.314 0 016.086-.323 4.314 4.314 0 01.322 6.085 4.315 4.315 0 01-6.085.323 4.314 4.314 0 01-.323-6.085zM20.068 24.897l17.72 6.137a.664.664 0 00.436-1.255l-17.721-6.136a.664.664 0 10-.435 1.255zM16.228 29.167l17.72 6.137a.664.664 0 00.436-1.255l-17.721-6.136a.664.664 0 00-.435 1.255zM12.388 33.437l17.72 6.137a.664.664 0 00.435-1.254l-17.72-6.137a.664.664 0 10-.435 1.255zM8.548 37.707l17.72 6.137a.664.664 0 00.436-1.255l-17.72-6.136a.664.664 0 10-.435 1.255z"/></g></symbol></svg>