<svg aria-hidden="true" width="0" height="0" style="position:absolute"><symbol fill="none" viewBox="0 0 55 55" id="holy5" xmlns="http://www.w3.org/2000/svg"><g opacity=".7" clip-path="url(#aclip0_4_38180)"><path d="M54.893 30.695a.752.752 0 00-.915-.315l-3.653 1.407a24.126 24.126 0 00-12.28 10.646 25.39 25.39 0 0110.6-19.331l.807-.575a.752.752 0 00-.652-1.332 26.76 26.76 0 00-14.597 10.731 32.878 32.878 0 016.44-15.153l2.67-3.498a.753.753 0 00-1.02-1.079A35.635 35.635 0 0030.176 26.15a57.064 57.064 0 00-8.93-20.856A56.722 56.722 0 0017.323.258a.752.752 0 00-1.254.801l2.75 6.156a55.139 55.139 0 014.424 16.031 35.797 35.797 0 00-10.537-11.05.753.753 0 00-1.02 1.08l2.67 3.497a32.878 32.878 0 016.44 15.153A26.762 26.762 0 006.2 21.194a.752.752 0 00-.653 1.332l.808.575a25.39 25.39 0 0110.6 19.332 24.126 24.126 0 00-12.28-10.646l-3.653-1.408a.752.752 0 00-.76 1.272l4.207 3.621a22.546 22.546 0 017.849 17.107v1.117H7.484a.752.752 0 000 1.504h40.032a.752.752 0 100-1.504h-4.834c-.055-2.473.24-4.943.875-7.334a22.56 22.56 0 016.974-10.89l4.209-3.621a.752.752 0 00.153-.956zM13.822 53.496V52.38A24.048 24.048 0 005.45 34.133l-.905-.78a22.73 22.73 0 0113.89 18.327c.07.603.114 1.21.135 1.817h-4.75zm9.994 0H20.08c-.005-.175-.017-.35-.027-.525a23.933 23.933 0 00-1.555-7.331v-1.898a26.904 26.904 0 00-8.095-19.21 25.309 25.309 0 0110.803 11.18 25.337 25.337 0 012.61 11.201v6.583zm2.932 0H25.32V50.38v-3.475c0-.515-.02-1.025-.047-1.533v-.004a26.863 26.863 0 00-2.655-10.27 34.19 34.19 0 00-6.036-17.817 33.194 33.194 0 0110.122 22.043c.029.562.043 1.125.043 1.688l.002 12.484zm-1.7-26.887a56.67 56.67 0 00-4.853-20.007l-.235-.529a55.342 55.342 0 017.46 15.36 55.567 55.567 0 011.687 7.146A34.384 34.384 0 0027.5 33.9a34.234 34.234 0 00-2.452-7.29zm4.633 26.887h-1.43V41.014c.008-3.961.736-7.888 2.15-11.588a33.691 33.691 0 018.017-12.145 34.19 34.19 0 00-6.035 17.817 26.855 26.855 0 00-2.649 10.178c-.168 2.728-.053 5.488-.053 8.22zm5.239 0h-3.736v-6.59a25.99 25.99 0 01.172-2.956 25.426 25.426 0 0113.241-19.418 26.905 26.905 0 00-8.095 19.21v1.896a23.933 23.933 0 00-1.555 7.332c-.01.176-.022.351-.027.526zm14.63-19.364a24.215 24.215 0 00-8.24 15.74 35.237 35.237 0 00-.13 3.625h-4.75c.02-.608.064-1.215.134-1.82a22.73 22.73 0 0113.89-18.324l-.905.78z" fill="#fff"/></g><defs><clipPath id="aclip0_4_38180"><path fill="#fff" d="M0 0h55v55H0z"/></clipPath></defs></symbol></svg>