<svg width="60" height="60" viewBox="0 0 60 60" fill="none" xmlns="http://www.w3.org/2000/svg">
<g opacity="0.7">
<path d="M51.1045 13.3343L43.9766 6.92356C43.9756 6.92263 43.9743 6.92239 43.9731 6.92146C32.2137 -3.64991 13.4692 3.40946 11.409 18.8946C10.7391 23.9332 7.72291 26.4727 6.21236 28.1544C1.29037 33.6272 1.26224 42.3515 7.90361 48.345L14.3684 54.1595C16.9539 56.7101 21.3061 58.4768 26.8862 58.0522C32.0514 57.6597 42.2619 54.9204 52.6125 40.9874C59.392 31.8465 58.7578 20.2166 51.1045 13.3343ZM7.20025 29.0424C8.40599 27.6979 11.9635 24.7971 12.726 19.07C13.9248 10.0577 21.6208 3.22524 30.8583 3.22524C35.2193 3.22524 39.5967 4.77177 43.0882 7.91134C49.932 14.0667 51.0147 24.8906 44.4177 33.7859C40.899 38.5293 36.481 43.0985 31.373 46.2497C31.3661 46.254 31.3592 46.2581 31.3522 46.2625C24.8987 50.2362 15.9444 52.2418 9.70174 48.0238C3.62463 43.9232 1.90185 34.933 7.20025 29.0424ZM26.7856 56.728C22.1038 57.0843 17.9145 55.7993 15.291 53.2041C15.2836 53.1967 15.2759 53.1894 15.268 53.1825L12.76 50.9265C19.1504 52.8922 26.1946 50.9496 31.9573 47.4462C31.9653 47.4413 31.9733 47.4365 31.9813 47.4315C37.2721 44.2082 41.7866 39.5523 45.4668 34.6003C45.4726 34.5924 45.4786 34.5851 45.4845 34.5772C50.2919 28.0956 51.7019 19.5881 48.2428 12.5466L50.2165 14.3217C57.3488 20.7359 57.9077 31.6178 51.546 40.1959C41.5105 53.7052 31.725 56.3523 26.7856 56.728Z" fill="white"/>
<path d="M30.7809 20.7663C33.1069 22.8584 36.6769 22.6402 38.7415 20.3443C40.8197 18.0335 40.6304 14.4623 38.3195 12.3841C36.0091 10.3059 32.438 10.4943 30.3589 12.8061C28.2807 15.1169 28.4701 18.688 30.7809 20.7663ZM31.3464 13.694C32.9367 11.9257 35.6665 11.7847 37.4316 13.3715C39.1977 14.9599 39.3426 17.6898 37.7541 19.4563C36.1653 21.2219 33.4355 21.3668 31.6689 19.7788C29.9028 18.1904 29.7581 15.4606 31.3464 13.694Z" fill="white"/>
<path d="M20.068 24.8972L37.7886 31.0342C38.1334 31.1539 38.5129 30.9719 38.6334 30.6243C38.7537 30.2776 38.5699 29.8993 38.2236 29.7795L20.503 23.6426C20.1545 23.5207 19.7784 23.7052 19.6582 24.0524C19.5379 24.3991 19.7217 24.7774 20.068 24.8972Z" fill="white"/>
<path d="M16.228 29.1673L33.9486 35.3039C34.2934 35.4237 34.6729 35.2417 34.7934 34.8941C34.9136 34.5473 34.7299 34.169 34.3836 34.0493L16.6628 27.9125C16.3148 27.7906 15.9378 27.9757 15.818 28.3223C15.6979 28.6692 15.8817 29.0475 16.228 29.1673Z" fill="white"/>
<path d="M12.3878 33.4372L30.1081 39.5742C30.4529 39.694 30.8324 39.512 30.9529 39.1644C31.0731 38.8176 30.8894 38.4394 30.5431 38.3196L12.8228 32.1826C12.4752 32.0607 12.0978 32.2453 11.978 32.5924C11.8578 32.9392 12.0414 33.3174 12.3878 33.4372Z" fill="white"/>
<path d="M8.54827 37.7072L26.2689 43.8438C26.6137 43.9636 26.9932 43.7816 27.1137 43.434C27.2339 43.0873 27.0502 42.709 26.7039 42.5892L8.98315 36.4526C8.63429 36.3307 8.25811 36.5157 8.13835 36.8624C8.01823 37.2091 8.20198 37.5874 8.54827 37.7072Z" fill="white"/>
</g>
</svg>
