<svg width="72" height="67" viewBox="0 0 72 67" fill="none" xmlns="http://www.w3.org/2000/svg">
<path d="M7.77515 41.2746C3.55812 43.3761 2.85558 44.339 6.36288 40.9192C7.95139 39.5045 9.20675 37.7557 10.0389 35.7985C12.3478 30.0698 11.2737 24.01 15.6866 19.0173C24.1237 9.54828 42.3923 9.08792 53.2075 13.8824C52.5618 13.6415 58.6229 16.7847 56.4937 15.5248C71.0886 24.0568 69.6614 22.8872 64.5089 30.5194C60.7425 36.1453 57.279 42.6682 52.2119 47.2454C46.008 52.0339 38.4715 54.7848 30.6375 55.1204C15.4823 55.5173 17.6645 45.5276 8.56434 41.9855C8.34909 41.9052 7.91345 41.8897 8.33593 42.0718C14.7374 44.6316 15.8952 52.2416 22.7749 54.6368C26.3301 55.6562 30.0758 55.8196 33.7053 55.1135C40.3416 54.0861 47.6158 52.0718 52.726 47.5107C60.0237 41.0954 64.9807 31.1609 70.4552 23.2569C59.7161 14.8406 48.1583 9.86721 34.4621 11.1515C25.2659 12.0078 15.0061 14.7946 11.7291 24.4983C10.1894 29.0196 10.8591 34.5857 7.74811 38.5207C6.01296 40.7397 -0.164393 41.3258 1.17603 44.7657C1.25958 44.8571 1.36363 44.9274 1.47965 44.9707C1.59567 45.014 1.72033 45.029 1.84331 45.0147L8.29211 41.6635C8.29211 41.6635 7.8831 41.5109 7.79701 41.4788L7.77515 41.2746Z" fill="#909090"/>
<path d="M68.9426 22.8395C46.9615 24.9036 26.8463 35.1115 5.93827 41.3978C6.12145 41.5464 6.34824 41.631 6.584 41.6387C27.7836 35.9512 47.2531 25.5024 69.3006 22.9976C69.3006 22.9976 68.9992 22.8852 68.9346 22.8611L68.9426 22.8395Z" fill="#909090"/>
<path d="M7.304 39.9719C16.839 37.7476 26.5238 35.1873 35.834 32.1196C35.834 32.1196 35.6403 32.0474 35.5757 32.0233C26.0352 34.1965 16.3828 36.8671 7.07523 39.8622C7.14827 39.9055 7.22842 39.9354 7.31198 39.9505L7.304 39.9719Z" fill="#909090"/>
<path d="M9.95426 39.4414C14.4157 34.5158 15.6202 27.7381 19.877 22.6382C23.8842 17.8126 28.9206 12.6605 35.2526 11.3971C35.1415 11.3265 35.0169 11.28 34.8867 11.2606C20.8735 12.6716 16.3206 29.7388 9.68794 39.3666L9.88166 39.4389L9.95426 39.4414Z" fill="#909090"/>
<path d="M47.3487 12.2351C40.4361 12.614 33.7963 15.0514 28.2838 19.2335C22.0669 24.2637 21.6402 31.454 16.9578 37.4977C16.9578 37.4977 17.647 37.9508 17.7758 37.8028C21.9381 32.4961 22.2688 25.7599 27.4698 20.8897C33.0195 15.6106 40.3498 13.4458 47.7767 12.4684C47.7767 12.4684 47.4538 12.3479 47.3677 12.3158L47.3487 12.2351Z" fill="#909090"/>
<path d="M56.9685 16.2897C51.4861 15.6817 45.9609 16.9551 41.3008 19.9007C39.231 21.2022 37.3528 22.7855 35.7204 24.6049C33.2764 27.3434 31.9902 30.8568 29.293 33.3538C29.293 33.3538 29.9957 33.8365 30.1971 33.6911C34.647 29.7166 36.2008 24.1717 41.5176 20.7656C46.1686 17.8607 51.5641 16.3674 57.0495 16.4669C57.0495 16.4669 57.0495 16.4669 56.9204 16.4187L56.9685 16.2897Z" fill="#909090"/>
<path d="M60.2999 34.4369C54.129 36.9118 49.0614 34.4576 43.3192 32.1683C41.4528 31.3756 39.4672 30.8998 37.4444 30.7605C37.1645 30.6561 37.7888 30.889 37.8964 30.9291C45.867 31.649 52.4584 39.1548 60.5312 34.4741C60.5312 34.4741 60.3375 34.4018 60.316 34.3938L60.2999 34.4369Z" fill="#909090"/>
<path d="M64.4645 27.2198C62.0171 30.8879 58.0654 31.2265 54.092 30.1116C51.3992 29.3765 49.5005 27.7616 46.9339 26.951C46.5464 26.8065 46.4903 26.957 46.8857 27.0801C50.1196 28.1396 52.2162 30.5387 55.6962 31.0041C59.1763 31.4695 63.2049 30.5961 64.7444 27.3242C64.7444 27.3242 64.4861 27.2278 64.4645 27.2198Z" fill="#909090"/>
<path d="M60.4504 20.6267C57.6212 20.1492 54.714 20.548 52.1192 21.7696C49.5244 22.9911 47.3662 24.9769 45.9344 27.4603C45.9344 27.4603 46.567 27.8679 46.6662 27.7334C48.0893 25.383 50.1495 23.4835 52.6084 22.2549C55.0673 21.0262 57.8244 20.5185 60.5609 20.7904C60.6685 20.8306 60.4318 20.7423 60.4103 20.7342L60.4504 20.6267Z" fill="#909090"/>
<path d="M53.1745 43.2193C43.8638 44.6454 34.5549 40.2169 27.4697 34.5602C27.3406 34.512 26.8025 34.3113 26.9101 34.3514C33.7209 39.9548 44.3866 45.2814 53.4434 43.2217C53.4434 43.2217 53.2497 43.1494 53.2066 43.1334L53.1745 43.2193Z" fill="#909090"/>
<path d="M48.6541 47.1186C40.2789 52.544 23.556 42.0912 14.9988 38.4086C14.7405 38.3123 14.2403 38.2727 14.7489 38.4869C22.2543 42.1561 29.9415 45.4411 37.7808 48.3292C41.7626 49.6188 45.3178 50.0141 48.8047 47.1748C48.8047 47.1748 48.6756 47.1266 48.6541 47.1186Z" fill="#909090"/>
<path d="M38.5721 52.3231C20.6996 51.8532 24.9687 46.1944 15.6484 41.4677C13.6971 40.6413 11.6383 40.0959 9.53384 39.848C9.10334 39.6874 9.68487 40.1003 9.8516 40.1135C16.9683 41.3477 20.9515 47.3659 27.2862 50.1703C30.8874 51.7392 34.7884 52.5006 38.7147 52.4008C38.7147 52.4008 38.4779 52.3125 38.4133 52.2884L38.5721 52.3231Z" fill="#909090"/>
<path d="M11.8418 25.4464L11.2136 23.2522L10.7832 23.0916C10.95 23.7138 11.0157 24.3587 10.9778 25.0016C10.9217 25.1522 10.6984 25.0934 10.5258 24.833L10.897 26.27C10.197 24.4654 10.0953 24.6724 10.6643 26.8936C10.6643 26.8936 9.97649 25.7795 9.43073 25.7964C8.11337 25.8438 11.8523 30.7421 9.28281 27.1131C8.76249 26.4045 10.4224 29.6451 10.0518 29.8498L9.53324 28.6765C8.68495 27.9926 8.56465 28.315 9.27654 29.3646C8.2977 31.9882 10.4849 29.9379 8.60415 29.2607C8.89319 30.0491 9.22778 30.8203 9.60623 31.57C9.22269 30.692 8.83916 29.8139 8.42607 28.9493C8.34506 28.7721 7.62964 28.6522 7.69422 28.6763C7.98355 30.0841 8.54119 31.4233 9.33676 32.6209C9.94573 33.289 8.36089 29.9784 8.1157 29.7154C7.87051 29.4525 7.31931 29.4183 7.36236 29.4344C7.7324 30.2829 8.02177 31.1504 8.37028 31.9908C8.4918 32.2567 9.44064 34.84 9.0074 33.3065C8.87747 32.866 8.54427 31.5903 7.97444 31.6716C7.4046 31.753 8.44074 34.9569 8.51412 35.3517C8.5875 35.7466 9.05225 35.5525 9.31055 35.6489C8.99707 34.846 8.7998 33.0086 7.88008 32.9104C6.96036 32.8123 7.08151 32.8819 7.70222 34.0445C7.94605 34.8719 8.03884 35.7364 7.97616 36.5965C8.23446 36.6929 8.5143 36.7973 8.79413 36.9017C8.47771 35.9752 8.27206 33.963 7.29286 33.6957C6.31365 33.4284 6.51788 33.4066 7.08243 34.7197C7.31403 35.5495 7.4066 36.4118 7.35637 37.2717C7.6362 37.3761 7.91606 37.4805 8.19589 37.5849C7.78722 36.2149 7.30798 34.8668 6.76014 33.546C6.68715 33.3473 5.83456 33.2007 5.89914 33.2248C6.40483 34.6867 6.66058 36.2232 6.65564 37.7697C6.93546 37.8741 7.21533 37.9786 7.49515 38.083C7.24623 36.9174 6.89206 35.7767 6.43707 34.6749C6.37758 34.5057 5.55454 34.3457 5.57607 34.3537C5.7487 35.7817 5.76145 37.2245 5.61416 38.6552C5.89399 38.7596 6.17385 38.864 6.45368 38.9684L5.85687 36.2959C5.92105 36.1238 4.9528 35.9586 4.97432 35.9666L4.89232 39.3413L5.75332 39.6626L5.37038 37.7312C5.31892 37.5405 4.44479 37.3859 4.48784 37.4019L4.31992 39.4952C4.62127 39.6076 4.90111 39.712 5.20247 39.8244L4.82576 38.3365C4.8739 38.2075 3.94322 38.0072 3.94322 38.0072L3.31738 39.6847L4.19992 40.014L4.13498 39.7937C4.19114 39.6432 3.51073 39.5608 3.38158 39.5126C3.29228 39.4898 3.20569 39.4575 3.12328 39.4163L2.99414 39.3681C2.84867 39.7445 2.75893 40.1401 2.72766 40.5425C3.02901 40.6549 3.30885 40.7593 3.6102 40.8717L3.23292 40.437C3.10377 40.3888 2.39849 39.9787 2.32882 40.0997L1.81714 41.0113C2.1185 41.1237 2.41981 41.2361 2.72117 41.3486C2.68708 41.1708 2.63728 40.9965 2.57229 40.8275C2.52885 40.6153 1.64669 40.4822 1.68975 40.4983L1.83862 41.0193C1.83862 41.0193 2.72119 41.3486 2.74271 41.3566L3.23292 40.437C2.93156 40.3246 2.65173 40.2202 2.35037 40.1077C2.47477 40.2586 2.61078 40.3995 2.75718 40.5291C2.75718 40.5291 3.63464 41.0035 3.63973 40.8584C3.74526 40.6592 3.77372 40.428 3.71974 40.2091C3.66575 39.9902 3.53306 39.7988 3.34696 39.6712C3.30684 39.7787 4.2295 40.0005 4.2295 40.0005L4.85534 38.323C4.55398 38.2106 4.25262 38.0981 3.97279 37.9937L4.34147 39.5032C4.29333 39.6322 5.24552 39.8405 5.20247 39.8244L5.37038 37.7312L4.48784 37.4019L4.89232 39.3413C4.83616 39.4919 5.77484 39.6706 5.75332 39.6626L5.85687 36.2959L4.97432 35.9666L5.61416 38.6552C5.55799 38.8057 6.49673 38.9844 6.45368 38.9684C6.60056 37.5438 6.60222 36.108 6.45861 34.683C6.17878 34.5786 5.87744 34.4661 5.59761 34.3617C6.10937 35.4286 6.47083 36.5609 6.6717 37.7267C6.61553 37.8772 7.53274 38.0479 7.51122 38.0399C7.49615 37.2258 7.72354 35.3018 7.18169 34.5852C6.03596 33.0553 7.37535 37.3523 7.35637 37.2717C7.33739 37.1911 8.21741 37.593 8.19589 37.5849C8.1847 35.7996 7.87584 34.0285 7.28205 32.3443C7.20906 32.1456 6.37799 32.007 6.42105 32.0231L8.02429 36.4675C8.02429 36.4675 8.86377 36.7807 8.82072 36.7646C8.88276 34.969 8.56402 33.1803 7.8854 31.516C7.82043 31.2957 7.00283 31.1867 7.04588 31.2028C7.53782 32.5132 8.08087 33.8182 8.59434 35.1367C8.66185 35.2844 9.39074 35.4339 9.36922 35.4258C9.03518 33.7293 8.61364 32.0511 8.10629 30.398C8.0333 30.1992 7.24527 30.0767 7.28832 30.0928C7.76427 31.5767 8.40948 33.0012 9.21114 34.338C9.31877 34.3781 9.92147 34.603 9.87842 34.5869C9.63118 33.13 9.12383 31.7291 8.38065 30.4513C7.75054 29.9712 7.82103 30.2425 8.57598 31.3081C8.91803 32.023 9.20793 32.7616 9.44342 33.5182C9.50291 33.6874 10.1322 33.7752 10.0892 33.7591C9.82463 32.4574 9.41821 31.1884 8.87713 29.975C7.93061 28.5684 9.62419 32.5077 9.61069 32.4781C9.59719 32.4486 10.2565 32.7191 10.2349 32.711C10.0151 31.1563 9.54254 29.6477 8.83601 28.2449C8.7685 28.0972 8.08265 27.9638 8.1257 27.9799C8.44236 29.2333 9.02619 30.4037 9.83718 31.4111C9.99846 31.5355 10.1935 31.6082 10.3968 31.6199C10.1871 30.1002 9.75657 28.6192 9.11898 27.2235C9.11898 27.2235 8.38717 26.9504 8.43022 26.9665C8.87002 28.2151 9.4316 29.4176 10.107 30.5564C10.107 30.5564 10.7312 30.7893 10.7097 30.7813C10.6347 29.069 10.1033 27.4074 9.17031 25.9686C9.06268 25.9285 8.45998 25.7036 8.50303 25.7197C8.9499 26.9445 9.53299 28.1154 10.2414 29.2102C10.2414 29.2102 10.715 29.3868 10.6934 29.3788C10.709 27.7163 10.32 26.0746 9.56008 24.5952C9.45245 24.555 8.93585 24.3623 8.95737 24.3703C9.46497 25.4416 9.98065 26.4915 10.5659 27.4203L11.061 27.605C11.266 27.02 11.3326 26.3956 11.2559 25.7805C11.1791 25.1653 10.9609 24.5761 10.6184 24.059C10.4516 23.9449 10.2595 23.8733 10.0588 23.8503C10.2519 24.8365 10.5909 25.7887 11.0645 26.6754C11.0645 26.6754 11.4951 26.836 11.4735 26.8279C11.4801 25.7188 11.2352 24.6224 10.7573 23.621C10.7573 23.621 10.2192 23.4202 10.2622 23.4363L11.0246 25.5336L11.4551 25.6942C11.6782 24.3075 10.7583 22.7638 11.7279 24.963C11.7279 24.963 12.1154 25.1075 12.0938 25.0995L11.8418 25.4464Z" fill="#909090"/>
<path d="M11.8992 23.9742C11.7363 23.3073 11.7112 22.6144 11.8252 21.9377C11.6781 21.8944 11.5342 21.8407 11.3947 21.777C11.6817 22.4538 11.7861 23.1939 11.6974 23.9234L12.1925 24.1081C12.1398 23.329 12.1733 22.5821 12.1557 21.8406C12.0022 21.7705 11.844 21.7115 11.6822 21.6639C11.809 22.1291 11.9114 22.6007 11.9888 23.0766C11.9888 23.0766 12.4193 23.2372 12.3978 23.2292C12.6061 22.4748 12.7308 21.6998 12.7696 20.9181C12.6151 20.8726 12.4641 20.8163 12.3176 20.7494C12.4279 20.956 12.4926 21.1838 12.5069 21.4174C12.5213 21.6511 12.4851 21.885 12.4009 22.1034L12.8745 22.2801C12.8337 21.7104 12.866 21.138 12.9705 20.5766L12.4539 20.3839L12.6146 21.3993L13.1743 21.6081C13.3668 21.092 13.5514 20.5973 13.5932 20.025C13.3995 19.9527 13.2058 19.8804 12.9905 19.8001L13.193 20.2432C13.193 20.2432 13.7527 20.452 13.7957 20.468C14.5092 19.6073 15.2848 18.8431 15.9902 18.0039C15.9902 18.0039 15.6028 17.8593 15.5597 17.8433C14.679 18.558 13.8823 19.3702 13.185 20.2646L13.7663 20.4814C13.7287 20.3218 13.6598 20.1713 13.5637 20.0384L12.9825 19.8216C12.8253 20.3388 12.7024 20.8659 12.6146 21.3993L13.1743 21.6081L12.9786 20.5551L12.462 20.3624C12.28 20.9115 12.2643 21.5023 12.4169 22.0605L12.8905 22.2372C12.9285 21.7738 12.8958 21.3073 12.7936 20.8536L12.3416 20.685C12.159 21.4486 12.049 22.2278 12.0128 23.0122L12.4218 23.1648C12.316 22.7066 12.2352 22.2429 12.1798 21.776L11.6847 21.5913C11.5154 22.3391 11.5281 23.1167 11.7215 23.8588C11.7215 23.8588 12.2381 24.0515 12.2166 24.0435C12.2905 23.2894 12.1589 22.5294 11.8358 21.8437L11.4053 21.6831C11.3338 22.4015 11.4328 23.1267 11.6944 23.7998C11.6944 23.7998 11.9528 23.8962 11.9313 23.8882L11.8992 23.9742Z" fill="#909090"/>
</svg>
