<svg width="195" height="210" viewBox="0 0 170 277" fill="none" xmlns="http://www.w3.org/2000/svg">
<g clip-path="url(#clip0_4_38534)">
<path d="M0.135624 173.475C-0.762646 170.118 -2.47977 167.035 -4.86176 164.504C-6.67683 162.446 -8.95372 160.848 -11.5051 159.841C-15.2047 158.246 -21.7104 154.586 -25.7126 154.948C-27.8931 155.137 -28.8913 157.165 -30.886 157.829C-35.299 159.341 -38.3747 158.819 -41.2934 163.39C-45.796 170.448 -50.0273 178.511 -50.3557 186.978C-50.3322 187.159 -50.2402 187.325 -50.0985 187.44C-43.2037 190.384 -35.4448 194.031 -27.9694 194.574C-21.3704 195.054 -14.881 196.751 -8.14145 195.785C-1.95025 194.966 0.84824 189.094 2.94727 183.665C3.77577 181.52 5.04594 177.999 3.61989 175.769C2.19383 173.539 -1.47958 172.981 -4.04523 172.149C-8.43352 170.78 -11.77 173.375 -16.1638 172.798C-19.4513 172.367 -20.8694 171.001 -24.1818 171.846C-27.4941 172.692 -30.1476 175.617 -32.8158 177.76C-35.9467 180.363 -39.3628 182.601 -42.9986 184.432L-43.7974 185.639L-47.5992 185.653C-48.6492 185.844 -49.2304 186.404 -50.4366 186.55C-50.4366 186.55 -50.2774 187.119 -50.1236 187.112C-48.5035 186.985 -46.8989 186.708 -45.3305 186.283C-43.8755 185.774 -42.5189 185.018 -41.3201 184.049C-36.8797 181.205 -32.5993 178.119 -28.4987 174.803C-26.8756 173.428 -24.9512 172.456 -22.8815 171.964C-20.0458 171.489 -18.1813 173.185 -15.5763 173.522C-12.2085 173.908 -8.43627 170.492 -5.31943 173.069C-5.47984 173.158 -1.40459 173.965 -0.824309 174.299C5.7373 178.061 3.35665 181.569 1.02443 186.156C-1.97925 192.037 -4.11999 194.938 -10.9296 195.26C-14.1065 195.5 -17.3006 195.383 -20.4518 194.91C-22.4414 194.546 -24.6265 193.264 -26.6982 193.13C-29.6722 193.223 -32.6471 192.965 -35.5611 192.36C-39.0227 191.6 -42.3897 190.459 -45.6007 188.958C-53.5928 184.468 -48.7942 178.508 -45.2336 172.212C-42.6851 167.636 -41.3831 161.625 -36.2355 159.31C-33.7175 158.171 -30.9782 158.749 -28.4934 157.785C-26.0085 156.822 -27.8152 155.041 -24.0056 155.654C-14.3656 157.253 -2.70088 163.195 -0.11239 173.219C-0.11239 173.219 -0.0453106 173.339 -0.11239 173.219L0.135624 173.475Z" fill="#909090"/>
<path d="M-3.81134 173.465C-3.8152 175.731 -4.28767 177.971 -5.19903 180.045C-6.11039 182.118 -7.44091 183.98 -9.10692 185.514C-11.5091 188.088 -14.8067 191.319 -18.5104 191.462C-18.5104 191.462 -18.3539 191.743 -18.3315 191.783C-14.1455 192.081 -9.83124 187.232 -7.46759 184.259C-6.15693 182.819 -5.15087 181.128 -4.50954 179.288C-3.8682 177.449 -3.60488 175.499 -3.73543 173.554C-3.73543 173.554 -3.80257 173.434 -3.79139 173.454L-3.81134 173.465Z" fill="#909090"/>
<path d="M1.07118 174.4C4.75029 183.081 -5.16819 191.972 -13.0754 193.483C-13.0754 193.483 -12.9636 193.684 -12.9524 193.704C-8.18491 193.678 -1.76638 188.315 0.450851 184.371C1.34486 182.895 1.87343 181.227 1.99261 179.504C2.11179 177.782 1.81811 176.056 1.13601 174.469C1.04658 174.309 1.13601 174.469 1.13601 174.469L1.07118 174.4Z" fill="#909090"/>
<path d="M1.15941 198.519C3.67162 197.935 7.02805 196.697 9.55857 197.891C13.8855 199.952 10.4344 203.425 9.2831 205.934C7.69405 209.449 8.53231 212.322 9.90887 215.736C9.90887 215.736 10.1548 216.178 10.0206 215.937C8.87833 213.653 8.36638 211.105 8.53774 208.558C9.09224 206.843 9.86875 205.208 10.8473 203.695C11.4563 202.383 12.4039 200.829 11.7327 199.389C10.0011 195.619 3.59495 197.373 0.960829 198.446L1.02791 198.566L1.15941 198.519Z" fill="#909090"/>
<path d="M10.4339 216.917L10.6575 217.318C10.6575 217.318 10.9146 217.78 10.8252 217.619C10.7357 217.459 10.6686 217.338 10.7018 217.162C10.735 216.986 10.4335 216.68 10.5342 216.861L10.4339 216.917Z" fill="#909090"/>
<path d="M11.2432 218.228L12.2046 219.954C12.2829 220.094 12.4282 220.355 12.3049 219.898C12.1815 219.441 11.6676 218.754 11.3546 218.192C11.2652 218.031 11.131 217.791 11.2875 218.072L11.2432 218.228Z" fill="#909090"/>
<path d="M12.5069 220.496C12.5069 220.496 12.6299 220.717 12.6969 220.837C12.764 220.958 12.574 220.616 12.5405 220.556C12.4642 220.441 12.3968 220.32 12.3392 220.195C12.2497 220.034 12.4622 220.416 12.5069 220.496Z" fill="#909090"/>
<path d="M13.4557 221.493L14.2776 222.402C14.3558 222.543 14.177 222.221 14.1434 222.161C14.1099 222.101 13.5829 221.579 13.3127 221.283C13.0424 220.986 13.4133 221.464 13.4357 221.504L13.4557 221.493Z" fill="#909090"/>
<path d="M15.1088 223.281C16.989 225.381 19.0789 227.283 21.3456 228.958C23.7256 230.322 26.0032 231.857 28.1605 233.552C28.1605 233.552 28.3841 233.953 28.4064 233.993C30.1077 233.887 28.9597 234.185 29.5111 234.561C32.3481 236.4 35.332 238.078 38.1312 239.99C38.1312 239.99 37.9635 239.689 37.9188 239.608C36.5504 238.661 29.8357 235.38 29.3161 233.881C29.3161 233.881 29.126 233.54 29.1036 233.5C27.7614 233.59 28.9231 233.6 28.0147 233.054C23.2658 230.307 18.8962 226.95 15.0171 223.069C14.9388 222.928 15.1065 223.229 15.1401 223.29L15.1088 223.281Z" fill="#909090"/>
<path d="M40.3881 241.258C42.8858 242.864 50.6141 248.343 53.6154 246.75C56.1821 245.32 54.347 241.082 53.9779 238.816C52.6925 230.801 52.1865 222.063 47.9902 214.906C44.4958 208.963 38.2762 201.382 31.8143 198.696C27.3517 196.817 22.7926 198.962 18.2554 197.939C14.016 196.925 9.66321 196.467 5.30664 196.578C5.30664 196.578 5.51903 196.959 5.55257 197.02C9.18011 196.801 12.8211 197.006 16.402 197.63C20.9457 198.57 16.1733 198.257 20.4263 198.676C23.6892 199.014 26.8381 197.734 30.1819 198.501C34.2058 199.31 37.1251 202.523 39.9658 205.359C49.2047 214.493 51.723 225.24 53.6678 237.174C53.8928 238.522 54.109 239.9 54.3251 241.279C54.2786 245.881 52.7324 247.303 49.6866 245.546C46.7095 245.389 42.9679 242.634 40.4972 241.171C40.5203 241.219 40.5465 241.266 40.5755 241.311L40.3881 241.258Z" fill="#909090"/>
<path d="M7.76019 197.919C13.9154 199.104 19.7919 201.443 25.0792 204.814C32.5128 210.141 36.1923 222.029 40.372 229.957C43.5625 236.515 48.1876 242.271 53.9041 246.798C53.9041 246.798 53.7252 246.477 53.6693 246.377C40.6944 236.668 38.7735 221.38 29.646 209.239C24.5403 202.432 15.7341 199.263 7.55273 197.877C7.55273 197.877 7.61982 197.997 7.631 198.017L7.76019 197.919Z" fill="#909090"/>
<path d="M54.2272 238.887C53.1355 237.073 51.4901 235.656 49.5338 234.848C47.483 233.807 45.4521 232.756 43.5058 231.526C43.1353 231.285 40.7237 229.078 40.0331 229.489C39.3424 229.9 39.9518 231.796 40.1537 232.63C40.6386 234.727 41.0633 236.857 41.6796 238.907C42.1758 240.886 43.2305 242.682 44.7179 244.079C44.7179 244.079 44.6396 243.938 44.6173 243.898C41.8552 241.439 41.4053 237.377 40.6063 234.009C40.4537 233.357 39.394 230.134 40.7004 229.933C41.7368 230.477 42.7189 231.118 43.6334 231.849C46.9458 233.975 52.1771 235.348 54.1559 238.9C54.1559 238.9 54.223 239.021 54.1559 238.9L54.2272 238.887Z" fill="#909090"/>
<path d="M53.7752 237.272C45.0026 229.825 42.3998 214.68 30.2482 211.166C31.2589 220.386 30.2814 233.159 37.9825 239.863C37.9825 239.863 37.8148 239.561 37.7589 239.461C32.9025 235.223 30.9022 223.425 31.0349 216.777L30.7522 214.147C31.3686 211.857 32.4206 211.481 33.9169 212.989C38.0966 213.606 42.0508 221.318 43.638 223.931C46.6335 228.837 49.1162 233.766 53.7375 237.346L53.7752 237.272Z" fill="#909090"/>
<path d="M51.0833 222.677C48.489 218.224 45.1273 214.264 41.1537 210.983C38.3668 208.773 35.2984 206.945 32.0297 205.546C30.0906 204.706 23.8918 201.926 21.8573 202.849C14.1026 206.38 32.0749 233.975 34.5318 238.103C34.6995 238.404 34.8198 238.337 34.5318 238.103C31.6165 233.152 28.7614 228.168 26.1581 223.07C23.6812 218.833 21.8537 214.248 20.7367 209.469C20.0681 205.344 20.0029 203.435 25.0541 203.777C35.7277 204.59 45.8729 214.455 50.9876 222.835L51.0833 222.677Z" fill="#909090"/>
<path d="M14.9713 199.873C11.4873 200.788 15.1457 214.95 15.8206 217.388C17.1301 222.5 19.7852 227.169 23.5097 230.909C23.6215 231.109 23.3644 230.648 23.3085 230.547C19.4781 226.307 16.7917 221.159 15.5035 215.592C15.0815 213.75 14.8334 211.889 14.5853 210.029C14.3372 208.168 12.7716 200.782 14.9557 199.987L14.9713 199.873Z" fill="#909090"/>
<path d="M13.9055 199.704C17.9763 202.013 23.1597 199.809 27.6264 199.951C33.6629 200.034 36.4449 203.849 41.2367 206.65C41.2367 206.65 41.1361 206.469 41.1026 206.409C36.3863 203.461 33.9544 199.661 27.9534 199.453C23.2392 199.292 18.4345 201.232 13.8496 199.604C13.8496 199.604 13.8496 199.604 13.9167 199.724L13.9055 199.704Z" fill="#909090"/>
<path d="M11.0402 197.013C11.3008 197.838 11.6395 198.635 12.0517 199.395C12.0517 199.395 12.1523 199.576 12.0517 199.395C11.6376 198.249 10.9767 197.208 10.1159 196.345C10.1159 196.345 11.8488 199.456 10.9236 198.078C10.5136 197.412 10.0162 196.805 9.44466 196.272C9.44466 196.272 10.1652 197.895 10.2943 197.797C9.76477 197.348 9.27189 196.858 8.8204 196.33C9.08871 196.812 9.71215 197.648 8.89088 197.211C8.48107 196.879 8.10612 196.507 7.77198 196.099C7.77198 196.099 8.03059 197.506 8.191 197.417C7.71916 197.072 7.21718 196.771 6.69117 196.517C7.05231 197.92 6.17013 197.044 5.37814 196.801C5.69118 197.363 5.30293 197.185 4.89691 197.069C4.41643 196.832 3.95972 196.549 3.53312 196.225C3.53312 196.225 3.53312 196.225 3.53312 196.225C4.18156 197.389 3.87968 196.847 3.01175 196.515C3.22417 196.896 3.00831 197.122 2.50665 197.165L2.26591 197.299C2.17647 197.138 2.26591 197.299 2.33299 197.419C2.40007 197.539 2.48963 197.7 2.86441 197.807C2.86441 197.807 3.2392 197.914 2.86441 197.807C2.652 197.425 3.08459 197.447 3.32558 197.55C3.17296 196.899 3.49179 196.905 4.30454 197.609C4.01386 197.088 3.70818 196.916 4.28118 196.86C4.85418 196.804 5.62248 197.664 5.90819 197.847C5.90819 197.847 6.19389 198.03 5.90819 197.847C5.4136 196.676 6.9339 197.802 7.16832 197.987C7.16832 197.987 7.40274 198.172 7.16832 197.987C6.66149 196.086 8.2068 197.54 8.59312 197.903C8.161 196.75 8.24546 196.571 8.82415 197.327L9.72862 198.244C9.53856 197.902 9.19194 197.28 9.44375 197.166C9.91327 197.601 10.35 198.069 10.7504 198.569C9.17668 196.026 10.552 197.127 11.5362 199.13C11.5362 199.13 11.6591 199.351 11.5362 199.13C11.1888 198.539 10.9026 197.915 10.6816 197.266C10.2958 195.771 12.1908 199.975 11.1427 197.009L11.0402 197.013Z" fill="#909090"/>
<path d="M3.23661 195.127C2.65465 197.063 1.95755 198.961 1.14909 200.813C0.357667 202.411 -0.0287352 203.415 -2.0141 202.917C-3.40837 202.537 -3.33778 202.05 -2.91155 200.787C-2.25608 199.351 -1.46039 197.983 -0.53615 196.703C0.399312 194.663 1.1332 192.537 1.65511 190.354C2.11131 187.947 3.02688 185.651 4.35189 183.592L5.05967 182.646C5.7457 182.132 5.90173 182.176 5.651 183C6.01994 183.662 5.34229 185.276 5.23654 186.124C4.94093 188.234 4.75023 190.392 4.27841 192.469C3.80659 194.547 2.86991 195.884 2.59825 197.613L2.69883 197.793C3.04911 196.441 3.89908 195.231 4.30294 193.928C4.77341 192.141 5.09355 190.318 5.26015 188.477C5.56925 186.438 6.69562 183.601 5.83636 181.634C5.83636 181.634 5.59038 181.193 5.60156 181.213C2.52029 184.454 1.82186 188.578 0.510359 192.78C-0.332168 195.074 -1.41488 197.273 -2.71974 199.339C-3.10889 200.055 -3.95886 201.265 -3.79701 202.122C-3.53649 203.344 -3.05913 203.447 -1.67641 203.571C1.9898 203.737 2.80018 198.447 3.50694 195.424C3.50694 195.424 3.36161 195.163 3.37279 195.183L3.23661 195.127Z" fill="#909090"/>
<path d="M6.25108 183.087L5.18581 182.023C5.55352 183.344 5.10692 183.014 4.37207 182.213C4.29381 182.073 4.37214 182.214 4.43922 182.334C6.17831 185.126 5.25537 183.799 4.21902 182.693C4.92176 184.379 5.56068 185.102 3.88123 183.407C3.80297 183.267 3.88123 183.407 3.88123 183.407C4.54085 184.592 5.40983 185.633 3.69755 184.351C3.64165 184.251 3.69755 184.351 3.69755 184.351C4.95929 187.041 4.50248 185.796 3.29648 184.575C3.20704 184.414 3.29648 184.575 3.29648 184.575C4.74987 187.184 5.15391 187.485 3.29522 185.233C3.21696 185.092 3.21696 185.092 3.29522 185.233C3.76109 186.43 4.29069 187.601 4.88161 188.741C4.88161 188.741 5.11637 189.162 5.00457 188.962C4.58247 187.685 3.92239 186.5 3.05928 185.469C2.9922 185.349 3.05928 185.469 3.05928 185.469C3.44464 186.532 3.9347 187.554 4.52224 188.52C4.52224 188.52 2.56711 185.954 2.45761 185.805C2.34812 185.655 2.58061 186.025 2.61415 186.086C2.64769 186.146 6.05153 191.219 3.83313 188.51C3.35506 187.935 2.97963 187.355 2.48151 186.791C2.40325 186.65 2.48151 186.791 2.48151 186.791C2.77219 187.312 5.04005 191.809 3.39891 188.909C3.00562 188.239 2.52896 187.621 1.98021 187.07C1.86841 186.869 2.08082 187.25 2.11436 187.311C1.87958 186.889 5.15529 192.77 3.85842 190.442C3.36651 189.559 2.86339 188.655 2.37148 187.772C2.37148 187.772 2.1591 187.391 2.27089 187.592C2.85149 188.911 3.32189 190.276 3.67739 191.673C3.21707 190.695 2.69042 189.75 2.10106 188.843C2.03398 188.723 1.87747 188.442 1.91367 188.79C2.30497 189.493 3.85893 192.282 3.72851 193.039C3.72851 193.039 2.26888 190.749 1.95815 190.238C1.95815 190.238 1.72334 189.816 1.726 190.104C2.28146 191.715 2.80581 193.316 3.35008 194.906C3.35008 194.906 3.69666 195.529 3.5625 195.288C3.1793 193.941 2.53234 192.683 1.65925 191.588C1.65925 191.588 1.54747 191.387 1.55901 191.644C2.148 192.712 2.58998 193.854 2.87305 195.041C2.87305 195.041 1.75503 193.034 1.37492 192.351C1.37492 192.351 1.09541 191.849 1.22957 192.09C1.76036 193.609 2.31127 195.117 2.85324 196.656C2.85324 196.656 3.19982 197.278 3.06566 197.037C2.67641 195.671 1.97609 194.414 1.01971 193.364C1.64491 195.383 2.86224 198.229 0.818269 194.371C0.76237 194.27 0.527555 193.849 0.586121 194.237C1.00746 195.197 1.3644 196.184 1.65436 197.192C0.996842 196.459 0.51166 195.588 0.23449 194.643C0.23449 194.643 -0.0785856 194.081 0.0555731 194.322C0.503486 195.598 1.09403 196.847 1.47061 198.136C1.66795 198.868 1.90663 198.919 1.47061 198.136C0.888182 197.208 0.354555 196.25 -0.12811 195.266C-0.12811 195.266 -0.396433 194.784 -0.273454 195.005C0.00870952 195.794 0.520967 198.271 1.13248 198.614C0.62547 197.901 0.166215 197.155 -0.242283 196.381C-0.398802 196.1 -0.320542 196.241 -0.242283 196.381L0.565582 198.351C0.710921 198.612 1.5718 200.157 0.945729 199.033C-1.50888 194.957 2.20043 202.937 -0.169195 197.55C-0.169195 197.55 -0.437572 197.069 -0.370493 197.189C-0.215565 197.892 1.06006 200.889 -0.187116 198.981C-0.187116 198.981 -0.365992 198.659 -0.254193 198.86C0.153257 199.922 0.563079 201.035 0.916937 202.047C0.916937 202.047 1.22997 202.609 1.11817 202.409C0.722441 200.985 0.0514579 199.652 -0.856782 198.486C-0.935041 198.345 -0.935139 198.345 -0.957141 198.542C-0.565844 199.244 -0.29483 200.014 -0.0596944 200.671C-0.361552 200.13 -0.55194 199.552 -0.813693 198.988C-0.813693 198.988 -1.05962 198.546 -0.992542 198.667C-0.722199 199.478 -0.506502 200.307 -0.346681 201.147C-0.627142 200.431 -1.00322 199.755 -1.46467 199.14C-1.46467 199.14 -1.63237 198.839 -1.53175 199.019C-1.27389 199.954 -0.470122 202.057 -1.89618 199.827C-2.11977 199.426 -2.03659 199.905 -1.9271 200.055L-0.688796 201.995C-0.688796 201.995 -0.509925 202.316 -0.501411 202.048C-0.696443 201.368 -1.67391 197.915 -0.000106316 201.769C-0.000106316 201.769 0.301789 202.311 0.178811 202.09C-0.762093 199.222 -0.664076 199.115 0.271138 201.171C0.271138 201.171 0.50591 201.592 0.405291 201.412C0.225973 200.766 0.0120817 200.13 -0.235383 199.507C-0.414262 199.186 -0.235367 199.507 0.200649 200.29C0.860264 201.474 0.83798 201.434 0.334168 200.058C0.266372 199.464 0.449379 199.652 0.872266 200.599C0.950525 200.74 1.02876 200.88 0.972502 200.544C-1.23173 195.407 0.76333 199.319 1.41371 200.298C1.41371 200.298 1.58139 200.599 1.51395 200.242C0.983288 198.864 0.366892 197.521 -0.331742 196.221C-0.432361 196.04 -0.722683 195.755 -0.530317 196.147L1.51563 199.82C1.5827 199.941 1.81744 200.362 1.73882 199.985C1.34486 198.995 -0.555547 194.215 1.64371 199.013C1.64371 199.013 1.95672 199.575 1.82256 199.334C1.56832 198.129 1.14223 196.967 0.557421 195.883C1.30366 196.945 1.93691 198.082 2.44683 199.275C2.44683 199.275 2.72635 199.777 2.66779 199.389C2.2365 197.821 1.62351 196.309 0.84134 194.884C0.84134 194.884 2.30593 197.513 2.47363 197.814C2.64133 198.115 2.70836 198.235 2.68564 197.959C2.08901 195.661 0.805312 193.168 2.81575 196.966C2.81575 196.966 3.09525 197.468 2.96109 197.227C2.57337 196.42 2.29959 195.564 2.14773 194.682C2.2185 192.828 3.71295 197.492 2.66876 194.155C2.66876 194.155 2.1068 192.627 2.08674 192.638C2.06669 192.65 3.60719 195.368 3.67427 195.488C3.74135 195.609 3.95378 195.99 3.81962 195.749C3.37254 194.895 3.03479 193.987 2.81432 193.048C2.65955 190.978 3.98966 196.102 3.12327 192.377C3.05619 192.256 2.49448 190.965 2.68383 190.833C2.87317 190.701 4.41404 193.656 4.48112 193.777C4.5482 193.897 4.72708 194.218 4.6797 193.85C4.18281 192.628 3.60338 191.399 3.14659 190.154C2.26887 187.777 4.67827 192.904 4.36523 192.342C4.46585 192.523 4.64473 192.844 4.43231 192.463C5.85057 195.433 2.61739 188.214 3.06387 188.544C3.82848 189.511 4.43252 190.596 4.85269 191.755C4.91977 191.876 5.06511 192.136 4.91977 191.876C4.50537 190.824 4.0371 189.794 3.5169 188.791C1.82838 185.524 4.38505 190.727 4.31336 190.504C4.24166 190.281 4.57052 190.966 4.48108 190.805C4.14497 189.73 2.29017 184.136 4.86334 189.935C4.86334 189.935 5.1093 190.376 5.00869 190.196C4.6298 188.855 2.11178 182.684 5.06046 189.062C5.06046 189.062 5.32883 189.544 5.18349 189.283C4.729 188.486 4.35709 187.644 4.07362 186.772C3.91833 185.833 4.16081 185.513 5.35014 187.507C5.43957 187.668 5.52901 187.828 5.35014 187.507C5.17126 187.186 3.23842 183.055 5.17255 186.528C5.17255 186.528 5.37379 186.889 5.17255 186.528C4.97131 186.166 3.47934 183.158 5.38044 185.439C5.48106 185.619 5.48068 185.383 5.48068 185.383C5.22354 184.921 3.50191 181.83 5.6582 184.758C5.74764 184.919 5.74762 184.919 5.75844 184.702C4.64045 182.695 4.51753 182.474 5.79523 183.919C5.79523 183.919 5.94057 184.18 5.87349 184.06C5.60482 183.341 4.30833 181.25 5.90757 182.989C5.65433 182.157 5.4881 181.434 6.39029 182.299L6.25108 183.087Z" fill="#909090"/>
<path d="M5.02653 183.716C2.12019 184.678 1.83278 189.256 1.14535 191.795C0.123815 195.505 -1.18751 199.128 -2.77633 202.632L-2.56391 203.013C-0.981109 200.139 0.214778 197.068 0.992429 193.879C1.87966 190.755 2.21302 185.599 5.03772 183.737L5.02653 183.716Z" fill="#909090"/>
<path d="M4.78427 184.509C2.46125 186.329 2.19636 189.579 1.5471 192.282C0.805209 195.667 0.325397 199.852 -1.80419 202.774C-1.9245 202.841 -1.51351 203.296 -1.52469 203.276C-0.0105029 200.699 0.962458 197.839 1.33471 194.872C2.1325 191.587 2.28183 187.139 4.82897 184.589L4.78427 184.509Z" fill="#909090"/>
<path d="M5.08651 184.156C1.98662 188.354 1.8117 193.606 0.177769 198.409C-0.0420884 199.005 -1.18304 202.428 -1.74061 202.37C-2.7844 202.242 -0.853364 199.246 -0.655508 198.847C1.00607 195.95 2.21001 192.813 2.9138 189.548C2.9138 189.548 2.66782 189.106 2.679 189.126C1.87614 192.013 0.797619 194.815 -0.541679 197.495C-1.38864 199.229 -2.87521 201.135 -2.22108 203.111C-2.22108 203.111 -2.03105 203.452 -2.04223 203.432C2.31561 197.954 1.31582 190.122 5.10456 184.33L5.02629 184.189L5.08651 184.156Z" fill="#909090"/>
<path d="M13.3947 202.513C12.7814 201.824 12.099 201.2 11.3583 200.65C11.3583 200.65 11.4253 200.77 11.4477 200.81C13.4297 203.52 13.8523 204.231 12.6663 202.998C12.1212 202.302 12.0634 202.387 12.5352 203.282C13.1956 204.939 11.9352 203.195 11.4641 202.774C11.4641 202.774 11.6206 203.055 11.6653 203.135C13.0378 205.316 13.197 205.884 12.183 204.819C11.8391 204.484 11.4864 204.181 11.1536 203.867C10.8209 203.553 11.3325 204.188 11.3773 204.268C11.8804 205.172 12.2832 206.131 12.7573 207.076L12.0248 206.327L10.7875 205.097C10.6646 204.876 10.9441 205.378 10.9888 205.458C11.2459 205.919 12.9511 208.415 12.7887 208.689C12.6264 208.964 11.3683 207.271 11.2723 207.193C10.9373 206.828 10.982 206.908 11.3842 207.394C11.7668 207.822 12.0494 208.329 12.2115 208.879C13.5334 211.536 10.7856 208.253 10.5778 207.975C10.37 207.696 10.5778 207.975 10.6561 208.115C11.3988 209.204 12.4124 210.081 13.5967 210.659L13.5296 210.538C12.8711 208.973 11.8547 207.585 10.5622 206.484C10.5622 206.484 10.7634 206.846 10.8081 206.926C11.6329 207.855 12.5274 208.719 13.4835 209.512C13.33 208.507 12.9343 207.554 12.3308 206.735C12.2302 206.555 11.2787 205.507 11.3077 205.464C11.0585 205.866 13.1706 207.582 13.4609 207.868C13.5168 207.968 13.7512 208.153 13.4609 207.868C13.2731 206.977 12.9395 206.123 12.4737 205.341C12.4737 205.341 11.705 204.244 11.685 204.255C11.6649 204.266 13.3042 205.983 13.4515 206.058C13.4515 206.058 13.5988 206.134 13.4515 206.058C13.309 205.388 13.0652 204.744 12.7283 204.147C12.5324 203.769 12.285 203.42 11.9931 203.11C12.0926 203.441 12.3148 203.722 12.6143 203.895C12.9134 204.149 13.2126 204.403 13.5029 204.689C13.5029 204.689 13.7932 204.974 13.5029 204.689C13.2238 203.65 12.6333 202.721 11.8108 202.028C11.8108 202.028 11.9449 202.269 11.9785 202.329L13.6379 204.035C13.3628 203.375 13.014 202.749 12.5982 202.168C12.342 201.797 12.0583 201.445 11.7493 201.116C12.3223 201.558 12.8476 202.058 13.3169 202.609L13.3947 202.513Z" fill="#909090"/>
<path d="M14.5998 203.735C14.8583 208.995 15.8919 214.188 17.667 219.147C15.9973 214.159 14.9666 208.981 14.5998 203.735Z" fill="#909090"/>
<path d="M19.2552 222.47C19.3496 222.663 19.4541 222.85 19.5683 223.032C19.4503 222.844 19.3421 222.649 19.244 222.45L19.2552 222.47Z" fill="#909090"/>
<path d="M20.5252 205.221C21.7337 208.098 21.2702 211.276 22.4834 214.255C23.9424 217.677 25.6958 221.013 27.3465 224.354C27.3465 224.354 27.4136 224.474 27.3465 224.354C25.9595 221.392 24.3896 218.48 23.0828 215.473C22.0753 212.852 21.4297 210.106 21.1639 207.311C21.0945 206.587 20.8739 205.886 20.5163 205.253L20.5252 205.221Z" fill="#909090"/>
<path d="M41.3326 212.671C38.7318 210.684 35.9819 208.901 33.1073 207.338C31.0006 206.197 27.6902 203.886 25.2246 204.365C25.2246 204.365 25.3588 204.606 25.37 204.626C27.8224 204.312 31.0857 206.492 33.2125 207.621C36.0314 209.144 38.7423 210.858 41.326 212.753L41.3326 212.671Z" fill="#909090"/>
<path d="M20.022 199.32C19.2107 199.395 18.3937 199.383 17.5848 199.284L16.5163 199.064C16.3401 199.031 16.1615 198.946 15.9964 198.933C15.7377 198.893 15.8314 198.92 15.9964 198.933C16.3972 199.053 16.8068 199.141 17.2212 199.198C17.2212 199.198 17.6271 199.313 17.6449 199.251C17.6626 199.188 17.2501 199.155 17.1988 199.157C16.43 199.048 15.6703 198.883 14.9258 198.662C14.9258 198.662 14.9258 198.662 14.9258 198.662C15.8842 199.026 16.8918 199.245 17.9148 199.311C17.9148 199.311 17.9148 199.311 17.8478 199.191L15.4074 198.63C15.4074 198.63 15.4856 198.771 15.508 198.811C16.9562 199.329 18.507 199.493 20.031 199.289C20.031 199.289 20.0309 199.289 19.975 199.189L20.022 199.32Z" fill="#909090"/>
<path d="M15.3819 198.96L16.7978 198.908L16.7308 198.788C15.6026 198.214 14.3417 197.954 13.0793 198.034C13.0793 198.034 13.1687 198.194 13.1799 198.214L16.0236 198.603C16.0236 198.603 15.9454 198.462 15.9342 198.442C14.6686 197.82 13.3197 197.384 11.9296 197.149C11.9296 197.149 12.0302 197.33 12.0413 197.35C13.0944 197.683 14.1539 197.935 15.1645 198.24C15.1645 198.24 15.8852 198.496 15.7067 198.411C15.4672 198.304 15.21 198.242 14.9482 198.229L13.1572 197.938L13.2578 198.119C14.0749 198.072 14.8941 198.157 15.6843 198.371C16.0181 198.467 16.3459 198.583 16.6661 198.718C16.2608 198.792 15.8494 198.827 15.4375 198.824L15.3819 198.96Z" fill="#909090"/>
<path d="M2.05158 177.247L-0.291369 174.739C-0.367263 174.865 -0.406072 175.01 -0.403087 175.157C-0.400102 175.304 -0.355525 175.448 -0.274578 175.571C0.0126837 176.181 0.341403 176.772 0.709259 177.337C0.815698 177.506 0.912682 177.68 0.999879 177.859C1.06696 177.979 1.17879 178.18 1.10053 178.04C0.741171 177.751 0.42199 177.416 0.151365 177.043C-0.455345 176.422 -1.10285 175.843 -1.78681 175.309C-1.78681 175.309 -1.78681 175.309 -1.78681 175.309C-1.175 176.593 -0.304908 177.738 0.769192 178.671C0.769192 178.671 0.702104 178.551 0.690924 178.531C-0.0327457 177.75 -0.745129 176.99 -1.48885 176.221C-1.48885 176.221 -1.48885 176.221 -1.42177 176.341L0.110373 177.96C0.367511 178.422 0.789323 178.66 0.110373 177.96C-0.227961 177.613 -0.540068 177.242 -0.823393 176.85C-1.02212 176.54 -1.20139 176.218 -1.36007 175.886C-1.51659 175.605 -1.3651 175.547 -1.1596 175.774C-0.873501 175.976 -0.611186 176.209 -0.377974 176.47C0.233897 177.05 0.816739 177.672 1.39969 178.294L0.673032 176.989C0.415894 176.527 -0.155858 175.925 -0.0250811 175.406C0.105695 174.886 0.00782918 174.993 0.119628 175.194C0.233622 175.303 0.341649 175.418 0.443408 175.539L0.992766 176.101L2.14749 177.325L2.05158 177.247Z" fill="#909090"/>
<path d="M2.19668 174.299C-1.1329 174.076 -3.84762 171.986 -7.09468 171.769C-10.3417 171.553 -14.7988 171.853 -18.5094 171.842C-23.3571 171.913 -28.8244 175.116 -33.0423 177.308C-38.252 179.841 -43.225 182.612 -48.2824 185.56L-48.0141 186.042C-40.0603 181.454 -29.8049 174.111 -20.5355 172.498C-17.3743 171.946 -13.9766 172.999 -10.7391 172.774C-8.22316 172.399 -5.65846 172.506 -3.18137 173.087C-1.42053 173.783 0.424877 174.241 2.30621 174.449L2.19668 174.299Z" fill="#909090"/>
<path d="M-0.586159 138.69C-2.28701 142.004 -1.2542 146.689 -1.38919 150.314C-1.61637 153.191 -1.30487 156.086 -0.470839 158.849C0.563156 161.585 1.74705 164.262 3.07561 166.867C5.57897 172.009 6.26557 177.848 5.02299 183.429C5.02299 183.429 5.35841 184.031 5.32487 183.97C6.5058 181.674 7.39069 179.237 7.95848 176.718C7.95848 176.718 7.70131 176.256 7.71249 176.276C7.72367 176.296 6.36537 181.971 5.67596 181.724C5.67596 181.724 6.52805 175.989 6.46256 175.447C6.48563 173.998 6.20386 172.56 5.63557 171.227C3.11579 163.873 -1.45644 158.872 -1.1902 150.624C-1.08147 147.329 -1.76369 141.529 -0.574968 138.71L-0.586159 138.69Z" fill="#909090"/>
<path d="M8.00921 171.667C7.62151 168.898 6.71322 166.227 5.33249 163.796C2.98394 159.416 1.25807 154.73 0.204916 149.874C-0.413203 146.641 -0.939903 143.384 -1.54684 140.172C-1.54684 140.172 -1.71454 139.871 -1.681 139.931C-0.990168 145.015 -0.0155409 150.056 1.23845 155.031C2.88158 160.716 7.19748 165.729 7.96452 171.587L8.00921 171.667Z" fill="#909090"/>
<path d="M23.57 164.367C16.7914 166.065 10.4359 167.344 7.32217 174.206C10.8596 167.397 16.9729 166.674 23.5476 164.327L23.57 164.367Z" fill="#909090"/>
<path d="M-0.494114 149.185C-0.114285 152.25 0.673987 155.252 1.84967 158.109C3.94831 162.726 7.11623 166.668 8.12743 171.785C8.12743 171.785 8.29514 172.086 8.27278 172.046C7.77793 169.307 6.84712 166.664 5.51589 164.219C2.68357 159.572 0.648423 154.483 -0.505304 149.164L-0.494114 149.185Z" fill="#909090"/>
<path d="M22.0847 165.193C19.8921 166.257 17.4594 166.323 15.2753 167.119C12.8348 168.056 10.7193 169.682 9.18588 171.8L9.33116 172.061C11.0635 170.151 13.1656 168.613 15.5101 167.541C17.7752 166.968 19.9892 166.21 22.1294 165.274L22.0847 165.193Z" fill="#909090"/>
<path d="M14.919 195.063C13.8099 196.172 12.6349 197.213 11.4005 198.18C10.617 197.67 13.5697 194.999 13.7988 194.609C14.8984 192.784 15.5522 190.726 15.7074 188.601C16.4645 180.527 14.5975 174.203 20.8939 167.724C30.6768 157.647 44.437 157.398 57.0661 159.647C59.9658 160.135 64.3885 160.67 65.4921 163.5C66.5957 166.33 63.3908 171.85 62.3471 174.693C59.7265 181.781 57.5023 189.91 51.4892 194.916C46.7255 198.911 39.8613 203.05 33.6454 203.777C27.4296 204.504 25.0379 200.682 20.3568 197.372C19.0284 196.129 17.2865 195.422 15.4681 195.388C15.4681 195.388 15.5825 195.877 15.7364 195.87C21.4609 196.1 24.3824 203.703 30.89 204.207C37.3977 204.711 43.0893 201.015 48.1953 197.776C59.8465 190.392 62.7357 175.108 67.311 163.039C67.3016 162.917 67.2658 162.797 67.206 162.69C67.1461 162.583 67.0637 162.49 66.9644 162.417C52.6377 155.328 33.8274 154.577 21.3934 166.263C18.9355 168.495 17.1008 171.33 16.0696 174.488C14.5919 179.335 16.2629 184.268 15.4028 189.139C14.8408 191.789 13.5177 194.217 11.5958 196.125C10.6321 197.319 9.34499 197.037 9.28078 198.808C9.41202 199.255 9.64116 199.666 9.95154 200.013C9.95154 200.013 10.1081 200.294 10.0969 200.273L15.3076 195.478L15.084 195.076L14.919 195.063Z" fill="#909090"/>
<path d="M66.0343 162.777C46.5737 169.961 30.6497 184.485 13.358 195.564L13.6487 196.086C31.6772 185.623 46.7582 171.094 66.2243 163.118C66.2243 163.118 66.0455 162.797 66.0343 162.777Z" fill="#909090"/>
<path d="M14.0662 194.144C22.3477 189.865 30.3796 185.119 38.1231 179.929L38.0113 179.728C29.7501 184.049 21.7406 188.836 14.0215 194.064L14.1221 194.245L14.0662 194.144Z" fill="#909090"/>
<path d="M16.2954 193.007C18.8301 188.124 18.7278 182.422 20.7315 177.387C23.1881 170.996 27.3851 163.767 33.5122 160.38L33.3445 160.079C27.5522 162.227 24.1995 168.802 21.6343 174.149C18.7466 180.097 18.6587 186.826 16.3109 192.894L16.4004 193.054L16.2954 193.007Z" fill="#909090"/>
<path d="M44.7349 157.837C37.2242 160.322 30.9102 165.517 27.0247 172.41C24.2031 177.768 25.0283 183.778 22.5032 189.103C22.5032 189.103 22.861 189.745 22.8386 189.705C25.6927 183.697 24.5679 177.197 28.3185 171.242C32.2403 164.981 38.3402 161.215 44.9361 158.199C44.9361 158.199 44.746 157.858 44.7349 157.837Z" fill="#909090"/>
<path d="M54.0289 159.524C48.453 160.255 43.3956 163.166 39.9638 167.622C36.2489 172.084 35.7821 177.472 32.7454 182.162C32.585 182.251 33.1367 182.864 33.1255 182.844C36.1869 178.246 36.6177 172.746 40.3238 168.315C44.0299 163.884 48.7228 161.743 54.0759 159.656L54.0088 159.535L54.0289 159.524Z" fill="#909090"/>
<path d="M60.5227 175.946C58.8611 177.242 56.9298 178.149 54.8709 178.6C52.8119 179.05 50.6779 179.033 48.6258 178.549C45.6331 177.645 42.4789 177.409 39.3861 177.858C39.3861 177.858 39.543 178.375 39.6656 178.359C47.0761 177.23 54.4674 182.527 60.6122 176.106L60.5227 175.946Z" fill="#909090"/>
<path d="M62.8815 168.058C62.3033 169.516 61.3438 170.792 60.1031 171.751C58.8625 172.711 57.3866 173.319 55.83 173.511C52.4726 174.04 50.1014 172.047 47.0418 171.884C47.0418 171.884 47.1562 172.373 47.3101 172.366C50.4522 172.535 52.9347 174.493 56.2274 173.894C57.8065 173.708 59.2981 173.07 60.5231 172.056C61.7481 171.043 62.6545 169.697 63.1337 168.18C63.1088 168.107 63.0709 168.039 63.0219 167.98L62.8815 168.058Z" fill="#909090"/>
<path d="M57.9869 162.763C52.2385 162.914 48.343 167.477 46.5155 172.545C46.5155 172.545 46.8285 173.107 46.8174 173.087C47.6217 170.554 49.0877 168.282 51.0639 166.506C53.0401 164.73 55.4549 163.515 58.0586 162.986C58.0586 162.986 57.9579 162.805 57.9468 162.785L57.9869 162.763Z" fill="#909090"/>
<path d="M55.8262 186.004C47.7569 189.395 38.3239 187.601 30.7343 183.834C30.7343 183.834 30.9467 184.215 31.0026 184.316C37.7824 187.903 48.9382 190.525 55.9581 186.194L55.8575 186.013L55.8262 186.004Z" fill="#909090"/>
<path d="M52.589 190.806C48.3481 195.456 42.9792 194.449 37.3226 193.445C31.6661 192.441 26.1321 191.421 20.5203 190.497C20.5203 190.497 20.6571 191.025 20.8221 191.039C27.0922 192.201 33.4111 193.31 39.7054 194.327C44.6749 195.135 49.3649 195.442 52.665 190.895L52.589 190.806Z" fill="#909090"/>
<path d="M44.5234 198.165C39.3241 199.557 33.8073 199.167 28.8522 197.058C26.742 195.704 24.5416 194.496 22.2664 193.442C20.2695 193.018 18.2133 192.952 16.194 193.248C16.194 193.248 16.3532 193.817 16.507 193.81C19.9124 193.289 23.3904 194.063 26.255 195.981C27.8693 196.979 29.5959 197.783 31.3986 198.375C35.6646 199.802 40.2768 199.807 44.5438 198.39C44.5438 198.39 44.4097 198.149 44.3985 198.129L44.5234 198.165Z" fill="#909090"/>
<path d="M15.2518 179.151L14.2344 177.325C14.2344 177.325 14.022 176.943 14.1338 177.144C14.376 178.358 14.3657 179.608 14.1036 180.817C13.1086 179.03 12.9759 179.735 13.9372 182.829C14.7633 187.944 13.8915 185.011 12.6088 183.227C12.4188 182.886 12.3991 183.133 12.4885 183.294C12.9692 184.157 13.4835 185.08 13.9531 185.923C13.9531 185.923 14.691 187.248 14.3668 186.666C13.7822 185.641 13.0696 184.695 12.2463 183.85C12.1009 183.589 12.2601 184.158 12.4139 184.151C12.8565 184.38 13.1947 184.77 13.3592 185.241C13.5236 185.712 13.5019 186.227 13.2986 186.682C13.6228 187.264 13.9582 187.867 14.1532 188.547C13.829 187.965 13.5048 187.383 13.0915 186.877C14.1709 189.852 14.3304 190.657 13.5679 189.241C13.2995 188.76 13.0312 188.278 12.7629 187.796C13.9181 190.861 14.0396 191.503 13.1383 189.743L12.0203 187.736C11.8526 187.435 11.6922 187.525 11.8599 187.826C12.4538 188.861 12.9048 189.972 13.2005 191.129C13.1025 190.929 12.9944 190.735 12.8763 190.547C12.8763 190.547 11.8142 188.64 11.9596 188.901C11.9596 188.901 11.7471 188.52 11.7409 188.839C12.2312 189.87 12.4988 190.994 12.5263 192.135C12.4067 192.675 12.0122 191.212 11.9 190.775C11.9 190.775 11.5423 190.133 11.5114 190.36C11.6193 190.931 12.6191 194.424 11.7105 192.274C11.7105 192.274 11.3639 191.652 11.4534 191.813C11.5428 191.973 12.2023 194.525 11.4617 192.913C11.4617 192.913 11.1375 192.331 11.1822 192.411C11.0253 193.063 11.0596 193.747 11.2811 194.381C11.2811 194.381 11.024 193.919 10.9904 193.859L10.7698 193.982C10.8301 194.148 10.824 194.332 10.7529 194.494C10.6817 194.656 10.5509 194.784 10.3876 194.852C10.3876 194.852 10.2815 195.463 10.2329 195.754C10.0987 195.513 9.7236 195.169 9.97186 195.662L10.229 196.124C10.229 196.124 10.5085 196.626 10.4638 196.545L11.1117 195.869C11.0498 195.665 11.0407 195.448 11.0852 195.239C11.1298 195.03 11.2264 194.836 11.3662 194.675L11.0756 194.153L11.1874 194.354C11.1874 194.354 11.5116 194.936 11.4669 194.856C11.5395 194.184 11.2875 192.694 11.8915 194.014C11.8915 194.014 12.2493 194.657 12.269 194.409C12.2887 194.161 11.556 191.808 12.3505 193.706C12.3505 193.706 12.697 194.328 12.7279 194.101C12.5126 193.317 12.3732 192.514 12.3117 191.703C12.353 191.022 12.8371 192.646 12.9069 193.054C12.9766 193.463 13.2422 193.657 13.2731 193.429C13.1645 192.385 11.9983 187.933 13.6678 191.92C13.6678 191.92 14.0032 192.523 14.014 192.306C13.8498 191.402 13.6174 190.512 13.3187 189.643C12.4229 187.091 14.1684 191.168 14.2578 191.329C14.3473 191.489 14.5596 191.871 14.5905 191.643C14.2253 189.9 13.5556 188.234 12.6119 186.723C12.3995 186.342 12.2591 186.42 12.4715 186.801C13.1871 188.086 13.9137 189.39 14.6293 190.675C14.6293 190.675 14.8752 191.116 14.9061 190.889C14.5845 189.068 13.8869 187.334 12.858 185.797C12.5897 185.315 12.6975 185.886 12.8294 186.076L14.9217 189.407C15.0111 189.568 15.2008 189.673 15.042 189.34C14.422 187.793 13.7054 186.286 12.8966 184.829C12.7737 184.608 12.4298 184.273 12.6669 184.746C13.3903 186.113 14.2829 187.383 15.3239 188.526C15.3239 188.526 15.4022 188.666 15.3239 188.526C14.5946 186.934 11.3096 180.847 15.1887 187.576C15.3564 187.877 15.4767 187.81 15.309 187.509C14.8204 186.254 14.1621 185.072 13.3525 183.996C14.058 184.796 14.6823 185.664 15.2162 186.587C15.2162 186.587 15.328 186.788 15.2162 186.587C14.6627 185.075 13.8742 183.659 12.8796 182.393C12.7902 182.232 12.779 182.212 12.7794 182.448C13.3061 183.661 14.1034 184.737 15.11 185.595C14.5604 184.157 13.8074 182.805 12.874 181.58C12.7063 181.279 12.7736 181.636 12.8518 181.777C13.5065 182.873 14.2653 183.903 15.1177 184.854C15.1177 184.854 15.1736 184.954 15.1177 184.854C14.7162 183.119 13.8325 181.532 12.5686 180.278C12.4568 180.077 12.6469 180.418 12.6805 180.478C13.2849 181.579 14.0284 182.596 14.8927 183.507C14.5402 181.84 13.8048 180.277 12.745 178.943C12.5773 178.642 12.7342 179.16 12.7901 179.26C13.4447 180.105 14.0905 180.982 14.7452 181.827C14.7452 181.827 14.8123 181.947 14.7452 181.827C14.8041 181.17 14.7208 180.508 14.5013 179.886C14.2818 179.264 13.9313 178.697 13.4732 178.222C13.3949 178.082 13.4732 178.222 13.4732 178.222C13.8351 179.155 14.3242 180.033 14.9266 180.831C14.9266 180.831 14.9936 180.952 14.9266 180.831C14.6756 179.726 14.202 178.683 13.5349 177.767C13.4007 177.526 13.4678 177.647 13.5349 177.767C13.8815 178.389 14.2169 178.991 14.5635 179.614C14.5635 179.614 14.6641 179.794 14.6418 179.754C14.5818 178.42 13.7143 176.957 14.9638 178.917C14.9638 178.917 15.0532 179.078 14.9638 178.917L15.2518 179.151Z" fill="#909090"/>
<path d="M15.0979 177.791C14.8598 177.383 14.7066 176.932 14.6477 176.464C14.5733 175.953 14.6986 176.225 15.106 177.286C15.4526 177.909 15.1061 177.286 15.0406 176.744C14.9751 176.202 14.832 175.993 14.8386 175.91C14.8451 175.827 15.2522 176.653 15.3417 176.813C15.4311 176.974 15.487 177.074 15.4758 177.054L15.4094 175.802C15.3821 175.423 15.5036 174.698 15.4094 175.802L15.5771 176.104C15.4069 175.604 15.3275 175.078 15.3428 174.551C15.2736 174.45 15.2137 174.342 15.1639 174.23C15.3204 174.511 15.477 174.792 15.4931 175.151C15.5093 175.51 15.7167 175.552 15.6944 175.512C15.672 175.472 15.9377 174.298 15.8036 174.058C15.6694 173.817 15.9825 174.379 15.9601 174.339C16.4291 173.341 17.0142 172.41 17.4832 171.413L17.2931 171.071C16.6455 171.947 16.1084 172.9 15.6941 173.908L15.8506 174.189C15.7767 173.961 15.6589 173.75 15.504 173.567C15.4758 174.082 15.47 174.638 15.4731 175.162L15.6519 175.483L15.3027 174.573C15.3027 174.573 15.1014 174.212 15.1238 174.252C15.0705 174.855 15.1648 175.461 15.3985 176.019C15.3985 176.019 15.5774 176.34 15.5326 176.26C15.5176 175.772 15.387 175.295 15.1515 174.868C15.1515 174.868 15.0061 174.607 15.0285 174.647C15.0252 175.148 15.0579 175.648 15.1266 176.144C15.1266 176.144 15.2257 176.746 15.2168 176.778C15.208 176.809 14.8475 175.879 14.8452 175.827C14.8429 175.776 14.6663 175.506 14.6887 175.546C14.7126 176.305 14.8716 177.054 15.1581 177.757C15.1581 177.757 15.3706 178.138 15.3259 178.058C15.2441 177.275 14.9626 176.527 14.5086 175.884C14.408 175.703 14.5086 175.884 14.5086 175.884C14.5565 176.605 14.7672 177.305 15.1248 177.933C15.1248 177.933 15.2255 178.114 15.1248 177.933L15.0979 177.791Z" fill="#909090"/>
<path d="M0.392482 136.672C-8.82732 125.45 -17.9329 114.48 -30.1091 106.536C-30.1175 112.747 -33.3182 118.133 -34.4865 124.148C-35.477 130.117 -35.7493 136.185 -35.2976 142.22C-35.0493 148.656 -34.2845 154.463 -29.8241 159.263C-29.634 159.604 -29.9297 158.743 -30.028 158.614C-34.6426 153.584 -34.8911 145.544 -35.0882 139.105C-35.2097 135.519 -35.0758 131.929 -34.6875 128.363C-34.2907 125.137 -33.58 121.958 -32.5656 118.87C-31.9573 117.085 -30.8973 110.262 -29.804 109.206C-25.3083 104.966 -1.9909 133.95 0.513203 136.842C0.513203 136.842 0.513147 136.842 0.457248 136.741L0.392482 136.672Z" fill="#909090"/>
<path d="M3.91798 175.313C2.57236 172.181 0.757213 169.273 -1.46473 166.688C-8.38326 158.418 -15.403 151.098 -18.8732 140.435C-22.5921 129.041 -24.3784 117.203 -29.9069 106.476C-30.0634 106.195 -30.4609 105.811 -30.1791 106.364C-23.6867 118.869 -22.4946 133.037 -17.0854 145.908C-12.2202 157.426 -1.33712 164.039 3.86209 175.213C3.86209 175.213 3.98507 175.434 3.86209 175.213L3.91798 175.313Z" fill="#909090"/>
<path d="M-14.151 121.367C-13.2789 125.904 -12.4781 130.455 -11.9115 135.057C-11.3448 139.659 -9.58189 146.409 -10.996 150.615C-12.41 154.822 -15.0411 152.08 -18.1804 150.83C-19.7825 150.171 -21.4489 149.679 -23.0421 148.989C-29.7765 145.955 -33.4587 139.722 -35.084 132.606C-35.1734 132.446 -35.52 131.824 -35.542 132.02C-34.681 136.421 -32.8586 140.579 -30.2052 144.195C-25.4422 150.01 -17.7975 150.433 -11.8286 154.498C-9.86422 149.959 -10.7443 144.558 -11.1864 139.755C-11.7486 133.633 -12.712 127.555 -14.0705 121.559C-14.0705 121.559 -14.2158 121.298 -14.1823 121.358L-14.151 121.367Z" fill="#909090"/>
<path d="M-7.7691 126.596C-2.44762 137.518 -5.05711 148.965 -7.8767 160.082C-7.92993 160.269 -7.51894 160.724 -7.53012 160.704C-4.7352 149.495 -2.09099 137.451 -7.7869 126.659C-7.88752 126.478 -7.7869 126.659 -7.7869 126.659L-7.7691 126.596Z" fill="#909090"/>
</g>
<defs>
<clipPath id="clip0_4_38534">
<rect width="194" height="209" fill="white" transform="translate(-102 94.4043) rotate(-29.1187)"/>
</clipPath>
</defs>
</svg>
