<svg width="187" height="151" viewBox="0 0 187 151" fill="none" xmlns="http://www.w3.org/2000/svg">
<g clip-path="url(#clip0_4_38470)">
<path d="M78.9792 23.8087C73.2943 15.1023 85.7621 14.9563 89.0072 16.3425C98.962 20.6228 102.841 33.1716 106.404 42.6076C108.188 47.7766 110.332 52.8149 112.821 57.6858C118.432 67.827 126.996 75.6579 135.194 83.659C148.394 96.4997 158.52 111.383 170.183 125.489C172.403 128.164 174.648 130.79 177.014 133.295C180.259 136.773 186.994 147.011 188.702 148.082C186.437 146.268 184.271 144.336 182.211 142.293C168.987 131.544 158.715 116.101 147.199 103.382C141.522 97.1077 135.723 90.9306 129.802 84.8507C126.484 81.3973 122.678 78.1628 119.604 74.4906C102.524 54.0622 113.919 64.7627 109.551 54.8403C104.854 44.6431 99.0795 34.9742 92.3255 25.9974C89.0804 21.5226 77.1249 12.1596 78.2472 24.0032C78.2472 24.2707 78.906 25.1949 78.8816 24.9517C77.7104 12.3055 89.9344 23.6384 92.3987 26.7999C94.863 29.9615 96.6685 33.2203 98.7424 36.5277C103.924 44.1772 108.029 52.4992 110.942 61.2607C113.894 70.3562 119.701 75.3661 126.362 82.1755C138.22 94.2705 149.687 106.706 160.765 119.482C165.644 125.245 170.524 131.325 175.599 136.967C179.698 141.442 186.896 145.139 189.482 150.489C189.482 150.635 190.117 151.389 189.946 150.83C188.954 147.006 187.092 143.461 184.505 140.469C177.722 132.274 170.061 124.929 163.546 116.466C157.032 108.003 151.347 99.9045 144.32 92.1466C136.439 83.4159 126.679 76.1443 119.506 66.7812C110.966 55.6672 107.916 43.0454 101.939 30.837C99.6357 25.4953 96.0794 20.7831 91.5691 17.0964C84.7618 12.0866 73.221 15.7346 79.028 24.2464C79.3696 24.7571 79.028 23.9059 79.028 23.7357L78.9792 23.8087Z" fill="#909090"/>
<path d="M116.212 62.7444C112.991 52.3599 104.5 37.0387 110.088 26.5326C111.269 24.3979 112.897 22.541 114.861 21.0877C116.825 19.6345 119.08 18.6187 121.472 18.1091C123.864 17.5995 126.338 17.608 128.726 18.134C131.115 18.66 133.362 19.6913 135.316 21.158C135.536 21.3283 135.316 20.623 135.194 20.55C128.631 9.63057 110.014 12.9137 105.915 24.4898C103.231 31.9073 104.793 46.1342 112.064 50.9251C112.064 50.9251 111.917 50.1955 111.673 50.0496C104.354 45.1857 103.646 28.7457 108.184 22.2038C109.887 20.0254 112.047 18.2438 114.512 16.9837C116.978 15.7235 119.689 15.0151 122.458 14.9079C123.043 14.9079 134.657 15.5402 133.486 19.0909C133.633 18.6774 129.826 17.3642 129.729 17.3398C126.312 16.4212 122.697 16.5569 119.359 17.729C99.0835 24.5871 111.625 49.3443 116.163 62.6958C116.163 62.6958 116.382 63.0119 116.309 62.8173L116.212 62.7444Z" fill="#909090"/>
<path d="M102.647 36.0172C100.329 27.7242 99.5479 19.1637 107.063 13.2784C109.346 11.5032 112.024 10.302 114.87 9.77639C116.359 9.46023 126.07 9.1198 126.045 10.506C121.066 10.8975 116.124 11.6617 111.259 12.7921C106.38 15.224 104.306 20.0879 103.013 25.122C102.891 25.5841 100.939 33.8284 101.963 33.9744C101.329 33.9744 98.084 24.8302 97.6936 23.8818C95.4575 18.7976 94.5027 13.2455 94.9121 7.70928C95.1805 5.27733 96.376 -0.291876 96.5468 5.47185C96.5468 8.73067 96.3516 11.9895 96.5468 15.1997C97.2544 22.4955 101.719 28.77 102.476 36.1145C102.476 36.309 102.988 37.0143 102.964 36.844C102.409 33.1274 101.35 29.5032 99.8163 26.0705C96.498 17.3641 96.8884 9.72777 97.0104 0.753858C97.0104 0.607941 96.5956 -0.145983 96.5224 -0.0243849C90.4958 12.3543 97.718 24.587 102.744 35.8956C102.891 36.2118 103.33 36.6738 103.061 36.0415C100.621 30.3751 104.428 19.407 108.82 15.5402C114.187 10.6763 121.995 11.5031 128.583 12.1597C128.778 12.1597 128.363 11.3815 128.266 11.3085C122.166 6.22575 111.186 8.09838 105.696 13.0839C98.7671 19.3097 99.9383 27.6756 102.281 35.6524C102.281 35.6524 102.622 36.2118 102.549 35.9686L102.647 36.0172Z" fill="#909090"/>
<path d="M105.989 47.4234C98.6692 39.8114 88.6412 33.3424 77.5153 35.2636C72.7546 35.8544 68.4197 38.2922 65.4507 42.0483C62.4818 45.8043 61.1182 50.5756 61.6559 55.3272C61.6559 55.4731 62.0707 56.1298 62.0951 56.0325C67.8533 32.5398 104.354 37.9631 110.6 58.6833C110.6 58.8536 111.186 59.6804 111.064 59.267C106.648 44.6753 86.0305 34.2422 72.0255 41.757C67.7069 44.043 66.0721 47.3991 63.1931 50.8524C62.5343 53.5519 62.1927 53.7464 62.1195 51.509C62.2947 49.9984 62.6721 48.5179 63.2418 47.1072C64.488 44.1944 66.5033 41.673 69.0732 39.8113C81.4923 30.7402 96.4733 38.3765 106.135 47.5207L105.989 47.4234Z" fill="#909090"/>
<path d="M116.529 69.7486C100.231 58.3914 72.6109 51.2171 56.0684 65.1279C55.922 65.2495 56.3612 66.1736 56.5564 66.125C77.7809 62.2223 99.6986 65.0371 119.237 74.1748C119.384 74.1748 119.237 73.6397 119.237 73.6397C118.534 71.9345 117.47 70.4002 116.119 69.1413C114.767 67.8823 113.16 66.9282 111.405 66.3439C111.405 66.3439 111.552 67.2194 111.82 67.3166C112.644 67.2989 113.446 67.5763 114.082 68.0984C114.718 68.6206 115.145 69.3529 115.285 70.1621C117.041 72.594 116.48 72.7643 113.577 70.8673C111.23 70.2412 108.937 69.428 106.721 68.4354C92.7607 63.8833 77.969 62.4388 63.3881 64.2037C55.678 65.1279 61.4362 62.4284 65.828 60.7747C72.2245 58.5442 79.0892 57.9915 85.762 59.1696C96.7087 60.9114 107.234 64.6722 116.797 70.2593C116.797 70.2593 116.797 70.0161 116.675 69.9675L116.529 69.7486Z" fill="#909090"/>
<path d="M120.14 66.8788C120.472 68.3214 121.159 69.659 122.139 70.7713C123.118 71.8835 124.36 72.7355 125.752 73.2505C125.752 73.2505 125.752 73.1289 125.752 73.1046C125.167 71.0374 124.41 69.6269 123.727 67.6327C120.58 58.4156 119.726 53.4544 125.703 45.5749C131.681 37.6953 140.343 31.1291 150.908 30.6427C151.029 30.6427 150.639 29.7915 150.493 29.7186C138.293 24.0278 120.092 38.4736 116.822 50.1713C115.864 54.0627 116.085 58.1499 117.457 61.916C118.83 65.6821 121.292 68.9579 124.532 71.3293C124.703 71.4752 124.532 70.5997 124.239 70.4781C120.473 67.5087 117.982 63.2203 117.275 58.4856C116.568 53.7508 117.697 48.9255 120.433 44.9912C123.192 41.208 126.574 37.9187 130.437 35.2634C134.438 32.3937 139.44 29.3781 144.515 29.1349L148.882 29.6213C147.98 29.6213 147.101 29.8645 146.198 30.0347C143.447 30.7926 140.769 31.7936 138.196 33.026C130.876 37.136 122.702 45.0642 120.482 53.5031C119.878 55.5565 119.77 57.723 120.165 59.8262C120.75 62.8661 120.702 61.6014 121.068 62.6715C121.434 63.7416 121.873 64.3496 122.263 65.1035C124.557 67.9732 123.898 68.5325 120.214 66.7815C120.214 66.587 120.214 66.7815 120.214 66.7815L120.14 66.8788Z" fill="#909090"/>
<path d="M144.345 94.3356C133.853 79.4521 136.049 61.0178 146.321 46.9855C147.273 45.6965 155.69 35.9201 156.349 36.8199C157.593 38.4737 150.859 51.29 149.908 53.6247C146.053 63.2066 140.148 73.9315 141.271 84.5835C141.515 86.8452 145.052 95.1868 143.491 95.2111C143.491 95.2111 143.686 96.1838 143.979 96.1838C144.154 96.2604 144.343 96.2981 144.534 96.2944C144.725 96.2906 144.913 96.2455 145.085 96.1623C145.256 96.079 145.408 95.9595 145.529 95.812C145.65 95.6646 145.737 95.4928 145.784 95.3084C145.784 95.1381 145.614 94.6517 145.516 94.5301C137.781 83.7566 143.54 71.7185 147.785 61.1395L158.399 34.7041C158.399 34.5581 158.033 33.6827 157.911 33.78C139.66 48.3717 129.095 74.0775 144.394 94.5788C144.394 94.7247 144.394 94.3599 144.394 94.3356H144.345Z" fill="#909090"/>
<path d="M139.61 90.9065C134.73 84.8266 126.581 79.1115 118.432 81.1786C112.454 82.7108 106.232 87.064 109.551 93.6546C109.551 93.6546 109.892 94.2382 109.965 94.068C115.723 81.7866 130.656 82.346 139.854 90.3228C140 90.4687 139.708 89.6175 139.537 89.4473C131.583 82.5405 118.749 80.3517 111.429 89.6418C111.234 89.9093 109.843 91.636 110.087 91.6604C107.647 91.3928 110.917 86.31 111.332 85.9209C113.788 83.8199 116.775 82.4319 119.969 81.9082C127.508 80.449 134.852 85.8967 139.659 91.0767C139.659 91.0767 139.659 90.9064 139.659 90.8821L139.61 90.9065Z" fill="#909090"/>
<path d="M143.051 96.062C139.197 91.8849 134.036 89.1331 128.411 88.2554C126.264 88.0365 117.09 88.4986 117.456 92.0979C117.456 92.2681 117.7 92.9733 117.944 92.9977C121.653 93.4111 125.678 92.0979 129.509 92.3411C134.541 92.6988 139.483 93.8564 144.148 95.7701C144.148 95.7701 144.002 94.9433 143.758 94.846C139.771 93.1092 135.542 91.9858 131.217 91.5142C129.288 91.3122 127.349 91.2309 125.41 91.271C123.8 91.271 120.53 92.3654 119.042 91.8304C118.042 91.4656 119.286 91.2467 120.164 90.7846C121.186 90.2805 122.257 89.8812 123.361 89.5929C125.837 89.058 128.399 89.058 130.875 89.5929C135.43 90.8065 139.618 93.1107 143.075 96.3052C143.075 96.3052 143.075 96.1592 143.075 96.1106L143.051 96.062Z" fill="#909090"/>
<path d="M130.267 81.2756C127.681 76.1928 121.678 68.5078 123.899 62.7684C124.729 60.2178 126.093 57.872 127.9 55.886C128.646 55.2217 129.465 54.6425 130.34 54.1592C130.218 54.1592 129.486 55.132 129.389 55.3266C127.304 58.9013 126.359 63.0235 126.68 67.1459C126.979 68.9386 127.453 70.698 128.095 72.3989C128.51 73.7121 128.974 75.0011 129.437 76.29C129.901 77.579 130.096 78.2356 130.438 79.2327C131.17 80.8134 130.706 80.6432 129.047 78.6734C129.047 78.4545 128.339 77.579 128.583 78.2356C129.105 80.0799 130.241 81.6923 131.804 82.8076C131.999 82.9536 131.804 82.6375 131.804 82.5645C128.339 72.6178 123.923 62.8413 131.804 53.8188C131.804 53.6729 131.511 52.846 131.34 52.8946C126.461 54.4754 121.8 61.7713 122.972 67.0243C124.07 71.8882 127.851 77.0196 130.291 81.3728C130.438 81.616 130.462 81.3728 130.291 81.3728L130.267 81.2756Z" fill="#909090"/>
<path d="M146.858 98.1782C140.831 88.9124 141.978 82.8568 148.37 75.3664C151.933 71.2564 155.69 67.7058 161.326 67.0735C161.473 67.0735 160.985 66.1251 160.863 66.0764C150.908 61.2125 142.149 74.7585 140.392 83.1001C139.148 89.0097 143.905 96.3055 149.054 98.9321C149.054 98.9321 148.932 98.2268 148.688 98.1052C144.662 96.038 144.149 93.4359 142.661 89.1556C141.051 84.4863 140.392 84.4377 141.88 80.887C143.162 77.7907 144.8 74.8528 146.76 72.132C150.176 67.5112 155.544 64.2524 161.253 67.0735C161.107 66.7573 160.96 66.4169 160.789 66.0764C153.079 66.9762 143.71 75.9501 142.295 83.7323C141.246 89.0097 143.93 94.1168 146.858 98.3241C146.858 98.3241 146.858 98.3241 146.858 98.2025V98.1782Z" fill="#909090"/>
<path d="M181.603 136.992C153.568 108.855 178.943 83.2462 203.977 67.5844C204.147 67.5844 203.611 66.4656 203.464 66.5386C188.142 73.5426 172.599 89.4233 166.866 105.45C165.329 109.73 163.255 115.591 165.548 120.042C167.842 124.492 173.38 124.443 174.991 129.064C174.991 129.259 175.576 129.988 175.381 129.429C175.068 127.819 174.206 126.367 172.941 125.319C171.867 124.249 169.891 123.908 168.964 122.887C166.519 119.716 165.408 115.722 165.865 111.749C166.663 107.652 168.157 103.72 170.282 100.124C175.029 91.9363 181.134 84.6097 188.337 78.4552C189.703 77.2392 200.073 68.1923 200.853 69.1651C200 68.1194 193.875 72.9833 191.972 74.3695C179.773 83.3434 168.5 95.8679 168.476 111.919C168.476 122.741 174.161 130.159 181.773 137.284C181.773 137.284 181.773 137.284 181.773 137.163L181.603 136.992Z" fill="#909090"/>
<path d="M178.528 143.194C174.893 135.898 182.725 127.532 187.166 122.327C190.728 118.169 194.046 113.597 197.682 109.535C198.682 108.392 198.999 106.69 199.316 109.414C199.201 110.909 198.76 112.362 198.023 113.67C196.299 116.929 194.229 119.994 191.85 122.814L185.14 131.958C183.872 133.66 180.261 141.199 178.162 135.411C178.162 135.217 177.577 134.487 177.796 135.046C180.236 141.856 183.018 136.214 186.287 131.739C191.972 123.981 200.487 115.98 199.707 105.717C199.707 105.596 199.365 104.963 199.316 105.085C194.9 114.423 186.629 120.965 181.017 129.526C178.089 134.025 175.844 138.354 178.455 143.339C178.455 143.534 178.626 143.485 178.455 143.339L178.528 143.194Z" fill="#909090"/>
<path d="M180.7 142.269C174.942 137.405 169.574 131.763 161.62 131.228C158.683 131.077 155.739 131.306 152.861 131.909C149.03 132.639 152.421 131.909 153.349 131.763C160.08 130.455 167.021 130.688 173.649 132.444C178.65 134.049 184.848 138.67 186.409 143.801C187.312 146.744 186.775 144.701 184.409 142.926C180.624 140.576 176.967 138.027 173.453 135.29C173.331 135.29 173.453 135.873 173.697 135.995C178.138 140.348 184.165 142.513 188.337 147.158C188.654 147.522 188.337 146.695 188.337 146.623C185.019 140.761 181.456 134.803 174.942 132.031C167.842 129.112 155.911 128.261 149.42 132.493C149.25 132.493 149.738 133.563 149.933 133.514C155.252 132.468 160.888 131.301 166.231 132.736C171.575 134.171 176.308 138.816 180.749 142.269H180.7Z" fill="#909090"/>
<path d="M179.65 137.211C172.525 129.915 164.108 122.911 154.25 119.749C143.393 116.247 130.876 121.744 120.677 116.904C114.944 114.18 125.557 117.269 127.289 117.415C133.487 117.877 139.611 116.272 145.808 116.345C156.69 116.466 162.595 118.46 170.207 126.705C173.16 129.891 175.892 133.076 179.137 136.068C179.308 136.214 178.991 135.241 178.796 135.071C168.841 125.951 166.84 118.047 152.811 116.053C139.953 114.18 127.631 118.825 115.334 113.183C115.334 113.183 115.578 113.961 115.676 114.059C124.386 122.497 135.585 118.558 146.394 119.287C159.935 120.187 169.963 128.699 179.723 137.308L179.65 137.211Z" fill="#909090"/>
<path d="M163.937 122.084L164.327 121.914C164.327 121.914 164.327 121.597 164.327 121.573C163.278 119.603 159.886 118.874 158.3 117.56C152.152 112.526 147.54 102.969 154.689 97.9102C155.568 97.2779 162.497 94.165 163.058 96.2078C160.413 96.9066 157.858 97.9105 155.446 99.1991C153.644 100.407 152.337 102.219 151.761 104.306C151.337 106.481 151.601 108.733 152.518 110.751C153.444 112.932 154.893 114.853 156.739 116.344C157.544 117.025 163.131 120.625 162.985 119.36C162.985 119.117 155.129 114.715 154.397 114.083C145.54 106.471 138.391 100.318 126.411 98.1777C126.216 98.1777 126.655 99.0045 126.728 99.0775C128.68 101.315 130.608 101.509 133.291 103.017C137.334 105.639 141.175 108.558 144.783 111.748C150.883 116.344 158.105 117.876 165.327 119.968C165.327 119.968 165.157 119.068 164.913 118.971C163.094 118.251 161.339 117.381 159.667 116.369C159.667 116.369 159.813 117.025 160.008 117.171C165.059 120.454 162.619 118.314 158.447 117.171C154.851 116.323 151.37 115.049 148.077 113.377C144.378 110.889 140.849 108.159 137.512 105.206C135.487 103.674 130.583 101.996 129.436 100.172C128.656 98.9316 132.633 100.561 133.267 100.756C135.013 101.319 136.724 101.985 138.391 102.75C142.365 104.623 146.034 107.083 149.273 110.046C154.323 114.545 158.471 119.506 165.401 120.916C165.401 120.916 165.23 120.017 164.986 119.919C163.018 119.352 161.132 118.534 159.374 117.487C158.157 116.929 157.126 116.034 156.403 114.909C155.681 113.784 155.298 112.476 155.299 111.14C151.639 108.011 151.298 104.882 154.275 101.753C156.836 98.9073 161.009 98.0317 164.571 97.1806C164.742 97.1806 164.229 96.2564 164.107 96.2078C156.617 92.0248 148.882 99.6368 151.005 107.225C151.677 109.527 152.724 111.705 154.104 113.669C155.08 115.104 161.741 122.838 163.741 121.646C163.741 121.646 163.937 122.278 164.034 122.23L163.937 122.084Z" fill="#909090"/>
<path d="M188.97 149.881C189.311 142.391 187.384 135.289 186.823 127.75C186.292 117.415 186.791 107.053 188.311 96.8159C189.702 85.5803 190.336 75.0986 184.139 65.2005C184.139 65.0303 183.797 64.8357 183.895 65.2005C188.116 81.981 179.235 97.8373 179.283 114.569C179.452 126.234 182.901 137.617 189.238 147.425C189.238 147.595 189.555 147.79 189.482 147.425C186.555 134.554 184.969 121.417 184.749 108.222C184.627 102.093 184.578 96.062 184.48 89.8362C184.164 86.3901 184.164 82.9222 184.48 79.4761C184.993 77.0441 185.212 74.1258 186.603 78.3574C188.311 83.5375 185.969 91.5872 185.042 96.8159C183.83 102.67 183.128 108.618 182.943 114.594C183.019 122.841 184.624 131.004 187.677 138.67C187.677 138.84 188.213 139.497 188.018 138.986C182.065 122.959 183.968 109.122 186.457 92.7789C188.005 84.929 187.337 76.805 184.529 69.3105C184.529 69.3105 184.066 68.581 184.041 68.7269C182.971 87.7654 183.403 106.858 185.334 125.829C185.749 129.672 186.31 133.49 186.993 137.284C187.702 139.359 188.137 141.517 188.287 143.704C187.677 147.668 181.772 129.793 182.065 130.79C178.917 120.187 179.918 109.219 182.211 98.6156C184.147 91.4557 185.381 84.1254 185.896 76.728C185.896 75.8038 184.871 68.8728 185.212 68.6053C185.212 68.6053 188.701 78.8195 188.897 80.765C189.038 84.0723 188.875 87.3856 188.409 90.6631C187.579 99.4668 186.164 108.124 185.969 117.001C185.969 127.969 189.116 138.621 188.823 149.492C188.852 149.598 188.901 149.698 188.97 149.784V149.881Z" fill="#909090"/>
<path d="M61.291 63.2063C71.8315 60.4467 82.9084 60.4467 93.4489 63.2063C105.234 65.9788 119.629 69.0917 126.949 79.6464C127.095 79.8652 126.949 79.5248 126.949 79.4518C121.093 69.9915 110.601 67.0489 100.329 64.1548C87.5443 60.5799 74.0029 57.7831 61.291 63.0604V63.2063Z" fill="#909090"/>
<path d="M126.191 72.5452C120.408 63.2065 117.041 54.0623 123.556 44.748C127.206 40.087 131.762 36.2077 136.951 33.3421C137.073 33.3421 136.707 32.5639 136.585 32.6125C127.801 36.2605 118.847 45.3074 119.091 55.4243C119.237 61.9419 122.946 67.8272 126.264 73.1775C126.655 73.8098 126.264 72.7397 126.264 72.5452H126.191Z" fill="#909090"/>
<path d="M78.6135 21.7415C78.6135 18.3368 82.0537 17.1937 84.9328 17.8261C88.1013 18.6475 90.8601 20.5932 92.6917 23.2979C92.6917 23.4195 92.6917 23.1277 92.6917 23.0791C91.8844 21.6152 90.7832 20.3328 89.4567 19.3118C88.1301 18.2909 86.6068 17.5533 84.9816 17.1451C84.2573 16.8456 83.4682 16.7353 82.6892 16.8244C81.9101 16.9135 81.1667 17.1992 80.5292 17.6545C79.8917 18.1097 79.3812 18.7195 79.046 19.4261C78.7108 20.1327 78.5619 20.913 78.6135 21.6929V21.7415Z" fill="#909090"/>
<path d="M81.5409 17.0721C84.0735 16.5741 86.6993 16.8898 89.0405 17.9736C91.3818 19.0573 93.3178 20.8534 94.57 23.1034C94.7652 23.4195 94.7896 23.1034 94.57 22.9575C93.4174 20.5853 91.4712 18.6878 89.0665 17.5914C86.6617 16.4951 83.9488 16.2684 81.3945 16.9506L81.5409 17.0721Z" fill="#909090"/>
<path d="M85.177 17.0724C87.4541 17.5315 89.555 18.6218 91.2383 20.2179C92.9216 21.8139 94.1188 23.851 94.6925 26.095C94.6925 26.095 95.1805 26.9461 95.0829 26.5813C94.6177 24.1371 93.4115 21.8938 91.6271 20.1543C89.8426 18.4148 87.5658 17.2627 85.1038 16.8535C85.1038 16.8535 85.1038 17.0238 85.1038 17.0238L85.177 17.0724Z" fill="#909090"/>
<path d="M87.9584 21.3038C92.0403 24.2656 95.3804 28.1274 97.718 32.5881C97.718 32.734 97.8644 32.7097 97.718 32.5881C95.6611 27.9185 92.2657 23.9589 87.9584 21.2065C87.9514 21.2549 87.9514 21.3041 87.9584 21.3525V21.3038Z" fill="#909090"/>
<path d="M92.1797 20.477C98.011 33.7069 104.208 47.0339 112.992 58.5857C112.992 58.7316 112.992 58.3669 112.992 58.3182C105.101 46.2744 98.1751 33.6296 92.2773 20.5013C92.2773 20.3797 92.2773 20.5013 92.2773 20.5013L92.1797 20.477Z" fill="#909090"/>
<path d="M65.707 45.1126C76.589 32.5881 100.768 32.9529 109.625 48.3228C109.991 48.9552 109.894 48.3229 109.625 47.9824C100.89 32.5638 76.1498 30.9587 65.707 44.9911V45.1126Z" fill="#909090"/>
<path d="M83.5178 37.5008C92.643 37.2819 98.45 42.7294 105.282 47.8609C105.282 47.8609 105.282 47.4717 105.111 47.3988C99.4747 41.7566 91.8378 36.3091 83.469 37.3791V37.5008H83.5178Z" fill="#909090"/>
<path d="M79.247 38.1572C84.1268 38.6922 89.2262 38.5949 93.74 40.3216C98.2538 42.0482 101.743 46.4987 106.501 48.0065C106.501 48.0065 106.379 47.3743 106.208 47.3013C101.328 45.3801 97.9122 41.0755 92.8129 39.4217C88.3486 38.3554 83.7626 37.8812 79.1738 38.0112V38.1572H79.247Z" fill="#909090"/>
<path d="M106.672 49.1986C105.159 42.8025 103.549 34.4122 105.306 27.9432C105.306 27.9432 105.159 27.6514 105.135 27.6758C103.744 30.74 104.379 34.315 104.647 37.5738C104.922 41.4605 105.567 45.3121 106.574 49.0769C106.574 49.0769 106.574 49.2958 106.574 49.1986H106.672Z" fill="#909090"/>
<path d="M106.916 44.1159C104.232 38.7413 106.379 32.1264 106.72 26.4599C106.72 26.314 106.452 25.9492 106.428 25.9492C105.476 31.6643 103.988 38.7413 106.891 44.1159H106.916Z" fill="#909090"/>
<path d="M107.33 42.2916C106.66 37.3663 106.562 32.3802 107.037 27.4324C107.011 27.2623 106.924 27.1073 106.793 26.9946C105.82 31.9705 105.936 37.0973 107.135 42.0241C107.135 42.0241 107.33 42.3646 107.33 42.2916Z" fill="#909090"/>
<path d="M78.2969 9.82517C80.444 11.8923 83.323 11.4789 85.9337 12.5489C88.5444 13.619 90.0815 16.9265 92.985 18.0452C92.985 18.0452 92.985 17.656 92.985 17.6317C90.1547 11.9653 82.7375 13.619 78.5896 9.55762C78.5896 9.55762 78.5896 10.0927 78.8336 10.2143C80.6605 11.7881 82.8909 12.8238 85.275 13.2055C86.62 13.4971 87.935 13.9124 89.2032 14.4459C90.1186 14.7736 90.9513 15.2965 91.6431 15.978C93.2534 18.1668 90.8135 16.1482 90.4231 15.8078C88.7396 14.2756 87.6173 12.476 85.3725 11.6977C83.1278 10.9195 80.4928 11.0897 78.248 9.55762C78.2772 9.65155 78.3182 9.74148 78.37 9.82517H78.2969Z" fill="#909090"/>
<path d="M7.14948 75.4392C-0.463008 72.6667 7.14945 66.8057 9.90654 66.1734C18.0802 64.2035 26.3515 70.2105 32.9636 74.3934C36.4864 76.7913 40.1805 78.929 44.0164 80.7895C52.2144 84.4861 61.2177 85.3859 70.0501 86.5532C84.2259 88.4258 97.4746 92.9492 111.333 96.281C113.944 96.9133 116.555 97.497 119.214 97.9591C122.85 98.6157 131.804 101.85 133.365 101.729C131.112 101.648 128.865 101.453 126.631 101.145C113.383 100.586 99.7925 95.7703 86.739 93.2654C80.2326 92.0008 73.7262 90.8496 67.2198 89.812C63.5355 89.2283 59.6805 88.9609 56.0451 88.1097C35.8183 83.416 48.0178 84.7536 40.6249 80.5706C32.9424 76.4085 24.8369 73.0741 16.4455 70.6239C12.3465 69.3836 0.537344 69.0918 6.68589 75.9256C6.83229 76.0715 7.63744 76.3633 7.51545 76.2174C0.878921 68.9215 13.7616 70.2834 16.7627 71.1103C19.7638 71.9371 22.4233 73.1288 25.2291 74.1502C32.016 76.5191 38.4505 79.7913 44.3579 83.878C50.4333 88.1583 56.3866 88.5961 63.7063 89.7148C76.7191 91.7414 89.6506 94.1734 102.501 97.0106C108.308 98.2753 114.066 99.8803 119.897 100.999C124.533 101.875 130.73 100.829 134.829 102.945C134.951 102.945 135.659 103.236 135.293 102.945C132.881 101.042 130.071 99.7043 127.071 99.0291C119.019 97.0836 110.845 96.0865 102.818 93.8491C94.7907 91.6117 87.4466 89.277 79.5657 87.7206C70.5869 85.9696 61.12 85.9695 52.312 83.4889C41.8204 80.5219 34.0128 74.1016 24.5947 69.2863C20.67 67.0362 16.2599 65.76 11.7365 65.5654C5.17313 65.5654 -0.292208 73.2261 7.27148 75.8283C7.73506 75.9985 7.27148 75.5851 7.00309 75.5365L7.14948 75.4392Z" fill="#909090"/>
<path d="M48.5053 82.3215C41.6492 77.4576 29.2301 71.7911 27.8149 62.6713C27.5533 60.7975 27.6978 58.8895 28.2388 57.0762C28.7799 55.2628 29.7048 53.5862 30.9512 52.1594C32.1976 50.7326 33.7366 49.5889 35.4642 48.8054C37.1918 48.0219 39.0679 47.6168 40.966 47.6175C41.1856 47.6175 40.6488 47.3257 40.6 47.3014C31.426 43.5562 21.398 54.2324 24.1795 63.3765C25.985 69.2376 33.5975 77.3603 40.356 76.9712C40.356 76.9712 39.9168 76.582 39.6972 76.582C32.8167 76.9711 24.765 67.0731 24.5211 60.896C24.5588 58.7494 25.0651 56.6367 26.0047 54.7048C26.9443 52.7729 28.2947 51.0681 29.962 49.709C30.3036 49.3928 37.8917 44.383 38.7701 47.277C38.7701 46.9609 35.6714 47.9336 35.6226 47.9336C33.0724 48.9576 30.8883 50.7195 29.352 52.9921C19.9584 66.6597 39.3313 76.2659 48.3589 82.4188C48.3589 82.4188 48.6517 82.4188 48.5053 82.4188V82.3215Z" fill="#909090"/>
<path d="M27.57 72.059C22.251 67.9734 17.8104 63.0122 19.6891 55.8866C20.2745 53.7228 21.3704 51.73 22.8854 50.0742C23.6662 49.1987 29.5463 44.4564 30.2051 45.3319C27.295 47.8924 24.5793 50.6643 22.0802 53.6248C21.3366 55.4678 21.008 57.4511 21.1176 59.4345C21.2273 61.418 21.7724 63.3532 22.7146 65.1036C22.861 65.4684 25.4961 71.4997 26.2037 71.0863C23.6554 69.8521 21.2081 68.4209 18.884 66.806C15.1152 64.6872 11.9237 61.6815 9.58795 58.051C8.66079 56.4459 6.78207 52.3845 9.58795 55.9108C11.1495 57.8807 12.4914 60.0695 14.1994 61.9421C18.0788 66.1737 23.7394 67.9733 27.6432 72.1806C27.7652 72.3022 28.3752 72.4967 28.2776 72.3995C26.2078 70.3405 23.8589 68.5805 21.2995 67.1708C15.1753 63.304 11.857 58.3671 7.7336 52.7493C7.7336 52.7493 7.05046 52.3845 7.07486 52.4818C9.09997 62.9635 19.2743 67.2194 27.7164 71.9374C27.9604 72.0833 28.4484 72.1563 27.9848 71.9374C23.7881 69.5054 21.0555 60.9693 21.9826 56.5188C23.105 51.0712 28.2776 47.8854 32.6938 45.2589C32.6938 45.2589 32.1814 44.8698 32.0838 44.8698C25.9353 44.5293 20.0307 50.7551 18.9083 56.4459C17.4932 63.5228 22.1046 68.1436 27.326 72.0347C27.326 72.0347 27.7896 72.2536 27.6432 72.0347L27.57 72.059Z" fill="#909090"/>
<path d="M35.0132 77.6522C26.8639 76.3632 17.6655 76.9469 11.6389 83.3187C8.9655 85.9047 7.4187 89.4342 7.33198 93.1464C7.24526 96.8587 8.62557 100.456 11.1753 103.163C11.1753 103.163 11.7853 103.455 11.7609 103.382C4.44122 86.1154 29.5722 72.5451 43.138 82.5161C43.138 82.5161 43.9676 82.8809 43.6992 82.662C34.1592 75.658 16.4699 78.7465 11.1998 89.9578C9.58942 93.3869 10.1262 96.2323 9.95538 99.6857C10.8093 101.656 10.6874 101.947 9.58941 100.585C8.98962 99.5651 8.53007 98.469 8.22308 97.3267C7.62765 94.9202 7.70357 92.3973 8.44266 90.0308C11.9073 78.6249 24.8144 76.4362 35.062 77.6279L35.0132 77.6522Z" fill="#909090"/>
<path d="M51.9208 86.5536C36.5006 87.0643 16.0055 95.406 12.1992 111.749C12.1992 111.895 12.8824 112.259 12.98 112.138C24.3306 99.8626 39.2391 91.421 55.6294 87.9884C55.7514 87.9884 55.3366 87.6966 55.3122 87.6966C54.079 86.9532 52.6986 86.4856 51.2663 86.3261C49.834 86.1665 48.384 86.3188 47.0166 86.7725C47.0166 86.7725 47.5046 87.2589 47.7241 87.1859C48.2275 86.7913 48.8559 86.5892 49.4958 86.6159C50.1356 86.6427 50.7448 86.8966 51.2132 87.3318C53.4335 87.9885 53.1896 88.4019 50.5057 88.5722C48.7406 89.265 46.9206 89.8099 45.0647 90.2015C41.1263 91.5162 37.2997 93.1427 33.6215 95.0654C27.2495 98.4317 21.3714 102.654 16.1519 107.614C11.8089 111.773 14.1268 107.42 16.1519 104.38C19.0737 100.018 23.0847 96.4891 27.7902 94.1413C35.3834 90.1455 43.658 87.597 52.1892 86.6266C52.1892 86.6266 52.0184 86.4806 51.9452 86.4806L51.9208 86.5536Z" fill="#909090"/>
<path d="M52.7756 83.0996C53.6528 83.8394 54.7002 84.3509 55.8243 84.5886C56.9483 84.8262 58.1139 84.7826 59.2169 84.4614C57.875 83.44 56.777 82.9293 55.3863 82.0295C49.1401 77.7493 46.2855 75.0741 46.3099 67.4378C46.3343 59.8014 48.7498 51.6543 54.9959 46.4743C54.9959 46.4743 54.4347 46.0852 54.3127 46.1095C44.0407 48.2496 39.5025 65.5651 42.9428 74.4417C44.1652 77.2964 46.2073 79.727 48.8122 81.4276C51.417 83.1282 54.4683 84.023 57.5822 83.9994C57.7286 83.9994 57.143 83.6103 56.9722 83.6103C53.2445 83.5198 49.6919 82.0149 47.0394 79.4026C44.3869 76.7904 42.8344 73.2678 42.6988 69.5536C42.6677 65.9328 43.245 62.3324 44.4067 58.9016C45.3576 54.9155 47.4118 51.2754 50.3357 48.3955L53.2635 46.6689C52.7512 47.1553 52.2632 47.6416 51.7996 48.1767C50.4304 49.916 49.2295 51.7808 48.213 53.7459C45.5291 59.7285 44.2115 68.3375 46.7734 74.6849C47.3453 76.2432 48.292 77.6377 49.5305 78.7463C51.3116 80.3758 50.6773 79.6218 51.4336 80.1082L53.3367 81.1296C56.1182 81.8349 55.9474 82.4915 52.8488 83.1238L52.7756 83.0996Z" fill="#909090"/>
<path d="M80.7128 88.9369C67.2202 84.5593 59.9981 72.0834 59.8273 58.6104C59.8273 57.3701 60.4617 47.3991 61.3156 47.6423C62.8284 48.08 64.6339 59.1697 65.1463 61.0666C67.2202 68.8002 68.5133 78.2363 74.2227 84.3162C75.4426 85.6051 81.5424 89.18 80.5908 89.8853C80.5908 89.8853 81.152 90.396 81.3228 90.25C81.4693 90.2186 81.6071 90.1555 81.7264 90.0652C81.8458 89.9749 81.9438 89.8595 82.0136 89.7273C82.0834 89.5952 82.1232 89.4493 82.1303 89.3001C82.1374 89.151 82.1117 89.0021 82.0548 88.8639C82.0548 88.718 81.64 88.5477 81.518 88.5234C71.7584 85.4105 69.6357 75.2692 67.3422 66.6358C65.4147 59.5345 63.5115 52.4089 61.584 45.2833C61.584 45.2833 60.8764 44.8455 60.852 44.9428C56.387 62.5502 61.7792 83.3434 80.8592 89.0098C80.9812 89.0098 80.8592 88.8882 80.7128 88.8639V88.9369Z" fill="#909090"/>
<path d="M76.1493 89.0098C70.2936 87.502 62.5347 87.7208 58.4844 92.8036C55.459 96.5245 53.6047 102.191 58.7773 104.672C58.7773 104.672 59.2652 104.89 59.2164 104.672C57.0693 94.3601 66.5361 87.7938 76.0517 88.4747C76.1981 88.4747 75.6369 88.0856 75.4417 88.0856C67.2681 87.4776 58.3625 92.074 58.0697 101.243C58.0697 101.486 58.0697 103.212 58.0697 103.115C56.4837 104.039 56.1177 99.4185 56.1665 98.9565C56.7276 96.5205 57.9323 94.2786 59.6556 92.4631C63.6571 88.0613 70.7816 88.0369 76.1981 89.034H76.0517L76.1493 89.0098Z" fill="#909090"/>
<path d="M80.7119 90.6388C76.3681 89.8179 71.8733 90.5045 67.9756 92.5844C66.5361 93.4599 61.0463 97.9833 62.9494 100.051C62.9494 100.051 63.5106 100.464 63.6814 100.391C66.1213 98.9318 68.0732 96.2323 70.5619 94.6029C73.8498 92.4908 77.4586 90.9222 81.2487 89.9578C81.2487 89.9578 80.7851 89.5201 80.5655 89.5687C77.2783 90.3384 74.1275 91.6012 71.2207 93.3139C69.9209 94.0696 68.6811 94.9233 67.512 95.8675C66.5361 96.6214 64.9014 98.8345 63.8034 99.1506C62.7054 99.4668 63.6814 98.6643 64.023 97.9833C64.4041 97.1863 64.8881 96.4423 65.4625 95.7702C66.7303 94.2709 68.3128 93.0671 70.0983 92.2439C73.5054 90.8642 77.1999 90.3381 80.8583 90.7117H80.7119V90.6388Z" fill="#909090"/>
<path d="M65.8532 87.3557C61.8762 85.3858 54.5565 83.3916 53.2634 78.7952C52.5838 76.8277 52.3342 74.7382 52.5314 72.6667C52.6685 71.9228 52.8895 71.1967 53.1902 70.5022C53.1902 70.5022 53.1902 71.5237 53.1902 71.6939C53.5493 74.8805 54.8872 77.8787 57.0208 80.2787C58.049 81.2477 59.1593 82.1265 60.3391 82.9052L62.9986 84.7048L64.9993 86.0424C66.1948 86.6991 65.8289 86.8207 63.8769 86.3586C63.7061 86.3586 62.9254 85.9938 63.389 86.3586C64.5819 87.2556 66.0428 87.7266 67.5368 87.6961C67.7076 87.6961 67.5368 87.5259 67.5368 87.5016C60.7539 82.9295 53.4342 78.8925 54.0441 69.6754C54.0441 69.5538 53.4341 69.2133 53.3366 69.3349C52.1948 71.3195 51.7165 73.6148 51.9709 75.8885C52.2253 78.1621 53.1993 80.296 54.7517 81.981C57.704 84.413 62.5106 85.8965 66.024 87.5016C66.024 87.5016 66.2192 87.5016 66.024 87.5016L65.8532 87.3557Z" fill="#909090"/>
<path d="M84.0545 90.1523C75.9784 87.1853 73.8069 82.8565 74.2949 75.2688C74.1668 71.1471 75.6647 67.1395 78.4671 64.106C78.4671 64.106 77.8327 63.6927 77.7107 63.717C69.2199 65.2491 70.147 77.798 72.8309 83.7806C74.8316 88.0365 81.1998 90.3469 85.616 89.5929C85.616 89.5929 85.2012 89.2039 85.006 89.2525C81.5414 89.8362 80.0042 88.4499 77.0763 86.48C74.1485 84.5102 73.4653 84.6074 72.7333 81.6161C72.0923 79.1024 71.7403 76.5242 71.6842 73.9312C71.6842 69.4564 73.4653 64.9573 78.3451 64.0574L77.5887 63.644C73.2213 67.7784 71.6598 77.6764 74.3192 83.0997C76.1492 86.8692 80.1994 88.7904 84.0788 90.055L84.0545 90.1523Z" fill="#909090"/>
<path d="M123.777 98.1534C93.2048 93.6786 96.9378 66.003 105.258 44.6505C105.258 44.5045 104.526 44.1155 104.453 44.2371C97.9008 56.933 96.2595 71.5865 99.8413 85.41C100.866 88.7904 102.281 93.3868 105.795 95.1378C109.308 96.8888 112.724 94.238 115.896 96.3538C115.896 96.3538 116.677 96.6456 116.286 96.3538C115.323 95.4972 114.088 95.0064 112.797 94.9676C111.65 94.7973 110.357 95.5026 109.162 95.2351C106.164 94.4027 103.609 92.4403 102.037 89.7632C100.619 86.8411 99.7117 83.6994 99.3534 80.4732C98.4645 73.1683 98.8358 65.7656 100.451 58.5856C100.72 57.175 102.891 46.7663 103.892 46.9852C102.867 46.742 101.452 52.603 100.793 54.281C97.3526 65.541 96.2547 78.6006 103.745 88.4986C108.771 95.2352 115.798 97.205 123.85 98.1048L123.777 98.1534Z" fill="#909090"/>
<path d="M124.753 103.358C119.044 100.464 120.044 91.685 120.386 86.3347C120.654 82.0788 120.581 77.7013 120.947 73.494C120.947 72.3024 120.434 71.0621 121.898 72.6672C122.531 73.6442 122.94 74.7487 123.094 75.9016C123.516 78.7099 123.647 81.5542 123.484 84.3892C123.484 87.3076 123.484 90.2502 123.484 93.1685C123.484 94.8223 124.729 101.218 120.752 98.5675C120.63 98.5675 119.971 98.2513 120.361 98.5675C125.046 101.68 124.143 96.8408 124.094 92.5605C124.094 85.0944 125.558 76.1935 120.264 70.1623C120.264 70.1623 119.702 69.8461 119.727 69.9434C121.362 77.7986 119.263 85.7024 119.727 93.6306C120.02 97.7892 120.654 101.51 124.607 103.358C124.777 103.358 124.802 103.358 124.607 103.358H124.753Z" fill="#909090"/>
<path d="M125.655 101.802C119.799 101.461 113.822 100.44 108.576 103.796C106.668 105.053 104.937 106.558 103.428 108.271C101.427 110.508 103.208 108.489 103.696 107.954C104.898 106.59 106.221 105.337 107.649 104.209C110.347 102 113.377 100.227 116.627 98.9562C120.482 97.6429 126.387 97.6186 129.852 100.099C131.779 101.51 130.486 100.488 128.193 100.488C124.745 100.784 121.283 100.898 117.823 100.829C117.701 100.829 118.165 101.121 118.311 101.145C123.191 101.777 127.851 100.318 132.633 101.267C132.999 101.267 132.414 100.999 132.34 100.975C127.461 98.8589 122.581 96.816 117.262 98.1779C111.455 99.6371 103.647 104.647 101.598 110.338C101.598 110.484 102.305 110.848 102.403 110.751C104.986 107.35 108.327 104.594 112.162 102.701C116.31 101.048 121.263 101.777 125.631 101.875L125.655 101.802Z" fill="#909090"/>
<path d="M122.702 99.175C114.87 97.9834 106.354 97.497 98.742 100.124C90.3731 102.993 85.1761 112.283 76.5633 113.913C71.6835 114.885 79.6863 111.943 80.9063 111.165C84.9809 108.587 88.0308 104.744 91.9102 101.923C98.7419 96.9376 103.329 95.4542 111.893 97.0592C115.236 97.6915 118.408 98.3725 121.823 98.7373C121.994 98.7373 121.36 98.2995 121.14 98.2752C110.697 97.2295 105.793 93.2654 96.1069 98.5184C87.25 103.382 81.7847 111.918 71.4883 114.132C71.6762 114.296 71.8907 114.427 72.1226 114.521C81.4675 115.712 86.5669 108.052 93.6426 103.504C102.475 97.7888 112.674 98.4211 122.751 99.2236L122.702 99.175Z" fill="#909090"/>
<path d="M105.843 97.0835L105.99 96.8159L105.794 96.6456C104.208 95.8917 101.769 97.0104 100.158 96.9375C93.9853 96.6456 86.6412 92.8275 88.7395 86.4071C89.0079 85.6046 91.8382 80.4489 93.1313 81.5432C91.8336 83.21 90.721 85.012 89.8131 86.9178C89.2323 88.4875 89.2323 90.2121 89.8131 91.7817C90.5586 93.3418 91.7798 94.6272 93.3021 95.454C94.8962 96.3665 96.687 96.8836 98.5235 96.9618C99.3531 96.9618 104.477 96.6457 103.818 95.9404C103.696 95.7945 96.7668 96.6943 96.0104 96.6456C86.9584 96.0133 79.6387 95.5269 71.1967 99.7585C71.0747 99.7585 71.7334 100.148 71.831 100.172C73.8202 100.364 75.8278 100.157 77.7356 99.564C81.471 99.2723 85.2237 99.2723 88.9591 99.564C94.8881 99.564 100.085 97.132 105.55 95.1135C105.55 95.1135 105.038 94.6515 104.843 94.7001C103.372 95.0994 101.87 95.376 100.353 95.527C100.353 95.527 100.768 95.8675 100.939 95.8431C105.599 95.5513 103.111 95.3568 99.9387 96.5484C97.3055 97.6844 94.5449 98.5009 91.7162 98.9804C88.2601 99.1506 84.7966 99.1019 81.3466 98.8345C79.3703 98.8345 75.5397 100.026 74.0269 99.4425C72.9534 99.029 76.1984 98.2021 76.6864 98.0319C78.024 97.5548 79.3937 97.1728 80.7854 96.8889C84.1132 96.1971 87.5254 96.0004 90.911 96.3052C96.1568 96.743 101.061 97.9103 106.014 95.5756C106.014 95.5756 105.477 95.0892 105.306 95.1622C103.812 95.7143 102.255 96.0818 100.671 96.2565C99.6554 96.4706 98.6 96.3922 97.6278 96.0305C96.6557 95.6687 95.807 95.0385 95.1809 94.2137C91.4478 93.9462 89.7643 92.1709 90.1547 88.8391C90.7905 85.9364 92.2765 83.2871 94.4245 81.2271C94.4245 81.2271 93.7901 80.8136 93.6681 80.8379C87.0804 81.7134 85.836 90.0308 90.6914 93.776C92.1672 94.8871 93.8156 95.7496 95.5712 96.3295C96.8644 96.7672 104.599 98.4696 105.331 96.8159C105.331 96.8159 105.746 97.1077 105.794 97.0348L105.843 97.0835Z" fill="#909090"/>
<path d="M134.365 102.75C131.071 97.8863 126.533 94.3357 122.702 89.9825C117.541 83.8097 113.013 77.1371 109.185 70.0648C104.794 62.4528 100.304 55.6433 91.8621 52.4331C91.7157 52.4331 91.4717 52.4331 91.6913 52.4331C102.158 60.8963 104.062 74.88 111.894 85.2401C117.445 92.4089 124.9 97.8848 133.414 101.048C133.56 101.048 133.804 101.048 133.584 101.048C125.752 94.4051 118.63 86.9724 112.333 78.8684C109.405 75.1232 106.502 71.3294 103.574 67.5599C101.75 65.5935 100.116 63.4602 98.6938 61.1882C97.8887 59.4858 96.6443 57.5402 99.4746 59.5101C102.939 61.9421 105.257 68.0219 107.136 71.6699C109.102 75.8715 111.438 79.8917 114.114 83.6837C118.02 88.7732 122.834 93.1014 128.314 96.4515C128.436 96.4515 129.046 96.719 128.68 96.4515C117.505 89.1556 112.211 79.7683 106.111 68.4354C103.396 62.8135 99.1738 58.0496 93.9116 54.6705C93.9116 54.6705 93.2772 54.4517 93.3504 54.5246C101.564 66.8598 110.742 78.5289 120.799 89.4231C122.873 91.6119 124.996 93.7277 127.192 95.7705C128.217 96.6947 130.339 97.9593 130.998 99.1509C132.462 101.899 120.433 93.5331 121.116 94.0195C114.511 88.6979 109.366 81.7954 106.16 73.9559C104.034 68.631 101.395 63.5243 98.279 58.7076C96.7899 57.2014 95.3809 55.6184 94.058 53.9652C94.058 53.9652 100.987 58.6832 102.061 59.8505C103.686 61.8522 105.131 63.9925 106.379 66.2466C109.991 72.1076 113.138 78.1389 117.237 83.7081C122.288 90.5662 129.266 95.6732 134.17 102.58H134.39L134.365 102.75Z" fill="#909090"/>
<path d="M14.5662 108.222C19.8507 101.635 26.75 96.5168 34.5978 93.3626C43.1862 89.6174 53.6046 84.8994 63.0714 88.0366C63.0714 88.0366 63.2666 88.0366 63.0714 88.0366C55.0197 84.8508 47.1144 87.8906 39.3799 90.8576C29.7667 94.5785 20.0316 99.1263 14.5906 108.295L14.5662 108.222Z" fill="#909090"/>
<path d="M59.2408 83.9023C51.3111 80.8137 44.9429 76.6065 44.6014 67.8757C44.7022 63.2864 45.7226 58.7635 47.6025 54.573C47.6025 54.573 47.0901 54.2082 47.0413 54.2811C43.2838 60.6285 41.9175 70.4049 46.8217 76.5821C49.9448 80.5462 54.9953 82.4918 59.558 84.2914C60.0947 84.486 59.4116 83.9753 59.2164 83.9023H59.2408Z" fill="#909090"/>
<path d="M5.95246 74.3449C5.66511 73.8676 5.49114 73.331 5.4439 72.7763C5.39667 72.2217 5.47741 71.6637 5.67994 71.1449C5.88247 70.6261 6.20142 70.1605 6.61236 69.7835C7.0233 69.4066 7.51533 69.1283 8.05078 68.9702C10.3878 68.0361 12.9815 67.9585 15.3705 68.7513C15.3705 68.7513 15.5169 68.7513 15.3705 68.7513C14.1756 68.2402 12.8889 67.9766 11.5886 67.9766C10.2883 67.9766 9.00169 68.2402 7.80681 68.7513C7.21883 68.9053 6.67937 69.2047 6.23843 69.6219C5.79749 70.039 5.46934 70.5604 5.28441 71.1376C5.09948 71.7149 5.06375 72.3293 5.18054 72.924C5.29733 73.5186 5.56283 74.0743 5.95246 74.5394V74.3449Z" fill="#909090"/>
<path d="M5.61226 70.0646C6.96037 68.5922 8.73862 67.5793 10.6957 67.1691C12.6528 66.7589 14.6897 66.9721 16.5186 67.7786C16.787 67.9002 16.6894 67.7786 16.5186 67.6327C14.6901 66.7033 12.5939 66.4377 10.5903 66.8815C8.58662 67.3253 6.80059 68.4508 5.53906 70.0646H5.61226Z" fill="#909090"/>
<path d="M7.85638 68.3867C9.48645 67.6189 11.3003 67.3236 13.0907 67.5343C14.8812 67.745 16.5761 68.4533 17.982 69.5783C17.982 69.5783 18.6651 69.8945 18.4455 69.6999C17.0184 68.4016 15.2252 67.5722 13.3091 67.3242C11.3931 67.0763 9.4468 67.4217 7.73438 68.3137C7.73438 68.3137 7.73438 68.3137 7.85638 68.3137V68.3867Z" fill="#909090"/>
<path d="M11.5644 69.724C15.4589 69.6649 19.3152 70.4969 22.8367 72.1559C22.9587 72.1559 22.9831 72.1559 22.8367 72.1559C19.3525 70.2454 15.3812 69.3996 11.418 69.724H11.54H11.5644Z" fill="#909090"/>
<path d="M13.7363 67.2675C23.3845 73.1141 33.6859 77.8154 44.4303 81.2756C44.5767 81.2756 44.4303 81.1539 44.2839 81.1296C33.7498 77.3112 23.5354 72.6679 13.7363 67.2432C13.7363 67.2432 13.7363 67.2432 13.7363 67.2432V67.2675Z" fill="#909090"/>
<path d="M8.85742 94.8465C9.76018 82.0058 25.0096 71.0863 37.575 76.5096C38.0874 76.7285 37.7458 76.5096 37.575 76.2664C24.9364 70.7215 8.85742 81.2763 8.85742 94.7979V94.8465Z" fill="#909090"/>
<path d="M16.3711 81.8353C21.934 77.4821 28.0826 78.163 34.7191 78.1873C34.7191 78.1873 34.4751 77.9928 34.4019 77.9685C28.2778 77.093 20.9824 77.2632 16.2734 81.7867L16.3711 81.8353Z" fill="#909090"/>
<path d="M14.0058 84.2428C17.1142 82.0474 20.4822 80.2422 24.0338 78.8681C27.8156 77.7981 31.8902 78.9897 35.5501 77.7251C35.5501 77.7251 35.1841 77.3846 35.0377 77.409C31.1095 78.479 26.986 77.409 23.0334 78.7466C19.7566 80.139 16.6863 81.9718 13.9082 84.1941L14.0058 84.2428Z" fill="#909090"/>
<path d="M36.209 78.3822C32.2808 75.099 27.3766 70.6242 25.4247 65.8089C25.4247 65.8089 25.2051 65.6873 25.2051 65.8089C26.0929 68.2566 27.5769 70.4461 29.5237 72.1806C31.512 74.4785 33.7181 76.5798 36.1114 78.4551C36.1114 78.4551 36.2578 78.4551 36.1114 78.4551L36.209 78.3822Z" fill="#909090"/>
<path d="M33.9887 75.0986C29.8165 73.0072 28.0598 67.8028 25.6199 64.2278L25.2051 64.0332C27.279 68.0459 29.6945 73.1045 33.9643 75.123L33.9887 75.0986Z" fill="#909090"/>
<path d="M33.3772 73.7855C30.6692 71.0255 28.2869 67.9657 26.2771 64.6656L25.9355 64.4468C27.6349 67.9967 30.0913 71.134 33.1332 73.6396C33.1332 73.6396 33.426 73.7612 33.3772 73.6396V73.7855Z" fill="#909090"/>
<path d="M0.170811 67.0734C2.48872 67.3652 4.09904 65.7845 6.22175 65.2252C8.34446 64.6658 10.8332 66.0277 13.1511 65.3711L12.9315 65.1522C8.51526 62.9391 4.68464 67.4139 0.219619 66.8059C0.0976243 66.8059 0.536788 67.0978 0.658783 67.1221C2.52654 67.2306 4.38916 66.8357 6.05098 65.9791C7.02828 65.5402 8.04017 65.1823 9.07643 64.909C9.79837 64.7088 10.5526 64.6509 11.2967 64.7387C13.3463 65.3467 10.882 65.2494 10.4672 65.2008C8.81938 64.7607 7.09355 64.6943 5.41658 65.0063C3.71723 65.923 1.89234 66.5867 0 66.9762H0.170811V67.0734Z" fill="#909090"/>
</g>
<defs>
<clipPath id="clip0_4_38470">
<rect width="204" height="151" fill="white"/>
</clipPath>
</defs>
</svg>
