<svg width="151" height="99" viewBox="0 0 151 99" fill="none" xmlns="http://www.w3.org/2000/svg">
<path d="M0.0197199 60.7933C0.230162 58.2813 -0.0282341 55.6149 1.01332 53.1908C1.95365 51.0038 2.44113 48.5797 4.47629 46.9148C5.99665 45.632 7.73418 44.6316 9.60682 43.9606C12.0842 43.1082 14.5136 42.1332 17.0362 41.3847C19.4496 40.6655 21.2983 38.9286 22.9872 37.1226C24.2982 35.7081 25.8483 34.5358 27.5663 33.6596C29.623 32.6059 31.6003 31.404 33.4827 30.0634C37.3345 27.3357 41.5727 25.2499 45.6057 22.8232C48.44 21.1157 50.8775 18.8274 53.7864 17.2291C57.3799 15.2606 61.024 13.3746 65.065 12.5142C66.9122 12.1023 68.7961 11.8774 70.6883 11.8429C73.171 11.8242 75.2994 10.9558 76.9137 9.2563C79.3777 6.6644 82.3799 5.42038 85.7869 4.87962C87.2463 4.66864 88.6349 4.1145 89.8386 3.2627C90.6136 2.67984 91.5492 2.34966 92.5184 2.31702C93.2696 2.29838 93.9435 1.95209 94.5695 1.56317C97.1348 -0.0351217 99.8279 -0.392085 102.758 0.420382C106.093 1.34473 109.479 1.95475 112.987 1.82156C114.852 1.74963 116.666 2.35432 118.347 3.18277C120.88 4.42944 123.539 5.26854 126.24 6.08101C129.263 6.98938 132.231 8.26002 134.354 10.7747C135.339 11.9441 136.144 13.2707 137.108 14.4721C137.635 15.1608 138.318 15.7147 139.101 16.0884C139.883 16.4621 140.743 16.6449 141.61 16.6218C144.684 16.6431 146.642 18.1135 147.721 20.9771C148.392 22.7592 149.319 24.4215 149.671 26.3421C150.149 28.8346 150.11 31.3986 149.556 33.8754C149.474 34.2457 149.354 34.6745 149.468 35.0128C149.887 36.2408 149.271 37.1173 148.576 37.9724C147.745 38.9926 146.962 40.0714 146.008 40.9692C143.738 43.1002 142.351 45.7241 141.586 48.6943C141.221 50.1167 140.169 51.0171 139.34 52.1039C136.975 55.2073 133.605 57.0933 130.6 59.4188C127.361 61.9308 124.404 64.6932 122.225 68.2254C120.417 71.1556 117.646 73.0203 114.711 74.6799C111.818 76.3074 108.941 78.015 106.855 80.6308C104.817 83.1828 102.351 85.3698 100.667 88.2334C99.2472 90.6442 97.0123 92.3463 94.8466 94.0592C93.4898 95.187 92.0666 96.2322 90.5844 97.1892C87.7395 98.9287 84.724 99.3203 81.5461 98.276C79.8706 97.722 78.171 97.2505 76.4848 96.7443C75.772 96.5215 75.0065 96.5327 74.3004 96.7763C72.3958 97.4529 70.5711 97.0986 68.7517 96.462C65.8215 95.439 62.926 94.203 59.8226 93.7981C54.9238 93.1508 50.2328 91.763 45.5898 90.1434C42.9606 89.2244 40.6324 87.7246 38.2323 86.3634C36.3383 85.2979 34.3404 84.568 32.1454 84.7145C28.9879 84.9265 25.8356 84.2324 23.0591 82.714C21.1279 81.6937 18.9862 81.3447 16.8684 81.0757C13.6421 80.6817 10.6013 79.353 8.12039 77.2531C6.52209 75.9212 4.65741 74.9249 3.3841 73.2014C1.1305 70.1567 -0.100165 66.8082 0.00638781 62.9856C0.0383537 62.2717 0.0197199 61.5658 0.0197199 60.7933ZM70.7363 80.3032C70.8934 80.7694 70.6564 81.2888 70.9281 81.8429C71.341 81.39 72.3053 81.4753 72.0842 80.6815C71.959 80.2286 71.2477 80.178 70.7096 80.3272C70.0889 79.7518 69.2738 79.7651 68.5146 79.5547C68.3042 80.6495 68.781 81.6671 68.6798 82.714C68.6585 82.9324 68.7544 83.0656 69.0288 82.9963C69.7454 82.8125 70.3607 81.9308 70.4273 81.1583C70.4459 80.8919 70.0384 80.3645 70.7363 80.3032ZM103.373 38.5983C103.152 38.5371 103.025 38.7022 102.867 38.8088C100.638 40.3245 98.6052 42.1998 95.8642 42.8045C95.2755 42.9377 95.121 43.4305 94.8706 43.87C93.3069 46.6591 90.9787 48.3986 87.7661 48.7848C84.3431 49.195 81.2024 50.194 78.5173 52.4902C77.1854 53.6303 76.0746 55.0901 74.4496 55.8333C69.0208 58.3213 64.09 61.7869 58.3921 63.7688C54.8998 64.9835 51.3703 65.78 47.7182 65.9212C44.2898 66.0544 40.8481 65.8972 37.4118 65.8706C36.6127 65.8706 35.8135 65.8706 35.0144 65.8706V66.137C37.2839 66.3368 39.5429 66.5792 41.8284 66.7257C45.326 66.9494 48.7997 66.4939 52.2653 66.1183C54.4363 65.8839 56.6313 65.6202 58.6372 64.5973C60.2357 63.8088 61.902 63.166 63.6159 62.6767C65.6537 62.0693 67.5903 61.2488 69.2658 59.9196C70.9414 58.5903 72.83 57.5621 74.7134 56.5419C76.4102 55.6229 78.0379 54.5919 79.2872 53.0789C79.8259 52.4456 80.4365 51.877 81.1065 51.3847C83.528 49.5627 86.3862 49.1018 89.2845 48.7981C91.2797 48.585 93.1444 47.9297 94.1753 46.1929C95.2248 44.4161 96.7566 43.5291 98.5387 42.8391C99.471 42.4822 100.459 42.1626 101.048 41.3368C101.756 40.3602 102.534 39.4353 103.373 38.569C104.489 38.0185 105.435 37.1785 106.115 36.137C106.297 35.8745 106.403 35.5665 106.421 35.2472C106.421 34.5147 106.786 33.9153 107.002 33.2467C107.351 32.1812 108.168 31.3474 108.531 30.2925C108.677 29.8636 109.215 29.3149 108.845 29.0166C108.475 28.7182 107.897 29.2164 107.47 29.4374C107.044 29.6585 106.525 29.9702 107.007 30.7321C107.273 31.1529 107.108 31.7789 106.754 32.2638C106.338 32.8312 105.899 33.4225 105.763 34.1071C105.414 35.8733 104.498 37.2877 103.371 38.5983H103.373ZM82.9153 68.0869C83.4756 67.7993 84.0519 67.5441 84.6414 67.3224C89.1087 65.9239 93.5359 64.4295 97.8087 62.5008C100.622 61.2302 103.555 60.1886 106.181 58.5584C108.128 57.3313 110.169 56.2623 112.287 55.3618C113.525 54.845 114.684 54.1551 115.885 53.5637C118.685 52.1812 121.479 50.7321 124.759 50.9239C124.902 50.927 125.045 50.8975 125.175 50.8375C125.306 50.7775 125.421 50.6886 125.512 50.5776C126.866 49.2456 128.427 48.1615 129.985 47.08C130.832 46.4913 131.666 45.8812 132.662 45.1726C128.853 45.0235 125.422 45.3458 122.598 47.959C121.828 48.6729 120.933 49.2909 119.815 49.4641C121.075 48.6496 122.284 47.76 123.437 46.8002C124.6 45.737 126.07 45.0693 127.636 44.893C128.88 44.7544 130.129 44.8637 131.487 44.6878C130.723 44.4481 130.044 44.6319 129.383 44.4081C127.684 43.8327 126.12 44.1604 124.719 45.2952C123.051 46.6484 121.189 47.7166 119.391 48.8807C119.223 48.9926 119.053 49.1151 118.882 48.9446C118.815 48.871 118.779 48.7737 118.783 48.6739C118.787 48.574 118.83 48.4799 118.904 48.4119C119.16 48.0453 119.443 47.698 119.751 47.373C120.776 46.406 121.083 45.3032 120.803 43.894C120.536 42.5275 120.595 41.097 121.623 39.9969C122.652 38.8967 123.123 37.6474 123.616 36.3341C124.379 34.2345 125.457 32.263 126.812 30.487C128.014 28.9366 129.743 28.4305 131.634 28.34C132.015 28.324 132.356 28.252 132.433 27.8072C132.497 27.4343 132.654 26.9601 132.377 26.7044C132.1 26.4486 131.663 26.6484 131.312 26.7976C131.084 26.9088 130.897 27.0899 130.779 27.3144C130.044 28.4705 129.825 28.561 128.507 28.0895C127.873 27.8604 127.295 27.8525 126.828 28.3559C126.181 29.0592 125.608 28.8567 125.038 28.2893C124.751 28.032 124.487 27.7485 124.253 27.4422C122.897 25.463 121.008 24.3309 118.677 23.9047C116.28 23.4625 114.841 22.1492 114.242 19.6879C113.587 17.008 114.399 14.1764 117.438 13.1694C116.994 12.9856 116.639 13.2174 116.24 13.3373C115.294 13.625 114.839 14.5254 114.063 15.0208C112.998 15.6974 112.644 16.5179 112.942 17.6847C113.31 19.1284 113.552 20.6149 114.562 21.8216C114.772 22.072 114.937 22.4156 114.639 22.674C114.391 22.8898 114.106 22.674 113.84 22.5355C113.523 22.3756 113.291 22.0187 112.838 22.1386C114.559 23.1135 115.987 24.584 118.091 24.9036C119.234 25.0794 120.473 25.2446 121.322 26.1636C121.926 26.7777 122.603 27.3146 123.339 27.7619C123.919 28.1579 124.476 28.5876 125.006 29.0485C125.51 29.4774 125.63 29.9862 125.457 30.6735C125.025 32.3863 123.994 33.7768 123.163 35.2792C121.658 38.0043 119.966 40.6362 120.129 43.9873C120.209 45.6149 119.625 47.064 118.064 48.0123C117.1 48.6097 116.303 49.4431 115.75 50.4337C114.487 52.6953 112.391 53.8967 110.219 55.0155C105.619 57.3943 100.912 59.544 96.3543 62.0293C94.3591 63.1135 92.1401 63.6276 89.8652 63.8621C89.5775 63.8887 89.2392 64.0325 89.138 63.6543C89.0368 63.276 89.4364 63.1854 89.6708 63.0869C90.5498 62.7219 91.4555 62.4209 92.3346 62.0613C94.2397 61.3161 96.0902 60.4385 97.8727 59.4348C96.0777 60.2525 94.2182 60.9207 92.3133 61.4326C90.1034 61.9408 88.0093 62.8618 86.1412 64.1471C85.626 64.4669 85.0576 64.6916 84.463 64.8104C82.0389 65.4204 79.5882 65.82 77.0549 65.5669C78.8077 66.4327 80.5605 67.2371 82.4438 67.698C82.7102 67.7619 82.9606 67.7326 82.9313 68.1055C82.7128 68.0736 82.4864 68.0629 82.2733 68.0096C80.2541 67.5221 78.3628 66.699 76.4795 65.8519C75.5125 65.4204 74.5455 65.511 73.3814 65.796C75.5365 67.0484 77.777 68.1477 80.0863 69.0858C79.9867 69.1638 79.8653 69.209 79.7389 69.2152C79.6125 69.2214 79.4872 69.1883 79.3804 69.1204C77.5157 68.4625 75.7922 67.5222 74.0527 66.6271C72.4012 65.7773 71.9537 65.7587 70.1423 66.5712C71.3303 67.3011 72.6143 67.7593 73.8103 68.4066C72.602 68.1936 71.445 67.7534 70.4006 67.1093C69.6201 66.6511 68.9782 66.7363 68.2696 67.1812C66.5647 68.2654 64.6761 68.4572 62.7475 68.1615C60.8189 67.8658 59.098 67.9803 57.4385 69.0619C56.4449 69.701 55.3224 70.113 54.1513 70.2686C52.7901 70.4657 51.3916 70.5349 49.8519 71.1822C52.3905 71.6511 54.4523 72.7805 56.5967 73.6836C57.5716 74.0965 58.5519 74.4827 59.5269 74.9276C59.7505 75.0391 59.9987 75.0921 60.2483 75.0819C60.498 75.0716 60.741 74.9984 60.9547 74.869C61.8038 74.4307 62.6069 73.9087 63.3522 73.3106C63.9236 72.8399 64.6341 72.5703 65.374 72.5435C67.4194 72.4636 69.4319 72.0038 71.309 71.1876C73.3974 70.3165 75.6084 70.0608 77.8274 69.8264C79.6335 69.6372 81.4449 69.4614 83.1551 68.7981C83.0778 68.5611 82.9899 68.324 82.9126 68.0922L82.9153 68.0869ZM105.523 37.7859C104.458 38.6489 103.126 39.2829 102.412 40.4737C101.384 42.2211 99.8146 43.0229 98.0245 43.6463C96.6047 44.1418 95.3953 44.9436 94.7187 46.3794C94.439 46.9734 93.9195 47.3756 93.4214 47.7832C91.5567 49.2829 89.2739 49.2723 87.0842 49.576C84.439 49.9436 82.0229 50.9079 80.2381 52.8658C78.8254 54.4339 77.164 55.7587 75.3207 56.787C73.6691 57.6953 71.943 58.4891 70.4832 59.7172C68.3242 61.4774 65.8193 62.7643 63.131 63.4944C62.3319 63.7235 61.57 64.0459 60.7869 64.3229C59.3218 64.8557 57.9872 65.7267 56.4262 65.9825C51.3383 66.8242 46.2371 67.4502 41.0586 67.1625C39.8439 67.0959 38.6239 66.7443 37.4385 67.0107C37.2866 67.4582 37.87 67.6607 37.6169 68.2734C37.1641 67.3091 36.7485 66.446 35.5525 66.8455C35.6936 67.5435 36.4582 67.9111 36.666 68.7928C36.118 68.4213 35.677 67.9124 35.3873 67.317C35.0384 66.6164 34.4923 66.6884 33.8556 66.6937C34.1087 67.5328 34.7267 68.0949 35.0704 68.9153C34.423 68.7049 34.2712 68.1961 34.0261 67.8205C33.1017 66.4247 32.9872 66.3554 31.2664 66.7017C31.6473 67.4289 32.22 67.9937 32.8966 68.641C32.7155 68.6675 32.5306 68.6345 32.3697 68.5471C32.2088 68.4597 32.0807 68.3225 32.0043 68.1561C31.1545 66.6564 29.9079 66.4433 28.4081 66.9708C28.3735 66.9837 28.3431 67.0058 28.3202 67.0347C28.3602 67.6953 29.1886 67.9137 29.1193 68.6489C28.6079 68.3826 28.4614 67.8951 28.1444 67.5488C27.9393 67.3197 27.862 67 27.4651 66.9468C26.3143 66.7869 25.1716 66.5845 24.0021 66.398C24.0155 66.9308 24.5616 67.1812 24.4736 67.7992C23.5946 65.4524 21.3649 66.081 19.5908 65.2686C20.0424 66.6361 20.6315 67.9543 21.349 69.203C20.9201 69.0112 20.7416 68.6383 20.5152 68.3C19.8252 67.2771 19.8332 65.7854 18.8423 65.0741C17.8513 64.3629 16.5674 64.1151 15.4113 63.6596C15.3207 63.625 15.2408 63.5717 15.1449 63.5291C14.1666 63.0428 13.0548 62.8939 11.9829 63.1055C10.4033 63.3719 9.28451 64.211 8.74908 65.748C8.55196 66.3154 8.61319 66.7656 9.24718 67.0799C10.6191 67.7832 11.9856 68.4918 13.4827 68.8754C17.7821 69.9809 22.1374 69.861 26.4901 69.3282C29.5162 68.958 32.4758 68.9819 35.3687 70.0821C36.4076 70.4737 37.4012 70.9798 38.5093 71.1956C40.2088 71.5286 41.8977 71.3687 43.5866 71.1742C45.984 70.9079 48.4454 71.1743 50.7469 70.146C51.4039 69.875 52.1173 69.769 52.8247 69.837C54.4663 69.9754 56.103 69.5187 57.4358 68.5504C59.1833 67.309 61.0773 67.1173 63.1018 67.4343C64.122 67.5914 65.1023 67.3197 66.2637 67.2425C65.4113 66.3288 64.2419 66.0917 63.6531 65.1567C64.2725 65.398 64.8538 65.7273 65.3793 66.1343C66.4448 67.0267 67.4677 67.1785 68.5759 66.1956C67.6436 65.5989 66.5967 65.154 65.7815 64.2829C67.6329 65.1567 69.3058 66.8615 71.57 65.3911C70.9573 64.7251 69.8625 64.592 69.1992 63.6436C70.1662 63.8914 70.8748 64.4002 71.5461 64.869C72.5077 65.5403 73.3815 65.2259 74.3511 64.9968C73.9915 64.528 73.2323 64.6106 73.0192 63.8008C73.8183 64.1844 74.4443 64.4934 75.0757 64.7891C75.3528 64.9512 75.6797 65.0062 75.9947 64.9436C76.7512 64.7571 77.529 64.8876 78.2962 64.8583C81.4928 64.7358 84.7081 64.7225 87.4624 62.7033C87.9381 62.3811 88.4528 62.1206 88.9941 61.9281C91.8924 60.788 95.0064 60.2526 97.7848 58.7955C98.187 58.585 98.6665 58.4039 99.0101 58.8461C99.3537 59.2883 98.8237 59.5546 98.5973 60.0634C102.572 57.8338 106.749 56.3767 110.523 54.0911C111.855 53.292 113.334 52.5941 114.215 51.2435C115.307 49.5653 116.749 48.284 118.339 47.1253C118.696 46.8589 119.101 46.6377 119.173 46.1343C119.34 44.9995 119.705 43.8621 119.476 42.7166C119.331 41.9938 119.433 41.2431 119.767 40.5855C120.728 38.6463 121.498 36.6164 122.766 34.821C123.597 33.7228 124.271 32.5143 124.769 31.2302C125.228 29.9249 125.177 29.7278 124.13 28.894C123.014 28.0043 121.607 27.5062 120.718 26.3021C120.531 26.0517 120.102 25.9931 119.793 25.828C119.426 25.6308 119.261 25.6628 119.135 26.1343C118.837 27.2744 118.227 28.292 117.686 29.3309C117.604 29.4854 117.548 29.8051 117.153 29.6159C117.668 28.5504 118.144 27.4849 118.704 26.4673C119.122 25.6974 118.848 25.3751 118.091 25.3139C116.94 25.2233 115.96 24.7198 115.017 24.1231C114.434 23.7136 113.795 23.3898 113.12 23.1615C113.629 24.536 113.184 25.5749 112.255 26.4566C111.884 26.8109 111.541 27.2345 111.101 27.4715C109.679 28.2441 109.356 29.6239 108.954 31.0837C110.134 31.065 111.117 30.4976 112.18 30.2606C111.261 30.9638 110.249 31.4193 109.087 31.3581C108.858 31.3581 108.733 31.3581 108.624 31.5205C107.909 32.5413 107.369 33.6738 107.026 34.8717C106.884 35.3245 107.076 35.5669 107.614 35.5562C108.7 35.5194 109.781 35.4072 110.851 35.2206C112.161 35.0102 113.464 34.7731 114.847 34.5333C114.768 34.6484 114.666 34.7454 114.547 34.818C114.428 34.8905 114.295 34.937 114.157 34.9542C111.966 35.5147 109.722 35.8433 107.462 35.9345C107.252 35.9345 106.951 35.6894 106.818 36.097C106.578 36.8269 105.875 37.2078 105.486 37.8232L105.523 37.7859ZM75.8987 13.0523C75.6324 13.2121 75.366 13.3826 75.081 13.5291C73.4268 14.3842 71.65 14.3895 69.8519 14.3096C68.6984 14.2563 67.5584 14.3469 66.5008 14.8796C66.3913 14.9353 66.2951 15.0142 66.2192 15.1108C66.1433 15.2074 66.0894 15.3194 66.0613 15.439C65.6643 16.5552 65.121 17.618 64.6335 18.6996C64.6335 17.5301 65.326 16.5951 65.5871 15.3884C64.6681 15.8013 63.8476 16.089 63.1204 16.5845L63.1524 16.5579C60.8428 17.6767 58.4188 18.6436 57.5797 21.4593C57.2653 22.5248 56.8125 23.5451 56.4076 24.5786C56.1412 25.2339 56.0639 25.9558 55.5924 26.5285C55.96 24.2536 57.0336 22.1945 57.7049 19.9569C56.1385 20.3085 56.1066 20.3032 55.6404 21.6005C54.9372 23.5104 54.1673 25.3964 53.6132 27.3623C53.7677 24.9649 54.9238 22.8178 55.5791 20.4843C53.6585 20.7267 53.5307 22.3783 52.9153 23.5344C52.2453 24.7288 51.7594 26.0175 51.4741 27.357C51.4741 25.1034 52.7368 23.2707 53.6052 21.1716L52.8061 21.5339C50.9227 22.3969 49.5669 23.9153 48.1124 25.3139C46.2025 27.1519 44.1167 28.7315 41.4529 29.275C41.2205 29.3044 41.0047 29.411 40.84 29.5776C40.6753 29.7442 40.5712 29.9612 40.5445 30.194C40.3687 30.9372 40.1982 31.6804 40.0117 32.4209C39.7453 31.4406 40.1263 30.5562 40.3207 29.3868C38.211 30.3831 38.6558 32.4449 37.9446 33.9153C37.7048 32.61 38.4028 31.4513 38.5813 30.2046C37.9393 30.2659 37.8141 30.7374 37.6276 31.1796C37.1268 32.381 36.911 33.6729 36.4609 34.909C36.4076 33.577 36.8684 32.365 37.0948 31.0837C35.5418 32.7539 35.3714 34.9915 34.6574 37.016C34.5296 35.3485 35.3847 33.886 35.6644 32.2931C33.2057 33.1801 33.3761 35.4896 32.7688 37.4156C32.5503 36.1556 33.1257 35.0182 33.3655 33.7022C32.7368 34.0912 32.2307 34.4215 31.7059 34.7225C31.0906 35.0714 31.1945 35.788 30.9068 36.2835C30.6191 36.7789 30.8242 37.4236 30.35 37.9697C30.1795 36.9654 30.7017 36.2062 30.8002 35.3591C27.9126 36.1583 27.9872 36.8269 27.6222 40.1114C27.0895 38.8354 27.7049 37.7859 27.8008 36.6484C27.5743 36.755 27.4571 36.8003 27.3479 36.8615C24.17 38.6569 21.8604 41.3075 19.9051 44.3202C19.3164 45.2313 19.106 46.065 19.5109 47.0986C19.7242 47.6056 19.8087 48.1576 19.7566 48.7051C19.7045 49.2527 19.5176 49.7789 19.2126 50.2366C18.3442 51.5685 17.8407 52.9004 18.0964 54.6133C18.4187 56.8056 17.0868 58.6836 16.0613 60.495C15.5445 61.4113 15.944 61.446 16.5114 61.715C18.1683 62.5142 20.0224 62.5968 21.7299 63.2121C22.2627 63.4092 22.2413 63.0096 22.1881 62.6793C22.1268 62.3037 21.8444 61.9388 22.2547 61.422C22.3665 61.8988 22.4305 62.2531 22.537 62.5967C22.6249 62.8871 22.5077 63.3213 22.9073 63.4199C23.9728 63.6862 25.057 64.0512 26.2691 64.0245C26.0027 63.3746 25.7709 62.8525 25.5844 62.3144C25.414 61.8242 25.0677 61.3447 25.4113 60.5616C26.0853 62.7779 26.4475 65.1194 29.4923 64.5573C29.2525 64.0485 28.9941 63.5131 28.749 62.959C28.2456 61.8589 28.2456 61.8562 28.4187 61.2968C29.3511 63.0789 29.5109 65.6602 32.5051 65.0768C32.3186 64.1844 31.5674 63.4039 31.674 62.3597C32.0652 63.0649 32.4147 63.7925 32.7208 64.5387C32.7767 64.7153 32.8814 64.8725 33.0228 64.9922C33.1642 65.1119 33.3366 65.1893 33.52 65.2153C34.2099 65.3618 33.8183 64.6372 34.2232 64.5253C34.3857 65.3778 34.9958 65.3805 35.6644 65.3751C38.3628 65.3591 41.0693 65.2606 43.7597 65.4151C45.5747 65.5461 47.398 65.5024 49.2046 65.2845C47.4784 62.4449 46.6047 60.202 46.8071 58.95C46.927 59.2883 47.0202 59.512 47.0735 59.7491C47.5128 61.24 48.0925 62.6858 48.805 64.0672C49.2685 65.0075 49.9505 65.3298 50.9654 65.1913C51.6606 65.0954 51.7858 64.9462 51.3516 64.3202C50.1812 62.6464 49.2463 60.8197 48.5733 58.8913C48.4108 58.4225 48.4161 58.4225 48.6425 57.8924C49.3058 60.1647 50.4113 62.1892 51.6287 64.1657C52.0256 64.8104 52.4891 65.0181 53.1844 64.7864C53.5253 64.6745 53.8716 64.5733 54.2179 64.4641C52.6862 62.4076 51.5887 60.2526 51.1944 57.7885C51.3756 57.7885 51.4608 57.8685 51.4768 57.9484C51.9483 60.0981 52.9659 62 54.1406 63.8248C54.4416 64.2856 54.7986 64.504 55.43 64.2696C58.6265 63.0949 61.8737 62.0959 64.8572 60.423C66.5274 59.4854 68.1417 58.4305 69.8705 57.6181C72.8407 56.2249 75.6377 54.6399 78.0139 52.309C80.3872 49.9732 83.5393 48.5958 86.8658 48.4412C90.4939 48.2307 92.8354 46.3501 94.5163 43.332C94.7267 42.951 94.6095 42.8924 94.3191 42.7086C93.3522 42.0906 92.3879 41.4673 91.4795 40.772C90.984 40.3911 90.3979 40.0528 90.0836 39.4188C90.4725 39.2963 90.5578 39.5706 90.7123 39.7038C91.8569 40.6755 93.0723 41.5605 94.3484 42.3517C94.5802 42.4982 94.8306 42.7273 95.1475 42.5781C96.5461 41.9095 98.1524 41.6857 99.3911 40.6708C100.441 39.8306 101.532 39.0446 102.662 38.316C103.25 37.95 103.758 37.471 104.159 36.9067C104.56 36.3424 104.844 35.704 104.996 35.0288C105.246 33.8168 105.55 32.682 106.29 31.6777C106.425 31.5329 106.499 31.3426 106.499 31.145C106.499 30.9474 106.425 30.757 106.29 30.6122C106.024 30.3245 105.71 30.4923 105.409 30.6335C104.703 30.9691 103.991 31.1503 103.184 30.8999C102.79 30.78 102.273 30.6628 101.9 31.0224C100.76 32.1199 99.2738 32.5514 97.886 33.1801C95.6484 34.1924 93.1817 34.512 90.9388 35.4923C88.1426 36.6871 85.1273 37.2832 82.0869 37.2424C79.6243 37.2194 77.1824 37.6942 74.9078 38.6383C71.7805 39.9542 68.5013 40.7427 65.0517 40.6974C63.6665 40.6788 62.3213 40.3431 60.9521 40.3112C56.1439 40.202 51.3623 40.3964 46.7672 42.032C44.6201 42.7965 42.3319 42.8498 40.129 43.308C37.7821 43.7955 35.5285 44.7171 33.2163 45.3858C32.3224 45.6121 31.4135 45.7741 30.4965 45.8706C30.2301 45.9079 29.8386 45.812 29.772 45.5323C29.6734 45.1221 30.0783 45.1593 30.35 45.0874C30.9307 44.9329 31.4981 44.7145 32.0868 44.5973C34.3191 44.1578 36.3037 43.0176 38.4641 42.3756C39.6948 42.008 40.9733 41.9707 42.2094 41.6857C45.366 40.9638 48.488 40.1167 51.7059 39.6639C53.9382 39.3495 56.1785 39.3575 58.4108 39.1711C60.045 39.0365 61.6879 39.0472 63.3202 39.203C65.382 39.4002 67.4225 39.4108 69.4257 38.9153C71.7699 38.3346 74.1193 37.7246 75.9041 35.8919C76.3223 35.463 76.9164 35.3405 77.553 35.2526C79.7667 34.9462 81.9856 35.2526 84.1859 35.0688C86.1908 34.9421 88.1471 34.3977 89.9292 33.4705C90.7283 33.0283 91.4395 32.5648 92.3879 32.4556C93.9329 32.2744 95.3766 31.5765 96.951 31.4912C98.1896 31.4247 99.447 31.414 100.547 30.5189C100.146 30.4556 99.7622 30.3109 99.4191 30.0938C99.076 29.8767 98.7808 29.5917 98.5519 29.2563C97.2866 27.6074 96.2851 25.7614 94.8066 24.2696C94.5562 24.0032 94.4683 23.5957 94.3138 23.2521C93.5679 21.6138 94.0474 19.9969 94.4123 18.3826C94.8785 16.3767 94.8332 15.6415 92.7821 14.6532C90.8348 13.7262 88.7144 13.0549 86.5274 13.1215C83.0378 13.2121 79.4683 13.0043 76.2557 14.8343C76.084 14.9121 75.9057 14.9745 75.723 15.0208C73.9321 15.6863 72.216 16.5381 70.6031 17.5621C69.4257 18.276 68.5493 19.4588 67.3186 20.1913C66.7405 20.535 66.7325 21.3075 66.7858 21.9441C66.8364 22.4982 67.2653 22.6767 67.8007 22.7433C68.5439 22.8578 68.6638 23.3399 68.2669 23.9286C67.9686 24.3735 67.609 24.7784 67.5637 25.3698C67.6981 25.3954 67.8345 25.4097 67.9713 25.4124C69.4657 25.3165 70.7017 25.6948 71.3543 27.1972C71.4224 27.3262 71.5217 27.4362 71.6431 27.5171C71.7645 27.598 71.9042 27.6474 72.0495 27.6607C73.5652 27.8818 75.0863 28.1934 76.6074 28.2094C79.1247 28.2361 81.5381 28.4199 83.5679 30.1407C84.0128 30.519 84.6042 30.6282 85.065 30.2179C85.5258 29.8077 85.0304 29.3762 84.7986 29.0885C83.0805 27.0613 82.9073 24.6292 83.2003 22.2052C83.3815 20.748 83.2163 19.7198 81.9057 18.9713C81.2637 18.6063 81.2797 18.1348 81.8711 17.706C82.7475 17.072 83.6239 16.4326 84.5349 15.8413C84.9984 15.5349 85.5631 14.9116 86.0479 15.3085C86.6047 15.756 85.9174 16.3367 85.7336 16.8402C85.3127 18.0096 84.6681 19.1178 84.9345 20.5882C85.2808 20.0075 85.5365 19.5413 85.8242 19.0991C86.57 17.951 87.4464 16.9441 88.837 16.5658C89.1033 16.4939 89.4736 16.4087 89.5802 16.7736C89.6601 17.04 89.3831 17.2318 89.1487 17.3357C87.862 17.9137 87.0176 18.95 86.3063 20.1034C85.2594 21.8109 84.1753 23.6489 84.9744 25.6681C85.7549 27.6474 85.8588 30.3085 88.8263 30.7001C89.1806 30.7454 89.2232 31.0917 88.9062 31.3394C88.6783 31.5173 88.3961 31.6113 88.1071 31.6058C86.9585 31.5734 85.8091 31.6357 84.6708 31.7923C83.3389 31.992 82.3825 31.1183 81.3676 30.4763C80.0285 29.5845 78.4213 29.1853 76.8205 29.3469C76.1267 29.4281 75.4258 29.4281 74.732 29.3469C74.0421 29.267 73.3362 28.91 72.6516 29.1737C70.8402 29.869 69.1353 29.4694 67.4624 28.7502C66.5141 28.3426 65.5818 28.1881 64.5908 28.5477C64.0847 28.7289 63.4135 28.9713 63.1098 28.4678C62.7741 27.9137 63.3948 27.4715 63.7943 27.1572C65.2275 26.0357 65.5658 24.6665 64.8945 23.0043C64.8104 22.764 64.7462 22.5172 64.7027 22.2664C64.423 21.0384 65.1449 19.1071 66.2051 18.4545C67.9632 17.373 69.6974 16.2675 71.7565 15.7347C73.4108 15.3032 74.7507 14.2243 75.9254 12.9803C78.1257 12.7139 80.3154 12.365 82.5264 12.1812C85.065 11.9654 87.5584 11.8855 89.9478 12.9963C90.5472 13.2627 91.1438 13.6436 91.887 13.5131C88.3361 12.0027 85.1263 9.73577 81.2477 8.93929C80.4299 8.77147 80.0837 8.87006 79.6788 9.53335C78.7278 11.1023 77.5584 12.3517 75.8961 13.0523H75.8987ZM105.854 6.46462L105.973 6.19824C107.06 6.6058 108.155 6.99739 109.226 7.43159C109.775 7.65801 110.132 7.60473 110.622 7.19184C111.818 6.18491 113.15 5.20729 114.764 5.1993C117.875 5.18065 120.124 6.98939 122.167 9.09648C122.216 9.138 122.249 9.19595 122.258 9.25962C122.268 9.32329 122.255 9.38835 122.22 9.44276C122.111 9.5866 121.978 9.58396 121.802 9.53335C121.35 9.37237 120.928 9.13838 120.552 8.84073C119.689 8.24403 119.077 7.26108 118.001 7.01068C116.088 6.5605 114.255 6.7816 112.622 7.95369C109.226 10.3938 107.276 14.3815 110.648 18.4305C111.052 18.9282 111.393 19.474 111.663 20.0555C112.132 21.0384 113.078 21.3581 113.922 22.008C113.584 20.6761 112.244 20.1141 112.058 18.7741C112.537 18.894 112.393 19.4268 112.841 19.4801C112.79 19.3362 112.745 19.2137 112.708 19.1071C111.996 16.9095 112.292 15.9105 114.071 14.4801C114.219 14.357 114.348 14.2135 114.455 14.0539C115.297 12.7859 116.533 12.3916 117.953 12.5861C119.155 12.7564 120.365 12.8657 121.578 12.9137C121.762 12.9137 122.002 12.8631 122.034 13.1268C122.066 13.3906 121.828 13.4359 121.658 13.4918C120.859 13.7422 120.084 13.9872 119.229 13.8088C118.71 13.6573 118.169 13.5969 117.63 13.6303C115.955 13.8967 114.306 15.788 114.378 17.4955C114.514 20.7214 115.587 22.7992 118.906 23.569C120.329 23.902 121.73 24.3682 122.902 25.3352C123.805 26.1086 124.641 26.956 125.403 27.8685C125.75 28.2654 126.109 28.5957 126.642 27.9963C126.888 27.6927 127.236 27.4878 127.62 27.4189C128.005 27.3499 128.402 27.4215 128.738 27.6207C129.42 27.9643 129.961 27.7672 130.281 27.1492C130.401 26.9024 130.587 26.694 130.819 26.5472C131.051 26.4004 131.32 26.3211 131.594 26.3181C132.676 26.3181 132.574 25.7001 132.46 25.0075C132.433 24.8477 132.193 24.6825 132.558 24.5227C132.825 24.7598 132.87 25.0741 132.905 25.431C132.931 25.7214 132.657 26.113 133.23 26.2835C133.43 26.3606 133.65 26.3751 133.859 26.3252C134.068 26.2753 134.257 26.1632 134.402 26.0038C136.336 24.1737 135.84 21.1743 134.902 19.3442C134.735 19.0166 134.239 18.8381 134.242 18.4332C134.242 17.3357 133.531 17.072 132.66 16.7363C132.022 16.5139 131.443 16.1511 130.964 15.6749C130.486 15.1986 130.12 14.621 129.895 13.9846C129.772 13.6383 129.628 13.1854 129.895 13.0176C130.267 12.7832 130.406 13.284 130.547 13.5264C131.062 14.4572 131.913 15.1558 132.926 15.479C133.813 15.7827 134.716 16.2009 135.19 17.1146C135.381 17.4787 135.641 17.8025 135.955 18.0682C137.721 19.6266 137.998 20.8466 137.188 23.0869C136.511 24.9516 135.819 26.8349 135.241 28.7422C134.889 29.893 134.601 31.065 134.175 32.2052C134.031 32.6021 133.973 33.0976 133.392 33.3773C134.063 31.5753 134.603 29.7271 135.006 27.8472C134.511 28.1135 134.143 28.4625 133.73 28.5264C132.694 28.6916 132.553 29.3469 132.412 30.2286C132.249 31.2515 132.06 32.325 131.312 33.1588C131.637 31.9441 131.959 30.7374 132.193 29.504C132.329 28.8035 132.092 28.7448 131.541 28.7635C130.71 28.8032 129.9 29.0446 129.183 29.4667C126.866 30.772 125.521 32.8711 124.556 35.2606C123.818 37.0933 123.126 38.9287 121.844 40.5003C121.173 41.3234 120.989 42.365 121.189 43.4811C121.389 44.5973 122.028 45.6681 121.322 46.8455C122.601 46.1263 123.818 45.3937 124.998 44.6053C125.963 43.9579 127.108 43.5104 128.147 43.6969C129.873 44.0033 131.578 43.9846 133.302 44.0219C134.412 44.0432 134.695 43.8434 134.985 42.7592C135.497 40.8466 135.784 38.8594 136.703 37.072C137.092 36.2696 137.644 35.5572 138.324 34.9802C139.004 34.4032 139.796 33.9743 140.651 33.7209C139.98 36.755 140.997 39.6053 140.917 42.4742L140.67 42.4955L139.932 35.6628C139.875 35.6749 139.822 35.6988 139.775 35.7329C139.728 35.767 139.688 35.8105 139.659 35.8607C139.63 35.9109 139.612 35.9666 139.606 36.0243C139.599 36.0819 139.605 36.1403 139.623 36.1956C139.737 37.4662 139.735 38.7635 140.006 40.0022C140.353 41.6005 139.639 43.6116 141.703 44.568C142.185 43.8993 142.633 43.0975 143.248 42.4609C144.506 41.1583 145.414 39.7971 144.604 37.9164C144.58 37.8631 144.604 37.7885 144.604 37.7246C144.205 35.4976 144.13 33.2174 143.539 30.9638C142.963 31.2968 142.646 31.8669 141.94 32.072C142.039 31.8242 142.058 31.6457 142.153 31.5552C143.246 30.5136 144.018 29.2084 144.881 28.0096C145.798 26.7276 146.434 25.266 146.746 23.7209C146.931 23.0409 146.926 22.3233 146.733 21.6458C146.358 20.4969 145.655 19.483 144.711 18.7293C143.766 17.9756 142.622 17.5152 141.418 17.4049C138.784 17.1972 136.677 16.2169 135.433 13.7315C135.068 13.0017 134.668 12.2584 133.96 11.7416C132.873 10.9425 131.828 10.1007 130.75 9.28293C129.109 8.03094 127.353 6.9947 125.313 6.54185C122.669 5.93647 120.092 5.06633 117.622 3.94462C115.361 2.92996 112.892 2.46445 110.417 2.58607C109.263 2.63766 108.109 2.51645 106.991 2.22646C104.748 1.6564 102.502 1.31811 100.158 1.77096C98.3521 2.11992 97.0628 3.19078 95.7496 4.30693C94.4363 5.42307 93.9915 9.55999 95.0384 10.9319C95.4402 11.5121 95.9028 12.0479 96.4182 12.5302C96.4588 12.5564 96.4935 12.5909 96.5199 12.6314C96.5463 12.6719 96.5639 12.7175 96.5714 12.7653C96.579 12.8131 96.5763 12.8619 96.5637 12.9086C96.5511 12.9553 96.5287 12.9988 96.4981 13.0363C96.3942 13.1748 96.2957 13.0922 96.1785 13.0203C94.6921 12.1039 93.3468 10.7614 93.2483 9.14708C93.1284 7.12523 92.0282 4.97286 93.5759 2.91905C92.8913 3.03626 92.4917 3.36659 92.0495 3.60634C91.1252 4.1098 90.2808 4.8024 89.1913 4.93825C86.3889 5.27656 83.9142 6.65375 81.2611 7.46089C81.0453 7.52748 80.5951 7.43423 80.667 8.00962C80.7283 8.52107 81.048 8.49976 81.3516 8.54238C84.5989 8.97392 87.3479 10.6734 90.1423 12.1439C91.6047 12.9164 93.0458 13.7422 94.5455 14.4268C95.204 14.7516 95.9226 14.9367 96.656 14.9707C97.3895 15.0046 98.122 14.8865 98.8076 14.6239C101.701 13.577 104.583 13.5291 107.273 15.3351C107.369 15.3728 107.469 15.3961 107.572 15.4044C107.404 14.4481 107.143 13.5664 107.164 12.6287C107.204 10.6948 107.164 10.7134 105.353 10.0821C104.767 9.87963 104.071 9.86098 103.411 9.10978C104.408 9.32372 105.381 9.63787 106.314 10.0475C107.633 10.5802 107.646 10.5802 108.445 9.31223C107.265 8.66492 105.861 8.49444 104.804 7.58341C105.84 7.82522 106.843 8.18918 107.793 8.66761C108.722 9.16308 109.308 8.96861 109.764 8.05758C108.496 7.49551 107.082 7.19451 105.851 6.46462H105.854ZM23.2589 76.4966C23.1376 76.4578 23.0303 76.3839 22.9507 76.2844C22.8711 76.1849 22.8227 76.0641 22.8114 75.9372C22.4208 74.5281 22.1535 73.0878 22.0123 71.6325C21.9776 71.0837 21.8152 70.8946 21.2771 70.9478C20.6004 71.0144 20.8641 71.4433 20.9201 71.7896C20.9867 72.1945 21.0666 72.5888 21.1519 73.0017C21.4023 74.1791 21.658 75.3565 21.951 76.7097C21.6761 76.4656 21.4889 76.1381 21.4182 75.7773C20.9468 74.3868 20.7443 72.9404 20.4752 71.5152C20.4193 71.2116 20.4433 70.9319 20.0197 70.9558C19.5243 70.9825 19.708 71.3528 19.7027 71.6005C19.7001 71.8866 19.7269 72.1722 19.7826 72.4529C20.033 73.8807 20.2941 75.3085 20.5498 76.7337C20.3065 76.529 20.1409 76.2468 20.081 75.9345C19.6918 74.4936 19.4314 73.0209 19.3031 71.5339C19.2818 71.1317 19.1593 70.836 18.6878 70.8546C18.1258 70.8786 18.3228 71.3367 18.3681 71.5738C18.5972 72.7619 18.5439 73.9899 18.9009 75.162C18.9684 75.5 19.0077 75.8431 19.0181 76.1876C18.7278 76.1396 18.7517 75.9851 18.7251 75.8732C18.2349 74.4108 18.1923 72.8738 17.9819 71.3634C17.9313 70.9745 17.862 70.796 17.4331 70.7827C17.0042 70.7694 16.991 71.0491 17.0043 71.3368C17.004 71.8487 17.0342 72.3602 17.0948 72.8685C17.2679 74.0192 17.3612 75.1833 17.4731 76.3314C16.8338 74.8663 16.8098 73.3133 16.6127 71.7869C16.5621 71.4007 16.8231 70.9265 16.3649 70.6548C16.2184 70.5696 15.8935 70.5456 15.8135 70.6362C15.4886 71.0171 15.6697 71.4806 15.7256 71.9121C15.8721 73.0629 16.0346 74.2137 16.1918 75.3751C15.9094 75.3751 15.8748 75.21 15.8508 75.0475C15.6564 73.7155 15.4273 72.4049 15.2915 71.0784C15.2408 70.5989 15.0969 70.4524 14.6361 70.3618C12.7169 69.9695 10.8893 69.2175 9.24985 68.1455C8.41341 67.6127 8.01653 67.7992 7.94993 68.8141C7.91707 69.1974 7.94763 69.5835 8.04046 69.9569C8.41311 71.1275 8.3765 72.39 7.9366 73.5371C7.47842 74.6719 8.10178 75.535 8.62922 76.4247C8.4907 75.2073 8.36282 74.0086 8.74375 72.8285C9.26319 74.536 8.07511 76.7523 10.4592 77.9777C10.3234 76.1716 9.58287 74.528 9.8892 72.7939C10.2222 74.3922 10.4832 75.9904 10.8135 77.5674C10.9707 78.3319 11.309 78.8088 12.0789 78.9766C11.7805 76.9654 10.9707 75.0421 11.1998 72.9777C11.5274 74.8423 11.9776 76.707 12.3772 78.5477C12.4837 79.0432 12.6063 79.5333 13.3122 79.4321C12.862 77.8525 12.2973 76.3581 12.3745 74.6559C12.8726 74.877 12.7209 75.2073 12.7581 75.455C12.9331 76.8077 13.2473 78.1387 13.6958 79.4268C13.7145 79.513 13.7524 79.5938 13.8068 79.6632C13.8612 79.7326 13.9306 79.7888 14.0098 79.8275C14.089 79.8662 14.176 79.8865 14.2642 79.8867C14.3523 79.887 14.4394 79.8673 14.5189 79.829C14.9052 79.6852 14.5189 79.3868 14.4763 79.1897C14.1327 77.9377 13.7251 76.7017 13.3921 75.447C13.3122 75.146 13.1417 74.7145 13.6585 74.4161C13.821 75.9452 14.2818 77.3277 14.7 78.7182C15.1369 80.1647 15.1929 80.1034 16.7352 80.2579C19.5669 80.5403 22.4145 80.7294 25.0677 81.9707C26.9004 82.8258 28.797 83.4891 30.8722 83.5904C31.3437 83.6143 31.5034 83.6889 31.3489 83.0922C31.1164 82.198 30.9772 81.2821 30.9334 80.3591C30.9094 79.7704 30.6004 79.1604 30.8881 78.4945C31.0007 78.5994 31.0913 78.7258 31.1544 78.8663C31.2175 79.0067 31.252 79.1583 31.2557 79.3122C31.4022 80.5136 31.5221 81.7097 31.6633 82.9217C31.7006 83.2387 31.7059 83.577 32.0948 83.6942C32.7954 83.9073 34.0581 82.9484 33.9595 82.2212C33.8118 81.107 33.7557 79.9827 33.7917 78.8594C33.7917 78.6143 33.6718 78.268 34.1327 78.2148C34.2925 79.7172 33.9515 81.2462 34.4283 82.7433C34.9797 82.5728 35.2275 82.413 35.0437 81.7257C34.8173 80.8972 34.5109 79.9969 34.9798 78.8274C35.2142 79.861 35.1742 80.6522 35.2967 81.4167C35.4113 82.1386 35.5445 82.2158 36.1678 81.8482C38.8636 80.3192 41.341 78.4305 44.122 77.0533C44.2587 76.996 44.3808 76.9089 44.4795 76.7983C44.5781 76.6876 44.6507 76.5563 44.6921 76.414C44.0261 76.2409 43.5279 76.6351 43.0032 76.8935C41.1385 77.8099 39.3032 78.7422 37.4491 79.6612C37.236 79.7678 36.9696 79.9969 36.7778 79.6852C36.586 79.3735 36.8791 79.2164 37.0656 79.0619C37.4598 78.7369 37.8647 78.4332 38.2829 78.1269C38.757 77.7699 39.066 77.3916 39.0128 76.7017C38.8982 75.202 38.8716 73.6942 38.8796 72.1892C38.8796 71.8376 38.7198 71.8109 38.5173 71.7763C37.6276 71.6191 36.8497 71.1636 36.016 70.8573C34.3191 70.2339 32.6356 69.4454 30.7469 69.821C28.2935 70.3112 25.8482 70.8679 23.3335 70.8386C22.3612 70.8386 22.3053 71.3048 22.4438 72.0347C22.7022 73.4945 22.9686 74.9516 23.2563 76.4966H23.2589ZM1.7858 65.5083C2.17472 64.9036 2.06817 64.3655 2.31857 63.6916C2.61692 64.512 2.29992 65.0794 2.31857 65.6548C2.37451 66.9175 2.31862 66.9175 2.69954 67.4343C2.67959 66.5261 2.83141 65.6223 3.14705 64.7704C3.48535 66.145 2.46241 67.5595 3.31217 68.902C3.55991 67.7379 3.48269 66.5312 4.01279 65.4391C4.01279 65.9718 3.97551 66.5312 3.95953 67.0533C3.93023 68.0922 3.3202 69.1551 3.8876 70.1647C4.82527 71.8376 6.14386 73.2627 7.08419 74.9596C7.15078 73.2041 7.1641 71.4779 7.14545 69.7544C7.14545 68.9953 7.24666 68.284 7.72348 67.6687C7.89663 67.4449 7.97388 67.2797 7.72348 67.016C7.06019 66.2755 6.45284 65.487 5.79754 64.7385C3.74906 62.3943 2.71018 59.7012 3.00852 56.5365C3.41609 58.3053 3.4321 60.178 4.36977 61.8029C5.35682 63.4422 6.57819 64.9283 7.9952 66.2142C8.21629 65.1487 8.75174 64.3815 9.07406 63.5184C9.19987 63.1851 9.41851 62.8949 9.70412 62.682C9.98972 62.4691 10.3304 62.3424 10.6857 62.317C11.2584 62.2371 11.8311 62.1785 12.4065 62.1279C14.2712 61.9654 15.6031 60.8306 15.8961 58.9846C16.0464 57.7758 16.47 56.617 17.1348 55.5962C17.3088 55.3256 17.4252 55.022 17.4765 54.7043C17.5278 54.3867 17.513 54.0619 17.4331 53.7502C17.2573 52.9697 16.9829 52.1519 17.2333 51.382C17.8007 49.6186 18.504 47.8978 18.1923 45.9851C18.1737 45.8706 18.2775 45.7454 18.3042 45.6202C18.6505 43.9526 19.0341 42.2957 20.0517 40.5589C17.9339 41.5445 16.1012 42.3943 14.5082 43.6063C13.0485 44.7676 11.3697 45.6229 9.57216 46.121C7.43237 46.6511 5.5406 47.9023 4.21524 49.6639C3.58925 50.463 2.55032 50.9798 2.24664 51.9921C1.77514 53.5664 0.960045 55.0022 0.88013 56.739C0.716509 59.6914 1.02126 62.6512 1.78314 65.5083H1.7858ZM74.6548 79.1231C76.7672 79.4161 78.6238 79.568 80.4352 79.9462C83.1689 80.549 86.0202 80.3218 88.6238 79.2936C91.4049 78.2094 94.0048 76.9414 95.8162 74.4028C97.0042 72.7352 97.6622 70.7374 99.1753 69.2616C99.6521 68.7955 99.3697 67.9297 99.0341 67.3597C98.7677 66.8882 98.2562 67.1865 97.822 67.2744C97.3816 67.3454 96.9335 67.3562 96.4901 67.3064C96.3451 67.3058 96.2026 67.2692 96.0752 67.1999C95.9478 67.1306 95.8396 67.0309 95.7602 66.9095C95.5898 66.5685 95.9494 66.414 96.1172 66.2062C96.4362 65.8438 96.8423 65.5687 97.2973 65.4071C98.4726 64.9113 99.5828 64.2734 100.603 63.5078C102.172 62.3543 103.776 61.2515 105.371 60.1407C105.531 60.0288 105.696 59.7811 105.952 59.9888C106.208 60.1966 106.029 60.3858 105.939 60.5882C105.72 61.0502 105.439 61.4796 105.102 61.8642C104.213 62.9297 103.075 63.7289 102.012 64.6079C100.795 65.6149 100.502 66.4593 100.79 68.1481C103.344 66.2169 106.298 64.9116 108.685 62.7859C111.438 60.3688 114.493 58.3176 117.771 56.6831C119.343 55.8839 120.766 54.8184 122.169 53.7395C122.969 53.1322 123.661 52.3863 124.402 51.7017C124.324 51.6139 124.224 51.5494 124.112 51.5155C124 51.4816 123.881 51.4797 123.768 51.5099C122.106 51.5472 120.611 52.2238 119.082 52.7646C116.839 53.5637 114.993 55.138 112.761 55.9611C109.063 57.309 105.726 59.4055 102.175 61.065C97.7022 63.1588 93.3335 65.4497 88.4774 66.6005C87.0176 66.9468 85.5471 67.365 84.1753 68.1375C84.4416 68.3852 84.9585 68.1828 84.9505 68.6703C84.9425 69.1578 84.5082 69.0725 84.2285 69.1631C82.2476 69.7747 80.2005 70.1467 78.1311 70.2712C75.9467 70.4417 73.7731 70.7267 71.7672 71.7869C70.0837 72.6767 68.219 73.324 66.3383 73.0949C64.0075 72.8099 62.8194 74.4828 61.1465 75.4337C61.8045 75.9186 62.3905 75.9665 63.0272 75.6442C63.8263 75.2526 64.6761 75.2099 65.5498 75.2366C67.3745 75.2925 69.1992 75.2739 70.9041 74.4774C72.3667 73.7677 73.9258 73.2768 75.5312 73.0203C77.268 72.7539 78.853 71.9548 80.5552 71.5978C80.8935 71.5232 81.333 71.1982 81.5727 71.7123C81.7725 72.1412 81.3836 72.413 81.1492 72.7033C80.6617 73.308 79.8972 73.6596 79.4763 74.5094C80.2755 74.243 80.9227 74.0432 81.4555 73.5664C83.3815 71.8429 85.643 70.6362 87.9712 69.6186C89.9531 68.7635 92.0229 68.1215 93.869 66.9548C93.9752 66.8834 94.092 66.8295 94.2152 66.7949C94.3194 66.7494 94.4362 66.7416 94.5455 66.7727C94.6549 66.8038 94.7499 66.8719 94.8146 66.9654C94.9504 67.1839 94.78 67.333 94.6654 67.4716C94.2679 67.8888 93.8066 68.2403 93.2989 68.5131C91.3809 69.7251 89.3671 70.7987 87.83 72.5461C87.3292 73.1188 86.5887 73.4092 85.8828 73.7315C83.6292 74.7598 81.3889 75.812 79.1753 76.9281C78.5519 77.2398 77.9978 77.682 77.2973 77.8418C76.3942 78.0203 75.659 78.5264 74.6521 79.1231H74.6548ZM89.4577 92.341C88.3282 93.3719 88.3282 93.3719 88.52 94.7225C88.813 96.771 88.8556 96.7896 90.5312 95.6122L90.6058 95.5536C94.5829 92.674 97.9926 89.2137 101.202 85.511C102.633 83.8621 103.627 82.0906 104.074 80.0022C104.322 78.8821 104.792 77.8231 105.457 76.8882C106.12 75.9212 106.618 74.7358 106.346 73.6463C105.856 71.6964 105.337 69.7491 104.833 67.7859C103.693 68.4865 103.682 68.4891 103.97 69.6639C104.114 70.2499 104.295 70.8226 104.463 71.4007C104.86 72.7672 105.262 74.1311 105.71 75.6841C105.296 75.3159 105.015 74.8215 104.911 74.2776C104.445 72.6989 103.995 71.1139 103.56 69.5227C103.507 69.3282 103.48 69.0832 103.294 69.0645C103.144 69.0485 102.963 69.2164 102.817 69.3309C102.438 69.6239 102.566 70.0528 102.612 70.3964C102.726 71.3101 102.907 72.2132 103.078 73.1189C103.286 74.235 103.512 75.3485 103.73 76.4646L103.493 76.5126C102.785 74.4002 102.558 72.1732 102.111 69.9223C101.938 70.0608 101.706 70.17 101.717 70.2552C101.938 72.5941 101.551 74.9569 102.132 77.2797L101.866 77.3197C101.693 76.4673 101.522 75.6175 101.36 74.821C99.7613 76.0171 100.84 77.5595 100.877 79.0832C100.715 78.9313 100.611 78.8807 100.584 78.8168C100.206 78.0842 100.627 76.9521 99.4603 76.5978C99.3218 76.5579 99.4443 76.3128 99.4789 76.1583C99.7169 74.9115 99.5362 73.621 98.9648 72.4875C98.2856 72.7193 98.2856 73.2707 98.3681 73.8194C98.4347 74.2909 98.5892 74.7465 98.6532 75.218C98.8796 76.8402 99.3644 78.4305 99.1486 80.1194C98.749 77.9031 98.3495 75.6894 97.934 73.4092C95.5552 74.9595 97.1161 76.9734 96.9696 78.7821L96.2504 76.2568C95.7416 78.9207 94.3537 81.081 94.1033 83.5904C93.9888 84.7411 93.2802 85.2259 92.2387 84.837C92.0229 84.7571 91.935 84.805 91.8711 84.9276C91.2771 86.0597 90.7709 87.2371 90.9707 88.5397C91.2878 90.343 91.7257 92.1228 92.2813 93.8674C91.2903 92.5781 91.2158 90.9372 90.6484 89.3202C90.3234 90.0874 90.0624 90.6868 89.812 91.2915C89.5189 92.008 90.0224 92.6234 90.0783 93.3133C90.1236 93.9233 90.5019 94.4961 90.2355 95.178C89.9877 94.2244 89.724 93.2947 89.455 92.333L89.4577 92.341ZM117.937 70.6202L118.155 70.796C119.767 68.8834 121.4 66.992 122.982 65.0581C125.67 61.7757 128.852 58.9313 132.414 56.6271C134.279 55.4124 135.67 53.7475 137.18 52.1865C137.268 52.096 137.345 51.992 137.233 51.8375C136.474 51.8368 135.729 52.0481 135.084 52.4476C134.751 52.6367 134.263 53.1455 133.933 52.5594C133.666 52.072 134.218 51.7763 134.548 51.4939C134.787 51.3354 135.046 51.21 135.318 51.121C135.814 50.9079 136.33 50.7401 136.804 50.487C137.337 50.202 137.604 49.829 136.791 49.5413C135.63 49.1258 135.337 48.2094 135.379 47.1146C135.395 46.8902 135.395 46.665 135.379 46.4406C135.353 46.1742 135.518 45.7693 135.073 45.772C134.911 45.79 134.761 45.8636 134.648 45.9803C134.535 46.0969 134.466 46.2493 134.452 46.4113C134.451 46.6324 134.474 46.8529 134.519 47.0693C134.562 48.1801 134.871 49.2749 134.716 50.4097C134.202 49.2536 134.396 47.9484 134.047 46.7496C132.857 47.1572 133.011 48.0096 133.142 48.8993C133.294 49.9649 133.555 51.0038 133.267 52.0959C133.056 50.7267 132.843 49.3602 132.617 47.9004C131.08 48.8674 132.513 50.2099 132.105 51.406C131.669 50.5296 131.642 49.6825 131.365 48.6117C130.795 49.7891 128.813 49.5413 129.407 51.374C129.482 51.6085 129.234 51.7709 129.079 51.9281C128.696 52.317 128.325 52.7273 127.913 53.0762C126.884 53.9659 126.021 54.9409 125.558 56.2728C125.204 57.2904 124.428 57.9377 123.4 58.3053C121.882 58.846 120.575 59.8565 119.671 61.1902C119.442 61.5205 119.532 61.747 119.796 61.8962C120.06 62.0453 120.329 61.8642 120.489 61.6298C120.648 61.3954 120.371 61.0677 120.806 60.6388C120.67 61.438 121.565 61.6298 121.463 62.1838C121.317 63.007 121.253 63.7821 121.557 64.5973C120.973 64.5973 121.29 63.8967 120.877 63.8887C120.03 64.7944 120.406 65.8733 120.52 66.9015C119.988 66.7736 120.291 66.3448 119.945 66.1023C119.484 67.7459 119.151 69.3762 117.934 70.6202H117.937ZM33.7757 83.7635C34.3085 83.8967 34.8412 83.8781 35.3154 84.0912C36.1146 84.4508 36.7619 84.1844 37.4465 83.7635C39.0208 82.8045 40.4725 81.6325 42.2094 80.9558C43.7748 80.3234 45.2776 79.5457 46.6979 78.633C47.4653 78.1194 48.3022 77.7184 49.1833 77.4422C49.2688 77.4041 49.365 77.3968 49.4553 77.4215C49.5457 77.4463 49.6246 77.5016 49.6787 77.5781C49.8172 77.7512 49.7001 77.8924 49.5855 77.9937C48.0618 79.3256 46.7219 80.8759 44.6095 81.4326C42.3425 82.032 40.635 83.5983 38.8956 85.0981C39.7293 85.756 40.3847 85.6548 41.1066 85.0368C41.72 84.5217 42.4001 84.0916 43.1284 83.7582C43.5094 83.5771 43.552 83.0256 43.9062 83.0309C44.9558 83.0522 45.5871 82.5808 45.9148 81.4113C46.2771 82.6633 46.6553 81.6964 47.0256 81.6138C47.7768 81.4433 47.212 80.6202 47.7341 80.1673C47.7714 81.0437 48.0831 81.0757 48.6745 80.6761C49.7627 79.953 51.0313 79.548 52.3372 79.5067C54.9584 79.4081 56.7406 77.9777 58.4907 76.1343C56.2264 75.431 54.1407 74.536 52.0496 73.6623C50.8286 73.1712 49.5534 72.8278 48.251 72.6394C48.0522 72.5897 47.8441 72.5902 47.6455 72.6409C47.447 72.6916 47.2642 72.7908 47.1135 72.9297C45.9105 73.9758 44.5469 74.8213 43.0751 75.4337C41.2957 76.1849 39.748 77.3437 38.2962 78.6303C39.9824 77.9058 41.6446 77.1412 43.2989 76.3554C43.6745 76.1769 44.0367 75.9745 44.4683 76.0038C44.684 76.0038 44.9584 75.9265 45.0756 76.1689C45.1274 76.2862 45.1437 76.4161 45.1224 76.5425C45.1011 76.669 45.0431 76.7863 44.9558 76.8802C44.5242 77.4689 43.9169 77.8098 43.3149 78.1775C40.1769 80.0794 37.1268 82.1572 33.773 83.7635H33.7757ZM129.047 51.3421C128.001 51.3581 127.42 51.8748 126.871 52.4795C123.994 55.5856 120.648 57.999 116.661 59.5094C115.608 59.8618 114.604 60.3441 113.672 60.9452C114.498 61.731 114.708 62.4103 114.452 63.4039C114.277 64.0832 114.138 64.7358 114.332 65.463C114.497 65.9559 114.46 66.4938 114.231 66.9601C113.797 67.7379 113.411 68.5584 112.961 69.3122C112.782 69.6159 112.681 70.0768 112.161 70.0315C111.69 69.9915 111.826 69.4694 111.533 69.2323C111.226 70.3725 110.734 71.4806 110.907 72.658C111.08 73.8354 111.067 75.0288 110.273 76.3394C112.138 75.3356 113.942 74.2238 115.678 73.0096C115.96 72.8045 116.149 72.5648 116.077 72.2105C115.731 70.4337 116.045 68.6223 115.779 66.8402C115.659 66.0411 115.611 65.2419 115.933 64.4747C116.117 67.0906 116.389 69.6958 116.408 72.349C116.986 71.7177 117.542 70.9851 117.566 70.2366C117.604 69.0139 117.236 67.7832 117.151 66.5472C117.066 65.3112 116.746 64.0885 116.9 62.8472L117.167 62.8285C117.396 65.0927 117.625 67.357 117.859 69.6905C119.29 68.1934 118.624 66.5339 118.541 64.9169C118.483 63.7821 117.785 62.698 118.97 61.4779C120.214 60.1913 121.234 58.7022 122.931 57.9617C123.448 57.7485 123.914 57.4271 124.297 57.0191C124.68 56.6111 124.971 56.126 125.15 55.5962C125.518 54.5839 126.232 53.8727 127.063 53.2547C127.781 52.6795 128.444 52.0392 129.045 51.3421H129.047ZM57.7075 86.2062C58.6585 85.3645 59.5189 84.5547 60.43 83.8088C61.341 83.0629 62.3505 82.3224 63.3255 81.6005C63.4012 81.5583 63.4676 81.5012 63.5208 81.4328C63.574 81.3643 63.6127 81.2858 63.6349 81.202C63.657 81.1182 63.6621 81.0308 63.6496 80.945C63.6372 80.8592 63.6076 80.7768 63.5626 80.7028C60.1689 81.7896 58.3921 83.4998 56.3703 85.4976C56.2637 85.5904 56.1797 85.7063 56.1248 85.8365C56.0698 85.9667 56.0453 86.1078 56.0532 86.2489C56.1271 87.7159 56.2935 89.1768 56.5514 90.6228C56.7725 92.0453 56.8871 92.0853 58.4161 92.2211C60.4939 92.389 62.5664 92.5621 64.5749 93.2148C66.1892 93.7475 67.878 94.0592 69.4576 94.6665C71.7832 95.5616 74.0234 94.5067 76.5328 94.6505C75.2222 94.1338 74.09 94.4081 72.9845 94.3495C71.8338 94.2883 70.7736 93.5184 70.8189 92.5941C70.8642 91.6697 71.0852 90.7827 71.8551 90.1966C72.3532 89.8264 72.5077 89.4481 72.2786 88.894C71.3836 89.1018 70.8028 89.6213 70.6377 90.5642C70.6004 90.2339 70.5605 89.901 70.5232 89.568C69.5668 89.7651 68.6904 89.9809 68.9888 91.3527C68.9009 90.5003 68.6159 90.1034 67.7555 90.1274C67.0602 90.1487 66.7033 89.6399 66.7033 88.9074C66.7033 87.3597 66.9403 85.9105 68.219 84.8424C68.2801 84.8047 68.3322 84.7542 68.3719 84.6944C68.4115 84.6345 68.4377 84.5668 68.4486 84.4959C68.4594 84.4249 68.4548 84.3525 68.435 84.2835C68.4151 84.2146 68.3805 84.1507 68.3335 84.0965C67.0549 85.3192 65.8988 86.5685 65.3714 88.3027C64.9292 89.7491 64.17 90.1673 62.7075 89.901C62.2532 89.8044 61.8262 89.6078 61.4575 89.3253C61.0888 89.0428 60.7879 88.6816 60.5765 88.268C59.9878 87.2025 59.2632 87.1119 58.235 87.3623C57.7981 87.4689 57.6142 87.5009 57.7874 88.007C57.9438 88.5647 58.0666 89.1314 58.155 89.7038C57.4012 88.2627 56.9457 86.7869 57.6223 85.1753C57.6436 85.479 57.6836 85.7853 57.7075 86.2062ZM79.3138 8.52375C78.781 9.02189 78.2243 9.5147 77.6916 10.0235C76.4049 11.2921 74.7784 12.1609 73.0085 12.5248C71.8524 12.7566 70.6564 12.7912 69.495 12.9777C67.1268 13.3826 64.6707 13.3666 62.3905 14.1151C58.6088 15.3252 55.0489 17.1416 51.8498 19.4934C49.122 21.5232 46.3809 23.5051 43.3628 25.1087C40.9893 26.3661 38.6505 27.698 36.3756 29.1418C35.2355 29.8663 34.6601 30.8546 34.3964 32.2132C35.2808 31.4833 36.3303 31.0517 36.666 29.8956C36.7033 29.7731 36.903 29.528 36.967 29.6665C37.3292 30.4657 37.609 29.6852 37.8407 29.5973C38.4321 29.3708 38.9595 28.7981 39.5429 28.7502C42.8247 28.4838 45.691 27.3597 47.8487 24.837C50.0064 22.3144 52.3372 20.2552 55.667 19.6079C56.9226 19.3468 58.1013 18.7999 59.1114 18.0096C60.422 17.0373 61.7246 16.0464 63.3096 15.5376C64.0688 15.2925 64.8652 15.1433 65.5578 14.7384C67.1828 13.7688 68.9569 13.5078 70.8162 13.5477C74.6574 13.617 77.4358 11.8109 79.3138 8.51042V8.52375ZM84.7054 96.1956C84.4816 93.1162 83.7197 90.2526 83.8929 87.3277C84.2365 89.2803 84.447 91.2435 84.692 93.2041C84.8039 94.1498 84.9585 95.0901 85.0863 96.0358C85.1663 96.6271 85.5631 96.7177 86.0613 96.6591C86.7352 96.5765 86.2265 96.1849 86.2158 95.9585C86.1945 95.4524 86.0905 94.9516 86.0293 94.4455C85.7789 92.3144 85.5258 90.1993 85.2887 88.0762C85.2434 87.6633 85.1689 87.2291 85.4646 86.8429C85.6495 87.568 85.7716 88.3077 85.8295 89.0538C85.992 91.4087 86.2824 93.7448 86.6047 96.081C86.6028 96.1601 86.6178 96.2387 86.6485 96.3115C86.6792 96.3844 86.725 96.4499 86.7829 96.5038C86.8408 96.5576 86.9094 96.5986 86.9843 96.624C87.0592 96.6494 87.1387 96.6586 87.2174 96.6511C88.1737 96.7123 88.5067 96.3554 88.2829 95.4257C88.0592 94.4961 87.553 93.5184 87.5556 92.69C87.5556 91.2941 87.2094 89.9889 87.0655 88.6436C86.9794 88.0506 87.0075 87.4467 87.1481 86.8642C87.4145 88.2547 87.5717 89.6399 87.9153 91.073C88.7411 89.6692 88.6478 88.2521 88.3015 86.6751C88.7491 86.9414 88.7065 87.1146 88.7278 87.2664C88.7491 87.4183 88.7811 87.6367 88.9489 87.6527C90.4806 85.0954 89.9292 82.2611 90.1343 79.5174C89.4923 79.7838 88.861 80.162 88.1897 80.2606C85.8801 80.6016 84.8439 82.0507 84.3298 84.1791C84.0101 85.511 83.3335 86.755 83.3362 88.1508C83.3362 89.9782 83.2882 91.771 82.6516 93.5291C82.4544 94.0618 82.4651 94.8877 83.1284 95.2766C83.5813 95.5296 84.0687 95.7614 84.7054 96.1822V96.1956ZM94.6148 15.3698C95.2381 16.081 95.382 16.8961 95.4139 17.7406C95.4459 18.585 95.4139 19.4801 95.4805 20.3405C95.7469 23.1588 96.7245 25.5483 99.4763 26.8509C99.8136 27.0344 100.137 27.2428 100.443 27.4742C103.722 29.6639 106.405 29.4961 109.399 27.4742C112.393 25.4524 112.902 23.9633 110.997 20.5722C110.808 20.2393 110.552 19.9436 110.355 19.6133C107.745 15.2472 102.348 14.0192 98.5333 15.4817C97.2121 15.9691 95.9147 16.0198 94.6148 15.3485V15.3698ZM107.782 72.6713L107.532 72.7246C107.375 72.1918 107.22 71.6591 107.065 71.1263C106.883 72.2344 106.807 73.3575 106.839 74.4801C106.874 75.6769 106.445 76.841 105.643 77.73C105.196 78.2318 104.869 78.8283 104.687 79.4747C104.346 80.5856 104.154 81.7363 103.48 83.0043C104.049 82.5533 104.474 81.9459 104.703 81.2569C105.025 80.2762 105.568 79.3824 106.289 78.6437C107.011 77.905 107.891 77.341 108.864 76.9947C109.279 76.8345 109.631 76.5426 109.865 76.1636C110.512 75.2046 110.555 74.1311 110.505 73.031C110.414 71.0757 111.107 69.2856 111.722 67.4849C111.799 67.2664 111.903 66.9308 112.223 66.9867C112.542 67.0427 112.489 67.3836 112.462 67.618C112.425 68.1508 112.353 68.7076 112.287 69.3495C112.979 68.4838 113.869 66.7443 113.76 66.1876C113.569 65.0896 113.626 63.9627 113.928 62.8898C114.167 61.9041 113.632 61.5072 112.665 61.7363C110.624 62.2238 109.274 63.6729 107.755 65.138C108.387 65.2233 108.749 65.519 108.914 65.9372C109.556 67.5488 109.468 69.3203 110.001 70.9665C109.303 70.0528 109.3 68.8914 108.885 67.8178C108.698 68.0682 108.461 68.2361 108.445 68.4225C108.323 69.821 109.095 71.0864 109.119 72.4636C108.587 71.6298 108.413 70.6814 108.2 69.7464C108.147 69.5253 108.15 69.2137 107.947 69.1631C107.662 69.0778 107.564 69.4295 107.401 69.5973C107.175 69.837 107.233 70.1034 107.305 70.3964C107.497 71.1396 107.628 71.9015 107.782 72.658V72.6713ZM63.3735 28.3799C63.7518 28.3799 63.9355 28.4332 64.0687 28.3799C65.4006 27.7619 66.6553 28.0469 67.9446 28.5744C68.9728 28.9953 70.1263 29.4827 71.1891 29.1071C72.521 28.6276 73.765 28.8408 75.0437 29.0805C75.4156 29.1765 75.8021 29.2036 76.1838 29.1604C78.5812 28.7289 80.6377 29.536 82.577 30.8147C83.0538 31.129 83.5573 31.4779 84.1433 31.4753C85.5285 31.4753 86.9004 31.2089 88.3122 31.2355C87.4251 30.8786 86.4688 30.5376 86.1119 29.6372C85.073 27.048 83.2163 24.536 85.0223 21.5445C85.0756 21.4593 85.342 21.2116 85.0223 21.113C83.9888 20.7933 84.2685 20.0475 84.3884 19.3202C84.594 18.325 84.9346 17.3624 85.4007 16.4593C85.4779 16.2888 85.7549 16.113 85.4646 15.8333C84.2845 16.4406 83.2829 17.3384 82.1774 18.0842C81.7219 18.3906 82.0842 18.6916 82.3346 18.8194C83.8903 19.6186 83.8077 20.9745 83.6452 22.389C83.5013 23.625 83.4534 24.821 83.813 26.081C84.1247 27.1705 84.7613 28.015 85.2675 28.9606C85.5338 29.4614 85.9467 30.0262 85.4379 30.5403C84.9291 31.0544 84.162 31.073 83.4747 30.7454C83.1877 30.6008 82.9194 30.4219 82.6756 30.2126C81.2539 29.1 79.4714 28.5516 77.6702 28.6729C76.0719 28.7475 74.5722 28.4065 73.0192 28.3586C72.5234 28.3696 72.0326 28.2561 71.5919 28.0285C71.1513 27.801 70.7747 27.4666 70.4966 27.056C70.2352 26.6678 69.8756 26.3558 69.4545 26.1518C69.0334 25.9478 68.5657 25.859 68.0991 25.8945C67.1002 25.9425 66.9057 25.5882 67.3 24.6639C67.398 24.4282 67.5184 24.2026 67.6595 23.9899C67.9446 23.569 67.926 23.3053 67.3586 23.1908C67.054 23.1445 66.7787 22.9836 66.589 22.7409C66.3993 22.4982 66.3097 22.1922 66.3383 21.8855C66.3383 21.0411 66.0719 19.9969 67.1188 19.6159C68.8183 18.9846 69.756 17.4422 71.333 16.4779C71.1842 16.4627 71.0343 16.4627 70.8855 16.4779C69.1353 17.0826 67.7315 18.2973 66.2104 19.2723C65.6822 19.5918 65.285 20.0889 65.0898 20.6746C64.8945 21.2603 64.9141 21.8963 65.1449 22.4689C65.3287 22.975 65.3926 23.5344 65.5818 24.0272C65.9813 25.0927 65.7389 25.9718 64.9851 26.7523C64.5242 27.2425 64.0181 27.7273 63.3735 28.3666V28.3799ZM91.1651 68.9926C89.431 69.56 87.6463 69.9729 86.1519 71.0091C84.5536 72.1146 82.6676 72.7699 81.2877 74.2217C80.9414 74.584 80.326 74.6932 79.8412 74.9303C79.5748 75.0661 79.2739 75.1407 79.0261 74.9436C78.7091 74.6932 78.9968 74.4108 79.0714 74.1604C79.2499 73.5451 79.7267 73.1562 80.1662 72.7326C80.3979 72.5089 80.747 72.381 80.8828 71.9681C80.7046 71.9567 80.5256 71.9675 80.35 72.0001C77.862 72.8711 75.2888 73.4785 72.8007 74.3442C70.2541 75.2313 67.7209 75.7827 65.0331 75.6335C64.3112 75.5936 63.6612 75.8573 62.9659 76.1503C63.2522 76.4275 63.6136 76.6144 64.0053 76.6878C64.397 76.7612 64.8017 76.7179 65.1689 76.5632C66.1632 76.1949 67.2356 76.0884 68.2829 76.2542C68.8845 76.3216 69.4914 76.3279 70.0943 76.2728C72.2067 76.1796 74.1859 75.4151 76.2531 75.1008C76.935 74.9969 77.0842 75.2339 76.951 75.8066C76.8134 76.2355 76.5588 76.6175 76.2158 76.9095C75.8748 77.2638 75.4779 77.5728 75.2914 78.1002C77.0043 77.4955 78.5253 76.5872 80.1209 75.8599C81.9989 75.0049 83.7891 73.9473 85.7496 73.2707C86.2081 73.1269 86.6342 72.8953 87.0043 72.5888C88.3602 71.3527 89.439 69.8077 91.1651 68.9793V68.9926ZM144.327 30.13C144.01 30.3218 143.904 30.4976 143.978 30.9611C144.436 33.7821 144.828 36.6111 145.196 39.4428C145.267 40.0048 145.427 40.0341 145.827 39.7651C147.108 38.8994 147.958 37.6687 148.672 36.3288C148.931 35.8042 148.983 35.2013 148.818 34.6399C148.647 33.8877 148.612 33.111 148.714 32.3464C148.818 31.3234 148.89 30.3032 148.917 29.2776C148.923 28.2831 148.834 27.2903 148.65 26.3128C148.493 25.3485 148.23 24.3975 148.059 23.649C146.964 25.9265 146.772 28.4651 147.444 31.0863C146.799 30.0395 146.97 28.8008 146.378 27.7539C146.269 30.2019 146.871 32.5941 146.946 35.0181L146.695 35.0528L145.819 28.5903C145.666 28.6513 145.54 28.7663 145.466 28.9136C145.392 29.0608 145.374 29.2301 145.417 29.3895C145.497 30.0847 145.6 30.7774 145.683 31.4699C145.782 32.2265 146.216 33.2281 145.896 33.6783C145.406 34.3602 145.728 34.829 145.787 35.3831C145.883 36.2994 146.027 37.2105 146.16 38.2014C146.011 38.0975 145.925 38.0736 145.909 38.0256C145.411 36.5099 145.31 34.9223 145.078 33.3559C145.057 33.2147 145.14 33.0389 145.249 33.0736C145.726 33.2281 145.622 32.9057 145.529 32.7139C145.382 32.4049 145.481 32.0667 145.382 31.779C145.137 31.0677 145.363 30.2499 144.91 29.4667C144.607 30.4337 145.233 31.2462 144.91 32.2052C144.436 31.4993 144.831 30.6841 144.327 30.1167V30.13ZM64.2339 83.8061C63.9593 83.3637 63.8195 82.8509 63.8317 82.3304C63.8317 81.8775 63.6931 81.7443 63.2696 82.064C62.0842 82.9857 60.9147 83.9286 59.8066 84.9249C59.2552 85.4257 58.6611 85.8759 58.3202 86.6138C58.5546 86.6138 58.7144 86.6138 58.8743 86.6138C59.8439 86.5845 60.723 86.6351 60.9707 87.8818C61.04 88.2467 61.4076 88.577 61.6926 88.8727C62.7342 89.9383 64.1406 89.6452 64.6068 88.2307C64.8378 87.3611 65.2988 86.5697 65.9414 85.9398C66.1184 85.8004 66.2474 85.6092 66.3105 85.3928C66.3735 85.1765 66.3674 84.9458 66.293 84.7331C66.1279 84.2004 66.1891 83.6676 66.1492 83.1135C66.0746 82.1546 65.968 81.1956 65.8828 80.3085C63.9222 80.8333 63.9222 82.2265 64.2339 83.7928V83.8061ZM100.592 31.3288C99.178 31.9867 97.6462 32.016 96.1678 32.3144C94.0661 32.7352 91.8338 32.5808 89.9265 34.0778C88.5386 35.1594 86.6526 35.447 84.8652 35.5136C83.0778 35.5802 81.1998 35.4683 79.3724 35.5482C78.2829 35.5962 77.1801 35.6069 76.2158 36.398C73.3628 38.7342 69.9398 39.5786 66.3596 39.7411C63.227 39.8823 60.089 39.4561 56.9457 39.7411C55.6137 39.8636 54.2818 40.0821 52.9366 40.0421C53.6008 40.1262 54.2711 40.1521 54.9398 40.1194C57.3053 39.9995 59.6681 39.7704 62.0416 39.9622C62.7422 40.0182 63.4427 40.1194 64.146 40.1487C68.2456 40.3298 72.1082 39.2723 75.8801 37.8152C77.4011 37.2463 79.0021 36.92 80.6244 36.8482C82.8221 36.7177 85.0357 36.6671 87.2014 36.1689C90.1769 35.4843 92.9926 34.2883 95.9254 33.4678C97.5689 32.9574 99.1381 32.2328 100.592 31.3128V31.3288ZM65.9627 78.8594C64.8572 78.4279 63.9702 78.0869 63.0858 77.7379C62.3614 77.4254 61.5533 77.3642 60.7901 77.5641C60.0269 77.7639 59.3525 78.2133 58.8743 78.8407C57.7617 80.2819 56.3216 81.4371 54.6734 82.2105C53.9657 82.5751 53.2886 82.9965 52.6489 83.4705C52.4092 83.6383 51.9803 83.7875 52.1508 84.2856C52.9766 83.9766 53.7651 83.6596 54.5695 83.3932C54.8759 83.292 55.2941 83.0976 55.5072 83.4891C55.6937 83.8301 55.31 84.0539 55.1262 84.3016C55.0221 84.423 54.9062 84.5336 54.78 84.6319C54.0847 85.2659 54.0847 85.2659 54.3724 86.2435C55.4007 85.6149 56.1625 84.6985 57.0176 83.8887C58.6399 82.357 60.43 81.1077 62.6383 80.5722C63.2536 80.4204 63.5706 80.122 63.472 79.4321C63.4321 79.1418 63.3228 78.7582 63.7943 78.4039C63.8236 78.9873 63.8476 79.4454 63.8769 80.0022L65.9627 78.8594ZM89.5695 90.6335C89.9371 90.1007 90.0544 89.568 90.2621 89.0725C90.5285 88.4412 90.1183 87.6341 90.3687 87.2531C90.9467 86.3847 91.0346 85.3458 91.5994 84.5014C91.8924 84.0645 92.0629 83.601 92.609 84.2883C92.9313 84.6959 93.2056 84.267 93.2989 84.0219C93.4282 83.6273 93.5026 83.2167 93.52 82.8019C93.5713 82.0055 93.7815 81.2275 94.138 80.5136C94.9592 78.9242 95.528 77.2167 95.8242 75.4524C94.6987 76.8544 93.2745 77.9874 91.6553 78.7688C90.9148 79.1231 90.6697 79.6665 90.619 80.4337C90.5738 81.1503 90.8268 81.8216 90.8295 82.5248C90.8295 84.2936 90.1609 85.8812 89.4976 87.4582C89.2724 87.957 89.1628 88.5003 89.1771 89.0473C89.1914 89.5944 89.3292 90.1312 89.5802 90.6175L89.5695 90.6335ZM49.9957 84.8743C51.4262 84.4188 51.8178 83.308 51.8604 81.9441C52.1587 82.4023 51.8098 82.8924 52.0922 83.1775C55.3074 81.4753 57.8567 78.878 60.9281 76.9441C60.0463 76.4593 59.2072 76.2062 58.4054 77.1332C58.0642 77.5185 57.6918 77.8749 57.292 78.1988C56.2717 79.0432 55.2248 79.7305 53.7757 79.7065C52.537 79.6852 51.3437 80.1247 50.1769 80.5856C49.6441 80.7933 49.5163 81.0837 49.5882 81.5951C49.7374 82.7166 49.8652 83.8221 49.9957 84.8743ZM47.569 82.2451C46.1439 82.8791 46.1279 82.983 46.3729 84.4721C46.5381 85.471 46.5594 86.4939 46.6393 87.5035L46.3729 87.5275C46.2078 86.0863 46.0399 84.6426 45.8641 83.1242C45.6452 83.2577 45.4184 83.3778 45.1849 83.4838C44.3351 83.7875 43.8716 84.2536 44.1406 85.2579C44.2685 85.7427 44.162 86.2888 44.162 86.9867C43.5786 86.2196 43.8317 85.5216 43.7864 84.877C43.7491 84.3442 43.5439 84.2803 43.1417 84.528C42.4118 84.9809 41.6873 85.4417 40.8508 85.9691C43.2483 87.0613 45.6457 87.7592 48.0032 88.5264C48.5359 88.7022 48.4294 88.316 48.3628 88.0602C47.87 86.1796 48.0005 84.211 47.561 82.2531L47.569 82.2451ZM136.424 51.2302C137.436 51.4673 138.059 51.137 138.728 50.431C140.102 48.9846 140.124 46.9388 141.192 45.3698C141.458 44.9702 141.149 44.5706 140.803 44.3042C140.457 44.0379 140.747 44.9595 140.313 44.5706C140.078 44.3682 140.35 43.9553 140.009 43.8221C139.773 43.7363 139.528 43.6782 139.279 43.6489C138.499 43.5291 137.878 43.8488 137.324 44.3655C137.103 44.5706 136.687 44.6133 136.762 45.0448C136.836 45.4763 137.207 45.3538 137.457 45.439C138.163 45.6841 138.318 46.0864 137.953 46.755C137.665 47.2877 137.135 47.5541 136.778 48.007C136.474 48.3932 136.36 48.7262 136.932 48.9873C137.356 49.1817 137.883 49.3229 137.873 49.9302C137.862 50.5376 137.319 50.7294 136.863 50.9345C136.711 51.028 136.565 51.1293 136.424 51.2382V51.2302ZM78.0698 85.7534C77.5743 86.3954 76.8871 86.6191 76.9483 87.4183C77.0789 89.0752 77.1828 90.7347 77.284 92.3916C77.3133 92.8658 77.284 93.34 77.284 93.8141H77.0176C76.8471 91.6964 76.6793 89.5813 76.5061 87.421C75.2301 88.2441 75.1742 88.3213 75.2408 88.9926C75.3633 90.2286 75.4539 91.47 75.6164 92.7006C75.6724 93.1082 75.6164 93.7848 76.024 93.8621C76.9963 94.0459 77.7421 94.6612 78.7917 95.1434C78.195 92.0187 78.4268 88.9793 78.0698 85.7534ZM40.4113 72.5808C40.5738 73.8621 40.0889 75.1487 40.4113 76.4353C41.1385 76.2462 41.3863 75.8306 41.309 75.1034C41.2646 74.3939 41.2593 73.6824 41.293 72.9723C41.293 72.7459 41.2664 72.5062 41.7086 72.4609V75.6575C43.512 74.7518 45.2221 73.9819 46.5461 72.5834C46.4951 72.5441 46.4386 72.5126 46.3783 72.4902C44.1247 72.1253 41.8311 72.2877 39.5722 71.9574C39.1646 71.8988 39.1726 72.1838 39.1993 72.4422C39.3671 73.9739 39.3671 75.5136 39.5029 77.072C40.3394 75.6974 39.5988 73.9926 40.4113 72.5808V72.5808ZM80.081 83.4225C78.8343 84.4881 78.3389 85.5909 78.6132 87.0933C78.8077 88.1588 78.6345 89.2723 78.6984 90.3618C78.789 91.8589 78.9462 93.3533 79.0794 94.8503C79.154 95.6814 79.8492 95.5243 80.3287 95.543C80.984 95.5669 80.6164 95.0102 80.5951 94.7438C80.4166 92.4449 80.2248 90.1514 80.2142 87.8418C80.2089 86.4193 80.0117 84.9889 80.081 83.4225V83.4225ZM65.1822 76.8056V77.1332C65.35 77.2078 65.5179 77.2877 65.6883 77.3543C67.9446 78.2307 70.3367 78.4678 72.7022 78.8354C73.5013 78.9579 74.3324 79.243 74.6441 77.9937C74.7666 77.4955 75.3474 77.1066 75.7363 76.6857C76.0645 76.376 76.3091 75.9884 76.4475 75.5589C72.6915 76.9654 68.9222 76.7656 65.1822 76.8056V76.8056ZM108.768 16.1316C107.569 13.1615 108.928 10.8732 110.75 8.85406C112.668 6.723 115.148 5.88391 118.041 6.49925C116.487 5.7001 114.966 5.31651 113.227 6.06771C111.543 6.79494 110.387 8.04425 109.162 9.3149C107.87 10.6468 107.588 12.1625 107.886 13.8567C108.03 14.6372 108.03 15.5083 108.768 16.1316V16.1316ZM51.7805 85.3432C51.0986 85.9319 49.9158 85.9825 50.1609 87.2744C50.2852 87.7984 50.3522 88.3343 50.3607 88.8727C50.3509 89.0188 50.3872 89.1644 50.4647 89.2887C50.5421 89.413 50.6567 89.5097 50.7922 89.5653C52.0175 90.0981 53.2137 90.7081 54.6361 91.1476C54.423 89.7731 54.2286 88.5025 54.0181 87.1519C53.4853 87.4502 52.846 87.5861 52.6356 87.951C52.3319 88.4838 52.8567 89.1658 52.7022 89.8157C52.4101 89.294 52.2398 88.713 52.204 88.1162C51.9376 88.2201 51.7432 88.2867 51.5514 88.3826C51.285 88.5078 50.9973 88.7182 50.7949 88.4199C50.5924 88.1215 50.9734 87.9857 51.1226 87.8099C51.698 87.1492 52.1188 86.4247 51.7805 85.3432V85.3432ZM100.43 1.16627C99.9864 1.19551 99.5415 1.19551 99.098 1.16627C97.1481 0.899884 94.2232 2.23178 93.5972 4.04851C92.9712 5.86524 93.5173 7.86845 93.9409 9.75444C94.1167 8.60366 94.5429 7.49284 94.1407 6.31543C94.0532 6.01849 94.0571 5.70207 94.1522 5.40745C94.2472 5.11282 94.4289 4.85369 94.6734 4.66387C96.4236 3.26536 97.9739 1.5099 100.43 1.1636V1.16627ZM23.0538 65.6468C22.878 64.4374 22.3878 63.7635 21.1598 63.5157C19.4576 63.1934 17.6542 63.0096 16.1705 62.0586C15.1449 61.4007 14.5589 61.7789 13.8609 62.397C16.967 63.4039 19.8173 65.0155 23.0538 65.6468ZM72.7555 87.9271L74.3218 86.8349C74.4319 86.7734 74.5228 86.6826 74.5844 86.5726C74.646 86.4625 74.6759 86.3376 74.6708 86.2116C74.677 84.6159 74.6032 83.0209 74.4496 81.4326C74.4283 81.2408 74.4337 81.0304 74.1433 81.0677C73.9142 81.0997 72.545 82.6367 72.585 82.8604C72.8513 84.4774 72.6223 86.113 72.7528 87.9271H72.7555ZM94.3111 21.129C94.28 21.7851 94.3796 22.441 94.6041 23.0583C94.8286 23.6757 95.1736 24.2423 95.619 24.7251C96.5541 25.7907 97.5956 26.771 98.3415 27.9484C99.8519 30.3458 102.18 30.17 104.498 30.202C101.78 30.3645 100.56 27.8871 98.536 26.8322C96.309 25.6655 95.8215 23.1455 94.3085 21.129H94.3111ZM104.932 60.8999C104.053 61.5099 103.166 62.1066 102.297 62.7273C100.75 63.8328 99.3911 65.2126 97.5291 65.8573C97.0655 66.0198 96.1971 66.2701 96.3889 66.7523C96.5807 67.2345 97.3958 66.9468 97.9472 66.7683C99.1486 66.3767 99.6468 66.739 99.7107 68.0203C99.724 68.2627 99.6361 68.5237 99.8172 68.7475C100.084 68.3186 100.084 68.3186 100.084 68.0123C100.153 66.414 100.486 64.9729 101.964 63.95C103.118 63.1428 104.186 62.2025 104.932 60.8999ZM74.8066 88.7875C74.2312 89.1897 73.7411 89.5387 73.2482 89.877C73.1136 89.9595 73.0048 90.0781 72.9341 90.2194C72.8635 90.3606 72.8339 90.5189 72.8487 90.6761C72.8913 91.5738 72.894 92.4742 72.9046 93.3719C72.9046 93.6836 72.9046 93.9526 73.3468 93.9393C73.9222 93.918 74.5003 93.918 75.0783 93.9393C75.398 93.9393 75.4459 93.7688 75.4113 93.5105C75.2142 91.9521 75.0171 90.4098 74.8066 88.7742V88.7875ZM84.5588 81.5099C83.5226 81.3847 83.163 81.9468 82.9393 82.7752C82.6915 83.6942 82.3266 84.5786 82.0335 85.487C81.8345 85.9591 81.7435 86.4697 81.7672 86.9814C81.9803 88.7262 82.1828 90.471 82.4225 92.4796C82.6779 91.6435 82.8501 90.7842 82.9366 89.9143C83.0245 88.8248 82.6702 87.7646 82.8221 86.6697C83.0885 84.829 83.9515 83.2174 84.5588 81.4966V81.5099ZM66.5621 85.0901C67.2147 84.4961 67.7049 84.0245 68.2136 83.601C68.2877 83.5435 68.3438 83.4662 68.3754 83.3779C68.407 83.2897 68.4128 83.1943 68.3921 83.1029C68.2749 82.0586 68.1657 81.0144 68.0725 79.9675C68.0192 79.3682 67.6089 79.2004 67.1321 79.2696C66.6553 79.3389 66.1545 79.6799 66.2158 80.194C66.4255 81.8135 66.5412 83.4438 66.5621 85.0768V85.0901ZM48.4853 78.1642C44.8785 80.511 40.7816 81.9867 37.1827 84.4667C37.9419 84.9995 38.48 85.0368 39.1913 84.3735C40.6324 83.0256 42.1827 81.6884 44.09 81.1343C45.9147 80.6122 47.1588 79.3735 48.4853 78.1642V78.1642ZM131.533 15.3485C131.586 15.5113 131.677 15.659 131.799 15.7791C131.921 15.8992 132.07 15.9881 132.233 16.0384C133.339 16.6031 134.282 17.0134 134.937 18.4358C135.736 20.162 136.021 21.8322 136.136 23.6223C136.17 24.1791 135.715 24.6719 135.832 25.487C136.301 24.267 136.754 23.2547 137.071 22.2025C137.207 21.7595 137.241 21.2911 137.169 20.8331C137.097 20.3752 136.921 19.9398 136.655 19.56C136.213 18.8701 135.398 18.4705 135.092 17.7779C134.402 16.1716 132.913 16.0118 131.533 15.3485ZM69.0954 89.3362C69.5589 88.894 70.4779 89.2643 70.5392 88.6063C70.6803 87.1039 70.5844 85.5802 70.5844 83.9153C70.1316 84.219 69.8413 84.4108 69.5562 84.6079C69.2712 84.8051 68.7997 84.9409 68.9115 85.4417C69.1806 86.6511 68.9649 87.8738 69.0954 89.3362ZM70.9601 88.8434C71.5434 88.7182 72.2467 88.5637 72.2653 88.0443C72.3266 86.3661 72.4571 84.6692 72.1481 82.9643C71.032 83.4971 70.9707 83.5291 70.9654 84.0938C70.9654 85.6548 70.9733 87.2238 70.9733 88.8434H70.9601ZM81.0319 95.503C81.3916 95.3938 81.634 95.3298 81.8737 95.2366C82.5131 95.0155 82.4997 94.6053 82.0389 94.2643C81.1998 93.641 80.9387 92.8019 80.992 91.8322C81.0772 90.2712 81.2584 88.7129 80.992 87.1492C80.9429 86.8622 80.9556 86.5679 81.0293 86.2862C81.4155 84.8637 81.0053 83.4785 80.7629 82.0826C80.4899 86.5536 80.5844 91.0395 81.0453 95.495L81.0319 95.503ZM49.9291 40.6548L49.8892 40.4151C44.106 41.8748 38.1018 42.4929 32.7182 45.1167C32.6702 45.1007 32.7182 45.1407 32.7874 45.1327C32.9429 45.1094 33.0968 45.0764 33.2483 45.0341C36.4928 44.2163 39.5615 42.8338 42.9579 42.4476C45.3181 42.1865 47.6063 41.2835 49.9291 40.6548ZM55.6057 86.2835C55.1689 86.6644 54.3431 86.6617 54.4204 87.4023C54.5535 88.6276 54.756 89.8477 54.9957 91.057C55.1023 91.6058 55.6883 91.5419 56.0906 91.6085C56.4502 91.6644 56.341 91.2835 56.309 91.1183C55.9728 89.5258 55.7378 87.9137 55.6057 86.2915V86.2835ZM22.91 64.0272C23.2722 64.7704 23.1763 65.6761 24.0341 65.8919C25.1614 66.2122 26.3253 66.3859 27.4971 66.4087C27.0415 65.7854 27.0256 64.9009 26.3836 64.6932C25.2994 64.3629 24.1513 64.259 22.91 64.0352V64.0272ZM75.0783 86.2062C75.6404 85.7028 76.277 85.4071 76.3356 84.8504C76.4449 83.8088 76.5062 82.7193 76.1625 81.707C76 81.2275 75.4513 81.3741 75.0783 81.2862C74.8119 81.2275 74.8332 81.5525 74.8652 81.7124C75.1422 83.1295 74.9505 84.576 75.0783 86.2062ZM49.1273 81.2728C48.2935 81.4726 47.8913 81.9468 48.0272 82.8392C48.1977 83.9526 48.3255 85.0714 48.4827 86.2595C49.2685 85.8333 49.7587 85.3378 49.5669 84.4801C49.3325 83.4199 49.5136 82.3064 49.1273 81.2702V81.2728ZM139.996 43.3506C140.017 43.0589 140.017 42.7659 139.996 42.4742C139.724 40.709 139.536 38.9331 139.431 37.1465C139.431 36.9095 139.508 36.5232 139.165 36.5205C138.898 36.5205 138.701 36.8375 138.669 37.1519C138.652 37.3433 138.652 37.5359 138.669 37.7273C138.792 39.2563 138.978 40.78 139.026 42.309C139.034 42.975 139.175 43.3346 139.996 43.3506ZM68.6825 85.2872C67.3506 86.3767 67.0842 87.5675 67.1374 88.8834C67.1641 89.4375 67.569 89.536 68.0219 89.5147C68.3229 89.5014 68.6878 89.5866 68.6851 89.0752C68.6665 87.9058 68.6745 86.739 68.6745 85.2872H68.6825ZM106.405 72.0453C106.277 71.1077 106.791 70.2419 106.671 69.3309C106.551 68.4199 106.36 67.5808 106.16 66.4993C105.79 67.032 105.185 67.1412 105.299 67.7752C105.525 69.231 105.892 70.6612 106.397 72.0453H106.405ZM138.224 37.682C137.75 38.2973 137.425 38.7289 137.505 39.3362C137.649 40.5056 137.785 41.6777 137.881 42.8525C137.913 43.2254 138.078 43.236 138.368 43.2387C138.749 43.2387 138.72 43.0789 138.688 42.7725C138.509 41.129 138.376 39.4881 138.216 37.674L138.224 37.682ZM107.012 68.918C107.529 68.3852 107.913 68.0017 107.793 67.3703C107.79 67.2534 107.826 67.1388 107.897 67.0453C108.77 67.1226 108.371 66.5126 108.288 66.2142C108.184 65.8493 107.838 65.495 107.425 65.6335C107.012 65.772 106.527 66.0011 106.575 66.5232C106.647 67.2718 106.839 68.0096 107.012 68.918ZM21.6526 40.6042C23.7597 38.7608 26.0453 37.1412 28.3309 35.5429C25.9574 37.032 23.2376 38.0922 21.6526 40.6042ZM27.0921 64.7571C27.7874 66.6218 27.7874 66.6218 30.3473 66.049C29.5828 64.7145 28.171 65.3058 27.0921 64.7571ZM137.193 39.5893C136.194 41.0864 136.642 42.5195 136.804 44.0379C137.145 43.7075 137.673 43.7209 137.604 43.1428C137.478 42.0213 137.345 40.8972 137.193 39.5893ZM76.7566 84.5413C77.5797 83.7795 78.3095 83.316 78.1257 82.2265C78.0032 81.5099 77.4545 81.7683 77.0949 81.6937C76.6021 81.5739 76.7672 82.024 76.7619 82.2638C76.7459 82.935 76.7566 83.6197 76.7566 84.5413ZM49.6867 86.6724C48.5786 87.024 48.5892 87.0293 48.6079 87.7619C48.6318 88.7049 49.1087 89.1711 50.057 89.2217C49.9585 88.3373 49.9425 87.4769 49.6921 86.6591L49.6867 86.6724ZM135.763 48.3799C136.192 47.9723 136.514 47.5514 136.898 47.1759C137.177 46.9095 137.665 46.6431 137.431 46.1663C137.196 45.6894 136.687 45.9745 136.298 45.9185C135.909 45.8626 135.744 46.0624 135.766 46.4673C135.782 47.1092 135.763 47.7486 135.763 48.3799ZM119.135 66.8136C119.961 65.4603 119.825 64.2696 119.455 63.007C119.189 63.1455 118.698 63.0815 118.717 63.3879C118.784 64.4827 118.97 65.5616 119.135 66.8189V66.8136ZM132.929 26.6298C132.886 27.0746 132.857 27.4529 132.809 27.8258C132.787 28.0016 132.787 28.1215 132.998 28.1775C133.762 28.3879 135.382 26.8136 135.251 25.8919C134.668 26.731 133.946 27.1519 132.929 26.6351V26.6298ZM32.0522 33.5744C33.3575 33.1002 34.2125 32.3357 34.2791 30.8466C33.2482 31.5579 32.1641 32.1306 32.0522 33.5797V33.5744ZM72.4731 90.5509C71.2344 91.6165 71.2611 93.0896 72.4731 93.6783V90.5509ZM31.6899 32.9031C30.7309 33.6223 29.9238 34.235 29.1007 34.8397C29.0216 34.8923 28.9633 34.9707 28.9356 35.0616C28.9079 35.1524 28.9126 35.2501 28.9488 35.3378C28.9914 35.5296 29.146 35.4843 29.2445 35.4257C30.2142 34.845 31.4608 34.5413 31.6899 32.9084V32.9031ZM74.6894 87.1519C74.114 87.9111 72.5051 87.7726 72.8247 89.568C73.5386 88.6303 74.9585 88.625 74.6894 87.1572V87.1519ZM84.9877 97.5408C84.6693 96.8508 84.1214 96.2925 83.4374 95.9612C82.8806 95.7134 82.918 96.0544 82.9366 96.3927C82.9899 97.2265 83.853 97.7086 84.9877 97.5541V97.5408ZM78.9249 13.1801C77.3585 13.2201 75.9041 13.6196 74.6868 14.7784C76.2691 14.6479 77.4837 13.641 78.9249 13.1934V13.1801ZM95.8668 61.3021L90.8056 63.1082C92.6463 62.8978 94.3831 62.389 95.8668 61.3155V61.3021ZM81.7486 84.0405C81.951 83.5424 82.1588 83.0469 82.3479 82.5461C82.4305 82.3197 82.6995 82.0134 82.4704 81.8615C82.2414 81.7097 81.9083 81.7656 81.642 81.8243C81.2344 81.9148 81.3516 82.3037 81.4102 82.5435C81.5381 83.0549 81.5861 83.5584 81.7566 84.0539L81.7486 84.0405ZM100.012 74.6799C100.34 73.8939 100.385 73.0181 100.14 72.2025C100.086 72.0267 100.14 71.6697 99.7906 71.763C99.4736 71.8322 99.4497 72.096 99.5056 72.365C99.6628 73.0762 99.8172 73.7742 100.02 74.6932L100.012 74.6799ZM53.7011 85.6735C53.2563 85.828 53.0005 86.2062 52.6702 86.5099C52.4305 86.7257 52.3106 87.0427 52.5211 87.2744C52.7315 87.5062 52.9633 87.1999 53.1764 87.1199C53.8796 86.8562 54.154 86.4007 53.7011 85.6735ZM88.1311 92.4929C89.463 91.6111 89.4337 91.2142 88.7837 90.0341C88.5839 90.812 88.3735 91.5898 88.1311 92.5035V92.4929ZM76.4795 85.6069C75.9814 86.3234 74.9078 86.406 75.2781 87.4715C76.5354 86.6777 76.5354 86.6777 76.4795 85.6175V85.6069ZM86.7192 12.6846C84.8536 12.4807 82.9679 12.558 81.1252 12.9137C82.9899 12.8684 84.8546 12.6527 86.7192 12.6846ZM52.3559 85.8813L53.4933 84.8876C53.5502 84.8321 53.5895 84.7612 53.6066 84.6835C53.6236 84.6059 53.6176 84.525 53.5892 84.4508C53.5546 84.3043 53.4427 84.3069 53.2989 84.3362C52.545 84.4801 52.1534 85.0901 52.3559 85.8786V85.8813ZM78.0458 84.0672C77.5423 84.6905 76.7139 84.9516 77.0415 86.0331C77.5157 85.4231 78.2323 85.1141 78.0565 84.0752L78.0458 84.0672ZM100.662 71.0704C100.632 72.1359 101.133 73.2254 100.686 74.3096C101.551 73.2387 100.947 72.1492 100.672 71.0677L100.662 71.0704ZM81.0773 96.2329C81.5441 96.562 82.0813 96.7773 82.6462 96.8615C82.4278 95.6815 82.4278 95.6815 81.0879 96.2302L81.0773 96.2329ZM68.9195 84.1897C69.4709 83.7609 70.3793 83.7262 70.6484 82.5914C69.9025 83.2121 69.0368 83.276 68.9302 84.1871L68.9195 84.1897ZM120.134 64.0006C120.75 63.2014 120.75 63.2014 120.6 62.4023C119.812 62.7939 119.751 62.9697 120.145 63.9979L120.134 64.0006ZM30.5924 65.6761C31.2744 66.2355 32.0576 65.8626 32.7928 65.9425C32.1108 65.5003 31.3516 65.6015 30.6031 65.6735L30.5924 65.6761ZM65.7416 79.7465C65.0783 79.7465 64.6308 80.1247 64.13 80.3831C63.8929 80.5056 63.8823 80.6495 64.0155 80.8333C64.1806 81.057 64.2818 80.8333 64.383 80.7534C64.8492 80.4204 65.2994 80.0794 65.7523 79.7438L65.7416 79.7465ZM136.333 42.4076H136.186C136.091 42.9404 136 43.4731 135.901 44.0059C135.872 44.1471 135.726 44.3149 135.989 44.3708C136.253 44.4268 136.333 44.2856 136.333 44.0485V42.4076ZM23.8636 44.805C24.162 48.7502 24.82 52.6127 26.5434 56.2249C25.1849 52.5328 24.5695 48.6649 23.8663 44.8157L23.8636 44.805ZM29.7746 56.3075C28.1604 53.0469 27.6596 49.6026 26.8791 46.0411C26.3916 47.6713 28.5919 55.4098 29.7773 56.3181L29.7746 56.3075ZM23.0032 55.8599C22.2041 52.682 21.8737 49.4348 21.5754 46.1902C21.5594 49.5094 21.7699 52.7726 23.0059 55.8706L23.0032 55.8599ZM65.1422 50.9318C63.4188 48.1535 62.6276 45.1087 61.7725 41.9095C61.301 43.4332 63.853 50.1593 65.1422 50.9318ZM67.2893 50.7773C65.691 47.983 64.7454 45.1833 63.7731 42.381C63.6079 43.8993 66.0266 49.7811 67.2733 50.7773H67.2893ZM32.0735 55.8226C30.8322 52.943 30.334 50.0528 29.9185 47.1279C29.5029 48.9926 30.9414 54.8503 32.0682 55.8226H32.0735ZM61.9856 49.9116C60.9387 47.2478 60.2675 44.4774 59.3671 41.763C59.8972 44.5786 60.5152 47.3783 61.9803 49.9116H61.9856ZM91.6366 22.7406L91.3703 22.9137C92.7022 25.146 94.1087 27.3357 95.9361 29.227C94.5047 27.0693 93.0698 24.9098 91.6313 22.7486L91.6366 22.7406ZM57.862 25.6388C59.0234 23.3639 59.7054 20.8839 60.7922 18.5611C59.383 20.7427 58.5812 23.1775 57.8567 25.6468L57.862 25.6388ZM34.4657 53.9073C33.7038 51.4566 32.7661 49.0618 32.1694 46.5472C32.3559 49.1791 33.3175 51.5765 34.4603 53.9153L34.4657 53.9073ZM97.926 40.7987C95.7337 39.8228 93.7014 38.5215 91.8977 36.9388C93.4396 38.8395 95.5507 40.1952 97.9206 40.8066L97.926 40.7987ZM66.1092 42.5675C66.5461 44.853 67.585 46.8722 68.9489 48.7368C67.8833 46.7363 66.975 44.6665 66.1039 42.5754L66.1092 42.5675ZM93.5253 29.3789C92.228 27.4849 91.3756 25.6308 90.4007 23.8274C90.4486 25.1274 92.3985 28.6676 93.52 29.3868L93.5253 29.3789ZM44.5642 59.3496C44.3165 60.9478 45.9201 64.1045 47.0842 64.3682C45.5684 63.0016 45.2408 61.089 44.5589 59.3575L44.5642 59.3496ZM79.9558 22.9244C79.9467 24.7693 80.3604 26.5918 81.1651 28.252C80.7833 26.4744 80.3785 24.7012 79.9505 22.9324L79.9558 22.9244ZM63.1524 16.5499C62.2334 18.2441 61.7165 20.0954 60.9201 21.9974C61.1491 21.8695 61.2691 21.8456 61.293 21.7843C61.9927 20.1203 62.6844 18.4518 63.3682 16.7789C63.4348 16.6191 63.2296 16.6191 63.123 16.5765L63.1524 16.5499ZM36.0186 52.0293C35.1609 50.3991 34.8972 48.5957 34.5083 46.8322C34.2099 48.2893 35.0623 51.2089 36.0186 52.0293ZM71.0559 47.1838C70.342 45.5856 69.6734 43.9873 68.9249 42.3543C69.2587 44.1053 69.9876 45.757 71.0559 47.1838V47.1838ZM95.1475 36.3687C96.4248 37.6883 98.0507 38.6176 99.8359 39.0485C98.2212 38.2494 96.6556 37.3546 95.1475 36.3687V36.3687ZM36.1066 46.0864C36.325 47.7965 36.7352 49.4375 37.8034 50.82C37.0416 49.2909 36.7672 47.6181 36.1066 46.0864ZM87.7022 28.7129C87.1481 27.333 86.4289 26.0171 85.992 24.5733C85.9734 26.1743 86.7405 27.4795 87.6888 28.7129H87.7022ZM55.9734 63.2094C54.6628 62.024 54.2712 60.5616 53.6052 59.0459C53.4694 60.4977 54.6628 62.6287 55.9601 63.2094H55.9734ZM78.5413 23.0975C78.2243 24.5813 78.6878 25.9505 79.1913 27.3037C78.9941 25.8946 78.7278 24.5014 78.528 23.0975H78.5413ZM57.2813 42.6846C57.0495 44.1631 57.6542 45.3911 58.4587 46.5445C57.9439 45.2973 57.5453 44.0052 57.268 42.6846H57.2813ZM89.4577 28.7449L87.7262 24.5946C87.6276 25.6681 88.7437 28.2174 89.4443 28.7449H89.4577ZM98.1657 35.7321C99.2119 36.3697 100.327 36.8862 101.49 37.2718L101.594 37.0453L98.2989 35.4896L98.1657 35.7321ZM60.4193 29.3016C60.5924 28.2094 60.5019 27.0986 60.7123 25.9984C60.0597 27.0533 60.1076 28.1695 60.406 29.3016H60.4193ZM102.729 35.3884C101.693 34.8557 100.598 34.4854 99.5695 33.9367C100.369 34.9356 101.525 35.1966 102.716 35.3884H102.729ZM39.5962 49.5653C38.7757 48.6756 38.8396 47.5435 38.3149 46.3154C38.1604 47.8818 38.6851 49.179 39.5695 49.5653H39.5962ZM100.997 32.5967C101.879 33.26 102.841 33.5824 103.928 33.3426L100.997 32.5967ZM71.8018 44.1364C71.325 43.4838 71.0959 42.706 70.6857 41.9841C70.6271 42.9084 70.9547 43.6623 71.8018 44.1364ZM93.0511 30.6042C92.5184 29.877 92.1694 29.3735 91.7992 28.8781C91.7512 28.8115 91.6393 28.7928 91.5594 28.7528C91.8151 29.4667 92.1002 30.13 93.0458 30.6042H93.0511ZM108.909 53.3985C105.038 53.609 101.253 53.1322 97.2786 52.5195C98.496 53.569 107.66 54.1844 108.904 53.3985H108.909ZM82.1907 57.9697C84.9371 59.4188 87.7848 60.5349 90.9228 60.7241C87.9126 60.1007 85.0517 59.0592 82.1907 57.9697ZM103.501 56.0411C100.694 56.0411 97.9313 55.6548 95.1875 55.2419C96.5541 56.0544 102.263 56.6111 103.501 56.0491V56.0411ZM91.0773 58.0576C88.5493 57.682 86.2557 56.5712 83.861 55.7747C84.9158 56.8296 89.8839 58.3985 91.0773 58.0656V58.0576ZM105.521 37.7805C105.427 38.2627 105.787 38.1855 106.053 38.2014C107.849 38.316 109.628 38.0656 111.413 37.9564C111.844 37.9297 112.396 37.9564 112.79 37.5701C110.355 37.698 107.931 37.9058 105.499 37.8072L105.521 37.7805ZM80.2488 59.8903C80.7816 60.9558 85.1263 62.7699 86.3756 62.4502C84.1699 62.0347 82.2653 60.9319 80.2488 59.9036V59.8903ZM115.065 32.2531C113.094 32.7166 111.048 32.6314 109.095 33.1508C111.131 33.1348 113.166 33.1508 115.065 32.2664V32.2531ZM122.985 29.8024C121.895 31.3581 120.67 32.8072 119.447 34.275C121.018 33.1469 122.243 31.6025 122.985 29.8157V29.8024ZM120.196 26.6591C119.351 28.1615 118.381 29.5893 117.457 31.0384C118.76 29.8675 119.709 28.355 120.196 26.6724V26.6591ZM121.583 27.8418C120.68 29.4401 119.623 30.9452 118.73 32.5594C120.007 31.2186 120.98 29.6187 121.583 27.8685V27.8418ZM96.3277 49.2989C97.7059 49.9979 99.2482 50.3092 100.79 50.1993C99.3005 49.9196 97.8247 49.5706 96.3277 49.3122V49.2989ZM108.73 40.8892C107.604 40.6015 106.44 40.8626 105.321 40.6228C106.391 41.1056 107.595 41.2044 108.73 40.9026V40.8892ZM117.508 25.5056C117.039 26.5712 116.569 27.6278 116.099 28.6756L116.349 28.7875C117.039 27.8232 117.385 26.7017 117.731 25.5909L117.508 25.5056ZM114.447 27.1199C115.246 26.675 115.481 25.9745 115.377 25.122C115.068 25.7969 114.758 26.4673 114.447 27.1332V27.1199ZM116.162 25.5616C115.923 26.2302 115.382 26.7816 115.475 27.5754C115.888 26.9867 116.338 26.4007 116.162 25.5749V25.5616ZM119.514 20.7267V22.1785C119.066 22.0933 119.186 21.8109 119.199 21.6271C119.258 20.7081 118.909 19.9169 118.627 19.0618C117.982 17.1172 118.416 16.1822 120.281 15.8093C121.184 15.6282 122.145 15.7161 122.995 15.3298C123.057 15.2908 123.126 15.265 123.199 15.254C123.271 15.2429 123.345 15.2469 123.416 15.2656C123.486 15.2844 123.552 15.3175 123.61 15.3629C123.667 15.4083 123.715 15.4651 123.749 15.5296C123.946 15.9079 123.661 16.1396 123.384 16.3048C122.609 16.763 121.73 16.9388 120.875 17.1599C120.382 17.2904 119.831 17.2531 119.753 17.959C119.702 18.2956 119.759 18.64 119.916 18.9418C120.074 19.2437 120.324 19.4874 120.63 19.6372C120.92 19.7669 121.226 19.8565 121.541 19.9036C121.842 19.9755 122.161 20.4204 122.428 20.0661C122.694 19.7118 122.961 19.2829 122.795 18.7342C122.646 18.2014 122.557 17.6538 122.529 17.1013C123.048 17.5807 122.987 18.244 123.123 18.8434C124.721 18.2734 124.394 18.577 124.362 16.3447C124.748 16.8775 124.748 16.8775 124.815 17.8178C125.124 17.9244 125.422 17.3197 125.734 17.7992C125.981 18.1801 125.696 18.4838 125.518 18.7555C125.22 19.1727 124.899 19.5729 124.556 19.9542C123.792 20.8786 123.776 21.5898 124.689 22.3517C125.704 23.2014 126.554 24.2163 127.494 25.1247C127.729 25.3485 128.027 25.5589 128.059 26.0864C124.761 24.9223 123.001 21.5925 119.514 20.7401V20.7267ZM125.928 24.4561C125.449 23.5584 124.756 23.2441 124.247 22.7459C123.211 21.7257 123.147 20.7374 124.071 19.6346C124.194 19.488 124.338 19.3682 124.452 19.203C124.567 19.0379 124.74 18.9793 124.66 18.7076C123.834 19.1178 123.062 19.5067 122.849 20.4577C122.734 20.9478 122.478 20.8226 122.135 20.6788C121.458 20.3964 120.758 20.178 119.961 19.8956C120.106 20.165 120.334 20.3807 120.611 20.511C122.042 21.1689 123.381 21.9228 124.319 23.276C124.633 23.7369 125.249 23.9819 125.928 24.4641V24.4561ZM122.681 15.9825C121.765 16.2169 121.027 16.1769 120.305 16.2488C119.679 16.3154 118.946 16.5019 118.824 17.2424C118.701 17.983 118.621 18.8887 119.593 19.5014C119.498 19.235 119.439 19.1098 119.394 18.9686C118.949 17.5568 119.215 17.1412 120.678 16.723C121.296 16.5579 121.986 16.5712 122.681 15.9825ZM131.455 36.0863C129.324 37.8365 127.481 39.6239 124.916 40.8519C126.573 40.7107 130.838 37.5887 131.471 36.0863H131.455ZM130.473 34.8184C128.504 36.5365 126.743 38.5104 124.375 39.7385C126.991 38.8328 128.808 36.9015 130.478 34.8184H130.473ZM130.824 17.5195C131.884 19.4181 132.797 21.3951 133.555 23.4332C133.188 21.2547 132.248 19.2133 130.83 17.5195H130.824ZM127.183 41.8269C129.111 40.9542 130.73 39.5174 131.826 37.706C130.363 39.1684 128.89 40.6255 127.188 41.8269H127.183ZM128.983 34.211C127.159 35.5429 125.571 36.9228 123.616 38.1135C124.777 37.991 128.541 35.2366 128.989 34.211H128.983ZM117.705 22.3357C117.564 20.2765 117.67 18.1775 116.639 16.2835C117.265 18.2627 117.161 20.3565 117.71 22.3357H117.705ZM135.739 31.9415C136.599 30.4311 136.823 28.7235 137.225 27.072C137.235 27.041 137.238 27.0084 137.234 26.9762C137.23 26.944 137.22 26.9129 137.203 26.8851C137.187 26.8572 137.164 26.8331 137.138 26.8144C137.111 26.7956 137.081 26.7827 137.05 26.7763C136.783 26.739 136.754 26.9388 136.733 27.1359C136.549 28.8035 136.037 30.3884 135.438 32.064C135.635 31.9894 135.734 31.9814 135.734 31.9415H135.739ZM140.598 35.78C140.885 37.6713 141.174 39.5644 141.464 41.4593L141.711 41.4273C141.639 39.5067 141.266 37.6261 140.912 35.7401L140.598 35.78ZM126.41 16.1902C126.943 18.0256 126.879 19.7891 126.93 21.739C127.556 20.5269 127.209 17.0294 126.41 16.1902ZM116.325 21.4273C116.205 19.7244 115.871 18.0435 115.329 16.4247L115.097 16.4753L116.064 21.4806L116.325 21.4273ZM143.762 40.5376C143.69 38.8088 143.435 37.096 143.278 35.3751C143.006 37.1386 143.264 38.8488 143.768 40.5376H143.762ZM96.285 5.90789C98.0351 6.15296 99.6255 6.34739 101.184 6.68037C99.8279 5.88922 97.3159 5.49232 96.2903 5.89722L96.285 5.90789ZM138.906 20.9212C138.858 20.7667 138.741 20.6202 138.555 20.7294C138.467 20.7827 138.352 20.9665 138.379 21.0144C139.101 22.2718 138.762 23.6783 139.029 24.9862C139.331 23.6387 139.287 22.2365 138.901 20.9105L138.906 20.9212ZM100.188 7.85513C98.833 7.33274 97.3467 7.25804 95.9467 7.64201C97.3505 7.7166 98.7677 7.71393 100.182 7.84446L100.188 7.85513ZM140.086 24.2457C140.619 22.8392 140.353 21.4886 139.82 20.1727C139.996 21.5195 140.084 22.8766 140.081 24.235L140.086 24.2457ZM102.212 10.519C103.429 11.2329 104.82 11.4247 106.141 11.8216C106.168 11.739 106.197 11.6537 106.224 11.5552L102.295 10.2606C102.263 10.3431 102.236 10.4257 102.207 10.5083L102.212 10.519ZM95.7096 9.76777H99.2818C99.2818 9.69851 99.2818 9.63191 99.2818 9.56532H95.6963L95.7096 9.76777ZM98.0059 4.42412C99.0128 5.10872 100.198 5.2792 101.362 5.54558C100.33 4.94739 99.1857 4.56667 98.0006 4.42679L98.0059 4.42412ZM137.75 30.6202C138.05 29.457 138.349 28.2911 138.648 27.1226L138.397 27.0586C137.865 28.1641 137.713 29.3762 137.478 30.5642L137.75 30.6202ZM141.234 20.9265V24.0192H141.488C141.578 22.9915 141.587 21.9583 141.514 20.9292L141.234 20.9265ZM107.657 5.03148C108.637 5.62551 109.636 6.17427 110.854 6.20624L107.763 4.7731L107.657 5.03148ZM142.742 20.9984C142.401 21.7523 142.556 22.5408 142.678 23.3186C142.922 22.5636 142.942 21.7542 142.737 20.9878L142.742 20.9984ZM101.237 12.4449C101.988 12.4742 102.707 12.8551 103.485 12.5834C102.745 12.4742 102.015 11.9894 101.237 12.4449ZM132.241 40.804C131.277 40.8999 130.909 41.7177 130.409 42.4023C131.047 41.9015 131.658 41.368 132.241 40.804V40.804ZM98.9435 10.8519C98.2243 10.8519 97.4864 10.7027 96.8551 11.3394L98.9568 11.1423C98.9728 11.0437 98.9542 10.9478 98.9515 10.8519H98.9435ZM101.378 3.92599C100.782 3.70489 100.241 3.27335 99.3591 3.39322C100.102 3.83808 100.696 4.07516 101.386 3.93132L101.378 3.92599ZM98.821 12.7432C98.155 12.8551 97.505 13.0096 97.0842 13.7022L98.8982 12.983C98.8796 12.9084 98.8556 12.8285 98.829 12.7486L98.821 12.7432ZM37.5397 72.1945V77.5222H37.7315V72.1945H37.5397ZM32.0735 77.7885C32.3541 79.4348 32.632 81.081 32.9073 82.7273L33.1737 82.682C32.9632 81.0224 32.9073 79.3389 32.3293 77.7433L32.0735 77.7885ZM24.4603 76.0651C24.098 74.5334 23.8476 72.983 23.4747 71.454C23.4134 73.0869 23.6239 74.6532 24.4683 76.0837L24.4603 76.0651ZM29.9292 78.7475C29.8466 80.202 29.8199 81.6538 30.3074 83.0762C30.1289 81.6538 30.4779 80.17 29.9372 78.7475H29.9292ZM36.3223 71.4753C36.2451 72.991 36.1385 74.5067 36.618 76.0038V71.4593L36.3223 71.4753ZM29.4124 82.3969C29.2819 80.8999 29.1673 79.5387 29.0501 78.1801C28.6478 79.6079 28.8796 81.4646 29.415 82.3943L29.4124 82.3969ZM26 75.5243C25.8056 74.2537 25.6644 72.9724 25.0463 71.7949C25.2381 73.0762 25.3394 74.3735 26.0027 75.5216L26 75.5243ZM35.4726 74.9329C35.5871 73.7529 35.1529 72.6341 35.2621 71.47C34.8279 72.1173 34.9984 74.4082 35.4752 74.9303L35.4726 74.9329ZM28.171 80.5882C28.0964 79.7118 27.9047 78.8514 27.8088 77.9723C27.6448 78.4034 27.5923 78.8689 27.6561 79.3257C27.7199 79.7825 27.8979 80.2159 28.1737 80.5856L28.171 80.5882ZM27.1401 71.8162C27.2307 72.5168 27.1401 73.2627 27.7048 73.8487C27.4518 73.1854 27.8221 72.3703 27.1428 71.8216L27.1401 71.8162ZM27.0762 80.2046C26.919 79.3362 26.7858 78.6063 26.6553 77.8818C26.3889 78.9446 26.5168 79.5467 27.0789 80.202L27.0762 80.2046ZM7.40117 52.9084C5.9627 53.6916 4.57753 54.5387 3.55729 55.8652C4.79863 54.8157 6.23175 54.0299 7.40117 52.9084ZM5.44056 51.9388L9.4363 49.3948L9.28451 49.1551C7.88843 49.9048 6.55252 50.7616 5.28877 51.7177L5.44056 51.9388ZM10.5018 55.1913L14.0794 52.4183C12.5823 52.951 11.4475 53.9739 10.3287 55.0155L10.5018 55.1913ZM14.2605 53.593L14.0927 53.3932C12.91 54.1924 11.7485 55.0395 10.9174 56.2755L14.2605 53.593ZM4.96379 66.6191C4.56422 67.8818 4.09806 69.1364 4.50296 70.5003C4.51628 69.1924 5.02507 67.943 4.96646 66.6218L4.96379 66.6191ZM4.3511 56.9121C5.26213 55.8253 6.39955 55.3298 7.31591 54.544C5.93072 54.9116 4.56155 55.9798 4.35377 56.9041L4.3511 56.9121ZM7.92593 55.1167C6.75762 55.7376 5.73579 56.6014 4.92913 57.65L8.08579 55.3271L7.92593 55.1167ZM4.42836 53.6863C5.58065 53.0501 6.68945 52.3382 7.74748 51.5552L7.58762 51.3101L4.28451 53.4811L4.42836 53.6863ZM10.2888 47.2451C9.46299 47.626 8.64252 48.0176 8.07512 48.8434L10.4512 47.5115L10.2888 47.2451ZM8.03519 56.4966C7.13482 56.763 6.4209 57.2584 6.08792 58.2041L8.03519 56.4966ZM10.2808 58.3772C10.8349 57.666 11.4502 57.2131 11.9749 56.6697C10.9254 57.016 10.414 57.5222 10.2808 58.3799V58.3772ZM5.4193 67.9404C5.56581 68.6809 4.88651 69.4082 5.52849 70.3378C5.61906 69.4108 5.68835 68.6729 5.76028 67.9404H5.4193ZM81.7645 79.7252C81.5301 79.7758 81.2877 79.7518 81.2185 79.4934C81.1119 79.0965 81.4315 78.9074 81.7006 78.7502C83.4853 77.7006 85.3314 76.7683 87.1587 75.7987C89.8066 74.3948 92.4198 72.9084 94.2632 70.4231C94.6999 69.8258 95.2964 69.3641 95.984 69.0912C96.0852 69.0468 96.1945 69.0238 96.305 69.0238C96.4155 69.0238 96.5248 69.0468 96.626 69.0912C96.8204 69.227 96.626 69.4987 96.5674 69.6772C96.2557 70.5216 95.8695 71.3341 95.1715 71.9388C94.6029 72.4141 94.2053 73.0624 94.0394 73.7848C93.9706 74.0986 93.8219 74.3893 93.6077 74.6288C93.3934 74.8682 93.121 75.0482 92.8167 75.1514C92.1206 75.4543 91.4093 75.721 90.6856 75.9505C89.8497 76.1639 89.061 76.5316 88.3601 77.0347C86.5434 78.4412 84.2951 78.8008 82.2467 79.6426C82.0899 79.6899 81.928 79.7185 81.7645 79.7278V79.7252ZM82.6276 78.6783C84.0181 78.2041 85.6004 78.1775 86.8391 77.3463C88.4409 76.2442 90.2053 75.3993 92.0682 74.8423C92.8674 74.6079 93.4587 74.1657 93.6425 73.244C93.7571 72.6553 94.1753 72.1785 94.6042 71.7257C95.105 71.1929 95.6351 70.6601 95.7842 69.8264C95.4196 69.9608 95.1108 70.2141 94.9078 70.5456C93.1444 73.2707 90.2142 74.5067 87.6356 76.1583C86.0692 77.1492 84.3031 77.8471 82.6276 78.6809V78.6783ZM103.725 65.3831C103.267 65.3831 103.307 65.0821 103.459 64.869C103.657 64.5763 103.906 64.321 104.194 64.1151C105.116 63.418 105.886 62.5407 106.458 61.5365C106.953 60.7976 107.599 60.1713 108.352 59.6985C110.582 58.1561 112.779 56.5738 115.211 55.3538C115.478 55.2206 115.766 54.8051 116.011 55.0874C116.344 55.4524 115.955 55.772 115.691 56.0517C114.719 57.0773 113.712 58.0869 112.51 58.8221C110.089 60.3032 108.192 62.4263 105.915 64.0752C105.235 64.5909 104.501 65.0303 103.725 65.3858V65.3831ZM114.466 56.406C111.138 58.1988 107.739 59.9009 105.885 63.4918C108.563 60.8999 111.759 58.9446 114.466 56.4087V56.406ZM91.8391 86.9095C92.0002 88.8273 92.5901 90.6844 93.5652 92.3437C92.9206 90.5456 92.4837 88.6942 91.8391 86.9122V86.9095ZM94.5323 90.1913C93.8663 88.902 93.5946 87.4955 93.1843 86.1316C93.1524 87.6447 93.5014 89.0299 94.5323 90.202V90.1913ZM94.5562 85.6628C94.6165 86.5272 94.9286 87.3551 95.4539 88.0443C95.3021 87.1812 95.1023 86.3501 94.5562 85.6735V85.6628ZM122.55 62.8365C122.324 61.9148 122.103 61.0251 121.884 60.1354C121.65 61.3234 121.97 62.3996 122.55 62.8338V62.8365ZM122.915 59.0405C122.85 59.4628 122.873 59.8941 122.984 60.3069C123.094 60.7196 123.29 61.1049 123.557 61.438C123.492 60.6045 123.274 59.7901 122.915 59.0352V59.0405ZM97.1934 20.471C97.1786 20.1968 97.1786 19.9221 97.1934 19.6479C97.2467 19.2004 96.8844 18.4998 97.8354 18.5504C97.9366 18.5504 98.0671 18.3399 98.1497 18.2068C99.4336 16.0757 102.705 15.8093 104.479 16.4753C107.372 17.5728 109.578 19.4055 110.227 22.6474C110.611 24.5706 110.241 25.3112 108.416 26.1103C107.1 26.6884 105.845 27.4076 104.402 27.674C103.904 27.8044 103.38 27.797 102.886 27.6527C100.291 26.707 98.1497 25.2739 97.3106 22.4369C97.1082 21.755 97.2627 21.0837 97.1934 20.4683V20.471ZM100.619 19.9622L100.632 20.2819C100.113 20.2819 99.5882 20.3032 99.0688 20.2819C98.6542 20.2818 98.2466 20.3891 97.886 20.5935C97.6569 20.7027 97.6942 20.8839 97.7501 21.081C97.7545 21.1209 97.7692 21.159 97.7927 21.1915C97.8162 21.224 97.8478 21.2499 97.8843 21.2665C97.9209 21.2832 97.9611 21.29 98.0011 21.2865C98.0411 21.2829 98.0794 21.269 98.1124 21.2462C98.9995 20.828 99.8812 21.1982 100.763 21.2462C102.26 21.3341 104.17 22.5594 104.932 23.9899C102.918 22.1252 100.718 20.8599 97.7208 21.7177C98.1737 21.9308 97.6809 22.8205 98.5599 22.5781C100.691 21.9947 103.77 23.4945 104.916 25.9079C103.826 24.9249 102.982 24.0645 101.959 23.4278C100.845 22.7352 99.6867 22.5408 98.4454 23.0682C99.9291 26.1077 103.222 27.5035 105.742 26.1609C105.547 25.8253 105.355 25.487 105.121 25.0794C105.616 25.17 105.803 25.4923 105.989 25.764C106.176 26.0357 106.338 25.9771 106.546 25.8679C106.836 25.7161 106.605 25.5483 106.546 25.3964C106.44 25.13 106.125 24.9356 106.149 24.5973C106.175 24.5747 106.205 24.5584 106.239 24.5498C106.272 24.5412 106.306 24.5405 106.34 24.5478C106.373 24.555 106.405 24.5701 106.431 24.5916C106.458 24.6132 106.479 24.6406 106.493 24.6719C107.089 25.9159 107.883 25.2899 108.674 24.9382C109.074 24.7571 109.007 24.6425 108.741 24.3602C107.753 23.2947 106.922 22.0746 105.811 21.1823C103.603 19.4055 101.202 18.0283 98.1923 19.2989C97.5823 19.5653 97.5717 19.5307 97.7128 20.2153C98.644 19.8838 99.6443 19.7958 100.619 19.9596V19.9622ZM109.266 24.2776C109.532 22.4343 108.968 21.081 107.593 20.1966C107.622 20.7107 107.985 21.1689 107.702 21.7443C107.473 21.1556 107.263 20.6335 107.068 20.1061C106.874 19.5786 106.751 19.0405 106.117 18.7901C105.976 19.3975 106.613 19.8343 106.365 20.431C105.523 19.6958 105.853 18.2387 104.5 17.6847C104.873 18.6623 104.964 19.6985 105.529 20.2286C106.855 21.4753 108.235 22.6207 109.266 24.275V24.2776ZM104.066 19.0166C103.144 18.6836 103.051 17.5195 102.105 17.2611C102.713 18.4492 103.437 19.5094 105.06 19.7917C104.386 18.886 104.482 17.5807 102.958 17.1705L104.066 19.0166ZM99.3085 18.1055H101.024C100.374 17.0613 99.8253 17.6873 99.3085 18.1029V18.1055ZM109.908 67.4449C109.88 67.8274 109.94 68.2111 110.082 68.5673C110.224 68.9235 110.445 69.2428 110.728 69.5014L110.153 67.3703L109.908 67.4449Z" fill="#2D1511"/>
</svg>
