<svg viewBox="0 0 144 152" fill="curentColor" xmlns="http://www.w3.org/2000/svg">
<path d="M143.598 56.8526C143.898 56.4526 143.498 56.1526 143.098 56.2526C143.198 54.4526 142.898 52.5526 141.298 51.4526C139.998 50.5526 137.698 50.1526 136.298 51.3526C136.098 51.5526 136.098 51.7526 136.198 51.8526V51.9526C136.198 52.0526 136.198 52.0526 136.098 52.1526C135.998 52.1526 135.898 52.2526 135.798 52.3526C122.098 66.7526 110.898 82.7526 96.7981 95.6526C96.7981 95.6526 96.7981 95.6526 96.6981 95.7526C93.5981 94.8526 91.2981 93.7526 89.7981 90.8526C88.3981 88.1526 88.5981 85.1526 87.6981 82.3526C87.7981 82.1526 87.9981 82.0526 88.0981 81.8526C88.8981 82.9526 89.6981 83.8526 90.0981 85.2526C90.4981 86.5526 90.6981 87.8526 91.1981 89.1526C92.1981 91.5526 94.2981 93.8526 96.5981 95.2526C96.9981 95.4526 97.6981 94.9526 97.2981 94.5526C96.1981 93.1526 94.6981 92.1526 93.6981 90.7526C92.4981 89.1526 92.0981 87.2526 91.4981 85.3526C90.9981 83.8526 90.0981 81.8526 88.2981 81.6526C88.2981 81.6526 88.2981 81.6526 88.2981 81.5526C94.0981 74.1526 99.4981 66.3526 104.198 58.1526C107.598 52.2526 111.198 45.9526 113.798 39.5526C113.698 39.8526 113.598 40.0526 113.598 40.3526C114.598 38.8526 115.398 37.0526 116.098 35.4526C116.498 34.5526 116.998 33.5526 117.498 32.6526C117.898 32.3526 118.198 31.8526 118.098 31.3526V31.2526C118.098 31.1526 118.198 31.0526 118.198 30.8526C118.298 30.5526 117.898 30.2526 117.598 30.5526C116.998 29.9526 115.998 29.5526 115.498 29.1526C114.398 28.4526 111.498 25.8526 109.998 27.6526C109.898 27.7526 109.698 27.8526 109.498 28.0526C109.198 28.3526 109.098 28.5526 109.098 28.8526C105.098 37.1526 99.7981 45.2526 94.2981 52.9526C88.9981 60.4526 83.5981 67.9526 77.8981 74.9526C76.6981 73.6526 75.1981 72.6526 74.0981 71.2526C72.6981 69.4526 71.5981 67.4526 70.4981 65.4526C69.4981 63.8526 67.6981 60.0526 65.1981 60.3526C69.1981 54.5526 72.9981 48.3526 76.3981 42.2526C80.5981 34.7526 82.2981 26.7526 83.7981 18.5526C84.2981 18.0526 84.4981 17.2526 83.8981 16.6526C83.0981 15.7526 81.6981 15.0526 80.6981 14.3526C80.0981 13.9526 79.4981 13.3526 78.6981 13.6526C78.4981 13.6526 78.3981 13.7526 78.1981 13.8526C77.8981 14.1526 77.6981 14.5526 77.6981 14.9526C74.3981 21.8526 71.6981 28.8526 67.8981 35.4526C63.7981 42.6526 58.9981 49.3526 53.5981 55.5526C53.4981 55.6526 53.4981 55.7526 53.3981 55.7526C52.8981 54.1526 51.2981 52.8526 50.0981 51.8526C48.9981 50.9526 47.6981 50.1526 46.4981 49.3526C44.6981 47.9526 44.0981 46.4526 43.6981 44.3526C51.2981 32.5526 57.6981 20.0526 61.1981 6.4526C61.2981 6.1526 60.9981 6.0526 60.7981 6.0526C61.0981 5.8526 61.2981 5.4526 61.3981 4.7526C61.4981 3.7526 61.4981 2.5526 60.6981 1.9526C59.9981 1.4526 59.1981 1.4526 58.5981 0.852596C58.1981 0.452596 57.9981 0.152596 57.3981 0.0525961C56.4981 -0.147404 55.5981 0.252596 54.8981 0.752596C54.4981 0.752596 53.9981 0.952596 53.6981 1.3526C53.3981 1.7526 53.2981 2.1526 53.2981 2.5526C49.5981 8.6526 46.2981 15.0526 42.8981 21.2526C39.4981 27.3526 36.5981 33.8526 32.3981 39.4526C24.6981 49.9526 14.7981 58.4526 5.5981 66.5526C5.4981 66.6526 5.3981 66.7526 5.4981 66.9526C4.0981 67.5526 3.1981 68.8526 3.4981 70.2526C2.5981 71.3526 1.0981 71.7526 0.698104 73.5526C0.498104 74.4526 0.798104 75.2526 0.898104 76.0526C1.1981 78.2526 1.3981 80.3526 1.3981 82.5526C1.3981 89.1526 -0.901896 95.8526 0.398104 102.353C2.8981 114.653 15.3981 120.253 24.2981 127.653C29.2981 131.853 33.6981 136.753 38.5981 141.253C39.3981 141.953 40.2981 142.853 41.1981 143.653L41.2981 143.753C44.7981 146.953 49.0981 150.453 53.6981 150.953C58.9981 151.553 63.4981 147.953 68.0981 145.853C71.3981 144.353 74.9981 143.853 78.4981 142.653C81.3981 141.653 84.0981 140.153 86.4981 138.253C89.5981 135.853 92.2981 132.953 94.9981 130.053C96.5981 128.353 98.0981 126.953 100.198 125.653C101.598 124.853 102.998 124.053 104.198 122.953C107.698 119.853 109.498 115.553 109.398 111.253C110.498 108.453 109.898 104.553 107.498 102.753L107.598 102.653C120.998 89.0526 132.398 72.9526 143.598 56.8526ZM137.398 52.0526C138.598 51.9526 139.598 51.7526 140.598 52.5526C141.598 53.2526 141.898 54.5526 141.798 55.8526C140.698 55.6526 139.698 55.2526 138.898 54.5526C138.398 54.1526 137.998 53.6526 137.698 53.1526C137.498 52.8526 137.398 52.6526 137.398 52.0526C137.398 52.1526 137.398 52.1526 137.398 52.0526ZM97.0981 97.1526C97.2981 97.0526 97.3981 96.8526 97.5981 96.7526C97.6981 96.7526 97.6981 96.6526 97.6981 96.6526C104.298 90.6526 110.198 83.7526 116.198 76.9526C122.798 69.3526 129.898 61.8526 136.398 53.8526C136.498 54.0526 136.698 54.3526 136.798 54.5526C137.598 55.6526 138.798 56.4526 140.098 56.9526C128.398 71.4526 117.498 86.2526 104.598 98.9526C103.598 99.9526 102.498 100.953 101.398 101.953C101.298 99.7526 97.8981 98.2526 95.7981 99.0526C95.5981 99.1526 95.5981 99.4526 95.8981 99.4526C96.9981 99.4526 97.9981 99.5526 98.9981 100.053C99.9981 100.653 100.398 101.453 100.998 102.253C95.4981 107.253 89.6981 111.653 83.4981 115.653C76.3981 120.253 68.7981 123.853 61.7981 128.253C61.6981 127.953 61.5981 127.653 61.3981 127.453C60.6981 126.253 58.7981 124.653 56.9981 124.053C63.6981 120.653 70.2981 116.553 76.7981 112.453C83.7981 107.853 90.6981 102.853 97.0981 97.1526ZM60.1981 131.253C60.1981 131.453 60.2981 131.653 60.2981 131.853C58.8981 132.653 56.4981 130.153 55.3981 129.353C54.9981 129.053 54.3981 128.753 54.0981 128.353C53.9981 128.253 53.8981 128.153 53.6981 128.053C53.6981 127.353 53.7981 126.653 53.7981 126.053C54.1981 125.553 55.9981 125.653 56.7981 125.453C57.3981 125.653 57.9981 125.953 58.5981 126.253C59.8981 127.153 61.4981 129.153 60.9981 130.853C60.9981 130.853 60.9981 130.853 60.8981 130.753C60.5981 130.453 60.0981 130.853 60.1981 131.253ZM95.2981 97.0526C89.2981 102.353 82.7981 107.153 76.1981 111.453C69.5981 115.753 62.7981 119.353 56.3981 123.453C55.2981 122.253 53.4981 121.653 52.3981 120.353C50.5981 118.353 50.5981 116.453 50.4981 114.053C56.9981 109.353 63.6981 104.553 70.3981 99.7526C76.7981 94.9526 82.0981 89.4526 87.1981 83.2526C86.9981 85.1526 87.1981 87.3526 87.7981 89.4526C87.3981 89.7526 86.9981 90.0526 86.4981 90.3526C85.9981 88.8526 85.8981 87.1526 85.8981 85.4526C85.8981 85.3526 85.7981 85.3526 85.6981 85.4526C85.1981 87.0526 85.3981 88.9526 85.8981 90.8526C84.7981 91.7526 83.7981 92.6526 82.7981 93.5526C82.4981 93.7526 82.8981 94.1526 83.1981 93.9526C84.1981 93.1526 85.0981 92.3526 86.0981 91.5526C86.2981 92.1526 86.5981 92.7526 86.8981 93.3526C86.0981 93.9526 85.3981 94.6526 84.5981 95.2526C84.3981 95.4526 84.6981 95.7526 84.8981 95.5526C85.5981 94.9526 86.3981 94.4526 87.0981 93.8526C88.4981 96.2526 90.5981 98.1526 93.0981 98.4526C93.2981 98.4526 93.3981 98.2526 93.1981 98.0526C91.0981 96.6526 89.0981 95.3526 87.6981 93.1526C87.8981 92.9526 88.0981 92.8526 88.1981 92.6526C88.2981 92.5526 88.1981 92.3526 87.9981 92.4526C87.7981 92.5526 87.5981 92.6526 87.4981 92.8526C87.1981 92.2526 86.8981 91.6526 86.5981 91.0526C86.9981 90.6526 87.3981 90.3526 87.7981 89.9526C88.9981 93.5526 91.5981 96.8526 95.2981 97.0526ZM104.098 56.5526C99.4981 64.6526 94.2981 72.3526 88.6981 79.6526C82.6981 87.4526 76.3981 94.0526 68.4981 99.7526C62.1981 104.253 56.0981 108.653 50.0981 112.953C49.9981 112.953 49.9981 112.953 49.8981 113.053L49.7981 113.153C48.3981 114.153 46.9981 115.153 45.5981 116.153C45.6981 115.253 45.2981 114.453 44.6981 113.653C44.4981 113.353 44.2981 113.153 44.1981 112.953C44.2981 113.053 44.4981 113.053 44.6981 112.953C52.7981 108.453 60.9981 103.353 68.7981 97.8526C76.1981 92.5526 81.6981 85.4526 87.2981 78.2526C98.3981 64.0526 108.398 49.3526 114.398 32.3526C114.398 32.2526 114.398 32.2526 114.398 32.1526C114.898 32.3526 115.398 32.6526 115.898 32.7526C111.698 40.7526 108.398 48.8526 104.098 56.5526ZM115.298 36.4526C115.398 36.0526 115.598 35.7526 115.698 35.3526C115.798 35.0526 115.998 34.8526 116.098 34.5526C115.998 34.8526 115.898 35.1526 115.698 35.4526C115.598 35.8526 115.498 36.1526 115.298 36.4526ZM110.898 28.5526C110.898 28.4526 110.898 28.4526 110.898 28.5526C112.298 27.9526 113.298 28.9526 114.198 29.6526C114.698 29.9526 115.198 30.3526 115.698 30.6526C116.098 30.8526 117.698 31.6526 115.998 31.3526C114.798 31.1526 113.598 30.3526 112.498 29.9526C112.098 29.7526 111.698 29.6526 111.298 29.4526C110.998 29.3526 110.798 29.1526 110.698 28.8526C110.798 28.7526 110.798 28.6526 110.898 28.5526ZM94.0981 55.4526C99.8981 47.3526 105.398 38.9526 109.998 30.1526C110.798 30.9526 112.298 31.3526 113.298 31.7526C113.498 31.8526 113.798 31.9526 114.098 32.1526C113.998 32.1526 113.898 32.1526 113.798 32.3526C107.798 49.2526 96.4981 64.4526 85.5981 78.3526C79.8981 85.6526 74.3981 92.6526 66.6981 97.7526C59.1981 102.853 51.2981 107.053 44.0981 112.153C43.8981 112.253 43.8981 112.453 43.8981 112.553C43.6981 112.253 43.5981 111.853 43.3981 111.453C43.1981 110.853 43.4981 110.853 43.1981 110.353C42.8981 109.853 42.4981 109.553 42.0981 109.353C41.7981 109.253 41.4981 109.153 41.2981 109.053C40.3981 108.653 40.1981 108.253 39.5981 107.553C39.4981 107.453 39.3981 107.353 39.2981 107.253C52.7981 101.453 65.4981 91.4526 75.4981 79.9526L75.5981 80.0526H75.6981C75.7981 80.0526 75.8981 79.9526 75.7981 79.8526C75.9981 79.9526 76.2981 80.0526 76.2981 80.1526C76.4981 80.2526 76.6981 80.2526 76.8981 80.3526C77.4981 80.6526 77.9981 80.9526 78.4981 81.3526C79.2981 81.9526 79.7981 82.8526 80.5981 83.5526C80.7981 83.7526 80.9981 83.5526 80.9981 83.3526C80.6981 81.7526 78.9981 80.5526 77.5981 79.8526C77.2981 79.6526 76.5981 79.3526 75.9981 79.3526C76.0981 79.2526 76.1981 79.1526 76.2981 78.9526C82.5981 71.4526 88.3981 63.4526 94.0981 55.4526ZM42.4981 116.753C42.0981 116.753 41.3981 116.253 41.0981 116.053C39.9981 115.553 38.6981 115.053 37.5981 114.453C36.1981 113.653 35.6981 112.453 35.3981 110.953C35.2981 110.053 35.3981 108.853 36.1981 108.353C37.3981 107.653 38.0981 108.653 38.9981 109.353C39.4981 109.753 39.8981 110.053 40.4981 110.253C41.6981 110.753 41.6981 111.053 42.1981 112.353C42.3981 113.053 42.5981 113.353 42.9981 113.953C43.0981 114.053 43.1981 114.253 43.3981 114.353C44.0981 114.853 43.7981 115.753 42.4981 116.753ZM76.6981 76.5526C76.3981 76.9526 76.0981 77.2526 75.7981 77.6526C65.0981 90.3526 52.1981 99.5526 38.1981 106.653C38.1981 106.653 38.1981 106.653 38.0981 106.653C37.8981 106.553 37.6981 106.353 37.4981 106.253C38.2981 105.953 38.9981 105.653 39.6981 105.153C39.7981 105.053 39.6981 104.853 39.5981 104.953C38.6981 105.153 37.7981 105.653 36.9981 106.053C36.2981 105.653 35.5981 105.353 34.7981 105.053C35.0981 104.853 35.3981 104.653 35.6981 104.453C36.1981 104.153 36.7981 103.853 37.0981 103.353C37.1981 103.253 36.9981 103.153 36.8981 103.153C36.2981 103.253 35.6981 103.753 35.1981 104.053C34.7981 104.253 34.4981 104.553 34.0981 104.753C33.3981 104.353 32.6981 103.853 32.0981 103.253C32.9981 102.853 33.8981 102.353 34.6981 101.853C35.4981 101.353 36.5981 100.653 36.9981 99.7526C37.0981 99.6526 36.8981 99.4526 36.7981 99.5526C35.7981 99.8526 34.9981 100.853 34.1981 101.453C33.3981 101.953 32.5981 102.453 31.6981 102.953C31.2981 102.453 30.9981 101.953 30.7981 101.353C30.7981 101.353 30.7981 101.353 30.7981 101.253C30.6981 100.953 30.5981 100.653 30.4981 100.353C30.9981 99.7526 31.4981 99.2526 31.9981 98.6526C32.4981 98.0526 32.9981 97.5526 33.3981 96.8526C33.4981 96.7526 33.2981 96.5526 33.1981 96.6526C32.0981 97.4526 31.2981 98.6526 30.3981 99.7526C30.0981 98.0526 30.0981 96.2526 29.6981 94.4526C34.1981 91.3526 38.5981 87.7526 42.6981 84.1526C48.8981 78.7526 55.6981 73.2526 60.6981 66.5526C61.5981 65.3526 62.3981 64.2526 63.1981 63.0526C62.0981 66.3526 63.0981 69.9526 65.5981 71.9526C66.3981 72.5526 67.1981 73.0526 68.1981 73.5526C67.5981 74.1526 66.9981 74.6526 66.3981 75.1526C64.7981 76.4526 62.9981 77.6526 61.1981 78.5526V78.6526C63.7981 77.4526 66.5981 75.9526 68.8981 73.8526C69.3981 74.0526 69.7981 74.2526 70.2981 74.4526C67.7981 76.2526 65.4981 78.3526 63.0981 80.1526C65.5981 78.3526 68.2981 76.5526 70.5981 74.4526C70.6981 74.4526 70.6981 74.4526 70.7981 74.5526C72.8981 75.1526 74.6981 76.0526 76.6981 76.5526ZM31.8981 105.353C31.8981 105.553 31.7981 105.753 31.7981 105.953C31.3981 105.853 30.9981 105.753 30.6981 105.653C30.5981 105.353 30.4981 105.053 30.4981 104.653C30.8981 104.953 31.3981 105.153 31.8981 105.353ZM30.3981 103.753C30.3981 103.553 30.3981 103.353 30.3981 103.253C30.4981 103.353 30.5981 103.453 30.5981 103.653C30.7981 103.853 30.9981 104.153 31.1981 104.353C30.9981 104.153 30.6981 103.953 30.3981 103.753ZM29.8981 105.453C29.1981 105.253 28.4981 104.953 27.8981 104.553C27.5981 103.653 27.3981 102.653 27.2981 101.653C27.2981 101.553 27.2981 101.553 27.2981 101.453C27.8981 102.653 28.7981 103.653 29.7981 104.353C29.7981 104.653 29.8981 105.053 29.8981 105.453ZM29.0981 102.553C28.1981 101.553 27.6981 100.453 27.2981 99.2526C27.2981 98.8526 27.3981 98.4526 27.3981 98.1526C27.5981 98.2526 27.7981 98.4526 27.9981 98.5526C28.0981 98.5526 28.2981 98.4526 28.1981 98.3526C28.0981 98.0526 27.7981 97.7526 27.4981 97.4526C27.5981 97.1526 27.6981 96.9526 27.7981 96.7526C27.7981 96.6526 27.7981 96.6526 27.6981 96.6526C27.4981 96.8526 27.2981 97.0526 27.1981 97.2526C26.7981 97.0526 26.3981 96.8526 25.8981 96.8526C26.7981 96.3526 27.6981 95.7526 28.4981 95.2526L28.7981 96.1526C28.4981 98.4526 28.8981 101.053 29.9981 102.953C29.8981 103.153 29.8981 103.353 29.7981 103.553C29.6981 103.153 29.3981 102.953 29.0981 102.553ZM26.8981 97.8526C26.8981 97.7526 26.6981 97.7526 26.6981 97.8526C26.6981 97.9526 26.6981 98.1526 26.6981 98.2526C26.3981 98.0526 25.8981 97.8526 25.5981 97.7526C25.3981 97.6526 25.1981 97.5526 24.8981 97.4526C25.0981 97.3526 25.3981 97.1526 25.5981 97.0526C25.9981 97.2526 26.2981 97.4526 26.6981 97.6526C26.7981 97.7526 26.8981 97.8526 27.0981 97.8526C27.0981 97.9526 26.9981 98.0526 26.9981 98.1526C26.8981 98.0526 26.8981 97.9526 26.8981 97.8526ZM20.7981 96.7526C20.4981 96.4526 20.0981 96.0526 19.7981 95.8526C18.8981 95.0526 18.0981 94.4526 17.3981 93.3526C17.0981 92.8526 16.8981 92.3526 16.4981 91.9526C16.4981 91.3526 16.4981 90.7526 16.6981 90.2526C17.7981 87.5526 20.0981 89.2526 21.1981 90.1526C22.3981 91.2526 23.9981 93.1526 24.2981 94.8526C24.6981 97.8526 22.3981 97.8526 20.7981 96.7526ZM15.8981 91.9526C15.8981 92.2526 15.9981 92.5526 16.0981 92.8526C15.9981 92.8526 15.8981 92.8526 15.8981 92.9526C15.7981 93.6526 15.7981 94.4526 15.7981 95.1526C15.0981 94.0526 14.4981 92.7526 14.8981 91.5526C14.8981 91.6526 14.8981 91.7526 14.9981 91.9526C14.9981 92.0526 15.1981 92.0526 15.1981 91.9526C15.1981 91.0526 15.0981 90.1526 15.0981 89.2526C15.1981 89.2526 15.2981 89.3526 15.3981 89.3526C15.5981 89.4526 15.6981 89.1526 15.5981 89.0526C15.3981 88.9526 15.2981 88.7526 15.0981 88.6526C15.0981 88.2526 15.0981 87.8526 15.0981 87.4526C15.4981 87.8526 15.9981 88.2526 16.3981 88.5526C15.5981 89.4526 15.2981 90.9526 15.8981 91.9526ZM13.6981 84.3526C13.4981 83.9526 13.2981 83.6526 13.0981 83.2526C13.1981 82.4526 13.2981 81.7526 13.4981 81.0526C13.7981 82.0526 14.0981 82.9526 14.4981 83.7526C14.5981 83.9526 14.7981 84.2526 14.9981 84.4526C14.8981 84.8526 14.7981 85.3526 14.7981 85.8526C14.3981 85.3526 13.9981 84.8526 13.6981 84.3526ZM14.5981 86.8526C14.5981 87.2526 14.4981 87.6526 14.4981 88.1526C14.0981 87.8526 13.7981 87.5526 13.4981 87.2526C13.2981 86.5526 13.0981 85.8526 13.0981 85.0526C13.0981 84.9526 13.0981 84.7526 13.0981 84.6526C13.4981 85.4526 13.9981 86.1526 14.5981 86.8526ZM13.0981 75.4526V75.6526C13.0981 75.8526 13.1981 76.0526 13.1981 76.2526C13.1981 76.8526 13.0981 76.9526 12.7981 76.9526C12.7981 76.2526 12.6981 75.4526 12.4981 74.6526C12.8981 74.2526 13.2981 73.8526 13.7981 73.5526C13.9981 74.3526 14.0981 75.1526 14.1981 75.9526C14.0981 76.0526 13.9981 76.1526 13.8981 76.2526V76.1526C13.8981 75.9526 13.7981 75.7526 13.6981 75.5526C13.6981 75.4526 13.5981 75.3526 13.4981 75.3526C13.3981 75.3526 13.3981 75.3526 13.2981 75.2526C13.2981 75.1526 13.0981 75.3526 13.0981 75.4526ZM12.1981 73.7526C11.9981 73.0526 11.7981 72.4526 11.6981 72.0526C11.4981 71.0526 11.6981 69.9526 11.5981 68.9526C12.2981 69.9526 12.8981 70.9526 13.3981 72.1526C13.4981 72.2526 13.4981 72.4526 13.4981 72.5526C13.0981 72.8526 12.5981 73.3526 12.1981 73.7526ZM21.5981 81.3526C20.8981 81.7526 20.1981 82.3526 19.4981 82.8526C18.9981 83.2526 18.3981 83.7526 17.8981 84.2526C17.5981 84.1526 17.2981 83.9526 16.9981 83.7526H17.0981C18.7981 82.7526 20.6981 81.1526 21.4981 79.2526C21.5981 79.0526 21.3981 78.9526 21.2981 79.0526C20.5981 79.7526 19.9981 80.5526 19.2981 81.2526C18.5981 82.0526 17.6981 82.6526 16.8981 83.3526C16.7981 83.4526 16.7981 83.5526 16.7981 83.6526C15.9981 83.1526 15.3981 82.4526 14.9981 81.4526C14.9981 81.3526 14.9981 81.3526 14.8981 81.2526C16.6981 80.3526 18.7981 79.0526 19.7981 77.1526C19.8981 77.0526 19.6981 76.8526 19.5981 77.0526C18.8981 77.7526 18.3981 78.4526 17.5981 79.1526C16.7981 79.9526 15.7981 80.5526 14.7981 81.0526C14.3981 79.8526 14.3981 78.6526 14.1981 77.4526C14.2981 77.3526 14.3981 77.2526 14.5981 77.1526C14.6981 77.1526 14.7981 77.1526 14.7981 76.9526C19.2981 73.0526 23.4981 68.5526 27.7981 64.4526C32.8981 59.5526 37.2981 54.1526 41.2981 48.2526C41.2981 48.3526 41.2981 48.4526 41.2981 48.5526C41.2981 49.0526 41.3981 49.4526 41.4981 49.8526C42.0981 52.5526 42.1981 54.9526 44.3981 56.8526C45.8981 58.1526 48.4981 58.9526 50.7981 58.8526C46.1981 63.8526 41.1981 68.4526 36.0981 72.8526C31.0981 77.1526 25.5981 80.9526 20.6981 85.0526C19.7981 84.8526 18.8981 84.6526 18.0981 84.3526C18.6981 83.9526 19.2981 83.4526 19.8981 83.0526C20.4981 82.5526 21.0981 82.1526 21.6981 81.5526C21.9981 81.4526 21.7981 81.2526 21.5981 81.3526ZM15.0981 86.1526C15.0981 85.6526 15.0981 85.1526 15.1981 84.6526C16.1981 85.7526 17.6981 86.5526 19.0981 86.5526C18.7981 86.8526 18.4981 87.0526 18.1981 87.3526C17.6981 87.4526 17.1981 87.7526 16.7981 88.0526C16.1981 87.3526 15.6981 86.7526 15.0981 86.1526ZM70.4981 72.4526C70.5981 72.3526 70.6981 72.1526 70.8981 72.0526C71.5981 72.5526 72.2981 73.0526 73.0981 73.4526C72.1981 73.0526 71.2981 72.7526 70.4981 72.4526ZM72.9981 72.4526C72.7981 72.3526 72.4981 72.1526 72.2981 72.0526C71.9981 71.8526 71.5981 71.6526 71.1981 71.4526C71.3981 71.1526 71.5981 70.9526 71.7981 70.6526C72.1981 71.2526 72.5981 71.8526 72.9981 72.4526ZM66.6981 62.5526C65.8981 63.1526 65.1981 63.8526 64.6981 64.6526C64.5981 64.7526 64.7981 64.9526 64.8981 64.8526C65.5981 64.3526 66.3981 63.5526 66.8981 62.7526C67.3981 63.3526 67.8981 63.9526 68.3981 64.7526C69.3981 66.4526 70.1981 68.2526 71.2981 69.9526C71.3981 70.1526 71.4981 70.3526 71.6981 70.5526C71.3981 70.8526 71.0981 71.0526 70.7981 71.3526C69.2981 70.5526 67.6981 69.3526 67.8981 67.8526C67.8981 67.6526 67.5981 67.6526 67.5981 67.8526C67.3981 69.7526 68.8981 70.7526 70.2981 71.7526L70.3981 71.8526C70.1981 72.0526 70.0981 72.1526 69.8981 72.3526C69.3981 72.1526 68.8981 71.8526 68.3981 71.5526C66.3981 70.3526 65.2981 68.9526 64.7981 66.6526C64.5981 65.7526 64.5981 64.9526 64.3981 64.0526C65.0981 63.4526 65.6981 62.6526 66.0981 61.9526C66.1981 62.0526 66.4981 62.2526 66.6981 62.5526ZM65.7981 61.6526C65.1981 62.1526 64.5981 62.8526 64.1981 63.5526C64.1981 63.3526 64.0981 63.1526 63.9981 62.9526C64.3981 62.3526 64.7981 61.7526 64.9981 61.1526C64.9981 61.0526 64.8981 61.0526 64.8981 61.1526C64.4981 61.6526 64.1981 62.3526 63.8981 62.9526C63.7981 62.7526 63.7981 62.5526 63.6981 62.4526C64.0981 61.9526 64.3981 61.3526 64.7981 60.8526C65.2981 61.1526 65.4981 61.3526 65.7981 61.6526ZM75.0981 42.4526C70.6981 50.2526 65.7981 57.9526 60.6981 65.1526C55.8981 71.8526 49.1981 77.2526 42.9981 82.6526C40.0981 85.1526 37.0981 87.6526 33.9981 89.9526C31.3981 91.9526 28.8981 94.4526 25.7981 95.6526C25.5981 95.7526 25.6981 94.6526 25.6981 94.4526C25.7981 94.0526 26.8981 93.4526 27.1981 93.1526C29.2981 91.1526 31.9981 89.8526 34.2981 88.0526C37.4981 85.4526 40.4981 82.7526 43.3981 79.8526C46.3981 76.8526 50.0981 74.5526 53.2981 71.6526C56.2981 68.9526 58.9981 65.9526 61.3981 62.7526C66.1981 56.4526 69.9981 49.4526 73.2981 42.3526C75.0981 38.4526 76.6981 34.5526 78.0981 30.6526C79.4981 26.9526 81.0981 22.9526 81.8981 19.0526C82.0981 19.1526 82.1981 19.1526 82.3981 19.2526C82.4981 19.2526 82.6981 19.2526 82.7981 19.2526C81.1981 27.0526 79.2981 35.1526 75.0981 42.4526ZM78.7981 14.7526C79.5981 15.1526 80.2981 15.6526 80.9981 16.1526C81.4981 16.4526 81.8981 16.7526 82.3981 17.0526C82.5981 17.1526 82.7981 17.3526 82.9981 17.4526C82.9981 18.1526 82.8981 18.4526 82.4981 18.1526C82.3981 18.1526 82.2981 18.0526 82.0981 17.9526C82.0981 17.7526 82.1981 17.6526 82.1981 17.4526C82.1981 17.3526 81.9981 17.2526 81.9981 17.4526C81.9981 17.5526 81.8981 17.6526 81.8981 17.7526C81.5981 17.4526 81.2981 16.9526 80.8981 16.7526C80.4981 16.5526 80.0981 16.4526 79.6981 16.2526C79.3981 16.1526 79.1981 16.0526 78.8981 15.8526C78.3981 15.5526 78.2981 15.1526 78.7981 14.7526ZM53.2981 58.1526C53.8981 57.4526 54.5981 56.7526 55.1981 55.9526C60.3981 49.8526 64.9981 43.2526 68.9981 36.2526C72.4981 29.9526 76.0981 22.9526 77.7981 16.0526V16.1526C78.3981 16.9526 79.4981 17.0526 80.2981 17.6526C80.6981 17.9526 80.9981 18.3526 81.2981 18.6526C79.7981 22.1526 78.7981 25.8526 77.5981 29.3526C75.9981 33.7526 74.1981 38.0526 72.1981 42.3526C68.8981 49.5526 64.8981 56.5526 59.9981 62.8526C57.6981 65.7526 55.1981 68.4526 52.4981 70.9526C49.4981 73.6526 46.1981 75.7526 43.2981 78.4526C37.6981 83.8526 31.7981 89.1526 25.2981 93.4526C24.5981 92.0526 23.3981 90.9526 22.2981 89.9526C21.5981 89.2526 20.7981 88.2526 19.7981 87.7526C25.7981 83.7526 31.5981 78.6526 37.1981 73.8526C42.6981 69.1526 47.9981 64.1526 52.8981 58.6526C53.0981 58.4526 53.1981 58.2526 53.2981 58.1526ZM45.6981 50.5526C47.0981 51.5526 48.5981 52.4526 49.8981 53.5526C51.0981 54.5526 51.6981 55.8526 52.5981 57.0526C52.4981 57.1526 52.4981 57.1526 52.3981 57.2526C51.9981 57.1526 51.5981 57.0526 51.1981 56.9526C51.1981 56.9526 51.1981 56.8526 51.0981 56.8526C49.8981 56.3526 48.6981 56.1526 47.5981 55.4526C46.4981 54.6526 45.6981 53.6526 44.8981 52.6526C44.7981 52.5526 44.5981 52.6526 44.6981 52.7526C45.0981 54.0526 46.0981 55.3526 47.4981 56.1526C46.4981 55.8526 45.4981 55.2526 44.5981 54.3526C43.6981 53.4526 43.1981 52.7526 42.7981 51.5526C42.5981 51.0526 41.9981 48.7526 41.8981 47.4526C42.1981 46.9526 42.5981 46.4526 42.8981 45.8526C42.7981 47.8526 43.9981 49.1526 45.6981 50.5526ZM60.4981 6.5526C57.6981 13.6526 55.7981 20.8526 52.4981 27.7526C49.2981 34.4526 44.9981 40.6526 40.9981 46.7526C36.9981 52.8526 32.4981 58.2526 27.3981 63.2526C23.2981 67.2526 18.8981 71.1526 14.8981 75.2526C14.8981 74.5526 14.6981 73.7526 14.4981 72.9526C18.7981 69.0526 23.0981 64.9526 27.0981 60.5526C30.6981 56.5526 33.6981 52.1526 36.6981 47.6526C36.7981 47.7526 36.9981 47.9526 37.0981 48.0526C37.2981 48.1526 37.4981 47.9526 37.3981 47.7526C37.2981 47.5526 37.1981 47.2526 36.9981 47.0526C37.7981 45.8526 38.5981 44.6526 39.3981 43.4526C43.3981 37.4526 48.1981 31.8526 51.2981 25.1526C54.0981 19.2526 56.4981 12.7526 58.0981 6.4526C58.4981 6.6526 59.0981 6.5526 59.5981 6.5526C59.9981 6.5526 60.3981 6.4526 60.5981 6.3526C60.5981 6.4526 60.4981 6.5526 60.4981 6.5526ZM54.3981 2.3526C55.4981 1.7526 56.4981 0.752596 57.6981 1.7526C57.9981 2.0526 58.1981 2.3526 58.5981 2.5526C59.2981 2.8526 60.0981 2.9526 60.3981 3.7526C60.6981 4.5526 60.4981 5.4526 59.4981 5.5526C58.4981 5.6526 58.0981 4.4526 57.2981 4.2526C56.6981 4.0526 55.8981 4.0526 55.2981 3.8526C54.5981 3.5526 54.2981 2.9526 54.3981 2.3526ZM19.7981 55.1526C24.3981 50.5526 29.1981 45.7526 33.1981 40.4526C37.0981 35.2526 39.8981 29.2526 42.9981 23.5526C46.4981 17.0526 50.2981 10.5526 53.6981 3.8526L53.7981 3.9526C54.4981 4.8526 55.5981 4.6526 56.5981 5.0526C57.2981 5.3526 57.3981 5.8526 57.7981 6.2526C55.0981 12.3526 53.4981 18.7526 50.5981 24.8526C47.4981 31.3526 42.7981 36.6526 38.7981 42.5526C37.9981 43.7526 37.1981 44.9526 36.3981 46.1526C35.5981 45.3526 34.5981 44.6526 33.5981 44.2526C32.9981 44.0526 31.4981 43.9526 31.5981 44.9526C31.5981 44.9526 31.5981 44.9526 31.6981 44.9526C31.8981 44.6526 32.6981 44.5526 32.9981 44.5526C33.1981 44.5526 33.4981 44.7526 33.6981 44.8526C34.1981 45.1526 34.6981 45.4526 35.1981 45.8526C35.4981 46.0526 35.7981 46.3526 36.0981 46.6526C33.0981 51.1526 29.9981 55.5526 26.3981 59.5526C22.5981 63.8526 18.3981 67.7526 14.2981 71.6526C13.5981 69.9526 12.5981 68.4526 11.3981 67.5526C11.2981 67.3526 11.0981 67.1526 10.9981 66.9526C10.2981 66.2526 9.0981 66.1526 7.9981 66.2526C7.9981 66.2526 7.9981 66.1526 7.8981 66.1526C7.6981 66.1526 7.3981 66.1526 7.1981 66.1526C11.6981 63.3526 15.8981 59.1526 19.7981 55.1526ZM6.2981 67.2526C6.9981 67.3526 7.5981 67.4526 8.2981 67.5526C10.5981 67.8526 10.6981 69.0526 10.6981 71.0526C10.6981 71.8526 10.6981 72.3526 10.8981 73.0526C11.2981 74.0526 12.1981 74.9526 11.9981 76.1526C11.3981 79.4526 8.1981 77.9526 7.2981 76.4526C6.5981 75.3526 6.5981 73.9526 6.0981 72.8526C5.7981 72.1526 5.0981 71.5526 4.8981 70.9526C4.1981 68.7526 5.0981 67.9526 6.2981 67.2526ZM1.9981 94.7526C1.9981 94.8526 1.8981 94.8526 1.8981 94.9526C1.8981 94.5526 1.9981 94.2526 1.9981 93.8526C2.0981 93.9526 2.0981 94.1526 2.1981 94.2526C2.0981 94.6526 2.0981 95.0526 1.9981 95.4526C1.9981 95.2526 1.9981 94.9526 1.9981 94.7526ZM2.2981 93.5526C2.1981 93.3526 2.1981 93.2526 2.0981 93.0526C2.1981 92.4526 2.1981 91.8526 2.2981 91.2526C2.3981 91.5526 2.4981 91.8526 2.5981 92.0526C2.4981 92.5526 2.3981 93.0526 2.2981 93.5526ZM2.3981 94.8526C2.5981 95.3526 2.7981 95.7526 2.9981 96.1526C2.8981 96.6526 2.8981 97.1526 2.8981 97.6526C2.6981 97.2526 2.4981 96.8526 2.2981 96.5526C2.2981 95.9526 2.2981 95.3526 2.3981 94.8526ZM2.1981 97.7526C2.1981 97.6526 2.1981 97.4526 2.1981 97.3526C2.3981 97.6526 2.4981 97.9526 2.6981 98.1526C2.6981 98.2526 2.7981 98.2526 2.7981 98.3526C2.7981 98.8526 2.7981 99.2526 2.7981 99.7526C2.7981 100.253 2.7981 100.753 2.7981 101.253C2.5981 100.853 2.3981 100.353 2.1981 99.9526C2.1981 99.2526 2.1981 98.4526 2.1981 97.7526ZM2.6981 102.153C2.7981 102.253 2.7981 102.353 2.8981 102.553C2.8981 102.953 2.9981 103.453 3.0981 103.853C2.6981 103.053 2.3981 102.153 2.2981 101.253C2.3981 101.553 2.5981 101.853 2.6981 102.153ZM2.8981 104.653C2.7981 104.353 2.6981 104.153 2.5981 103.853C2.6981 103.953 2.7981 104.053 2.8981 104.153H2.9981C3.0981 104.553 3.1981 104.953 3.2981 105.353C3.2981 105.453 3.4981 105.453 3.5981 105.353C3.5981 104.953 3.5981 104.553 3.5981 104.053C3.7981 104.353 3.8981 104.653 4.0981 104.953C4.1981 105.753 4.3981 106.553 4.6981 107.253C4.0981 106.453 3.3981 105.753 2.8981 104.853C2.9981 104.753 2.8981 104.753 2.8981 104.653ZM3.1981 99.1526C3.4981 99.7526 3.7981 100.253 4.1981 100.853C4.0981 101.753 3.9981 102.653 3.9981 103.553C3.7981 103.253 3.5981 102.953 3.3981 102.653C3.2981 101.753 3.1981 100.753 3.1981 99.8526C3.1981 99.5526 3.1981 99.3526 3.1981 99.1526ZM4.0981 107.253C4.4981 107.653 4.8981 108.053 5.2981 108.353C5.3981 108.853 5.4981 109.253 5.5981 109.753C5.0981 108.953 4.5981 108.153 4.0981 107.253ZM4.8981 106.053C4.9981 106.153 5.0981 106.253 5.1981 106.353C5.1981 106.853 5.1981 107.253 5.1981 107.753C5.0981 107.653 5.0981 107.653 4.9981 107.553L5.0981 107.453C5.0981 106.953 4.9981 106.453 4.8981 106.053ZM13.7981 117.753C13.7981 117.653 13.7981 117.553 13.6981 117.453C14.1981 117.853 14.6981 118.253 15.1981 118.653C15.1981 118.753 15.1981 118.853 15.2981 118.953C14.7981 118.653 14.2981 118.253 13.7981 117.753C13.7981 117.853 13.7981 117.853 13.7981 117.753ZM16.1981 119.353C16.1981 119.453 16.1981 119.553 16.2981 119.653C16.1981 119.653 16.1981 119.553 16.0981 119.553C16.0981 119.453 15.9981 119.353 15.9981 119.253C16.0981 119.353 16.0981 119.353 16.1981 119.353ZM16.8981 119.853C16.9981 119.953 17.1981 120.053 17.2981 120.153C17.2981 120.253 17.3981 120.353 17.3981 120.453C17.2981 120.353 17.0981 120.253 16.9981 120.153C16.8981 120.053 16.8981 119.953 16.8981 119.853ZM38.4981 138.853C36.7981 137.153 35.0981 135.453 33.3981 133.753C33.8981 133.553 34.2981 133.353 34.7981 133.153C35.0981 133.553 35.3981 133.953 35.6981 134.353C35.5981 134.453 35.3981 134.653 35.2981 134.753C34.9981 134.953 35.3981 135.353 35.6981 135.153C35.7981 135.053 35.9981 134.953 36.0981 134.853C36.4981 135.353 36.7981 135.753 37.1981 136.253C37.1981 136.753 37.3981 137.153 37.5981 137.553C37.6981 137.653 37.7981 137.753 37.8981 137.653C37.9981 137.553 37.9981 137.553 38.0981 137.453C38.3981 137.853 38.6981 138.153 38.9981 138.553C38.9981 138.553 38.9981 138.553 38.8981 138.553C38.6981 138.353 38.3981 138.553 38.4981 138.853ZM37.0981 133.753C37.3981 134.153 37.5981 134.453 37.8981 134.853C37.6981 135.053 37.4981 135.253 37.2981 135.453C36.9981 135.053 36.6981 134.753 36.3981 134.453C36.6981 134.153 36.8981 133.953 37.0981 133.753ZM40.2981 137.953C40.5981 138.253 40.7981 138.553 41.0981 138.853C40.8981 138.953 40.6981 139.153 40.4981 139.253C40.2981 138.953 40.0981 138.753 39.8981 138.453L39.9981 138.353C40.0981 138.253 40.1981 138.153 40.2981 137.953ZM39.4981 138.053C39.1981 137.653 38.8981 137.353 38.5981 136.953C38.7981 136.853 38.9981 136.653 39.0981 136.553C39.3981 136.953 39.5981 137.253 39.8981 137.653C39.7981 137.753 39.6981 137.853 39.4981 138.053ZM38.2981 136.553C38.2981 136.453 38.1981 136.453 38.1981 136.353C37.9981 136.153 37.7981 135.953 37.5981 135.653C37.7981 135.453 37.9981 135.253 38.1981 135.053C38.4981 135.453 38.6981 135.753 38.9981 136.153C38.6981 136.353 38.4981 136.453 38.2981 136.553ZM39.0981 138.953C39.1981 138.953 39.1981 138.853 39.2981 138.853C39.4981 139.053 39.6981 139.353 39.8981 139.553C39.7981 139.653 39.5981 139.653 39.4981 139.753C39.3981 139.453 39.1981 139.153 39.0981 138.953ZM54.9981 145.053C54.7981 144.653 54.4981 144.253 53.9981 144.053C52.9981 143.553 51.8981 143.653 50.7981 143.553C49.1981 143.453 47.6981 143.653 47.1981 141.353C46.9981 140.653 47.2981 139.853 47.1981 139.153C47.0981 138.553 46.8981 138.053 46.3981 137.653C45.8981 137.253 45.4981 137.353 44.9981 137.153C43.5981 136.553 42.4981 136.053 42.2981 134.353C41.9981 132.053 42.5981 129.453 40.6981 127.653C38.9981 126.053 35.9981 126.253 33.7981 126.353C31.6981 126.453 29.4981 126.853 27.5981 126.053C25.3981 125.153 24.5981 123.153 24.0981 120.953C23.5981 118.753 23.2981 116.053 21.6981 114.353C18.8981 111.453 12.4981 112.753 12.2981 107.453C12.2981 107.253 12.0981 107.253 11.9981 107.453C10.9981 110.253 13.5981 112.253 15.7981 113.153C17.6981 113.853 19.6981 114.353 21.0981 115.853C22.4981 117.353 22.6981 119.353 23.1981 121.253C23.4981 122.353 23.7981 123.353 24.2981 124.253C23.8981 123.953 23.4981 123.653 23.1981 123.353C22.3981 122.653 21.4981 121.953 20.5981 121.453C20.4981 121.453 20.4981 121.453 20.4981 121.553C21.1981 122.453 22.2981 123.253 23.1981 123.953C23.8981 124.553 24.6981 125.153 25.3981 125.653C25.8981 126.153 26.3981 126.553 27.0981 126.853C30.4981 128.253 34.4981 126.053 37.8981 127.753C41.7981 129.653 39.7981 133.253 41.4981 136.153C41.8981 136.853 42.3981 137.253 43.1981 137.553C44.7981 138.253 46.0981 138.453 46.2981 140.653C46.2981 141.153 46.1981 141.753 46.2981 142.253C46.8981 144.653 49.2981 144.453 51.3981 144.553C52.8981 144.653 53.8981 144.653 54.5981 146.453C54.8981 147.153 54.6981 148.153 54.8981 148.953C54.9981 149.253 54.9981 149.453 55.1981 149.653C54.9981 149.653 54.8981 149.653 54.6981 149.653C51.8981 149.653 49.3981 147.953 47.1981 146.253C47.3981 146.053 47.5981 145.753 47.6981 145.553C47.7981 145.453 47.5981 145.253 47.4981 145.353C47.1981 145.453 46.8981 145.653 46.6981 145.853C46.5981 145.753 46.3981 145.653 46.2981 145.553C46.0981 145.453 45.9981 145.253 45.7981 145.153C46.2981 144.953 46.6981 144.553 46.6981 143.853C46.6981 143.753 46.4981 143.653 46.4981 143.753C46.1981 144.153 45.6981 144.553 45.1981 144.653C44.8981 144.453 44.6981 144.253 44.3981 144.053C44.4981 143.953 44.5981 143.953 44.6981 143.853C45.0981 143.553 45.4981 143.253 45.6981 142.853C45.7981 142.753 45.6981 142.553 45.4981 142.653C44.9981 142.753 44.5981 143.153 44.2981 143.353C44.1981 143.453 44.0981 143.553 43.8981 143.653C43.4981 143.353 43.1981 143.053 42.7981 142.753C43.3981 142.253 43.8981 141.753 44.3981 141.153C44.4981 141.053 44.3981 140.953 44.2981 140.953C43.5981 141.353 42.9981 141.853 42.3981 142.353C42.0981 142.053 41.7981 141.853 41.4981 141.553C41.5981 141.453 41.7981 141.253 41.8981 141.153C42.2981 140.753 42.7981 140.453 43.0981 139.953C43.1981 139.853 42.9981 139.653 42.8981 139.653C42.3981 139.753 41.8981 140.253 41.4981 140.653C41.3981 140.753 41.1981 140.953 41.0981 141.053C40.6981 140.753 40.3981 140.353 39.9981 140.053C40.1981 139.953 40.2981 139.953 40.3981 139.853C40.4981 139.953 40.6981 140.153 40.7981 140.253C40.8981 140.353 41.0981 140.253 40.9981 140.053C40.8981 139.853 40.7981 139.753 40.6981 139.553C40.8981 139.353 41.0981 139.253 41.2981 139.053C41.5981 139.353 41.7981 139.653 42.0981 139.853C42.1981 139.953 42.3981 139.853 42.2981 139.653C42.0981 139.353 41.7981 139.053 41.5981 138.653C41.7981 138.453 41.9981 138.153 42.0981 137.853C42.0981 137.753 41.9981 137.653 41.9981 137.753C41.7981 137.953 41.5981 138.153 41.3981 138.253C41.0981 137.853 40.7981 137.453 40.3981 137.053V136.953C40.3981 136.853 40.2981 136.753 40.1981 136.853C39.8981 136.553 39.6981 136.253 39.3981 135.953C39.4981 135.853 39.4981 135.853 39.5981 135.753C39.6981 135.653 39.5981 135.553 39.4981 135.553C39.3981 135.553 39.2981 135.653 39.1981 135.753C38.8981 135.453 38.5981 135.053 38.2981 134.753C38.6981 134.353 38.9981 133.953 39.2981 133.553C39.3981 133.453 39.1981 133.453 39.1981 133.453C38.7981 133.753 38.3981 134.153 37.9981 134.453C37.6981 134.153 37.3981 133.853 37.0981 133.453C37.3981 133.153 37.6981 132.853 37.9981 132.453C38.0981 132.353 37.8981 132.153 37.7981 132.253C37.0981 132.653 36.5981 133.153 35.9981 133.653C35.6981 133.353 35.3981 132.953 35.0981 132.653C35.6981 132.253 36.1981 131.853 36.5981 131.353C36.6981 131.253 36.4981 131.153 36.3981 131.153C35.7981 131.553 35.2981 131.953 34.6981 132.253C34.5981 132.153 34.3981 132.253 34.4981 132.453C34.0981 132.753 33.5981 132.953 33.0981 133.153C33.0981 133.153 33.0981 133.153 32.9981 133.153C31.0981 131.253 29.2981 129.453 27.2981 127.753C24.7981 125.553 21.9981 123.553 19.0981 121.553C19.0981 121.453 18.9981 121.453 18.9981 121.353C18.8981 121.153 18.6981 121.153 18.5981 121.253C18.3981 121.053 18.1981 120.953 17.8981 120.753C17.8981 120.653 17.7981 120.553 17.7981 120.353V120.253C18.0981 120.453 18.4981 120.653 18.7981 120.853C18.8981 120.953 19.0981 120.753 18.9981 120.653C18.4981 120.253 17.9981 119.853 17.4981 119.453C17.3981 119.053 17.2981 118.753 17.1981 118.353C17.0981 118.153 16.6981 118.253 16.7981 118.453C16.7981 118.653 16.8981 118.853 16.8981 118.953C16.6981 118.853 16.4981 118.653 16.2981 118.553C15.9981 117.753 15.7981 116.853 15.3981 116.053C15.4981 116.753 15.5981 117.453 15.7981 118.153C15.6981 118.053 15.5981 118.053 15.4981 117.953C15.1981 117.053 14.9981 116.153 14.5981 115.453C14.5981 116.153 14.6981 116.853 14.8981 117.553C14.3981 117.253 13.9981 116.953 13.4981 116.753C13.4981 116.353 13.4981 115.853 13.4981 115.453C13.2981 115.753 13.0981 116.153 13.0981 116.553C12.8981 116.453 12.5981 116.353 12.3981 116.153C12.5981 116.353 12.8981 116.553 13.0981 116.753C13.0981 116.853 13.0981 117.053 13.0981 117.153L12.9981 117.053C12.1981 115.953 11.5981 114.853 11.8981 113.453C11.8981 113.253 11.5981 113.153 11.5981 113.353C11.3981 114.153 11.3981 115.153 11.6981 116.053C10.1981 114.753 8.7981 113.453 7.4981 112.053L7.5981 111.953C7.0981 110.653 6.6981 109.353 6.6981 107.953C6.6981 107.653 6.2981 107.753 6.2981 107.953C6.2981 109.153 6.4981 110.453 6.9981 111.553C6.4981 110.953 5.9981 110.353 5.5981 109.753C5.6981 109.853 5.7981 109.753 5.7981 109.653C5.7981 109.353 5.7981 108.953 5.6981 108.653C5.7981 108.653 5.8981 108.453 5.7981 108.453L5.6981 108.353C5.6981 107.753 5.5981 107.153 5.5981 106.653C5.5981 106.653 5.6981 106.553 5.5981 106.553C5.5981 106.553 5.5981 106.553 5.5981 106.453C5.5981 105.753 5.6981 105.053 5.7981 104.353C5.8981 104.053 5.3981 103.953 5.3981 104.253C5.2981 104.653 5.2981 105.053 5.1981 105.553C4.9981 105.253 4.8981 104.953 4.6981 104.653C4.5981 103.553 4.4981 102.553 4.4981 101.453C4.7981 101.953 5.1981 102.353 5.5981 102.753C5.6981 102.853 5.7981 102.753 5.7981 102.553C5.4981 101.753 4.9981 101.053 4.5981 100.453C4.5981 100.253 4.5981 100.153 4.6981 99.9526C4.6981 99.6526 4.3981 99.5526 4.2981 99.8526V99.9526C4.0981 99.7526 3.9981 99.4526 3.7981 99.2526C3.5981 98.9526 3.3981 98.6526 3.1981 98.3526C3.1981 97.8526 3.1981 97.3526 3.2981 96.7526C3.6981 97.4526 4.1981 98.1526 4.7981 98.6526C4.8981 98.7526 5.0981 98.6526 4.9981 98.4526C4.3981 97.4526 3.8981 96.5526 3.3981 95.6526C3.3981 95.1526 3.4981 94.7526 3.4981 94.2526C3.4981 94.1526 3.2981 94.1526 3.2981 94.2526C3.1981 94.5526 3.1981 94.9526 3.0981 95.2526C2.8981 94.8526 2.6981 94.4526 2.4981 93.9526C2.5981 93.3526 2.5981 92.8526 2.6981 92.2526C3.2981 93.4526 4.0981 94.4526 5.1981 95.2526C5.2981 95.3526 5.4981 95.2526 5.3981 95.0526C4.5981 93.8526 3.6981 92.7526 2.9981 91.4526C2.9981 91.3526 2.8981 91.3526 2.8981 91.2526C2.8981 91.0526 2.9981 90.8526 2.9981 90.6526C2.8981 90.8526 2.8981 91.0526 2.8981 91.2526C2.6981 90.9526 2.5981 90.5526 2.4981 90.2526C2.5981 89.8526 2.5981 89.3526 2.6981 88.9526C3.0981 89.9526 3.6981 90.8526 4.4981 91.5526C4.5981 91.6526 4.6981 91.5526 4.6981 91.4526C3.7981 90.2526 3.0981 89.0526 2.6981 87.8526C2.6981 87.6526 2.6981 87.3526 2.7981 87.1526C3.0981 87.9526 3.4981 88.6526 3.8981 89.3526C3.9981 89.4526 4.2981 89.3526 4.1981 89.2526C3.7981 88.1526 3.2981 87.0526 2.8981 85.9526C2.8981 85.6526 2.8981 85.2526 2.8981 84.9526C2.8981 83.5526 2.8981 82.2526 2.7981 80.9526C3.4981 81.6526 4.3981 82.2526 5.3981 82.6526C7.8981 83.8526 10.3981 84.9526 10.2981 88.3526C10.2981 90.5526 9.5981 92.7526 9.5981 94.8526C9.6981 97.7526 10.9981 100.653 13.2981 102.453C15.8981 104.453 18.9981 103.853 22.1981 104.053C25.7981 104.253 27.3981 105.953 27.2981 109.653C27.2981 111.253 27.0981 112.853 27.7981 114.253C28.1981 115.153 28.7981 115.753 29.6981 116.153C30.1981 116.353 31.2981 116.153 31.6981 116.453C32.3981 116.953 32.0981 118.053 32.2981 118.753C32.6981 120.153 33.4981 120.953 34.5981 121.453C34.5981 121.653 34.6981 121.753 34.8981 121.753C34.9981 121.753 35.0981 121.753 35.1981 121.753C36.4981 122.153 37.9981 122.153 39.3981 122.053C42.2981 121.853 44.5981 122.253 46.3981 124.653C47.9981 126.853 48.1981 128.853 47.1981 131.353C46.0981 134.253 46.9981 135.853 50.1981 135.853C52.1981 135.853 53.6981 137.153 53.9981 139.153C54.0981 139.853 54.1981 140.453 54.6981 141.053C54.9981 141.453 55.2981 141.753 55.5981 141.953C55.0981 142.753 54.6981 143.953 54.9981 145.053ZM55.2981 138.253C55.1981 137.553 55.0981 136.853 54.6981 136.253C54.1981 135.353 53.4981 134.853 52.4981 134.653C51.9981 134.553 51.4981 134.553 50.9981 134.553C50.6981 134.553 49.8981 134.653 49.5981 134.553C49.2981 134.153 49.0981 133.753 48.7981 133.353C47.9981 132.753 47.7981 132.153 48.2981 131.453C48.5981 130.153 49.1981 129.153 49.0981 127.753C49.0981 125.353 47.8981 123.053 45.8981 121.753C42.7981 119.753 36.6981 122.553 34.4981 119.653C33.5981 118.453 34.1981 116.653 33.2981 115.653C32.7981 115.053 31.9981 115.153 31.2981 115.053C26.0981 113.853 29.5981 108.653 27.1981 105.453C25.6981 103.453 22.8981 103.653 20.5981 103.453C17.3981 103.253 14.3981 101.553 12.4981 99.0526C12.5981 99.0526 12.5981 99.0526 12.5981 98.9526C12.6981 98.4526 12.7981 97.9526 12.7981 97.4526C12.9981 97.7526 13.1981 97.9526 13.4981 98.2526C13.4981 98.6526 13.4981 99.0526 13.5981 99.3526C13.5981 99.5526 13.8981 99.5526 13.9981 99.3526C14.0981 99.2526 14.0981 99.0526 14.0981 98.8526C14.3981 99.0526 14.7981 99.2526 15.1981 99.4526C15.2981 99.4526 15.3981 99.3526 15.2981 99.2526C14.8981 98.9526 14.4981 98.6526 14.1981 98.3526C14.1981 98.2526 14.1981 98.1526 14.1981 98.0526C14.4981 98.4526 14.8981 98.8526 15.3981 99.0526C15.4981 99.1526 15.6981 98.9526 15.5981 98.8526C15.0981 98.1526 14.5981 97.5526 14.1981 96.9526C14.1981 96.6526 14.1981 96.4526 14.1981 96.2526C14.1981 95.9526 13.7981 95.9526 13.7981 96.1526C13.5981 95.7526 13.4981 95.3526 13.3981 94.9526C13.3981 94.7526 13.0981 94.8526 13.0981 94.9526C13.1981 95.6526 13.3981 96.4526 13.6981 97.0526C13.6981 97.2526 13.6981 97.4526 13.5981 97.6526C13.2981 97.3526 13.0981 97.0526 12.8981 96.7526C12.8981 95.7526 12.7981 94.7526 12.7981 93.8526C12.7981 93.6526 12.3981 93.6526 12.3981 93.8526C12.3981 94.4526 12.2981 95.0526 12.2981 95.6526C11.8981 94.6526 11.7981 93.5526 11.8981 92.4526C11.4981 93.8526 11.6981 95.3526 12.2981 96.6526C12.2981 97.4526 12.2981 98.2526 12.3981 98.9526C12.0981 98.5526 11.7981 98.0526 11.4981 97.6526C9.3981 93.7526 11.9981 89.3526 10.2981 85.3526C9.8981 84.2526 9.1981 83.3526 8.2981 82.7526C6.6981 81.6526 3.8981 81.1526 2.5981 79.4526C2.4981 78.2526 2.3981 77.2526 2.1981 76.1526C1.9981 75.1526 1.9981 74.7526 2.1981 73.5526C2.4981 71.8526 2.7981 72.1526 3.7981 71.0526C3.7981 71.1526 3.8981 71.2526 3.8981 71.2526C4.5981 72.4526 5.1981 73.4526 5.5981 74.7526C5.8981 75.6526 6.0981 76.5526 6.6981 77.2526C7.5981 78.3526 9.0981 78.9526 10.4981 78.8526C10.9981 78.8526 11.3981 78.7526 11.6981 78.5526C11.7981 78.5526 11.8981 78.6526 12.0981 78.5526C12.0981 78.2526 12.4981 78.0526 12.7981 78.0526C13.4981 78.1526 13.2981 80.0526 13.3981 80.6526C13.0981 81.2526 12.8981 81.9526 12.7981 82.6526C12.2981 81.6526 11.8981 80.6526 11.4981 79.6526H11.3981C11.4981 80.9526 11.8981 82.3526 12.5981 83.6526C12.4981 84.4526 12.4981 85.2526 12.5981 86.0526C12.4981 85.9526 12.3981 85.8526 12.3981 85.7526C11.5981 84.5526 10.8981 83.2526 10.5981 81.8526C10.7981 83.7526 11.5981 85.9526 12.9981 87.4526C13.1981 88.1526 13.5981 88.8526 13.9981 89.4526C14.0981 89.5526 14.2981 89.4526 14.2981 89.2526C14.1981 88.9526 14.0981 88.6526 13.9981 88.3526C14.1981 88.4526 14.3981 88.5526 14.5981 88.6526C14.5981 89.4526 14.6981 90.3526 14.8981 91.1526C13.9981 92.8526 14.6981 94.8526 15.9981 96.3526C16.1981 97.3526 16.5981 98.2526 17.1981 99.0526C17.2981 99.1526 17.4981 99.0526 17.3981 98.9526C17.0981 98.3526 16.8981 97.6526 16.6981 97.0526C17.1981 97.5526 17.6981 97.9526 18.2981 98.2526C18.4981 99.0526 18.9981 99.8526 19.7981 100.253C19.8981 100.353 19.9981 100.153 19.9981 100.053C19.5981 99.6526 19.2981 99.1526 19.0981 98.6526C19.5981 98.8526 20.0981 99.0526 20.5981 99.1526C20.7981 99.1526 20.8981 98.9526 20.6981 98.8526C19.9981 98.4526 19.3981 98.1526 18.7981 97.7526C18.7981 97.4526 18.6981 97.1526 18.7981 96.7526C18.7981 96.4526 18.3981 96.4526 18.2981 96.7526C18.2981 96.9526 18.2981 97.1526 18.2981 97.3526C17.7981 97.0526 17.3981 96.6526 16.9981 96.2526C16.7981 96.0526 16.5981 95.8526 16.3981 95.6526C16.1981 94.7526 16.1981 93.8526 16.2981 92.8526C16.6981 93.9526 17.3981 94.9526 18.1981 95.7526C18.9981 96.5526 19.7981 97.0526 20.3981 97.8526C20.6981 98.2526 20.9981 98.6526 21.4981 98.8526C22.0981 99.0526 22.7981 98.8526 23.4981 98.5526C23.6981 98.6526 23.9981 98.7526 24.2981 98.7526C24.1981 98.5526 23.9981 98.4526 23.8981 98.3526C24.1981 98.1526 24.3981 97.9526 24.6981 97.8526C24.9981 98.0526 25.2981 98.1526 25.4981 98.3526C25.8981 98.5526 26.3981 98.9526 26.7981 98.8526C26.7981 99.0526 26.7981 99.2526 26.8981 99.4526C26.8981 100.053 26.8981 100.753 26.8981 101.253C26.8981 101.953 26.8981 102.753 27.0981 103.453C25.7981 102.153 25.2981 100.453 24.8981 98.6526C24.4981 100.853 25.6981 103.353 27.4981 104.853C27.6981 105.353 27.9981 105.753 28.3981 106.153C28.4981 106.253 28.7981 106.153 28.6981 105.953C28.6981 105.853 28.5981 105.753 28.5981 105.653C29.1981 105.953 29.7981 106.153 30.3981 106.253C30.5981 106.753 30.8981 107.153 31.3981 107.553C31.4981 107.653 31.6981 107.553 31.5981 107.353C31.3981 107.053 31.1981 106.653 31.0981 106.253C31.3981 106.253 31.5981 106.253 31.8981 106.153C31.7981 107.253 31.9981 108.253 32.4981 109.153C32.5981 109.253 32.8981 109.253 32.7981 109.053C32.6981 107.753 32.3981 106.553 32.3981 105.253C32.4981 105.253 32.5981 105.253 32.6981 105.353C33.4981 105.953 34.2981 106.553 35.1981 106.953C33.7981 108.053 34.6981 113.053 35.2981 113.953C36.4981 115.753 39.2981 116.453 41.0981 117.353C42.2981 117.953 43.3981 118.553 44.3981 117.953C44.4981 117.953 44.5981 117.953 44.6981 117.853C44.8981 117.753 45.0981 117.553 45.2981 117.453C45.6981 119.653 46.8981 122.153 48.8981 123.153C49.0981 123.253 49.2981 123.053 49.0981 122.853C48.2981 121.853 47.2981 120.953 46.5981 119.853C46.2981 119.353 45.9981 118.753 45.7981 118.153C45.6981 117.753 45.4981 117.453 45.4981 117.253C45.7981 117.053 46.0981 116.853 46.3981 116.553C47.1981 115.953 47.9981 115.453 48.6981 114.853C47.9981 118.153 50.9981 122.553 54.1981 123.853C54.0981 123.953 53.9981 123.953 53.8981 124.053C53.5981 124.253 53.6981 124.553 53.7981 124.653C52.2981 124.953 51.1981 126.153 51.9981 127.753C52.6981 129.153 54.6981 130.253 55.9981 131.153C57.0981 132.053 58.3981 133.453 59.9981 133.153C60.0981 133.153 60.1981 133.153 60.2981 133.053C60.2981 134.653 59.9981 136.253 59.3981 137.353C58.6981 138.653 57.3981 139.453 56.3981 140.453C55.7981 140.153 55.4981 139.053 55.2981 138.253ZM64.2981 141.153C64.0981 141.653 63.9981 142.053 63.7981 142.553C63.2981 142.853 62.6981 143.053 62.1981 143.353C62.2981 142.953 62.3981 142.553 62.4981 142.153C63.1981 141.753 63.7981 141.453 64.2981 141.153ZM62.7981 141.153C62.7981 140.953 62.8981 140.753 62.9981 140.553C63.5981 140.353 64.1981 140.053 64.7981 139.853C64.6981 140.053 64.6981 140.253 64.5981 140.353C63.9981 140.653 63.3981 140.853 62.7981 141.153ZM61.9981 144.253C62.5981 143.853 63.0981 143.553 63.5981 143.153C63.2981 143.953 62.9981 144.653 62.7981 145.453C62.2981 145.653 61.7981 145.953 61.2981 146.153C61.5981 145.553 61.8981 144.853 61.9981 144.253ZM61.1981 143.953C60.5981 144.353 59.9981 144.653 59.4981 145.053C59.5981 144.553 59.6981 144.053 59.7981 143.553C60.4981 143.253 61.0981 142.853 61.7981 142.553C61.4981 143.053 61.3981 143.453 61.1981 143.953ZM62.0981 141.553C61.3981 141.953 60.5981 142.353 59.8981 142.753C59.8981 142.653 59.8981 142.553 59.9981 142.453C60.0981 142.253 60.0981 141.953 60.1981 141.753C60.8981 141.453 61.6981 141.153 62.3981 140.953C62.1981 141.053 62.1981 141.353 62.0981 141.553ZM59.6981 141.253C58.9981 141.553 58.2981 141.753 57.6981 142.153C58.3981 141.053 59.4981 140.353 60.3981 139.353C60.0981 139.953 59.8981 140.653 59.6981 141.253ZM56.8981 142.553C57.1981 142.253 57.4981 141.953 57.8981 141.653L56.8981 142.553ZM57.0981 143.253C57.1981 143.053 57.2981 142.753 57.3981 142.553C58.0981 142.453 58.7981 142.253 59.4981 141.953C59.3981 142.153 59.3981 142.353 59.2981 142.553C59.2981 142.753 59.1981 142.953 59.1981 143.153C58.3981 143.653 57.5981 144.153 56.8981 144.653C56.6981 144.853 56.8981 145.153 57.0981 145.053C57.6981 144.753 58.2981 144.453 58.8981 144.053C58.7981 144.653 58.5981 145.153 58.4981 145.753C57.8981 146.153 57.3981 146.553 56.8981 147.053C57.3981 146.853 57.8981 146.553 58.3981 146.353C58.3981 146.653 58.3981 146.953 58.3981 147.253C58.3981 147.453 58.6981 147.453 58.7981 147.253C58.9981 146.853 59.0981 146.353 59.1981 145.853C59.6981 145.553 60.2981 145.253 60.7981 144.953C60.5981 145.553 60.4981 146.053 60.3981 146.653C59.3981 147.253 58.3981 147.853 57.4981 148.453C56.5981 146.953 56.3981 144.953 57.0981 143.253ZM105.698 118.953C104.498 120.753 102.898 122.453 100.898 123.753C98.1981 125.453 96.0981 127.053 93.8981 129.253C91.8981 131.453 89.8981 133.553 87.6981 135.553C85.3981 137.653 82.7981 139.453 79.8981 140.753C76.6981 142.153 73.2981 142.553 70.0981 143.653C69.5981 143.853 69.0981 144.053 68.5981 144.253C68.6981 144.053 68.6981 143.853 68.7981 143.753C68.9981 143.253 69.2981 142.753 69.6981 142.353C69.8981 142.053 69.3981 141.653 69.1981 141.953C68.7981 142.453 68.4981 142.953 68.1981 143.453C68.0981 143.753 67.7981 144.253 67.8981 144.653C64.5981 146.153 61.4981 148.453 58.0981 149.353C57.9981 149.153 57.8981 149.053 57.7981 148.853C58.6981 148.453 59.5981 148.053 60.4981 147.553C60.4981 147.753 60.7981 147.753 60.8981 147.653C60.9981 147.553 60.9981 147.353 61.0981 147.253C61.6981 146.953 62.2981 146.553 62.8981 146.253C62.8981 146.353 62.8981 146.353 62.8981 146.453C62.8981 146.653 63.0981 146.653 63.1981 146.553C63.3981 146.353 63.4981 146.053 63.5981 145.853C63.9981 145.553 64.3981 145.353 64.6981 145.053C64.7981 144.953 64.7981 144.753 64.5981 144.853C64.2981 144.953 64.0981 145.053 63.7981 145.153C63.9981 144.553 64.1981 143.953 64.3981 143.353C64.6981 142.453 64.9981 141.653 65.2981 140.753C65.5981 140.553 65.8981 140.453 66.1981 140.253C66.3981 140.153 66.2981 139.953 66.0981 139.953C65.8981 140.053 65.6981 140.153 65.4981 140.153C65.5981 139.953 65.5981 139.853 65.6981 139.653V139.553C66.1981 139.353 66.6981 139.053 67.1981 138.853C67.2981 138.753 67.1981 138.553 67.0981 138.653C65.7981 139.153 64.4981 139.653 63.1981 140.153C63.0981 139.953 62.7981 139.953 62.6981 140.153C62.6981 140.253 62.6981 140.253 62.5981 140.353C62.2981 140.453 61.9981 140.553 61.6981 140.653C61.1981 140.853 60.7981 141.053 60.2981 141.153C60.4981 140.353 60.6981 139.553 60.7981 138.853C60.9981 138.553 61.1981 138.153 61.3981 137.853C61.5981 137.253 61.7981 136.553 61.8981 135.853C64.0981 135.053 66.3981 134.253 68.4981 133.253C68.6981 133.153 68.4981 132.953 68.3981 132.953C66.1981 133.553 64.0981 134.553 61.9981 135.453C62.0981 134.753 62.0981 134.053 61.9981 133.353C62.2981 133.153 62.6981 132.953 62.9981 132.853C63.7981 132.553 64.4981 132.353 65.1981 132.053C65.2981 131.953 65.1981 131.753 65.0981 131.853C64.9981 131.853 64.8981 131.853 64.8981 131.953C72.1981 128.053 79.2981 123.353 86.4981 119.053C92.9981 115.153 99.1981 111.053 104.798 105.953C104.998 106.553 105.298 107.153 105.498 107.753C105.498 107.853 105.598 107.953 105.598 108.153C105.198 108.453 104.898 108.753 104.498 109.053C103.398 110.053 102.098 110.953 101.198 112.053C101.198 112.153 101.198 112.153 101.298 112.153C102.498 111.453 103.498 110.553 104.498 109.753C104.898 109.453 105.298 109.053 105.798 108.753C105.898 109.153 106.098 109.553 106.198 109.953C105.798 110.353 105.298 110.853 104.898 111.253C103.598 112.553 102.098 113.653 100.898 115.053C100.898 115.053 100.898 115.153 100.998 115.153C102.498 114.253 103.898 112.953 105.198 111.753C105.198 111.753 105.198 111.753 105.298 111.753L105.098 113.253C104.798 113.553 104.598 113.853 104.298 114.153C103.198 115.353 101.898 116.453 100.898 117.653C100.798 117.753 100.998 117.853 100.998 117.753C102.398 116.753 103.698 115.553 104.898 114.253L104.798 114.753C104.598 115.453 104.398 115.953 104.398 116.153C104.398 116.253 104.398 116.253 104.398 116.353L103.198 117.653C102.498 118.353 101.798 118.953 101.198 119.653C101.098 119.753 101.198 119.953 101.298 119.853C102.198 119.253 103.198 118.453 104.098 117.653C103.998 118.153 103.898 118.653 103.798 119.153C102.598 120.153 101.398 121.153 100.298 122.253C101.498 121.653 102.598 120.753 103.698 119.853C103.698 120.053 103.698 120.253 103.698 120.453C103.698 120.653 103.798 120.653 103.998 120.653C103.098 121.553 102.098 122.553 101.198 123.453C101.098 123.553 101.298 123.753 101.398 123.553C102.898 122.053 104.498 120.653 105.998 119.153C105.698 118.753 105.698 118.853 105.698 118.953ZM105.398 111.153C105.398 111.053 105.298 111.053 105.298 111.053C105.698 110.753 105.998 110.453 106.398 110.053C106.498 110.253 106.598 110.453 106.698 110.653L106.798 110.753C106.398 111.153 105.898 111.653 105.498 112.053C105.498 111.953 105.498 111.853 105.498 111.753C105.598 111.753 105.498 111.353 105.398 111.153ZM105.698 118.353C105.098 118.853 104.598 119.453 103.998 119.953C104.198 119.553 104.298 119.053 104.398 118.653C104.498 118.553 104.598 118.453 104.698 118.353C104.998 118.053 105.398 117.753 105.698 117.453C105.698 117.753 105.698 118.053 105.698 118.353ZM105.898 116.553C105.498 116.953 104.998 117.353 104.598 117.753C104.698 117.253 104.798 116.753 104.798 116.253C105.298 115.753 105.798 115.253 106.198 114.753C106.098 115.353 105.998 115.953 105.898 116.553ZM106.398 117.553C106.498 117.253 106.498 116.953 106.598 116.553C106.698 116.453 106.898 116.253 106.998 116.153C106.798 116.653 106.598 117.153 106.398 117.553ZM107.298 115.253C107.098 115.453 106.898 115.653 106.698 115.853C106.798 115.253 106.898 114.553 106.998 113.953C107.298 113.553 107.498 113.253 107.798 112.853C107.698 113.653 107.498 114.453 107.298 115.253ZM107.198 112.553C107.198 112.453 107.198 112.353 107.298 112.253C107.298 112.053 106.998 111.953 106.998 112.153C106.898 112.453 106.798 112.753 106.798 113.153C106.498 113.553 106.098 113.953 105.798 114.353L105.198 115.053C105.298 114.453 105.398 113.853 105.498 113.253C106.298 112.453 107.098 111.553 107.798 110.653C107.798 111.053 107.898 111.553 107.898 111.953C107.598 112.153 107.398 112.353 107.198 112.553ZM107.298 110.253C107.298 109.853 107.398 109.553 107.298 109.153L107.398 109.053C107.498 109.353 107.498 109.653 107.598 110.053C107.498 110.053 107.398 110.153 107.298 110.253ZM108.098 106.853C107.598 106.753 107.098 107.053 107.098 107.553C107.098 107.453 106.998 107.353 106.998 107.253C107.298 106.953 107.598 106.753 107.798 106.453C107.898 106.353 107.798 106.153 107.598 106.253C107.298 106.453 106.998 106.653 106.798 106.753C106.498 105.953 106.098 105.253 105.598 104.753C105.898 104.453 106.298 104.153 106.598 103.753C107.198 104.753 107.798 105.753 108.098 106.853ZM106.798 102.053C106.198 102.653 105.498 103.353 104.898 103.953C104.698 103.853 104.498 103.953 104.498 104.153C104.498 104.253 104.498 104.353 104.498 104.353C91.7981 116.153 75.6981 122.853 62.0981 132.253C62.2981 131.453 62.3981 130.653 62.4981 129.853C62.4981 129.653 62.2981 129.553 62.1981 129.753C62.1981 129.553 62.1981 129.353 62.0981 129.153C69.7981 125.653 77.2981 121.153 84.5981 116.453C91.8981 111.753 98.7981 106.253 105.098 100.153C118.298 87.2526 129.598 72.1526 141.398 57.2526C141.698 57.2526 141.998 57.3526 142.298 57.3526C131.498 73.0526 119.798 88.7526 106.798 102.053Z" />
</svg>
