<svg viewBox="0 0 120 122" fill="curentColor" xmlns="http://www.w3.org/2000/svg">
<path d="M64.3045 0.0321817C67.693 -0.221987 70.7724 1.0856 73.9253 1.97672C77.2563 2.96957 80.6855 3.59695 84.1522 3.84777C87.8959 4.06825 91.4987 5.14619 95.1505 5.93013C96.8279 6.29148 98.5758 6.32516 100.189 6.99886C101.021 7.29369 101.767 7.79277 102.356 8.45038C102.788 8.94798 103.307 9.36301 103.887 9.67529C106.458 11.1095 108.491 13.3436 109.678 16.0387C111.711 20.4851 114.395 24.5304 117.138 28.5358C118.42 30.41 118.555 32.3392 118.203 34.4461C117.835 36.9114 117.843 39.4184 118.228 41.8813C118.768 46.0048 118.581 50.1913 117.674 54.2498C117.061 57.1498 117.367 59.9457 118.105 62.7078C118.851 65.4472 119.187 68.282 119.103 71.1199C119.037 72.9999 119.282 74.878 119.828 76.6779C120.355 78.4051 119.66 79.3819 117.872 79.3819C113.281 79.3819 108.775 79.9944 104.297 80.9315C100.823 81.6511 97.3728 81.3449 93.9107 80.7416C90.8283 80.2057 87.7091 80.4353 84.6175 80.6681C82.6768 80.8059 80.7177 80.6681 78.8015 81.1581C78.0026 81.354 77.8404 81.6878 77.8832 82.4075C77.9916 83.784 78.218 85.1486 78.5597 86.4864C79.2515 89.4231 79.2301 92.418 79.3372 95.4129C79.478 99.3939 79.7167 103.375 80.4238 107.301C80.4662 107.605 80.5507 107.902 80.6748 108.183C81.9391 110.709 81.0238 112.938 79.7565 115.119C79.6286 115.378 79.4442 115.605 79.217 115.784C78.9897 115.962 78.7254 116.088 78.4433 116.151C76.8394 116.429 75.2905 116.88 73.5794 116.601C72.0091 116.35 70.3928 116.928 68.7919 117.069C65.6618 117.318 62.514 117.225 59.4037 116.794C57.059 116.488 54.6867 116.383 52.345 116.062C51.0257 115.881 49.7584 115.37 48.4452 115.143C46.324 114.76 44.6006 115.958 42.8252 116.794C41.4754 117.442 40.1804 118.199 38.953 119.057C38.1571 119.608 37.5143 120.389 36.8286 121.087C35.6042 122.343 34.9737 122.312 33.8778 120.94C32.866 119.692 31.9618 118.36 31.1749 116.959C29.9023 114.635 28.3823 112.455 26.6415 110.458C23.9907 107.454 21.8265 104.088 19.4604 100.873C15.7671 95.9142 11.7157 91.2327 7.33865 86.8662C5.59081 85.1053 3.35932 83.8988 1.8288 81.8562C0.234003 79.7402 -0.500647 77.4588 0.371747 74.963C1.92675 70.5258 2.07676 65.9538 2.07676 61.342C2.07676 57.3856 2.07676 53.4291 2.07676 49.4726C2.07676 46.0184 1.80738 42.5795 0.919683 39.2355C0.0840218 36.0874 1.33297 35.2269 3.87362 33.803C6.32245 32.428 8.99161 32.7526 11.621 33.1629C12.1468 33.2706 12.6868 33.2902 13.219 33.2211C15.7841 32.7496 18.2452 33.3008 20.7215 33.8826C22.702 34.3481 24.7162 34.6696 26.7487 34.1704C27.5966 33.9622 28.2394 33.7448 27.9884 32.5046C27.6823 31.0408 27.9486 29.5066 28.4078 28.0704C28.994 26.1567 29.2091 24.1486 29.0414 22.1541C28.7996 18.7458 28.671 15.3374 28.5792 11.923C28.5363 10.3674 27.967 8.86071 28.1354 7.24995C28.3404 5.25335 28.8149 4.69602 30.8107 4.57353C34.536 4.34386 38.1572 3.42517 41.8304 3.00258C44.7598 2.66879 47.6923 2.35338 50.6094 1.93384C54.1633 1.42244 57.7049 0.828381 61.2434 0.231237C62.2571 0.0857693 63.2805 0.0192126 64.3045 0.0321817V0.0321817ZM35.5859 43.5165C36.345 44.521 37.4225 44.5638 38.552 44.5577C42.461 44.5393 46.3699 44.5577 50.2819 44.5577C50.4502 44.5577 50.6706 44.6373 50.8022 44.2515C50.19 44.2239 49.988 43.5502 49.2228 43.5655C44.6771 43.6543 40.1315 43.7493 35.5859 43.5135C35.9134 43.1001 36.3603 43.1062 36.8348 43.1123C38.8306 43.145 40.8274 43.1654 42.8252 43.1736C44.8425 43.1736 46.8566 43.1736 48.9717 43.1736C48.485 42.2549 47.8759 41.9762 46.9699 42.0007C44.6282 42.062 42.2834 42.0528 39.9295 42.0007C38.8306 41.9762 37.7348 41.7986 36.6358 41.6945L36.6603 41.3056C40.2601 41.5631 43.871 41.6306 47.478 41.5077C46.6546 40.1756 46.6515 40.1603 45.3353 40.1786C43.3058 40.2062 41.2824 40.5369 39.2468 40.3991C38.9407 40.3777 38.5214 40.592 38.3745 39.9551C41.0192 40.0439 43.6088 39.7162 46.3913 39.6489C45.9199 39.1283 45.9475 38.2984 45.2833 38.4086C43.3334 38.7149 41.3682 38.3719 39.4244 38.672C39.0295 38.7333 38.5245 38.9782 38.1694 38.3872C40.5601 37.9371 42.9354 38.1576 45.2893 38.0596C45.2893 37.2174 44.8088 37.1225 44.2058 37.1623C42.6355 37.2756 41.059 37.2756 39.4887 37.1623C39.2775 37.1623 38.9102 37.3154 38.904 36.7152C40.1284 36.7765 41.3314 36.8622 42.5405 36.8898C43.2231 36.8898 44.218 37.1715 44.4935 36.6172C44.7996 36.0047 43.8966 35.426 43.5752 34.8013C42.6048 32.8843 41.0192 32.624 39.1397 33.1323C39.0427 33.1743 38.9391 33.1991 38.8336 33.2058C35.2584 32.7679 31.98 33.6621 28.9312 35.4597C29.323 35.8118 29.7699 36.1701 30.1556 36.5805C31.5637 38.0381 32.3748 39.949 33.8441 41.3821C34.4961 42.0252 35.2614 42.5978 35.5797 43.5165H35.5859ZM74.9966 93.055C75.266 92.4058 75.0916 92.1577 74.4396 92.513C72.9397 93.3367 71.3632 93.2571 69.7684 92.957C69.2083 92.8529 68.6603 92.5957 68.0879 92.8223C66.4044 93.4868 64.7207 93.7103 62.9759 93.006C62.7892 92.9339 62.5882 92.9064 62.389 92.9255C62.1898 92.9446 61.9977 93.0099 61.8281 93.1162C63.5698 94.4759 65.5533 94.5555 67.5002 94.2799C68.8165 94.0738 70.1538 94.0367 71.4795 94.1697C72.1168 94.2669 72.768 94.2134 73.3809 94.0135C73.9938 93.8135 74.5514 93.4727 75.0089 93.0183C75.2813 93.4164 75.0242 93.6766 74.7457 93.891C73.9008 94.5402 72.9396 94.9812 71.8774 94.7485C70.7584 94.4698 69.593 94.4322 68.4583 94.6382C66.477 95.0717 64.4158 94.966 62.4893 94.3319C60.7323 93.7654 58.9874 94.5249 57.2426 94.3319C56.808 94.286 56.0611 94.6872 56.0182 93.9584C55.9754 93.2295 56.8141 93.4347 57.2426 93.2173C57.3988 93.1408 57.6253 93.2173 57.812 93.1867C58.6018 93.0244 59.4282 92.9692 60.169 92.5099L59.4466 91.631C60.2884 91.3799 60.4935 92.5068 61.32 92.3078C62.2168 92.0965 63.129 92.3078 64.0045 92.6783C64.443 92.8618 64.9155 92.9495 65.3905 92.9358C65.8656 92.9221 66.3323 92.8072 66.7594 92.5987C67.8209 92.118 69.0266 92.0642 70.1265 92.4487C71.7642 92.9876 73.2611 92.4762 74.7457 91.8362C75.0303 91.7137 75.0517 91.6035 75.0181 91.3432C74.7726 90.149 74.5979 88.9414 74.4946 87.7266C74.4304 86.3119 73.2703 86.5017 72.5295 86.3792C71.7887 86.2567 71.3265 86.9396 71.1857 87.6807C71.1214 88.0298 71.0295 88.532 70.7877 88.5841C69.5633 88.8474 68.8225 90.0019 67.5797 90.2285C66.7043 90.3847 65.5595 90.2959 65.5809 91.7229C65.5809 91.824 65.3268 92.0291 65.2748 92.0291C64.6014 91.7229 63.8759 92.3844 63.1719 91.8209C62.4679 91.2574 61.5465 90.8379 60.769 90.2898C58.6936 88.8413 56.6427 87.3592 54.5826 85.8893C55.253 87.4939 54.6561 88.8382 53.9704 90.204C53.6077 90.9223 53.4824 91.7372 53.6123 92.5314C53.8664 94.3259 54.7265 95.9427 55.0142 97.7005C55.1642 98.6191 55.5499 98.8243 56.3642 98.7662C56.786 98.7659 57.2031 98.6772 57.5886 98.5058C58.7181 97.9118 59.7955 98.071 60.8332 98.708C61.5967 99.141 62.331 99.6238 63.0311 100.153C64.4973 101.335 66.135 101.473 67.8981 101.146C68.6909 100.999 69.5113 100.907 70.2796 101.191C71.8285 101.764 73.4447 101.96 75.0456 102.276C75.817 102.426 75.7864 102.156 75.7864 101.663C75.7864 100.132 75.8996 98.5793 75.7496 97.0696C75.6058 95.6855 75.7251 94.2738 74.9905 93.0427L74.9966 93.055ZM110.887 58.047C109.357 58.2032 107.884 57.8327 106.427 57.4346C106.081 57.3427 105.625 57.2202 105.699 56.7057C105.766 56.2433 106.195 56.1239 106.562 56.0933C107.597 56.0443 108.61 55.8483 109.651 55.8146C111.83 55.7503 114 55.5298 116.18 55.4073C116.703 55.3798 116.859 55.1807 116.746 54.6969C116.645 54.2682 116.544 53.8885 115.938 54.011C114.171 54.3352 112.373 54.4646 110.578 54.3968C109.469 54.3825 108.363 54.5133 107.287 54.7857C105.797 55.1532 104.288 55.3247 102.748 54.9664C100.966 54.553 99.1849 54.4366 97.5442 55.4778C97.2595 55.6554 96.9473 55.5788 96.6473 55.6156C95.5545 55.7534 94.5383 55.3553 93.4884 55.1838C92.0956 54.9572 90.7609 55.2849 89.4508 55.7963C90.3691 54.5132 92.9037 53.9222 94.5658 54.6694C95.8515 55.2481 96.981 55.1164 98.1503 54.4887C99.7114 53.6527 101.383 53.6618 103.075 53.8762C104.061 54.0017 105.05 54.3876 106.032 54.1824C108.344 53.6741 110.679 53.7721 113.012 53.7996C114.105 53.7639 115.194 53.6441 116.269 53.4414C115.105 53.1566 114.15 53.2821 113.207 53.3403C110.786 53.4873 108.386 52.9912 105.965 53.1933C104.131 53.343 102.288 53.3369 100.455 53.175C98.9273 53.0201 97.3867 53.0417 95.8637 53.2393C92.1507 53.7905 88.4437 54.4121 84.6603 54.2559C81.1463 54.1089 77.6628 53.2729 74.1335 53.6159C70.8949 53.9221 67.7328 53.5639 64.4728 52.93C65.3354 54.4858 66.2911 55.9881 67.3349 57.4285C68.0052 58.3472 68.8654 58.5615 69.8082 58.5156C73.0222 58.3206 76.2456 58.3431 79.4566 58.5829C80.4822 58.7068 81.5163 58.7447 82.5482 58.6962C85.0583 58.491 87.5438 57.8112 90.0814 58.1971C91.8384 58.4635 93.5679 58.5646 95.3158 58.1512C96.6535 57.8449 98.0064 57.5938 99.3471 57.2998C100.265 57.1039 101.224 57.4683 102.102 56.9201C99.0961 56.8344 96.0566 57.4775 93.1057 56.4669C94.6209 56.2617 96.1483 56.4149 97.6421 55.9739C99.1359 55.5329 100.663 56.0106 102.163 56.3077C102.629 56.3995 103.18 56.4087 103.189 56.9752C103.189 57.6305 102.592 57.6734 102.099 57.701C100.8 57.7287 99.5155 57.973 98.2972 58.4237C96.2097 59.3042 93.9102 59.5544 91.6823 59.1433C90.0293 58.8371 88.3428 58.3318 86.5918 58.8126C82.9186 59.8201 79.178 59.4587 75.4344 59.1678C73.3284 59.0055 71.1979 59.1403 68.8868 59.1403C69.6827 59.9732 70.5153 59.7527 71.2561 59.6792C72.4765 59.5566 73.7047 59.53 74.9293 59.5996C78.8474 59.9058 82.7656 60.457 86.6684 59.3883C88.1989 58.9688 89.1998 59.4281 89.9406 60.7908C90.4334 61.7095 91.0824 61.7799 91.9517 61.4921C93.2496 61.0664 94.5107 60.4387 95.9311 60.5091C97.351 60.5987 98.7637 60.2457 99.9747 59.4985C100.898 58.9567 101.971 58.7239 103.036 58.834C105.254 58.9814 107.483 58.8425 109.666 58.4206C110.082 58.338 110.618 58.6105 110.89 58.0501C112.629 58.2216 114.386 58.1144 116.119 58.39C116.327 58.4237 116.67 58.6442 116.792 58.2399C116.842 58.0927 116.834 57.9319 116.77 57.7903C116.705 57.6487 116.59 57.5369 116.446 57.4774C115.47 57.0671 114.404 57.012 113.385 56.7762C112.706 56.62 112.611 57.2508 112.246 57.5172C111.852 57.8208 111.377 58.0009 110.881 58.0348L110.887 58.047ZM72.5692 110.458L72.9611 110.911C72.9366 111.386 72.9611 111.83 73.5213 112.02C73.7682 112.121 73.9952 112.265 74.1916 112.445C74.3814 112.608 74.8191 112.531 74.6997 113.098C73.2059 112.448 71.8683 110.81 70.0562 112.286L72.3703 113.67C71.0204 113.441 69.9215 112.752 68.8348 112.023C67.6624 111.242 66.4258 111.217 65.0912 111.41L69.1593 114.319C66.0676 113.312 58.4762 107.42 58.3967 106.131C58.9293 106.498 59.1925 107.163 59.9057 107.313C59.569 105.687 60.772 104.633 61.2342 103.332C61.3106 103.176 61.3444 103.003 61.332 102.829C61.3196 102.656 61.2616 102.489 61.1638 102.346C59.8598 100 57.558 100.065 55.3693 99.8134C55.2928 100.518 55.2653 101.13 55.1551 101.73C54.5184 105.197 53.8633 108.67 54.1694 112.216C54.2796 113.517 54.2153 114.99 55.9754 115.514C58.764 116.347 61.574 116.631 64.4391 116.089C67.5899 115.48 70.8034 115.259 74.0079 115.431C74.8864 115.48 75.9884 115.293 76.3435 114.246C76.6145 113.448 76.7186 112.603 76.6496 111.762C76.3894 108.982 75.7313 106.25 75.7496 103.381C73.9436 103.816 72.2631 103.43 70.5796 103.167C69.5205 103.001 68.4369 102.943 67.6808 103.794C66.79 104.799 65.8442 104.918 64.7085 104.407C63.9586 104.064 63.4076 104.407 63.0219 104.958C62.5444 105.647 63.0494 107.359 63.6953 107.999C65.4462 109.729 67.9808 109.052 69.9123 110.167C68.1889 108.59 66.1533 107.448 64.6136 105.708C66.5931 106.99 68.5134 108.349 70.3745 109.784C70.6704 110.048 71.0196 110.244 71.3983 110.361C71.7771 110.477 72.1765 110.51 72.5692 110.458V110.458ZM43.8506 59.2597C42.7119 57.3672 41.5671 55.4839 39.9417 53.9467C38.2214 52.3145 36.2685 50.9181 34.9124 48.9245C34.4349 48.2233 33.9329 47.6659 33.0024 47.6996C32.935 47.6996 32.8585 47.5373 32.7452 47.3934L33.5992 47.2157C32.862 45.911 31.8785 44.7618 30.7035 43.8319C29.7424 43.0419 28.7506 42.3253 27.3364 42.6591C26.3416 42.8887 25.2824 42.8214 24.2539 42.9286C23.6417 42.9929 22.6469 42.5948 22.4846 43.1644C22.3224 43.7339 23.2132 44.1902 23.7978 44.5669C24.4682 44.9956 25.1722 45.4151 25.5059 46.2083C25.561 46.3091 25.5879 46.4229 25.5835 46.5378C25.5792 46.6526 25.5439 46.7641 25.4814 46.8605C25.2855 47.1423 25.0712 46.9524 24.8876 46.8605C22.9346 45.8041 21.0337 44.7169 19.9134 42.6377C19.4053 41.6975 18.8818 40.5461 17.3054 40.7697C18.2482 40.2154 17.6941 39.9031 17.2809 39.6305C15.6463 38.5618 14.0362 37.4655 12.7537 35.9558C12.5241 35.6832 12.0129 35.4628 12.3159 35.0371C12.6189 34.6114 13.023 35.0371 13.3598 35.1167C14.1893 35.3219 14.8321 35.9772 15.7687 36.0109C17.8533 36.0905 19.8981 35.6097 21.9827 35.6771C17.2166 35.0646 12.5455 33.5059 7.59581 34.3542C9.05898 35.7046 10.9292 36.3416 12.3894 37.5328C15.481 40.0561 18.4319 42.7387 20.9327 45.8806C23.4336 49.0225 25.9712 52.0052 29.4026 54.2376C32.2493 56.0749 34.1625 58.7636 34.64 62.2822C34.8819 64.0522 35.2338 65.8069 35.5032 67.5738C35.6195 68.3424 35.8951 68.6241 36.7062 68.3056C37.4861 67.9933 38.3153 67.8223 39.1551 67.8004C40.4529 67.7759 40.7621 67.2124 40.4529 65.914C40.2785 65.176 39.5866 64.8821 39.3601 64.2022C38.9072 62.696 38.0842 61.3273 36.9664 60.2213C36.7093 59.9763 36.3205 59.6455 36.6603 59.2413C37.0001 58.8371 37.4255 59.0913 37.799 59.2842C38.8834 59.8019 39.7505 60.6857 40.2478 61.78C40.9151 63.3111 41.7478 64.6953 43.1436 65.6936C43.594 65.9886 43.9633 66.3918 44.2179 66.8664C44.5485 67.5922 45.0689 67.7024 45.6995 67.5554C47.1535 67.2186 48.5922 66.8143 50.0431 66.4652C50.4533 66.3672 50.536 66.2478 50.3186 65.8528C48.7881 63.0967 46.477 61.0573 43.9364 59.2566L43.8506 59.2597ZM64.133 81.5163C64.4667 81.0014 64.9886 80.6376 65.587 80.5027C66.6602 80.2015 67.7858 80.1357 68.8868 80.3098C71.7611 80.6681 73.0805 78.1662 73.4478 76.0226C74.06 76.3288 74.1028 76.9627 74.164 77.4619C74.4426 79.7433 74.6538 82.0339 74.8803 84.3183C75.1283 86.8294 75.162 89.3803 75.6548 91.8393C76.6404 96.7726 76.7506 101.795 77.4057 106.759C77.6816 109.237 77.5388 111.744 76.9832 114.176C76.9163 114.458 76.9516 114.754 77.0828 115.013C77.2139 115.271 77.4325 115.475 77.6995 115.587C78.2168 115.851 78.5107 115.305 78.7709 114.975C79.121 114.515 79.3689 113.987 79.4983 113.424C79.6276 112.861 79.6353 112.277 79.5208 111.71C79.0341 109.086 79.3525 106.425 79.0617 103.788C78.6821 100.328 78.523 96.843 78.0087 93.3918C77.5526 90.3296 76.7322 87.3102 76.6771 84.1775C76.6373 81.9144 76.4537 79.6514 76.371 77.3884C76.3496 76.8555 76.1751 76.6075 75.4527 76.7759C76.8394 75.2846 76.1813 73.7657 75.6425 72.4887C74.9936 70.9392 74.2834 69.4081 73.7049 67.831C72.6265 64.859 70.808 62.2114 68.4215 60.1386C66.3217 58.3012 64.4422 56.2923 63.2178 53.7629C62.1311 51.5274 60.5883 49.6472 58.4579 48.4223C55.4734 46.7013 53.6735 44.1106 52.2562 41.0912C50.8941 38.1973 49.1554 35.5362 46.7647 33.3528C45.6444 32.33 44.3159 32.1555 42.8742 32.869C44.4002 34.4327 45.7585 36.1518 46.927 37.9983C47.5392 38.9997 48.0902 39.8357 49.437 39.4988C49.4707 39.4988 49.5228 39.5723 49.5718 39.6121C49.2657 40.1327 48.7055 39.8081 48.3136 40.0225C48.3136 40.5461 48.6993 40.8585 49.0177 41.1647C51.2486 43.2734 53.0536 45.7913 54.3347 48.5815C54.7543 49.4967 55.4225 50.2755 56.2631 50.8292C59.9149 53.2791 62.7189 56.6813 66.0799 59.4526C67.0092 60.2029 67.8329 61.0754 68.5287 62.0464C69.5327 63.4765 70.7296 64.8024 71.1183 66.6735C70.9377 66.6275 70.8398 66.6337 70.8122 66.5908C70.7142 66.4728 70.6309 66.3432 70.5643 66.2049C69.1899 63.4489 67.2859 61.2441 64.3932 59.9916C63.9269 59.8083 63.5156 59.5077 63.1994 59.1188C62.6239 58.3134 61.9107 58.3533 61.0567 58.4543C58.6256 58.7451 56.1663 58.7018 53.747 58.3257C54.0102 57.7469 54.4357 57.9674 54.7816 58.0195C56.8876 58.2828 58.9997 58.1236 61.1088 58.1358C61.4149 58.1358 62.0669 58.2675 61.9475 57.7102C61.8648 57.3151 61.7026 56.5771 60.9067 56.7915C59.2966 57.2233 57.6191 56.8711 56.009 57.208C55.7029 57.2723 55.204 57.4193 55.0907 56.8129C56.8328 56.5843 58.5903 56.4942 60.3466 56.5435C61.0996 56.5649 61.2281 56.274 60.8332 55.6554C59.9333 54.2468 58.8528 53.0157 57.3743 52.2073C55.1428 50.9824 53.2358 49.54 52.4767 46.9064C52.1002 45.5958 51.4389 44.7629 49.5809 44.9252C45.8036 45.2314 41.9865 45.017 38.1847 45.017C37.8633 45.017 37.5418 45.017 37.1868 45.017C37.5602 46.1532 38.2826 46.3951 39.2683 46.4043C42.8742 46.441 46.477 46.5512 50.0829 46.637C50.236 46.637 50.441 46.5635 50.6737 47.0259C46.5474 47.2984 42.5589 46.5819 38.5429 46.9095C38.7235 47.669 39.1887 48.0119 39.9999 48.0242C42.6416 48.0579 45.2526 48.5662 47.9004 48.5019C48.1269 48.5019 48.4667 48.4131 48.5402 48.9092C45.5618 49.0807 42.6263 48.4437 39.6877 48.4927C39.6427 48.6556 39.6549 48.829 39.7223 48.984C39.7897 49.1389 39.9082 49.266 40.0581 49.344C42.5069 50.2627 45.1822 49.4819 47.6708 50.2291C45.2705 50.3819 42.8614 50.3234 40.4712 50.0545C41.4875 51.1569 42.1303 52.0878 43.0731 52.786C46.2597 55.1471 49.2472 57.7163 51.292 61.2012C52.4124 63.1059 54.0714 64.5697 55.5132 66.1896C55.5691 66.2632 55.6396 66.3245 55.7201 66.3698C55.8007 66.4151 55.8896 66.4434 55.9815 66.453C57.9865 66.6827 59.9915 66.943 61.9995 67.1389C63.9371 67.3319 65.8931 67.3778 67.8155 67.6534C68.7338 67.782 69.7776 67.7116 70.5704 68.422C69.9582 68.8293 69.346 68.0055 68.6542 68.5016C69.4409 68.8079 69.8143 69.7786 70.9133 69.2489C71.8316 68.8018 71.4734 67.6779 72.2417 67.1053C72.4743 68.4435 72.0305 69.3652 70.8826 70.0144L72.86 71.4567C71.4826 71.6895 70.6531 69.1968 69.0858 71.126C70.3102 71.0709 70.7235 72.1182 71.5347 72.6174C72.0642 72.9481 72.6152 73.2298 73.1998 73.5789C72.003 73.928 71.9142 74.1301 72.655 74.9845C72.0121 74.8681 71.2775 74.4853 71.0418 75.2907C70.8275 76.0318 71.7489 75.9032 72.0397 76.286C72.0672 76.3227 72.0213 76.4207 72.006 76.5003C71.7458 76.7269 71.5438 76.2431 71.2898 76.436C71.5561 78.1356 70.751 79.0849 68.9879 79.1216C68.2226 79.14 67.4573 79.1216 66.686 79.1216C65.8452 79.1553 65.0285 79.4121 64.3198 79.8658C63.5698 80.3067 63.2667 80.8733 64.1269 81.5316C64.0017 81.4404 63.8522 81.3884 63.6974 81.3824C63.5426 81.3764 63.3895 81.4166 63.2576 81.498C62.9472 81.8033 62.6729 82.1434 62.4403 82.5116C62.7464 82.6769 62.8596 83.2343 63.3586 82.9648C63.9708 82.6371 64.4177 82.9648 64.6993 83.4364C64.981 83.908 64.684 84.3765 64.3045 84.744C64.1759 84.8665 63.98 84.9644 64.0994 85.2615C65.5381 85.1604 65.235 82.7106 67.09 83.1179C66.466 82.59 65.6656 82.3176 64.8493 82.3554C64.283 82.3615 63.8208 82.2819 64.1177 81.5163H64.133ZM83.589 70.7708C84.0175 70.1583 84.4399 69.5153 84.8746 68.8936C85.2143 68.4098 85.6521 67.8463 86.2582 68.1127C86.9377 68.419 86.5643 69.0804 86.4541 69.6439C86.099 71.273 85.2602 72.7582 85.0092 74.4271C85.4317 74.4271 85.6735 73.9188 86.2612 74.274C85.0705 74.963 84.0787 75.7623 83.9655 77.1863C84.8838 76.7483 85.4623 75.7409 86.5796 75.5908C84.8868 76.9811 83.4573 78.6837 81.4432 79.7035C83.4543 79.6147 85.3674 79.0298 87.351 79.091C87.6387 79.091 87.7275 78.8859 87.7489 78.6317C87.954 76.0318 89.5457 74.372 91.517 72.9021C93.6597 71.3006 95.7321 69.6163 96.9687 67.1145C98.2054 64.6126 100.464 63.011 102.742 61.5043C103.02 61.3206 103.305 60.9991 103.66 61.2931C104.092 61.6513 103.703 62.0157 103.535 62.2975C102.811 63.4658 101.974 64.5602 101.037 65.5649C99.7216 66.9728 98.7752 68.6845 98.2819 70.5473C98.7713 70.4801 99.233 70.2799 99.6165 69.9685C100.461 69.2488 101.328 68.5568 102.179 67.8432C102.54 67.537 102.919 67.2094 103.403 67.4115C103.887 67.6136 103.902 68.076 103.779 68.4894C103.636 68.9794 103.957 68.9671 104.248 69.0529C104.823 69.2274 105.27 69.5734 105.001 70.2196C104.731 70.8657 104.168 71.5578 103.424 71.1842C101.928 70.4278 101.254 71.3863 100.55 72.3387C99.9807 73.1104 99.54 74.1332 98.6707 74.4639C96.5279 75.2693 95.38 77.1434 93.773 78.5184C93.5955 78.6715 93.4883 79.0144 93.1179 78.8031C93.1363 78.3193 93.5465 78.108 93.822 77.8232C94.6729 76.9382 95.5361 76.0624 96.43 75.2172C97.1064 74.5772 96.43 74.0872 96.2402 73.6065C96.0443 73.0767 95.5514 73.4564 95.279 73.631C92.9588 75.1039 90.7426 76.6932 89.0437 79.0604C90.3263 79.2196 91.4926 79.3115 92.6527 79.5197C95.9005 80.1046 99.1145 80.665 102.402 79.6177C107.211 78.0866 112.151 78.203 117.095 78.699C117.541 78.7909 117.992 78.8563 118.445 78.895C118.922 78.895 119.363 78.6684 118.809 78.1325C118.517 77.8245 118.291 77.4593 118.146 77.0599C118.001 76.6604 117.94 76.2353 117.967 75.8113C118.032 71.472 116.954 67.2032 117.227 62.8487C117.288 61.8657 117.064 60.8674 117.028 59.8752C117.009 59.4098 116.755 59.2964 116.391 59.2382C115.108 59.03 113.789 58.6013 112.528 58.932C110.153 59.5261 107.713 59.1035 105.35 59.5843C103.908 59.8905 102.289 59.3852 101.028 59.9334C98.086 61.1981 94.8045 60.9194 91.8935 62.2332C90.8803 62.6894 89.9008 62.3832 89.3284 61.2012C88.8325 60.1845 87.9417 59.8568 86.8122 60.1355C85.8535 60.3769 84.8829 60.5681 83.9042 60.7082C83.7368 60.7271 83.5751 60.7803 83.4292 60.8646C83.2833 60.9489 83.1564 61.0625 83.0563 61.1981C81.1034 63.5836 78.7402 65.5649 76.5149 67.6748C75.9027 68.2628 75.618 68.765 76.1323 69.5122C76.5455 69.3193 76.6465 68.8814 76.8302 68.5262C77.3299 67.575 78.0321 66.745 78.8872 66.0947C79.129 65.9048 79.4688 65.5925 79.8055 65.8926C80.1422 66.1927 79.8056 66.4469 79.7168 66.7255C79.628 67.0042 79.328 67.3104 79.4107 67.7606C81.783 65.5037 84.0022 63.1672 86.7816 61.5135C84.3328 63.6112 82.1043 65.9753 79.5851 67.9841C78.728 68.667 78.7433 69.3591 78.8505 70.1093C79.0005 71.1505 79.3158 72.1703 79.2484 73.4105C80.3963 72.55 81.4218 71.7752 82.4533 71.0097C83.0655 70.5626 83.0655 70.5656 83.6318 70.8443C82.2115 71.6068 81.0207 72.6817 79.7412 73.6463C78.5597 74.5252 78.3822 75.012 78.725 76.583C80.7973 74.9784 83.4328 73.9341 83.589 70.7708ZM34.7196 8.19316C35.3808 8.66475 35.8002 9.29864 36.4583 9.29864C37.7562 9.29864 39.054 9.29863 40.358 9.1792C42.4579 8.96791 44.5639 8.63412 46.6882 8.94953C43.4894 9.31088 40.2968 9.73961 36.9297 9.80086C37.7684 10.7655 38.5765 11.3534 39.7856 11.1299C41.0559 10.8941 42.3293 10.6522 43.6149 10.5174C45.0536 10.3612 46.4924 10.0091 47.9617 10.3429L39.1734 11.6444C39.6846 11.9751 39.9539 12.1833 40.2539 12.3334C43.8622 14.17 46.9554 16.8782 49.2534 20.2126C50.012 21.3287 51.0096 22.2618 52.1736 22.9441C55.9362 25.1022 59.3802 27.7737 62.4066 30.8816C62.5785 31.0851 62.805 31.2352 63.0594 31.3139C63.3139 31.3926 63.5856 31.3966 63.8422 31.3256C66.6982 30.6427 69.5572 31.0194 72.4131 31.344C74.4303 31.5767 76.4292 31.7635 78.4709 31.4818C82.2421 30.9673 86.0286 30.6887 89.7967 31.4389C92.4774 31.9558 95.2243 32.0334 97.9299 31.6686C102.405 31.099 106.856 30.9459 111.316 31.8523C113.375 32.2875 115.511 32.182 117.517 31.5461C117.248 31.1082 117.018 30.7622 116.81 30.4039C114.499 26.4443 111.796 22.7114 109.963 18.4793C108.98 16.2102 107.584 14.3024 105.503 12.9121C104.298 12.0826 103.24 11.0568 102.375 9.87741C101.905 9.2206 101.213 8.75692 100.428 8.57288C97.2075 7.78587 94.0975 6.6222 90.9201 5.6974C89.3039 5.22887 87.6295 5.0237 85.9337 5.43404C84.6142 5.72444 83.2415 5.66106 81.9543 5.25032C80.5585 4.84303 79.175 4.39288 77.8036 3.90904C74.513 2.74231 71.2009 1.80219 67.644 1.99205C66.2727 2.06248 64.8891 1.78379 63.5086 1.7746C59.2599 1.73785 55.0173 1.69499 50.8543 2.81272C47.0793 3.8207 43.2137 4.45156 39.3142 4.69602C36.5807 4.87057 34.0584 6.13226 31.1474 6.13532C33.036 7.5409 34.8359 7.91754 36.9633 7.29896C38.3271 6.90951 39.7175 6.61989 41.1233 6.43235C39.204 7.56845 36.9817 7.63582 34.7196 8.19316ZM20.1583 51.3896C16.8248 47.8986 13.1179 44.7996 9.48138 41.6271C7.98453 40.3195 6.59485 38.871 4.68477 38.1085C2.41348 37.2143 1.92983 37.5635 2.15329 39.9888C2.35532 42.3161 2.57576 44.6404 2.73799 46.9677C2.93084 49.7575 3.1726 52.5349 3.59808 55.3032C4.06336 58.3318 4.5746 61.3574 4.18279 64.4564C3.7827 67.2666 3.12586 70.0343 2.22062 72.7245C1.30231 75.6398 1.53499 78.206 3.56446 80.6865C5.07967 82.5391 6.88262 84.0917 8.39783 85.9321C12.668 91.1196 17.2748 96.007 21.8664 100.937C23.0639 102.235 24.1812 103.604 25.2121 105.038C27.9486 108.807 30.1648 112.877 32.2524 117.02C32.5983 117.703 32.9014 118.438 33.7248 119.094C32.5922 115.033 32.4636 111.034 31.6708 107.132C32.6411 108.155 32.7912 109.496 33.1769 110.746C34.037 113.502 34.2299 116.478 35.5461 119.118C35.7236 119.479 35.8032 120.171 36.4644 119.868C37.0276 119.608 37.2541 119.161 36.9633 118.447C36.4767 117.211 36.0557 115.95 35.7022 114.669C34.9155 111.885 34.6461 108.973 33.5931 106.25C33.0238 104.784 32.5371 103.255 32.5279 101.681C32.5065 98.5518 31.8606 95.5569 30.9392 92.5957C30.8505 92.317 30.7158 91.9832 31.0341 91.7015C31.1229 91.7839 31.1992 91.8788 31.2607 91.9832C33.3732 97.8302 34.7901 103.906 35.4818 110.084C35.7879 112.862 36.5684 115.541 37.499 118.316C38.6561 116.866 40.1803 115.752 41.9131 115.091C42.412 114.904 42.2466 114.638 42.1548 114.298C41.6804 112.531 41.2733 110.743 40.7529 108.988C40.2754 107.365 40.2968 105.574 39.0203 104.211C36.5317 101.559 35.5338 98.3221 35.4634 94.7393C35.3685 89.9192 34.8665 85.1053 35.4481 80.2731C35.8093 77.2782 36.2685 74.369 38.1541 71.8701C38.8887 70.9025 39.3356 69.7572 39.7856 68.5016C38.5089 68.6373 37.2525 68.922 36.0419 69.3499C35.9289 69.3785 35.8254 69.4363 35.7416 69.5174C35.6578 69.5985 35.5968 69.7002 35.5645 69.8123C35.3533 70.7708 34.8574 71.6497 34.9523 72.697C35.0625 73.8208 34.7074 74.8743 33.7033 75.4928C32.9687 75.9461 32.1881 76.289 31.8667 77.4098C31.7443 76.6841 31.68 76.2063 32.0106 75.8266C33.2932 74.3414 33.6942 72.4244 34.5666 70.7432C34.9859 69.9317 34.0676 69.8245 34.138 69.4969C34.2512 68.9885 35.3624 68.9518 34.9675 68.0484C34.7839 67.6166 34.839 67.1297 34.7563 66.698C34.4104 64.8606 34.4502 62.8579 32.9197 61.4033C29.7485 58.3686 27.0578 54.9143 24.3488 51.4723C22.0194 48.505 19.5614 45.654 16.3106 43.6329C15.5905 43.1885 14.9475 42.63 14.4066 41.9793C12.7062 39.9445 10.6985 38.188 8.45598 36.7734C7.84664 36.3744 7.27121 35.9258 6.73564 35.4321C5.62143 34.4093 5.00314 34.3664 3.72057 35.3157C9.81814 38.4913 17.5962 46.0337 20.1583 51.3896V51.3896ZM89.2457 35.5669C87.7152 35.5669 86.2 35.622 84.6818 35.5485C83.421 35.4794 82.1619 35.7113 81.0085 36.2252C78.5046 37.3246 76.3863 39.0486 74.0661 40.4389C72.5355 41.3576 71.2285 42.5825 69.6276 43.8319C69.8564 43.8586 70.0875 43.8586 70.3163 43.8319C72.6596 42.9775 75.1834 42.7413 77.6445 43.146C78.6577 43.3144 79.7137 43.244 80.7238 43.4216C82.5451 43.7462 84.3971 43.5196 86.2184 43.8472C86.4663 43.8932 86.8306 43.8013 86.855 44.1719C86.8795 44.5424 86.65 44.7016 86.3102 44.7996C85.7959 44.9527 85.2611 45.0261 84.7246 45.017C80.831 44.9589 76.9282 44.374 73.0529 45.2467C72.2877 45.4182 71.4581 45.3202 70.8183 45.9388C69.2878 47.4087 67.7573 48.8541 66.2268 50.2964C66.0309 50.4801 65.9207 50.8629 65.0942 50.5506L70.2765 45.752C67.3992 45.6264 67.3012 45.6019 66.3217 46.5604C65.8228 47.0473 65.0207 47.3413 64.9809 48.1988C64.9253 49.0788 64.7713 49.9498 64.5218 50.7956C64.3136 51.5642 64.5034 51.9868 65.3636 52.1154C68.1757 52.4929 71.0117 52.6628 73.8487 52.6237C73.9622 52.6328 74.0763 52.6187 74.1841 52.5824C74.292 52.5461 74.3914 52.4883 74.4763 52.4125C75.8476 51.1447 77.5618 50.3025 78.7801 48.8173C79.426 48.0303 80.2861 47.4025 81.0942 46.7564C81.7065 46.2572 82.4044 45.8377 83.0686 45.3876C83.1833 45.2824 83.3306 45.2195 83.4859 45.2095C83.6412 45.1995 83.7953 45.2429 83.9226 45.3325C84.2287 45.6387 83.8675 45.9296 83.7144 46.1103C83.2645 46.6309 82.7258 47.0718 82.2452 47.5648C81.633 48.1957 80.7391 48.753 80.4973 49.5125C80.0907 50.7256 79.4616 51.8524 78.6424 52.8351C81.9238 53.3863 85.1562 53.8456 88.4377 52.93C89.996 52.5188 91.6012 52.3129 93.2128 52.3175C96.0565 52.2777 98.8819 52.6054 101.719 52.6237C106.433 52.685 111.154 52.3175 115.858 52.8351C116.452 52.9024 116.538 52.6819 116.471 52.1154C115.971 48.2249 116.126 44.2781 116.93 40.4389C117.416 38.1055 117.254 35.7261 117.542 33.1752C116.615 33.7063 115.53 33.8898 114.481 33.6928C112.314 33.3865 110.134 33.2701 107.955 33.1078C105.485 32.9241 103.057 32.3117 100.526 32.6975C96.5831 33.31 92.6037 33.5641 88.6029 33.068C85.9765 32.7404 83.3471 32.4556 80.684 32.624C78.4233 32.7172 76.1591 32.5641 73.9314 32.1677C71.3624 31.7227 68.7379 31.7031 66.1625 32.1095C64.9381 32.3208 65.134 33.1783 65.2442 33.9102C65.385 34.8595 66.1625 34.3573 66.6156 34.2654C69.4348 33.6774 72.2601 33.2793 75.1558 33.4968C77.8587 33.7019 80.534 34.2133 83.2614 34.1766C84.8317 34.1551 86.4449 33.8703 87.9724 34.2378C90.7732 34.9115 93.5312 34.4736 96.3076 34.2378C98.2115 34.0724 100.131 33.7356 102.022 33.8336C106.185 34.0541 110.324 34.691 114.508 34.6237C115.063 34.5772 115.618 34.7104 116.091 35.0034C116.091 35.3096 115.84 35.3096 115.681 35.3709C113.844 36.0507 111.98 35.8302 110.137 35.426C106.992 34.7332 103.765 34.4848 100.55 34.688C97.2687 34.8932 94.0301 35.6067 90.7242 35.5546C90.5391 35.5348 90.3529 35.5803 90.1977 35.6832C88.7009 37.3828 86.5796 38.0259 84.6603 39.0089C83.5339 39.5815 82.3309 40.0102 81.232 40.7666C81.5134 40.8482 81.8144 40.8286 82.083 40.7115C83.4206 40.3348 84.6083 39.6274 85.8113 38.9874C88.3672 37.6308 91.2997 37.8482 93.9444 36.9142C94.4891 36.7271 95.0656 36.6501 95.6403 36.6876C96.029 36.706 96.5585 36.4733 96.7453 37.0122C96.932 37.5512 96.4698 37.836 96.0933 38.1085C94.422 39.3334 92.7261 40.5247 91.0824 41.7588C90.5008 42.1875 89.7998 42.5091 89.3988 43.2654C90.6905 43.5349 91.869 43.8258 93.072 44.0187C94.1403 44.1933 95.1842 44.1841 96.0964 43.3818C96.8464 42.7891 97.7303 42.3895 98.6707 42.2181C100.44 41.8017 102.197 41.3331 103.966 40.9197C104.646 40.7635 105.319 40.69 105.732 41.5322C105.931 41.9303 106.36 42.0405 106.819 41.8384C108.27 41.1861 109.724 40.5461 111.178 39.903C110.46 39.8913 109.746 40.0171 109.075 40.2736C108.5 40.4665 107.851 40.6012 107.502 40.0439C107.027 39.312 106.427 39.4161 105.794 39.5754C103.917 40.05 102.068 40.7176 100.164 40.9993C98.1931 41.3056 96.2494 41.5138 94.4893 42.5305C94.323 42.6221 94.1396 42.6783 93.9506 42.6958C93.7271 42.7203 93.473 42.7387 93.372 42.457C93.3362 42.3668 93.3308 42.2674 93.3568 42.174C93.3828 42.0805 93.4387 41.9981 93.5159 41.9394C93.776 41.719 94.0332 41.4893 94.3118 41.2902C95.3709 40.5339 96.5494 39.9 97.4585 38.9966C98.2176 38.2433 99.6012 37.539 98.6584 36.0139C98.6372 35.9657 98.6262 35.9136 98.6262 35.8608C98.6262 35.8081 98.6372 35.756 98.6584 35.7077C98.7502 35.5515 98.9186 35.573 99.0625 35.6496C99.7849 36.0446 99.9808 36.5437 99.592 37.3522C98.8972 38.8221 97.737 39.8387 96.3381 40.7574C99.7481 40.6349 102.788 39.5815 105.895 38.8527C106.473 38.7179 107.242 38.4944 107.676 39.2171C108.065 39.8602 108.595 39.8142 109.17 39.6397C110.042 39.3794 110.903 39.0272 111.83 39.0272C112.109 39.0272 112.5 38.8619 112.647 39.2201C112.819 39.6274 112.473 39.8081 112.182 40.0163C110.707 41.0728 109.005 41.6822 107.376 42.4172C106.571 42.7816 105.613 42.7999 105.126 41.7404C104.94 41.3362 104.649 41.2933 104.275 41.3821C103.688 41.523 103.088 41.624 102.509 41.8047C100.428 42.4509 98.1166 42.509 96.3871 44.0738C95.5729 44.8088 94.6025 44.9344 93.5985 44.7751C92.1751 44.5516 90.764 44.2423 89.3498 43.9544C88.9458 43.8718 88.4315 43.8228 88.355 43.3267C88.2785 42.8306 88.7774 42.656 89.0988 42.3896C90.7487 41.0116 92.6588 40.0102 94.3638 38.7149C94.9392 38.2739 95.6892 37.9953 96.0473 37.2144C95.6435 37.1731 95.2356 37.2074 94.8444 37.3154C93.6812 37.6706 92.5119 38.1943 91.3272 38.2341C88.5968 38.3413 86.2306 39.3947 83.8767 40.592C82.9951 41.0391 82.0737 41.4372 81.0483 41.3729C80.7728 41.3729 80.3749 41.4648 80.2586 41.0667C80.1423 40.6686 80.479 40.4542 80.7851 40.2981C82.1136 39.6305 83.4451 38.9691 84.7827 38.326C86.3132 37.5727 87.9479 36.9265 89.2457 35.5546V35.5669ZM50.1748 76.0563C50.0975 73.694 50.1998 71.3292 50.4809 68.9824C50.5666 68.321 50.1043 68.5384 49.8227 68.5721C48.76 68.7409 47.6752 68.7097 46.6239 68.4802C46.027 68.3271 45.2465 68.0056 44.8945 68.4404C44.5425 68.8753 44.9588 69.6071 45.2006 70.1645C46.5566 73.2819 47.2545 76.5064 46.7311 79.9086C46.4224 81.7659 46.4337 83.6623 46.7647 85.5157C47.1684 87.352 47.2646 89.2426 47.0494 91.1105C46.8137 92.8131 46.526 94.5524 46.6239 96.252C46.8811 100.799 47.2821 105.341 47.9157 109.858C48.0973 110.984 48.3385 112.101 48.6381 113.202C49.0697 114.929 50.6768 113.343 51.5522 114.025C51.5846 114.046 51.6213 114.058 51.6593 114.062C52.2379 114.2 52.4032 113.992 52.293 113.41C51.8063 110.822 51.9532 108.204 52.1246 105.61C52.2872 103.243 52.0702 100.866 51.4818 98.5671C50.1931 93.545 49.6237 88.5198 50.3492 83.3384C50.5727 81.7399 51.1635 79.7923 49.1707 78.6347C49.082 78.5796 49.1064 78.5092 49.2136 78.4724C49.7064 78.304 49.9085 79.0206 50.334 78.9073C51.041 76.3441 48.5891 75.8082 47.3861 74.4731L47.6035 74.2618L50.1748 76.0563ZM57.0865 30.9367C57.6528 31.3991 57.5794 31.9013 57.5855 32.376C57.5916 32.8506 57.5641 33.3344 58.0447 33.6009C59.4895 34.4124 60.6863 35.576 62.076 36.461C63.4657 37.346 63.3525 37.3123 63.6341 35.6618C63.9004 34.1 63.7167 33.1691 62.125 32.2596C60.0833 31.0929 58.5252 29.1973 56.9977 27.3599C56.3442 26.5565 55.5535 25.8753 54.6622 25.348C51.2951 23.4004 48.2096 21.0915 45.626 18.1517C43.9999 16.3023 41.9829 14.8379 39.7213 13.8645C38.3986 13.2492 37.1559 12.4748 36.0206 11.5586C34.4901 10.3919 32.9595 9.23432 31.429 8.10434C30.7709 7.5827 30.0436 7.15499 29.2679 6.83349C29.2434 8.15945 29.3444 9.37826 29.4118 10.6032C29.4852 11.9812 30.125 12.7774 31.3065 13.3194C32.4208 13.8277 33.5656 14.333 34.4502 15.1874C35.3349 16.0418 36.4032 16.9635 36.3297 18.3232C36.2502 19.8206 36.9052 20.4667 38.3592 19.9615C38.9346 19.7624 39.4887 19.5021 40.0703 19.3184C41.3957 18.8958 43.0027 19.8696 43.0915 21.1252C43.1432 21.9824 43.5023 22.7923 44.1029 23.406C44.7034 24.0197 45.505 24.3962 46.3607 24.4661C47.3539 24.5544 48.3022 24.9205 49.0973 25.5226C50.5605 26.5883 51.589 28.0673 52.7032 29.4607C53.2572 30.1558 53.6215 31.0194 54.5398 31.3746C54.6837 30.8295 54.4418 30.2844 54.8703 29.7547C54.9775 31.2858 55.253 32.6669 57.0804 32.9363L57.0865 30.9367ZM44.8976 77.814C45.1922 74.8232 44.766 71.8052 43.6548 69.0131C43.517 68.6762 43.6884 68.0944 43.0426 68.0699C42.3967 68.0454 41.5549 68.0086 41.0865 68.5016C40.2239 69.3321 39.6473 70.4151 39.4397 71.5945C39.2432 72.9698 38.6879 74.269 37.8296 75.3611C36.0083 77.6824 36.0726 80.4445 36.0634 83.1393C36.0634 85.1604 36.4307 87.1815 36.4001 89.221C36.2801 93.2709 37.2936 97.2737 39.3264 100.778C40.4297 102.578 41.2195 104.553 41.662 106.618C42.1365 109.037 42.6355 111.453 43.0579 113.885C43.1711 114.537 43.4313 114.665 43.9762 114.469C44.6221 114.237 45.2556 113.967 45.9015 113.735C46.9821 113.346 47.5668 112.51 47.4015 111.38C47.0954 109.31 46.8137 107.249 46.177 105.221C44.9696 101.56 44.7583 97.6428 45.5648 93.8726C46.2015 90.9328 46.4556 87.9379 45.5832 84.992C44.8486 82.6279 44.7598 80.2363 44.8976 77.814ZM56.7376 81.2683C55.7122 82.7994 55.7121 82.7994 57.108 83.7702C58.2283 84.551 59.3518 85.3197 60.5149 86.1251C60.405 86.2081 60.2679 86.2469 60.1308 86.2338C59.9937 86.2208 59.8665 86.1569 59.7741 86.0546C58.5497 85.2135 57.3253 84.3775 56.1009 83.5466C55.152 82.9005 54.9254 83.0077 54.4938 84.0886C54.2275 84.7532 54.4143 85.1788 54.9561 85.5524C55.4979 85.926 55.9417 86.2659 56.4376 86.6212C58.816 88.3207 61.0965 90.1703 63.729 91.6035C63.4229 89.9437 63.8514 89.2853 65.4707 88.8107C65.6805 88.7217 65.899 88.655 66.1227 88.6116C67.4451 88.5106 67.9746 87.6929 68.2073 86.4925C68.2832 85.8998 68.5497 85.3478 68.9666 84.9197C69.3834 84.4916 69.928 84.2107 70.5184 84.1193C71.1734 83.9815 71.8224 84.0733 72.4499 83.9447C72.9182 83.8467 73.7845 83.911 73.6467 83.2128C73.3406 81.5653 73.61 79.8995 73.3406 78.203C72.8203 79.7525 71.9356 80.7691 70.2123 80.7446C69.1746 80.7446 68.1338 80.6773 67.1053 80.763C66.2727 80.8304 65.3513 80.8579 64.8401 81.7797C65.5287 81.8761 66.2105 82.0153 66.8818 82.1962C67.2981 82.3309 67.745 82.6157 67.7114 83.1761C67.6777 83.7365 67.2002 83.7886 66.793 83.8774C66.4471 83.9447 66.034 83.9508 65.9207 84.3183C65.3238 86.2414 63.6647 85.7974 62.2933 85.9811C62.0638 86.0118 61.8097 85.9505 61.7638 85.6749C61.7179 85.3993 62.0117 85.3197 62.2015 85.2309C62.6453 85.0288 63.1199 84.8879 63.5576 84.6735C63.928 84.4929 64.378 84.2081 64.1086 83.7549C63.8392 83.3016 63.3647 83.5007 63.0035 83.7549C62.383 84.1978 61.6685 84.4912 60.9159 84.6123C60.469 84.6858 59.5966 84.5327 59.8078 84.055C60.1782 83.222 59.5445 83.219 59.2292 82.9832C58.4334 82.386 57.5978 81.8532 56.7376 81.2683V81.2683ZM29.9291 13.2581C29.9291 14.5045 30.1311 15.4385 29.8893 16.2408C29.3383 18.0537 30.2413 19.1531 31.4198 20.2555C32.7208 21.4804 34.0461 22.6532 35.8797 22.8584C38.1253 23.0865 40.2784 23.8728 42.1426 25.1459C42.7207 25.5113 43.3608 25.7677 44.0313 25.9023C46.428 26.4933 48.7024 27.3569 50.441 29.2218C51.1175 29.9476 51.7481 30.7162 52.5318 31.6135C52.2838 28.8911 50.4257 27.5468 48.7513 26.0799C48.4962 25.9048 48.1862 25.8286 47.879 25.8656C45.522 25.8472 44.019 24.4355 42.7395 22.6808C42.5075 22.3736 42.3799 22.0001 42.3753 21.6151C42.3753 20.1268 41.4171 19.4715 40.0519 20.084C39.5958 20.28 39.1643 20.5341 38.702 20.6964C37.1715 21.2813 35.09 20.1544 35.2644 18.7672C35.4603 17.2177 34.7104 16.3541 33.4676 15.7264C32.28 15.1261 31.0157 14.6423 29.9291 13.2581ZM66.7318 35.0861C66.5574 35.0861 66.0585 35.1136 65.5626 35.0861C65.1708 35.0585 64.9717 35.1932 64.9748 35.5822C65.0085 37.888 64.3963 40.1542 64.5095 42.4631C64.5279 42.8183 64.2739 43.4155 64.9932 43.3818C65.5809 43.3604 66.1993 43.0756 66.1564 42.4631C66.1135 41.8507 66.4135 41.7496 66.7196 41.477C67.6134 40.6747 68.7337 40.2521 69.7133 39.5999C70.5734 39.0272 71.1703 38.2923 72.4682 38.2678C73.7661 38.2433 75.0885 37.3491 76.3129 36.6356C76.8216 36.3602 77.2548 35.9637 77.5741 35.4811C77.8496 35.031 77.8587 34.5196 77.1516 34.4185C75.217 34.1398 73.3039 33.9959 71.3632 34.5747C69.8612 35.0149 68.2936 35.188 66.7318 35.0861V35.0861ZM55.0418 66.2325C53.2046 64.863 51.6513 63.1489 50.4686 61.1859C49.307 59.2872 47.7644 57.6502 45.9383 56.3781C43.7435 54.7949 41.7753 53.0096 40.2938 50.7067C40.1315 50.4587 39.9723 50.1402 39.6387 50.0943C38.5979 49.9994 37.5572 49.9412 36.5134 49.8677C36.4491 49.9657 36.3848 50.0637 36.3175 50.1739C36.6587 50.4064 36.9858 50.6589 37.297 50.9303C38.6132 52.2042 40.2295 53.1229 41.3712 54.6234C42.7548 56.4608 44.0558 58.3502 45.8159 59.8722C47.8423 61.6299 49.8258 63.4428 51.1267 65.8497C51.1821 65.9724 51.2736 66.0751 51.3891 66.1441C51.5046 66.2131 51.6385 66.245 51.7726 66.2355C52.743 66.2233 53.7286 66.2325 55.0418 66.2325ZM53.8174 114.617C53.2327 110.361 53.2533 106.044 53.8786 101.795C54.2459 99.1673 54.1235 96.6318 53.1164 94.1391C52.6327 92.9386 52.244 91.628 52.5042 90.3234C52.9909 87.8736 53.6 85.4238 54.2031 82.9924C54.2765 82.6861 54.4908 82.4809 54.1296 82.239C53.1746 81.599 52.2257 80.9406 51.087 80.1628C51.1727 80.809 51.243 81.1825 51.2675 81.5592C51.3593 83.0077 51.6991 84.4439 51.5308 85.9107C51.0766 89.7972 51.2898 93.7327 52.1614 97.5473C52.746 100.147 53.2144 102.818 52.9052 105.509C52.6941 107.494 52.6696 109.494 52.8317 111.484C52.8991 112.488 52.8042 113.676 53.8112 114.607L53.8174 114.617ZM75.618 67.8647C78.2291 65.6629 80.4636 63.2713 82.9064 60.8215C81.3544 60.5642 80.3014 60.7633 79.3586 61.8106C78.0179 63.2988 76.5455 64.6738 75.165 66.1406C76.2853 64.1103 78.0087 62.5761 79.729 60.7694C76.3894 60.6775 73.3161 60.209 70.099 60.5918C71.1428 61.7524 71.8468 62.9896 72.9182 63.9603C74.0416 62.7844 75.0089 61.4798 76.671 61.1062C75.6485 61.8079 74.6962 62.6068 73.8274 63.4918C73.3774 63.9909 73.1233 64.4104 73.7722 65.0229C74.5997 65.8091 75.23 66.7796 75.6119 67.8555L75.618 67.8647ZM104.474 69.9409C103.323 69.797 102.714 69.2887 103.02 68.1372C102.51 68.3592 102.044 68.6702 101.643 69.0559C100.804 69.7174 100.07 70.5227 99.0717 70.9576C98.6492 71.1444 98.1534 71.2638 97.7738 70.9208C97.3942 70.5779 97.5931 70.1645 97.7186 69.8307C98.2482 68.4037 98.7503 66.9766 99.7665 65.7701C100.627 64.7504 101.664 63.8592 102.463 62.4016C101.095 63.4397 99.8798 64.1961 98.9737 65.2954C98.3009 66.0753 97.7034 66.9171 97.1891 67.8096C96.1973 69.6469 94.7219 71.0066 93.2098 72.3571C92.1782 73.2758 91.1313 74.1944 90.1487 75.1437C89.1914 76.1143 88.5776 77.3715 88.4009 78.7235C88.7958 78.2581 89.0804 77.9549 89.3192 77.6242C90.7946 75.6521 92.7935 74.3047 94.8658 73.0767C96.1086 72.3387 96.3474 72.4642 97.0085 73.7688C97.2504 74.2526 97.5748 74.2281 97.9452 74.075C98.4281 73.8399 98.8416 73.4832 99.1451 73.04C99.7879 72.1825 100.449 71.3404 101.138 70.5227C101.6 69.9776 102.169 69.7817 102.858 70.1798C103.277 70.4186 103.746 70.5871 104.468 69.9317L104.474 69.9409ZM37.802 25.7553C44.1476 26.3433 46.8413 27.8499 52.8899 34.0419C53.0092 32.722 51.8553 32.1769 51.2369 31.3195C49.4371 28.8176 46.927 27.3691 44.0068 26.5852C43.0458 26.3602 42.1286 25.9784 41.2917 25.4552C40.0458 24.6253 38.7081 23.9486 37.1898 23.8261C35.2408 23.6425 33.4019 22.8386 31.9433 21.5324C31.2453 20.9445 30.7188 20.1544 29.8403 19.6246C29.9352 20.6168 29.8067 21.6488 30.8168 22.0224C33.3605 22.9656 35.0074 24.8734 36.5471 26.9741C37.2507 27.9306 38.1131 28.7592 39.0968 29.4239C39.0815 28.5359 38.0683 27.9571 38.6346 27.4763C39.0356 27.1364 39.7336 27.8897 40.2692 28.2113L40.3672 28.2725C41.4274 28.8474 42.6033 29.1761 43.8078 29.2341C41.7171 28.2266 39.8835 26.7904 37.802 25.7553ZM68.8134 77.5078C67.4573 77.122 66.4349 76.1634 65.2748 75.4224C63.6555 74.3904 62.4128 72.3142 59.9793 73.3676C59.8907 73.424 59.8077 73.4885 59.7313 73.5605C61.7577 75.0335 63.781 76.4482 65.7339 77.9518C66.8941 78.846 68.1246 78.7205 69.4072 78.5031C70.0775 78.3897 70.6071 78.0315 70.6745 77.3639C70.7449 76.6473 70.5949 75.9185 69.897 75.4592C68.7858 74.7242 67.7236 73.9035 66.5665 73.2543C65.2809 72.4934 63.7519 72.2565 62.2964 72.5928C64.5922 74.3935 66.6431 76.0104 68.8134 77.5078ZM55.5224 77.5078C55.3663 76.831 55.4734 76.3686 54.9622 76.0869C54.7693 75.9828 54.4785 75.6674 54.6561 75.5694C55.4397 75.1468 54.8612 74.6017 54.7908 74.173C54.5452 72.7342 54.4794 71.2704 54.5949 69.8154C54.6683 69.0192 54.901 67.9045 54.3837 67.5431C53.8664 67.1818 52.9052 67.8494 52.1307 68.0484C51.8246 68.1219 51.6807 68.2597 51.7205 68.6088C52.0266 71.1903 51.6655 73.7289 51.1727 76.2645C51.1339 76.3709 51.1286 76.4867 51.1576 76.5962C51.1867 76.7057 51.2485 76.8037 51.3348 76.877C52.6633 77.7956 53.9123 78.8521 55.3418 79.633C55.7305 78.4449 55.2377 77.7956 54.3408 77.1832C53.5419 76.6412 52.5623 76.2431 52.1766 75.1805L55.5224 77.5078ZM61.8006 69.8062C61.8587 69.2764 60.9894 69.3989 61.1149 68.5997C62.1709 69.549 63.4014 69.5857 64.8248 69.9777C64.2555 69.2672 63.4412 69.1907 63.3647 68.2812C64.0351 68.7436 64.5891 69.1172 65.1462 69.5061C65.3027 69.6189 65.4906 69.6797 65.6834 69.6797C65.8763 69.6797 66.0643 69.6189 66.2207 69.5061C66.5696 69.2672 65.8258 69.0774 66.0952 68.7528C66.4656 68.6364 66.6309 68.9488 66.8574 69.1356C67.3012 69.4969 67.745 69.8613 68.195 70.2104C68.645 70.5595 68.9511 70.0971 69.3031 69.9348C69.5786 69.8092 69.5174 69.6286 69.3429 69.5214C68.443 69.0069 67.8124 68.1219 66.6125 67.9903C63.9249 67.73 61.2067 67.7698 58.5497 67.1604C57.7049 66.9644 56.7774 67.1297 55.755 67.1297C56.4223 68.3302 56.4958 69.4663 56.4958 70.6207C56.4958 70.927 56.3336 71.4322 56.8386 71.4506C57.6957 71.4843 58.5803 71.6681 59.465 71.2853C59.3486 70.8902 58.8527 70.7892 58.8527 70.2012C60.1414 71.4721 60.8731 70.0267 61.8006 69.8184V69.8062ZM62.4372 106.985C62.2382 105.889 61.9138 104.888 62.8474 104.091C63.781 103.295 64.6841 103.571 65.6268 103.972C65.8011 104.059 65.9984 104.089 66.1905 104.056C66.3825 104.024 66.5592 103.931 66.6951 103.791C68.0573 102.321 69.7255 102.511 71.4703 102.814C72.5998 103.01 73.7539 103.317 74.9599 102.98C74.7487 102.511 74.3477 102.619 74.0416 102.637C73.0862 102.675 72.1337 102.506 71.2499 102.141C69.9551 101.645 68.6665 101.706 67.3165 101.835C65.5595 101.988 63.8055 101.914 62.4189 100.502C60.8149 98.8733 59.015 98.0006 56.5417 99.5225C58.3079 99.1397 59.5415 99.7491 60.6894 100.674C62.0117 101.74 62.2474 102.646 61.522 104.125C60.6985 105.812 60.6985 105.812 62.4372 106.998V106.985ZM41.0406 31.393C37.9061 29.9905 36.0603 27.0292 33.0513 25.0234C33.3788 26.4413 33.336 27.7366 34.1013 28.6063C35.1543 29.8006 36.4552 30.7866 37.698 31.8064C38.7847 32.6944 39.8744 32.5658 41.0406 31.393ZM74.0722 86.2078C74.3446 85.6229 73.9222 85.1421 73.9161 84.6153C73.9217 84.5461 73.9084 84.4766 73.8775 84.4143C73.8466 84.352 73.7995 84.2994 73.741 84.2619C73.6825 84.2245 73.6148 84.2037 73.5454 84.2017C73.476 84.1998 73.4073 84.2168 73.3468 84.251C72.6672 84.6001 71.9081 84.5112 71.204 84.5572C69.6735 84.695 68.7797 85.4453 68.544 86.9029C68.2838 88.5106 67.289 89.2424 65.7891 89.4752C65.258 89.5345 64.7531 89.7379 64.329 90.0632C64.1116 90.2438 63.8851 90.5501 64.0963 90.8716C64.2249 91.063 64.4117 91.2079 64.6289 91.285C65.0238 91.4044 65.0146 90.9971 65.1125 90.7889C65.3176 90.3449 65.584 89.9958 66.0952 89.9284C67.3332 89.7592 68.5139 89.3007 69.5419 88.5902C70.0562 88.2503 70.4602 88.0941 70.5551 87.3653C70.7204 86.0822 71.6173 85.5677 72.8876 85.8341C73.3039 85.9382 73.6896 86.0822 74.0783 86.1986L74.0722 86.2078ZM65.9115 78.5919C64.733 77.7375 63.6708 76.8739 62.5199 76.142C60.8975 75.1346 59.6639 73.4901 57.6467 73.1287C57.2794 73.0614 56.7866 72.5683 56.557 73.1287C56.3274 73.6891 56.4835 74.2097 57.111 74.5803C59.3303 75.894 61.5189 77.2628 63.7168 78.6102C64.4453 79.0634 65.1677 79.1523 65.9176 78.5827L65.9115 78.5919ZM56.958 74.9753C56.8478 76.5064 57.4171 77.4251 58.6477 78.0376C59.4252 78.4234 60.0986 79.0144 60.8363 79.483C61.4485 79.8719 62.0607 80.4752 62.7035 80.4874C63.1137 80.4874 63.5361 79.6085 63.928 79.1614L56.958 74.9753ZM16.3656 36.5406C18.2022 37.7441 20.8225 37.9799 24.6304 37.3001C24.7498 36.9142 24.2753 36.6876 24.3243 36.2314C25.3498 36.3477 25.7079 38.0228 26.9752 37.3001C25.8518 35.6434 25.6804 35.573 23.8774 36.0078C23.7256 36.0202 23.5731 36.0202 23.4213 36.0078L16.3656 36.5406ZM69.1501 40.7299C74.0233 40.4481 77.4669 37.15 81.5932 35.1932C80.8034 35.0003 80.081 34.786 79.3433 34.6604C78.8474 34.5747 78.327 34.4522 78.226 35.3096C78.1495 35.9466 77.6138 36.4335 77.0689 36.8224C75.4925 37.934 73.6804 38.5281 71.9264 39.2722C70.9714 39.6642 69.8909 39.8755 69.1562 40.7299H69.1501ZM78.7586 67.0256C77.571 67.779 77.3077 69.1692 76.3282 70.0358C76.1874 70.1583 76.2425 70.3849 76.3282 70.5717C76.8552 71.7191 77.1556 72.9575 77.2128 74.2189C77.2526 74.9079 77.6445 74.7242 77.9598 74.4394C78.6975 73.7657 79.028 72.8317 78.6852 71.959C78.0362 70.2808 77.8556 68.6823 78.7648 67.0256H78.7586ZM63.1933 43.2807C63.1413 41.8108 63.0433 40.5247 63.2943 39.2355C63.3616 38.8802 63.3433 38.5801 62.8842 38.4515C62.125 38.2341 61.3842 37.9616 60.521 37.6737C60.8057 39.3151 60.0343 41.2137 62.0668 42.1722C62.327 41.8231 62.0026 41.3607 62.4954 41.0453C62.8934 41.7343 62.3025 42.6438 63.1994 43.2807H63.1933ZM28.1843 42.2181C27.7405 41.7098 27.4313 41.327 27.0884 40.9932C26.8038 40.7054 26.666 40.1756 26.1701 40.2062C25.0314 40.2797 23.8958 40.4175 22.7082 40.5339C23.0602 41.1188 24.2907 41.1463 23.6632 41.9793C23.0693 42.7601 22.3959 41.9395 21.8265 41.6087C21.6123 41.4893 21.4899 41.2076 21.3276 40.9963C21.1654 40.785 21.0215 40.5369 20.6756 40.7391C21.3092 41.9211 22.0622 42.6744 23.6356 42.5458C25.1232 42.408 26.5803 42.1997 28.1843 42.2181ZM72.7376 40.8278C70.2704 41.2382 67.8399 41.6638 65.7523 43.5839C66.9767 43.6604 67.9593 44.4321 68.8134 43.8901C70.2245 43.0174 71.4489 41.8629 72.7468 40.8278H72.7376ZM51.0716 77.2689C51.2492 78.3132 50.7257 79.2043 51.4879 79.8137C52.4062 80.5487 53.4164 81.1764 54.3898 81.8471C54.5674 81.9696 54.7173 82.1533 54.9591 81.8777C55.403 81.3877 55.3816 80.3649 54.8245 79.9515C53.6796 79.1094 52.495 78.2918 51.0808 77.2812L51.0716 77.2689ZM75.0915 52.29L75.2722 52.5962C75.5005 52.5809 75.7295 52.5809 75.9578 52.5962C77.6322 52.8136 78.8474 52.29 79.4229 50.5782C79.9279 49.0654 80.9932 47.9446 82.1778 46.9463C82.4227 46.7442 82.6737 46.5512 82.9217 46.3522C79.7535 47.6782 78.3362 51.0956 75.1007 52.3022L75.0915 52.29ZM20.2991 38.0963C20.9695 38.8098 21.4745 39.8265 22.102 39.9092C23.2696 40.1025 24.4653 40.0408 25.6069 39.7285C25.7814 39.6734 25.9742 39.6917 25.9742 39.4223C25.9742 38.7118 24.961 37.7625 24.1988 37.8911C22.9138 38.0658 21.617 38.1385 20.3205 38.1085L20.2991 38.0963ZM29.5893 40.0837C30.6178 41.6149 32.1331 42.5948 33.4095 43.8197C34.0431 44.4321 34.5941 44.7016 35.491 44.2117C34.4197 43.1491 33.2074 42.2212 32.3687 41.03C31.6218 39.949 30.9392 39.3518 29.6107 40.0959L29.5893 40.0837ZM66.6982 110.538C64.2096 109.395 62.4127 107.671 60.4537 106.027C60.1476 108.544 63.533 111.015 66.7196 110.55L66.6982 110.538ZM30.376 28.2051C30.6313 28.4422 30.8022 28.7562 30.8627 29.0993C31.0617 29.9078 31.325 30.7009 31.5117 31.5093C31.6311 32.0116 31.7504 32.4525 32.3963 32.2075C33.0422 31.9625 32.5493 31.5706 32.4667 31.2643C32.2861 30.609 31.9677 29.9782 31.8545 29.3137C31.6922 28.2419 31.077 27.5866 30.1495 27.069C29.606 28.7076 29.6756 30.4878 30.3454 32.0789C30.477 32.4219 30.5352 32.6332 30.9576 32.4831C31.38 32.3331 31.2637 32.1187 31.1657 31.7727C30.829 30.655 30.327 29.5801 30.376 28.2051ZM37.0827 32.1861C36.1644 31.3715 35.4451 30.4283 34.3982 29.8434C34.138 30.3365 34.8512 30.7621 34.3982 31.2888C33.786 30.1772 33.8411 28.5634 32.029 28.3521C32.3351 29.4117 32.6411 30.4498 32.9748 31.4665C33.0666 31.739 33.1432 32.1402 33.6421 32.0789C34.787 32.0085 35.9195 32.2106 37.0827 32.2075V32.1861ZM31.1504 26.9802C31.5086 26.7077 30.8872 26.3678 31.3494 26.1626C32.1882 27.6355 32.1882 27.6355 33.1861 27.8193C32.9626 25.8012 32.5738 23.9394 30.2352 23.3116C30.125 26.282 30.125 26.282 31.1504 26.9802ZM62.529 81.0448L57.2151 77.6334C57.0866 78.699 57.0835 78.7021 57.8273 79.2748C58.764 79.9821 59.7282 80.6558 60.6343 81.3969C61.4302 82.0338 62.0607 82.1717 62.529 81.0417V81.0448ZM83.0655 76.7238C81.3667 77.6946 79.9371 78.993 78.2903 80.0465L79.429 78.7725C79.1229 78.6899 78.8872 78.6164 78.6454 78.5551C78.275 78.4602 78.3393 77.6823 77.871 77.9181C77.4026 78.1539 77.6843 78.748 77.6567 79.1829C77.6534 79.5278 77.6821 79.8722 77.7424 80.2118C77.7883 80.518 77.8036 80.7753 78.3056 80.6068C80.3216 79.9515 82.0196 78.5653 83.0655 76.7208V76.7238ZM58.0447 35.9649C58.1457 36.8377 58.3049 37.7166 58.3508 38.6016C58.3997 39.8693 59.2048 40.3899 60.2425 40.7972C59.9609 38.9537 60.6741 36.7397 58.0447 35.9619V35.9649ZM63.3586 51.2182C63.1688 50.0851 62.9209 49.1021 62.8505 48.0824C62.7923 47.2586 62.5811 46.4441 62.4617 45.6326C62.3821 45.0752 61.9382 45.1273 61.5893 45.1334C61.1026 45.1334 61.2679 45.5866 61.2832 45.8377C61.3352 46.5543 61.4669 47.2647 61.5403 47.9813C61.672 49.2491 62.076 50.3822 63.3586 51.2151V51.2182ZM56.8845 79.1339C57.0406 79.973 56.5785 80.5732 57.0713 80.9713C58.06 81.7368 59.1283 82.4013 60.1782 83.0842C60.6833 83.4119 60.821 82.8607 61.0628 82.6371C61.4883 82.2329 60.9771 82.1441 60.7843 82.0002C59.5966 81.0999 58.3936 80.2333 56.8845 79.1308V79.1339ZM58.011 39.2845C57.8518 38.1882 57.7049 37.2603 57.5916 36.3263C57.4998 35.5485 56.5447 34.7645 55.804 34.8779C55.5315 34.9207 55.5407 35.083 55.5438 35.279C55.5744 37.049 56.4009 38.3352 58.011 39.2814V39.2845ZM53.3337 37.2052C53.4531 34.688 48.0687 29.8557 45.0689 29.7301C48.9442 30.9091 50.9553 34.1735 53.3337 37.2021V37.2052ZM43.0089 67.6197C42.6415 65.3077 40.6365 64.4166 39.4764 62.864C39.4999 63.4011 39.7175 63.9114 40.0886 64.3002C40.4099 64.5731 40.6592 64.9209 40.8145 65.3128C40.9698 65.7048 41.0265 66.1289 40.9794 66.5479C40.8753 67.439 41.1661 67.8249 42.0936 67.6258C42.3978 67.5955 42.7041 67.5924 43.0089 67.6166V67.6197ZM56.4774 42.8153C56.4376 44.3464 57.8488 46.6247 59.1191 47.1851C59.0762 45.2528 58.7119 43.4982 56.4835 42.7969L56.4774 42.8153ZM61.1884 49.0041C61.2098 48.9398 61.2618 48.8663 61.2526 48.8051C61.1118 47.9476 60.9465 47.0933 60.821 46.2358C60.6129 44.919 60.619 44.919 59.1864 44.7047C59.6242 46.2511 59.1007 48.211 61.1945 48.9857L61.1884 49.0041ZM35.1696 47.4914C35.2859 46.7319 34.337 46.8238 34.2941 46.3369C34.1135 44.1351 32.0503 43.6176 30.8259 42.3559C30.791 42.322 30.7491 42.2962 30.7031 42.2802C30.6571 42.2643 30.6082 42.2586 30.5598 42.2636C30.5114 42.2685 30.4646 42.284 30.4228 42.309C30.381 42.3339 30.3452 42.3677 30.3178 42.408C30.1464 42.6377 30.3852 42.7326 30.5229 42.8428C32.035 44.0494 33.2013 45.5621 34.3002 47.13C34.5298 47.4179 34.7411 47.6476 35.1819 47.473L35.1696 47.4914ZM82.7961 74.1393C81.3574 75.2019 80.1698 76.0746 78.9943 76.9596C78.7709 77.1281 78.4434 77.2659 78.6882 77.6854C78.721 77.7545 78.7689 77.8153 78.8284 77.8633C78.8879 77.9113 78.9575 77.9452 79.0319 77.9626C79.1064 77.9799 79.1837 77.9803 79.2583 77.9636C79.3329 77.9469 79.4028 77.9136 79.4627 77.8661C80.9289 77.1036 82.1839 76.1328 82.7961 74.1393ZM64.8034 72.204C64.5952 71.5548 64.0136 71.3557 63.579 71.0005C62.2597 69.9072 62.1464 69.748 60.7139 71.3434C61.7608 73.1349 63.533 71.2546 64.8034 72.207V72.204ZM80.2616 44.031C78.5535 43.6084 76.8026 43.636 75.0578 43.5931C73.9895 43.5655 73.0743 43.7125 72.3581 44.8547C74.9356 44.1809 77.6008 43.9052 80.2616 44.0371V44.031ZM28.068 37.6982C28.6037 38.7608 28.9863 39.756 30.3944 39.4896C31.0066 39.3763 31.1964 39.3243 30.875 38.6444C30.2811 37.392 29.2679 37.591 28.068 37.6982ZM64.0442 70.7708C65.336 71.6252 66.2941 72.9848 68.2226 72.2683C66.8023 71.5884 65.9819 69.895 64.0442 70.7708ZM71.0846 74.372C68.8409 72.7613 68.8409 72.7613 67.5522 73.3615C68.1859 73.8239 68.8134 74.2434 69.3889 74.715C70.099 75.2601 70.6591 75.2968 71.0969 74.3567L71.0846 74.372ZM19.641 40.935C21.8755 44.6557 22.6744 45.4335 24.5661 45.7459C22.0622 44.9956 21.6184 42.1967 19.6532 40.9197L19.641 40.935ZM18.9523 40.3654L19.09 40.2062C19.0179 40.0806 18.9392 39.959 18.8543 39.8418C18.6461 39.5692 18.3492 39.2079 18.5758 38.9445C18.8819 38.5862 19.3135 38.8374 19.7175 38.9874C20.1216 39.1375 20.3297 39.7622 20.9419 39.6795C20.1583 38.0687 18.9859 38.1484 16.5096 38.5495L18.9523 40.3654ZM26.5773 35.6342C27.967 37.5451 27.967 37.5451 29.5587 36.9969C28.7445 36.167 28.0527 35.1841 26.5895 35.6189L26.5773 35.6342ZM61.3261 72.5469C60.8271 72.2621 60.5976 71.5639 60.0497 71.8334C58.9354 72.3846 57.7691 72.1672 56.6182 72.3081C58.1334 72.6296 59.6119 73.2911 61.3383 72.5316L61.3261 72.5469ZM106.724 56.816C109.669 57.7806 111.102 57.7347 111.928 56.6629C110.278 56.963 108.647 56.6384 106.737 56.8007L106.724 56.816ZM39.4152 49.5645C38.7173 48.0732 38.7173 48.0732 36.7429 48.3702C37.7592 49.6839 37.7592 49.6839 39.4275 49.5492L39.4152 49.5645ZM66.7533 110.005C68.1614 111.355 69.7623 111.741 71.3448 111.061C69.7194 111.23 68.4062 110.152 66.7533 110.005ZM83.589 72.8807C85.297 72.1519 85.3001 70.6483 85.6521 69.3346C84.6909 70.3268 83.9134 71.4047 83.5675 72.8807H83.589ZM13.4393 35.8608C14.4556 37.2174 15.5086 38.4913 17.6329 37.6645C15.9402 37.542 14.8903 36.2773 13.4393 35.8608ZM55.2224 36.4733C55.3602 34.9911 54.8581 34.1031 53.4959 33.7172C53.1654 35.2208 54.4327 35.6128 55.2224 36.4978V36.4733ZM35.5308 46.6738C36.0848 47.7394 36.7552 47.9538 38.2857 47.623C37.6735 46.5513 37.6735 46.5513 35.5308 46.6738ZM82.1074 76.5524C83.8552 75.8358 84.1215 74.4088 84.4797 73.0032C83.7665 73.3278 83.2767 73.7749 83.1849 74.5343C83.093 75.2938 82.5971 75.8205 82.1013 76.5524H82.1074ZM65.1156 46.931C65.789 46.4961 66.4747 46.1195 66.8849 45.3662C64.7085 44.9099 64.7085 44.9099 65.1095 46.931H65.1156ZM58.314 42.0987C58.4334 40.5859 56.9121 40.7543 56.2509 39.8387C56.3213 41.4587 56.6335 41.7771 58.3079 42.0987H58.314ZM54.9469 33.8305C54.9836 32.2596 53.7225 31.9197 53.0828 30.9612C52.6542 32.6791 53.9796 33.019 54.9346 33.8305H54.9469ZM34.6125 44.9742C34.9186 46.7135 36.143 46.0674 37.2113 46.147C36.6358 44.916 35.7053 44.7812 34.6125 44.9742ZM68.544 44.818C69.946 44.9772 71.4551 45.4305 72.5234 43.7921C71.1306 44.129 69.8848 44.6128 68.544 44.818ZM26.2558 37.9769C26.6232 38.4975 26.969 38.9782 27.3058 39.4713C27.5261 39.7959 27.8354 39.7132 28.1292 39.6642C28.4231 39.6152 28.3343 39.3978 28.2884 39.2201C28.0711 38.3106 27.315 37.8299 26.2558 37.9769ZM30.3485 41.9578C29.8159 41.2933 29.3628 40.7329 28.9159 40.1786C28.8208 40.0583 28.6842 39.9781 28.5329 39.9537C28.3815 39.9293 28.2266 39.9626 28.0986 40.047C27.9333 40.1174 27.8629 40.2552 27.9915 40.3961C28.6251 41.1127 29.0077 42.1844 30.3485 41.9854V41.9578ZM71.4672 74.0597C71.65 73.9118 71.8181 73.7467 71.9693 73.5667C72.1223 73.3339 71.8683 73.2604 71.7336 73.1685C71.2959 72.8807 70.8428 72.6143 70.402 72.3295C70.3119 72.2627 70.2012 72.2298 70.0893 72.2366C69.9773 72.2433 69.8713 72.2892 69.7898 72.3662C69.6643 72.4642 69.5082 72.6235 69.6306 72.7184C70.2122 73.1961 70.8305 73.6187 71.4672 74.075V74.0597ZM55.3938 32.9057C55.3632 34.4859 56.5233 34.3634 57.3651 34.8472C57.3192 33.4845 56.0978 33.6315 55.3938 32.9211V32.9057ZM53.9031 37.0367C53.9277 37.5996 54.0992 38.1462 54.4005 38.6222C54.7018 39.0981 55.1222 39.4869 55.6203 39.7499C55.4274 38.5311 54.6561 37.9187 53.897 37.0521L53.9031 37.0367ZM62.9638 45.3049C63.1087 46.5604 63.2535 47.8149 63.3984 49.0684C63.4964 47.819 63.8392 46.5206 62.9638 45.3355V45.3049ZM113.777 56.0504C114.646 56.5833 115.479 56.473 116.226 56.7119C116.357 56.7547 116.737 57.0947 116.801 56.5588C116.85 56.1423 116.66 56.0351 116.278 56.0443C115.509 56.0933 114.747 56.0719 113.771 56.0719L113.777 56.0504ZM78.0791 75.058C77.069 75.4928 77.4883 76.2615 77.4516 76.8954C77.4516 77.0822 77.4852 77.3057 77.7577 77.2812C77.8541 77.2704 77.9425 77.2225 78.0042 77.1476C78.0659 77.0727 78.0961 76.9767 78.0883 76.88C78.0791 76.3013 78.0791 75.7317 78.0791 75.058ZM60.472 42.9561C60.3404 41.7894 59.4802 41.7802 58.764 41.3821C58.7946 42.5795 59.6639 42.5979 60.4659 42.9561H60.472ZM29.02 33.1385C30.7709 32.6761 29.5802 31.7605 29.6751 30.8632C29.1884 31.6441 29.2893 32.3178 29.0138 33.1385H29.02ZM34.9186 48.0915C35.494 48.704 35.5798 49.7605 36.8624 49.2215C36.1644 48.8786 36.1154 47.8435 34.9186 48.0915ZM59.8384 36.1028C59.4252 35.2729 58.6905 34.8533 57.6957 34.2991C58.0446 35.6036 59.165 35.6005 59.8323 36.1028H59.8384ZM61.1026 42.653C60.9863 43.7064 61.8495 43.6574 62.3944 44.1474C62.3791 43.1307 61.7026 43.0021 61.0965 42.653H61.1026ZM61.0689 83.5558C61.6811 84.2509 62.125 83.7028 62.5597 83.4211C62.7617 83.2894 62.5964 83.1577 62.4158 83.0291C61.7026 82.53 61.5495 83.2741 61.0628 83.5558H61.0689ZM43.8997 59.275C44.0864 59.6762 44.9281 59.8874 44.6036 60.307C44.2271 60.8061 43.716 60.2212 43.3303 59.9579C42.1182 59.1666 40.7472 58.6513 39.3142 58.4482C38.0674 58.2639 36.9042 57.7103 35.9746 56.8589C34.9932 55.955 33.8425 55.2545 32.5891 54.7979C31.9366 54.5751 31.3544 54.184 30.9013 53.6641C30.4483 53.1442 30.1403 52.5138 30.0087 51.8367C29.7298 50.7202 29.0733 49.7345 28.1506 49.047C27.5211 48.6058 26.9981 48.0293 26.6201 47.3597C26.4885 47.0963 26.415 46.8605 26.6201 46.6247C26.8252 46.3889 27.0885 46.4257 27.3425 46.5788C28.3067 47.1545 29.3903 47.2494 30.4678 47.4607C32.0565 47.767 33.9023 49.3655 34.487 50.7129C32.8493 50.5445 32.0075 48.5693 30.0056 48.7928C30.8635 49.6283 31.5444 50.6281 32.0075 51.7326C32.1116 51.996 32.4024 52.0695 32.6565 52.1583C33.2932 52.3849 33.8135 52.6911 33.9299 53.4628C33.9765 53.6711 34.0715 53.8656 34.207 54.0305C34.3426 54.1954 34.5151 54.3261 34.7104 54.4121C36.7307 55.438 38.3837 57.0977 40.6733 57.698C41.7906 58.0042 42.7915 58.7238 43.8445 59.2597L43.8997 59.275ZM27.064 47.0259C27.3057 47.6392 27.7178 48.1705 28.2516 48.557C29.3567 49.4267 30.425 50.373 30.6209 51.9255C30.7739 53.1504 31.5392 53.8578 32.6381 54.3233C34.1793 54.9641 35.6221 55.8198 36.9236 56.865C37.6307 57.4407 38.454 57.8786 39.253 57.8694C37.3674 56.2433 34.4747 55.8054 33.2534 53.129C33.0952 52.9113 32.8654 52.7563 32.6044 52.6911C32.2753 52.5955 31.976 52.4178 31.7345 52.1746C31.493 51.9314 31.3172 51.6307 31.2239 51.3008C30.9953 50.7297 30.6562 50.2093 30.226 49.7697C29.9444 49.4635 29.2649 49.1909 29.571 48.7071C29.8771 48.2232 30.5199 48.165 31.1015 48.4008C31.1872 48.4376 31.3096 48.3825 31.6249 48.3488C30.0944 47.4454 28.3068 48.1834 27.0487 47.0259H27.064ZM72.9611 110.911C74.0845 111.187 74.7517 112.363 75.9915 112.442C72.9947 110.452 70.3714 108.011 67.6471 105.687C69.0368 107.549 70.8887 108.918 72.5692 110.467L72.9611 110.911ZM113.979 29.8618C111.031 29.3719 108.086 28.8727 105.129 28.4317C104.119 28.2817 104.024 28.3797 103.568 28.8819C107.156 28.839 110.648 30.0425 114.484 30.2814C114.199 30.0425 114.092 29.8802 113.973 29.8618H113.979ZM104.982 14.0298L96.3871 12.4987C96.3688 12.6243 96.3474 12.7468 96.3259 12.8693C99.1788 13.5246 102.068 13.9778 104.97 14.3575C104.97 14.2534 104.973 14.1401 104.976 14.0298H104.982ZM104.441 25.8931C107.128 26.6066 109.807 27.36 112.571 27.5621C109.843 26.9802 107.232 25.9574 104.435 25.8931H104.441ZM84.9083 28.4103C87.4428 28.6247 89.9804 28.7686 92.4966 28.9095C90.0143 28.2968 87.4432 28.1278 84.9021 28.4103H84.9083ZM96.8187 15.1721L104.278 16.397C101.866 15.4783 99.3808 15.0955 96.8494 14.8658C96.831 14.9516 96.8218 15.0618 96.8126 15.1721H96.8187ZM51.2094 18.2343L58.7211 17.0094C58.6997 16.8839 58.6783 16.7614 58.6599 16.6389C56.1621 17.0982 53.6154 17.2514 51.1512 17.9036L51.2094 18.2343ZM81.5136 23.9057L74.7303 23.1708L74.6936 23.5352C76.9343 23.9761 79.2117 24.065 81.4738 24.2793C81.4769 24.1446 81.4891 24.0221 81.5044 23.8965L81.5136 23.9057ZM84.593 26.1993C86.9194 26.7138 89.2488 27.1732 91.6579 26.7965C89.2825 26.7016 86.9561 26.2177 84.5838 26.1902L84.593 26.1993ZM52.6328 11.9016C50.2238 12.1649 47.7933 12.2537 45.424 12.8203L45.4607 13.1265L52.6542 12.2078C52.6389 12.1129 52.6328 12.0026 52.6236 11.8924L52.6328 11.9016ZM49.6635 16.6726C52.0022 16.6144 54.2306 15.8917 56.5356 15.6222L56.4713 15.2211L49.6085 16.3602L49.6635 16.6726ZM101.83 11.923L95.4963 10.2633L95.4107 10.5695C97.4677 11.3504 99.6196 11.7944 101.762 12.2445L101.83 11.923ZM54.0041 13.1479L47.9555 14.5229C47.977 14.6239 47.9984 14.725 48.0229 14.8291C50.0921 14.679 52.0297 13.9104 54.0561 13.5399C54.0286 13.3898 54.0133 13.2612 53.9949 13.1326L54.0041 13.1479ZM111.365 24.9163C109.418 24.6896 107.551 23.97 105.579 23.9976C107.465 24.5304 109.348 25.1796 111.356 24.9009L111.365 24.9163ZM63.7198 29.4791C65.783 29.4791 67.6991 28.7227 69.7041 28.3521C67.6318 28.3399 65.6575 28.836 63.7106 29.4637L63.7198 29.4791ZM73.8212 21.4252C75.814 21.759 77.7791 21.2323 79.7504 21.119H73.7937C73.7937 21.2048 73.7937 21.3089 73.7937 21.41L73.8212 21.4252ZM75.1466 25.5746C77.2459 25.9689 79.3933 26.038 81.5136 25.7798C80.4636 25.6328 79.4045 25.6451 78.3515 25.4736C77.2865 25.3487 76.2157 25.2792 75.1435 25.2654C75.1252 25.3542 75.1283 25.4491 75.1283 25.5593L75.1466 25.5746ZM109.608 22.3225C107.961 22.2643 106.397 21.7713 104.784 21.5079C105.91 22.3868 108.57 22.8309 109.608 22.3225ZM78.1709 18.2099L72.8447 17.6525C72.8294 17.7628 72.8172 17.8761 72.8049 17.9863C74.5563 18.3645 76.3461 18.5341 78.1372 18.4916C78.1434 18.4059 78.1526 18.3048 78.1648 18.2099H78.1709ZM102.09 17.7413C100.354 17.3769 98.6431 16.8839 96.8707 16.7124C96.8524 16.8165 96.831 16.9206 96.8095 17.0186L102.065 18.1027C102.065 17.9863 102.074 17.8638 102.084 17.7413H102.09ZM81.1524 6.28843C82.66 7.11774 84.3943 7.43984 86.099 7.20711C84.4001 7.14587 82.8115 6.46298 81.1401 6.28843H81.1524ZM63.0372 28.4807L67.6135 26.9864C65.9835 27.0202 64.3849 27.4399 62.9484 28.2113C62.9699 28.2939 63.0005 28.3858 63.0311 28.4807H63.0372ZM76.6404 27.6049C78.1709 27.6049 79.7014 27.9663 81.2656 27.7917C79.729 27.4916 78.1954 27.1885 76.6343 27.5927L76.6404 27.6049ZM79.7504 9.18533C81.0452 9.46706 82.3217 9.85903 83.7297 9.45175L79.8086 8.8393C79.781 8.95566 79.7626 9.06897 79.7443 9.18533H79.7504ZM80.4637 7.04174C81.633 8.05842 83.0594 8.26665 84.5379 8.26665L80.4637 7.04174ZM95.6892 9.39968L99.6012 10.0121C98.6737 9.268 96.6412 8.98014 95.6831 9.39355L95.6892 9.39968ZM84.4858 24.3467C85.5952 24.8005 86.8384 24.8005 87.9479 24.3467H84.4858ZM81.0055 11.1023L80.9473 11.4086C81.7769 11.6719 82.6002 11.9689 83.5644 11.5463L81.0055 11.1023ZM64.3779 26.0279C63.3831 25.7553 62.4923 26.0707 61.623 26.429C62.559 26.5317 63.5057 26.3914 64.3718 26.0217L64.3779 26.0279ZM71.9295 15.9897C72.6291 16.2435 73.3939 16.2532 74.0998 16.0173C73.7621 15.8509 73.3917 15.7616 73.0153 15.7558C72.639 15.7499 72.266 15.8278 71.9233 15.9836L71.9295 15.9897ZM30.9392 103.905C30.6729 101.786 30.3791 99.6726 30.1709 97.5473C29.8832 94.6167 29.6658 91.6739 29.4087 88.7403C28.9098 83.1087 28.5333 77.5047 31.7841 72.4152C32.1529 71.7896 32.4751 71.1376 32.7483 70.4646C33.5105 68.7681 33.284 67.3349 32.0228 66.0335C31.4038 65.3591 30.8712 64.6102 30.4373 63.8041C30.1033 63.1172 29.678 62.4785 29.173 61.9055C27.945 60.6386 26.8646 59.2362 25.9528 57.7255C24.9641 56.1515 23.9539 54.5714 22.4357 53.3618C22.3652 53.5465 22.3321 53.7435 22.3385 53.9412C22.3448 54.1388 22.3903 54.3333 22.4724 54.5132C23.3108 56.9523 24.7913 59.1199 26.7579 60.7878C27.7742 61.6452 28.9006 62.3985 29.6995 63.504C30.9484 65.2128 31.2514 67.0593 31.1566 69.1845C31.0372 72.0018 30.428 74.6538 28.7077 76.7882C27.0609 78.846 26.8527 80.9896 27.1772 83.366C28.0312 89.8335 29.375 96.2275 30.1648 102.698C30.2352 103.292 30.2352 103.954 30.7066 104.431C31.0249 104.275 30.9668 104.098 30.9392 103.905ZM18.441 84.6123C18.2084 81.2683 17.939 77.9273 17.7003 74.5803C17.476 77.9406 17.7264 81.3158 18.4441 84.6062L18.441 84.6123ZM16.7728 83.3292C16.5065 79.9086 16.2861 76.6106 16.3443 73.2237C15.6004 74.1638 15.9402 82.0737 16.7758 83.3261L16.7728 83.3292ZM24.9733 90.1642L27.0211 99.6573L27.3272 99.5899C26.7915 96.3898 26.1028 93.2204 25.3498 90.0662L24.9733 90.1642ZM14.6239 81.795C14.0117 78.6745 14.4189 75.7501 14.2046 72.7307C13.4914 73.8637 13.7393 80.6313 14.6239 81.795ZM23.6846 88.8903C23.8407 91.876 24.3947 94.8097 24.7192 97.7709L25.0713 97.7311L24.0703 88.8505L23.6846 88.8903ZM19.4236 62.3342L18.1992 69.6378L18.539 69.6929C19.1206 67.2798 19.4267 64.8208 19.7634 62.3679L19.4236 62.3342ZM19.794 77.3394C19.4879 79.8443 19.5491 82.3156 20.3817 84.7378C19.8797 82.3033 20.0971 79.7923 19.794 77.3302V77.3394ZM11.4037 71.8671L11.0211 71.8855C11.165 74.1393 10.715 76.433 11.4037 78.6715V71.8671ZM21.9704 79.6239L21.6857 79.6545C21.5867 81.7235 21.8989 83.7916 22.604 85.7392C22.3877 83.6936 22.1765 81.6521 21.9704 79.6147V79.6239ZM21.6215 70.0818C22.2337 68.2628 22.151 66.3672 22.3469 64.4901C21.6582 66.2907 21.6153 68.1801 21.6215 70.0726V70.0818ZM25.1539 76.4483C25.6406 75.7501 26.4242 72.1366 26.3783 70.682C25.7236 72.5401 25.3121 74.4752 25.1539 76.4391V76.4483ZM17.1003 63.7276C16.7063 65.542 16.4595 67.3854 16.3626 69.2397L16.7238 69.2795C16.9463 67.4299 17.1687 65.5802 17.3911 63.7306L17.1003 63.7276ZM22.503 89.4507C22.3316 91.4167 22.3163 93.3643 23.1152 95.2353L22.503 89.4507ZM25.0559 70.189C24.5376 71.914 24.0223 73.6391 23.5101 75.3642L23.853 75.4714C24.4983 73.7833 24.992 72.0412 25.3283 70.2655L25.0559 70.189ZM23.5254 79.9515C23.0629 81.665 23.2358 83.488 24.0122 85.0839C23.7284 83.3818 23.5677 81.6614 23.5316 79.9362L23.5254 79.9515ZM23.7305 69.4326C23.8958 67.9229 24.4192 66.4346 23.905 64.8851C23.8989 66.3856 23.2866 67.8831 23.7366 69.4173L23.7305 69.4326ZM27.5293 69.8154C27.5293 71.4231 27.2537 73.0216 27.4129 74.6354C27.6302 73.0216 28.1598 71.4077 27.5353 69.8L27.5293 69.8154ZM20.3021 60.9103C20.8164 60.0345 20.8623 57.5662 20.3021 56.3628V60.9103ZM21.7072 74.1975C22.1908 72.7766 22.6255 71.4843 23.0663 70.1951C21.9918 71.4077 21.4195 73.1869 21.7133 74.1822L21.7072 74.1975ZM25.5824 69.0131C25.6559 67.9749 26.1396 66.9613 25.6957 65.9202C25.659 66.946 25.0345 67.9535 25.5886 68.9977L25.5824 69.0131ZM19.9471 89.7049C19.6961 91.0584 19.7726 92.366 20.5593 93.5205C20.3634 92.2364 20.1614 90.9594 19.9532 89.6896L19.9471 89.7049ZM18.4502 58.736C18.9736 57.7255 18.8635 56.6598 18.7747 55.6033C18.3155 56.6108 18.3461 57.6643 18.4563 58.7207L18.4502 58.736ZM103.281 50.6577C106.057 48.0272 109.25 45.8714 111.931 43.1245C108.901 45.4427 105.797 47.7119 103.287 50.6425L103.281 50.6577ZM113.312 45.1456C113.229 45.0354 113.146 44.9252 113.061 44.818C110.122 47.078 106.984 49.0807 104.422 51.7908L113.312 45.1456ZM111.114 41.5751C108.212 43.5839 105.221 45.4886 103.03 48.3396C105.527 45.8469 108.539 43.9636 111.12 41.5751H111.114ZM92.8027 45.5958C90.6232 46.5758 88.56 47.7394 86.9224 49.5033C88.7927 48.0487 90.9355 47.0167 92.8088 45.5958H92.8027ZM73.1815 46.294C71.3011 47.3393 69.6714 48.7825 68.4062 50.523C69.8724 48.9704 71.7581 47.8833 73.1815 46.294V46.294ZM108.221 51.0068L112.706 47.3536L112.503 47.1178C110.894 48.1902 109.385 49.4079 107.998 50.7558L108.221 51.0068ZM96.8952 45.801C95.0191 46.6776 93.4022 48.026 92.2027 49.7146C93.7087 48.3457 95.3984 47.1913 96.9106 45.8132L96.8952 45.801ZM90.0998 49.3226C91.5507 48.0395 92.971 47.0596 94.3423 46.0245C93.121 46.2419 90.5069 48.2386 90.1151 49.3349L90.0998 49.3226ZM102.151 45.997L105.925 43.1153C104.637 43.3481 102.849 44.7751 102.166 46.0092L102.151 45.997ZM114.205 47.7364C112.947 48.0426 111.343 49.6533 111.037 50.768C112.032 49.6934 113.095 48.6848 114.221 47.7486L114.205 47.7364ZM95.0525 48.8449C95.7198 48.0334 96.6167 47.7363 97.1952 47.0596C95.7565 47.4975 95.2913 47.8619 95.0678 48.8571L95.0525 48.8449ZM111.258 66.4193C111.757 66.5051 112.087 66.6428 111.775 67.1726C111.524 67.5983 111.279 68.0301 110.994 68.4343C110.199 69.5551 109.409 70.6942 109.026 72.0202C108.377 74.2802 106.541 75.1774 104.649 76.0379C104.48 76.1353 104.28 76.1641 104.09 76.1186C103.901 76.073 103.736 75.9565 103.63 75.7929C103.302 75.3458 103.608 75.1008 103.865 74.813C105.553 72.9395 107.088 70.9346 108.457 68.8171C109.003 67.981 109.729 67.2771 110.581 66.7562C110.832 66.6306 111.074 66.5326 111.273 66.4315L111.258 66.4193ZM110.599 67.6442C108.423 69.9593 106.871 72.7735 104.707 75.1162C106.106 74.421 107.587 73.7994 108.261 72.2683C108.957 70.6826 109.743 69.1377 110.615 67.6412L110.599 67.6442ZM81.0208 69.1754C83.4084 67.2553 85.8113 65.3598 88.2846 63.553C85.5021 64.931 83.1604 66.9062 81.036 69.1723L81.0208 69.1754ZM94.7954 79.7831C96.2984 78.108 97.9544 76.9474 99.4666 75.6031C97.8871 76.0716 95.2208 78.4265 94.8045 79.78L94.7954 79.7831ZM98.2451 78.8154L100.945 76.6136C99.4818 77.0576 98.6645 77.814 98.2543 78.8123L98.2451 78.8154ZM85.8419 67.5493L88.7284 65.5465L88.5539 65.2985C87.497 65.8207 86.5233 66.4967 85.6643 67.3043L85.8419 67.5493ZM89.2549 67.2982L91.8599 64.9861C91.2848 65.1578 90.7543 65.4535 90.3058 65.8524C89.8573 66.2514 89.5018 66.7438 89.2641 67.2951L89.2549 67.2982ZM87.4183 76.3778C86.0561 76.6228 85.4745 77.1311 85.1011 78.3499C85.8139 77.6246 86.5893 76.9636 87.4183 76.3748V76.3778ZM64.2953 61.6789L54.7204 60.8276L54.6929 61.1552C57.8702 61.6819 61.0812 61.7677 64.283 62.0402C64.2861 61.9055 64.3045 61.783 64.3045 61.6636L64.2953 61.6789ZM54.6254 59.6823C57.5518 60.0804 60.5026 59.9885 63.4351 60.2519C63.4351 60.1171 63.4504 59.9824 63.4596 59.8476L54.6438 59.3148L54.6254 59.6823ZM43.367 51.5611C43.367 51.6561 43.367 51.751 43.367 51.849C45.3292 52.3665 47.3188 52.1338 49.3054 51.9194L43.367 51.5611ZM62.3087 62.8181L57.2335 62.2638C58.2987 62.9528 60.769 63.1825 62.3087 62.8089V62.8181ZM58.8987 55.3308C57.8182 55.2818 56.7407 55.5543 55.6571 55.4073C56.7468 56.1545 57.8212 55.6095 58.8987 55.3155V55.3308ZM58.5589 53.622C57.3743 54.2345 56.2998 53.8578 55.3234 54.2682C56.8539 54.6601 57.6926 54.5132 58.5589 53.622V53.622ZM64.7483 113.612C62.1311 111.882 59.6425 109.965 56.9856 108.293C59.3517 110.375 61.8709 112.252 64.7483 113.597V113.612ZM68.9419 104.854C70.7416 106.903 72.9255 108.579 75.3701 109.787C73.1814 108.204 71.0754 106.498 68.9419 104.839V104.854ZM58.363 110.58C59.5874 111.946 60.7904 113.336 62.5872 113.949C61.1516 112.85 59.8109 111.64 58.363 110.58ZM70.8245 104.575C71.8591 105.926 74.0018 107.417 75.5048 107.791C73.861 106.844 72.4529 105.54 70.8245 104.563V104.575ZM40.1651 101.164L41.0284 101.47C40.857 100.735 40.8355 100.08 40.3488 99.5746C39.8621 99.0693 40.2295 98.3895 40.0427 97.7801C39.2071 95.073 37.9857 92.4916 37.4286 89.6988C36.7858 86.4803 36.7858 83.3476 38.1357 80.2424C39.103 78.0192 39.7672 75.6674 40.5662 73.3737C40.5757 73.3367 40.5891 73.3008 40.606 73.2666C41.0498 72.5898 41.2182 71.5057 42.2987 71.6527C43.3793 71.7997 43.4496 72.8041 43.5507 73.6279C43.8292 75.8664 43.4282 78.0805 43.0456 80.2639C42.5803 82.8974 42.9752 85.4697 43.3823 88.0298C44.0802 92.4242 44.6068 96.8338 44.8945 101.271C45.0292 103.304 45.5985 105.252 45.9352 107.233C46.2362 108.737 46.3687 110.269 46.3301 111.802C46.2628 113.027 45.5465 113.41 44.469 112.816C44.1603 112.657 43.8945 112.426 43.6941 112.142C43.4938 111.859 43.3647 111.531 43.318 111.187C43.0244 109.07 42.5041 106.991 41.7661 104.986C41.7661 104.952 41.7263 104.915 41.7294 104.878C41.8243 103.402 41.3069 102.205 40.1651 101.152V101.164ZM41.8151 83.6538L41.8396 83.6814C42.1028 82.6433 41.7386 81.6358 41.6835 80.6191C41.6033 78.3145 41.6831 76.0072 41.9222 73.7136C41.6862 73.7696 41.4665 73.8794 41.2801 74.0346C41.0937 74.1897 40.9457 74.3859 40.8478 74.6078C39.6999 77.615 38.4173 80.5885 38.4388 83.9049C38.4388 84.8236 39.1642 83.9325 39.3571 84.3122C40.055 82.7994 40.5417 84.006 41.0774 84.45C41.3835 84.7072 41.6742 85.0012 42.0905 85.387C42.1609 84.649 42.2283 84.1131 41.8151 83.6324V83.6538ZM38.555 84.9706C38.4244 86.0587 38.4845 87.1614 38.7326 88.2288C39.1367 90.5531 39.3448 92.9999 41.6559 94.4238C41.9022 94.5956 42.1738 94.7279 42.4609 94.8158C42.6293 94.8526 42.5864 94.5953 42.617 94.4575C42.7242 93.989 42.3691 93.891 42.063 93.7471C41.4325 93.4409 40.762 93.1989 40.5539 92.2986C41.0957 92.6784 41.5212 93.0029 41.9743 93.2847C42.3661 93.5327 42.7456 93.4225 42.5865 92.9325C42.1518 91.5974 43.667 89.7876 41.61 88.8566C41.1233 87.2367 39.6111 86.4711 38.555 84.9583V84.9706ZM43.1283 106.379C43.4344 107.484 43.7405 108.523 44.0466 109.582C44.1966 110.09 44.3527 110.602 44.5211 111.113C44.5588 111.176 44.6104 111.229 44.672 111.268C44.7336 111.307 44.8035 111.332 44.8761 111.34C45.0506 111.34 45.0659 111.153 45.1057 111.006C45.6995 108.89 45.0782 107.405 43.1283 106.367V106.379ZM42.5987 103.583C42.3538 105.42 43.5935 106.14 44.8547 106.921C45.0475 105.117 43.7527 104.419 42.5987 103.571V103.583ZM42.6232 97.0176C43.1129 94.9138 41.0926 94.9567 40.3917 93.9553C40.3886 95.5171 41.463 96.2214 42.6232 97.0053V97.0176ZM41.9436 101.115C42.3752 103.02 42.3752 103.02 44.1567 104.101C44.0006 102.698 43.2507 101.737 41.9589 101.103L41.9436 101.115ZM42.6844 99.0755C43.3487 97.3024 41.8549 97.2013 41.0498 96.4419C40.8172 97.9148 41.8763 98.3558 42.6844 99.0632V99.0755ZM41.4875 98.8488C41.3804 100.163 42.3385 100.717 43.1925 101.4C43.2415 100.086 42.6201 99.299 41.4875 98.8366V98.8488ZM43.018 35.0095C41.7936 35.2147 40.5692 35.0524 39.3448 35.3433C40.5721 35.6727 41.8768 35.5499 43.0211 34.9973L43.018 35.0095ZM68.4399 37.6982C66.8637 38.6415 65.5976 40.0252 64.7973 41.6792C65.9666 40.3011 67.3165 39.0977 68.443 37.6982H68.4399ZM41.8396 83.6814C40.9213 83.7304 40.7131 82.6004 39.8469 82.5054C40.1652 83.1284 40.6575 83.6455 41.2641 83.9937C41.5916 84.1652 41.9834 84.3336 41.812 83.6538L41.8396 83.6814Z"/>
</svg>
