<svg width="92" height="93" viewBox="0 0 92 93" fill="none" xmlns="http://www.w3.org/2000/svg">
<g filter="url(#filter0_dddddd_4_35722)">
<circle cx="45.7551" cy="17.7551" r="16.7551" fill="white"/>
</g>
<g clip-path="url(#clip0_4_35722)">
<path d="M54.6425 17.4834L51.5475 14.3885C51.4759 14.3168 51.3803 14.2773 51.2784 14.2773C51.1765 14.2773 51.081 14.3168 51.0094 14.3885L50.7815 14.6163C50.6332 14.7648 50.6332 15.0061 50.7815 15.1544L53.3805 17.7534L50.7786 20.3552C50.707 20.4269 50.6675 20.5224 50.6675 20.6242C50.6675 20.7262 50.707 20.8217 50.7786 20.8934L51.0065 21.1212C51.0782 21.1928 51.1737 21.2323 51.2756 21.2323C51.3774 21.2323 51.473 21.1928 51.5446 21.1212L54.6425 18.0234C54.7143 17.9515 54.7537 17.8556 54.7535 17.7535C54.7537 17.6511 54.7143 17.5552 54.6425 17.4834Z" fill="black"/>
</g>
<g clip-path="url(#clip1_4_35722)">
<path d="M37.4996 18.0263L40.5946 21.1213C40.6662 21.193 40.7618 21.2324 40.8637 21.2324C40.9655 21.2324 41.0611 21.193 41.1327 21.1213L41.3606 20.8934C41.5089 20.745 41.5089 20.5036 41.3606 20.3554L38.7616 17.7564L41.3635 15.1545C41.4351 15.0829 41.4746 14.9874 41.4746 14.8855C41.4746 14.7836 41.4351 14.6881 41.3635 14.6164L41.1356 14.3886C41.0639 14.3169 40.9684 14.2775 40.8665 14.2775C40.7646 14.2775 40.6691 14.3169 40.5975 14.3886L37.4996 17.4864C37.4278 17.5583 37.3884 17.6542 37.3886 17.7562C37.3884 17.8586 37.4278 17.9545 37.4996 18.0263Z" fill="black"/>
</g>
<defs>
<filter id="filter0_dddddd_4_35722" x="0" y="0.395833" width="91.5103" height="92.1144" filterUnits="userSpaceOnUse" color-interpolation-filters="sRGB">
<feFlood flood-opacity="0" result="BackgroundImageFix"/>
<feColorMatrix in="SourceAlpha" type="matrix" values="0 0 0 0 0 0 0 0 0 0 0 0 0 0 0 0 0 0 127 0" result="hardAlpha"/>
<feOffset dy="0.537037"/>
<feGaussianBlur stdDeviation="0.570602"/>
<feColorMatrix type="matrix" values="0 0 0 0 0 0 0 0 0 0 0 0 0 0 0 0 0 0 0.0625926 0"/>
<feBlend mode="normal" in2="BackgroundImageFix" result="effect1_dropShadow_4_35722"/>
<feColorMatrix in="SourceAlpha" type="matrix" values="0 0 0 0 0 0 0 0 0 0 0 0 0 0 0 0 0 0 127 0" result="hardAlpha"/>
<feOffset dy="2.36296"/>
<feGaussianBlur stdDeviation="1.18148"/>
<feColorMatrix type="matrix" values="0 0 0 0 0 0 0 0 0 0 0 0 0 0 0 0 0 0 0.102074 0"/>
<feBlend mode="normal" in2="effect1_dropShadow_4_35722" result="effect2_dropShadow_4_35722"/>
<feColorMatrix in="SourceAlpha" type="matrix" values="0 0 0 0 0 0 0 0 0 0 0 0 0 0 0 0 0 0 127 0" result="hardAlpha"/>
<feOffset dy="5.8"/>
<feGaussianBlur stdDeviation="2.35625"/>
<feColorMatrix type="matrix" values="0 0 0 0 0 0 0 0 0 0 0 0 0 0 0 0 0 0 0.13 0"/>
<feBlend mode="normal" in2="effect2_dropShadow_4_35722" result="effect3_dropShadow_4_35722"/>
<feColorMatrix in="SourceAlpha" type="matrix" values="0 0 0 0 0 0 0 0 0 0 0 0 0 0 0 0 0 0 127 0" result="hardAlpha"/>
<feOffset dy="11.1704"/>
<feGaussianBlur stdDeviation="4.61852"/>
<feColorMatrix type="matrix" values="0 0 0 0 0 0 0 0 0 0 0 0 0 0 0 0 0 0 0.157926 0"/>
<feBlend mode="normal" in2="effect3_dropShadow_4_35722" result="effect4_dropShadow_4_35722"/>
<feColorMatrix in="SourceAlpha" type="matrix" values="0 0 0 0 0 0 0 0 0 0 0 0 0 0 0 0 0 0 127 0" result="hardAlpha"/>
<feOffset dy="18.7963"/>
<feGaussianBlur stdDeviation="8.4919"/>
<feColorMatrix type="matrix" values="0 0 0 0 0 0 0 0 0 0 0 0 0 0 0 0 0 0 0.197407 0"/>
<feBlend mode="normal" in2="effect4_dropShadow_4_35722" result="effect5_dropShadow_4_35722"/>
<feColorMatrix in="SourceAlpha" type="matrix" values="0 0 0 0 0 0 0 0 0 0 0 0 0 0 0 0 0 0 127 0" result="hardAlpha"/>
<feOffset dy="29"/>
<feGaussianBlur stdDeviation="14.5"/>
<feColorMatrix type="matrix" values="0 0 0 0 0 0 0 0 0 0 0 0 0 0 0 0 0 0 0.26 0"/>
<feBlend mode="normal" in2="effect5_dropShadow_4_35722" result="effect6_dropShadow_4_35722"/>
<feBlend mode="normal" in="SourceGraphic" in2="effect6_dropShadow_4_35722" result="shape"/>
</filter>
<clipPath id="clip0_4_35722">
<rect width="6.95495" height="6.95495" fill="white" transform="translate(49.2324 14.2773)"/>
</clipPath>
<clipPath id="clip1_4_35722">
<rect width="6.95495" height="6.95495" fill="white" transform="translate(42.9097 21.2324) rotate(-180)"/>
</clipPath>
</defs>
</svg>
