<svg width="60" height="67" viewBox="0 0 60 67" fill="none" xmlns="http://www.w3.org/2000/svg">
<g opacity="0.7">
<path d="M43.7133 35.9516H43.7172L53.6208 35.8778C54.0057 35.8739 54.3168 35.5628 54.3168 35.1779C54.3168 32.666 53.3408 30.3058 51.5639 28.5288C49.7869 26.7519 47.4267 25.7759 44.9148 25.7759H43.7094C43.3245 25.7759 43.0095 26.0908 43.0095 26.4758V35.2517C43.0095 35.4384 43.0834 35.6173 43.2156 35.7495C43.3517 35.8778 43.5267 35.9516 43.7133 35.9516ZM44.4132 27.1757H44.9187C47.0573 27.1757 49.0637 28.0078 50.5762 29.5203C51.9216 30.8657 52.7304 32.6077 52.8898 34.4819L44.4132 34.548V27.1757Z" fill="white"/>
<path d="M57.4905 42.7716H57.471V35.1777C57.471 31.8221 56.1646 28.6725 53.7927 26.3006C51.4208 23.9288 48.2674 22.6223 44.9156 22.6223H41.2567V16.2648C41.2567 15.8799 40.9417 15.5649 40.5568 15.5649H8.95629C8.57135 15.5649 8.25639 15.8799 8.25639 16.2648V20.4837H1.07075C0.685805 20.4837 0.37085 20.7986 0.37085 21.1836C0.37085 21.5685 0.685805 21.8835 1.07075 21.8835H14.5983C14.9832 21.8835 15.2982 21.5685 15.2982 21.1836C15.2982 20.7986 14.9832 20.4837 14.5983 20.4837H9.65619V16.9647H39.8608V23.3222V42.7716H24.5213C23.6775 40.7264 21.6634 39.2838 19.3148 39.2838C16.9663 39.2838 14.9521 40.7264 14.1083 42.7716H9.65619V36.5503H14.1317C14.5166 36.5503 14.8316 36.2353 14.8316 35.8504C14.8316 35.4654 14.5166 35.1505 14.1317 35.1505H3.51651C3.13157 35.1505 2.81661 35.4654 2.81661 35.8504C2.81661 36.2353 3.13157 36.5503 3.51651 36.5503H8.25639V42.7716H8.23695C7.66537 42.7716 7.12878 42.9933 6.72439 43.3976C6.32 43.802 6.09837 44.3386 6.09837 44.9102C6.09837 46.0884 7.05878 47.0488 8.23695 47.0488H14.1083C14.9521 49.0941 16.9663 50.5366 19.3148 50.5366C21.6634 50.5366 23.6775 49.0941 24.5213 47.0488H43.4614C44.3051 49.0941 46.3193 50.5366 48.6679 50.5366C51.0164 50.5366 53.0306 49.0941 53.8743 47.0488H57.4944C58.066 47.0488 58.6026 46.8272 59.0069 46.4228C59.4113 46.0184 59.633 45.4818 59.633 44.9102C59.6291 43.7281 58.6687 42.7716 57.4905 42.7716ZM41.2567 24.0221H44.9156C51.067 24.0221 56.0712 29.0264 56.0712 35.1777V42.7716H53.8704C53.0267 40.7264 51.0125 39.2838 48.664 39.2838C46.3154 39.2838 44.3013 40.7264 43.4575 42.7716H41.2567V24.0221ZM8.23695 45.649C7.82868 45.649 7.49817 45.3185 7.49817 44.9102C7.49817 44.7119 7.57593 44.5253 7.71591 44.3853C7.85589 44.2453 8.03865 44.1675 8.23695 44.1675H8.95629H13.7351C13.7039 44.4086 13.6884 44.6575 13.6884 44.9063C13.6884 45.1552 13.7039 45.404 13.7351 45.6451H8.23695V45.649ZM19.3148 49.1368C16.9818 49.1368 15.0843 47.2393 15.0843 44.9063C15.0843 42.5733 16.9818 40.6758 19.3148 40.6758C21.6478 40.6758 23.5453 42.5733 23.5453 44.9063C23.5453 47.2393 21.6478 49.1368 19.3148 49.1368ZM24.8946 45.649C24.9257 45.4079 24.9412 45.1591 24.9412 44.9102C24.9412 44.6614 24.9257 44.4125 24.8946 44.1714H40.5568H43.0842C43.0531 44.4125 43.0375 44.6614 43.0375 44.9102C43.0375 45.1591 43.0531 45.4079 43.0842 45.649H24.8946ZM48.664 49.1368C46.331 49.1368 44.4335 47.2393 44.4335 44.9063C44.4335 42.5733 46.331 40.6758 48.664 40.6758C50.997 40.6758 52.8945 42.5733 52.8945 44.9063C52.8945 47.2393 50.997 49.1368 48.664 49.1368ZM58.0115 45.4312C57.8715 45.5712 57.6849 45.649 57.4905 45.649H54.2476C54.2787 45.4079 54.2943 45.1591 54.2943 44.9102C54.2943 44.6614 54.2787 44.4125 54.2476 44.1714H56.775H57.4944C57.9026 44.1714 58.2332 44.5019 58.2332 44.9102C58.2293 45.1046 58.1515 45.2913 58.0115 45.4312Z" fill="white"/>
<path d="M19.3153 42.5928C18.036 42.5928 16.9978 43.631 16.9978 44.9102C16.9978 46.1856 18.036 47.2277 19.3153 47.2277C20.5945 47.2277 21.6327 46.1895 21.6327 44.9102C21.6327 43.631 20.5906 42.5928 19.3153 42.5928ZM19.3153 45.824C18.8098 45.824 18.3976 45.4118 18.3976 44.9063C18.3976 44.4008 18.8098 43.9887 19.3153 43.9887C19.8207 43.9887 20.2329 44.4008 20.2329 44.9063C20.2329 45.4157 19.8207 45.824 19.3153 45.824Z" fill="white"/>
<path d="M48.6649 42.5928C47.3856 42.5928 46.3474 43.631 46.3474 44.9102C46.3474 46.1856 47.3856 47.2277 48.6649 47.2277C49.9441 47.2277 50.9823 46.1895 50.9823 44.9102C50.9823 43.631 49.9441 42.5928 48.6649 42.5928ZM48.6649 45.824C48.1594 45.824 47.7472 45.4118 47.7472 44.9063C47.7472 44.4008 48.1594 43.9887 48.6649 43.9887C49.1703 43.9887 49.5825 44.4008 49.5825 44.9063C49.5825 45.4157 49.1703 45.824 48.6649 45.824Z" fill="white"/>
<path d="M21.7339 21.8832C22.1188 21.8832 22.4338 21.5682 22.4338 21.1833C22.4338 20.7984 22.1188 20.4834 21.7339 20.4834H17.7211C17.3362 20.4834 17.0212 20.7984 17.0212 21.1833C17.0212 21.5682 17.3362 21.8832 17.7211 21.8832H21.7339Z" fill="white"/>
<path d="M8.55873 25.3711H3.83052C3.44557 25.3711 3.13062 25.686 3.13062 26.071C3.13062 26.4559 3.44557 26.7709 3.83052 26.7709H8.55873C8.94368 26.7709 9.25863 26.4559 9.25863 26.071C9.25863 25.686 8.94368 25.3711 8.55873 25.3711Z" fill="white"/>
<path d="M10.9821 26.071C10.9821 26.4559 11.297 26.7709 11.682 26.7709H24.494C24.879 26.7709 25.1939 26.4559 25.1939 26.071C25.1939 25.686 24.879 25.3711 24.494 25.3711H11.682C11.2931 25.3711 10.9821 25.686 10.9821 26.071Z" fill="white"/>
<path d="M5.33625 30.9626C5.33625 30.5777 5.0213 30.2627 4.63635 30.2627H1.07075C0.685805 30.2627 0.37085 30.5777 0.37085 30.9626C0.37085 31.3475 0.685805 31.6625 1.07075 31.6625H4.63635C5.0213 31.6625 5.33625 31.3475 5.33625 30.9626Z" fill="white"/>
<path d="M7.05444 30.9626C7.05444 31.3475 7.3694 31.6625 7.75434 31.6625H21.729C22.114 31.6625 22.4289 31.3475 22.4289 30.9626C22.4289 30.5777 22.114 30.2627 21.729 30.2627H7.75434C7.3694 30.2627 7.05444 30.5738 7.05444 30.9626Z" fill="white"/>
<path d="M17.2504 35.1504C16.8655 35.1504 16.5505 35.4653 16.5505 35.8503C16.5505 36.2352 16.8655 36.5502 17.2504 36.5502H24.1756C24.5605 36.5502 24.8755 36.2352 24.8755 35.8503C24.8755 35.4653 24.5605 35.1504 24.1756 35.1504H17.2504Z" fill="white"/>
</g>
</svg>
