<svg width="55" height="55" viewBox="0 0 55 55" fill="none" xmlns="http://www.w3.org/2000/svg">
<g opacity="0.7">
<path d="M20 24H18.5V23H20V24ZM17.5 24H16V23H17.5V24Z" fill="white"/>
<path d="M17.9998 33C20.4328 29.4211 27 19.2647 27 14.9695C27 10.0236 22.9626 6 17.9998 6C13.0374 6 9 10.0236 9 14.9695C9 19.2647 15.5668 29.4211 17.9998 33ZM10.3263 14.9695C10.3263 10.7524 13.7686 7.32183 17.9998 7.32183C22.231 7.32183 25.6737 10.7524 25.6737 14.9695C25.6737 18.5704 19.9862 27.5994 17.9998 30.6252C16.0234 27.6146 10.3263 18.5735 10.3263 14.9695Z" fill="white"/>
<path d="M22 15.0002C22 12.7944 20.2056 11 17.9998 11C15.7944 11 14 12.7944 14 15.0002C14 17.2056 15.7944 19 17.9998 19C20.2056 19 22 17.2056 22 15.0002ZM15.2407 15.0002C15.2407 13.4784 16.4784 12.2407 17.9998 12.2407C19.5216 12.2407 20.7593 13.4784 20.7593 15.0002C20.7593 16.5216 19.5216 17.7593 17.9998 17.7593C16.4784 17.7593 15.2407 16.5216 15.2407 15.0002Z" fill="white"/>
<path d="M47.0539 19L40.4076 25.803H37.8271L32.2746 20.0405H26.9335V21.3899H31.7232L37.2758 27.1524H40.9538L47.0539 20.9085L48.6816 22.5742V24.5903L47.1106 26.1983V37.0914L45.0503 39.2002L45.051 42.2648L46.5688 43.8184V45.0754L45.6151 46.0517L42.2591 42.6163H31.7242L30.6599 45.2466L31.7575 46.37L30.5065 47.6506H28.9512L24.0328 42.6163H15.5932L6.31836 33.1229V21.3899H9.41925V20.0405H5V33.682L15.047 43.9657H23.4869L28.405 49H31.0524L33.6218 46.37L32.2149 44.9296L32.6052 43.9657H41.7129L45.6151 47.9598L47.8872 45.6345V43.2597L46.369 41.7058V39.7589L48.429 37.6505V26.7571L50 25.1493V22.0155L47.0539 19Z" fill="white"/>
</g>
</svg>
