<svg width="46" height="37" viewBox="0 0 46 37" fill="none" xmlns="http://www.w3.org/2000/svg">
<path d="M44.895 20.9465C44.8205 20.8513 44.7275 20.7722 44.6216 20.7141C44.6283 20.5706 44.6349 20.4273 44.6415 20.284C44.757 17.8259 44.8661 15.5042 44.4423 13.4789C43.962 11.1842 42.8274 9.61884 40.9784 8.69394C39.8351 7.35091 38.2186 6.49966 36.4643 6.31683C33.8521 6.03734 30.4357 6.16424 27.6904 6.26633C25.7138 6.33982 24.0067 6.40327 23.1996 6.2943C22.1155 6.14776 21.1951 6.33892 20.3052 6.52355C19.0448 6.7853 17.7443 7.05438 15.7477 6.48454C15.8433 6.30851 15.9248 6.12524 15.9916 5.93643C16.1079 5.60689 16.3345 4.80019 15.9271 4.42874C14.8371 3.43478 13.6137 3.41397 12.828 3.54756C13.0049 2.64419 12.7618 1.63014 12.3776 0.930152C12.0552 0.342935 11.6515 0.0128521 11.2408 0.000814471C10.28 -0.0249803 9.46151 1.38278 9.1803 2.25293C8.4863 2.15229 7.78159 2.14991 7.08694 2.24587C6.71305 1.2873 6.04048 0 5.12508 0C5.11603 0 5.10589 -2.48576e-07 5.09639 0.000452292C4.61045 0.0147526 4.07727 0.465754 3.67043 1.20702C3.33555 1.81623 3.09625 2.64447 3.23156 3.41704C2.69095 3.36161 2.14474 3.42324 1.63007 3.59775C1.11541 3.77226 0.644357 4.05556 0.248957 4.42838C-0.17263 4.81286 0.0291124 5.80908 0.214745 6.3372C0.414767 6.90586 1.01411 8.17877 2.42314 8.45726C2.47672 11.4621 2.87433 13.8153 3.60807 15.4515C3.799 15.8845 4.03499 16.2963 4.31214 16.68C4.46709 18.7329 5.10743 19.6894 5.67401 20.5345C6.14239 21.2331 6.54687 21.8364 6.66499 23.0104C6.85324 24.8819 8.77039 26.6799 10.3109 28.1246C11.0506 28.8183 11.8891 29.6048 11.9474 29.9295C12.1328 30.9623 12.5729 33.5109 12.6592 34.0114C12.6629 34.0332 12.6612 34.0555 12.6543 34.0765C12.6474 34.0975 12.6355 34.1165 12.6196 34.1318L12.3366 34.4047C12.2002 34.5362 12.1063 34.7054 12.0668 34.8907C12.0273 35.0759 12.0441 35.2688 12.115 35.4444C12.1859 35.6201 12.3077 35.7706 12.4647 35.8765C12.6218 35.9825 12.8069 36.0391 12.9963 36.0391H14.4971C14.6663 36.0388 14.8324 35.9935 14.9783 35.9078C15.1243 35.8221 15.2448 35.6991 15.3274 35.5515C15.562 35.1324 15.885 34.2934 16.0909 32.6753C16.2713 31.2547 16.3479 29.8229 16.32 28.3911C16.9493 28.9871 17.5496 29.5858 17.5985 29.8591C17.7756 30.8456 18.1889 33.2852 18.3113 34.0092C18.3149 34.0309 18.3132 34.0532 18.3063 34.074C18.2994 34.0949 18.2874 34.1138 18.2716 34.129L17.9878 34.4026C17.8515 34.5341 17.7575 34.7033 17.718 34.8886C17.6785 35.0738 17.6952 35.2667 17.7661 35.4424C17.837 35.618 17.9588 35.7685 18.1158 35.8745C18.2728 35.9804 18.4579 36.0371 18.6474 36.0371H20.1808C20.3337 36.0375 20.4844 36.0009 20.62 35.9303C20.7556 35.8596 20.872 35.7571 20.9592 35.6316C21.2629 35.1917 21.6454 34.3046 21.7443 32.5764C21.8477 30.7691 22.5449 28.3963 23.1504 26.4677C23.8887 26.2332 24.649 26.0744 25.4194 25.9937C26.2485 27.3415 27.1005 28.343 27.7317 29.0842C28.148 29.5734 28.5079 29.9959 28.5875 30.2156C28.9151 31.1187 29.2573 33.3452 29.3548 34.006C29.3579 34.0273 29.3558 34.049 29.3488 34.0693C29.3419 34.0897 29.3301 34.1081 29.3146 34.123L29.025 34.4025C28.8886 34.534 28.7947 34.7032 28.7552 34.8885C28.7157 35.0738 28.7324 35.2666 28.8033 35.4423C28.8742 35.618 28.996 35.7685 29.153 35.8744C29.3101 35.9804 29.4952 36.037 29.6846 36.037H31.218C31.3709 36.0374 31.5216 36.0008 31.6572 35.9302C31.7928 35.8595 31.9092 35.757 31.9964 35.6315C32.3001 35.1916 32.6827 34.3046 32.7816 32.5763C32.8398 31.5576 33.2823 29.9614 33.6576 28.6341C34.2694 29.2437 34.8221 29.8064 34.9322 30.1093C35.2977 31.114 35.6575 33.3465 35.7592 34.0068C35.7624 34.0282 35.7604 34.0501 35.7534 34.0705C35.7464 34.091 35.7346 34.1095 35.719 34.1245L35.4307 34.4026C35.2944 34.5341 35.2004 34.7033 35.161 34.8886C35.1215 35.0738 35.1383 35.2667 35.2092 35.4423C35.28 35.618 35.4018 35.7684 35.5588 35.8744C35.7158 35.9804 35.9009 36.037 36.0904 36.037H37.629C37.7803 36.0375 37.9295 36.0016 38.064 35.9324C38.1986 35.8632 38.3145 35.7627 38.4021 35.6393C38.706 35.2075 39.0892 34.3301 39.1881 32.6023C39.3345 30.0425 40.2964 26.8327 40.813 25.1082C40.9586 24.6222 41.0638 24.271 41.1117 24.0665C41.2268 23.5687 41.3412 23.081 41.4549 22.6033C42.5965 17.7668 43.4984 13.9468 42.0528 10.4545L42.0515 10.4513C44.1866 12.6132 44.0121 16.3383 43.8284 20.2455C43.8216 20.3918 43.815 20.5386 43.8082 20.6853C43.6964 20.7367 43.5965 20.8107 43.5145 20.9025C42.8682 21.6301 42.0483 23.3064 42.7164 24.0568C42.8468 24.2034 42.911 24.5064 42.9678 24.7737C43.065 25.2309 43.1979 25.8568 43.8231 25.902C43.8511 25.9041 43.8792 25.9051 43.9074 25.9051C44.6637 25.9051 45.4943 25.179 45.6773 23.7377C45.7376 23.2438 45.6995 22.7429 45.5652 22.2638C45.4309 21.7848 45.2031 21.3371 44.895 20.9465ZM11.2104 0.814482H11.2163C11.2566 0.818555 11.471 0.936306 11.7077 1.40559C12.0003 1.98566 12.1603 2.79634 12.0125 3.45325C11.4106 2.97374 10.7171 2.62209 9.9746 2.41982C10.2095 1.74925 10.8567 0.814482 11.2104 0.814482ZM4.38436 1.59901C4.6815 1.05786 5.01548 0.817741 5.12028 0.814663H5.12535C5.38339 0.814663 5.85114 1.39048 6.26413 2.38398C5.48277 2.5421 4.69272 2.79679 4.03473 3.27259C3.93617 2.70248 4.1351 2.05318 4.38436 1.59901ZM4.96108 16.1868C4.80111 15.9674 4.68879 15.717 4.63132 15.4517C4.57385 15.1863 4.57251 14.9118 4.62738 14.6459C4.67851 14.3909 4.78314 14.1497 4.93436 13.9381C5.08559 13.7266 5.27997 13.5495 5.50467 13.4186C6.04301 13.1028 6.68255 12.9704 7.32389 12.9704C8.66757 12.9704 10.0179 13.5521 10.4555 14.2453L10.4633 14.2578C10.7173 14.6753 10.8161 15.169 10.7422 15.6521C10.6683 16.1352 10.4265 16.5768 10.0593 16.8992C9.51662 17.3494 8.84735 17.6195 8.14425 17.6723H8.14253C8.10633 17.6751 8.06922 17.6769 8.03229 17.6786C8.02017 17.6791 8.00813 17.6799 7.99609 17.6803C7.96803 17.6812 7.93961 17.6815 7.91128 17.6818C7.8854 17.6818 7.85969 17.6828 7.83372 17.6826H7.83191C7.74348 17.6818 7.65677 17.6777 7.57115 17.6717C7.54554 17.6699 7.52029 17.6674 7.49495 17.6651C7.43141 17.6595 7.36857 17.6524 7.30642 17.6439C7.28252 17.6406 7.25854 17.6374 7.23492 17.6337C7.15645 17.6213 7.07897 17.6071 7.00294 17.5899C6.99914 17.589 6.99507 17.5884 6.99127 17.5875C6.90791 17.5684 6.82627 17.5459 6.7459 17.5209C6.73196 17.5166 6.7183 17.5119 6.70445 17.5072C6.63946 17.486 6.57538 17.4629 6.51221 17.4378C6.49411 17.4306 6.47601 17.4234 6.4579 17.4159C6.39352 17.389 6.33017 17.36 6.26784 17.329C6.25689 17.3235 6.24566 17.3186 6.23471 17.313C6.16357 17.2768 6.09379 17.2372 6.02528 17.1954C6.00582 17.1834 5.9869 17.1704 5.96762 17.158C5.92116 17.1282 5.87533 17.0972 5.83014 17.065C5.80196 17.0449 5.77402 17.0242 5.74633 17.0029C5.71212 16.9769 5.67854 16.9495 5.64505 16.9215C5.61364 16.8955 5.5817 16.8701 5.55128 16.8428C5.53155 16.8254 5.51255 16.8066 5.49309 16.7885C5.41827 16.7191 5.34517 16.6457 5.27379 16.5682C5.26075 16.5539 5.24745 16.5401 5.23451 16.5255C5.19414 16.4803 5.15444 16.4336 5.1154 16.3854C5.10372 16.3712 5.09223 16.3566 5.08064 16.3421C5.04009 16.2919 5.00009 16.2405 4.96108 16.1868ZM31.9687 32.5299C31.8759 34.1507 31.5264 34.879 31.3261 35.1689C31.3137 35.186 31.2973 35.1998 31.2784 35.2091C31.2595 35.2184 31.2386 35.223 31.2175 35.2225H29.6846C29.6574 35.2235 29.6305 35.2157 29.6079 35.2005C29.5853 35.1852 29.5681 35.1632 29.5587 35.1375C29.5474 35.1126 29.5444 35.0848 29.5501 35.058C29.5558 35.0313 29.57 35.0071 29.5905 34.989L29.8801 34.7095C29.9888 34.6046 30.0709 34.4753 30.1196 34.3324C30.1684 34.1895 30.1825 34.037 30.1607 33.8876C30.0326 33.016 29.6973 30.8864 29.3533 29.938C29.2234 29.5799 28.8768 29.1727 28.3519 28.5562C27.615 27.7179 26.9368 26.8298 26.322 25.8982C26.5811 25.8741 26.8431 25.8515 27.1081 25.8288C28.3364 25.7236 29.5841 25.6162 30.7736 25.3203C31.3936 26.297 32.2285 27.1965 32.9973 27.9743C32.9722 28.063 32.9467 28.1533 32.9208 28.2451C32.5261 29.6412 32.0344 31.3785 31.9687 32.5299ZM40.6614 22.4164C40.5483 22.8953 40.4337 23.384 40.3174 23.8826C40.2759 24.0619 40.1686 24.4204 40.0325 24.8743C39.5062 26.6307 38.5266 29.9002 38.3747 32.5556C38.2821 34.1724 37.9347 34.8877 37.7358 35.1703C37.7234 35.1869 37.7072 35.2002 37.6886 35.2093C37.67 35.2183 37.6495 35.2228 37.6288 35.2222H36.0902C36.0629 35.2234 36.0359 35.2158 36.0132 35.2006C35.9905 35.1853 35.9734 35.1631 35.9643 35.1373C35.9532 35.1124 35.9503 35.0846 35.956 35.0579C35.9618 35.0312 35.9758 35.007 35.996 34.9887L36.2842 34.7107C36.3937 34.6051 36.4763 34.4748 36.525 34.3307C36.5736 34.1866 36.587 34.0329 36.564 33.8825C36.4302 33.0126 36.0778 30.8761 35.6976 29.8307C35.5174 29.3353 34.9229 28.7438 34.1 27.9252C33.2882 27.1177 32.3023 26.1366 31.5908 25.0813C32.7215 24.7153 33.745 24.0772 34.5715 23.2232C34.6455 23.1451 34.6857 23.0409 34.6831 22.9334C34.6806 22.8258 34.6356 22.7237 34.558 22.6492C34.4804 22.5747 34.3764 22.5339 34.2689 22.5358C34.1613 22.5377 34.0588 22.582 33.9839 22.6592C32.14 24.5798 29.5464 24.802 27.0383 25.0169C26.5555 25.0584 26.0675 25.1003 25.5827 25.1548L25.5716 25.1562C24.8554 25.2286 24.1454 25.353 23.4473 25.5284C23.8565 24.2374 24.0701 23.5323 24.0701 23.1679C24.0701 23.0599 24.0272 22.9563 23.9509 22.8799C23.8745 22.8035 23.7709 22.7606 23.6629 22.7606C23.5548 22.7606 23.4512 22.8035 23.3749 22.8799C23.2985 22.9563 23.2556 23.0599 23.2556 23.1679C23.2556 23.4405 22.9439 24.4224 22.6138 25.4619C21.9556 27.5353 21.0541 30.3747 20.931 32.5296C20.8382 34.1504 20.4887 34.8788 20.2884 35.1687C20.2759 35.1857 20.2596 35.1995 20.2407 35.2088C20.2217 35.2181 20.2008 35.2228 20.1797 35.2222H18.6474C18.6201 35.2232 18.5932 35.2155 18.5706 35.2002C18.548 35.1849 18.5308 35.1629 18.5215 35.1372C18.5102 35.1124 18.5072 35.0845 18.5129 35.0578C18.5186 35.031 18.5327 35.0068 18.5532 34.9887L18.8371 34.715C18.9483 34.6079 19.0317 34.4752 19.08 34.3285C19.1284 34.1818 19.1402 34.0256 19.1145 33.8733C18.9919 33.1481 18.578 30.7055 18.4004 29.715C18.2993 29.1519 17.6529 28.523 16.5192 27.4598C15.8991 26.8782 15.214 26.2354 14.6218 25.5669C14.6134 25.5572 14.6056 25.5473 14.5964 25.5384C13.8241 24.6617 13.2154 23.7418 13.1265 22.8582C13.1157 22.7507 13.0627 22.6519 12.979 22.5836C12.8954 22.5152 12.788 22.4829 12.6806 22.4937C12.5731 22.5045 12.4743 22.5575 12.4059 22.6412C12.3376 22.7248 12.3052 22.8322 12.316 22.9396C12.3921 23.6951 12.7505 24.4385 13.251 25.1517C12.327 24.8791 11.4519 24.4622 10.6581 23.9165C9.86228 23.3619 9.65347 22.6765 9.41254 21.8833C9.22492 21.2663 9.03078 20.6284 8.54566 20.0291C8.47769 19.9451 8.37913 19.8915 8.27166 19.8802C8.16419 19.8688 8.05662 19.9006 7.9726 19.9686C7.88859 20.0365 7.83501 20.1351 7.82367 20.2426C7.81232 20.35 7.84413 20.4576 7.9121 20.5416C8.29739 21.0174 8.4604 21.5532 8.6329 22.1205C8.88216 22.9399 9.16473 23.8688 10.1919 24.5848C11.3036 25.3596 12.6175 25.9034 14.0991 26.2037C14.5426 26.6965 15.0247 27.1685 15.493 27.6123C15.4942 27.73 15.4964 27.8573 15.4988 27.9969C15.5448 29.5253 15.4726 31.055 15.2827 32.5722C15.0836 34.1388 14.7798 34.8621 14.6166 35.1531C14.6048 35.1745 14.5875 35.1924 14.5665 35.2049C14.5454 35.2174 14.5215 35.2241 14.497 35.2242H12.9963C12.969 35.2251 12.9422 35.2174 12.9196 35.2022C12.8969 35.1869 12.8797 35.1649 12.8704 35.1392C12.859 35.1144 12.856 35.0865 12.8617 35.0598C12.8673 35.033 12.8815 35.0088 12.902 34.9907L13.185 34.7178C13.2967 34.6103 13.3803 34.4771 13.4286 34.3298C13.4769 34.1824 13.4884 34.0255 13.462 33.8728C13.3755 33.3718 12.935 30.8209 12.7492 29.7855C12.6481 29.2225 12.0018 28.5936 10.8681 27.5303C9.42684 26.1787 7.63315 24.4965 7.47549 22.9288C7.33701 21.5521 6.8355 20.8042 6.35065 20.0809C5.92925 19.4522 5.49689 18.8065 5.26455 17.662C5.78328 18.0561 6.38981 18.3185 7.03218 18.4268L7.03616 18.4275C7.20134 18.4561 7.36794 18.4757 7.53522 18.4864C7.55034 18.4874 7.56554 18.4882 7.58048 18.4891C7.66193 18.4935 7.74339 18.4969 7.8263 18.4975H7.86521C11.502 18.4975 12.7189 14.3931 13.0061 13.1316C13.0301 13.0262 13.0113 12.9157 12.9538 12.8242C12.8963 12.7328 12.8048 12.6679 12.6995 12.6439C12.5942 12.6199 12.4836 12.6388 12.3922 12.6963C12.3007 12.7537 12.2359 12.8452 12.2119 12.9505C12.0592 13.6184 11.8366 14.2682 11.5476 14.8894C11.4897 14.5115 11.3556 14.1493 11.1534 13.8248L11.1456 13.8124L11.1442 13.8103C10.2301 12.3614 7.07064 11.555 5.09268 12.7151C4.57353 13.0168 4.17308 13.4868 3.95771 14.0473C3.49738 12.5291 3.25328 10.5356 3.23219 8.09568C3.23144 8.07984 3.22972 8.06406 3.22704 8.04844C3.22704 8.04527 3.22649 8.0421 3.22604 8.03938C3.22248 8.01564 3.21681 7.99226 3.20912 7.96951C3.2083 7.96716 3.20767 7.96481 3.20676 7.96245C3.19868 7.93977 3.18857 7.91787 3.17653 7.89702C3.17545 7.8952 3.17454 7.89339 3.17355 7.89158C3.16136 7.87128 3.14743 7.85208 3.13191 7.8342C3.13019 7.83221 3.12865 7.83013 3.12684 7.82814C3.11185 7.81154 3.0955 7.79623 3.07797 7.78234C3.07462 7.77963 3.07136 7.77673 3.06792 7.7742C3.05159 7.76208 3.03434 7.75125 3.01633 7.74179C3.01027 7.73854 3.00448 7.7351 2.99823 7.7322C2.982 7.72471 2.96528 7.71833 2.94818 7.7131C2.93913 7.71003 2.92944 7.70695 2.91967 7.7046C2.90498 7.70129 2.89011 7.69881 2.87514 7.69717C2.86609 7.69609 2.85803 7.69346 2.84907 7.69292C2.02753 7.64142 1.5358 7.10815 1.26726 6.66982C0.841875 5.97399 0.770102 5.20594 0.830562 5.00048C1.21171 4.6486 1.6783 4.40256 2.18396 4.2868C2.68963 4.17103 3.21678 4.18958 3.71306 4.34059C3.71759 4.34231 3.72212 4.34303 3.72673 4.34457C3.73877 4.34855 3.75072 4.35226 3.76293 4.35516C3.76999 4.35679 3.77705 4.35797 3.7842 4.35923C3.79543 4.36122 3.80674 4.36294 3.81805 4.36394C3.82548 4.36466 3.83281 4.36512 3.84014 4.36539C3.84539 4.36539 3.85055 4.36638 3.85571 4.36638C3.86086 4.36638 3.86792 4.36548 3.87381 4.36521C3.88123 4.36521 3.88856 4.36448 3.89598 4.36376C3.90729 4.36258 3.91852 4.36077 3.92983 4.35869C3.93707 4.35733 3.94431 4.35607 3.95146 4.35426C3.96223 4.35172 3.97282 4.34828 3.98341 4.3452C3.99101 4.34267 3.99862 4.34032 4.00604 4.33733C4.01509 4.33362 4.02414 4.32909 4.03319 4.32457C4.04224 4.32004 4.04966 4.31678 4.05772 4.31217C4.05953 4.31108 4.06143 4.31045 4.06315 4.30936C4.06641 4.30746 4.06894 4.30475 4.0722 4.30276C4.08879 4.29225 4.10458 4.28055 4.11945 4.26773C4.12506 4.26293 4.13058 4.25868 4.13583 4.25325C4.13918 4.25008 4.14289 4.24755 4.14606 4.2442C4.90841 3.46501 6.11189 3.20525 7.18649 3.05411C9.06427 2.79896 10.7766 3.30201 11.8839 4.43445C11.8869 4.43761 11.8904 4.43997 11.8935 4.44295C11.8995 4.44875 11.9059 4.45409 11.9125 4.45952C11.9258 4.47075 11.9398 4.48112 11.9544 4.49056C11.9587 4.49337 11.9622 4.49699 11.9667 4.49961C11.9712 4.50224 11.9736 4.50296 11.9771 4.50486C11.9828 4.50803 11.9886 4.51074 11.9944 4.51391C12.007 4.52025 12.0199 4.52593 12.0331 4.53093L12.0464 4.53554C12.0615 4.54058 12.0768 4.54472 12.0923 4.54794L12.1024 4.54993C12.1191 4.553 12.136 4.55499 12.1529 4.55591H12.161C12.1656 4.55591 12.1701 4.55681 12.1748 4.55681C12.189 4.55668 12.2033 4.55577 12.2175 4.5541H12.2198C12.2591 4.54964 12.2976 4.53955 12.334 4.52414L12.3392 4.52233C12.4071 4.49264 14.0039 3.81709 15.3405 4.9965C15.3696 5.15942 15.2891 5.72419 14.9036 6.30715C14.6478 6.69398 14.2021 7.16354 13.5319 7.20436C13.525 7.20436 13.5185 7.20689 13.5117 7.20771C13.4979 7.20921 13.4842 7.21141 13.4707 7.21431C13.4574 7.21721 13.4447 7.22056 13.432 7.22463C13.4197 7.22863 13.4076 7.23325 13.3958 7.23848C13.3833 7.24391 13.3712 7.2497 13.3596 7.25658C13.348 7.26346 13.3381 7.26934 13.3278 7.27649C13.3166 7.2841 13.3059 7.29229 13.2955 7.30102C13.2858 7.30907 13.2769 7.31767 13.2684 7.32663C13.2599 7.33559 13.2503 7.34591 13.2418 7.35623C13.2332 7.36655 13.2263 7.37659 13.2191 7.38736C13.212 7.39813 13.2051 7.40954 13.1989 7.42121C13.1926 7.43289 13.1875 7.44438 13.1824 7.45651C13.1773 7.46864 13.1727 7.48158 13.1688 7.49471C13.1649 7.50783 13.1621 7.5196 13.1598 7.53245C13.157 7.54624 13.155 7.56017 13.1538 7.57417C13.1532 7.58105 13.1512 7.58739 13.1509 7.59436C13.1195 8.35164 13.0278 9.28432 12.9415 9.46543C12.9166 9.51336 12.9014 9.56578 12.8969 9.61963C12.8924 9.67348 12.8987 9.72769 12.9154 9.77909C12.932 9.8305 12.9588 9.87807 12.994 9.91904C13.0292 9.96002 13.0723 9.99357 13.1206 10.0177C13.1689 10.0419 13.2216 10.0562 13.2755 10.0599C13.3294 10.0635 13.3835 10.0563 13.4346 10.0389C13.4858 10.0214 13.5329 9.99387 13.5733 9.95798C13.6137 9.9221 13.6466 9.87853 13.67 9.82982C13.8359 9.4982 13.9143 8.54198 13.9479 7.96607C14.4521 7.84623 14.9071 7.57371 15.2508 7.18571C17.5956 7.9172 19.1203 7.60114 20.4712 7.32075C21.332 7.142 22.1456 6.97338 23.091 7.10109C23.9672 7.21938 25.6238 7.15774 27.7211 7.07991C30.4402 6.97881 33.8242 6.8531 36.3782 7.12643C37.947 7.28948 39.39 8.05926 40.3992 9.27147C40.4041 9.27754 40.4087 9.28369 40.4139 9.28957C40.7804 9.73546 41.079 10.233 41.3 10.7662C42.6445 14.0156 41.7696 17.7228 40.6614 22.4164ZM44.8686 23.6351C44.7409 24.6412 44.2281 25.0905 43.905 25.0905H43.9028C43.8498 25.009 43.7967 24.7585 43.764 24.6046C43.6862 24.2383 43.5981 23.8232 43.3242 23.5155C43.1613 23.3324 43.4411 22.2111 44.1229 21.4435C44.1312 21.4342 44.1415 21.4268 44.153 21.422C44.1645 21.4171 44.1769 21.4149 44.1894 21.4155C44.2015 21.4156 44.2135 21.4185 44.2244 21.4239C44.2353 21.4293 44.2448 21.4371 44.2523 21.4467C44.4964 21.7516 44.6768 22.1024 44.7827 22.4783C44.8885 22.8543 44.9178 23.2477 44.8686 23.6351Z" fill="white"/>
</svg>
