<svg width="55" height="55" viewBox="0 0 55 55" fill="none" xmlns="http://www.w3.org/2000/svg">
<g opacity="0.7" clip-path="url(#clip0_4_38180)">
<path d="M54.8934 30.695C54.8024 30.5429 54.6606 30.4279 54.4931 30.3702C54.3256 30.3125 54.143 30.3158 53.9777 30.3796L50.3254 31.7868C45.124 33.8084 40.7843 37.5707 38.0453 42.4327C38.2455 38.6211 39.3025 34.9036 41.1377 31.5568C42.9729 28.21 45.5391 25.3201 48.6453 23.102L49.4522 22.527C49.5969 22.4235 49.7002 22.2719 49.7438 22.0994C49.7873 21.9269 49.7682 21.7445 49.6899 21.5847C49.6116 21.4249 49.4791 21.298 49.3161 21.2267C49.1531 21.1553 48.9701 21.1441 48.7995 21.195C42.8344 22.9662 37.673 26.7608 34.2031 31.926C35.0299 26.4104 37.2463 21.1958 40.6436 16.7727L43.3129 13.275C43.421 13.1331 43.4752 12.9574 43.4658 12.7793C43.4564 12.6011 43.3839 12.4321 43.2613 12.3025C43.1387 12.1729 42.9741 12.091 42.7967 12.0716C42.6194 12.0522 42.4409 12.0964 42.2932 12.1965C37.0974 15.7011 32.9178 20.514 30.176 26.1497C28.6251 18.67 25.5882 11.5778 21.2454 5.29356C20.0338 3.54279 18.7247 1.86162 17.3241 0.258051C17.2058 0.121803 17.0425 0.0326208 16.8639 0.00677862C16.6854 -0.0190636 16.5035 0.0201568 16.3514 0.117283C16.1994 0.214409 16.0873 0.362965 16.0357 0.535844C15.9841 0.708723 15.9963 0.894398 16.0702 1.05899L18.8202 7.21512C21.0968 12.3045 22.5883 17.7097 23.2439 23.2463C20.567 18.8482 16.9728 15.0794 12.7067 12.1969C12.5589 12.0969 12.3805 12.0526 12.2031 12.072C12.0258 12.0914 11.8611 12.1733 11.7386 12.3029C11.616 12.4326 11.5435 12.6015 11.5341 12.7797C11.5246 12.9579 11.5788 13.1336 11.687 13.2754L14.3562 16.7731C17.7535 21.1961 19.9699 26.4105 20.7968 31.926C17.327 26.7605 12.1656 22.9656 6.20033 21.1941C6.02977 21.143 5.84661 21.1541 5.68346 21.2254C5.5203 21.2967 5.38773 21.4235 5.30935 21.5834C5.23096 21.7433 5.21185 21.9258 5.2554 22.0984C5.29896 22.271 5.40236 22.4226 5.5472 22.5262L6.35458 23.1011C9.46093 25.3193 12.0271 28.2094 13.8623 31.5563C15.6975 34.9033 16.7545 38.6209 16.9545 42.4327C14.2156 37.5707 9.8759 33.8084 4.6745 31.7868L1.02216 30.3791C0.856849 30.3155 0.674372 30.3122 0.506899 30.37C0.339426 30.4277 0.197711 30.5427 0.106737 30.6947C0.0157639 30.8467 -0.0186266 31.0259 0.00962881 31.2008C0.0378842 31.3757 0.126971 31.535 0.261184 31.6506L4.46868 35.272C6.93224 37.3896 8.90907 40.0147 10.2638 42.9673C11.6186 45.92 12.3192 49.1305 12.3178 52.3791V53.4963H7.4838C7.38505 53.4963 7.28727 53.5158 7.19604 53.5536C7.10481 53.5914 7.02192 53.6467 6.95209 53.7166C6.88227 53.7864 6.82688 53.8693 6.78909 53.9605C6.7513 54.0518 6.73185 54.1495 6.73185 54.2483C6.73185 54.347 6.7513 54.4448 6.78909 54.536C6.82688 54.6273 6.88227 54.7102 6.95209 54.78C7.02192 54.8498 7.10481 54.9052 7.19604 54.943C7.28727 54.9808 7.38505 55.0002 7.4838 55.0002H47.5165C47.7159 55.0002 47.9072 54.921 48.0482 54.78C48.1892 54.639 48.2685 54.4477 48.2685 54.2483C48.2685 54.0489 48.1892 53.8576 48.0482 53.7166C47.9072 53.5756 47.7159 53.4963 47.5165 53.4963H42.6821C42.6274 51.0226 42.9219 48.5535 43.5569 46.162C44.7692 41.9292 47.1936 38.1437 50.5312 35.272L54.7395 31.6506C54.8736 31.5349 54.9625 31.3756 54.9907 31.2008C55.0188 31.026 54.9843 30.8469 54.8934 30.695ZM13.8217 53.4963V52.3791C13.8233 48.9142 13.0762 45.4899 11.6314 42.3405C10.1866 39.1912 8.07837 36.3913 5.45095 34.1325L4.5456 33.3534C8.28123 34.8972 11.5376 37.4091 13.9792 40.6304C16.4209 43.8517 17.9593 47.6658 18.4361 51.6796C18.5051 52.2835 18.55 52.8892 18.5706 53.4968L13.8217 53.4963ZM23.8158 53.4963H20.0801C20.0749 53.3214 20.0625 53.1461 20.053 52.9713C19.9229 50.461 19.3981 47.9869 18.498 45.6399V43.7424C18.4946 40.1627 17.7769 36.6197 16.3869 33.3209C14.9969 30.022 12.9626 27.0338 10.4031 24.5311C15.088 27.0324 18.8673 30.9442 21.2059 35.7124C22.9229 39.1966 23.8159 43.0288 23.8158 46.9131V53.4963ZM26.7484 53.4963H25.3193V50.3798C25.3193 49.2225 25.3193 48.0654 25.3193 46.9084V46.9054C25.3193 46.3897 25.2999 45.8801 25.2716 45.3718V45.3679C25.0782 41.8024 24.1759 38.3111 22.6174 35.0984C22.311 28.7115 20.2198 22.5385 16.5811 17.2806C22.6151 23.0882 26.2307 30.9621 26.7033 39.3235C26.7319 39.8858 26.7463 40.4487 26.7463 41.0122L26.7484 53.4963ZM25.0477 26.6086C24.6653 19.6993 23.0207 12.9184 20.1952 6.60153L19.9598 6.07344C21.3583 8.08686 22.6215 10.1909 23.741 12.3718C25.2313 15.2781 26.4621 18.3103 27.4192 21.4331C28.1389 23.7753 28.7028 26.1625 29.1074 28.5792C28.4289 30.3062 27.8913 32.0854 27.4999 33.8991C26.959 31.3846 26.1364 28.939 25.0477 26.6086ZM29.6806 53.4963H28.2519V41.0139C28.2585 37.053 28.9866 33.1265 30.4003 29.4265C32.1562 24.8422 34.8927 20.697 38.4183 17.281C34.78 22.5388 32.6889 28.7114 32.3825 35.098C30.8376 38.283 29.9376 41.7419 29.7343 45.276C29.5659 48.0041 29.6806 50.7639 29.6806 53.4963ZM34.9198 53.4963H31.1845V46.9054C31.1856 45.9178 31.243 44.931 31.3564 43.95C31.8382 39.8868 33.2935 36 35.5986 32.6195C37.9038 29.239 40.9907 26.4648 44.5972 24.5324C42.0378 27.0349 40.0035 30.0229 38.6134 33.3215C37.2234 36.6201 36.5055 40.1629 36.5019 43.7424V45.6382C35.6017 47.9853 35.0769 50.4595 34.9468 52.97C34.9374 53.1461 34.9249 53.3214 34.9198 53.4963ZM49.5494 34.1325C44.9075 38.1457 41.9624 43.7715 41.3092 49.8728C41.2041 51.0778 41.161 52.2874 41.1803 53.4968H36.4293C36.4493 52.8886 36.4943 52.2822 36.5642 51.6775C37.0413 47.664 38.58 43.8504 41.0216 40.6295C43.4631 37.4086 46.7194 34.897 50.4547 33.3534L49.5494 34.1325Z" fill="white"/>
</g>
<defs>
<clipPath id="clip0_4_38180">
<rect width="55" height="55" fill="white"/>
</clipPath>
</defs>
</svg>
